<svg xmlns="http://www.w3.org/2000/svg" width="113" height="113" viewBox="0 0 113 113">
  <g id="_26" data-name="26" transform="translate(-180 -4190.772)">
    <circle id="Elipse_5223" data-name="Elipse 5223" cx="56.5" cy="56.5" r="56.5" transform="translate(180 4190.772)" fill="#b7ceac"/>
    <g id="guia-turistico" transform="translate(202 4210.772)">
      <path id="Trazado_682943" data-name="Trazado 682943" d="M66.144,72.981A35,35,0,1,0,4.521,74.213Zm0,0" transform="translate(0 -18.857)" fill="#3c2b8e"/>
      <path id="Trazado_682944" data-name="Trazado 682944" d="M419.388,270.16a51.6,51.6,0,0,1-7.357,2.819V295.31a35.112,35.112,0,0,0,7.357-9.764Zm0,0" transform="translate(-353.171 -231.567)" fill="#f9b50b"/>
      <path id="Trazado_682945" data-name="Trazado 682945" d="M437.5,387.376a2.444,2.444,0,0,1-2.444-.868l-.537,5.1A35.078,35.078,0,0,0,437.5,387.376Zm0,0" transform="translate(-372.45 -331.294)" fill="#f79d0d"/>
      <path id="Trazado_682946" data-name="Trazado 682946" d="M401.8,57.739V24.931A2.939,2.939,0,0,0,398.873,22h-7.357a2.939,2.939,0,0,1,2.931,2.931V60.558A51.6,51.6,0,0,0,401.8,57.739Zm0,0" transform="translate(-335.586 -18.857)" fill="#2299f2"/>
      <path id="Trazado_682947" data-name="Trazado 682947" d="M414.8,47.645h-2.773v56.937a35.178,35.178,0,0,0,3.75-4.094V48.623A.978.978,0,0,0,414.8,47.645Zm0,0" transform="translate(-353.171 -40.838)" fill="#abe4fe"/>
      <path id="Trazado_682948" data-name="Trazado 682948" d="M412.031,386.551v8.486a35.177,35.177,0,0,0,3.75-4.094v-4.435a1.876,1.876,0,0,1-3.75.043Zm0,0" transform="translate(-353.171 -331.294)" fill="#82c6f9"/>
      <path id="Trazado_682949" data-name="Trazado 682949" d="M85.515,161.444c-13.5,3.932-23.766-.49-35.153-11.95A31.053,31.053,0,0,0,31.1,140.039v35.21a35,35,0,0,0,54.562,8.394V161.4l-.144.044Zm0,0" transform="translate(-26.655 -120.034)" fill="#fbc840"/>
      <path id="Trazado_682950" data-name="Trazado 682950" d="M95.955,394.7H51.2a5,5,0,0,1-2.37-.6,34.995,34.995,0,0,0,52.028,4.5v-7.777A5.065,5.065,0,0,1,95.955,394.7Zm0,0" transform="translate(-41.856 -335)" fill="#f9b50b"/>
      <path id="Trazado_682951" data-name="Trazado 682951" d="M85.659,24.931A2.939,2.939,0,0,0,82.729,22h-49.9A1.736,1.736,0,0,0,31.1,23.731v15.42a31.053,31.053,0,0,1,19.265,9.455c11.427,11.5,21.73,15.915,35.3,11.909Zm0,0" transform="translate(-26.655 -18.857)" fill="#52b0f5"/>
      <path id="Trazado_682952" data-name="Trazado 682952" d="M31.1,175.245a35.153,35.153,0,0,0,7.391,9.16v-42.68a30.447,30.447,0,0,0-7.391-1.69Zm0,0" transform="translate(-26.655 -120.031)" fill="#f9b50b"/>
      <path id="Trazado_682953" data-name="Trazado 682953" d="M51.215,414.368a5,5,0,0,1-2.368-.594,35.22,35.22,0,0,0,4.855,5.266v-4.671Zm0,0" transform="translate(-41.87 -354.664)" fill="#f79d0d"/>
      <path id="Trazado_682954" data-name="Trazado 682954" d="M36.758,22H32.829A1.736,1.736,0,0,0,31.1,23.731v15.42a30.416,30.416,0,0,1,7.391,1.689V23.731A1.736,1.736,0,0,0,36.758,22Zm0,0" transform="translate(-26.655 -18.857)" fill="#2299f2"/>
      <g id="Grupo_944724" data-name="Grupo 944724" transform="translate(16.035 48.507)">
        <path id="Trazado_682955" data-name="Trazado 682955" d="M178.7,339.555a1.082,1.082,0,0,0-1.082,1.082V347a1.6,1.6,0,1,1-3.2,0v-6.365a1.082,1.082,0,1,0-2.164,0V347a3.766,3.766,0,1,0,7.533,0v-6.365A1.082,1.082,0,0,0,178.7,339.555Zm0,0" transform="translate(-163.682 -339.555)" fill="#554cbf"/>
        <path id="Trazado_682956" data-name="Trazado 682956" d="M266.348,339.555h-1.988a1.082,1.082,0,0,0-1.082,1.082v9.05a1.082,1.082,0,0,0,1.082,1.082h1.988a4.468,4.468,0,0,0,4.463-4.463v-2.289A4.468,4.468,0,0,0,266.348,339.555Zm2.3,6.752a2.3,2.3,0,0,1-2.3,2.3h-.906v-6.886h.906a2.3,2.3,0,0,1,2.3,2.3Zm0,0" transform="translate(-241.703 -339.555)" fill="#554cbf"/>
        <path id="Trazado_682957" data-name="Trazado 682957" d="M237.1,339.555a1.082,1.082,0,0,0-1.082,1.082v9.05a1.082,1.082,0,0,0,2.164,0v-9.05A1.082,1.082,0,0,0,237.1,339.555Zm0,0" transform="translate(-218.339 -339.555)" fill="#554cbf"/>
        <path id="Trazado_682958" data-name="Trazado 682958" d="M330.81,346.379a1.082,1.082,0,0,0,0-2.164h-4.286v-2.5h4.286a1.082,1.082,0,1,0,0-2.164h-5.368a1.082,1.082,0,0,0-1.082,1.082v9.05a1.082,1.082,0,0,0,1.082,1.082h5.368a1.082,1.082,0,1,0,0-2.164h-4.286v-2.226Zm0,0" transform="translate(-294.059 -339.555)" fill="#554cbf"/>
        <path id="Trazado_682959" data-name="Trazado 682959" d="M118.7,344.368h-1.82a1.082,1.082,0,0,0,0,2.164h.738V347a1.6,1.6,0,1,1-3.2,0v-3.681a1.6,1.6,0,0,1,3.1-.56,1.082,1.082,0,0,0,2.027-.757,3.767,3.767,0,0,0-7.3,1.316V347a3.766,3.766,0,1,0,7.533,0V345.45A1.082,1.082,0,0,0,118.7,344.368Zm0,0" transform="translate(-112.25 -339.555)" fill="#554cbf"/>
      </g>
      <path id="Trazado_682960" data-name="Trazado 682960" d="M259.914,222.5h-.036a1.081,1.081,0,0,1-1.046-1.116l.16-4.941a1.082,1.082,0,1,1,2.163.07l-.16,4.941A1.082,1.082,0,0,1,259.914,222.5Zm0,0" transform="translate(-221.857 -184.621)" fill="#d9f5ff"/>
      <path id="Trazado_682961" data-name="Trazado 682961" d="M222.162,222.5a1.082,1.082,0,0,1-1.081-1.047l-.159-4.941a1.082,1.082,0,1,1,2.162-.07l.16,4.941A1.083,1.083,0,0,1,222.2,222.5Zm0,0" transform="translate(-189.362 -184.624)" fill="#d9f5ff"/>
      <path id="Trazado_682962" data-name="Trazado 682962" d="M227.492,253.484h-5.85a.984.984,0,0,0-.982.982v4.05a.984.984,0,0,0,.982.982h5.85a.985.985,0,0,0,.982-.982v-4.05A.985.985,0,0,0,227.492,253.484Zm0,0" transform="translate(-189.138 -217.273)" fill="#f7577a"/>
      <path id="Trazado_682963" data-name="Trazado 682963" d="M224.529,258.516v-4.05a.985.985,0,0,1,.982-.982h-3.869a.984.984,0,0,0-.982.982v4.05a.985.985,0,0,0,.982.982h3.87A.985.985,0,0,1,224.529,258.516Zm0,0" transform="translate(-189.138 -217.273)" fill="#d93a59"/>
      <path id="Trazado_682964" data-name="Trazado 682964" d="M142.526,228.633a2.833,2.833,0,0,0-.718.04.939.939,0,0,1-.962-.372,3.838,3.838,0,0,0-6.762.741.954.954,0,0,1-1.1.592,2.352,2.352,0,1,0-.511,4.648h9.847a2.828,2.828,0,0,0,.206-5.649Zm0,0" transform="translate(-111.533 -194.231)" fill="#abe4fe"/>
      <path id="Trazado_682965" data-name="Trazado 682965" d="M136.137,233.584a2.373,2.373,0,0,1,.49-.291.954.954,0,0,0,.537-1.128,3.836,3.836,0,0,1,2.877-4.736,3.836,3.836,0,0,0-5.952,1.614.955.955,0,0,1-1.1.592,2.352,2.352,0,1,0-.51,4.648h3.06A2.3,2.3,0,0,1,136.137,233.584Zm0,0" transform="translate(-111.536 -194.231)" fill="#82c6f9"/>
      <path id="Trazado_682966" data-name="Trazado 682966" d="M188.592,70.375a9.859,9.859,0,0,0-5.175,18.149,3.226,3.226,0,0,1,1.464,2.716v.449a.953.953,0,0,0,.953.953h5.832a.953.953,0,0,0,.953-.953V91.24a3.23,3.23,0,0,1,1.468-2.718,9.859,9.859,0,0,0-5.5-18.147Zm0,0" transform="translate(-153.337 -60.321)" fill="#fbc840"/>
      <path id="Trazado_682967" data-name="Trazado 682967" d="M197.6,156.575a3.084,3.084,0,0,1-1.738-.534.789.789,0,0,0-1.015.084,6.215,6.215,0,0,1-8.946,0,.789.789,0,0,0-1.013-.084,3.1,3.1,0,0,1-4.106-.573,9.874,9.874,0,0,0,4.256,5.994,3.225,3.225,0,0,1,1.464,2.716v.449a.953.953,0,0,0,.953.953h5.832a.953.953,0,0,0,.953-.953v-.449a3.23,3.23,0,0,1,1.468-2.718,9.87,9.87,0,0,0,4.246-5.97A3.1,3.1,0,0,1,197.6,156.575Zm0,0" transform="translate(-154.953 -133.263)" fill="#f9b50b"/>
      <path id="Trazado_682968" data-name="Trazado 682968" d="M217.226,70.375c-2.7.082-4.922,4.295-5.014,9.512-.064,3.622.883,6.825,2.338,8.638a4.544,4.544,0,0,1,.757,2.716v.449c0,.526.22.953.493.953h3.017c.272,0,.493-.427.493-.953V91.24a4.547,4.547,0,0,1,.759-2.718c1.407-1.754,2.339-4.811,2.339-8.289C222.407,74.735,220.08,70.288,217.226,70.375Zm0,0" transform="translate(-181.894 -60.321)" fill="#f9b50b"/>
      <path id="Trazado_682969" data-name="Trazado 682969" d="M222.99,158.736a6.215,6.215,0,0,1-8.946,0,.743.743,0,0,0-.427-.217,11.832,11.832,0,0,0,2.139,5.554,4.544,4.544,0,0,1,.757,2.716v.449c0,.526.22.953.493.953h3.017c.272,0,.493-.427.493-.953v-.449a4.547,4.547,0,0,1,.759-2.718,11.841,11.841,0,0,0,2.138-5.556A.738.738,0,0,0,222.99,158.736Zm0,0" transform="translate(-183.101 -135.874)" fill="#f79d0d"/>
      <path id="Trazado_682970" data-name="Trazado 682970" d="M285.574,9.255,270.273.42a3.164,3.164,0,0,0-4.309,1.155l-9.734,16.86a3.164,3.164,0,0,0,1.155,4.309l15.3,8.835A3.164,3.164,0,0,0,277,30.423l9.734-16.86A3.163,3.163,0,0,0,285.574,9.255Zm0,0" transform="translate(-219.267 0)" fill="#abe4fe"/>
      <path id="Trazado_682971" data-name="Trazado 682971" d="M276.3,3.9,270.273.42a3.164,3.164,0,0,0-4.309,1.155l-9.734,16.86a3.164,3.164,0,0,0,1.155,4.309l5.842,3.373L274.514,6.578a.825.825,0,0,0,.091-.6C274.131,3.991,276.295,3.9,276.3,3.9Zm0,0" transform="translate(-219.267 0)" fill="#82c6f9"/>
      <path id="Trazado_682972" data-name="Trazado 682972" d="M307.574,28.744l-15.416-8.9a.231.231,0,0,0-.316.084l-8.735,15.129a.231.231,0,0,0,.085.316l15.416,8.9a.231.231,0,0,0,.316-.084l8.735-15.129A.231.231,0,0,0,307.574,28.744Zm0,0" transform="translate(-242.638 -16.982)" fill="#52b0f5"/>
      <path id="Trazado_682973" data-name="Trazado 682973" d="M292.158,19.844a.231.231,0,0,0-.316.084l-8.735,15.129a.232.232,0,0,0,.085.316l5.9,3.407,8.792-15.22a.84.84,0,0,0,.107-.348Zm0,0" transform="translate(-242.638 -16.982)" fill="#2299f2"/>
      <path id="Trazado_682974" data-name="Trazado 682974" d="M295.836,96.374a2.5,2.5,0,0,1-3.061-1.767l-.33-1.233a2.5,2.5,0,0,0-3.061-1.767l-4.067,1.09-2.209,3.825a.232.232,0,0,0,.085.316l15.416,8.9a.23.23,0,0,0,.315-.084l6.9-11.957Zm0,0" transform="translate(-242.638 -78.447)" fill="#2299f2"/>
      <path id="Trazado_682975" data-name="Trazado 682975" d="M292.445,93.374a2.5,2.5,0,0,0-3.061-1.767l-4.067,1.09-2.209,3.825a.232.232,0,0,0,.085.316l5.9,3.407,3.547-6.14Zm0,0" transform="translate(-242.638 -78.447)" fill="#1588e8"/>
      <path id="Trazado_682976" data-name="Trazado 682976" d="M300.387,65.651l-15.3-8.835a3.164,3.164,0,0,0-4.309,1.155l-9.734,16.86a3.164,3.164,0,0,0,1.155,4.309l15.3,8.834a3.163,3.163,0,0,0,4.309-1.155l9.734-16.859A3.163,3.163,0,0,0,300.387,65.651Zm0,0" transform="translate(-231.963 -48.339)" fill="#d9f5ff"/>
      <path id="Trazado_682977" data-name="Trazado 682977" d="M322.387,85.14l-15.416-8.9a.23.23,0,0,0-.315.085L297.92,91.454a.231.231,0,0,0,.085.315l15.416,8.9a.231.231,0,0,0,.315-.085l8.735-15.129A.232.232,0,0,0,322.387,85.14Zm0,0" transform="translate(-255.335 -65.322)" fill="#52b0f5"/>
      <path id="Trazado_682978" data-name="Trazado 682978" d="M115.274,349.637a1.131,1.131,0,0,1,.677-1.036,1.6,1.6,0,0,1-1.537-1.6v-3.681a1.6,1.6,0,0,1,1.537-1.6,1.131,1.131,0,0,1,.314-2.158c-.083-.006-.165-.009-.248-.009a3.771,3.771,0,0,0-3.766,3.766V347a3.77,3.77,0,0,0,3.766,3.767c.084,0,.168,0,.251-.009A1.131,1.131,0,0,1,115.274,349.637Zm0,0" transform="translate(-96.215 -291.048)" fill="#483ba8"/>
      <path id="Trazado_682979" data-name="Trazado 682979" d="M175.495,349.637a1.132,1.132,0,0,1,.687-1.041,1.48,1.48,0,0,1-.158.008,1.6,1.6,0,0,1-1.6-1.6v-6.365a1.082,1.082,0,1,0-2.163,0V347a3.764,3.764,0,0,0,4.158,3.746A1.131,1.131,0,0,1,175.495,349.637Zm0,0" transform="translate(-147.65 -291.048)" fill="#483ba8"/>
      <path id="Trazado_682980" data-name="Trazado 682980" d="M237.1,372.585a1.132,1.132,0,0,1-1.082-.8v5.528a1.082,1.082,0,0,0,2.164,0v-5.528A1.132,1.132,0,0,1,237.1,372.585Zm0,0" transform="translate(-202.303 -318.674)" fill="#483ba8"/>
      <path id="Trazado_682981" data-name="Trazado 682981" d="M327.331,349.671a1.13,1.13,0,0,1,.755-1.066h-1.563v-2.226h1.6a1.132,1.132,0,0,1,.014-2.164h-1.615v-2.5h1.556a1.13,1.13,0,0,1,.122-2.164h-2.761a1.082,1.082,0,0,0-1.082,1.082v9.05a1.082,1.082,0,0,0,1.082,1.082h2.752A1.131,1.131,0,0,1,327.331,349.671Zm0,0" transform="translate(-278.023 -291.048)" fill="#483ba8"/>
      <path id="Trazado_682982" data-name="Trazado 682982" d="M265.912,349.637a1.131,1.131,0,0,1,.715-1.051,2.312,2.312,0,0,1-.28.019h-.906v-6.886h.906a2.312,2.312,0,0,1,.28.018,1.131,1.131,0,0,1,.184-2.158,4.4,4.4,0,0,0-.464-.024h-1.988a1.082,1.082,0,0,0-1.082,1.082v9.049a1.082,1.082,0,0,0,1.082,1.082h1.988a4.549,4.549,0,0,0,.464-.024A1.131,1.131,0,0,1,265.912,349.637Zm0,0" transform="translate(-225.667 -291.048)" fill="#483ba8"/>
      <path id="Trazado_682983" data-name="Trazado 682983" d="M291.108,60.294l-6.023-3.478a3.164,3.164,0,0,0-4.309,1.155l-9.734,16.86a3.164,3.164,0,0,0,1.155,4.309l5.842,3.373,11.287-19.538a.827.827,0,0,0,.091-.6C288.943,60.387,291.107,60.294,291.108,60.294Zm0,0" transform="translate(-231.963 -48.339)" fill="#abe4fe"/>
      <path id="Trazado_682984" data-name="Trazado 682984" d="M306.971,76.24a.23.23,0,0,0-.315.085L297.92,91.454a.231.231,0,0,0,.085.315l5.9,3.407,8.793-15.22a.84.84,0,0,0,.107-.348Zm0,0" transform="translate(-255.335 -65.322)" fill="#2299f2"/>
      <path id="Trazado_682985" data-name="Trazado 682985" d="M310.649,152.769A2.5,2.5,0,0,1,307.588,151l-.33-1.232A2.5,2.5,0,0,0,304.2,148l-4.067,1.09-2.209,3.826a.231.231,0,0,0,.085.315l15.416,8.9a.231.231,0,0,0,.315-.085l6.9-11.957Zm0,0" transform="translate(-255.335 -126.785)" fill="#83d912"/>
      <path id="Trazado_682986" data-name="Trazado 682986" d="M376.875,118.149a2.019,2.019,0,1,0,.739,2.758A2.019,2.019,0,0,0,376.875,118.149Zm0,0" transform="translate(-320.441 -101.039)" fill="#fbc840"/>
      <path id="Trazado_682987" data-name="Trazado 682987" d="M376.253,120.477a1.393,1.393,0,0,1,.21-2.512,2.017,2.017,0,1,0,1.374,2.379A1.393,1.393,0,0,1,376.253,120.477Zm0,0" transform="translate(-320.444 -101.036)" fill="#f9b50b"/>
      <path id="Trazado_682988" data-name="Trazado 682988" d="M307.453,150.5l-.2-.73A2.5,2.5,0,0,0,304.2,148l-4.067,1.089-2.209,3.826a.232.232,0,0,0,.085.316l5.9,3.407C303.383,151.567,307.453,150.5,307.453,150.5Zm0,0" transform="translate(-255.335 -126.787)" fill="#5bbf02"/>
    </g>
  </g>
</svg>
