<svg xmlns="http://www.w3.org/2000/svg" width="113" height="113" viewBox="0 0 113 113">
  <g id="_27" data-name="27" transform="translate(-180 -4349.772)">
    <circle id="Elipse_5222" data-name="Elipse 5222" cx="56.5" cy="56.5" r="56.5" transform="translate(180 4349.772)" fill="#b7ceac"/>
    <g id="E-learning_test" transform="translate(203.025 4370.772)">
      <path id="Trazado_682989" data-name="Trazado 682989" d="M79.43,104H19.621a3.79,3.79,0,0,0-3.79,3.79v36.853a3.79,3.79,0,0,0,3.79,3.79H43.257a1.471,1.471,0,0,1,1.457,1.67l-1.436,10.491H56.047L54.611,150.1a1.471,1.471,0,0,1,1.457-1.67H79.43a3.79,3.79,0,0,0,3.79-3.79V107.785A3.79,3.79,0,0,0,79.43,104Z" transform="translate(-15.83 -90.116)" fill="#a3dcf2"/>
      <path id="Trazado_682990" data-name="Trazado 682990" d="M147.324,298.213c-8.783,6.887-14.973,11.905-30.654,12.78h49.193a3.79,3.79,0,0,0,3.79-3.79V295.038S157.343,290.358,147.324,298.213Z" transform="translate(-102.264 -252.682)" fill="#60c3e8"/>
      <path id="Trazado_682991" data-name="Trazado 682991" d="M360.523,295.039V307.2a3.79,3.79,0,0,1-3.79,3.79H341.2a13.488,13.488,0,0,1,1.179-15.334c.134-.061.27-.123.406-.183l.017-.007C351.626,291.656,360.523,295.039,360.523,295.039Z" transform="translate(-293.134 -252.682)" fill="#2ca4e8"/>
      <path id="Trazado_682992" data-name="Trazado 682992" d="M15.832,147.442H83.22v27.83H15.832Z" transform="translate(-15.831 -127.356)" fill="#fdf4d4"/>
      <path id="Trazado_682993" data-name="Trazado 682993" d="M55.777,181.9c-8.4,11.816-30.1,9.55-39.945,4.121v10H83.22v-24.3C75.292,171.312,62.57,172.351,55.777,181.9Z" transform="translate(-15.831 -148.106)" fill="#fadc71"/>
      <path id="Trazado_682994" data-name="Trazado 682994" d="M220.735,446.605H207.966l.4-2.951c3.95-.387,8.828-3.531,11.143-5.974Z" transform="translate(-180.518 -376.133)" fill="#60c3e8"/>
      <path id="Trazado_682995" data-name="Trazado 682995" d="M431.319,366.371h-2.014a.714.714,0,1,1,0-1.429h2.014a1.45,1.45,0,0,0,1.449-1.449v-1.665a.714.714,0,1,1,1.429,0v1.665A2.88,2.88,0,0,1,431.319,366.371Z" transform="translate(-369.626 -310.505)"/>
      <path id="Trazado_682996" data-name="Trazado 682996" d="M398.732,389.341h-1.612a.714.714,0,0,1,0-1.429h1.612a.714.714,0,1,1,0,1.429Z" transform="translate(-342.039 -333.475)"/>
      <path id="Trazado_682997" data-name="Trazado 682997" d="M220.624,415.029a1.47,1.47,0,0,0-1.47,1.429h-9.873a1.47,1.47,0,0,0-1.47-1.429Z" transform="translate(-180.385 -356.717)" fill="#49ade8"/>
      <path id="Trazado_682998" data-name="Trazado 682998" d="M360.523,295.039V307.2a3.79,3.79,0,0,1-3.79,3.79H341.2a13.488,13.488,0,0,1,1.179-15.334c.134-.061.27-.123.406-.183l.017-.007C351.626,291.656,360.523,295.039,360.523,295.039Z" transform="translate(-293.134 -252.682)" fill="#2ca4e8"/>
      <path id="Trazado_682999" data-name="Trazado 682999" d="M15.827,147.442H83.215v27.83H15.827Z" transform="translate(-15.827 -127.356)" fill="#fdf4d4"/>
      <path id="Trazado_683000" data-name="Trazado 683000" d="M55.772,181.9c-8.4,11.816-30.1,9.55-39.945,4.121v10H83.215v-24.3C75.287,171.312,62.565,172.351,55.772,181.9Z" transform="translate(-15.826 -148.106)" fill="#fadc71"/>
      <path id="Trazado_683001" data-name="Trazado 683001" d="M472.246,147.442h2.188v27.83h-2.188Z" transform="translate(-407.045 -127.356)" fill="#1d77db"/>
      <path id="Trazado_683002" data-name="Trazado 683002" d="M15.831,147.442h2.188v27.83H15.831Z" transform="translate(-15.83 -127.356)" fill="#1d77db"/>
      <path id="Trazado_683003" data-name="Trazado 683003" d="M220.735,446.605H207.966l.4-2.951c3.95-.387,8.828-3.531,11.143-5.974Z" transform="translate(-180.518 -376.133)" fill="#60c3e8"/>
      <path id="Trazado_683004" data-name="Trazado 683004" d="M431.319,366.371h-2.014a.714.714,0,1,1,0-1.429h2.014a1.45,1.45,0,0,0,1.449-1.449v-1.665a.714.714,0,1,1,1.429,0v1.665A2.88,2.88,0,0,1,431.319,366.371Z" transform="translate(-369.626 -310.505)" fill="#1d77db"/>
      <path id="Trazado_683005" data-name="Trazado 683005" d="M398.732,389.341h-1.612a.714.714,0,0,1,0-1.429h1.612a.714.714,0,1,1,0,1.429Z" transform="translate(-342.039 -333.475)" fill="#1d77db"/>
      <ellipse id="Elipse_5356" data-name="Elipse 5356" cx="1.97" cy="1.97" rx="1.97" ry="1.97" transform="translate(31.83 51.01)" fill="#3449b8"/>
      <path id="Trazado_683006" data-name="Trazado 683006" d="M241.695,364.322a2.272,2.272,0,0,1-2.273,2.273,2.228,2.228,0,0,1-.686-.107,1.97,1.97,0,0,1,2.957-2.244C241.695,364.269,241.695,364.3,241.695,364.322Z" transform="translate(-206.814 -312.911)" fill="#3d83df"/>
      <path id="Trazado_683007" data-name="Trazado 683007" d="M214.684,123.125h-5.243a.714.714,0,1,1,0-1.429h5.243a.714.714,0,1,1,0,1.429Z" transform="translate(-181.17 -105.289)" fill="#1d77db"/>
      <path id="Trazado_683008" data-name="Trazado 683008" d="M266.61,123.125h-1.431a.714.714,0,0,1,0-1.429h1.431a.714.714,0,0,1,0,1.429Z" transform="translate(-228.946 -105.289)" fill="#1d77db"/>
      <ellipse id="Elipse_5357" data-name="Elipse 5357" cx="3.877" cy="3.877" rx="3.877" ry="3.877" transform="translate(4.528 36.908)" fill="#a3dcf2"/>
      <g id="Grupo_944725" data-name="Grupo 944725" transform="translate(14.951 25.9)">
        <path id="Trazado_683009" data-name="Trazado 683009" d="M128.089,288.767H121.2a.714.714,0,0,1,0-1.429h6.889a.714.714,0,1,1,0,1.429Z" transform="translate(-120.486 -273.168)" fill="#2ca4e8"/>
        <path id="Trazado_683010" data-name="Trazado 683010" d="M196.786,288.767h-3.476a.714.714,0,1,1,0-1.429h3.476a.714.714,0,0,1,0,1.429Z" transform="translate(-182.295 -273.168)" fill="#2ca4e8"/>
        <path id="Trazado_683011" data-name="Trazado 683011" d="M134.977,212.132H121.2a.714.714,0,1,1,0-1.429h13.777a.714.714,0,1,1,0,1.429Z" transform="translate(-120.486 -207.481)" fill="#2ca4e8"/>
        <path id="Trazado_683012" data-name="Trazado 683012" d="M176.31,189.57h-6.889a.714.714,0,0,1,0-1.429h6.889a.714.714,0,1,1,0,1.429Z" transform="translate(-161.818 -188.142)" fill="#2ca4e8"/>
        <path id="Trazado_683013" data-name="Trazado 683013" d="M124.676,189.57H121.2a.714.714,0,1,1,0-1.429h3.476a.714.714,0,1,1,0,1.429Z" transform="translate(-120.486 -188.142)" fill="#2ca4e8"/>
        <path id="Trazado_683014" data-name="Trazado 683014" d="M350.875,278.777H337.1a.714.714,0,1,1,0-1.429h13.777a.714.714,0,1,1,0,1.429Z" transform="translate(-305.542 -264.605)" fill="#2ca4e8"/>
        <path id="Trazado_683015" data-name="Trazado 683015" d="M343.986,301.339H337.1a.714.714,0,0,1,0-1.429h6.889a.714.714,0,1,1,0,1.429Z" transform="translate(-305.542 -283.943)" fill="#2ca4e8"/>
        <path id="Trazado_683016" data-name="Trazado 683016" d="M412.685,301.339h-3.476a.714.714,0,1,1,0-1.429h3.476a.714.714,0,1,1,0,1.429Z" transform="translate(-367.352 -283.943)" fill="#2ca4e8"/>
      </g>
      <ellipse id="Elipse_5358" data-name="Elipse 5358" cx="3.877" cy="3.877" rx="3.877" ry="3.877" transform="translate(4.528 24.359)" fill="#ff719c"/>
      <path id="Trazado_683017" data-name="Trazado 683017" d="M61.285,177.252a.715.715,0,0,1-.512-.217l-1.407-1.449a.714.714,0,1,1,1.025-1l.881.907,4.024-4.371a.714.714,0,1,1,1.051.968l-4.536,4.927a.714.714,0,0,1-.516.23Z" transform="translate(-52.973 -147.46)" fill="#1d77db"/>
      <ellipse id="Elipse_5359" data-name="Elipse 5359" cx="3.877" cy="3.877" rx="3.877" ry="3.877" transform="translate(34.941 36.908)" fill="#ff719c"/>
      <path id="Trazado_683018" data-name="Trazado 683018" d="M274.9,263.905a.715.715,0,0,1-.512-.217l-1.407-1.449a.714.714,0,1,1,1.025-1l.881.907,4.024-4.371a.714.714,0,0,1,1.051.968l-4.536,4.927a.714.714,0,0,1-.516.23Z" transform="translate(-236.074 -221.735)" fill="#1d77db"/>
      <path id="Trazado_683019" data-name="Trazado 683019" d="M353.479,173.134l-1.256,2.3-1.6,2.933-6.006,1.623a.8.8,0,0,1-.207.027.79.79,0,0,1-.761-.577l-.89-3.143c-.434.224-.863.46-1.284.713l.8,2.82a2.227,2.227,0,0,0,2.137,1.616,2.263,2.263,0,0,0,.579-.076l6.006-1.624a1.42,1.42,0,0,0,.881-.694l1.6-2.933,1.73-3.171Q354.351,173.022,353.479,173.134Z" transform="translate(-294.953 -149.217)" fill="#f9b323"/>
      <path id="Trazado_683020" data-name="Trazado 683020" d="M353.93,104h1.627L352.17,110.2h-1.627Z" transform="translate(-302.727 -90.117)" fill="#60c3e8"/>
      <path id="Trazado_683021" data-name="Trazado 683021" d="M444.912,104.562l-3.144,5.761h-1.624l3.374-6.187A3.752,3.752,0,0,1,444.912,104.562Z" transform="translate(-379.528 -90.237)" fill="#60c3e8"/>
      <path id="Trazado_683022" data-name="Trazado 683022" d="M337.432,147.446h1.627l-.781,1.433-1.6,2.933.744,2.627c-.434.224-.863.46-1.284.713l-.836-2.95a1.429,1.429,0,0,1,.121-1.074l1.6-2.933Z" transform="translate(-289.616 -127.36)" fill="#fadc71"/>
      <path id="Trazado_683023" data-name="Trazado 683023" d="M429.227,147.446l-1.987,3.643q-.855.075-1.727.187l2.09-3.83Z" transform="translate(-366.988 -127.36)" fill="#fadc71"/>
      <path id="Trazado_683024" data-name="Trazado 683024" d="M195.915,496.589H174.933a.714.714,0,1,1,0-1.429h20.982a.714.714,0,1,1,0,1.429Z" transform="translate(-151.592 -425.401)" fill="#1d77db"/>
      <path id="Trazado_683025" data-name="Trazado 683025" d="M374.531,40.744,365.067,58.09,363.1,54.135a2.24,2.24,0,0,0-2.257-1.231l-4.388.49,9.464-17.347Z" transform="translate(-307.798 -31.874)" fill="#ff2e6e"/>
      <path id="Trazado_683026" data-name="Trazado 683026" d="M398.574,40.744l-3.538,6.486a15.82,15.82,0,0,1-10.527-1.18l5.457-10Z" transform="translate(-331.841 -31.874)" fill="#ff82a8"/>
      <path id="Trazado_683027" data-name="Trazado 683027" d="M432.893,12.859l-1.576,2.85-8.608-4.7,1.576-2.85a2.537,2.537,0,0,1,3.443-1.011l4.154,2.267A2.535,2.535,0,0,1,432.893,12.859Z" transform="translate(-364.584 -6.84)" fill="#1d77db"/>
      <path id="Trazado_683028" data-name="Trazado 683028" d="M356.247,202.213l-2.276.614a.791.791,0,0,1-.969-.55l-.614-2.169a.711.711,0,0,0,.483-.09,2.611,2.611,0,0,1,2.117-.3c.559.267.923.98,1.084,2.116A.722.722,0,0,0,356.247,202.213Z" transform="translate(-304.31 -172.055)" fill="#1d77db"/>
      <path id="Trazado_683029" data-name="Trazado 683029" d="M355.459,159.149l-1.6,2.933-2.5.674-1.233.334a.722.722,0,0,1-.174-.376c-.161-1.136-.526-1.849-1.084-2.116a2.611,2.611,0,0,0-2.117.3.711.711,0,0,1-.483.09l-.351-1.243-.669-2.359,1.6-2.933,4.388-.49a2.24,2.24,0,0,1,2.257,1.231Z" transform="translate(-298.189 -132.933)" fill="#fdf4d4"/>
      <path id="Trazado_683030" data-name="Trazado 683030" d="M396.482,115.609l-3.25,6.058a2.234,2.234,0,0,0-1.239-.713l2.977-5.548Q395.714,115.544,396.482,115.609Z" transform="translate(-338.256 -99.897)" fill="#cc1059"/>
      <path id="Trazado_683031" data-name="Trazado 683031" d="M419.112,50.531l-4.767,8.884a15.178,15.178,0,0,1-1.511-.2l5.026-9.366Z" transform="translate(-356.119 -43.703)" fill="#ff2e6e"/>
    </g>
  </g>
</svg>
