<svg xmlns="http://www.w3.org/2000/svg" width="95.06" height="91.395" viewBox="0 0 95.06 91.395">
  <g id="_28" data-name="28" transform="translate(0 -9.871)">
    <path id="Trazado_684492" data-name="Trazado 684492" d="M82.47,86.262l-9.069,2.8a6.11,6.11,0,0,0-3.088,2.173l-5.694,7.592a6.109,6.109,0,0,1-6.863,2.115l-8.98-3.069A6.11,6.11,0,0,0,45,97.81l-9.069,2.8a6.109,6.109,0,0,1-6.8-2.323l-5.461-7.761a6.108,6.108,0,0,0-3.021-2.265l-8.98-3.069a6.109,6.109,0,0,1-4.133-5.873l.144-9.489a6.109,6.109,0,0,0-1.112-3.608L1.113,58.455a6.109,6.109,0,0,1,.109-7.181l5.694-7.592a6.109,6.109,0,0,0,1.221-3.573l.144-9.489a6.109,6.109,0,0,1,4.309-5.745l9.069-2.8a6.111,6.111,0,0,0,3.088-2.173l5.694-7.592A6.109,6.109,0,0,1,37.3,10.2l8.98,3.069a6.11,6.11,0,0,0,3.775.057l9.069-2.8a6.109,6.109,0,0,1,6.8,2.323l5.461,7.762a6.108,6.108,0,0,0,3.021,2.265l8.98,3.069a6.109,6.109,0,0,1,4.133,5.873l-.144,9.489a6.109,6.109,0,0,0,1.112,3.608l5.461,7.762a6.109,6.109,0,0,1-.109,7.181l-5.694,7.592a6.109,6.109,0,0,0-1.221,3.573l-.144,9.489a6.11,6.11,0,0,1-4.309,5.745Z" transform="translate(0)" fill="#ffe17d"/>
    <path id="Trazado_684493" data-name="Trazado 684493" d="M32.961,98.284,27.5,90.522a6.108,6.108,0,0,0-3.021-2.265L15.5,85.188a6.109,6.109,0,0,1-4.133-5.873l.144-9.489A6.108,6.108,0,0,0,10.4,66.217L4.938,58.455a6.109,6.109,0,0,1,.109-7.181l5.694-7.592a6.109,6.109,0,0,0,1.221-3.573l.144-9.489a6.109,6.109,0,0,1,4.309-5.745l9.069-2.8a6.111,6.111,0,0,0,3.088-2.173l5.694-7.592a6.1,6.1,0,0,1,2.975-2.136,6.109,6.109,0,0,0-6.8,2.136l-5.694,7.592a6.109,6.109,0,0,1-3.088,2.173l-9.069,2.8a6.109,6.109,0,0,0-4.309,5.745L8.137,40.11a6.109,6.109,0,0,1-1.221,3.573L1.222,51.275a6.109,6.109,0,0,0-.109,7.181l5.461,7.762a6.109,6.109,0,0,1,1.112,3.608l-.144,9.489a6.109,6.109,0,0,0,4.133,5.873l8.98,3.069a6.11,6.11,0,0,1,3.021,2.265l5.461,7.762a6.109,6.109,0,0,0,6.8,2.323l.115-.035a6.1,6.1,0,0,1-3.086-2.287Z" transform="translate(0 -0.001)" fill="#ffd164"/>
    <circle id="Elipse_5380" data-name="Elipse 5380" cx="35.602" cy="35.602" r="35.602" transform="translate(11.928 19.967)" fill="#7398d4"/>
    <path id="Trazado_684494" data-name="Trazado 684494" d="M68.071,99.849A35.647,35.647,0,0,1,101.761,64.3q-.95-.05-1.913-.051a35.6,35.6,0,1,0,0,71.2q.962,0,1.913-.051A35.647,35.647,0,0,1,68.071,99.849Z" transform="translate(-52.318 -44.28)" fill="#4377c4"/>
    <path id="Trazado_684495" data-name="Trazado 684495" d="M151.741,205.76l0,0a29.651,29.651,0,0,0,0-29.67l0,0H100.471l0,0a29.651,29.651,0,0,0,0,29.67l0,0Z" transform="translate(-78.576 -135.354)" fill="#f1f6f7"/>
    <path id="Trazado_684496" data-name="Trazado 684496" d="M146.593,135.512a1.426,1.426,0,0,0,.176-.3,31,31,0,0,0,0-30.8,1.435,1.435,0,0,0-.176-.3,31.067,31.067,0,0,0-26.63-15.346h-.3a31.067,31.067,0,0,0-26.63,15.346,1.427,1.427,0,0,0-.176.3,31,31,0,0,0,0,30.8,1.439,1.439,0,0,0,.176.3,31.067,31.067,0,0,0,26.63,15.346h.3A31.067,31.067,0,0,0,146.593,135.512Zm-3.782-31.975H133.72a28.659,28.659,0,0,0-5.714-10.695A28.3,28.3,0,0,1,142.811,103.537Zm-33.881,0c2.25-6.562,5.717-10.855,9.45-11.74v11.74ZM121.249,91.8c3.733.885,7.2,5.178,9.45,11.74h-9.45Zm-9.626,1.045a28.657,28.657,0,0,0-5.714,10.695H96.818A28.293,28.293,0,0,1,111.623,92.842ZM95.03,106.406h11.891c.035,0,.07,0,.1,0H144.6a28.144,28.144,0,0,1,0,26.805H132.7q-.048,0-.1,0H107.023c-.033,0-.066,0-.1,0H95.03a28.144,28.144,0,0,1,0-26.805Zm13.9,29.674h9.45v11.74C114.647,146.935,111.181,142.643,108.93,136.081Zm12.319,11.74V136.08h9.45C128.448,142.643,124.982,146.935,121.249,147.82Zm-24.431-11.74h9.091a28.659,28.659,0,0,0,5.714,10.695A28.3,28.3,0,0,1,96.818,136.081Zm31.188,10.695a28.657,28.657,0,0,0,5.714-10.695h9.091A28.293,28.293,0,0,1,128.006,146.775Z" transform="translate(-72.284 -64.24)" fill="#335a97"/>
    <g id="Grupo_945235" data-name="Grupo 945235" transform="translate(27.65 46.706)">
      <g id="Grupo_945234" data-name="Grupo 945234">
        <g id="Grupo_945230" data-name="Grupo 945230" transform="translate(0 0.001)">
          <g id="Grupo_945229" data-name="Grupo 945229">
            <path id="Trazado_684497" data-name="Trazado 684497" d="M150.358,226a1.434,1.434,0,0,1-1.434-1.434V209.708a1.434,1.434,0,0,1,2.869,0v14.853A1.434,1.434,0,0,1,150.358,226Z" transform="translate(-148.924 -208.274)" fill="#335a97"/>
          </g>
        </g>
        <g id="Grupo_945232" data-name="Grupo 945232" transform="translate(6.433)">
          <g id="Grupo_945231" data-name="Grupo 945231">
            <path id="Trazado_684498" data-name="Trazado 684498" d="M190.183,225.992a8.509,8.509,0,0,1-6.239-2.673,1.434,1.434,0,1,1,2.126-1.926,5.6,5.6,0,0,0,4.113,1.731,2.928,2.928,0,0,0,3.01-2.037c.178-1-.63-1.907-2.217-2.493-2.291-.845-4.324-1.75-4.409-1.788a1.44,1.44,0,0,1-.2-.108,4.3,4.3,0,0,1-1.919-4.26,4.807,4.807,0,0,1,3.49-3.874,8.2,8.2,0,0,1,7.145,1.569,1.434,1.434,0,0,1-1.841,2.2,5.375,5.375,0,0,0-4.477-1.023,1.95,1.95,0,0,0-1.478,1.534,1.442,1.442,0,0,0,.565,1.393c.464.2,2.221.966,4.114,1.664,3.5,1.292,4.388,3.786,4.048,5.688a5.777,5.777,0,0,1-5.834,4.4Z" transform="translate(-183.573 -208.269)" fill="#335a97"/>
          </g>
        </g>
        <g id="Grupo_945233" data-name="Grupo 945233" transform="translate(22.038 0.001)">
          <path id="Trazado_684499" data-name="Trazado 684499" d="M276.485,226a8.861,8.861,0,1,1,8.861-8.861A8.871,8.871,0,0,1,276.485,226Zm0-14.853a5.992,5.992,0,1,0,5.992,5.992,6,6,0,0,0-5.992-5.992Z" transform="translate(-267.624 -208.274)" fill="#335a97"/>
        </g>
      </g>
    </g>
  </g>
</svg>
