<svg xmlns="http://www.w3.org/2000/svg" width="113" height="113" viewBox="0 0 113 113">
  <g id="_29" data-name="29" transform="translate(-180 -6129.095)">
    <circle id="Elipse_5223" data-name="Elipse 5223" cx="56.5" cy="56.5" r="56.5" transform="translate(180 6129.095)" fill="#b7ceac"/>
    <g id="viajero" transform="translate(207 6146.095)">
      <path id="Trazado_683048" data-name="Trazado 683048" d="M69.954,243.913A4.014,4.014,0,0,1,65.94,239.9v-8.084a4.014,4.014,0,0,1,4.014-4.014h51.22a4.014,4.014,0,0,1,4.014,4.014V239.9a4.014,4.014,0,0,1-4.014,4.014Z" transform="translate(-65.94 -192.294)" fill="#8ac9fe"/>
      <path id="Trazado_683049" data-name="Trazado 683049" d="M125.108,231.016H77.983a4.014,4.014,0,0,0-4.014,4.014v8.083a4.005,4.005,0,0,0,.08.8H69.954A4.014,4.014,0,0,1,65.94,239.9v-8.083a4.014,4.014,0,0,1,4.014-4.014h51.219A4.016,4.016,0,0,1,125.108,231.016Z" transform="translate(-65.94 -192.297)" fill="#60b7ff"/>
      <path id="Trazado_683050" data-name="Trazado 683050" d="M127.3,235.352V218.783a1.124,1.124,0,0,1,1.124-1.124h2.462a1.124,1.124,0,0,1,1.124,1.124v16.569Z" transform="translate(-117.738 -183.733)" fill="#d8ecfe"/>
      <path id="Trazado_683051" data-name="Trazado 683051" d="M359.143,235.352V218.783a1.124,1.124,0,0,0-1.124-1.124h-2.462a1.124,1.124,0,0,0-1.124,1.124v16.569Z" transform="translate(-309.466 -183.733)" fill="#d8ecfe"/>
      <path id="Trazado_683052" data-name="Trazado 683052" d="M142.824,301.574v22.087H91.563V301.574a12.689,12.689,0,0,1,12.69-12.69h25.881q.4,0,.8.026a12.216,12.216,0,0,1,1.338.154,12.62,12.62,0,0,1,4.817,1.9,12.678,12.678,0,0,1,5.732,10.614Z" transform="translate(-87.569 -243.856)" fill="#b0ef9a"/>
      <path id="Trazado_683053" data-name="Trazado 683053" d="M356.061,318.009v5.79H355.5l-7.359-6.1a10.93,10.93,0,0,1-3.964-8.441v-20.21a12.2,12.2,0,0,1,1.337.154,12.541,12.541,0,0,1,3.478,1.129v18.927a6.128,6.128,0,0,0,2.224,4.732Z" transform="translate(-300.806 -243.995)" fill="#9be27d"/>
      <path id="Trazado_683054" data-name="Trazado 683054" d="M138.579,292.1c-.138-.006-.276-.008-.416-.008H112.282a12.689,12.689,0,0,0-12.69,12.69v18.875H91.563V301.574a12.689,12.689,0,0,1,12.69-12.69h25.881a12.718,12.718,0,0,1,2.14.18,12.645,12.645,0,0,1,6.3,3.039Z" transform="translate(-87.569 -243.856)" fill="#9be27d"/>
      <path id="Trazado_683055" data-name="Trazado 683055" d="M231.29,235.87v8.351a5.6,5.6,0,0,1-11.192,0V235.87Z" transform="translate(-196.07 -199.105)" fill="#fed2a4"/>
      <path id="Trazado_683056" data-name="Trazado 683056" d="M225.766,243.889c1.411-.721,3.435-.5,4.983-1.092a2.919,2.919,0,0,0,.542-.22v-6.705H220.1v8.351a5.6,5.6,0,0,0,8,5.052,5.621,5.621,0,0,1-1.739-1.3C225.735,247.285,224.152,244.714,225.766,243.889Z" transform="translate(-196.071 -199.106)" fill="#ffbd86"/>
      <path id="Trazado_683057" data-name="Trazado 683057" d="M196.393,114.274l-16.773-2.628-14.658,2.628v7.185a14.19,14.19,0,0,0,28.352.876h3.078a2.107,2.107,0,0,0,2.107-2.107v-3.846A2.107,2.107,0,0,0,196.393,114.274Z" transform="translate(-149.528 -94.244)" fill="#fed2a4"/>
      <path id="Trazado_683058" data-name="Trazado 683058" d="M150.48,14.774h-3.454l-4.469-9.466A8.991,8.991,0,0,0,135.225.027c-.22-.018-.44-.027-.663-.027h-9.151a8.931,8.931,0,0,0-8,5.309l-4.467,9.466h-4a2.552,2.552,0,0,0-2.553,2.552v.153a2.552,2.552,0,0,0,2.553,2.552h41.53a2.552,2.552,0,0,0,2.553-2.552v-.153a2.552,2.552,0,0,0-2.553-2.552Z" transform="translate(-100.09 0)" fill="#e19974"/>
      <path id="Trazado_683059" data-name="Trazado 683059" d="M116.979,100.042H108.95A2.552,2.552,0,0,1,106.4,97.49v-.153a2.552,2.552,0,0,1,2.553-2.552h8.029a2.552,2.552,0,0,0-2.553,2.552v.153A2.552,2.552,0,0,0,116.979,100.042Z" transform="translate(-100.091 -80.012)" fill="#dc8758"/>
      <path id="Trazado_683060" data-name="Trazado 683060" d="M181,11.588H164.9a4.4,4.4,0,0,1-3.98-6.279,8.931,8.931,0,0,1,8-5.309h-8.029a8.931,8.931,0,0,0-8,5.309l-4.467,9.466h34.078Z" transform="translate(-135.571 0)" fill="#dc8758"/>
      <path id="Trazado_683061" data-name="Trazado 683061" d="M137.027,128.5v0h-3.051a2.107,2.107,0,0,0-2.107,2.107v3.846a2.107,2.107,0,0,0,2.107,2.107h3.081a14.189,14.189,0,0,0,13.155,13.278,14.162,14.162,0,0,1-5.156-10.943,7.186,7.186,0,0,1,7.186-7.186h13.165V128.5h-28.38Z" transform="translate(-121.593 -108.474)" fill="#ffbd86"/>
      <g id="Grupo_944727" data-name="Grupo 944727" transform="translate(3.986 41.727)">
        <path id="Trazado_683062" data-name="Trazado 683062" d="M330.606,295.975a6.128,6.128,0,0,1-2.224-4.732V268.83a1.124,1.124,0,0,0-1.124-1.124h-2.569a1.124,1.124,0,0,0-1.124,1.124v22.413a10.931,10.931,0,0,0,3.966,8.441l7.359,6.1h3.775v-3.128Z" transform="translate(-287.395 -267.706)" fill="#fedba6"/>
        <path id="Trazado_683063" data-name="Trazado 683063" d="M99.572,295.975a6.128,6.128,0,0,0,2.224-4.732V268.83a1.124,1.124,0,0,1,1.124-1.124h2.569a1.124,1.124,0,0,1,1.124,1.124v22.413a10.931,10.931,0,0,1-3.966,8.441l-7.359,6.1H91.513v-3.128Z" transform="translate(-91.513 -267.706)" fill="#fedba6"/>
      </g>
    </g>
  </g>
</svg>
