<svg id="_3" data-name="3" xmlns="http://www.w3.org/2000/svg" width="53.161" height="53.161" viewBox="0 0 53.161 53.161">
  <g id="Grupo_929906" data-name="Grupo 929906">
    <path id="Trazado_667872" data-name="Trazado 667872" d="M26.58,0A26.58,26.58,0,1,1,0,26.58,26.58,26.58,0,0,1,26.58,0Z" fill="#4d793f"/>
  </g>
  <path id="Trazado_667868" data-name="Trazado 667868" d="M170.283,183.795a26.6,26.6,0,0,0,23.1-20.712l-17.139-17.139s-14.022-.387-19.087,7.943l7.464,7.482-6.646,10.193Z" transform="translate(-140.839 -130.788)" fill="#406834"/>
  <g id="Grupo_929907" data-name="Grupo 929907" transform="translate(16.318 12.115)">
    <path id="Trazado_667869" data-name="Trazado 667869" d="M178.475,145.342h-20.5v-6.92l13.166-9.968a3.126,3.126,0,0,0,1.1-3.537,3.008,3.008,0,0,0-2.835-2.158l-.155,0h-2.328c-3.429,0-3.7,3.758-3.7,4.91h-6.074c0-6.467,4.017-10.983,9.77-10.983h2.362s.2,0,.3,0a9.055,9.055,0,0,1,8.444,6.38,9.176,9.176,0,0,1-3.223,10.229l-7.888,5.972h11.557v6.074Z" transform="translate(-157.157 -116.683)" fill="#f8fffb"/>
  </g>
  <g id="Grupo_929909" data-name="Grupo 929909" transform="translate(26.982 12.115)">
    <g id="Grupo_929908" data-name="Grupo 929908">
      <path id="Trazado_667870" data-name="Trazado 667870" d="M266.857,133.3l-6.985,5.288v-7.618l3.319-2.512a3.128,3.128,0,0,0,1.1-3.536,3.008,3.008,0,0,0-2.836-2.158l-.155,0h-1.433v-6.074h1.467l.3,0a9.056,9.056,0,0,1,8.444,6.381,9.175,9.175,0,0,1-3.223,10.228Z" transform="translate(-259.872 -116.686)" fill="#d8d8d8"/>
    </g>
    <path id="Trazado_667871" data-name="Trazado 667871" d="M259.873,334.2h10.653v6.074H259.873Z" transform="translate(-259.873 -311.618)" fill="#d8d8d8"/>
  </g>
</svg>
