<svg xmlns="http://www.w3.org/2000/svg" width="113" height="113" viewBox="0 0 113 113">
  <g id="_30" data-name="30" transform="translate(-180 -6268.095)">
    <circle id="Elipse_5327" data-name="Elipse 5327" cx="56.5" cy="56.5" r="56.5" transform="translate(180 6268.095)" fill="#b7ceac"/>
    <g id="guia-turistico-2" transform="translate(207 6286.095)">
      <path id="Trazado_683032" data-name="Trazado 683032" d="M206.9,280.353l-3.114-3.52-3.885,1.594-1.616,4.186,2.8,5.108,5.811.661,2.659-5.6Z" transform="translate(-177.279 -234.777)" fill="#fcb0a2"/>
      <path id="Trazado_683033" data-name="Trazado 683033" d="M73.217,316.44A15.977,15.977,0,0,0,60,332.155v13.673h9.115l2.279-1.519,2.279,1.519h6.836l5.216-6.818,3.9-14.4Z" transform="translate(-60 -268.367)" fill="#75e1f7"/>
      <path id="Trazado_683034" data-name="Trazado 683034" d="M263.616,288.229l-1.586-4.068-3.6-.706L255,285.969V294l5.064-.965Z" transform="translate(-225.376 -240.393)" fill="#f98c82"/>
      <path id="Trazado_683035" data-name="Trazado 683035" d="M277.519,316.53l-15.406,8.577.818,13.978,7.216,6.818h6.836l2.279-1.519,2.279,1.519h9.115V332.231A15.975,15.975,0,0,0,277.519,316.53Z" transform="translate(-231.408 -268.443)" fill="#3ba9ff"/>
      <path id="Trazado_683036" data-name="Trazado 683036" d="M160,140.971v6.836c0,7.551,6.461,13.673,14.432,13.673l1.6-9.571-1.6-10.938-6.949-4.3Z" transform="translate(-144.808 -115.905)" fill="#fdd0bb"/>
      <g id="XMLID_5_" transform="translate(45.576 66.085)">
        <path id="Trazado_683037" data-name="Trazado 683037" d="M360,435h4.558v11.376H360Z" transform="translate(-360 -435)" fill="#4d87ff"/>
      </g>
      <g id="XMLID_2_" transform="translate(9.115 66.085)">
        <path id="Trazado_683038" data-name="Trazado 683038" d="M120,435h4.558v11.376H120Z" transform="translate(-120 -435)" fill="#3ba9ff"/>
      </g>
      <path id="Trazado_683039" data-name="Trazado 683039" d="M261.308,144,255,147.19V167.7c7.971,0,14.432-6.121,14.432-13.673V147.19Z" transform="translate(-225.376 -122.124)" fill="#fcb0a2"/>
      <path id="Trazado_683040" data-name="Trazado 683040" d="M174.432,0C165.345,0,160.311,7.413,160,15.952l6.82,1.519,7.612-1.519,1.6-7.748Z" transform="translate(-144.808)" fill="#ffd92e"/>
      <path id="Trazado_683041" data-name="Trazado 683041" d="M269.432,15.952C269.122,7.413,264.088,0,255,0V15.952l6.521,1.519Z" transform="translate(-225.376)" fill="#ffb54c"/>
      <path id="Trazado_683042" data-name="Trazado 683042" d="M126.077,105,120,114.115h20.509l1.519-5.064L140.509,105Z" transform="translate(-110.885 -89.048)" fill="#ffb54c"/>
      <path id="Trazado_683043" data-name="Trazado 683043" d="M269.432,105H255v9.115h20.509Z" transform="translate(-225.376 -89.048)" fill="#ff8756"/>
      <path id="Trazado_683044" data-name="Trazado 683044" d="M154.792,314.88h-5.057a15.754,15.754,0,0,0-2.735.237l14.129,9.489v6.244l1.215.658,1.063-.658,1.519-5.9-1.519-4.3Z" transform="translate(-133.783 -267.044)" fill="#f9f9f9"/>
      <path id="Trazado_683045" data-name="Trazado 683045" d="M263.638,314.88l-8.146,5.454h0l-.48.322-.011-.008v10.2l.937.836,1.342-.836v-6.227l14.207-9.492a15.745,15.745,0,0,0-2.814-.251Z" transform="translate(-225.376 -267.044)" fill="#e2dff4"/>
      <path id="Trazado_683046" data-name="Trazado 683046" d="M195,420v13.673h9.115l3.038-6.836L204.115,420Z" transform="translate(-174.491 -356.194)" fill="#00429d"/>
      <path id="Trazado_683047" data-name="Trazado 683047" d="M255,420h9.115v13.673H255Z" transform="translate(-225.376 -356.194)" fill="#00347b"/>
    </g>
  </g>
</svg>
