<svg id="_32" data-name="32" xmlns="http://www.w3.org/2000/svg" width="525" height="453.493" viewBox="0 0 525 453.493">
  <ellipse id="Oval" cx="262.5" cy="8.413" rx="262.5" ry="8.413" transform="translate(0 436.667)" fill="#ffc5bb"/>
  <path id="Shape" d="M0,435.852V276.183s5.532-5.091,5.917-5.223,3.988-1.157,5.015-.756a32.64,32.64,0,0,0,3.857.887s2.569-.772,2.831-2.446,2.824-2.183,5.909-2.183,4.5-.132,6.943,1.412,9.643-.548,9.643-.548l4.628,11.549h16.2V267.326c36.259,0,32.4-54.612,32.4-54.612l9.257-4.745s.478-12.212.556-19.016c.023-1.836.015-3.279-.039-3.988a1.715,1.715,0,0,0-.748-1.343c-1.859-1.335-6.5-.378-6.712-3.309-.255-3.6,4.119-9.512,6.673-8.741s9.273-5.4,10.692-12.367-10.423-.748-10.677-8.324,3.6-8.37,10.677-18.329,23.012-16.525,28.289-14.7c2.651.917,11.162-7.491,19.526-15.9,8.309-8.352,16.473-16.7,18.607-15.916,4.282,1.582,3.711-5.3,4.868-9.736s12.922-.841,12.922-.841l11.572,14.079H228.1v-26.9H278.08V0h42.785V32.71H325.3V29.238h2.893V35.41H333.4V27.7H344.4V0h42.816V28.275h22.951V19.6h3.279V11.3h-3.279V0h24.116c-5.208,17.828-16.756,54.11-24.887,55.854-10.8,2.314-33.944-1.543-33.944,8.486s.772,18.515-10.029,19.286-4.629,98.67-16.972,98.323c-4.683-.131-11.318,5.624-18.531,12.59-4.745-7.606-11.287-12.59-20.289-12.59-15.151,0-23.337,14.1-27.7,31.082-20.768-7.422-53.053-18.068-58.453-3.657-5.509,14.681-5.678,48.857-22.828,65.258-4.86-11.178-12.313-19.156-23.707-19.156-14.65,0-22.789,13.184-27.256,29.408-14.635.077-24.062,1.813-28.814,19.379-7.715,28.544,4.628,29.532,3.086,40.225s4.142,15.321-5.647,13.007-18.269,1.543-20.583,8.486c-1.258,3.773-4.559,13.23-5.462,22.565,4.166-.912,10.105-.046,15.48.82,5.444.877,10.309,1.754,12.169.784,4.436-2.314,3.016-6.427,7.382-9.512a5.174,5.174,0,0,1,4.974-1.01,3.944,3.944,0,0,0,3.775-.534c3.341-2.314.771-20.058,5.655-23.661s11.826.517,17.227,1.034c3.4.324,4.66-5.678,8.193-11.981h42s.27-4.19.317-10.739a31.282,31.282,0,0,0,7.676-.779c14.72-3.441,10.477-26.392,14.6-45.424s28.282-24.687,39.344-23.452a14.7,14.7,0,0,0,6.133-.509c.085,4.591.27,7.375.27,7.375H341.8s1.565-23.684-2.153-46.627c10.762-2.947,24.448-11.626,28.467-18.091,5.786-9.3,8.872-23.483,23.144-24.255s35.487,10.414,46.288,18.129c4.8,3.425,12.937,4.721,21.215,6.812v9.135l-10.8,32.486.756,26.291,4.644,161.011Z" transform="translate(39.031 4.367)" fill="#ffdfdc"/>
  <path id="Path" d="M422.837,94.234c-1.928,11.649,26.23,20.366,8.486,36.93s-21.6,35.124-18.515,45.154,23.53,27.387,24.3,40.872-4.243,25.088-12.729,31.661-2.314,8.47-2.314,8.47H.848A10.151,10.151,0,0,1,.022,253.9c-.548-8.232,9.065-15.491,12.914-14.581,4.367,1.026,6.943-1.288,9.512-5.917s3.086-4.374,9.512-2.569c4.783,1.335,6.288-7.977,9.072-15.483a21.436,21.436,0,0,1,3.533-6.635,6.678,6.678,0,0,1,3.163-1.882c.286-.093.579-.17.887-.239,8.386-1.836,23.954,3.533,27.649,1.6,4.436-2.314,3.017-6.426,7.383-9.512s5.4.771,8.748-1.543.771-20.058,5.655-23.661,11.827.517,17.227,1.034c3.4.324,4.659-5.678,8.193-11.981a26.294,26.294,0,0,1,9.5-10.191c10.122-5.971,21.046-.671,32.81-.548a31.252,31.252,0,0,0,7.676-.779c14.72-3.441,10.476-26.392,14.6-45.424S216.341,80.91,227.4,82.145a14.7,14.7,0,0,0,6.133-.509c7.082-2.237,10.955-10.438,12.42-22.195,1.844-14.789,30.3-22.372,38.612-17.157,2.538,1.589,6.7,1.4,11.441.1,10.762-2.947,24.448-11.626,28.467-18.091,5.786-9.3,8.872-23.483,23.144-24.255s35.487,10.414,46.288,18.129c4.8,3.425,12.937,4.721,21.215,6.812,10.369,2.615,20.953,6.472,25.458,17.3,3.017,7.259,1.589,14.712-1.489,21.8a72.7,72.7,0,0,1-3.649,7.159C430.235,80.317,423.8,88.417,422.837,94.234Z" transform="translate(82.673 186.316)" fill="#01576c"/>
  <path id="Path-2" data-name="Path" d="M59.92,24.532c-2.06,2.314-6.943,2.314-7.2,10.292s-4.12,27-8.232,34.716S28.544,81.621,22.372,82.006s.262,10.414-10.029,11.958S0,89.922,0,89.922H16.2V78.373c36.258,0,32.4-54.612,32.4-54.612l9.257-4.745S58.338,6.8,58.415,0C59.564,8.123,61.4,22.866,59.92,24.532Z" transform="translate(83.776 193.321)" fill="#fcccca"/>
  <path id="Shape-2" data-name="Shape" d="M0,194.539c7.214-6.966,13.848-12.721,18.531-12.59C30.874,182.3,24.7,84.4,35.5,83.626S45.532,74.369,45.532,64.34s23.144-6.172,33.944-8.486C87.607,54.11,99.156,17.828,104.363,0H128.85V206.929c-8.278-2.091-16.417-3.387-21.215-6.812-10.8-7.715-32.016-18.9-46.288-18.129S43.989,196.938,38.2,206.242c-4.019,6.465-17.705,15.144-28.467,18.091C7.962,213.332,4.968,202.5,0,194.539Z" transform="translate(368.946 4.367)" fill="#fcccca"/>
  <path id="Path-3" data-name="Path" d="M76.537,61.352a14.7,14.7,0,0,1-6.133.509c-11.063-1.234-35.233,4.413-39.345,23.453s.123,41.983-14.6,45.424a31.277,31.277,0,0,1-7.676.779C8.895,116.889,7.838,90.467,0,72.4,17.149,56,17.319,21.822,22.827,7.141,28.228-7.27,60.513,3.376,81.281,10.8,76.621,28.927,76.313,50.335,76.537,61.352Z" transform="translate(239.673 206.601)" fill="#fcccca"/>
  <path id="Path-4" data-name="Path" d="M74.855,59.6c-3.533,6.3-4.791,12.3-8.193,11.981-5.4-.517-12.343-4.629-17.227-1.034S47.121,91.9,43.78,94.211s-4.374-1.543-8.748,1.543-2.947,7.2-7.383,9.512c-3.7,1.928-19.263-3.441-27.649-1.6C.9,94.327,4.2,84.869,5.462,81.1c2.314-6.943,10.8-10.8,20.583-8.486s4.1-2.314,5.647-13.007-10.8-11.68-3.086-40.224C33.358,1.813,42.786.077,57.42,0,50.276,25.929,52.5,59.6,52.5,59.6Z" transform="translate(131.29 289.252)" fill="#fcccca"/>
  <rect id="Rectangle" width="20.718" height="6.853" transform="translate(249.754 128.881)" fill="#fcccca"/>
  <rect id="Rectangle-2" data-name="Rectangle" width="20.718" height="6.853" transform="translate(280.313 173.24)" fill="#fcccca"/>
  <rect id="Rectangle-3" data-name="Rectangle" width="20.718" height="6.853" transform="translate(158.359 248.071)" fill="#fcccca"/>
  <rect id="Rectangle-4" data-name="Rectangle" width="20.718" height="6.853" transform="translate(142.158 260.029)" fill="#fcccca"/>
  <rect id="Rectangle-5" data-name="Rectangle" width="20.718" height="6.853" transform="translate(126.343 301.302)" fill="#fcccca"/>
  <rect id="Rectangle-6" data-name="Rectangle" width="20.718" height="6.853" transform="translate(50.74 291.659)" fill="#fcccca"/>
  <rect id="Rectangle-7" data-name="Rectangle" width="20.718" height="6.853" transform="translate(55.068 414.321)" fill="#fcccca"/>
  <rect id="Rectangle-8" data-name="Rectangle" width="20.718" height="6.853" transform="translate(338.298 51.735)" fill="#fcccca"/>
  <rect id="Rectangle-9" data-name="Rectangle" width="20.718" height="6.853" transform="translate(390.324 37.848)" fill="#fcccca"/>
  <rect id="Rectangle-10" data-name="Rectangle" width="20.718" height="6.853" transform="translate(469.693 49.851)" fill="#f7b7b7"/>
  <rect id="Rectangle-11" data-name="Rectangle" width="20.718" height="6.853" transform="translate(405.662 173.24)" fill="#f7b7b7"/>
  <rect id="Rectangle-12" data-name="Rectangle" width="20.718" height="6.853" transform="translate(469.693 182.89)" fill="#f7b7b7"/>
  <rect id="Rectangle-13" data-name="Rectangle" width="20.718" height="6.853" transform="translate(278.371 240.437)" fill="#f7b7b7"/>
  <rect id="Rectangle-14" data-name="Rectangle" width="20.718" height="6.853" transform="translate(147.999 326.375)" fill="#f7b7b7"/>
  <path id="Path-5" data-name="Path" d="M340.986,139.532c3.086,10.029,23.53,27.387,24.3,40.872s-4.243,25.088-12.729,31.661-2.314,8.47-2.314,8.47H0s2.06-21.084,14.226-22.465,17.149,3.95,25.373-10.453,15.946-9.257,24.687-12.343,21.092,7.715,29.686,3.294,9.4-11.518,14.033-29.524c1.62-6.288,5.8-8.687,11.04-9.6a74.695,74.695,0,0,1,11.966-.586c.324,0,.64,0,.964-.008a42,42,0,0,0,10.754-1.142,14.686,14.686,0,0,0,6.573-3.641c10.955-10.87-1.18-9.705,7.051-23.938s18-5.825,25.2-9.936S193.382,71.9,196.977,52.358s24.178-18.515,46.8-15.429,18-15.946,35.094-31.329c14.311-12.876,21.153-.625,30.5,7.591a29.146,29.146,0,0,0,5.825,4.143,15.358,15.358,0,0,0,6.365,1.883,13.147,13.147,0,0,0,2.075-.077c6.935-.841,11.9-7.159,22.936-4.474.193.046.386.093.586.147,6.365,1.7,13.7,6.935,20.112,12.49a72.7,72.7,0,0,1-3.649,7.159c-5.208,9.072-11.641,17.173-12.606,22.99-1.928,11.649,26.23,20.366,8.486,36.93S337.9,129.5,340.986,139.532Z" transform="translate(154.495 223.101)" fill="#3b8fa2"/>
  <path id="Path-6" data-name="Path" d="M25.011,61.514c-11.04-2.685-16,3.634-22.936,4.474A13.147,13.147,0,0,1,0,66.066c1.334-5.354,3.248-12.536,5.662-20.189C13.238,21.853,25.736-6.86,40.5,1.471,56.131,10.3,39.229,40.731,25.011,61.514Z" transform="translate(476.056 176.25)" fill="#ff5b35"/>
  <path id="Path-7" data-name="Path" d="M19.957,33.24c-2.415,7.653-4.328,14.835-5.662,20.189A15.351,15.351,0,0,1,7.93,51.546,29.184,29.184,0,0,1,2.106,47.4C-.633,29.043-3.063-1.307,10.962.044,21.346,1.039,21.871,17.548,19.957,33.24Z" transform="translate(461.761 188.887)" fill="#ffaa9c"/>
  <path id="Path-8" data-name="Path" d="M18.853,21.147S-2.753,18.541.295,9.564s16.627,7.145,16.627,7.145S11.853-.566,19.192.014s1.627,16.528,1.627,16.528,11.275-12.936,14.5-6.456S18.853,21.147,18.853,21.147Z" transform="translate(448.43 266.882)" fill="#5bb5c4"/>
  <path id="Path-9" data-name="Path" d="M21.455,20.066S.318,25.248,0,15.773s18.079.821,18.079.821S7.246,2.217,14.319.171s7.352,14.892,7.352,14.892S27.659-1.018,32.958,3.91,21.455,20.066,21.455,20.066Z" transform="translate(396.087 322.487)" fill="#5bb5c4"/>
  <path id="Path-10" data-name="Path" d="M13.707,19.683S-5.058,8.659,1.324,1.649,13.711,14.843,13.711,14.843,15.967-3.019,22.463.446s-5.113,15.8-5.113,15.8,15.505-7.353,15.868-.125S13.707,19.683,13.707,19.683Z" transform="translate(287.22 394.073)" fill="#5bb5c4"/>
  <path id="Path-11" data-name="Path" d="M19.816,21.053S-1.944,20.738.141,11.49s17.288,5.353,17.288,5.353S10.567.2,17.927,0s3.36,16.265,3.36,16.265S31.136,2.213,35.022,8.319,19.816,21.053,19.816,21.053Z" transform="translate(440.508 377.207)" fill="#5bb5c4"/>
  <path id="Path-12" data-name="Path" d="M22.066,18.8S2.579,28.488.2,19.312,18.015,16.15,18.015,16.15,4.289,4.5,10.741.951,21.18,13.869,21.18,13.869,23.5-3.134,29.746.513,22.066,18.8,22.066,18.8Z" transform="translate(216.089 357.163)" fill="#067284"/>
  <path id="Path-13" data-name="Path" d="M15.607,20.487S-4.466,12.079.917,4.276,14.962,15.69,14.962,15.69,14.8-2.313,21.7.25s-2.948,16.345-2.948,16.345,14.379-9.366,15.708-2.252S15.607,20.487,15.607,20.487Z" transform="translate(299.68 276.592)" fill="#93d8d1"/>
  <path id="Path-14" data-name="Path" d="M22.066,18.8S2.579,28.488.2,19.313,18.015,16.15,18.015,16.15,4.289,4.5,10.741.952,21.18,13.87,21.18,13.87,23.5-3.134,29.746.512,22.066,18.8,22.066,18.8Z" transform="translate(412.206 200.568)" fill="#067284"/>
  <path id="Path-15" data-name="Path" d="M29.161,35.807a74.7,74.7,0,0,0-11.966.586C7.436,26.04-6.157,8.829,3.07,1.516,8.841-3.051,14.881,3.336,19.935,12.223A185.647,185.647,0,0,0,29.161,35.807Z" transform="translate(256.344 326.147)" fill="#ffaa9c"/>
  <path id="Path-16" data-name="Path" d="M24.38,55.846a41.963,41.963,0,0,1-10.754,1.142c-.324.008-.64.008-.964.008A185.5,185.5,0,0,1,3.435,33.411C-.947,18.97-2.675,3.787,7.786.47,25.437-5.123,24.989,40.794,24.38,55.846Z" transform="translate(272.844 304.96)" fill="#ff5b35"/>
  <path id="Path-17" data-name="Path" d="M0,0S5.914,39.478,6.429,39.733,5.272,13.243,0,0Z" transform="translate(282.815 318.403)" fill="#d33920"/>
  <path id="Path-18" data-name="Path" d="M0,0S11.668,20.894,12.01,20.928,5.758,6.314,0,0Z" transform="translate(266.128 338.121)" fill="#ff5b35"/>
  <path id="Path-19" data-name="Path" d="M15.822,0S-.294,36.521,0,37.011,13.194,14.009,15.822,0Z" transform="translate(491.521 193.832)" fill="#d33920"/>
  <path id="Path-20" data-name="Path" d="M0,0S.589,33.193.986,33.459,2.909,11.492,0,0Z" transform="translate(472.175 202.455)" fill="#d33920"/>
  <g id="Group" transform="translate(38.861 0)">
    <path id="Path-21" data-name="Path" d="M41.275,0s4.05.868,6.365,6.268S48.8,14.754,48.8,14.754L25.267,34.619S.194,35.584,0,33.076,15.817,25.748,19.674,21.7,29.9,8.583,29.9,8.583Z" transform="translate(150.927 406.124)" fill="#012126"/>
    <path id="Path-22" data-name="Path" d="M10.051,23.476c-1.142,4-1.358,15.128-1.365,15.475C3.733,28.961.5,22.118.184,20.683-.834,16,2.591,6.133,5.029,0a19.037,19.037,0,0,0,3.51,1.6l2.191.663L9.38,4.775A44.992,44.992,0,0,0,16.069,12.2C14.379,14.843,10.915,20.452,10.051,23.476Z" transform="translate(106.834 248.989)" fill="#ef7373"/>
    <path id="Path-23" data-name="Path" d="M19.633,85.432q-2.095-4.073-4.1-8.015C10.522,67.588,5.963,58.57,2.321,51.233v-.008c.841-3.017,1.412-5.3,1.658-6.7.972-5.531,3.765-11.85,6.665-17.3.262-.494.524-.987.787-1.466q.278.185.556.347c.633.37,1.173.694,1.635.964l2.793,1.643s.424-.833,1.011-2.014c-.679-.5-1.319-1-1.928-1.5-.231-.185-.455-.37-.671-.548-.656-.548-1.273-1.088-1.844-1.612-1.25-1.142-2.314-2.222-3.2-3.21a25.582,25.582,0,0,1-4.065-5.578L6.6,12.513a22.075,22.075,0,0,1-4.428-1.928A14.317,14.317,0,0,1,0,9.042c.54-1.288.895-2.06.895-2.06l4.59-2.654,2.808-1.62L12.976,0l.64,1.142L21.724,15.6a20.276,20.276,0,0,0-.9,3.441c-.046.224-.085.455-.123.7a35.2,35.2,0,0,0-.262,9.08,38.812,38.812,0,0,0,1.6,7.846,47.727,47.727,0,0,0,7.792,14.8c.239.316.486.656.733,1.011.864,1.234,1.79,2.708,2.77,4.4a10.553,10.553,0,0,1-.8.764C30.195,59.658,25.381,70.605,19.633,85.432Z" transform="translate(113.197 236.715)" fill="#ef7373"/>
    <path id="Path-24" data-name="Path" d="M54.45,116.475c-4.151,3.471-7.622,2.793-7.622,2.793S21.084,70.11,0,28.984C2.831,22.673,9.1,8.648,10.639,5.092A22.568,22.568,0,0,1,13.563,0C29.778,29.439,58.207,110.689,58.207,110.689S58.592,113,54.45,116.475Z" transform="translate(133.996 295.44)" fill="#ef7373"/>
    <path id="Path-25" data-name="Path" d="M30.916,7.329S1.343,17.1.443,19.286-2,23.272,18.83,23.272H46.988S50.378,8.246,45.212,4.123L40.045,0Z" transform="translate(50.389 423.964)" fill="#012126"/>
    <path id="Path-26" data-name="Path" d="M73.235,16.61a71.977,71.977,0,0,1-4.9,9.057,25.713,25.713,0,0,1-3.117,3.988,10.552,10.552,0,0,1-.8.764c-2.33,2.014-7.144,12.961-12.891,27.788-.517,1.327-1.034,2.677-1.566,4.065-15.044,39.414-35.3,101.03-35.3,101.03s-1.35,4.243-6.75,7.136S0,167.353,0,167.353C2.067,126.342,27.225,49.319,34.214,24.008V24c.841-3.017,1.412-5.3,1.658-6.7.972-5.531,3.765-11.85,6.665-17.3a34.185,34.185,0,0,0,2.77,2.885,52.149,52.149,0,0,0,8.617,6.558c1.049.648,2.168,1.281,3.356,1.883A63.128,63.128,0,0,0,73.235,16.61Z" transform="translate(81.304 263.94)" fill="#ef7373"/>
    <path id="Path-27" data-name="Path" d="M36.9,7.514s-1.126,3.672-2.962,8.733c-1.049,2.9-2.33,6.256-3.765,9.636-2.453-.5-7.483-2.191-17.188-7.568A67.716,67.716,0,0,1,0,9.165C2.307,5.184,4.389,2.076,5.315.733,5.639.255,5.825,0,5.825,0Z" transform="translate(126.181 250.586)" fill="#ef7373"/>
    <path id="Path-28" data-name="Path" d="M80.17,20.961C78.619,36.066,62.118,61.456,53.362,74.015c-3.225,4.621-5.4,7.506-5.4,7.506a4.74,4.74,0,0,1-2.1-.147c-2.453-.5-7.483-2.191-17.188-7.568-2.029-1.126-3.865-2.253-5.531-3.364q-1.609-1.065-3.009-2.121a55.927,55.927,0,0,1-4.444-3.664c-1.25-1.142-2.314-2.222-3.2-3.21a25.582,25.582,0,0,1-4.065-5.578l.887-1.736A22.074,22.074,0,0,1,4.883,52.2a14.317,14.317,0,0,1-2.175-1.543,9.994,9.994,0,0,1-1.543-1.69A5.517,5.517,0,0,1,0,46.164c1.45-12.49,8.772-34.67,11.61-42.939C12.3,1.188,12.729,0,12.729,0l30.3,5.015s-.046.316-.131.864l2.685-.316.008-.008L70.944,2.546l.154-.023,7.144-.848s1.489.733,2.129,5.686c-1.782,1.1-9.034,4.513-30.859,5.369-2.731.108-5.246.154-7.576.131H41.79c-3.294-.039-6.21-.193-8.818-.463,1.018.239,22,5.022,35.047,2.26a75.945,75.945,0,0,0,12.613-3.6A75.626,75.626,0,0,1,80.17,20.961Z" transform="translate(110.49 195.094)" fill="#61c0c9"/>
    <path id="Path-29" data-name="Path" d="M104.834,0S33.989,26.294,29.617,26.037s-5.657-.771-13.243,2.7S-.727,37.351.044,38.38,19.588,33.752,20.1,35.809s2.957,5.272,8.615,3.986S34.631,32.98,41.7,31.951s67.76-15.558,67.76-15.558Z" transform="translate(0 102.844)" fill="#ef7373"/>
    <path id="Path-30" data-name="Path" d="M75.842,42.767c-.378,3.657-.957,7.692-1.62,11.657-.224,1.327-.455,2.654-.694,3.95-.1.579-.208,1.15-.316,1.713-.254-.679-.494-1.288-.7-1.836a27.752,27.752,0,0,1-6.481-1.666s-7.645-21.238-9.2-35.842c0,0-.016.409-.016,1.142-.016,3.726.2,15.807,3.425,24.671,3.857,10.607,7.136,23.723,3.086,26.037S48.478,73.748,49.056,75.87s15.815,2.121,16.972,6.943c.826,3.448,4.59,20.475.27,30.064q-.1.243-.232.486a10.176,10.176,0,0,1-9.5,6.095c-17.535.386-19.657,4.243-19.657,4.243h-.147c-3.294-.039-6.21-.193-8.818-.463a.138.138,0,0,0-.039-.008c-11.209-1.173-16.617-4.475-21.323-9.165-.748-.741-1.474-1.512-2.207-2.322-7.2-7.969-3.341-19.8-3.341-19.8C-2.308,71.881,5.276,39.226,12.8,17.432S31.89.452,31.89.452H50.776A29.343,29.343,0,0,1,63.644,7.657a.087.087,0,0,0,.031.016c7.275,6.882,11.009,16.694,12.3,23.838C76.451,34.088,76.312,38.13,75.842,42.767Z" transform="translate(115.519 84.255)" fill="#097a7f"/>
    <path id="Path-31" data-name="Path" d="M13.348,40.354C7.4,40.864-.893,23.61.183,18.774.329,18.119,0,4.655,0,4.655s.912-.827,2.017-1.783C3.548,1.55,5.449-.019,5.843,0c.679.035,10.824,1.261,10.824,1.261l4.485,9.815,1.059,2.31a13.36,13.36,0,0,0-.594,1.344A21.338,21.338,0,0,1,10.582,12.16c-.942-.553-1.793-1.079-2.567-1.58H8.008s4.1,9.016,12.956,9.77C20.953,24.994,18.744,39.9,13.348,40.354Z" transform="translate(145.189 64.357)" fill="#ef7373"/>
    <path id="Path-32" data-name="Path" d="M63.021,12.769a34.621,34.621,0,0,1-5,5.507c-3.6,3.319-5.569,10.092-5.7,17.391a46.2,46.2,0,0,1-1.059,10.038l0,.019c-.088.365-.148.544-.148.544s1.248-18.237-9.642-18.4c-13.806-.207-9.9,9.019-8.78,12.7s-1.152,6.721-4.121,6.981-.145,8.092-2.038,9.161-.942-3.76-4.482-8.441-9.26,4.581-8.943,8.312,9.5,4.633,8.815,8.719a2.169,2.169,0,0,1-.523,1.085C19.581,68.45,13.6,68.308,7.937,64.761c-.007,0-.005-.008-.012-.009a22.914,22.914,0,0,1-5.7-5.093c-7.337-9.186,5.826-25.144,5.826-25.144s-3.482-2.375.475-12.943S27.455,8.5,27.455,8.5C33.528,1.271,56.433-2.905,62.7,2.375,66.455,5.546,65.314,9.441,63.021,12.769Z" transform="translate(126.218 4.365)" fill="#012126"/>
    <path id="Path-33" data-name="Path" d="M33.915,46.108s-.372.1-1.017.22a31.307,31.307,0,0,1-5.4.53,21.338,21.338,0,0,1-11.034-2.571c-.942-.553-1.793-1.079-2.567-1.58h-.007A41.96,41.96,0,0,1,8.3,38.523a2.169,2.169,0,0,0,.523-1.085A2.693,2.693,0,0,0,7.9,35C5.663,32.771.25,31.574.013,28.719c-.317-3.731,5.4-12.987,8.943-8.312s2.59,9.5,4.482,8.441-.937-8.909,2.038-9.161,5.245-3.3,4.121-6.981S14.571-.2,28.376,0c10.89.163,9.642,18.4,9.642,18.4s.061-.179.148-.544c0,0-.334,7.027-1.558,16.142S33.915,46.108,33.915,46.108Z" transform="translate(139.306 32.23)" fill="#ef7373"/>
    <path id="Path-34" data-name="Path" d="M8.254,5.955S6.323-1.056,3.711.137-1.374,5.758.886,8.207,6.423,9.554,8.254,5.955Z" transform="translate(141.49 54.168)" fill="#ea5959"/>
    <path id="Path-35" data-name="Path" d="M12.956,9.77C4.1,9.016,0,0,0,0H.007c.774.5,1.626,1.028,2.567,1.58A21.334,21.334,0,0,0,13.607,4.153a9.042,9.042,0,0,0-.713,4.532A6.262,6.262,0,0,1,12.956,9.77Z" transform="translate(153.197 74.935)" fill="#ea5959"/>
    <path id="Path-36" data-name="Path" d="M63.021,12.768s1.4-6.048-2.408-8.22S40.149,1.424,29.168,11.515c0,0-13.938,1.776-17.222,9.595s-.8,12.837-.8,12.837-16.177,18.233-3.226,30.8a22.914,22.914,0,0,1-5.7-5.093c-7.337-9.186,5.826-25.144,5.826-25.144s-3.482-2.375.475-12.943S27.455,8.5,27.455,8.5C33.528,1.271,56.433-2.905,62.7,2.375,66.455,5.545,65.313,9.44,63.021,12.768Z" transform="translate(126.219 4.366)" fill="#03393f"/>
    <ellipse id="Oval-2" data-name="Oval" cx="1.022" cy="2.046" rx="1.022" ry="2.046" transform="matrix(1, -0.017, 0.017, 1, 173.147, 47.933)" fill="#210706"/>
    <ellipse id="Oval-3" data-name="Oval" cx="1.022" cy="2.046" rx="1.022" ry="2.046" transform="matrix(1, -0.017, 0.017, 1, 165.521, 48.835)" fill="#210706"/>
    <path id="Path-37" data-name="Path" d="M0,.366,3.755,0s.056,2.015-1.611,2.045A2.3,2.3,0,0,1,0,.366Z" transform="translate(169.516 56.543)" fill="#ea5959"/>
    <path id="Path-38" data-name="Path" d="M0,1.829S.946.151,3.9.006A4.289,4.289,0,0,1,7.974,2.258,10.746,10.746,0,0,0,0,1.829Z" transform="translate(161.708 43.689)" fill="#ea5959"/>
    <path id="Path-39" data-name="Path" d="M7.961,2.4S7.245.616,4.339.083A4.29,4.29,0,0,0,0,1.776,10.746,10.746,0,0,1,7.961,2.4Z" transform="translate(171.656 43.701)" fill="#ea5959"/>
    <path id="Path-40" data-name="Path" d="M39.233,0,30.994,28.868l-4.151,2.893A21.926,21.926,0,0,1,22.67,33.8h-.008c-1.581.625-3.371,1.242-5.161,1.813-5.084,1.628-10.129,2.9-10.129,2.9A46.138,46.138,0,0,1,1.2,28.483c-2.7-5.979,0-14.565,0-14.565L38.547.255Z" transform="translate(100.07 85.74)" fill="#097a7f"/>
    <path id="Path-41" data-name="Path" d="M47.252,73.683c-.579,2.114-13.308,9.057-18.9,4.621s-2.893-9.065-4.822-12.729c-.177-.331-.509-1.1-.98-2.23C18.762,54.28,6.426,22.164,1.782,10.06c-.254-.679-.494-1.288-.7-1.836C.393,6.434,0,5.4,0,5.4l2.793-1,7.591-2.739L14.982,0s.424,1.651,1.142,4.413c.633,2.446,1.5,5.755,2.515,9.582.918,3.441,1.96,7.3,3.055,11.3,4.706,17.219,10.5,37.138,12.444,38.542,3.471,2.507,5.786,5.207,8.679,5.015S47.831,71.569,47.252,73.683Z" transform="translate(186.802 134.28)" fill="#ef7373"/>
    <path id="Path-42" data-name="Path" d="M33.383,44.5a9.217,9.217,0,0,1-2.391,2.677,15.737,15.737,0,0,1-2.723,1.751,21.949,21.949,0,0,1-5.686,1.936,19.535,19.535,0,0,1-5.616.247c-.347-.039-.687-.077-1.018-.123A27.752,27.752,0,0,1,9.468,49.32S1.823,28.082.272,13.478C-.661,4.7.619-1.681,7.084.394A.087.087,0,0,0,7.115.41c.563.324,9.7,5.717,16.046,17.859A146.151,146.151,0,0,1,33.383,44.5Z" transform="translate(171.934 91.518)" fill="#097a7f"/>
    <path id="Path-43" data-name="Path" d="M0,1.8S1.545,8.239,7.074,8.164,11.767,0,11.767,0Z" transform="translate(161.856 62.921)" fill="#fff"/>
    <path id="Path-44" data-name="Path" d="M11.464,0a2.091,2.091,0,0,1-.07.231s.008,0,0,.008c-.154.532-.625,2.006-1.867,5.346-.016.039-.031.085-.046.123C7.954,9.843,5.647,18.43,5.231,20c-.046.162-.07.247-.07.247C3.58,20.875,1.79,21.492,0,22.063Z" transform="translate(117.571 99.287)" fill="#01576c"/>
    <path id="Path-45" data-name="Path" d="M39.075,97.12a3.823,3.823,0,0,1-.494.34c-1.782,1.1-9.034,4.513-30.859,5.369-2.731.108-5.246.154-7.576.131H0S2.121,99.1,19.657,98.716a10.181,10.181,0,0,0,9.5-6.071q.127-.243.231-.486c4.328-9.582.563-26.638-.262-30.087C27.965,57.25,12.728,57.25,12.15,55.129s10.222-.964,14.272-3.279.771-15.429-3.086-26.037S19.926,0,19.926,0c.039.378.085.756.131,1.142,1.805,14.542,9.065,34.7,9.065,34.7A27.752,27.752,0,0,0,35.6,37.508c.209.548.447,1.157.7,1.836-1.713,9.257-3.518,16.941-3.518,16.941,3.5,7.013,5.215,25,5.909,34.584C38.967,94.643,39.075,97.12,39.075,97.12Z" transform="translate(152.279 104.996)" fill="#01576c"/>
    <path id="Path-46" data-name="Path" d="M0,0S1.157,3.214,8.872,4.757s12.6-.643,12.6-.643S8.615,4.115,0,0Z" transform="translate(119.106 177.097)" fill="#01576c"/>
    <path id="Path-47" data-name="Path" d="M27.264,0,11.441,25.659,8.795,29.94,4.428,37.03A22.074,22.074,0,0,1,0,35.1l4.652-5.986,1.466-1.89Z" transform="translate(115.372 212.199)" fill="#4fa4a8"/>
    <path id="Path-48" data-name="Path" d="M32.509,16.718c-.586,1.366-1.188,2.739-1.813,4.081a63.111,63.111,0,0,1-15.954-5.285c-1.188-.6-2.307-1.234-3.356-1.883A52.129,52.129,0,0,1,2.77,7.074,34.274,34.274,0,0,1,0,4.189C.262,3.7.524,3.2.787,2.723c.247-.455.5-.895.741-1.327.278-.479.548-.941.81-1.4.571.524,1.188,1.064,1.844,1.612.216.177.44.363.671.548.61.5,1.25,1,1.928,1.5q1.4,1.041,3.009,2.121c1.666,1.111,3.5,2.245,5.531,3.364C25.026,14.527,30.056,16.217,32.509,16.718Z" transform="translate(123.843 259.751)" fill="#ea5959"/>
    <path id="Path-49" data-name="Path" d="M14.318,13.994c-.509.872-1.026,1.774-1.551,2.723-4.258-2.777-8.417-8.71-8.417-8.71L5.7,5.493,3.51,4.829A19.037,19.037,0,0,1,0,3.232C.5,1.975.957.872,1.334,0A14.341,14.341,0,0,0,3.51,1.543,22.021,22.021,0,0,0,7.938,3.471L7.051,5.207a25.582,25.582,0,0,0,4.065,5.578C12,11.772,13.068,12.852,14.318,13.994Z" transform="translate(111.862 245.757)" fill="#ea5959"/>
    <path id="Path-50" data-name="Path" d="M9.111,1.28c-.262.478-.524.972-.787,1.466C5.423,8.2,2.63,14.519,1.658,20.05c-.247,1.4-.818,3.68-1.658,6.7C.008,26.4.224,15.267,1.365,11.271,2.229,8.247,5.693,2.638,7.383,0A19.551,19.551,0,0,0,9.111,1.28Z" transform="translate(115.519 261.194)" fill="#ea5959"/>
    <path id="Path-51" data-name="Path" d="M14.727,1.844A22.568,22.568,0,0,0,11.8,6.936C10.268,10.493,4,24.518,1.165,30.828.779,30.072.385,29.308,0,28.552,5.748,13.724,10.561,2.777,12.891.764a10.551,10.551,0,0,0,.8-.764C14.033.587,14.38,1.2,14.727,1.844Z" transform="translate(132.83 293.594)" fill="#ea5959"/>
    <path id="Path-52" data-name="Path" d="M4.267,20.243C-4.465,15.68,2.371,4.571,5.712,0,6.47,3.458,9.4,7.274,14.888,8.978c5.114,1.587,7.6,2.03,9.623,1.113C21.663,16.346,14.594,25.645,4.267,20.243Z" transform="translate(148.937 247.957)" fill="#449a9e"/>
    <path id="Path-53" data-name="Path" d="M20.789,15.52a5.953,5.953,0,0,1-2.835,1.574c-1.866.4-4.3-.126-8.574-1.452C3.73,13.887.8,9.915.146,6.38a6.665,6.665,0,0,1,.484-4.3A4.107,4.107,0,0,1,2.344.3C5.693-1.5,17.025,5.329,22.316,8.738a2.962,2.962,0,0,1,.667,4.386A25.432,25.432,0,0,1,20.789,15.52Z" transform="translate(156.075 239.563)" fill="#449a9e"/>
    <path id="Path-54" data-name="Path" d="M18.8,12.1c-2.019.917-4.509.474-9.623-1.113C3.683,9.287.758,5.472,0,2.014.916.765,1.572,0,1.572,0c.653,3.534,3.584,7.506,9.235,9.263,4.271,1.326,6.707,1.849,8.574,1.452C19.208,11.151,19.02,11.616,18.8,12.1Z" transform="translate(154.65 245.944)" fill="#2d7777"/>
    <path id="Path-55" data-name="Path" d="M6.607,0a31.233,31.233,0,0,1-2.87,5.643A11.475,11.475,0,0,1,.01,9.115C.193,9.017,6.607,0,6.607,0Z" transform="translate(157.644 258.698)" fill="#2d7777"/>
    <path id="Path-56" data-name="Path" d="M47.661,3.7A75.9,75.9,0,0,1,35.047,7.3C22,10.059,1.018,5.277,0,5.037c2.608.27,5.524.424,8.818.463h.147c2.33.023,4.845-.023,7.576-.131C38.365,4.513,45.617,1.1,47.4,0A35.678,35.678,0,0,1,47.661,3.7Z" transform="translate(143.462 202.455)" fill="#4fa4a8"/>
    <path id="Path-57" data-name="Path" d="M5.148,0s-3.375,5.629-2.6,9.083a20.31,20.31,0,0,0,3.279,6.732S-.218,13.055.006,9.083,5.148,0,5.148,0Z" transform="translate(140.091 249.807)" fill="#4fa4a8"/>
    <ellipse id="Oval-4" data-name="Oval" cx="1.205" cy="1.64" rx="1.205" ry="1.64" transform="translate(167.911 250.593)" fill="#2d7777"/>
    <path id="Path-58" data-name="Path" d="M7.315,0A13.4,13.4,0,0,0,.421,15.333S2.976,3.086,7.315,0Z" transform="translate(176.786 214.561)" fill="#4fa4a8"/>
    <path id="Path-59" data-name="Path" d="M58.761,70.3a8.33,8.33,0,0,1-2.06,4s-.933-.37-2.461-.987c-4.884-2-15.8-6.611-21.192-10.083-4.652-3.009-9.2-.5-13.046.54-2,.54-3.811.687-5.346-.54C10.166,59.626-1.8,39.615.23,34.577S8.623,24.964,7.08,22.334,3.771,5.894,5.622,2.453C5.862,2.021,7.721.232,11.771,0c0,0,.663,25.041,13.964,40.98S58.761,64.548,58.761,64.548A11.461,11.461,0,0,1,58.761,70.3Z" transform="translate(128.805 85.069)" fill="#9cd3d1"/>
    <path id="Path-60" data-name="Path" d="M0,0S1.764,6.347,7.7,16.5a81.141,81.141,0,0,0,12.1,16.11S2.186,4.376,0,0Z" transform="translate(137.493 110.319)" fill="#80bfbb"/>
    <path id="Path-61" data-name="Path" d="M0,7.145s4.629-8.6,6.043-6.93S9.9,9.666,14.851,17.381,23.723,27.6,23.015,29.017s-7.972,2.7-7.972,2.7,6.107-2.25,5.336-3.857-4.886-6.043-7.329-10.286S6.236,1.63,5.078,2.209,0,7.145,0,7.145Z" transform="translate(130.999 115.743)" fill="#80bfbb"/>
    <circle id="Oval-5" data-name="Oval" cx="1.447" cy="1.447" r="1.447" transform="translate(137.525 131.966)" fill="#5bafa7"/>
    <g id="Group-2" data-name="Group" transform="translate(141.189 109.932)">
      <path id="Path-62" data-name="Path" d="M.708,1.47a.386.386,0,0,1-.35-.222C.145.792.034.545.034.545a.386.386,0,1,1,.7-.317s.11.245.319.692a.386.386,0,0,1-.186.513A.372.372,0,0,1,.708,1.47Z" transform="translate(0 0)" fill="#5bafa7"/>
      <path id="Shape-3" data-name="Shape" d="M15.844,25.721c-.319-.33-.677-.715-1.07-1.161a.385.385,0,1,1,.578-.511q.578.652,1.048,1.137a.386.386,0,0,1-.555.535ZM13.75,23.364q-.469-.568-.985-1.228a.386.386,0,0,1,.609-.474q.507.652.971,1.211a.386.386,0,0,1-.051.543.391.391,0,0,1-.246.088A.385.385,0,0,1,13.75,23.364Zm-1.936-2.481q-.446-.6-.919-1.275a.386.386,0,1,1,.631-.444q.468.663.91,1.261a.386.386,0,0,1-.081.54.391.391,0,0,1-.229.075A.386.386,0,0,1,11.814,20.883ZM10,18.314Q9.58,17.682,9.14,17a.386.386,0,1,1,.648-.419q.436.675.856,1.3a.387.387,0,0,1-.1.536.386.386,0,0,1-.535-.1ZM8.3,15.675,8.132,15.4q-.329-.535-.649-1.064a.386.386,0,0,1,.661-.4q.318.528.645,1.06l.168.272a.386.386,0,0,1-.126.531.394.394,0,0,1-.2.057A.385.385,0,0,1,8.3,15.675ZM6.68,12.993q-.4-.684-.789-1.354a.386.386,0,1,1,.669-.386q.384.668.785,1.349a.385.385,0,0,1-.137.528.4.4,0,0,1-.2.052A.384.384,0,0,1,6.68,12.993ZM5.116,10.275q-.391-.7-.762-1.369a.386.386,0,0,1,.676-.372Q5.4,9.2,5.788,9.9a.386.386,0,1,1-.672.378ZM3.6,7.529q-.382-.709-.738-1.382a.386.386,0,0,1,.682-.36q.353.67.735,1.376a.387.387,0,0,1-.157.523.4.4,0,0,1-.183.046A.386.386,0,0,1,3.6,7.529ZM2.139,4.758c-.251-.486-.489-.952-.713-1.395a.386.386,0,1,1,.688-.348q.335.661.71,1.388a.386.386,0,0,1-.686.354ZM.726,1.962C.47,1.443.24.971.038.553a.386.386,0,1,1,.7-.334c.2.415.429.885.684,1.4a.385.385,0,0,1-.175.517.379.379,0,0,1-.17.04A.386.386,0,0,1,.726,1.962Z" transform="translate(0.991 2.109)" fill="#5bafa7"/>
      <path id="Path-63" data-name="Path" d="M.964,1.275a.385.385,0,0,1-.236-.081S.516,1.029.125.669A.386.386,0,1,1,.647.1C1,.426,1.195.579,1.2.585a.386.386,0,0,1-.238.69Z" transform="translate(17.848 28.281)" fill="#5bafa7"/>
    </g>
    <path id="Path-64" data-name="Path" d="M34.245,11.514v.972L30.48,11.329c-3.765-1.157-9.643-2.507-15.522-6.558S8.3,1.686,5.3,2.55A6.951,6.951,0,0,1,0,1.979l.008-.008C3.857.93,8.4-1.577,13.053,1.431,18.446,4.9,29.362,9.516,34.245,11.514Z" transform="translate(148.8 146.867)" fill="#01576c"/>
    <path id="Path-65" data-name="Path" d="M9.946.886s4.243-1.993,8.1,0,6.365,3.536,6.365,3.536S6.089,58.552,2.232,56.174.689,12.329.689,12.329Z" transform="translate(370.299 375.377)" fill="#01576c"/>
    <path id="Path-66" data-name="Path" d="M25.4,22.172c1.62,4.335,5.894,18.731,8.3,26.939C17.5,39.329,4.763,30.928,2.448,26.808-1.579,19.649.1,8.277,2.232,0A23.7,23.7,0,0,1,10.8,2.893,46.76,46.76,0,0,0,25.4,7.715S23.085,15.993,25.4,22.172Z" transform="translate(254.364 286.837)" fill="#ef9292"/>
    <path id="Path-67" data-name="Path" d="M59.8,45.678c2.484,8.023,4.451,20.637,5.986,34.538-3.834-2.237-7.73-4.5-11.61-6.758s-7.745-4.513-11.526-6.742c-2.592-1.527-5.146-3.032-7.638-4.521-3.749-13.3-6.719-23.5-7.63-26.561-1.126-3.8-1.173-8.571-.779-13.1.039-.478.085-.949.139-1.42.023-.231.046-.463.077-.694.016-.131.031-.262.046-.393.2-1.658.455-3.255.717-4.721a128.383,128.383,0,0,1-15.5-5A57.826,57.826,0,0,0,0,6.773C1.219,2.7,2.307,0,2.307,0l31.36,5.061,2.2.355s.046.3.154.849c.046.231.108.5.177.81a54.71,54.71,0,0,0,3.819,10.939c.324.694.679,1.4,1.057,2.129q.775,1.481,1.7,2.993A46.413,46.413,0,0,0,51.834,34a41.776,41.776,0,0,0,4.089,3.178c1.157.787,2.468,1.759,3.9,2.893C59.781,43.434,59.8,45.678,59.8,45.678Z" transform="translate(257.591 276.468)" fill="#ef9292"/>
    <path id="Path-68" data-name="Path" d="M60.567,66.5c-2.006,4.112-7.769,3.726-7.769,3.726C50,65.62,30.117,53.732,7.675,40.656,6.3,27.873,2.183,10.908.755,7.352A12.193,12.193,0,0,1,.408,0c20.12,16.185,61.648,58.785,61.648,58.785A14.543,14.543,0,0,1,60.567,66.5Z" transform="translate(318.19 317.48)" fill="#ef9292"/>
    <path id="Path-69" data-name="Path" d="M51.953,2.058A10.524,10.524,0,0,1,53.882,8.1v8.229S-.763,18.9.008,15.815,40.381,0,40.381,0Z" transform="translate(276.476 431.55)" fill="#01576c"/>
    <path id="Path-70" data-name="Path" d="M12.436,12.6C8.294,11.865,4.089,10.947,0,9.89.8,5.331,1.728,2.06,1.728,2.06l4.629-.27,2.26-.131,1.227-.07L24.031.764,28.575.5l8.64-.5L34.646,6.056a13.75,13.75,0,0,0-.71,2.523c-.116.54-.216,1.134-.316,1.767-.016.131-.039.27-.054.409v.008c-.177,1.173-.324,2.484-.455,3.873a116.355,116.355,0,0,1-19.958-1.906C12.914,12.682,12.675,12.644,12.436,12.6Z" transform="translate(285.171 281.885)" fill="#ffbab3"/>
    <path id="Path-71" data-name="Path" d="M44.459,137.112s-1.543,1.8-6.943,2.314-6.426-3.471-6.426-3.471c0-11.51-12.413-57.96-21.369-89.922-.37-1.311-.733-2.608-1.088-3.865C4.884,28.868,1.914,18.669,1,15.607c-1.126-3.8-1.173-8.571-.779-13.1.039-.478.085-.949.139-1.42C.386.856.409.625.44.393.456.262.471.131.487,0,2.369.177,9.25,2.014,16.394,3.109c1.381.216,2.762.4,4.127.54a98.791,98.791,0,0,0,13.493.34c-.254,3.85-.4,7.969-.478,11.564-.039,1.628-.07,3.148-.085,4.49-.046,3.364-.031,5.608-.031,5.608,2.484,8.023,4.451,20.637,5.986,34.538.254,2.3.5,4.637.733,7C43.395,100.151,44.459,137.112,44.459,137.112Z" transform="translate(283.968 296.496)" fill="#ef9292"/>
    <path id="Path-72" data-name="Path" d="M3.4,12.1A22.9,22.9,0,0,1,0,9.805V9.8c0-.023.008-.039.008-.062C.524,6.249.833,4.073.833,4.073L50.461,0l6.056,2.669L65.536,6.65,77.91,12.1s-4.984,4.282-17.474,6.442a90.02,90.02,0,0,1-15.375,1.227C21.146,19.773,13.431,17.713,3.4,12.1Z" transform="translate(254.181 202.455)" fill="#097a7f"/>
    <path id="Path-73" data-name="Path" d="M85.284,82.924a20.987,20.987,0,0,1-3.68.88l-.656.093q-.821.1-1.713.185c-1.257.108-2.615.162-4.05.177a116.355,116.355,0,0,1-19.958-1.906c-.239-.046-.478-.085-.717-.131-4.143-.733-8.347-1.651-12.436-2.708-.4-.108-.8-.208-1.2-.316a126.411,126.411,0,0,1-14.3-4.683,57.826,57.826,0,0,0-12.081-3.533c-1.08-.185-2.091-.309-3.032-.386C3.747,69.933.345,72.2.345,72.2-.688,65,.6,54.967,4.2,39.221,6.81,27.8,9.7,9.3,11.084,0,12.357,1.188,32.778,19.85,63.1,15.753c13.955-1.883,22.364-4.2,27.395-6.179.34,1.736.741,3.827,1.2,6.311.185.98.37,2.368.548,4.089C73.457,23.607,59.987,39.252,61.507,56.68a30.91,30.91,0,0,0,4.6,13.709,33.293,33.293,0,0,0,5.539,6.742,34.614,34.614,0,0,0,4,3.248v.008c.254.17.509.347.764.517-.239-.309-.478-.617-.71-.933-.532-.717-1.034-1.458-1.5-2.214a33.335,33.335,0,0,1-3.541-7.63,32.141,32.141,0,0,1-1.427-7.136c-1.358-15.622,8.517-29.9,23.576-36.428C94.024,45.493,93.832,79.908,85.284,82.924Z" transform="translate(243.097 212.26)" fill="#097a7f"/>
    <path id="Path-74" data-name="Path" d="M43.078,12.336v.008l-4.042,6.195-.07-.07c-1.049-1.126-1.381-3.124-1.234-5.608a30.114,30.114,0,0,1,.6-4.374A22.116,22.116,0,0,1,30.65,2.438c.139.316,2.461,5.416,4.421,6.82,2.029,1.45-.571,4.344,0,7.283a9.32,9.32,0,0,0,2.577,4.127L4.2,71.993l-4.2-13L30.635,2.423h.008l.262-.5L31.761.348l2.6-.1L36.768.155,38.936.07,40.672,0V.016Z" transform="translate(215.277 124.251)" fill="#ef9292"/>
    <path id="Path-75" data-name="Path" d="M79.975,55.286c-1.512.062-2.955.039-4.274-.031a43.522,43.522,0,0,1-6.526-.81S62.6,31.934,65.341,17.878a15.392,15.392,0,0,1-3.418.254A63.343,63.343,0,0,0,61.46,31.37c.771,12.32,5.462,24.78,3.209,26.461S56.847,59.505,54.617,57c0,0,.478,4.436,7.615,4.629s10.8-3.279,11.186,0,1.913,39.337-1.165,52.552c-.108.455-.216.9-.331,1.35-.471,1.867-.995,3.634-1.558,5.3a75.944,75.944,0,0,1-5.1,11.9,90.019,90.019,0,0,1-15.375,1.227c-23.916,0-31.63-2.06-41.659-7.668a22.9,22.9,0,0,1-3.4-2.3v-.008c-.008,0-.008,0-.016-.008l-.046-.046c-6.472-5.416-5.848-12.613-1.15-21.084,5.416-9.774,7.182-21.6,9.5-34.639C15.1,57.044,10.853,58.333,6.856,56a8.444,8.444,0,0,1-1.9-1.489l-.07-.07C3.84,53.318,3.508,51.32,3.655,48.835a30.114,30.114,0,0,1,.6-4.374c.347-1.72.826-3.541,1.366-5.369.3-1.034.633-2.075.972-3.1,1.674-5.053,3.634-9.8,4.721-12.359a30.015,30.015,0,0,0,1.813-9.3.221.221,0,0,0,.008-.062c.054-.764.1-1.512.147-2.222.023-.409.046-.81.077-1.2,0-.07.008-.131.008-.193.016-.177.023-.347.039-.517a2.091,2.091,0,0,1,.016-.224q.058-.81.139-1.5A7.829,7.829,0,0,1,14.093,6.1a1.77,1.77,0,0,1,.123-.239.1.1,0,0,1,.023-.031,1.49,1.49,0,0,1,.162-.209A14.968,14.968,0,0,1,18.429,3.6c2.839-1.119,6.457-2.3,8.648-2.985C28.274.234,29.045,0,29.045,0S33.859-.044,40.1.326c8.679.517,20.135,1.859,25.219,5.3A47.752,47.752,0,0,1,69.847,9a11.907,11.907,0,0,1,3.163,3.95c1.026,2.121,1.435,4.714,2.592,9.088a142.5,142.5,0,0,1,2.253,14.18C78.556,41.808,79.3,48.442,79.975,55.286Z" transform="translate(249.354 88.276)" fill="#66d7dc"/>
    <path id="Path-76" data-name="Path" d="M23.954,6.328a14.954,14.954,0,0,0-4.027,2.029c-.964.987-.964,4.567-1.265,8.64a.223.223,0,0,1-.008.062c-.123.833-1.234,7.6-4.127,10.978-3.086,3.595-4.76,17.1-7.074,15.552-2.245-1.5-6.01-3.441-6.249-3.557L1.2,40.026c-.771-1.018-1.2-1.7-1.2-1.7l14.781-28.8S21.856.265,22.372,0C22.565-.1,23.221,2.764,23.954,6.328Z" transform="translate(243.828 85.545)" fill="#66d7dc"/>
    <path id="Path-77" data-name="Path" d="M17.165,25.366c-1.157,5.825-3.626,13.115-6.079,15.915A2.952,2.952,0,0,1,9.3,42.446a2.2,2.2,0,0,1-1.358-.386C4.3,39.738.818,27.9,1.289,24.7a15.72,15.72,0,0,0,.077-2.453c-.039-1.35-.162-2.939-.324-4.528v-.008L.9,16.44c-.031-.278-.07-.563-.1-.841H.81c6.6-2.615,11.842-8.609,11.842-8.609V6.982A35.33,35.33,0,0,1,8.988,9,26.281,26.281,0,0,1,.262,11.518c-.039-.247-.062-.471-.1-.663C.062,10.184,0,9.782,0,9.782l.208-.147L8.139,4.2,14.249,0l1.281.594c.031.177.07.355.108.517.054.231.108.447.162.656.239.98.447,1.7.579,2.121.016.07.039.131.054.185s.031.1.039.131.016.031.016.046a.024.024,0,0,1,.008.016l-.085.17c-.023.054-.054.108-.085.185A25.143,25.143,0,0,0,15.16,7.646q-.1.324-.208.671c-.085.27-.162.556-.231.848-.123.463-.239.949-.34,1.45-.054.293-.116.594-.162.895a.071.071,0,0,0-.008.039c-.023.162-.054.324-.077.494-.039.247-.07.494-.1.748-.016.108-.023.209-.031.316-.016.17-.031.347-.046.517A22.22,22.22,0,0,0,13.9,15.9v.023c.023.586.07,1.18.147,1.774.016.17.046.34.07.509.07.447.162.895.27,1.343a4.371,4.371,0,0,0,.108.432c.085.331.193.663.3.995.031.085.062.177.1.27.085.239.177.486.278.725.077.17.147.34.231.517l.254.532A15.584,15.584,0,0,0,17.165,25.366Z" transform="translate(275.551 72.68)" fill="#ef9292"/>
    <path id="Path-78" data-name="Path" d="M30.538,42.826a1.054,1.054,0,0,1-.147.224,8.046,8.046,0,0,1-3.047,2.044,29.056,29.056,0,0,1-3.611,1.319c-.54.162-1.134.324-1.774.486-.154.039-.316.085-.486.123-.34.085-.679.154-1.018.224-.286.062-.579.116-.872.162-.663.116-1.334.208-1.99.278-.162.023-.316.039-.471.046-.247.023-.486.046-.725.062-.331.031-.663.046-.987.061-.656.031-1.3.046-1.928.046-.856,0-1.674-.031-2.453-.07a43.523,43.523,0,0,1-6.526-.81S-2.071,24.512.668,10.456c.1-.54.224-1.064.355-1.574a13.668,13.668,0,0,1,4.151-7.3A8.743,8.743,0,0,1,7.973.01a5.316,5.316,0,0,1,2.507,1.1c2.661,1.7,6.9,5.647,10.222,13.554C25.717,26.625,30.538,42.826,30.538,42.826Z" transform="translate(314.028 95.698)" fill="#66d7dc"/>
    <path id="Path-79" data-name="Path" d="M77.526,86.518A29.379,29.379,0,0,1,76.3,96.81c-.116.378-.254.756-.4,1.134a16.19,16.19,0,0,1-1.744,3.287,11.6,11.6,0,0,1-6.519,4.66c-.37.1-.748.193-1.15.262a15.392,15.392,0,0,1-3.418.254,26.534,26.534,0,0,1-6.828-1.165c-.378-.108-.748-.224-1.1-.34-.247-.077-.486-.162-.717-.247a24.546,24.546,0,0,1-6.6-3.394,17.1,17.1,0,0,1-3.31-3.217A15.625,15.625,0,0,1,43,95.7l-.254-.532c-.085-.177-.154-.347-.231-.517-.1-.239-.193-.486-.278-.725-.039-.093-.07-.185-.1-.27-.108-.331-.216-.663-.3-.995-.039-.139-.077-.286-.108-.432-.108-.447-.2-.895-.27-1.343-.023-.17-.054-.34-.07-.509-.077-.594-.123-1.188-.147-1.774v-.023c-.008-.254-.016-.509-.016-.764s.008-.509.016-.764.031-.5.054-.748c.016-.17.031-.347.046-.517.008-.108.016-.209.031-.316.031-.254.062-.5.1-.748.023-.17.054-.332.077-.494a.071.071,0,0,1,.008-.039c.046-.3.108-.6.162-.895.1-.5.216-.987.34-1.45.07-.293.147-.579.231-.848q.1-.347.208-.671A25.225,25.225,0,0,1,43.666,77.3c.031-.077.062-.131.085-.185l.085-.17a.025.025,0,0,0-.008-.016c0-.016-.008-.023-.016-.046s-.023-.077-.039-.131-.039-.116-.054-.185c-.131-.417-.34-1.142-.579-2.121-.085-.355-.177-.748-.27-1.173C41.683,67.9,40.379,57.8,45.232,51.109c0,0-2.3-21.262-19.4-9.651-.123.077-.247.17-.378.254A78.588,78.588,0,0,0,19.241,62.4a59.567,59.567,0,0,0,.417,20.86A16.234,16.234,0,0,0,27.6,84.2c.154,1.057.355,2.507.548,4.081.008.039.008.077.016.116.016.162.039.324.054.494.008.077.016.154.023.231a.1.1,0,0,0,.008.046c.039.409.085.818.131,1.227l-4.876,1.844c-.123.061-.247.139-.37.208l-1.018.347-1.327.463-5.848,2.021-1.1.378a17.906,17.906,0,0,0-5.578,3.58C5.346,98.585,1.2,96.787.24,93.1a7.3,7.3,0,0,1-.216-1.4C-.37,84.189,4.212,79.838,9.783,75.3s3.471-13.94,5.863-22.017c1.9-6.388,6.735-11.7,8.679-13.647C21.9,34.862,16.833,22.9,22.087,14.866a45.468,45.468,0,0,1,5.555-6.912C33.79,1.682,40.942-1.813,44.8.964c5.122,3.7.741,20.776,4.3,23.144s13.045-1.157,16.3,3.364a11.154,11.154,0,0,1,1.466,9.589,10.286,10.286,0,0,1,7.923,7.8A17.712,17.712,0,0,1,73.56,56.71s10.052.671,10.314,11S77.526,86.518,77.526,86.518Z" transform="translate(248.208 0.001)" fill="#012126"/>
    <path id="Path-80" data-name="Path" d="M26.693,13.119c-4.854,6.687-3.554,16.794-2.366,22.168.033.179.072.356.114.518.109.471.214.9.313,1.277.308,1.181.538,1.876.538,1.876a41.77,41.77,0,0,1-3.839,2.714,35.311,35.311,0,0,1-3.667,2.017,26.287,26.287,0,0,1-8.721,2.519l-.128.013a16.08,16.08,0,0,1-7.818-.954A59.521,59.521,0,0,1,.7,24.408,78.492,78.492,0,0,1,6.912,3.725c.129-.089.252-.177.376-.258C24.389-8.141,26.693,13.119,26.693,13.119Z" transform="translate(266.75 37.989)" fill="#ef9292"/>
    <path id="Path-81" data-name="Path" d="M12.388,0l0,.007s-5.248,6-11.852,8.61C.349,7.044.159,5.6,0,4.536A26.284,26.284,0,0,0,8.721,2.017,35.312,35.312,0,0,0,12.388,0Z" transform="translate(275.815 79.661)" fill="#ef7373"/>
    <path id="Path-82" data-name="Path" d="M56.233,67.709C56.5,78.036,49.88,86.523,49.88,86.523a59.05,59.05,0,0,0,3.622-16c.751-9.075-10.824-13.138-10.824-13.138a25.87,25.87,0,0,0,2.167-11.191c-.31-6.047-9.223-7.879-9.223-7.879a10.978,10.978,0,0,0,.412-8.169C34.4,26.087,24.684,31.81,19.48,26.93S18.559,5.683,15.543,2.546.285,7.665,0,7.954C6.145,1.679,13.295-1.816,17.155.968,22.276,4.656,17.9,21.742,21.46,24.1s13.043-1.151,16.3,3.37a11.153,11.153,0,0,1,1.462,9.586,10.3,10.3,0,0,1,7.928,7.8,17.713,17.713,0,0,1-1.239,11.851S55.964,57.382,56.233,67.709Z" transform="translate(275.854)" fill="#03393f"/>
    <ellipse id="Oval-6" data-name="Oval" cx="2.047" cy="1.022" rx="2.047" ry="1.022" transform="translate(276.398 55.852) rotate(-84.122)" fill="#210706"/>
    <ellipse id="Oval-7" data-name="Oval" cx="2.047" cy="1.022" rx="2.047" ry="1.022" transform="translate(268.717 55.84) rotate(-84.122)" fill="#210706"/>
    <path id="Path-83" data-name="Path" d="M.016,0l3.1.1S2.43,1.883,1.107,1.578A1.36,1.36,0,0,1,.016,0Z" transform="translate(271.445 60.641)" fill="#ef7373"/>
    <path id="Path-84" data-name="Path" d="M0,1.3A3.787,3.787,0,0,1,3.15.014c2.008.169,2.091,2.92,2.091,2.92S4.25-.274,0,1.3Z" transform="translate(275.35 47.603)" fill="#ef7373"/>
    <path id="Path-85" data-name="Path" d="M0,2.98A3.788,3.788,0,0,1,1.987.219C3.778-.7,5.309,1.584,5.309,1.584S2.766-.608,0,2.98Z" transform="translate(267.803 47.921)" fill="#ef7373"/>
    <path id="Path-86" data-name="Path" d="M11.086,11.913c-.37,2.052-3.51,3.688-3.711,3.788a16.508,16.508,0,0,0,2.3-2.5C11.6,10.756,6.843,8.958,4.143,3.427,2.908.9,1.373.356.023.6L0,.542s2.6-1.219,3.757,0,1.674,3.4,3.919,5.331S11.471,9.792,11.086,11.913Z" transform="translate(207.153 191.668)" fill="#ea5959"/>
    <path id="Path-87" data-name="Path" d="M13.348,12.657a16.508,16.508,0,0,1-2.3,2.5l-.008.008c-1.782,1.481-3.988,2.006-6.311-1.6-3.471-5.4-5.786-9-4.243-11.449A5.673,5.673,0,0,1,3.7.051c1.35-.239,2.885.3,4.119,2.831C10.517,8.414,15.276,10.211,13.348,12.657Z" transform="translate(203.48 192.212)" fill="#ef9292"/>
    <path id="Path-88" data-name="Path" d="M.443,0l4.31,12.955-.56.86L0,.818Z" transform="translate(215.278 182.427)" fill="#ea5959"/>
    <path id="Path-89" data-name="Path" d="M44.182,73.032C30.774,74.2,18.369,69.483,10.138,61.251a38.049,38.049,0,0,1-2.831-3.178A33.413,33.413,0,0,1,.124,40.16C-1.233,24.538,8.641,10.258,23.7,3.732A45.348,45.348,0,0,1,37.849.175,45.812,45.812,0,0,1,50.023.731C67.134,3.863,80.48,16.661,81.907,33.047,83.658,53.166,66.763,71.064,44.182,73.032Z" transform="translate(312.194 235.09)" fill="#ff5b35"/>
    <path id="Path-90" data-name="Path" d="M29.91,39.239a25.526,25.526,0,0,1-5.508,1.1A24.773,24.773,0,0,1,12.236,38.36C5.516,35.359.695,29.4.07,22.183-.9,11.066,8.432,1.183,20.907.1a24.962,24.962,0,0,1,9.921,1.119,22.661,22.661,0,0,1,5.138,2.4,19.344,19.344,0,0,1,9.273,14.635C46.056,27.652,39.5,36.177,29.91,39.239Z" transform="translate(330.556 251.478)" fill="#ff9685"/>
    <path id="Path-91" data-name="Path" d="M15.059,38.264A24.3,24.3,0,0,1,0,34.747a24.767,24.767,0,0,0,12.166,1.975C24.64,35.634,33.968,25.751,33,14.635A19.344,19.344,0,0,0,23.73,0C30.449,3,35.271,8.957,35.9,16.178,36.86,27.294,27.534,37.177,15.059,38.264Z" transform="translate(342.791 255.092)" fill="#d83a21"/>
    <path id="Shape-4" data-name="Shape" d="M12.543,56.737A30.128,30.128,0,0,1,.11,35.11,30.133,30.133,0,0,1,8.625,11.661,37.91,37.91,0,0,1,33.049.154C52.74-1.567,70,11.339,71.526,28.9S58.277,62.145,38.587,63.858c-1.185.1-2.368.154-3.542.154A37.5,37.5,0,0,1,12.543,56.737Z" transform="translate(317.39 239.687)" fill="#d83a21"/>
    <path id="Path-92" data-name="Path" d="M14.481,38.025a23.672,23.672,0,0,1-2.245-.864C5.517,34.16.7,28.2.07,20.984-.756,11.58,5.8,3.055,15.4,0a22.661,22.661,0,0,1,5.138,2.4A19.344,19.344,0,0,1,29.81,17.034C30.627,26.438,24.07,34.963,14.481,38.025Z" transform="translate(345.985 252.692)" fill="#ffbab3"/>
    <path id="Shape-5" data-name="Shape" d="M11.372,35.668C4.856,32.759.63,27.133.065,20.618a17.69,17.69,0,0,1,5-13.778A22.25,22.25,0,0,1,19.391.089,22.627,22.627,0,0,1,33.342,3.35a18,18,0,0,1,8.623,13.619C42.859,27.282,34.19,36.492,22.64,37.5h0q-1.024.089-2.047.089A22.807,22.807,0,0,1,11.372,35.668Z" transform="translate(332.195 252.916)" fill="#ff5b35"/>
    <path id="Path-93" data-name="Path" d="M0,7.078S.109-2.167,4.166.475s6.405,6.139,4.661,7.494S1.3,8.857,1.3,8.857Z" transform="translate(330.095 245.862)" fill="#ffbab3"/>
    <path id="Path-94" data-name="Path" d="M9.41,1.857S9.3,11.1,5.244,8.46-1.161,2.322.583.966,8.112.078,8.112.078Z" transform="translate(321.606 254.314)" fill="#ffbab3"/>
    <circle id="Oval-8" data-name="Oval" cx="2.111" cy="2.111" r="2.111" transform="translate(328.38 252.352)" fill="#d83a21"/>
    <path id="Path-95" data-name="Path" d="M17.451,0a30.015,30.015,0,0,1-1.813,9.3c-1.088,2.561-3.047,7.306-4.721,12.359-.34,1.026-.671,2.067-.972,3.1-.54,1.828-1.018,3.649-1.366,5.369A22.116,22.116,0,0,1,.895,24.084a.024.024,0,0,1-.008-.016H.88c-.331-.393-.625-.764-.88-1.1.077.039.509.262,1.15.594.093.054.2.108.309.17,1.358.733,3.379,1.851,4.791,2.793.841.563,1.6-.872,2.376-3.094v-.008q.278-.8.556-1.713c1.18-3.811,2.445-8.764,4.143-10.739C16.216,7.6,17.327.833,17.451,0Z" transform="translate(245.032 102.605)" fill="#61c0c9"/>
    <path id="Path-96" data-name="Path" d="M28.121,80.841c-.355,4.822-.409,10.538-.355,15.507.077,6.7.355,12.058.355,12.058s-4.984,4.282-17.474,6.442a75.9,75.9,0,0,0,5.1-11.9c.563-1.666,1.088-3.433,1.558-5.3.116-.447.224-.895.331-1.35,3.078-13.215,1.551-49.273,1.165-52.552s-4.05.193-11.186,0S0,39.12,0,39.12c2.23,2.507,7.807,2.507,10.052.833S7.614,25.813,6.843,13.493A63.339,63.339,0,0,1,7.306.254,15.392,15.392,0,0,0,10.724,0c-2.739,14.056,3.834,36.567,3.834,36.567a43.534,43.534,0,0,0,6.526.81c1.319.07,2.762.093,4.274.031C27.157,55.305,28.576,74.692,28.121,80.841Z" transform="translate(303.97 106.154)" fill="#61c0c9"/>
    <path id="Path-97" data-name="Path" d="M0,0A13.279,13.279,0,0,0,6.3,2.572,7.9,7.9,0,0,0,12.6.643,17.143,17.143,0,0,1,0,0Z" transform="translate(265.041 148.296)" fill="#61c0c9"/>
    <path id="Path-98" data-name="Path" d="M0,0S4.845,5.737,19.888,5.858,40.139,0,40.139,0,13.67,5.015,0,0Z" transform="translate(267.782 186.355)" fill="#61c0c9"/>
    <path id="Path-99" data-name="Path" d="M79.414,9.574c-5.03,1.983-13.439,4.3-27.395,6.179C21.693,19.85,1.273,1.188,0,0A22.923,22.923,0,0,0,3.4,2.3C13.431,7.908,21.145,9.968,45.061,9.968A90.019,90.019,0,0,0,60.436,8.741C72.926,6.581,77.91,2.3,77.91,2.3S78.388,4.313,79.414,9.574Z" transform="translate(254.181 212.26)" fill="#01576c"/>
    <path id="Path-100" data-name="Path" d="M0,33.816S.257,20.232,4.115,12.045,7.715,0,7.715,0s.129,9.42-2.443,14.932S0,33.816,0,33.816Z" transform="translate(265.17 241.643)" fill="#01576c"/>
    <path id="Path-101" data-name="Path" d="M7.832,43.017A33.415,33.415,0,0,0,15.014,60.93C6.682,55.383.989,46.766.117,36.706-1.4,19.279,12.067,3.634,30.86,0c.2,1.851.386,4.089.548,6.588C16.348,13.116,6.474,27.4,7.832,43.017Z" transform="translate(304.487 232.233)" fill="#01576c"/>
    <path id="Path-102" data-name="Path" d="M36,55.421c-1.543-.918-3.055-1.828-4.536-2.715-2.407-8.208-6.681-22.6-8.3-26.939-2.314-6.179,0-14.457,0-14.457a46.757,46.757,0,0,1-14.6-4.822A23.709,23.709,0,0,0,0,3.595C.324,2.314.663,1.1,1,0A57.79,57.79,0,0,1,13.076,3.533a128.41,128.41,0,0,0,15.5,5c-1.088,6.056-1.96,14.388-.2,20.328C29.285,31.923,32.255,42.121,36,55.421Z" transform="translate(256.596 283.242)" fill="#ef7373"/>
    <path id="Path-103" data-name="Path" d="M33.829,4.745c-.116,1.265-.216,2.6-.3,3.965a98.716,98.716,0,0,1-13.493-.34C11.6,7.506,2.245,4.937,0,4.721.2,3.063.455,1.466.717,0,4.806,1.057,9.01,1.975,13.153,2.708c.239.046.478.085.717.131A116.316,116.316,0,0,0,33.829,4.745Z" transform="translate(284.453 291.774)" fill="#ef7373"/>
    <path id="Path-104" data-name="Path" d="M8.481,41.6c-.826-.478-1.658-.964-2.492-1.45C4.453,26.245,2.487,13.632,0,5.608,0,5.608-.013,3.364.033,0c.386.3.779.617,1.18.941a12.193,12.193,0,0,0,.347,7.352C2.987,11.849,7.107,28.814,8.481,41.6Z" transform="translate(317.385 316.539)" fill="#ef7373"/>
    <path id="Path-105" data-name="Path" d="M0,.868S-.186,5.882,4.729,5.689,11.714,0,11.714,0,7.47,2.847,4.729,2.847A8.293,8.293,0,0,1,0,.868Z" transform="translate(268.383 68.11)" fill="#fff"/>
    <path id="Path-106" data-name="Path" d="M8.386,16.1,7,18.229A9.32,9.32,0,0,1,4.421,14.1c-.571-2.939,2.029-5.832,0-7.283C2.461,5.416.139.316,0,0A22.12,22.12,0,0,0,7.684,6.048a29.984,29.984,0,0,0-.6,4.374c-.147,2.484.185,4.482,1.234,5.608Z" transform="translate(245.927 126.69)" fill="#ef7373"/>
    <path id="Path-107" data-name="Path" d="M1.774,0C1.234.162.64.324,0,.486.64.324,1.227.162,1.774,0Z" transform="translate(335.987 142.111)" fill="#ef9292"/>
    <path id="Path-108" data-name="Path" d="M28.151,92.838c-.864,3.356-11.225,6.519-13.115,5.771s-1.813-2.623-1.659-4.328c0,0-1.041.378-1.774.687a15.5,15.5,0,0,1,0-7.4,25.373,25.373,0,0,0,.64-10.283C11.912,74.1,2.716,16.841,0,0A14.333,14.333,0,0,0,8.54,1.388c5.246-.61,6.28-2.538,6.92,1.188s5.578,47.19,5.578,47.19l.008-.023c.116,18.546-1.073,30.164,1.165,32.232C24.718,84.29,29.015,89.489,28.151,92.838Z" transform="translate(325.056 143.53)" fill="#ef9292"/>
    <path id="Path-109" data-name="Path" d="M21.045,52.482l-.008.023S16.1,9.049,15.46,5.315s-1.674-1.8-6.92-1.188A14.333,14.333,0,0,1,0,2.739q1.169.07,2.453.07c.625,0,1.273-.016,1.928-.046.324-.016.656-.031.987-.061.239-.016.478-.031.725-.062.154-.008.309-.023.471-.046.656-.07,1.327-.162,1.99-.278.286-.046.579-.1.872-.162.34-.062.679-.139,1.018-.224.17-.039.331-.085.486-.123.64-.162,1.227-.324,1.774-.486A29.008,29.008,0,0,0,16.316,0c1.18,7.29,4.158,27.325,4.614,45.431Q21.021,49.1,21.045,52.482Z" transform="translate(325.056 140.792)" fill="#ef7373"/>
    <path id="Path-110" data-name="Path" d="M10.469,24.339c-.27.139-7.437,3.881-9.836-1.288C-1.766,17.859,3.418.509,3.572,0c.162,1.589.286,3.178.324,4.528a15.722,15.722,0,0,1-.077,2.453C3.348,10.183,6.835,22.017,10.469,24.339Z" transform="translate(273.02 90.401)" fill="#097a7f"/>
    <path id="Path-111" data-name="Path" d="M10.292,12.32C9.265,18.492,0,15.915,0,15.915,2.453,13.115,4.922,5.825,6.079,0a17.1,17.1,0,0,0,3.31,3.217C10.176,6.573,10.677,9.99,10.292,12.32Z" transform="translate(286.636 98.045)" fill="#097a7f"/>
    <path id="Path-112" data-name="Path" d="M27.917,4.735,3.714,0,0,17.034,23.686,21.57Z" transform="translate(263.554 124.948)" fill="#ff5b35"/>
    <path id="Path-113" data-name="Path" d="M4.231,0,7.544.365,3.693,16.78,0,16.835Z" transform="translate(287.24 129.683)" fill="#d6381e"/>
    <path id="Path-114" data-name="Path" d="M27.518,5.1l-3.31-.363L5.531,1.08,4.605.9,0,0,4.582.848l.926.17Z" transform="translate(267.265 124.946)" fill="#d6381e"/>
    <circle id="Oval-9" data-name="Oval" cx="4.579" cy="4.579" r="4.579" transform="translate(265.516 130.36)" fill="#d6381e"/>
    <circle id="Oval-10" data-name="Oval" cx="4.579" cy="4.579" r="4.579" transform="translate(263.985 130.229)" fill="#e84b36"/>
    <circle id="Oval-11" data-name="Oval" cx="2.864" cy="2.864" r="2.864" transform="translate(265.7 131.944)" fill="#ffc5bb"/>
    <path id="Path-115" data-name="Path" d="M11.519,1.954,1.532,0,0,7.028,9.773,8.9Z" transform="translate(276.19 132.271)" fill="#e84328"/>
    <path id="Path-116" data-name="Path" d="M4.258.749.306,0,0,1.4l3.906.748Z" transform="translate(279.739 135.642)" fill="#ffc5bb"/>
    <path id="Path-117" data-name="Path" d="M3.249,1.52S3.621.327,1.706.045s-1.7.84-1.7.84Z" transform="translate(288.31 127.999)" fill="#ffc5bb"/>
    <path id="Path-118" data-name="Path" d="M3.283.557.436,0,0,2l2.785.533Z" transform="translate(269.657 126.734)" fill="#e84328"/>
    <g id="Group-3" data-name="Group" transform="translate(266.362 92.792)">
      <path id="Path-119" data-name="Path" d="M15.557.247C11.553,10.461.946,24.309.83,24.463L0,24.3C.116,24.151,10.874,10.075,14.84,0,15.071.085,15.31.169,15.557.247Z" transform="translate(21.428 11.865)" fill="#d6381e"/>
      <path id="Path-120" data-name="Path" d="M6.412,33.173,5.486,33A84.7,84.7,0,0,1,1.845,22.55C-.6,13.539-.616,6.573,1.806,1.851A12.917,12.917,0,0,1,2.639.463L3.966,0A11.345,11.345,0,0,0,2.493,2.207C-2.321,11.6,4.429,28.6,6.412,33.173Z" transform="translate(0 0)" fill="#d6381e"/>
    </g>
  </g>
</svg>
