<svg xmlns="http://www.w3.org/2000/svg" width="399.198" height="465.654" viewBox="0 0 399.198 465.654">
  <g id="_33" data-name="33" transform="translate(-5843.402 -505.277)">
    <g id="Grupo_944567" data-name="Grupo 944567" transform="translate(5843.402 505.277)">
      <g id="Grupo_944557" data-name="Grupo 944557" transform="translate(62.542 378.093)">
        <path id="Trazado_681959" data-name="Trazado 681959" d="M6796.854,4453.107l-59.184-14.891a12.608,12.608,0,0,1-9.123-15.257l.826-3.283a12.607,12.607,0,0,1,15.257-9.123l59.183,14.891a12.605,12.605,0,0,1,9.123,15.255l-.826,3.284A12.606,12.606,0,0,1,6796.854,4453.107Z" transform="translate(-6698.377 -4380.753)"/>
        <g id="Grupo_944556" data-name="Grupo 944556">
          <path id="Trazado_681960" data-name="Trazado 681960" d="M6966.9,4497.951c-.636,2.229-1.86,7.962-2.558,10.168,2.465,2.871,9.417,2.063,16.887,4.005,7.893,2.051,10.551,5.532,16.5,5.622.516-2.5,1.954-7.72,2.565-10.192C6988.7,4510.765,6978.439,4510.93,6966.9,4497.951Z" transform="translate(-6909.898 -4459.368)" fill="#6c0075"/>
          <path id="Trazado_681961" data-name="Trazado 681961" d="M6779.613,4530.349c-9.326,1.116-9.247,3.165-10.933,9.507-.206.774,4.054,13.9,5.319,16.229A139.616,139.616,0,0,0,6779.613,4530.349Z" transform="translate(-6734.654 -4488.386)" fill="#cecece"/>
          <path id="Trazado_681962" data-name="Trazado 681962" d="M6939.07,4564.218a116.53,116.53,0,0,1,10.258-27.627,54.611,54.611,0,0,1-9.274-5.564l-.347-.264c-6.406,2.305-12.753,1.174-16.021-4.521-.067,0-1.978-.084-2.045-.085-3.4-.044-6.333-.055-8.916-.03a289.9,289.9,0,0,1-6.695,29.285C6915.649,4562.43,6927.761,4565.885,6939.07,4564.218Z" transform="translate(-6857.677 -4484.592)" fill="#cecece"/>
          <path id="Trazado_681963" data-name="Trazado 681963" d="M6889.3,4773.142c-.637,2.229-1.861,7.961-2.558,10.167,4.228,4.645,30.917,10.64,33.381,9.628.516-2.5,1.954-7.721,2.565-10.193C6911.1,4785.956,6900.839,4786.12,6889.3,4773.142Z" transform="translate(-6840.397 -4705.84)" fill="#cecece"/>
          <path id="Trazado_681964" data-name="Trazado 681964" d="M7310.914,4662.677c-.336-.892-3.623-1.676-8.274-3.252-6.2,8-9.768,17.575-11.709,27.356,3.867-2.613,7.9-7.057,11.481-10.125C7307.766,4668.482,7311.314,4663.74,7310.914,4662.677Z" transform="translate(-7202.408 -4603.991)" fill="#cecece"/>
          <path id="Trazado_681965" data-name="Trazado 681965" d="M7659.421,4414.648a10.72,10.72,0,0,1-5.875,1.249c.231,1.34.465,2.623.7,3.875,2.346-.341,4.751-.756,7.14-1.3C7660.67,4417.113,7660,4415.826,7659.421,4414.648Z" transform="translate(-7527.181 -4384.759)" fill="#2d2d2d"/>
          <path id="Trazado_681966" data-name="Trazado 681966" d="M7385.748,4623.8s-23.823,4.811-33.522,2.7a31.149,31.149,0,0,0-3.062-1.287,54.109,54.109,0,0,0-7.928,12.538c2.517,3.487-1.237,7.59,6.232,6.489,18.174,1.323,39.649-9.147,42.169-11.561.084-.081.172-.179.262-.282l-3.939-9.165C7385.81,4623.61,7385.748,4623.8,7385.748,4623.8Z" transform="translate(-7247.464 -4571.578)" fill="#cecece"/>
          <path id="Trazado_681967" data-name="Trazado 681967" d="M7660.263,4452.586c2.851,18.246.533,16.686,3.778,19.517l11.591,6.293c3.025-4.055-2.255-15.8-8.228-27.11C7665.015,4451.831,7662.61,4452.245,7660.263,4452.586Z" transform="translate(-7533.198 -4417.573)" fill="#cecece"/>
          <path id="Trazado_681968" data-name="Trazado 681968" d="M7213.561,4652.063a73.2,73.2,0,0,1,5.848-17.864c.221-.452.45-.9.682-1.347.183-.351.368-.7.557-1.049.181-.331.365-.658.552-.986.212-.371.432-.738.654-1.1q.372-.615.759-1.222c.281-.438.566-.874.86-1.3.2-.291.4-.579.61-.865q.378-.529.769-1.047c.605-.8,1.228-1.594,1.886-2.365,1.306-.788-9.195-3.429-10.049-1.638-.142.262-.266.529-.405.792l-.012,0c.012,0-2.117,4.31-2.123,4.272,0-.012,0,.025.006.038a124.888,124.888,0,0,0-9.6,30.059C7204.283,4658.266,7214.7,4653.261,7213.561,4652.063Z" transform="translate(-7125.038 -4569.273)" fill="#3a3a3a"/>
          <path id="Trazado_681969" data-name="Trazado 681969" d="M7614.252,4329.449c.043-3.741-4.008-5.684-5.124-5.9-3.973-.783-4.833-.208-4.008,1.294.186.338,3.986,2.083,4.374,6.615q.211,1.294.426,2.534a10.708,10.708,0,0,0,5.875-1.249C7615.19,4331.52,7614.665,4330.41,7614.252,4329.449Z" transform="translate(-7483.554 -4302.85)" fill="#2d2d2d"/>
          <path id="Trazado_681970" data-name="Trazado 681970" d="M6771.928,4130.3c2.317-2.958,6.714-2,7.728-1.485,3.607,1.822,3.918,2.8,2.328,3.473-.357.15-4.433-.812-7.586,2.5q-.979.885-1.928,1.726a11.467,11.467,0,0,1-4.185-4.574C6769.526,4131.353,6771,4130.795,6771.928,4130.3Z" transform="translate(-6734.307 -4128.244)" fill="#2d2d2d"/>
          <path id="Trazado_681971" data-name="Trazado 681971" d="M6818.548,4499.272c-.329-2.725-10.869-4.133-10.212-2.345-.09,1.133-.2,2.259-.322,3.383-.09.838-.194,1.671-.3,2.5-.064.5-.12.993-.188,1.487q-.272,1.948-.6,3.884c-.005.032-.012.063-.015.1-.241,2.6-2.409,10.6-5.573,13.441-2.813.978,8.16,15.9,8.474,13.459A288.122,288.122,0,0,0,6818.548,4499.272Z" transform="translate(-6763.499 -4457.737)" fill="#3a3a3a"/>
          <path id="Trazado_681972" data-name="Trazado 681972" d="M6479.09,4176.515a30.532,30.532,0,0,1-4.144-5.3c-11.28,6.15-32.712,14.706-32.247,23.01,3.669,2.889,9.074-1.724,13.154.947C6462.943,4193.505,6475.179,4179.168,6479.09,4176.515Z" transform="translate(-6442.692 -4166.729)" fill="#cecece"/>
          <path id="Trazado_681973" data-name="Trazado 681973" d="M6454.052,4321.745s.006-.034.015-.092c-4.549,1.628-6.8,6.135-11.3,7.311.859,1.472.6,1.048.6,1.048,6.809,2.766,14.429,2.52,20.253-.883C6458.217,4325.2,6454.052,4321.745,6454.052,4321.745Z" transform="translate(-6442.757 -4301.469)" fill="#cecece"/>
          <path id="Trazado_681974" data-name="Trazado 681974" d="M6468.753,4393.272c-5.825,3.4-13.444,3.65-20.254.883.126.151.25.3.385.458a26.406,26.406,0,0,0,20.883,3.571c1.35-.381,2.816-.783,4.351-1.155C6472.267,4395.791,6470.451,4394.509,6468.753,4393.272Z" transform="translate(-6447.894 -4365.614)" fill="#f4f4f4"/>
          <path id="Trazado_681975" data-name="Trazado 681975" d="M6531.976,4455.487a30.862,30.862,0,0,0-4.5-.625c-12.273,1.977-24.959,1.937-35.155-5,7.429,7.645,19.414,18.027,30.165,22.833,5.312,3.95,4.667.824,7.093-1.406A137.991,137.991,0,0,0,6531.976,4455.487Z" transform="translate(-6487.14 -4416.297)" fill="#cecece"/>
          <path id="Trazado_681976" data-name="Trazado 681976" d="M6490.742,4415.647c-3.627-1.037-8.579-3.922-13.324-7.1-1.535.373-3,.773-4.352,1.155a26.409,26.409,0,0,1-20.882-3.571c1.131,1.328,2.554,2.882,4.189,4.564,10.2,6.938,22.882,6.979,35.154,5C6491.266,4415.678,6491,4415.658,6490.742,4415.647Z" transform="translate(-6451.194 -4377.129)" fill="#f98200"/>
          <path id="Trazado_681977" data-name="Trazado 681977" d="M6758.528,4162.934a24.179,24.179,0,0,1-3.493-4.333,16.949,16.949,0,0,0-3.281,1.316,30.514,30.514,0,0,0,4.144,5.3Z" transform="translate(-6719.5 -4155.432)" fill="#2d2d2d"/>
          <path id="Trazado_681978" data-name="Trazado 681978" d="M6599.507,4440.647c4.868,5.092,11.9,7.571,18.127,11,10.8,5.954,19.977,15.248,32,18.168,6.3,1.53,12.868,1.156,19.3.631q18.524-1.508,36.833-4.56c2.611-.435,5.337-.946,7.369-2.556.876-.694,1.594-1.99.833-2.829a2.371,2.371,0,0,0-1.261-.6c-4.3-.982-8.7.3-13.029.939-13.214,1.955-26.6-2.1-39.665-5.289-19.364-4.728-40.72-7.778-56.918-20.117-1.349-1.028-2.666-1.986-4.278-.936C6596.325,4436.128,6597.907,4438.975,6599.507,4440.647Z" transform="translate(-6581.36 -4402.135)" fill="#fff" opacity="0.2"/>
          <g id="Grupo_944555" data-name="Grupo 944555" transform="translate(55.08 30.053)">
            <path id="Trazado_681979" data-name="Trazado 681979" d="M7026.032,4472.233c-3.671,10.355-12.042,16.847-19,14.388s-9.744-12.887-6.21-23.293,4.144-13.423,11.872-12.062C7022.774,4453.042,7031.483,4456.853,7026.032,4472.233Z" transform="translate(-6996.277 -4447.333)" fill="#ffa888"/>
            <path id="Trazado_681980" data-name="Trazado 681980" d="M6997.452,4418.644c-3.886-1.911-14.343-5.209-21.77,2.09-3.264,3.206-4.595,8.134-5.032,12.809a27.352,27.352,0,0,0,1.7,13.42c3.532,8.057,12.789,11.809,20.5,7.768a20.907,20.907,0,0,0,8.528-7.579C7012.923,4427.485,7000.085,4419.94,6997.452,4418.644Zm1.176,23.181a32.923,32.923,0,0,1-4.016,6.518c-1.159,1.462-2.852,2.938-4.474,2.353-1.318-.477-1.9-2.1-2.925-3.1a3.972,3.972,0,0,0-4.633-.626,7.326,7.326,0,0,1-2.335.894,2.924,2.924,0,0,1-2.765-1.911,21.37,21.37,0,0,1-1.425-10.533c1.016-3.681,7.547-2.844,10.024-2.457a26.761,26.761,0,0,1,11.761,5.07,2.963,2.963,0,0,1,1.251,1.6A3.557,3.557,0,0,1,6998.628,4441.825Z" transform="translate(-6970.484 -4416.221)" fill="#383838"/>
            <path id="Trazado_681981" data-name="Trazado 681981" d="M7020.966,4430.2a14.169,14.169,0,0,0-4.338-1.039,21.762,21.762,0,0,0-10.465.994,12.564,12.564,0,0,0-7.468,7.646c-.24.777-.329,1.775.28,2.243a1.641,1.641,0,0,0,.775.273,7.454,7.454,0,0,0,3.455-.367,17.737,17.737,0,0,1,4.7-.765,37.237,37.237,0,0,1,4.721-.011c3.1.216,6.227.967,9.3.289a4.707,4.707,0,0,0,3.471-2.417,4.186,4.186,0,0,0-.531-3.882,8.455,8.455,0,0,0-1.941-1.958,6.293,6.293,0,0,0-1.956-1.006Z" transform="translate(-6995.587 -4427.619)" fill="#fff" opacity="0.14"/>
            <path id="Trazado_681982" data-name="Trazado 681982" d="M7076.211,4433.7a1.57,1.57,0,0,0-.653.577.7.7,0,0,0,.064.826.864.864,0,0,0,.487.175c.827.107,6.87-.2,6.1-1.922-.227-.511-1.862-.562-2.449-.526A8.26,8.26,0,0,0,7076.211,4433.7Z" transform="translate(-7064.501 -4431.092)" fill="#fff"/>
          </g>
          <path id="Trazado_681983" data-name="Trazado 681983" d="M7361.643,4681.263c1.351.34-.348.787-.839.856-2.865.408-14.056.961-16.081-1.071C7343.7,4678.93,7358.268,4680.672,7361.643,4681.263Z" transform="translate(-7250.541 -4622.443)" fill="#fefffc"/>
          <path id="Trazado_681984" data-name="Trazado 681984" d="M7585.6,4674.437a.426.426,0,0,0-.152.222c-.046.229.231.4.466.466a4.569,4.569,0,0,0,2.588.009,2.15,2.15,0,0,0,.993-.555.538.538,0,0,0,.15-.6.687.687,0,0,0-.564-.259A5.414,5.414,0,0,0,7585.6,4674.437Z" transform="translate(-7466.187 -4616.769)" fill="#fefffc"/>
        </g>
      </g>
      <path id="Trazado_681985" data-name="Trazado 681985" d="M7098.054,4419.543c-.012.024-.027.043-.039.066.011-.023.021-.046.03-.071Z" transform="translate(-6967.084 -4011.045)" fill="#ffa373"/>
      <g id="Grupo_944558" data-name="Grupo 944558" transform="translate(163.585 337.452)">
        <rect id="Rectángulo_337333" data-name="Rectángulo 337333" width="117.965" height="1.65" transform="matrix(0.607, -0.795, 0.795, 0.607, 0, 93.778)" fill="#2d2d2d"/>
      </g>
      <g id="Grupo_944559" data-name="Grupo 944559" transform="translate(98.447 313.715)">
        <rect id="Rectángulo_337334" data-name="Rectángulo 337334" width="1.65" height="98.724" transform="translate(0 0.221) rotate(-7.709)" fill="#2d2d2d"/>
      </g>
      <g id="Grupo_944562" data-name="Grupo 944562" transform="translate(0 0)">
        <g id="Grupo_944560" data-name="Grupo 944560">
          <path id="Trazado_681986" data-name="Trazado 681986" d="M6413.653,1532.787a.627.627,0,0,0,.6-.121l.024.011a3.984,3.984,0,0,0,1.075.238,3.579,3.579,0,0,0,1.254-.127c7.636-1.739,19.425-14.588,20.525-52.746-.284-18.853-4.882-44.008-21.348-71.848-16.491-27.4-44.85-57.483-93.279-76.033a165.845,165.845,0,0,0-94.776-6.958,143.9,143.9,0,0,0-69.094,36.946c-33.419,33.547-36.729,68.9-28.423,75.124a5.017,5.017,0,0,0,.483.428c0,.012.011.006.011.006s.029.017.042.028a.758.758,0,0,0,.4.26c.015.008.026.019.04.027s.024.009.035.014c3.152,2.4,12.044,2.091,27.79-8.115,9.589-6.117,19.788-14.758,26.385-20.417a5.007,5.007,0,0,0,1.159.455c4.1,1.053,12.211-.617,20.692-2.823,9.034-2.484,18.741-5.528,24.722-8.511.061.042.126.083.19.124,3.506,2.213,11.3,3.217,19.22,3.564,7.931.247,16.372-.173,21.38-1.69.056.046.115.092.172.138,4.26,3.338,12.642,6.7,20.929,9.119,16.059,4.9,22.394,3.982,22.509,3.759.02.025.044.051.064.076,3.257,4.022,10.06,9.023,16.85,13.29,6.844,4.183,14.015,7.809,18.3,8.066.092,0,.186.01.276.011,3.267,5.8,9.7,13.8,15.935,21.006,6.5,7.3,13.049,13.963,17.1,14.556.021,0,.042.008.063.01,2.276,8.308,6.771,20.614,10.652,31.7C6400.04,1513.605,6404.991,1529.82,6413.653,1532.787Z" transform="translate(-6096.838 -1236.129)" fill="#ef9e11"/>
          <path id="Trazado_681987" data-name="Trazado 681987" d="M6933,649.793c16.572,2.594,34.088-1.538,46.967-7.6,2.193-30.806,12.036-68.377,70.7-79.672q-7.017-2.029-14.064-3.595c-43.071-.9-72.67,12.734-90.764,29.03-18.282,16.631-25.057,35.927-26.843,54.1C6919.449,646.336,6925.35,649.018,6933,649.793Z" transform="translate(-6806.75 -553.293)" fill="#fff"/>
          <path id="Trazado_681988" data-name="Trazado 681988" d="M6976.492,1356c-12.878,6.058-30.4,10.19-46.967,7.6-7.653-.775-13.553-3.457-14-7.733a108.937,108.937,0,0,0,.257,21.309c14.515-10.367,35.675-15.856,60.3-9.387C6976.115,1363.889,6976.239,1359.953,6976.492,1356Z" transform="translate(-6803.273 -1267.096)" fill="#f2f2f2"/>
          <path id="Trazado_681989" data-name="Trazado 681989" d="M6444.13,633.165c11.286-2.53,22.932-8.43,29.341-15.048-.482-19.855,3.5-41.473,21.133-60.986,17.4-19.022,48.452-35.938,96.813-35.056a234.32,234.32,0,0,0-26.265-4.336c-48.417,1.978-85.9,20.282-109.308,42.223-23.743,22.155-33.41,47.947-33.909,69.847C6425.174,634.542,6433.836,635.381,6444.13,633.165Z" transform="translate(-6361.56 -516.438)" fill="#ffad1d"/>
          <path id="Trazado_681990" data-name="Trazado 681990" d="M6443.983,1494.631c-10.294,2.216-18.957,1.376-22.2-3.357a79.11,79.11,0,0,0,3.816,26.063c5.092-14.491,34.758-29.406,48.316-29.357q-.441-4.148-.594-8.4C6466.916,1486.2,6455.269,1492.1,6443.983,1494.631Z" transform="translate(-6361.412 -1377.904)" fill="#ffa10b"/>
          <path id="Trazado_681991" data-name="Trazado 681991" d="M5942.182,2108.224a17.682,17.682,0,0,1-7.561-2.729,60.581,60.581,0,0,0,23.729,21.829l.126-.206c-3.183-3.169-5.893-13,6.119-30a63.586,63.586,0,0,1-4.16-5.607c-.451,1.589-.952,3.212-1.44,4.844C5956.364,2104.1,5947.847,2106.7,5942.182,2108.224Z" transform="translate(-5925.102 -1925.973)" fill="#ffa10b"/>
          <path id="Trazado_681992" data-name="Trazado 681992" d="M6011.269,508.067c-68.582,2.5-121.412,39.18-146.735,77.7-26.429,38.994-25.35,79.826-11.612,101.529a17.686,17.686,0,0,0,7.561,2.729c5.665-1.521,14.181-4.127,16.814-11.867.488-1.632.989-3.255,1.44-4.844-13.895-20.2-16.287-54.639,5.294-89.3C5904.8,549.9,5949.549,515.564,6011.269,508.067Z" transform="translate(-5843.402 -507.776)" fill="#ffad1d"/>
          <path id="Trazado_681993" data-name="Trazado 681993" d="M6258.511,506.577a227,227,0,0,0-35.726-1.009c-51.566,6.512-92.077,31.563-115.533,59.675-23.945,28.27-30.838,59.6-26.447,82.323,2.423,5.336,6.626,8.442,14.536,7.2,8.608-.115,17.728-10.009,21.6-18.278-4.71-22.788.188-51.789,23.153-78.214C6162.574,532.256,6203.12,508.817,6258.511,506.577Z" transform="translate(-6054.918 -505.277)" fill="#fff"/>
          <path id="Trazado_681994" data-name="Trazado 681994" d="M6106,1780.837c-7.91,1.244-12.112-1.862-14.535-7.2a62.458,62.458,0,0,0,13.605,28.857c.656-11.336,13.162-24.719,24.7-31.713a79.965,79.965,0,0,1-2.17-8.223C6123.733,1770.828,6114.613,1780.722,6106,1780.837Z" transform="translate(-6065.582 -1631.349)" fill="#f2f2f2"/>
          <path id="Trazado_681995" data-name="Trazado 681995" d="M7562.161,689.562c9.4,1.323,18.327,2.325,24.988.287,10.034-27.215,18.879-56.511,2.869-92.064q-5.842-2.049-11.821-3.812c-.275-.081-.55-.157-.826-.237-55.549,10.51-67.311,45.208-70.3,74.55C7519.843,678.36,7541.574,685.577,7562.161,689.562Z" transform="translate(-7333.449 -584.504)" fill="#ffad1d"/>
          <path id="Trazado_681996" data-name="Trazado 681996" d="M7580.173,1329.652c-6.661,2.038-15.588,1.036-24.987-.287-20.587-3.985-42.317-11.2-55.091-21.277-.546,5.674-.764,11.331-.813,16.908,24.526-5.371,55.942,3.047,74.831,19.686C7576.2,1339.71,7578.241,1334.706,7580.173,1329.652Z" transform="translate(-7326.474 -1224.307)" fill="#ffa10b"/>
          <path id="Trazado_681997" data-name="Trazado 681997" d="M8292.232,758.2c10.112,4.99,20.014,4.117,24.368-1.9q.747-1.427,1.436-2.9a11.327,11.327,0,0,0,.383-1.548,11.321,11.321,0,0,1-.383,1.548c13.179-27.084,9.508-73.693-41.4-116.415q-5.757-2.367-11.678-4.453c16.676,37.183,6.426,67.463-4.3,95.773C8262.48,738.968,8275.856,749.77,8292.232,758.2Z" transform="translate(-8008.396 -619.253)" fill="#fff"/>
          <path id="Trazado_681998" data-name="Trazado 681998" d="M8276.888,1578.248c-4.355,6.021-14.256,6.893-24.368,1.9-16.376-8.434-29.751-19.236-31.57-29.9q-2.247,5.695-4.628,11.322a81.091,81.091,0,0,1,46.553,35.471A76.4,76.4,0,0,0,8276.888,1578.248Z" transform="translate(-7968.684 -1441.2)" fill="#f2f2f2"/>
          <path id="Trazado_681999" data-name="Trazado 681999" d="M8649.6,889.732c9.1-35.6-9.987-92.279-64.18-135.228q-4.062-2.27-8.244-4.4c45.239,32.338,66,75.848,68.72,108.624,3.025,33.587-12,56.44-31.267,66.185.447.842.874,1.672,1.294,2.507a34.093,34.093,0,0,1,4.812,7.013C8634.116,925.167,8646.021,911.869,8649.6,889.732Z" transform="translate(-8291.877 -724.558)" fill="#f2f2f2"/>
          <path id="Trazado_682000" data-name="Trazado 682000" d="M8724.912,995.284c13.453-17.74,21.45-47.435,15.489-82.005-5.632-34.337-25.225-73.549-59.34-104.953a229.693,229.693,0,0,0-24.9-16.1c54.192,42.95,73.275,99.625,64.18,135.228-3.583,22.142-16.08,35.325-29.445,44.612,4.945,9,7.782,20.436,13.251,25.787C8711.816,1007.165,8723.165,1003.079,8724.912,995.284Z" transform="translate(-8362.618 -762.277)" fill="#fff"/>
          <path id="Trazado_682001" data-name="Trazado 682001" d="M8957.774,2500.176c10.917-3.343,20.9-10.184,28.931-20.841-7.915,6.584-17.064,1.9-23.3-4.719-6.192-6.865-9.473-15.654-4.66-23.055-8.169-5.182-2.212,6.745-10.289-2.365C8956.806,2466.026,8960.7,2481.512,8957.774,2500.176Z" transform="translate(-8624.413 -2246.329)" fill="#f2f2f2"/>
          <path id="Trazado_682002" data-name="Trazado 682002" d="M8952.352,1207.741c23.709-12.492,46.931-47.766,46.167-95.449-.034-46.809-24.055-106.028-78.058-146.211,47.49,42.2,64.463,96.068,61.94,136.276-2.226,41.114-23.947,68.564-46.934,78.845-.375,5.359-3.455,14.606-1.2,18.2C8938.358,1207.547,8946.941,1207.329,8952.352,1207.741Z" transform="translate(-8599.339 -917.991)" fill="#ffad1d"/>
          <path id="Trazado_682003" data-name="Trazado 682003" d="M8897.479,948.567c-.893-.684-1.77-1.367-2.678-2.041,43.2,39.157,61.9,90.618,61.271,129.807-.139,39.927-19.618,67.583-41.4,76.185a54.668,54.668,0,0,0-2.185,11.171c22.986-10.282,44.706-37.732,46.931-78.845C8961.941,1044.635,8944.97,990.764,8897.479,948.567Z" transform="translate(-8576.358 -900.477)" fill="#ffa10b"/>
          <path id="Trazado_682004" data-name="Trazado 682004" d="M8507.518,853.659c-8.651-.1-19.4-10.707-26.765-21.344,12.931-13.164,21.45-33.125,18.278-58.789-3.066-25.292-17.821-56.287-49.009-82.937,4.488,1.938,8.948,4.018,13.265,6.212,65.605,47.724,78.841,114.17,63.294,146.744a58.591,58.591,0,0,1-4.5,8.541C8518.333,854.689,8512.939,854.547,8507.518,853.659Z" transform="translate(-8177.995 -671.25)" fill="#ffad1d"/>
          <path id="Trazado_682005" data-name="Trazado 682005" d="M8940.607,2958.089c-5.6-.992-26.132-7.51-14.675-27.595-4.622-5.517,3.413-6.914-.023-10.115-1.627.678-3.276,1.291-4.954,1.807,1.7,28.586-8.132,41.622-13.591,42.812-.006.069-.011.137-.017.206A60.23,60.23,0,0,0,8940.607,2958.089Z" transform="translate(-8587.594 -2668.339)" fill="#ffa10b"/>
          <path id="Trazado_682006" data-name="Trazado 682006" d="M8712.295,1991.031c-4.521,2.415-27.811,6.214-39.492-21.729,7.962-15.966-1.373,6.9-6.837-7.065-1.159,1.3-2.343,2.576-3.574,3.8,12.092,9.561,25.181,23.906,28.56,44.513A54.473,54.473,0,0,0,8712.295,1991.031Z" transform="translate(-8368.202 -1810.189)" fill="#ffa10b"/>
          <path id="Trazado_682007" data-name="Trazado 682007" d="M8417.558,676.807c-1.255-.541-2.5-1.08-3.771-1.6,31.473,25.876,44.892,54.709,47.435,78.2,2.54,23.861-5.8,42.382-17.914,56.112a52.773,52.773,0,0,0,4.989,9.022c12.929-13.167,21.447-33.131,18.275-58.8C8463.506,734.452,8448.749,703.456,8417.558,676.807Z" transform="translate(-8145.542 -657.473)" fill="#ffa10b"/>
        </g>
        <g id="Grupo_944561" data-name="Grupo 944561" transform="translate(15.657 7.351)">
          <path id="Trazado_682008" data-name="Trazado 682008" d="M6274.357,694.279c11.579,9.514,22.061,20.394,32.795,30.713,10.807,10.23,22.254,20.525,31.515,23.167,7.747,2.173,13.194-2.008,15.29-9.923,2.1-7.861.937-18.975-2-30.327-6.608-26.258-23.454-56.212-50.7-80.574-26.9-24.442-64.193-43.292-103.586-49.215a208.159,208.159,0,0,0-85.793,4.865c-43.423,11.327-79.26,36.149-99.04,64-20.206,27.944-23.851,56.781-14.572,72.79,10.421,17.735,26.484-16.145,42.416-28.989a158.169,158.169,0,0,1,72.187-36.871C6167.81,641.362,6230.12,657.446,6274.357,694.279Z" transform="translate(-5993.426 -575.719)" fill="#fff" opacity="0.35"/>
          <path id="Trazado_682009" data-name="Trazado 682009" d="M7054.014,675.7c-3.588,1.812-6.988,3.981-7.284,6.533-.091.768.24,1.655,1.633,2.111a18,18,0,0,0,7.935-.082c11.858-3.281,21.535-7.578,36.49-11.78,5.7-1.833,23.766-6.659,19.6-6.9C7089.009,663.646,7068.239,668.417,7054.014,675.7Z" transform="translate(-6936.794 -655.816)" fill="#fff"/>
          <path id="Trazado_682010" data-name="Trazado 682010" d="M6743.59,963.11c-1.489,1.418-2.85,2.967-2.448,4.356s3.2,2.477,6.287,2.022a11.423,11.423,0,0,0,5.325-2.394c2.672-2.207,14.518-10.257,9.407-12.112C6754.771,952.324,6745.369,961.239,6743.59,963.11Z" transform="translate(-6663.047 -914.962)" fill="#fff"/>
        </g>
      </g>
      <g id="Grupo_944563" data-name="Grupo 944563" transform="translate(234.496 234.34)">
        <path id="Trazado_682011" data-name="Trazado 682011" d="M8090.393,2856.058l53.258-105.285.736.372-51.377,101.567,95.978-82.745.539.625Z" transform="translate(-8090.393 -2750.773)" fill="#2d2d2d"/>
      </g>
      <g id="Grupo_944564" data-name="Grupo 944564" transform="translate(235.618 296.298)">
        <rect id="Rectángulo_337335" data-name="Rectángulo 337335" width="93.57" height="0.825" transform="translate(0 41.276) rotate(-26.176)" fill="#2d2d2d"/>
      </g>
      <g id="Grupo_944565" data-name="Grupo 944565" transform="translate(39.114 170.987)">
        <path id="Trazado_682012" data-name="Trazado 682012" d="M6278.953,2289.059,6218.2,2144.026l.761-.319,58.785,140.326-10.516-137.906.823-.063Z" transform="translate(-6218.197 -2143.707)" fill="#2d2d2d"/>
      </g>
      <g id="Grupo_944566" data-name="Grupo 944566" transform="translate(33.019 200.937)">
        <rect id="Rectángulo_337336" data-name="Rectángulo 337336" width="0.825" height="130.531" transform="matrix(0.863, -0.505, 0.505, 0.863, 0, 0.417)" fill="#2d2d2d"/>
      </g>
    </g>
  </g>
</svg>
