<svg xmlns="http://www.w3.org/2000/svg" width="295" height="279.818" viewBox="0 0 295 279.818">
  <g id="_34" data-name="34" transform="translate(-742.815 -258.078)">
    <g id="Grupo_944741" data-name="Grupo 944741" transform="translate(744.052 261.419)">
      <g id="Grupo_944738" data-name="Grupo 944738" transform="translate(0)">
        <path id="Trazado_683075" data-name="Trazado 683075" d="M1092.53,478.456c-.025.577-.055,1.159-.089,1.74v0c-.06,1.069-.13,2.143-.209,3.232-.039.547-.08,1.089-.124,1.641q-.156,2.081-.368,4.206c-.04.438-.085.88-.13,1.318-.06.6-.124,1.188-.189,1.79s-.134,1.193-.2,1.795c-.05.432-.1.865-.159,1.3-.045.4-.1.806-.149,1.208-.045.373-.094.751-.149,1.129-.054.447-.119.895-.179,1.342l-.179,1.243q-.216,1.558-.472,3.137-.127.835-.269,1.67c-.1.632-.209,1.268-.323,1.9-.094.542-.189,1.084-.288,1.626q-.358,2.028-.77,4.072c-.08.417-.164.83-.254,1.248-.3,1.5-.626,3.013-.969,4.524q-.217.969-.443,1.938c-.3,1.293-.616,2.6-.949,3.9-.159.626-.318,1.252-.482,1.884-.194.751-.4,1.5-.6,2.252-.15.542-.3,1.089-.452,1.631-.02.074-.04.144-.059.219-.174.621-.353,1.238-.537,1.859-.149.517-.3,1.029-.458,1.546-.1.368-.214.736-.328,1.1-.149.487-.3.969-.452,1.452-.184.607-.377,1.218-.577,1.825q-.276.865-.566,1.73-.694,2.1-1.442,4.206-.351.992-.716,1.979c-.239.661-.487,1.322-.736,1.979s-.5,1.322-.76,1.979a1.372,1.372,0,0,1-.05.135c-.427,1.094-.865,2.182-1.312,3.276q-1.252,3.057-2.625,6.1c-.214.478-.428.955-.651,1.432-.085.184-.169.373-.254.557-.209.447-.422.9-.636,1.347-.219.467-.438.93-.662,1.387-.2.422-.408.85-.621,1.272-.274.567-.552,1.124-.836,1.68-.243.482-.487.964-.735,1.442-.06.114-.115.229-.174.338-.224.438-.452.875-.686,1.307-.115.229-.234.452-.358.676-.239.447-.478.894-.721,1.342-.065.124-.134.248-.2.368-.263.493-.537.984-.815,1.476s-.551.99-.84,1.487c-.234.423-.477.84-.726,1.263q-1.26,2.17-2.59,4.315c-.378.612-.76,1.228-1.154,1.835-.3.472-.6.944-.91,1.412-.582.9-1.173,1.79-1.775,2.675-.646.955-1.3,1.9-1.969,2.843q-1.409,2-2.888,3.962c-.328.438-.661.875-.994,1.307-.1.139-.208.274-.318.413v.005c-.159.208-.324.417-.482.621q-.5.641-1.014,1.283c-.09.119-.184.238-.279.353-.388.487-.78.969-1.173,1.452-.537.656-1.074,1.3-1.62,1.949a160,160,0,0,1-51.162,40.14h-.005c-.567.288-1.133.566-1.705.84a174.982,174.982,0,0,1-17.271,7.293l-.005.005a203.49,203.49,0,0,1-31.32,8.526q-6.719,1.282-13.4,1.984a135.935,135.935,0,0,1-40.921-1.665c-.089-.016-.174-.035-.258-.05a113.506,113.506,0,0,1-16.068-4.5,104.474,104.474,0,0,1-19.3-9.287,102.553,102.553,0,0,1-27.378-24.7,112.516,112.516,0,0,1-6.682-9.63A154.956,154.956,0,0,1,802.8,563.688c-5.887-25.618-5.186-52.822,4.365-77.322.089-.224.174-.447.263-.671a104.06,104.06,0,0,1,8.809-17.365c.095-.154.194-.3.293-.452a92.5,92.5,0,0,1,26.041-26.792c25.38-17.266,58.684-21.845,91.944-16.158,40.448,6.925,45.9-26.861,73.156-37.2.944-.368,1.909-.7,2.908-.994a55.167,55.167,0,0,1,17.893-2.193,62.464,62.464,0,0,1,13.428,1.979,65.345,65.345,0,0,1,31.142,18.435c8.4,8.914,14.8,20.736,17.579,35.472C1092.346,449.531,1093.306,462.826,1092.53,478.456Z" transform="translate(-799.04 -384.496)" fill="#f2f0e1"/>
      </g>
      <g id="Grupo_944739" data-name="Grupo 944739" transform="translate(208.636)">
        <path id="Trazado_683076" data-name="Trazado 683076" d="M1248.209,478.456c-.025.577-.055,1.159-.089,1.74v0c-.06,1.069-.13,2.143-.209,3.232-.04.547-.08,1.089-.124,1.641q-.157,2.081-.368,4.206c-.04.438-.085.88-.13,1.318-.059.6-.124,1.188-.189,1.79s-.134,1.193-.2,1.795c-.05.432-.1.865-.159,1.3-.045.4-.1.806-.149,1.208-.045.373-.094.751-.15,1.129-.054.447-.119.895-.178,1.342-.06.413-.119.826-.179,1.243q-.216,1.558-.472,3.137-.127.835-.269,1.67c-.1.632-.209,1.268-.323,1.9-.094.542-.189,1.084-.288,1.626q-.358,2.028-.77,4.072c-.08.417-.164.83-.254,1.248-.3,1.5-.626,3.013-.97,4.524-.144.646-.293,1.293-.443,1.938-.3,1.293-.616,2.6-.949,3.9-.16.626-.318,1.252-.482,1.884-.194.751-.4,1.5-.6,2.252-.15.542-.3,1.089-.453,1.631-.02.074-.04.144-.059.219-.174.621-.353,1.238-.537,1.859-.149.517-.3,1.029-.458,1.546-.1.368-.214.736-.328,1.1-.149.487-.3.969-.452,1.452-.184.607-.377,1.218-.577,1.825q-.276.865-.566,1.73-.694,2.1-1.442,4.206-.35.992-.716,1.979c-.239.661-.487,1.322-.736,1.979s-.5,1.322-.761,1.979c-.015.045-.03.09-.05.135-.427,1.094-.865,2.182-1.312,3.276q-1.253,3.057-2.625,6.1c-.214.478-.428.955-.651,1.432-.085.184-.17.373-.254.557-.209.447-.422.9-.636,1.347-.219.467-.437.93-.661,1.387-.2.422-.408.85-.621,1.272-.274.567-.552,1.124-.836,1.68-.244.482-.487.964-.735,1.442-.06.114-.114.229-.174.338-.224.438-.453.875-.686,1.307-.114.229-.234.452-.358.676-.239.447-.478.894-.721,1.342-.065.124-.134.248-.2.368-.263.493-.537.984-.815,1.476s-.552.99-.84,1.487c-.234.423-.477.84-.726,1.263q-1.26,2.17-2.59,4.315c-.378.612-.761,1.228-1.153,1.835-.3.472-.6.944-.91,1.412-.582.9-1.174,1.79-1.775,2.675-.647.955-1.3,1.9-1.969,2.843q-1.41,2-2.889,3.962c-.328.438-.661.875-.994,1.307-.1.139-.208.274-.318.413l-3.908-74.394-5.185-98.79-35.223-34.8c.944-.368,1.909-.7,2.908-.994a55.166,55.166,0,0,1,17.893-2.193l13.428,12.136V386.517a65.344,65.344,0,0,1,31.142,18.435Z" transform="translate(-1163.355 -384.496)" fill="#d6d3c4"/>
      </g>
      <g id="Grupo_944740" data-name="Grupo 944740" transform="translate(3.764 56.589)">
        <path id="Trazado_683077" data-name="Trazado 683077" d="M876.943,584.192c-1.68-.323-14.059,27.349-21.591,44.585l3.466,58.1a102.555,102.555,0,0,1-27.378-24.7,112.538,112.538,0,0,1-6.682-9.63,154.959,154.959,0,0,1-19.145-46.633l9.679-69.572-5.315-7.751c.089-.224.174-.447.263-.671a104.048,104.048,0,0,1,8.81-17.365l.164.219.129-.671a92.5,92.5,0,0,1,26.041-26.792l7.7,112.417L873.9,565.882S879.385,584.665,876.943,584.192Z" transform="translate(-805.612 -483.31)" fill="#d6d3c4"/>
      </g>
    </g>
    <g id="Grupo_944742" data-name="Grupo 944742" transform="translate(820.321 496.322)">
      <path id="Trazado_683078" data-name="Trazado 683078" d="M1034.184,794.678V824.93a203.482,203.482,0,0,1-31.32,8.526q-6.719,1.282-13.4,1.984a135.933,135.933,0,0,1-40.921-1.665c-.089-.016-.174-.035-.258-.05a113.5,113.5,0,0,1-16.068-4.5l8-34.542Z" transform="translate(-932.218 -794.678)" fill="#083fa4"/>
    </g>
    <g id="Grupo_944743" data-name="Grupo 944743" transform="translate(845.438 347.773)">
      <path id="Trazado_683079" data-name="Trazado 683079" d="M1082.1,556.383v92.553a21.074,21.074,0,0,1-18.159,20.894c-.015,0-.03,0-.048,0a20.683,20.683,0,0,1-2.886.2H997.175c-.685,0-1.358-.033-2.024-.1a21.1,21.1,0,0,1-19.073-21V556.383a21.1,21.1,0,0,1,21.1-21.1h63.832a20.671,20.671,0,0,1,2.4.137,21.126,21.126,0,0,1,16.22,11.046,20.629,20.629,0,0,1,1.684,4.186c.118.411.222.825.31,1.247.011.052.022.108.033.163.06.274.111.551.156.829A21.324,21.324,0,0,1,1082.1,556.383Z" transform="translate(-976.078 -535.286)" fill="#083fa4"/>
    </g>
    <g id="Grupo_944745" data-name="Grupo 944745" transform="translate(850.471 347.677)" opacity="0.4" style="mix-blend-mode: color-burn;isolation: isolate">
      <g id="Grupo_944744" data-name="Grupo 944744" transform="translate(0)">
        <path id="Trazado_683080" data-name="Trazado 683080" d="M1085.568,546.109v103.8a19.945,19.945,0,0,1-17.87,19.85c-.015,0-.03,0-.048,0a19.52,19.52,0,0,1-2.039.1h-66.7a21.027,21.027,0,0,1-14.04-7.327h75.064a10.986,10.986,0,0,0,10.988-10.987V538.781a10.935,10.935,0,0,0-.352-2.76c-.081-.307-.174-.607-.277-.9h4.292a11,11,0,0,1,10.484,7.693A11.019,11.019,0,0,1,1085.568,546.109Z" transform="translate(-984.866 -535.118)" fill="#f09dd3"/>
      </g>
    </g>
    <g id="Grupo_944746" data-name="Grupo 944746" transform="translate(819.8 330.617)">
      <rect id="Rectángulo_337356" data-name="Rectángulo 337356" width="135.903" height="38.94" rx="19.47" transform="translate(0 0)" fill="#002675"/>
    </g>
    <g id="Grupo_944747" data-name="Grupo 944747" transform="translate(921.32 329.968)" opacity="0.2" style="mix-blend-mode: color-burn;isolation: isolate">
      <path id="Trazado_683081" data-name="Trazado 683081" d="M1126.192,544.626a17.632,17.632,0,0,1-17.612-17.612v-5.205a17.613,17.613,0,1,1,35.225,0v5.205A17.632,17.632,0,0,1,1126.192,544.626Zm0-38.939a16.141,16.141,0,0,0-16.122,16.122v5.205a16.122,16.122,0,0,0,32.244,0v-5.205A16.141,16.141,0,0,0,1126.192,505.686Z" transform="translate(-1108.58 -504.195)" fill="#00446d"/>
    </g>
    <g id="Grupo_944748" data-name="Grupo 944748" transform="translate(784.078 336.238)">
      <path id="Trazado_683082" data-name="Trazado 683082" d="M900.75,575.8l-3.977,2.983-10.938-63.636-16.9,2.485s0,81.036,6.463,97.94,48.224-16.9,48.224-16.9Z" transform="translate(-868.932 -515.144)" fill="#faba81"/>
    </g>
    <g id="Grupo_944749" data-name="Grupo 944749" transform="translate(922.065 330.521)">
      <path id="Trazado_683083" data-name="Trazado 683083" d="M1126.748,505.16h0a16.867,16.867,0,0,0-16.867,16.868v5.2a16.867,16.867,0,0,0,16.867,16.868h0a16.868,16.868,0,0,0,16.868-16.868v-5.2A16.868,16.868,0,0,0,1126.748,505.16Z" transform="translate(-1109.881 -505.16)" fill="#083fa4"/>
    </g>
    <g id="Grupo_944751" data-name="Grupo 944751" transform="translate(926.741 336.111)" opacity="0.4" style="mix-blend-mode: color-burn;isolation: isolate">
      <g id="Grupo_944750" data-name="Grupo 944750" transform="translate(0 0)">
        <path id="Trazado_683084" data-name="Trazado 683084" d="M1130.237,514.922h0a12.191,12.191,0,0,0-12.191,12.191v3.762a12.191,12.191,0,0,0,12.191,12.191h0a12.191,12.191,0,0,0,12.191-12.191v-3.762A12.191,12.191,0,0,0,1130.237,514.922Z" transform="translate(-1118.046 -514.922)" fill="#f09dd3"/>
      </g>
    </g>
    <g id="Grupo_944752" data-name="Grupo 944752" transform="translate(932.644 343.051)">
      <path id="Trazado_683085" data-name="Trazado 683085" d="M1134.45,527.04h0a6.1,6.1,0,0,0-6.1,6.1v1.881a6.1,6.1,0,0,0,6.1,6.1h0a6.1,6.1,0,0,0,6.1-6.1v-1.881A6.1,6.1,0,0,0,1134.45,527.04Z" transform="translate(-1128.354 -527.04)" fill="#083fa4"/>
    </g>
    <g id="Grupo_944753" data-name="Grupo 944753" transform="translate(828.282 357.605)">
      <path id="Trazado_683086" data-name="Trazado 683086" d="M1040.294,566l-.164,122.309v.005l-.005,2.859s-2.789,1.556-7.536,3.624c-16.56,7.224-56.949,20.717-85.928-3.624,0,0-.2-2.729-.363-7.527-.124-3.942-.223-9.287-.154-15.665.289-26.165,3.421-69.746,18.911-105.571,0,0,.174-.095.493-.263,1.357-.726,5.315-2.814,9.133-4.648a49.888,49.888,0,0,1,7.278-3.043l26.349-1.988a38.416,38.416,0,0,1,11.936,1.854h.005a49.564,49.564,0,0,1,9.162,3.828A52.91,52.91,0,0,1,1040.294,566Z" transform="translate(-946.12 -552.455)" fill="#6ab8d8"/>
    </g>
    <g id="Grupo_944754" data-name="Grupo 944754" transform="translate(856.166 399.377)">
      <rect id="Rectángulo_337357" data-name="Rectángulo 337357" width="38.281" height="6.96" transform="translate(0 0)" fill="#083fa4"/>
    </g>
    <g id="Grupo_944755" data-name="Grupo 944755" transform="translate(871.578 399.377)">
      <rect id="Rectángulo_337358" data-name="Rectángulo 337358" width="7.954" height="6.96" transform="translate(0 0)" fill="#002675"/>
    </g>
    <g id="Grupo_944756" data-name="Grupo 944756" transform="translate(841.997 308.767)">
      <path id="Trazado_683087" data-name="Trazado 683087" d="M970.069,482.034v-14.86l7.061,1.421a5.72,5.72,0,0,1,4.427,4.16h0a5.783,5.783,0,0,1,.058,2.732l-.153.688a5.771,5.771,0,0,1-4.427,4.383ZM971.56,469v11.2l5.166-1.095a4.276,4.276,0,0,0,3.279-3.248l.153-.687a4.3,4.3,0,0,0-.043-2.024h0a4.239,4.239,0,0,0-3.28-3.083Z" transform="translate(-970.069 -467.174)" fill="#00446d"/>
    </g>
    <g id="Grupo_944757" data-name="Grupo 944757" transform="translate(922.292 426.223)">
      <path id="Trazado_683088" data-name="Trazado 683088" d="M1129.021,725.672c-.01.075-.015.149-.02.229-.532,7.065-1.283,14.726-2.322,22.934,0,1,.01,1.984.025,2.938.1,5.359.463,9.983.845,13.553a175,175,0,0,1-17.271,7.293l.074-44.048v-.095l.01-7.328.065-38.291.015-8.511,14.064-1.556,4.659-.517s.034.278.089.825c-.005,0,0,.005,0,.005.094.979.258,2.819.423,5.453A351.636,351.636,0,0,1,1129.021,725.672Z" transform="translate(-1110.278 -672.273)" fill="#faba81"/>
    </g>
    <g id="Grupo_944758" data-name="Grupo 944758" transform="translate(864.12 311.38)">
      <path id="Trazado_683089" data-name="Trazado 683089" d="M1035.048,517.973s-11.435,14.417-18.395,14.417c-5.4,0-7.214-7.492-7.751-10.843-.154-.964-.2-1.586-.2-1.586l3.977-17.9,19.886-30.326,1.268,23.575Z" transform="translate(-1008.699 -471.738)" fill="#faba81"/>
    </g>
    <g id="Grupo_944759" data-name="Grupo 944759" transform="translate(864.12 311.38)">
      <path id="Trazado_683090" data-name="Trazado 683090" d="M1033.83,495.313c-3.634,9.958-10.943,19.822-24.928,26.235-.154-.964-.2-1.586-.2-1.586l3.977-17.9,19.886-30.326Z" transform="translate(-1008.699 -471.738)" fill="#faa962"/>
    </g>
    <g id="Grupo_944760" data-name="Grupo 944760" transform="translate(828.691 289.474)">
      <path id="Trazado_683091" data-name="Trazado 683091" d="M952.435,433.517c-5.47,13.92-6.471,25.946-4.973,39.275.852,7.581,5.863,17.416,13.423,20.88,11.932,5.469,34.8-2.983,46.732-32.315l4.972-11.434c-18.389-5.015-36.791-9.984-55.168-15.037-1.663-.457-3.321-.933-4.981-1.4Z" transform="translate(-946.834 -433.486)" fill="#faba81"/>
    </g>
    <g id="Grupo_944761" data-name="Grupo 944761" transform="translate(834.166 258.078)">
      <path id="Trazado_683092" data-name="Trazado 683092" d="M956.639,409.2l17.535-29.674a1.753,1.753,0,0,1,2.107-.757l42.591,15.445a1.753,1.753,0,0,1,1.147,1.823l.121,26.694a5.04,5.04,0,0,0,3.005,4.589l16.719,7.377a1.754,1.754,0,0,1,.85,2.384h0a1.754,1.754,0,0,1-2.108.884l-81-26.205A1.753,1.753,0,0,1,956.639,409.2Z" transform="translate(-956.394 -378.663)" fill="#6ab8d8"/>
    </g>
    <g id="Grupo_944762" data-name="Grupo 944762" transform="translate(848.211 273.597)">
      <circle id="Elipse_5360" data-name="Elipse 5360" cx="5.966" cy="5.966" r="5.966" transform="translate(0)" fill="#f2f0e1"/>
    </g>
    <g id="Grupo_944763" data-name="Grupo 944763" transform="translate(813.41 367.559)">
      <path id="Trazado_683093" data-name="Trazado 683093" d="M953.957,569.835s-26.349,20.383-33.806,29.332c0,0,11.932,23.864,22.869,26.349Z" transform="translate(-920.151 -569.835)" fill="#6ab8d8"/>
    </g>
    <g id="Grupo_944764" data-name="Grupo 944764" transform="translate(913.062 371.039)">
      <path id="Trazado_683094" data-name="Trazado 683094" d="M1103.385,575.912a168.666,168.666,0,0,1,23.864,57.173s-5.966,11.434-31.321,7.954c0,0-3.977-26.847,0-51.207" transform="translate(-1094.16 -575.912)" fill="#6ab8d8"/>
    </g>
    <g id="Grupo_944766" data-name="Grupo 944766" transform="translate(845.69 341.46)">
      <g id="Grupo_944765" data-name="Grupo 944765" transform="translate(0)">
        <path id="Trazado_683095" data-name="Trazado 683095" d="M984.635,525.423a66.886,66.886,0,0,1-8.117-.668l.07-.492c2.869.409,10.569,1.221,11.721.07l.352.352C988.106,525.24,986.5,525.423,984.635,525.423Z" transform="translate(-976.518 -524.263)" fill="#083fa4"/>
      </g>
    </g>
    <g id="Grupo_944767" data-name="Grupo 944767" transform="translate(755.741 291.991)">
      <path id="Trazado_683096" data-name="Trazado 683096" d="M912.354,461.628h0a8.917,8.917,0,0,1,.089,4.232l-.272,1.223a8.917,8.917,0,0,1-6.856,6.789l-24.6,5.214-9.63,2.043-16.466,3.49-10.371,2.2-24.8,5.255v-54.19l24.564,4.937L854.37,444.9l15.556,3.127,9.8,1.973,25.766,5.182A8.917,8.917,0,0,1,912.354,461.628Z" transform="translate(-819.45 -437.881)" fill="#002675"/>
    </g>
    <g id="Grupo_944768" data-name="Grupo 944768" transform="translate(742.815 291.991)">
      <ellipse id="Elipse_5361" data-name="Elipse 5361" cx="14.641" cy="27.095" rx="14.641" ry="27.095" transform="translate(0)" fill="#083fa4"/>
    </g>
    <g id="Grupo_944770" data-name="Grupo 944770" transform="translate(780.305 296.928)" opacity="0.4" style="mix-blend-mode: color-burn;isolation: isolate">
      <g id="Grupo_944769" data-name="Grupo 944769" transform="translate(0 0)">
        <path id="Trazado_683097" data-name="Trazado 683097" d="M877.5,468.66c0,7.731-1.75,14.706-4.554,19.642l-10.371,2.2c3.625-4.932,5.976-12.876,5.976-21.84,0-9.158-2.455-17.257-6.209-22.158l10.356,2.083C875.647,453.541,877.5,460.7,877.5,468.66Z" transform="translate(-862.343 -446.502)" fill="#f09dd3"/>
      </g>
    </g>
    <g id="Grupo_944772" data-name="Grupo 944772" transform="translate(806.217 302.138)" opacity="0.4" style="mix-blend-mode: color-burn;isolation: isolate">
      <g id="Grupo_944771" data-name="Grupo 944771" transform="translate(0)">
        <path id="Trazado_683098" data-name="Trazado 683098" d="M920.2,473.542a46.114,46.114,0,0,1-1.825,13.115l-9.63,2.043a44.68,44.68,0,0,0,2.506-15.158A42.47,42.47,0,0,0,907.59,455.6l9.8,1.973A44.134,44.134,0,0,1,920.2,473.542Z" transform="translate(-907.59 -455.6)" fill="#f09dd3"/>
      </g>
    </g>
    <g id="Grupo_944773" data-name="Grupo 944773" transform="translate(742.864 291.991)">
      <ellipse id="Elipse_5362" data-name="Elipse 5362" cx="12.877" cy="27.095" rx="12.877" ry="27.095" transform="translate(0)" fill="#78b5ff"/>
    </g>
    <g id="Grupo_944776" data-name="Grupo 944776" transform="translate(890.571 359.47)">
      <g id="Grupo_944774" data-name="Grupo 944774">
        <path id="Trazado_683099" data-name="Trazado 683099" d="M1065.519,633.674a9.937,9.937,0,0,1-10-.273,173.789,173.789,0,0,1-.512-21.184c.781-21.487,5.523-43.58,11.718-56.506h.005a49.572,49.572,0,0,1,9.162,3.828c-5.11,10.341-10.142,30.819-10.947,53.036A164.539,164.539,0,0,0,1065.519,633.674Z" transform="translate(-1054.887 -555.711)" fill="#083fa4"/>
      </g>
      <g id="Grupo_944775" data-name="Grupo 944775" transform="translate(0.629 77.69)">
        <path id="Trazado_683100" data-name="Trazado 683100" d="M1087.078,747.669v.005l-.005,2.859s-2.789,1.556-7.536,3.624c-16.1-18.524-21.84-42.944-23.55-62.785a9.936,9.936,0,0,0,10,.273C1067.664,709.707,1072.934,731.428,1087.078,747.669Z" transform="translate(-1055.986 -691.372)" fill="#083fa4"/>
      </g>
    </g>
    <g id="Grupo_944779" data-name="Grupo 944779" transform="translate(828.282 362.647)">
      <g id="Grupo_944777" data-name="Grupo 944777" transform="translate(16.722 0)">
        <path id="Trazado_683101" data-name="Trazado 683101" d="M988.579,615.99a174.284,174.284,0,0,1-3.326,18.042,9.933,9.933,0,0,1-9.933-1.2,164.815,164.815,0,0,0,3.4-18.131c2.471-18.892,1.676-37.038-.7-48.791,1.357-.726,5.315-2.814,9.133-4.648C990.478,575.168,991.179,596.123,988.579,615.99Z" transform="translate(-975.32 -561.258)" fill="#083fa4"/>
      </g>
      <g id="Grupo_944778" data-name="Grupo 944778" transform="translate(0 71.57)">
        <path id="Trazado_683102" data-name="Trazado 683102" d="M972.775,687.435c-4.072,17-11.807,37.55-26.479,53.374-.124-3.942-.223-9.286-.154-15.665,8.536-12.329,13.647-26.528,16.7-38.912a9.934,9.934,0,0,0,9.933,1.2Z" transform="translate(-946.12 -686.232)" fill="#083fa4"/>
      </g>
    </g>
    <g id="Grupo_944782" data-name="Grupo 944782" transform="translate(765.939 431.194)">
      <g id="Grupo_944780" data-name="Grupo 944780" transform="translate(0)">
        <path id="Trazado_683103" data-name="Trazado 683103" d="M907.966,785.178c-.089-.016-.174-.035-.258-.05a113.532,113.532,0,0,1-16.068-4.5,102.326,102.326,0,0,1-46.677-33.991c-13.16-39.414-5.474-65.679-5.474-65.679,34.174,8.735,51.48,38.45,60.23,65.127a190.643,190.643,0,0,1,7.4,32.225C907.484,780.872,907.757,783.184,907.966,785.178Z" transform="translate(-837.257 -680.954)" fill="#6ab8d8"/>
      </g>
      <g id="Grupo_944781" data-name="Grupo 944781" transform="translate(4.022 4.219)">
        <path id="Trazado_683104" data-name="Trazado 683104" d="M881.817,769.854a1.243,1.243,0,0,1-1.13-.724l-36.293-79.048a1.243,1.243,0,0,1,2.26-1.037l36.293,79.048a1.243,1.243,0,0,1-1.129,1.761Z" transform="translate(-844.28 -688.32)" fill="#fffffd"/>
      </g>
    </g>
    <g id="Grupo_944785" data-name="Grupo 944785" transform="translate(835.772 475.098)">
      <g id="Grupo_944783" data-name="Grupo 944783" transform="translate(0)">
        <path id="Trazado_683105" data-name="Trazado 683105" d="M1000.995,819.6a135.925,135.925,0,0,1-40.921-1.665c-.089-.015-.174-.035-.258-.05a58.938,58.938,0,0,1-.592-6.821,65.022,65.022,0,0,1,4.321-24.808,76.416,76.416,0,0,1,3.241-7.417A87.178,87.178,0,0,1,978.26,761.5c1.591-1.88,2.794-3.113,3.3-3.619.174-.174.269-.263.269-.263a39.784,39.784,0,0,1,5.837,7.3,76.984,76.984,0,0,1,6.846,13.925,105.5,105.5,0,0,1,4.156,13.736A89.449,89.449,0,0,1,1000.995,819.6Z" transform="translate(-959.199 -757.618)" fill="#508aa2"/>
      </g>
      <g id="Grupo_944784" data-name="Grupo 944784" transform="translate(19.648 3.516)">
        <path id="Trazado_683106" data-name="Trazado 683106" d="M994.751,811.485l-.055,0a1.243,1.243,0,0,1-1.187-1.3l1.988-45.241a1.219,1.219,0,0,1,1.3-1.187,1.243,1.243,0,0,1,1.187,1.3l-1.988,45.24A1.243,1.243,0,0,1,994.751,811.485Z" transform="translate(-993.508 -763.758)" fill="#fffffd"/>
      </g>
    </g>
    <g id="Grupo_944788" data-name="Grupo 944788" transform="translate(935.524 366.315)">
      <g id="Grupo_944786" data-name="Grupo 944786" transform="translate(0 1.244)">
        <path id="Trazado_683107" data-name="Trazado 683107" d="M1190.294,680.571a159.993,159.993,0,0,1-51.162,40.14h-.005q-1.485-6.518-2.551-12.712a218.023,218.023,0,0,1-2.834-23.849c0-.025,0-.054,0-.084q-.411-6.78-.348-13.115a167.084,167.084,0,0,1,.989-17.092A150.059,150.059,0,0,1,1137.4,636q.8-3.43,1.725-6.666s-.005-.005,0-.005c.805-2.843,1.685-5.578,2.615-8.2a127.6,127.6,0,0,1,7.288-16.719c.094-.184.189-.363.288-.547,12.573-23.664,28-34.025,28-34.025s-.5,6.96,4.971,21.378a108.025,108.025,0,0,1,6.264,14.209C1196.837,628.5,1198.14,655.659,1190.294,680.571Z" transform="translate(-1133.382 -569.835)" fill="#508aa2"/>
      </g>
      <g id="Grupo_944787" data-name="Grupo 944787" transform="translate(20.818)">
        <path id="Trazado_683108" data-name="Trazado 683108" d="M1170.979,671.072l-.066,0a1.244,1.244,0,0,1-1.177-1.306c.03-.574,3.212-57.9,21.975-101.35a1.243,1.243,0,0,1,2.282.985c-18.588,43.047-21.745,99.926-21.774,100.5A1.244,1.244,0,0,1,1170.979,671.072Z" transform="translate(-1169.734 -567.663)" fill="#fffffd"/>
      </g>
    </g>
    <g id="Grupo_944791" data-name="Grupo 944791" transform="translate(976.704 357.123)">
      <g id="Grupo_944789" data-name="Grupo 944789" transform="translate(0)">
        <path id="Trazado_683109" data-name="Trazado 683109" d="M1266.04,551.613c-.059,1.069-.129,2.143-.209,3.232-.04.547-.08,1.089-.124,1.641q-.156,2.081-.368,4.206c-.04.438-.085.88-.129,1.318-.06.6-.124,1.188-.189,1.79s-.134,1.193-.2,1.795c-.05.432-.1.865-.159,1.3-.045.4-.1.806-.149,1.208-.044.373-.094.751-.149,1.129-.054.447-.119.895-.179,1.342l-.179,1.243q-.216,1.558-.472,3.137-.127.835-.269,1.67c-.1.632-.209,1.268-.323,1.9-.094.542-.189,1.084-.289,1.626q-.358,2.028-.77,4.072c-.08.417-.164.83-.254,1.248-.3,1.5-.626,3.013-.969,4.524q-.217.969-.443,1.938c-.3,1.293-.616,2.6-.95,3.9-.159.626-.318,1.252-.482,1.884-.194.751-.4,1.5-.6,2.252-.15.542-.3,1.089-.453,1.631-.02.074-.04.144-.06.219-.174.621-.353,1.238-.537,1.859-.149.517-.3,1.029-.458,1.546-.1.368-.214.736-.328,1.1-.149.487-.3.97-.452,1.452-.184.607-.377,1.218-.577,1.824q-.276.865-.566,1.73-.695,2.1-1.442,4.206-.35.992-.716,1.979c-.239.661-.487,1.322-.736,1.979s-.5,1.322-.76,1.979c-.015.045-.03.09-.05.135-.427,1.094-.865,2.182-1.312,3.276q-1.253,3.057-2.625,6.1c-.214.478-.428.955-.651,1.432-.085.184-.169.373-.254.557-.209.447-.423.9-.636,1.347-.219.467-.437.929-.661,1.387-.2.422-.408.85-.621,1.272-.274.567-.552,1.124-.835,1.68-.243.482-.487.965-.736,1.442-.06.114-.114.229-.174.338-.224.437-.453.875-.686,1.307-.114.229-.233.453-.358.677-.239.447-.478.894-.721,1.342-.065.124-.134.248-.2.368-.263.493-.537.984-.816,1.476s-.551.99-.84,1.487c-.234.423-.477.84-.725,1.263q-1.26,2.17-2.59,4.315c-.378.612-.76,1.228-1.153,1.835-.3.472-.6.944-.91,1.412-.582.9-1.173,1.79-1.775,2.675-.646.955-1.3,1.9-1.969,2.843q-1.41,2-2.888,3.962c-.328.438-.661.875-.994,1.307-.1.139-.208.274-.318.413v.005c-.159.208-.324.418-.482.621q-.5.641-1.014,1.283c-.09.119-.185.238-.279.353-.387.487-.78.969-1.173,1.452-.537.656-1.074,1.3-1.62,1.949a159.838,159.838,0,0,1-15.666,16.118c-.711-41.433,4.37-70.372,13.925-91.268q1.156-2.528,2.4-4.907C1232.293,572.444,1247.561,560.368,1266.04,551.613Z" transform="translate(-1205.291 -551.613)" fill="#6ab8d8"/>
      </g>
      <g id="Grupo_944790" data-name="Grupo 944790" transform="translate(19.722 16.153)">
        <path id="Trazado_683110" data-name="Trazado 683110" d="M1240.972,659.612a1.243,1.243,0,0,1-1.2-1.571c11.658-42.683,32.926-77.289,33.14-77.634a1.243,1.243,0,0,1,2.113,1.309c-.212.342-21.3,34.657-32.856,76.98A1.243,1.243,0,0,1,1240.972,659.612Z" transform="translate(-1239.729 -579.819)" fill="#fffffd"/>
      </g>
    </g>
    <g id="Grupo_944794" data-name="Grupo 944794" transform="translate(877.192 308.458)">
      <circle id="Elipse_5363" data-name="Elipse 5363" cx="9.428" cy="9.428" r="9.428" transform="translate(0)" fill="#faba81"/>
    </g>
    <g id="Grupo_944795" data-name="Grupo 944795" transform="translate(883.254 313.066)">
      <path id="Trazado_683113" data-name="Trazado 683113" d="M1042.806,480.063a10.4,10.4,0,0,1,1.666-2.72,8.4,8.4,0,0,1,2.539-2,6.162,6.162,0,0,1,3.116-.649,17.084,17.084,0,0,0-2.529,1.594c-.286.232-.561.474-.829.72a3.414,3.414,0,0,1,.7.123,3.847,3.847,0,0,1,1.311.655,4.513,4.513,0,0,1,.529.51,3.327,3.327,0,0,1,.411.648,3.954,3.954,0,0,1-.75-.041,5.577,5.577,0,0,1-.669-.112c-.429-.08-.825-.194-1.211-.3l-1.144-.33-.252-.069c-.052.059-.106.115-.157.174a27.788,27.788,0,0,0-1.759,2.321c-.562.815-1.1,1.662-1.672,2.547A8.515,8.515,0,0,1,1042.806,480.063Z" transform="translate(-1042.11 -474.682)" fill="#faa962"/>
    </g>
  </g>
</svg>
