<svg id="_35" data-name="35" xmlns="http://www.w3.org/2000/svg" width="70" height="70" viewBox="0 0 70 70">
  <path id="Trazado_667569" data-name="Trazado 667569" d="M35,0A35,35,0,1,1,0,35,35,35,0,0,1,35,0Z" fill="#f6f6f6"/>
  <path id="Trazado_667563" data-name="Trazado 667563" d="M130.774,93.791a2.361,2.361,0,0,0-2.36,2.361v37.775a2.361,2.361,0,0,0,2.36,2.36h27.151a2.36,2.36,0,0,0,2.36-2.36v-29.2l-11.38-10.933Z" transform="translate(-109.447 -79.938)" fill="#da1f26"/>
  <path id="Trazado_667564" data-name="Trazado 667564" d="M278.538,104.724h-9.02a2.361,2.361,0,0,1-2.36-2.361V93.791Z" transform="translate(-227.699 -79.938)" fill="#ca2027"/>
  <path id="Trazado_667565" data-name="Trazado 667565" d="M117.769,208.025a2.724,2.724,0,0,1-2.724,2.725H95.157a2.724,2.724,0,0,1-2.724-2.725V199.7a2.723,2.723,0,0,1,2.724-2.724h19.887a2.724,2.724,0,0,1,2.724,2.724Z" transform="translate(-78.781 -167.884)" fill="#bf2026"/>
  <g id="Grupo_929773" data-name="Grupo 929773" transform="translate(19.005 33.494)">
    <path id="Trazado_667566" data-name="Trazado 667566" d="M130.824,230.154H129.8v1.568a.734.734,0,0,1-.159.51.559.559,0,0,1-.809,0,.733.733,0,0,1-.155-.5v-4.269a.7.7,0,0,1,.17-.529.775.775,0,0,1,.54-.159h1.439a3.759,3.759,0,0,1,.982.1,1.464,1.464,0,0,1,.587.313,1.42,1.42,0,0,1,.376.537,1.878,1.878,0,0,1,.128.714,1.578,1.578,0,0,1-.521,1.283A2.369,2.369,0,0,1,130.824,230.154Zm-.272-2.539H129.8v1.693h.755a2.266,2.266,0,0,0,.663-.083.773.773,0,0,0,.406-.272.811.811,0,0,0,.14-.5.838.838,0,0,0-.215-.6A1.43,1.43,0,0,0,130.552,227.615Z" transform="translate(-128.675 -226.773)" fill="#fff"/>
    <path id="Trazado_667567" data-name="Trazado 667567" d="M164.354,226.773h1.462a3.959,3.959,0,0,1,.979.106,1.794,1.794,0,0,1,.741.4,2.8,2.8,0,0,1,.865,2.252,4.445,4.445,0,0,1-.087.91,2.69,2.69,0,0,1-.268.742,2.3,2.3,0,0,1-.465.591,1.923,1.923,0,0,1-.487.321,2.2,2.2,0,0,1-.568.17,4.344,4.344,0,0,1-.686.049h-1.462a.92.92,0,0,1-.461-.092.427.427,0,0,1-.2-.261,1.633,1.633,0,0,1-.048-.437v-4.061a.589.589,0,0,1,.687-.688Zm.434.888v3.759h.85c.186,0,.333-.005.438-.015a1.357,1.357,0,0,0,.329-.076.887.887,0,0,0,.295-.17,2.05,2.05,0,0,0,.563-1.64,2.42,2.42,0,0,0-.247-1.228,1.1,1.1,0,0,0-.61-.519,3.018,3.018,0,0,0-.876-.112h-.741Z" transform="translate(-158.499 -226.773)" fill="#fff"/>
    <path id="Trazado_667568" data-name="Trazado 667568" d="M205.57,227.64h-2.21v1.416h1.848a.552.552,0,0,1,.383.115.4.4,0,0,1,.127.308.388.388,0,0,1-.128.306.56.56,0,0,1-.381.113H203.36v1.825a.735.735,0,0,1-.157.516.568.568,0,0,1-.809,0,.739.739,0,0,1-.156-.514v-4.26a.929.929,0,0,1,.072-.395.447.447,0,0,1,.225-.223.946.946,0,0,1,.391-.07h2.644a.577.577,0,0,1,.4.119.4.4,0,0,1,.13.312.406.406,0,0,1-.13.316A.578.578,0,0,1,205.57,227.64Z" transform="translate(-191.373 -226.776)" fill="#fff"/>
  </g>
</svg>
