<svg xmlns="http://www.w3.org/2000/svg" width="400" height="301" viewBox="0 0 400 301">
  <g id="_36" data-name="36" transform="translate(-915 -8097)">
    <path id="Trazado_683116" data-name="Trazado 683116" d="M-7188-3179.988v84" transform="translate(8356 11325.988)" fill="none" stroke="#f4b553" stroke-width="2"/>
    <path id="Trazado_683118" data-name="Trazado 683118" d="M-7188-3179.988v105.014" transform="translate(8356 11458.988)" fill="none" stroke="#f4b553" stroke-width="2"/>
    <path id="Trazado_683117" data-name="Trazado 683117" d="M-7188-3179.988v82" transform="translate(4265.988 1003.506) rotate(-90)" fill="none" stroke="#f4b553" stroke-width="2"/>
    <path id="Trazado_683119" data-name="Trazado 683119" d="M0,0V58" transform="translate(1168 8308.5) rotate(-90)" fill="none" stroke="#f4b553" stroke-width="2"/>
    <path id="Trazado_683120" data-name="Trazado 683120" d="M0,0V58" transform="translate(1168 8346) rotate(-90)" fill="none" stroke="#f4b553" stroke-width="2"/>
    <path id="Trazado_683121" data-name="Trazado 683121" d="M0,0V58" transform="translate(1168 8383) rotate(-90)" fill="none" stroke="#f4b553" stroke-width="2"/>
    <rect id="Rectángulo_337359" data-name="Rectángulo 337359" width="155" height="49" rx="5" transform="translate(1090 8097)" fill="#0387d0"/>
    <rect id="Rectángulo_337360" data-name="Rectángulo 337360" width="171" height="49" rx="5" transform="translate(915 8167)" fill="#ffe6a1"/>
    <rect id="Rectángulo_337361" data-name="Rectángulo 337361" width="153" height="49" rx="5" transform="translate(1092 8230)" fill="#ffe6a1"/>
    <rect id="Rectángulo_337362" data-name="Rectángulo 337362" width="89" height="31" rx="5" transform="translate(1226 8293)" fill="#ffe6a1"/>
    <rect id="Rectángulo_337363" data-name="Rectángulo 337363" width="89" height="31" rx="5" transform="translate(1226 8330)" fill="#ffe6a1"/>
    <rect id="Rectángulo_337364" data-name="Rectángulo 337364" width="89" height="31" rx="5" transform="translate(1226 8367)" fill="#ffe6a1"/>
    <path id="Trazado_691469" data-name="Trazado 691469" d="M5.635,13H3.913V3.047H5.635Zm2.126,0V3.047H10.7a4.61,4.61,0,0,1,2.341.588A4.009,4.009,0,0,1,14.625,5.3a5.3,5.3,0,0,1,.561,2.475v.5a5.273,5.273,0,0,1-.564,2.488,3.96,3.96,0,0,1-1.606,1.654A4.824,4.824,0,0,1,10.625,13ZM9.491,4.441v7.178h1.128a2.6,2.6,0,0,0,2.088-.851,3.707,3.707,0,0,0,.742-2.444V7.771a3.8,3.8,0,0,0-.7-2.475A2.5,2.5,0,0,0,10.7,4.441ZM22.725,8.557H18.637v3.063h4.778V13H16.908V3.047h6.46V4.441h-4.73V7.189h4.088ZM32.719,13H30.99L26.553,5.938V13H24.824V3.047h1.729L31,10.136V3.047h1.716Zm9.037-8.559h-3.1V13H36.937V4.441H33.861V3.047h7.9ZM44.887,13H43.165V3.047h1.723Zm7.861-4.218H48.743V13H47.013V3.047h6.323V4.441H48.743V7.4h4.006ZM56.529,13H54.806V3.047h1.723ZM66.25,9.76a3.594,3.594,0,0,1-1.176,2.485,4.008,4.008,0,0,1-2.728.892,3.881,3.881,0,0,1-2.1-.564,3.7,3.7,0,0,1-1.4-1.6,5.785,5.785,0,0,1-.513-2.413v-.93a5.827,5.827,0,0,1,.5-2.481,3.761,3.761,0,0,1,1.432-1.654,4,4,0,0,1,2.157-.581,3.847,3.847,0,0,1,2.652.892A3.728,3.728,0,0,1,66.25,6.328H64.527A2.459,2.459,0,0,0,63.9,4.78,2.067,2.067,0,0,0,62.428,4.3a2.019,2.019,0,0,0-1.733.824,4.121,4.121,0,0,0-.619,2.419v.883a4.371,4.371,0,0,0,.578,2.463,1.917,1.917,0,0,0,1.692.848,2.236,2.236,0,0,0,1.531-.458,2.388,2.388,0,0,0,.649-1.524Zm7.116.923H69.51L68.7,13h-1.8l3.76-9.953h1.552L75.984,13h-1.8ZM70,9.288H72.88L71.438,5.159Zm14.567.472a3.594,3.594,0,0,1-1.176,2.485,4.008,4.008,0,0,1-2.728.892,3.881,3.881,0,0,1-2.1-.564,3.7,3.7,0,0,1-1.4-1.6,5.785,5.785,0,0,1-.513-2.413v-.93a5.827,5.827,0,0,1,.5-2.481,3.761,3.761,0,0,1,1.432-1.654,4,4,0,0,1,2.157-.581,3.847,3.847,0,0,1,2.652.892,3.728,3.728,0,0,1,1.169,2.526H82.84a2.459,2.459,0,0,0-.625-1.548A2.067,2.067,0,0,0,80.742,4.3a2.019,2.019,0,0,0-1.733.824,4.121,4.121,0,0,0-.619,2.419v.883a4.371,4.371,0,0,0,.578,2.463,1.917,1.917,0,0,0,1.692.848,2.236,2.236,0,0,0,1.531-.458A2.388,2.388,0,0,0,82.84,9.76ZM87.933,13H86.21V3.047h1.723ZM98,8.283A6.107,6.107,0,0,1,97.5,10.85a3.825,3.825,0,0,1-1.446,1.7,4.241,4.241,0,0,1-4.32,0,3.884,3.884,0,0,1-1.463-1.685,5.915,5.915,0,0,1-.523-2.522V7.777a6.054,6.054,0,0,1,.516-2.57A3.879,3.879,0,0,1,91.717,3.5a4.25,4.25,0,0,1,4.313-.007,3.83,3.83,0,0,1,1.453,1.682A6.041,6.041,0,0,1,98,7.729Zm-1.729-.52a4.351,4.351,0,0,0-.625-2.536,2.207,2.207,0,0,0-3.527,0,4.267,4.267,0,0,0-.646,2.485v.574a4.318,4.318,0,0,0,.639,2.536,2.058,2.058,0,0,0,1.774.9,2.034,2.034,0,0,0,1.767-.875,4.411,4.411,0,0,0,.619-2.557ZM94.379.381h1.894L94.379,2.452l-1.333,0ZM107.621,13h-1.729l-4.437-7.062V13H99.725V3.047h1.729l4.45,7.089V3.047h1.716Zm5.53,0V3.047h2.939a4.61,4.61,0,0,1,2.341.588A4.009,4.009,0,0,1,120.014,5.3a5.3,5.3,0,0,1,.561,2.475v.5a5.273,5.273,0,0,1-.564,2.488,3.96,3.96,0,0,1-1.606,1.654,4.824,4.824,0,0,1-2.389.581Zm1.729-8.559v7.178h1.128a2.6,2.6,0,0,0,2.088-.851,3.707,3.707,0,0,0,.742-2.444V7.771a3.8,3.8,0,0,0-.7-2.475,2.5,2.5,0,0,0-2.044-.854Zm13.234,4.115h-4.088v3.063h4.778V13H122.3V3.047h6.46V4.441h-4.73V7.189h4.088ZM10.69,28.683H6.835L6.028,31H4.23l3.76-9.953H9.542L13.309,31H11.5ZM7.32,27.288h2.885L8.763,23.159Zm14.567.472a3.594,3.594,0,0,1-1.176,2.485,4.008,4.008,0,0,1-2.728.892,3.881,3.881,0,0,1-2.1-.564,3.7,3.7,0,0,1-1.4-1.6,5.785,5.785,0,0,1-.513-2.413v-.93a5.827,5.827,0,0,1,.5-2.481,3.761,3.761,0,0,1,1.432-1.654,4,4,0,0,1,2.157-.581,3.847,3.847,0,0,1,2.652.892,3.728,3.728,0,0,1,1.169,2.526H20.165a2.459,2.459,0,0,0-.625-1.548,2.067,2.067,0,0,0-1.473-.475,2.019,2.019,0,0,0-1.733.824,4.121,4.121,0,0,0-.619,2.419v.883a4.371,4.371,0,0,0,.578,2.463,1.917,1.917,0,0,0,1.692.848,2.236,2.236,0,0,0,1.531-.458,2.388,2.388,0,0,0,.649-1.524Zm8.538-5.318h-3.1V31H25.606V22.441H22.53V21.047h7.9Zm9.058,3.842a6.107,6.107,0,0,1-.506,2.567,3.825,3.825,0,0,1-1.446,1.7,4.241,4.241,0,0,1-4.32,0,3.884,3.884,0,0,1-1.463-1.685,5.915,5.915,0,0,1-.523-2.522v-.561a6.054,6.054,0,0,1,.516-2.57A3.879,3.879,0,0,1,33.2,21.5a4.25,4.25,0,0,1,4.313-.007,3.83,3.83,0,0,1,1.453,1.682,6.041,6.041,0,0,1,.52,2.553Zm-1.729-.52a4.351,4.351,0,0,0-.625-2.536,2.207,2.207,0,0,0-3.527,0,4.267,4.267,0,0,0-.646,2.485v.574a4.318,4.318,0,0,0,.639,2.536,2.058,2.058,0,0,0,1.774.9,2.034,2.034,0,0,0,1.767-.875,4.411,4.411,0,0,0,.619-2.557Zm8.654,2.673a1.2,1.2,0,0,0-.461-1.012,5.552,5.552,0,0,0-1.665-.718,8.038,8.038,0,0,1-1.914-.807,2.554,2.554,0,0,1-1.36-2.229,2.425,2.425,0,0,1,.981-1.982,3.97,3.97,0,0,1,2.546-.779,4.3,4.3,0,0,1,1.853.383,3.041,3.041,0,0,1,1.278,1.09,2.8,2.8,0,0,1,.465,1.569H46.408a1.56,1.56,0,0,0-.489-1.22,2.017,2.017,0,0,0-1.4-.441,2.107,2.107,0,0,0-1.316.362,1.206,1.206,0,0,0-.468,1.012,1.091,1.091,0,0,0,.506.913,5.828,5.828,0,0,0,1.668.711,7.672,7.672,0,0,1,1.866.786,2.968,2.968,0,0,1,1.032,1.012,2.635,2.635,0,0,1,.328,1.336,2.369,2.369,0,0,1-.954,1.979,4.136,4.136,0,0,1-2.587.735,4.862,4.862,0,0,1-1.986-.4,3.336,3.336,0,0,1-1.408-1.1,2.751,2.751,0,0,1-.5-1.641H42.43A1.61,1.61,0,0,0,42.99,29.3a2.455,2.455,0,0,0,1.606.465,2.133,2.133,0,0,0,1.357-.366A1.18,1.18,0,0,0,46.408,28.437ZM54.967,31H53.244V21.047h1.723Zm10.021,0H63.259l-4.437-7.062V31H57.093V21.047h1.729l4.45,7.089V21.047h1.716Zm7.246-2.563a1.2,1.2,0,0,0-.461-1.012,5.552,5.552,0,0,0-1.665-.718,8.038,8.038,0,0,1-1.914-.807,2.554,2.554,0,0,1-1.36-2.229,2.425,2.425,0,0,1,.981-1.982,3.97,3.97,0,0,1,2.546-.779,4.3,4.3,0,0,1,1.853.383,3.041,3.041,0,0,1,1.278,1.09,2.8,2.8,0,0,1,.465,1.569H72.234a1.56,1.56,0,0,0-.489-1.22,2.017,2.017,0,0,0-1.4-.441,2.107,2.107,0,0,0-1.316.362,1.206,1.206,0,0,0-.468,1.012,1.091,1.091,0,0,0,.506.913,5.828,5.828,0,0,0,1.668.711,7.672,7.672,0,0,1,1.866.786,2.968,2.968,0,0,1,1.032,1.012,2.635,2.635,0,0,1,.328,1.336A2.369,2.369,0,0,1,73.01,30.4a4.136,4.136,0,0,1-2.587.735,4.862,4.862,0,0,1-1.986-.4,3.336,3.336,0,0,1-1.408-1.1,2.751,2.751,0,0,1-.5-1.641h1.729a1.61,1.61,0,0,0,.561,1.313,2.455,2.455,0,0,0,1.606.465A2.133,2.133,0,0,0,71.78,29.4,1.18,1.18,0,0,0,72.234,28.437Zm9.064-1.88H77.211v3.063h4.778V31H75.481V21.047h6.46v1.395h-4.73v2.748H81.3Zm9.728,3.151a3.307,3.307,0,0,1-1.5,1.066,6.108,6.108,0,0,1-2.174.362,4.284,4.284,0,0,1-2.215-.567,3.779,3.779,0,0,1-1.487-1.624,5.68,5.68,0,0,1-.543-2.464V25.7a5.268,5.268,0,0,1,1.08-3.524,3.746,3.746,0,0,1,3.015-1.268,3.963,3.963,0,0,1,2.639.824A3.549,3.549,0,0,1,91.02,24.1h-1.7a1.907,1.907,0,0,0-2.085-1.8,2.044,2.044,0,0,0-1.767.837,4.262,4.262,0,0,0-.625,2.455v.765a4.048,4.048,0,0,0,.68,2.5,2.244,2.244,0,0,0,1.89.891,2.492,2.492,0,0,0,1.887-.6V27.206H87.253V25.894h3.773Zm9.181-8.661V27.7a3.232,3.232,0,0,1-1.015,2.512,4.45,4.45,0,0,1-5.417.014,3.248,3.248,0,0,1-1-2.533V21.047h1.723v6.658A2.115,2.115,0,0,0,95,29.229a1.973,1.973,0,0,0,1.49.526q2,0,2-2.105v-6.6Zm5.5,6.125h-1.928V31h-1.729V21.047h3.5a4.071,4.071,0,0,1,2.659.773,2.735,2.735,0,0,1,.937,2.237,2.8,2.8,0,0,1-.482,1.673,3.067,3.067,0,0,1-1.343,1.036l2.235,4.145V31h-1.853Zm-1.928-1.395h1.777a1.977,1.977,0,0,0,1.367-.441,1.538,1.538,0,0,0,.492-1.207,1.637,1.637,0,0,0-.455-1.237,1.931,1.931,0,0,0-1.357-.451h-1.825Zm14.95.506a6.107,6.107,0,0,1-.506,2.567,3.825,3.825,0,0,1-1.446,1.7,4.241,4.241,0,0,1-4.32,0A3.884,3.884,0,0,1,111,28.86a5.915,5.915,0,0,1-.523-2.522v-.561a6.054,6.054,0,0,1,.516-2.57,3.879,3.879,0,0,1,1.456-1.706,4.25,4.25,0,0,1,4.313-.007,3.83,3.83,0,0,1,1.453,1.682,6.041,6.041,0,0,1,.52,2.553ZM117,25.764a4.351,4.351,0,0,0-.625-2.536,2.207,2.207,0,0,0-3.527,0,4.267,4.267,0,0,0-.646,2.485v.574a4.318,4.318,0,0,0,.639,2.536,2.058,2.058,0,0,0,1.774.9,2.034,2.034,0,0,0,1.767-.875A4.411,4.411,0,0,0,117,26.283Zm8.654,2.673a1.2,1.2,0,0,0-.461-1.012,5.552,5.552,0,0,0-1.665-.718,8.038,8.038,0,0,1-1.914-.807,2.554,2.554,0,0,1-1.36-2.229,2.425,2.425,0,0,1,.981-1.982,3.97,3.97,0,0,1,2.546-.779,4.3,4.3,0,0,1,1.853.383,3.041,3.041,0,0,1,1.278,1.09,2.8,2.8,0,0,1,.465,1.569h-1.723a1.56,1.56,0,0,0-.489-1.22,2.017,2.017,0,0,0-1.4-.441,2.107,2.107,0,0,0-1.316.362,1.206,1.206,0,0,0-.468,1.012,1.091,1.091,0,0,0,.506.913,5.828,5.828,0,0,0,1.668.711,7.672,7.672,0,0,1,1.866.786,2.968,2.968,0,0,1,1.032,1.012,2.635,2.635,0,0,1,.328,1.336,2.369,2.369,0,0,1-.954,1.979,4.136,4.136,0,0,1-2.587.735,4.862,4.862,0,0,1-1.986-.4,3.336,3.336,0,0,1-1.408-1.1,2.751,2.751,0,0,1-.5-1.641h1.729a1.61,1.61,0,0,0,.561,1.313,2.455,2.455,0,0,0,1.606.465A2.133,2.133,0,0,0,125.2,29.4,1.18,1.18,0,0,0,125.657,28.437Z" transform="translate(1102 8105)" fill="#fff"/>
    <path id="Trazado_691470" data-name="Trazado 691470" d="M30.092,13V3.047h2.939a4.61,4.61,0,0,1,2.341.588A4.009,4.009,0,0,1,36.955,5.3a5.3,5.3,0,0,1,.561,2.475v.5a5.273,5.273,0,0,1-.564,2.488,3.96,3.96,0,0,1-1.606,1.654A4.824,4.824,0,0,1,32.956,13Zm1.729-8.559v7.178h1.128a2.6,2.6,0,0,0,2.088-.851,3.707,3.707,0,0,0,.742-2.444V7.771a3.8,3.8,0,0,0-.7-2.475,2.5,2.5,0,0,0-2.044-.854ZM45.056,8.557H40.968v3.063h4.778V13H39.238V3.047H45.7V4.441h-4.73V7.189h4.088Zm7.834.226H48.884V13H47.154V3.047h6.323V4.441H48.884V7.4H52.89ZM56.67,13H54.947V3.047H56.67Zm10.021,0H64.962L60.525,5.938V13H58.8V3.047h1.729l4.45,7.089V3.047h1.716Zm3.869,0H68.838V3.047h1.723Zm9.721-3.24a3.594,3.594,0,0,1-1.176,2.485,4.008,4.008,0,0,1-2.728.892,3.881,3.881,0,0,1-2.1-.564,3.7,3.7,0,0,1-1.4-1.6,5.785,5.785,0,0,1-.513-2.413v-.93a5.827,5.827,0,0,1,.5-2.481A3.761,3.761,0,0,1,74.3,3.491,4,4,0,0,1,76.46,2.91a3.847,3.847,0,0,1,2.652.892,3.728,3.728,0,0,1,1.169,2.526H78.559a2.459,2.459,0,0,0-.625-1.548A2.067,2.067,0,0,0,76.46,4.3a2.019,2.019,0,0,0-1.733.824,4.121,4.121,0,0,0-.619,2.419v.883a4.371,4.371,0,0,0,.578,2.463,1.917,1.917,0,0,0,1.692.848,2.236,2.236,0,0,0,1.531-.458,2.388,2.388,0,0,0,.649-1.524ZM83.651,13H81.929V3.047h1.723ZM93.721,8.283a6.107,6.107,0,0,1-.506,2.567,3.825,3.825,0,0,1-1.446,1.7,4.241,4.241,0,0,1-4.32,0,3.884,3.884,0,0,1-1.463-1.685,5.915,5.915,0,0,1-.523-2.522V7.777a6.054,6.054,0,0,1,.516-2.57A3.879,3.879,0,0,1,87.435,3.5a4.25,4.25,0,0,1,4.313-.007A3.83,3.83,0,0,1,93.2,5.176a6.041,6.041,0,0,1,.52,2.553Zm-1.729-.52a4.351,4.351,0,0,0-.625-2.536,2.207,2.207,0,0,0-3.527,0,4.267,4.267,0,0,0-.646,2.485v.574a4.318,4.318,0,0,0,.639,2.536,2.058,2.058,0,0,0,1.774.9,2.034,2.034,0,0,0,1.767-.875,4.411,4.411,0,0,0,.619-2.557ZM90.1.381h1.894L90.1,2.452l-1.333,0ZM103.339,13h-1.729L97.173,5.938V13H95.443V3.047h1.729l4.45,7.089V3.047h1.716Zm5.53,0V3.047h2.939a4.61,4.61,0,0,1,2.341.588A4.009,4.009,0,0,1,115.732,5.3a5.3,5.3,0,0,1,.561,2.475v.5a5.273,5.273,0,0,1-.564,2.488,3.96,3.96,0,0,1-1.606,1.654,4.824,4.824,0,0,1-2.389.581ZM110.6,4.441v7.178h1.128a2.6,2.6,0,0,0,2.088-.851,3.707,3.707,0,0,0,.742-2.444V7.771a3.8,3.8,0,0,0-.7-2.475,2.5,2.5,0,0,0-2.044-.854Zm13.234,4.115h-4.088v3.063h4.778V13h-6.508V3.047h6.46V4.441h-4.73V7.189h4.088ZM7.144,21.047l2.871,7.629,2.864-7.629h2.235V31H13.392V27.719l.171-4.389L10.623,31H9.386L6.453,23.337l.171,4.382V31H4.9V21.047ZM25.1,26.283A6.107,6.107,0,0,1,24.6,28.85a3.825,3.825,0,0,1-1.446,1.7,4.241,4.241,0,0,1-4.32,0,3.884,3.884,0,0,1-1.463-1.685,5.915,5.915,0,0,1-.523-2.522v-.561a6.054,6.054,0,0,1,.516-2.57A3.879,3.879,0,0,1,18.816,21.5a4.25,4.25,0,0,1,4.313-.007,3.83,3.83,0,0,1,1.453,1.682,6.041,6.041,0,0,1,.52,2.553Zm-1.729-.52a4.351,4.351,0,0,0-.625-2.536,2.207,2.207,0,0,0-3.527,0,4.267,4.267,0,0,0-.646,2.485v.574a4.318,4.318,0,0,0,.639,2.536,2.058,2.058,0,0,0,1.774.9,2.034,2.034,0,0,0,1.767-.875,4.411,4.411,0,0,0,.619-2.557ZM26.824,31V21.047h2.939a4.61,4.61,0,0,1,2.341.588A4.009,4.009,0,0,1,33.688,23.3a5.3,5.3,0,0,1,.561,2.475v.5a5.273,5.273,0,0,1-.564,2.488,3.96,3.96,0,0,1-1.606,1.654A4.824,4.824,0,0,1,29.688,31Zm1.729-8.559v7.178h1.128a2.6,2.6,0,0,0,2.088-.851,3.707,3.707,0,0,0,.742-2.444v-.554a3.8,3.8,0,0,0-.7-2.475,2.5,2.5,0,0,0-2.044-.854Zm13.234,4.115H37.7v3.063h4.778V31H35.971V21.047h6.46v1.395H37.7v2.748h4.088Zm3.828,3.063h4.519V31H43.887V21.047h1.729Zm13.351-3.336a6.107,6.107,0,0,1-.506,2.567,3.825,3.825,0,0,1-1.446,1.7,4.241,4.241,0,0,1-4.32,0,3.884,3.884,0,0,1-1.463-1.685,5.916,5.916,0,0,1-.523-2.522v-.561a6.054,6.054,0,0,1,.516-2.57A3.879,3.879,0,0,1,52.681,21.5a4.25,4.25,0,0,1,4.313-.007,3.83,3.83,0,0,1,1.453,1.682,6.041,6.041,0,0,1,.52,2.553Zm-1.729-.52a4.351,4.351,0,0,0-.625-2.536,2.207,2.207,0,0,0-3.527,0,4.267,4.267,0,0,0-.646,2.485v.574a4.318,4.318,0,0,0,.639,2.536,2.058,2.058,0,0,0,1.774.9,2.034,2.034,0,0,0,1.767-.875,4.411,4.411,0,0,0,.619-2.557Zm8.654,2.673a1.2,1.2,0,0,0-.461-1.012,5.552,5.552,0,0,0-1.665-.718,8.038,8.038,0,0,1-1.914-.807,2.554,2.554,0,0,1-1.36-2.229,2.425,2.425,0,0,1,.981-1.982,3.97,3.97,0,0,1,2.546-.779,4.3,4.3,0,0,1,1.853.383,3.041,3.041,0,0,1,1.278,1.09,2.8,2.8,0,0,1,.465,1.569H65.892a1.56,1.56,0,0,0-.489-1.22,2.017,2.017,0,0,0-1.4-.441,2.107,2.107,0,0,0-1.316.362,1.206,1.206,0,0,0-.468,1.012,1.091,1.091,0,0,0,.506.913,5.828,5.828,0,0,0,1.668.711,7.672,7.672,0,0,1,1.866.786,2.968,2.968,0,0,1,1.032,1.012,2.635,2.635,0,0,1,.328,1.336,2.369,2.369,0,0,1-.954,1.979,4.136,4.136,0,0,1-2.587.735,4.862,4.862,0,0,1-1.986-.4,3.336,3.336,0,0,1-1.408-1.1,2.751,2.751,0,0,1-.5-1.641h1.729a1.61,1.61,0,0,0,.561,1.313,2.455,2.455,0,0,0,1.606.465,2.133,2.133,0,0,0,1.357-.366A1.18,1.18,0,0,0,65.892,28.437ZM72.625,31V21.047h2.939a4.61,4.61,0,0,1,2.341.588A4.009,4.009,0,0,1,79.488,23.3a5.3,5.3,0,0,1,.561,2.475v.5a5.273,5.273,0,0,1-.564,2.488,3.96,3.96,0,0,1-1.606,1.654A4.824,4.824,0,0,1,75.489,31Zm1.729-8.559v7.178h1.128a2.6,2.6,0,0,0,2.088-.851,3.707,3.707,0,0,0,.742-2.444v-.554a3.8,3.8,0,0,0-.7-2.475,2.5,2.5,0,0,0-2.044-.854Zm13.234,4.115H83.5v3.063h4.778V31H81.771V21.047h6.46v1.395H83.5v2.748h4.088ZM100.8,29.708a3.307,3.307,0,0,1-1.5,1.066,6.108,6.108,0,0,1-2.174.362,4.284,4.284,0,0,1-2.215-.567,3.779,3.779,0,0,1-1.487-1.624,5.68,5.68,0,0,1-.543-2.464V25.7a5.268,5.268,0,0,1,1.08-3.524,3.746,3.746,0,0,1,3.015-1.268,3.963,3.963,0,0,1,2.639.824A3.549,3.549,0,0,1,100.8,24.1H99.1a1.907,1.907,0,0,0-2.085-1.8,2.044,2.044,0,0,0-1.767.837,4.262,4.262,0,0,0-.625,2.455v.765a4.048,4.048,0,0,0,.68,2.5,2.244,2.244,0,0,0,1.89.891,2.492,2.492,0,0,0,1.887-.6V27.206H97.029V25.894H100.8Zm7.718-3.151h-4.088v3.063h4.778V31H102.7V21.047h6.46v1.395h-4.73v2.748h4.088Zm7.3,1.88a1.2,1.2,0,0,0-.461-1.012,5.552,5.552,0,0,0-1.665-.718,8.038,8.038,0,0,1-1.914-.807,2.554,2.554,0,0,1-1.36-2.229,2.425,2.425,0,0,1,.981-1.982,3.97,3.97,0,0,1,2.546-.779,4.3,4.3,0,0,1,1.853.383,3.041,3.041,0,0,1,1.278,1.09,2.8,2.8,0,0,1,.465,1.569h-1.723a1.56,1.56,0,0,0-.489-1.22,2.017,2.017,0,0,0-1.4-.441,2.107,2.107,0,0,0-1.316.362,1.206,1.206,0,0,0-.468,1.012,1.091,1.091,0,0,0,.506.913,5.828,5.828,0,0,0,1.668.711,7.672,7.672,0,0,1,1.866.786,2.968,2.968,0,0,1,1.032,1.012,2.635,2.635,0,0,1,.328,1.336A2.369,2.369,0,0,1,116.6,30.4a4.136,4.136,0,0,1-2.587.735,4.862,4.862,0,0,1-1.986-.4,3.336,3.336,0,0,1-1.408-1.1,2.751,2.751,0,0,1-.5-1.641h1.729A1.61,1.61,0,0,0,112.4,29.3a2.455,2.455,0,0,0,1.606.465,2.133,2.133,0,0,0,1.357-.366A1.18,1.18,0,0,0,115.821,28.437Zm10.438-6h-3.1V31H121.44V22.441h-3.076V21.047h7.9ZM129.391,31h-1.723V21.047h1.723Zm10.069-4.717a6.107,6.107,0,0,1-.506,2.567,3.825,3.825,0,0,1-1.446,1.7,4.241,4.241,0,0,1-4.32,0,3.884,3.884,0,0,1-1.463-1.685,5.916,5.916,0,0,1-.523-2.522v-.561a6.054,6.054,0,0,1,.516-2.57,3.879,3.879,0,0,1,1.456-1.706,4.25,4.25,0,0,1,4.313-.007,3.83,3.83,0,0,1,1.453,1.682,6.041,6.041,0,0,1,.52,2.553Zm-1.729-.52a4.351,4.351,0,0,0-.625-2.536,2.207,2.207,0,0,0-3.527,0,4.267,4.267,0,0,0-.646,2.485v.574a4.318,4.318,0,0,0,.639,2.536,2.058,2.058,0,0,0,1.774.9,2.034,2.034,0,0,0,1.767-.875,4.411,4.411,0,0,0,.619-2.557Zm-1.894-7.383h1.894l-1.894,2.071-1.333,0ZM149.078,31h-1.729l-4.437-7.062V31h-1.729V21.047h1.729l4.45,7.089V21.047h1.716Z" transform="translate(924 8175)" fill="#12263f"/>
    <path id="Trazado_691471" data-name="Trazado 691471" d="M27.621,10.683H23.766L22.959,13h-1.8l3.76-9.953h1.552L30.239,13h-1.8Zm-3.37-1.395h2.885L25.693,5.159Zm14.567.472a3.594,3.594,0,0,1-1.176,2.485,4.008,4.008,0,0,1-2.728.892,3.881,3.881,0,0,1-2.1-.564,3.7,3.7,0,0,1-1.4-1.6,5.785,5.785,0,0,1-.513-2.413v-.93a5.827,5.827,0,0,1,.5-2.481A3.761,3.761,0,0,1,32.84,3.491,4,4,0,0,1,35,2.91a3.847,3.847,0,0,1,2.652.892,3.728,3.728,0,0,1,1.169,2.526H37.1A2.459,2.459,0,0,0,36.47,4.78,2.067,2.067,0,0,0,35,4.3a2.019,2.019,0,0,0-1.733.824,4.121,4.121,0,0,0-.619,2.419v.883a4.371,4.371,0,0,0,.578,2.463,1.917,1.917,0,0,0,1.692.848,2.236,2.236,0,0,0,1.531-.458A2.388,2.388,0,0,0,37.1,9.76Zm9.14,0a3.594,3.594,0,0,1-1.176,2.485,4.008,4.008,0,0,1-2.728.892,3.881,3.881,0,0,1-2.1-.564,3.7,3.7,0,0,1-1.4-1.6,5.785,5.785,0,0,1-.513-2.413v-.93a5.827,5.827,0,0,1,.5-2.481A3.761,3.761,0,0,1,41.98,3.491a4,4,0,0,1,2.157-.581,3.847,3.847,0,0,1,2.652.892,3.728,3.728,0,0,1,1.169,2.526H46.235A2.459,2.459,0,0,0,45.61,4.78,2.067,2.067,0,0,0,44.137,4.3a2.019,2.019,0,0,0-1.733.824,4.121,4.121,0,0,0-.619,2.419v.883a4.371,4.371,0,0,0,.578,2.463,1.917,1.917,0,0,0,1.692.848,2.236,2.236,0,0,0,1.531-.458,2.388,2.388,0,0,0,.649-1.524ZM51.328,13H49.605V3.047h1.723ZM61.4,8.283a6.107,6.107,0,0,1-.506,2.567,3.825,3.825,0,0,1-1.446,1.7,4.241,4.241,0,0,1-4.32,0,3.884,3.884,0,0,1-1.463-1.685,5.916,5.916,0,0,1-.523-2.522V7.777a6.054,6.054,0,0,1,.516-2.57A3.879,3.879,0,0,1,55.112,3.5a4.25,4.25,0,0,1,4.313-.007,3.83,3.83,0,0,1,1.453,1.682,6.041,6.041,0,0,1,.52,2.553Zm-1.729-.52a4.351,4.351,0,0,0-.625-2.536,2.207,2.207,0,0,0-3.527,0,4.267,4.267,0,0,0-.646,2.485v.574a4.318,4.318,0,0,0,.639,2.536,2.058,2.058,0,0,0,1.774.9,2.034,2.034,0,0,0,1.767-.875,4.411,4.411,0,0,0,.619-2.557ZM71.016,13H69.286L64.85,5.938V13H63.12V3.047H64.85l4.45,7.089V3.047h1.716Zm7.861-4.443H74.789v3.063h4.778V13H73.06V3.047h6.46V4.441h-4.73V7.189h4.088Zm7.3,1.88a1.2,1.2,0,0,0-.461-1.012,5.552,5.552,0,0,0-1.665-.718A8.038,8.038,0,0,1,82.138,7.9a2.554,2.554,0,0,1-1.36-2.229,2.425,2.425,0,0,1,.981-1.982A3.97,3.97,0,0,1,84.3,2.91a4.3,4.3,0,0,1,1.853.383,3.041,3.041,0,0,1,1.278,1.09A2.8,2.8,0,0,1,87.9,5.952H86.178a1.56,1.56,0,0,0-.489-1.22,2.017,2.017,0,0,0-1.4-.441,2.107,2.107,0,0,0-1.316.362,1.206,1.206,0,0,0-.468,1.012,1.091,1.091,0,0,0,.506.913,5.828,5.828,0,0,0,1.668.711,7.672,7.672,0,0,1,1.866.786,2.968,2.968,0,0,1,1.032,1.012,2.635,2.635,0,0,1,.328,1.336,2.369,2.369,0,0,1-.954,1.979,4.136,4.136,0,0,1-2.587.735,4.862,4.862,0,0,1-1.986-.4,3.336,3.336,0,0,1-1.408-1.1,2.751,2.751,0,0,1-.5-1.641H82.2A1.61,1.61,0,0,0,82.76,11.3a2.455,2.455,0,0,0,1.606.465,2.133,2.133,0,0,0,1.357-.366A1.18,1.18,0,0,0,86.178,10.437ZM92.911,13V3.047h2.939a4.61,4.61,0,0,1,2.341.588A4.009,4.009,0,0,1,99.774,5.3a5.3,5.3,0,0,1,.561,2.475v.5a5.273,5.273,0,0,1-.564,2.488,3.96,3.96,0,0,1-1.606,1.654A4.824,4.824,0,0,1,95.775,13Zm1.729-8.559v7.178h1.128a2.6,2.6,0,0,0,2.088-.851A3.707,3.707,0,0,0,98.6,8.324V7.771a3.8,3.8,0,0,0-.7-2.475,2.5,2.5,0,0,0-2.044-.854Zm13.234,4.115h-4.088v3.063h4.778V13h-6.508V3.047h6.46V4.441h-4.73V7.189h4.088ZM4.064,21.047l2.871,7.629L9.8,21.047h2.235V31H10.313V27.719l.171-4.389L7.544,31H6.307L3.374,23.337l.171,4.382V31H1.822V21.047ZM19.9,26.557H15.809v3.063h4.778V31H14.079V21.047h6.46v1.395h-4.73v2.748H19.9Zm6.173-5.51h1.723v6.979A2.97,2.97,0,0,1,26.9,30.3a3.293,3.293,0,0,1-2.355.841,3.408,3.408,0,0,1-2.406-.786,2.836,2.836,0,0,1-.848-2.187h1.723a1.637,1.637,0,0,0,.393,1.193,1.526,1.526,0,0,0,1.138.4,1.418,1.418,0,0,0,1.111-.461,1.842,1.842,0,0,0,.414-1.275Zm11.642,5.236a6.107,6.107,0,0,1-.506,2.567,3.825,3.825,0,0,1-1.446,1.7,4.241,4.241,0,0,1-4.32,0,3.884,3.884,0,0,1-1.463-1.685,5.915,5.915,0,0,1-.523-2.522v-.561a6.054,6.054,0,0,1,.516-2.57A3.879,3.879,0,0,1,31.425,21.5a4.25,4.25,0,0,1,4.313-.007,3.83,3.83,0,0,1,1.453,1.682,6.041,6.041,0,0,1,.52,2.553Zm-1.729-.52a4.351,4.351,0,0,0-.625-2.536,2.207,2.207,0,0,0-3.527,0,4.267,4.267,0,0,0-.646,2.485v.574a4.318,4.318,0,0,0,.639,2.536,2.058,2.058,0,0,0,1.774.9,2.034,2.034,0,0,0,1.767-.875,4.411,4.411,0,0,0,.619-2.557Zm7.109,1.408H41.163V31H39.434V21.047h3.5a4.071,4.071,0,0,1,2.659.773,2.735,2.735,0,0,1,.937,2.237,2.8,2.8,0,0,1-.482,1.673A3.067,3.067,0,0,1,44.7,26.767l2.235,4.145V31H45.087Zm-1.928-1.395H42.94a1.977,1.977,0,0,0,1.367-.441A1.538,1.538,0,0,0,44.8,24.13a1.637,1.637,0,0,0-.455-1.237,1.931,1.931,0,0,0-1.357-.451H41.163Zm12.578,2.905H49.886L49.079,31h-1.8l3.76-9.953h1.552L56.359,31h-1.8Zm-3.37-1.395h2.885l-1.442-4.129Zm18.2.472a3.594,3.594,0,0,1-1.176,2.485,4.008,4.008,0,0,1-2.728.892,3.881,3.881,0,0,1-2.1-.564,3.7,3.7,0,0,1-1.4-1.6,5.785,5.785,0,0,1-.513-2.413v-.93a5.827,5.827,0,0,1,.5-2.481,3.761,3.761,0,0,1,1.432-1.654,4,4,0,0,1,2.157-.581A3.847,3.847,0,0,1,67.4,21.8a3.728,3.728,0,0,1,1.169,2.526H66.846a2.459,2.459,0,0,0-.625-1.548,2.067,2.067,0,0,0-1.473-.475,2.019,2.019,0,0,0-1.733.824,4.121,4.121,0,0,0-.619,2.419v.883a4.371,4.371,0,0,0,.578,2.463,1.917,1.917,0,0,0,1.692.848,2.236,2.236,0,0,0,1.531-.458,2.388,2.388,0,0,0,.649-1.524Zm9.488-1.477a6.107,6.107,0,0,1-.506,2.567,3.825,3.825,0,0,1-1.446,1.7,4.241,4.241,0,0,1-4.32,0,3.884,3.884,0,0,1-1.463-1.685,5.915,5.915,0,0,1-.523-2.522v-.561a6.054,6.054,0,0,1,.516-2.57A3.879,3.879,0,0,1,71.771,21.5a4.25,4.25,0,0,1,4.313-.007,3.83,3.83,0,0,1,1.453,1.682,6.041,6.041,0,0,1,.52,2.553Zm-1.729-.52a4.351,4.351,0,0,0-.625-2.536,2.207,2.207,0,0,0-3.527,0,4.267,4.267,0,0,0-.646,2.485v.574a4.318,4.318,0,0,0,.639,2.536,2.058,2.058,0,0,0,1.774.9,2.034,2.034,0,0,0,1.767-.875,4.411,4.411,0,0,0,.619-2.557ZM87.675,31H85.945l-4.437-7.062V31H79.779V21.047h1.729l4.45,7.089V21.047h1.716Zm9.037-8.559h-3.1V31H91.893V22.441H88.816V21.047h7.9ZM99.843,31H98.12V21.047h1.723Zm10.021,0h-1.729L103.7,23.938V31h-1.729V21.047H103.7l4.45,7.089V21.047h1.716Zm9.324-9.953V27.7a3.232,3.232,0,0,1-1.015,2.512,4.45,4.45,0,0,1-5.417.014,3.248,3.248,0,0,1-1-2.533V21.047h1.723v6.658a2.115,2.115,0,0,0,.506,1.524,1.973,1.973,0,0,0,1.49.526q2,0,2-2.105v-6.6Zm7.267,7.636H122.6L121.793,31H120l3.76-9.953h1.552L129.073,31h-1.8Zm-3.37-1.395h2.885l-1.442-4.129Z" transform="translate(1104 8238)" fill="#12263f"/>
    <path id="Trazado_691472" data-name="Trazado 691472" d="M12.9,9.76a3.594,3.594,0,0,1-1.176,2.485A4.008,4.008,0,0,1,9,13.137a3.881,3.881,0,0,1-2.1-.564,3.7,3.7,0,0,1-1.4-1.6,5.785,5.785,0,0,1-.513-2.413v-.93a5.827,5.827,0,0,1,.5-2.481A3.761,3.761,0,0,1,6.923,3.491,4,4,0,0,1,9.08,2.91a3.847,3.847,0,0,1,2.652.892A3.728,3.728,0,0,1,12.9,6.328H11.178a2.459,2.459,0,0,0-.625-1.548A2.067,2.067,0,0,0,9.08,4.3a2.019,2.019,0,0,0-1.733.824,4.121,4.121,0,0,0-.619,2.419v.883a4.371,4.371,0,0,0,.578,2.463A1.917,1.917,0,0,0,9,11.742a2.236,2.236,0,0,0,1.531-.458,2.388,2.388,0,0,0,.649-1.524Zm9.488-1.477a6.107,6.107,0,0,1-.506,2.567,3.825,3.825,0,0,1-1.446,1.7,4.241,4.241,0,0,1-4.32,0,3.884,3.884,0,0,1-1.463-1.685,5.915,5.915,0,0,1-.523-2.522V7.777a6.054,6.054,0,0,1,.516-2.57A3.879,3.879,0,0,1,16.1,3.5a4.25,4.25,0,0,1,4.313-.007A3.83,3.83,0,0,1,21.87,5.176a6.041,6.041,0,0,1,.52,2.553Zm-1.729-.52a4.351,4.351,0,0,0-.625-2.536,2.207,2.207,0,0,0-3.527,0,4.267,4.267,0,0,0-.646,2.485v.574a4.318,4.318,0,0,0,.639,2.536,2.058,2.058,0,0,0,1.774.9,2.034,2.034,0,0,0,1.767-.875,4.411,4.411,0,0,0,.619-2.557Zm7.109,1.408H25.841V13H24.112V3.047h3.5a4.071,4.071,0,0,1,2.659.773,2.735,2.735,0,0,1,.937,2.237,2.8,2.8,0,0,1-.482,1.673,3.067,3.067,0,0,1-1.343,1.036l2.235,4.145V13H29.765ZM25.841,7.777h1.777a1.977,1.977,0,0,0,1.367-.441,1.538,1.538,0,0,0,.492-1.207,1.637,1.637,0,0,0-.455-1.237,1.931,1.931,0,0,0-1.357-.451H25.841ZM36.505,9.172H34.578V13H32.848V3.047h3.5a4.071,4.071,0,0,1,2.659.773,2.735,2.735,0,0,1,.937,2.237,2.8,2.8,0,0,1-.482,1.673,3.067,3.067,0,0,1-1.343,1.036l2.235,4.145V13H38.5ZM34.578,7.777h1.777a1.977,1.977,0,0,0,1.367-.441,1.538,1.538,0,0,0,.492-1.207,1.637,1.637,0,0,0-.455-1.237A1.931,1.931,0,0,0,36.4,4.441H34.578ZM47.4,8.557H43.314v3.063h4.778V13H41.584V3.047h6.46V4.441h-4.73V7.189H47.4Zm9.728,3.151a3.307,3.307,0,0,1-1.5,1.066,6.108,6.108,0,0,1-2.174.362,4.284,4.284,0,0,1-2.215-.567,3.779,3.779,0,0,1-1.487-1.624,5.68,5.68,0,0,1-.543-2.464V7.7a5.268,5.268,0,0,1,1.08-3.524A3.746,3.746,0,0,1,53.308,2.91a3.963,3.963,0,0,1,2.639.824A3.549,3.549,0,0,1,57.123,6.1h-1.7a1.907,1.907,0,0,0-2.085-1.8,2.044,2.044,0,0,0-1.767.837A4.262,4.262,0,0,0,50.95,7.6v.765a4.048,4.048,0,0,0,.68,2.5,2.244,2.244,0,0,0,1.89.891,2.492,2.492,0,0,0,1.887-.6V9.206H53.356V7.894h3.773ZM60.855,13H59.132V3.047h1.723Zm5.783-3.828H64.71V13H62.981V3.047h3.5a4.071,4.071,0,0,1,2.659.773,2.735,2.735,0,0,1,.937,2.237,2.8,2.8,0,0,1-.482,1.673,3.067,3.067,0,0,1-1.343,1.036l2.235,4.145V13H68.634ZM64.71,7.777h1.777a1.977,1.977,0,0,0,1.367-.441,1.538,1.538,0,0,0,.492-1.207,1.637,1.637,0,0,0-.455-1.237,1.931,1.931,0,0,0-1.357-.451H64.71Z" transform="translate(1233 8301)" fill="#12263f"/>
    <path id="Trazado_691473" data-name="Trazado 691473" d="M7.641,9.309V13H5.911V3.047H9.719a3.85,3.85,0,0,1,2.649.869,2.922,2.922,0,0,1,.981,2.3,2.825,2.825,0,0,1-.96,2.279,4.037,4.037,0,0,1-2.69.814Zm0-1.395H9.719a2.047,2.047,0,0,0,1.408-.434,1.6,1.6,0,0,0,.485-1.254,1.721,1.721,0,0,0-.492-1.289,1.9,1.9,0,0,0-1.354-.5H7.641ZM18.517,9.172H16.589V13H14.859V3.047h3.5a4.071,4.071,0,0,1,2.659.773,2.735,2.735,0,0,1,.937,2.237,2.8,2.8,0,0,1-.482,1.673A3.067,3.067,0,0,1,20.13,8.767l2.235,4.145V13H20.513ZM16.589,7.777h1.777a1.977,1.977,0,0,0,1.367-.441,1.538,1.538,0,0,0,.492-1.207,1.637,1.637,0,0,0-.455-1.237,1.931,1.931,0,0,0-1.357-.451H16.589Zm12.824.779H25.325v3.063H30.1V13H23.6V3.047h6.46V4.441h-4.73V7.189h4.088Zm5.605,2.276,2.529-7.786h1.9L35.866,13H34.191L30.623,3.047h1.894ZM46.387,8.557H42.3v3.063h4.778V13H40.569V3.047h6.46V4.441H42.3V7.189h4.088ZM56.381,13H54.651L50.215,5.938V13H48.485V3.047h1.729l4.45,7.089V3.047h1.716Zm3.869,0H58.527V3.047H60.25Zm5.783-3.828H64.105V13H62.376V3.047h3.5a4.071,4.071,0,0,1,2.659.773,2.735,2.735,0,0,1,.937,2.237A2.8,2.8,0,0,1,68.99,7.73a3.067,3.067,0,0,1-1.343,1.036l2.235,4.145V13H68.029ZM64.105,7.777h1.777a1.977,1.977,0,0,0,1.367-.441,1.538,1.538,0,0,0,.492-1.207,1.637,1.637,0,0,0-.455-1.237,1.931,1.931,0,0,0-1.357-.451H64.105Z" transform="translate(1233 8338)" fill="#12263f"/>
    <path id="Trazado_691474" data-name="Trazado 691474" d="M12.733,3.047,15.6,10.676l2.864-7.629H20.7V13H18.981V9.719l.171-4.389L16.213,13H14.976L12.043,5.337l.171,4.382V13H10.491V3.047ZM24.573,13H22.851V3.047h1.723Zm9.119-8.559h-3.1V13H28.873V4.441H25.8V3.047h7.9ZM36.823,13H35.1V3.047h1.723Zm9.755-1.292a3.307,3.307,0,0,1-1.5,1.066,6.108,6.108,0,0,1-2.174.362,4.284,4.284,0,0,1-2.215-.567,3.779,3.779,0,0,1-1.487-1.624,5.68,5.68,0,0,1-.543-2.464V7.7a5.268,5.268,0,0,1,1.08-3.524A3.746,3.746,0,0,1,42.757,2.91a3.963,3.963,0,0,1,2.639.824A3.549,3.549,0,0,1,46.571,6.1h-1.7a1.907,1.907,0,0,0-2.085-1.8,2.044,2.044,0,0,0-1.767.837A4.262,4.262,0,0,0,40.4,7.6v.765a4.048,4.048,0,0,0,.68,2.5,2.244,2.244,0,0,0,1.89.891,2.492,2.492,0,0,0,1.887-.6V9.206H42.8V7.894h3.773Zm7.472-1.025H50.194L49.388,13h-1.8l3.76-9.953H52.9L56.668,13h-1.8ZM50.68,9.288h2.885L52.122,5.159Zm10.773-.116H59.525V13H57.8V3.047h3.5a4.071,4.071,0,0,1,2.659.773,2.735,2.735,0,0,1,.937,2.237A2.8,2.8,0,0,1,64.41,7.73a3.067,3.067,0,0,1-1.343,1.036L65.3,12.911V13H63.449ZM59.525,7.777H61.3a1.977,1.977,0,0,0,1.367-.441,1.538,1.538,0,0,0,.492-1.207,1.637,1.637,0,0,0-.455-1.237,1.931,1.931,0,0,0-1.357-.451H59.525Z" transform="translate(1233 8375)" fill="#12263f"/>
  </g>
</svg>
