<svg xmlns="http://www.w3.org/2000/svg" xmlns:xlink="http://www.w3.org/1999/xlink" width="188.41" height="255.659" viewBox="0 0 188.41 255.659">
  <defs>
    <linearGradient id="linear-gradient" y1="0.5" x2="1" y2="0.5" gradientUnits="objectBoundingBox">
      <stop offset="0" stop-color="#fff"/>
      <stop offset="0.793" stop-color="#9a9c9f"/>
      <stop offset="1" stop-color="#666"/>
    </linearGradient>
  </defs>
  <g id="_4" data-name="4" transform="translate(-24.336 -50.238)">
    <rect id="Rectángulo_337310" data-name="Rectángulo 337310" width="23.985" height="91.359" transform="translate(107.051 214.538)" fill="url(#linear-gradient)"/>
    <g id="Grupo_944419" data-name="Grupo 944419" transform="translate(24.336 50.238)">
      <path id="Trazado_681794" data-name="Trazado 681794" d="M92.731,63.192,28.619,170.05a30.095,30.095,0,0,0,25.806,45.583h64.116V48.579A29.86,29.86,0,0,0,92.731,63.192Z" transform="translate(-24.336 -48.579)" fill="#ef2753"/>
      <path id="Trazado_681795" data-name="Trazado 681795" d="M139.49,170.05,75.378,63.192a29.86,29.86,0,0,0-25.81-14.613V215.632H113.68a30.095,30.095,0,0,0,25.81-45.583Z" transform="translate(44.637 -48.579)" fill="#da0049"/>
      <path id="Trazado_681796" data-name="Trazado 681796" d="M95.113,59.089,31,165.947a11.251,11.251,0,0,0,9.647,17.04h64.116V53.627A11.155,11.155,0,0,0,95.113,59.089Z" transform="translate(-10.556 -34.78)" fill="#fff"/>
      <path id="Trazado_681797" data-name="Trazado 681797" d="M123.331,165.947,59.215,59.089a11.151,11.151,0,0,0-9.647-5.462V182.986H113.68A11.252,11.252,0,0,0,123.331,165.947Z" transform="translate(44.637 -34.78)" fill="#e5e5e5"/>
      <g id="Grupo_944417" data-name="Grupo 944417" transform="translate(85.527 47.267)">
        <path id="Trazado_681798" data-name="Trazado 681798" d="M50.287,61.239a3.044,3.044,0,0,0-3.043,3.118l1.6,63.944a3.048,3.048,0,0,0,3.043,2.968h4.036V61.239Z" transform="translate(-47.244 -61.239)" fill="#334350"/>
        <path id="Trazado_681799" data-name="Trazado 681799" d="M47.692,88.6a7,7,0,0,0,7,7v-14A7,7,0,0,0,47.692,88.6Z" transform="translate(-46.018 -5.587)" fill="#334350"/>
      </g>
      <g id="Grupo_944418" data-name="Grupo 944418" transform="translate(94.205 47.267)">
        <path id="Trazado_681800" data-name="Trazado 681800" d="M55.2,61.239H49.568v70.03H53.6a3.04,3.04,0,0,0,3.039-2.968l1.6-63.944A3.044,3.044,0,0,0,55.2,61.239Z" transform="translate(-49.568 -61.239)" fill="#182f41"/>
        <path id="Trazado_681801" data-name="Trazado 681801" d="M49.568,81.6v14a7,7,0,1,0,0-14Z" transform="translate(-49.568 -5.587)" fill="#182f41"/>
      </g>
    </g>
  </g>
</svg>
