<svg id="_40" data-name="40" xmlns="http://www.w3.org/2000/svg" xmlns:xlink="http://www.w3.org/1999/xlink" width="70" height="70" viewBox="0 0 70 70">
  <defs>
    <linearGradient id="linear-gradient" x1="0.146" y1="0.146" x2="0.854" y2="0.854" gradientUnits="objectBoundingBox">
      <stop offset="0" stop-color="#01bfff"/>
      <stop offset="1" stop-color="#3a86ca"/>
    </linearGradient>
  </defs>
  <g id="_43.go_web" data-name="43.go_web">
    <circle id="background" cx="35" cy="35" r="35" fill="url(#linear-gradient)"/>
    <g id="icon" transform="translate(17.482 16.02)">
      <path id="Trazado_682552" data-name="Trazado 682552" d="M54.811,48.983H60.72c.083.792.143,1.612.175,2.455l2.33,2.137v-.589q0-2.082-.189-4h7.1a15.133,15.133,0,0,1-.2,8.667H67.66l3.454,3.168A17.5,17.5,0,1,0,55.456,70.49H55.5v-2.3h-.023c-1.842,0-3.79-3.251-4.789-8.23h4.836v-2.3H50.317a37.327,37.327,0,0,1-.286-4.665,38.222,38.222,0,0,1,.207-4Zm14.493-2.3H62.751a21.542,21.542,0,0,0-2.841-8.234A15.266,15.266,0,0,1,69.3,46.681ZM55.479,37.788c1.9,0,3.961,3.541,4.914,8.893H50.565C51.519,41.329,53.582,37.788,55.479,37.788Zm-15.2,15.2a15.1,15.1,0,0,1,.539-4h7.1q-.184,1.92-.189,4a40.83,40.83,0,0,0,.258,4.665H41.019A15.059,15.059,0,0,1,40.282,52.985ZM51.049,67.5a15.248,15.248,0,0,1-9.068-7.548h6.341A20.514,20.514,0,0,0,51.049,67.5Zm-2.841-20.82H41.663a15.266,15.266,0,0,1,9.395-8.234A21.383,21.383,0,0,0,48.207,46.681Z" transform="translate(-37.961 -35.49)" fill="#fff"/>
      <path id="Trazado_682553" data-name="Trazado 682553" d="M80.1,68.52V88.562l5.158-5.153L89,90.625l2.722-1.4-3.606-6.954h6.963Z" transform="translate(-60.694 -53.309)" fill="#fff"/>
    </g>
  </g>
</svg>
