<svg id="_5" data-name="5" xmlns="http://www.w3.org/2000/svg" width="91.394" height="91.395" viewBox="0 0 91.394 91.395">
  <circle id="Elipse_5378" data-name="Elipse 5378" cx="44.959" cy="44.959" r="44.959" transform="translate(1.476 1.477)" fill="#ecb347"/>
  <path id="Trazado_684457" data-name="Trazado 684457" d="M28.625,73.333a44.708,44.708,0,0,1,73.924-33.841,44.708,44.708,0,1,0-63.058,63.058A44.533,44.533,0,0,1,28.625,73.333Z" transform="translate(-22.458 -22.458)" fill="#f6e597"/>
  <path id="Trazado_684458" data-name="Trazado 684458" d="M256,24a44.708,44.708,0,1,1,0,89.416Z" transform="translate(-209.75 -22.458)" fill="#0c5177"/>
  <path id="Trazado_684459" data-name="Trazado 684459" d="M297.625,73.333a44.5,44.5,0,0,1-6.01,22.4A44.708,44.708,0,0,0,256,24v4.733A44.709,44.709,0,0,1,297.625,73.333Z" transform="translate(-209.75 -22.458)" fill="#045f9c"/>
  <path id="Trazado_684460" data-name="Trazado 684460" d="M422.1,200h-6.394L408,216.958v18.5h8A44.788,44.788,0,0,0,422.1,200Z" transform="translate(-332.459 -164.542)" fill="#4895aa"/>
  <circle id="Elipse_5379" data-name="Elipse 5379" cx="7.653" cy="7.653" r="7.653" transform="translate(8.172 8.173)" fill="#e97867"/>
  <path id="Trazado_684461" data-name="Trazado 684461" d="M344,304h9.25v12.333H344Z" transform="translate(-280.792 -248.5)" fill="#7b81c6"/>
  <path id="Trazado_684462" data-name="Trazado 684462" d="M392,304h6.167v12.333H392Z" transform="translate(-319.542 -248.5)" fill="#4e52a8"/>
  <path id="Trazado_684463" data-name="Trazado 684463" d="M294.167,57.916l18.5-10.792-3.083-6.167,13.875-7.708A20.772,20.772,0,0,0,306.174,24h-1.216L292.625,39.417l4.625,9.25L288,56.375l.325.163a13.063,13.063,0,0,0,5.841,1.379Z" transform="translate(-235.584 -22.458)" fill="#d1dee0"/>
  <path id="Trazado_684464" data-name="Trazado 684464" d="M323.461,35.066a20.771,20.771,0,0,0-13.073-8.817,20.762,20.762,0,0,1,8.448,7.275l-11.128,6.182a3.282,3.282,0,0,0-1.342,4.337l.3.6a3.282,3.282,0,0,1-1.282,4.3l-14.766,8.614a4.094,4.094,0,0,1-2.506.548l-.014,0-.1.081.326.163a13.063,13.063,0,0,0,5.84,1.378l18.5-10.792-3.083-6.167Z" transform="translate(-235.587 -24.274)" fill="#b6c4c6"/>
  <path id="Trazado_684465" data-name="Trazado 684465" d="M132.331,317.875v-9.25a4.625,4.625,0,1,0-9.25,0v9.25a7.708,7.708,0,1,0,9.25,0Z" transform="translate(-99.956 -248.5)" fill="#d1dee0"/>
  <path id="Trazado_684466" data-name="Trazado 684466" d="M0,0H3.083V4.36H0Z" transform="translate(3.533 5.715) rotate(-45)" fill="#eeaaa8"/>
  <path id="Trazado_684467" data-name="Trazado 684467" d="M88,16h3.083v3.083H88Z" transform="translate(-74.125 -16)" fill="#eeaaa8"/>
  <path id="Trazado_684468" data-name="Trazado 684468" d="M16,88h3.083v3.083H16Z" transform="translate(-16 -74.125)" fill="#eeaaa8"/>
  <path id="Trazado_684469" data-name="Trazado 684469" d="M328,278.167h12.333L334.167,272Z" transform="translate(-267.875 -222.667)" fill="#e97867"/>
  <path id="Trazado_684470" data-name="Trazado 684470" d="M390.967,33.25H394.5A20.772,20.772,0,0,0,377.216,24H376a16.734,16.734,0,0,0,14.967,9.25Z" transform="translate(-306.625 -22.458)" fill="#b6c4c6"/>
  <path id="Trazado_684471" data-name="Trazado 684471" d="M0,0H3.083V3.447H0Z" transform="translate(47.074 38.392) rotate(-63.435)" fill="#4895aa"/>
  <path id="Trazado_684472" data-name="Trazado 684472" d="M296,216h3.083v3.083H296Z" transform="translate(-242.042 -177.459)" fill="#4895aa"/>
  <path id="Trazado_684473" data-name="Trazado 684473" d="M384,179.083a3.083,3.083,0,0,0,3.083,3.083h16A44.379,44.379,0,0,0,401.312,176H387.083A3.083,3.083,0,0,0,384,179.083Z" transform="translate(-313.084 -145.167)" fill="#96d6e4"/>
  <path id="Trazado_684474" data-name="Trazado 684474" d="M413.875,208v3.083a18.5,18.5,0,0,1-3.7,11.1l-.925,1.233a5.264,5.264,0,0,1-3.722,1.542h-3.986L400,220.333l4.625-6.167V208Z" transform="translate(-326 -171)" fill="#2a6377"/>
  <path id="Trazado_684475" data-name="Trazado 684475" d="M354.792,220.333l3.961-2.64A9.02,9.02,0,0,0,362.5,208h-6.167A6.674,6.674,0,0,1,352,214.249l-8,3,3.083,3.083Z" transform="translate(-280.792 -171)" fill="#4895aa"/>
  <path id="Trazado_684476" data-name="Trazado 684476" d="M242.5,54.167V51.083A3.083,3.083,0,0,0,239.417,48H227.083a3.083,3.083,0,1,0,0,6.167h4.625V57.25a3.083,3.083,0,0,0,3.083,3.083h9.25a3.083,3.083,0,1,0,0-6.167Z" transform="translate(-183.917 -41.833)" fill="#b6c4c6"/>
  <path id="Trazado_684477" data-name="Trazado 684477" d="M266.632,101.621l-2.18-2.18,2.861-2.86-2.259-.753a1.542,1.542,0,0,1-.891-2.152l4.625-9.25,2.758,1.379-3.83,7.66,2.939.98a1.542,1.542,0,0,1,.6,2.553Z" transform="translate(-216.209 -71.24)" fill="#ecb347"/>
  <path id="Trazado_684478" data-name="Trazado 684478" d="M148.624,340.75V328h-3.083v12.75a3.083,3.083,0,1,0,3.083,0Z" transform="translate(-119.332 -267.875)" fill="#af1e4b"/>
  <g id="Grupo_945228" data-name="Grupo 945228" transform="translate(6.182 40.935)">
    <path id="Trazado_684479" data-name="Trazado 684479" d="M195.928,246.76l-1.841-3.681a6.346,6.346,0,0,1,.395-6.343,3.255,3.255,0,0,0,.2-3.253l-1.84-3.681,2.758-1.379,1.841,3.681a6.346,6.346,0,0,1-.395,6.343,3.255,3.255,0,0,0-.2,3.253l1.84,3.681Z" transform="translate(-164.948 -228.423)" fill="#af4f45"/>
    <path id="Trazado_684480" data-name="Trazado 684480" d="M235.928,254.76l-1.841-3.681a6.346,6.346,0,0,1,.395-6.343,3.255,3.255,0,0,0,.2-3.253l-1.84-3.681,2.758-1.379,1.841,3.681a6.346,6.346,0,0,1-.395,6.343,3.255,3.255,0,0,0-.2,3.253l1.84,3.681Z" transform="translate(-197.239 -234.881)" fill="#af4f45"/>
    <path id="Trazado_684481" data-name="Trazado 684481" d="M50.837,254.76l-2.758-1.379,1.84-3.681a3.254,3.254,0,0,0-.2-3.253,6.345,6.345,0,0,1-.395-6.343l1.84-3.681L53.92,237.8l-1.84,3.681a3.254,3.254,0,0,0,.2,3.254,6.345,6.345,0,0,1,.395,6.343Z" transform="translate(-48.079 -234.881)" fill="#af4f45"/>
    <path id="Trazado_684482" data-name="Trazado 684482" d="M90.837,246.76l-2.758-1.379,1.84-3.681a3.254,3.254,0,0,0-.2-3.253,6.345,6.345,0,0,1-.395-6.343l1.84-3.681L93.92,229.8l-1.84,3.681a3.254,3.254,0,0,0,.2,3.254,6.345,6.345,0,0,1,.395,6.343Z" transform="translate(-80.371 -228.423)" fill="#af4f45"/>
  </g>
  <path id="Trazado_684483" data-name="Trazado 684483" d="M70.49,172.625H53.718a7.9,7.9,0,0,1-5.583-2.313A7.894,7.894,0,0,0,42.553,168H40.747a7.9,7.9,0,0,0-4.737,1.579l-4.061,3.046-5.089,2.544q-.4,1.785-.653,3.623H70.49Z" transform="translate(-24.24 -138.708)" fill="#c18423"/>
  <path id="Trazado_684484" data-name="Trazado 684484" d="M190.167,123.083v3.083h-3.083V120H184v13.875h3.083V129.25h4.625a1.542,1.542,0,0,0,1.542-1.542v-4.625Z" transform="translate(-151.625 -99.958)" fill="#64962f"/>
  <path id="Trazado_684485" data-name="Trazado 684485" d="M360,272h9.25l6.167,6.167h-9.25Z" transform="translate(-293.709 -222.667)" fill="#af4f45"/>
  <path id="Trazado_684486" data-name="Trazado 684486" d="M288.375,407.882l-1.621-1.081a5.1,5.1,0,0,0-5.891.164l-.2.146a5.139,5.139,0,0,1-6.167,0,5.139,5.139,0,0,0-6.167,0l-1.866,1.4a4.567,4.567,0,0,1-2.74.913H256v12.333A44.581,44.581,0,0,0,288.375,407.882Z" transform="translate(-209.75 -330.799)" fill="#4895aa"/>
  <path id="Trazado_684487" data-name="Trazado 684487" d="M283.75,351.87a4.36,4.36,0,0,1-6.167,0,4.361,4.361,0,0,0-6.167,0,4.36,4.36,0,0,1-6.167,0l-.336-.336a4.36,4.36,0,0,0-5.792-.333L256,353.677v10.792h7.728a4.567,4.567,0,0,0,2.739-.913l1.866-1.4a5.139,5.139,0,0,1,6.167,0,5.139,5.139,0,0,0,6.167,0l.2-.146a5.1,5.1,0,0,1,5.891-.164l1.621,1.081a44.886,44.886,0,0,0,5.976-7.846l-4.435-3.211A4.361,4.361,0,0,0,283.75,351.87Z" transform="translate(-209.75 -285.844)" fill="#96d6e4"/>
  <path id="Trazado_684488" data-name="Trazado 684488" d="M265.542,432l6.167,3.083-3.083,3.083L264,436.625Z" transform="translate(-216.209 -351.834)" fill="#0c5177"/>
  <path id="Trazado_684489" data-name="Trazado 684489" d="M272,384h3.083v3.083H272Z" transform="translate(-222.667 -313.084)" fill="#4895aa"/>
  <path id="Trazado_684490" data-name="Trazado 684490" d="M0,0H3.447V3.083H0Z" transform="translate(64.016 69.521) rotate(-26.565)" fill="#4895aa"/>
  <path id="Trazado_684491" data-name="Trazado 684491" d="M0,0H3.083V3.447H0Z" transform="translate(60.927 83.097) rotate(-63.435)" fill="#0c5177"/>
</svg>
