<svg xmlns="http://www.w3.org/2000/svg" width="165" height="165" viewBox="0 0 165 165">
  <g id="_1" data-name="1" transform="translate(-367 -493)">
    <circle id="Elipse_5497" data-name="Elipse 5497" cx="82.5" cy="82.5" r="82.5" transform="translate(367 493)" fill="#ccd3ca"/>
    <g id="verano" transform="translate(383.579 514)">
      <path id="Trazado_690781" data-name="Trazado 690781" d="M23.371,39.1q-1.967,1.973-3.74,4.13l-5.75,8.394a57.849,57.849,0,0,0-3.943,8.545L7.4,69.456A58.656,58.656,0,0,0,6.9,87.576s70.082,11.649,114.981,2.069A58.144,58.144,0,0,0,64.539,22,57.849,57.849,0,0,0,31.162,32.538Z" transform="translate(0 -16.781)" fill="#00adf4"/>
      <path id="Trazado_690782" data-name="Trazado 690782" d="M283.165,302.35c-3.537,0-3.537,1.754-7.073,1.754s-3.537-1.754-7.074-1.754-3.537,1.754-7.073,1.754-3.537-1.754-7.073-1.754-3.536,1.754-7.072,1.754-3.537-1.754-7.073-1.754-3.537,1.754-7.073,1.754-3.537-1.754-7.073-1.754a6.745,6.745,0,0,0-3.356.788,62.473,62.473,0,0,1,5.218,3.769c3.332,2.674,6.523,5.029,9.578,7.095a6.718,6.718,0,0,1,2.707-.49c3.537,0,3.537,1.754,7.073,1.754s3.536-1.754,7.072-1.754,3.537,1.754,7.073,1.754,3.537-1.754,7.073-1.754,3.537,1.754,7.074,1.754,3.537-1.754,7.073-1.754a8.073,8.073,0,0,1,1.45.12,57.684,57.684,0,0,0,2.634-10.141,7.843,7.843,0,0,0-4.084-1.14Z" transform="translate(-165.372 -230.627)" fill="#5ccbf7"/>
      <path id="Trazado_690783" data-name="Trazado 690783" d="M261.737,304.1c-3.329-.068-3.4-1.75-6.867-1.75-3.536,0-3.536,1.754-7.072,1.754s-3.537-1.754-7.073-1.754-3.537,1.754-7.073,1.754-3.537-1.754-7.073-1.754a6.745,6.745,0,0,0-3.356.788,62.436,62.436,0,0,1,5.218,3.769c3.332,2.674,6.523,5.029,9.578,7.095a6.719,6.719,0,0,1,2.707-.49c3.537,0,3.537,1.754,7.073,1.754s3.536-1.754,7.072-1.754c3.108,0,3.485,1.354,5.93,1.682a3.68,3.68,0,0,0-.7-2.037c-2.775-3.82-.252-7.076,1.1-8.409a3.809,3.809,0,0,0,.526-.648Z" transform="translate(-165.372 -230.627)" fill="#2ebcf6"/>
      <g id="Grupo_947464" data-name="Grupo 947464" transform="translate(70.49 5.789)">
        <circle id="Elipse_5503" data-name="Elipse 5503" cx="17.928" cy="17.928" r="17.928" transform="translate(0 31.626) rotate(-61.847)" fill="#ffe400"/>
      </g>
      <path id="Trazado_690784" data-name="Trazado 690784" d="M331.27,82.54a17.916,17.916,0,0,1-12.8-30.46,17.927,17.927,0,1,0,15.428,30.266A17.958,17.958,0,0,1,331.27,82.54Z" transform="translate(-226.348 -39.726)" fill="#fdca00"/>
      <g id="Grupo_947465" data-name="Grupo 947465" transform="translate(92.781 0)">
        <path id="Trazado_690785" data-name="Trazado 690785" d="M372.433,7.519a1.961,1.961,0,0,1-1.961-1.961v-3.6a1.961,1.961,0,0,1,3.923,0v3.6A1.961,1.961,0,0,1,372.433,7.519Z" transform="translate(-370.472 0)" fill="#ffe400"/>
      </g>
      <g id="Grupo_947466" data-name="Grupo 947466" transform="translate(92.781 52.658)">
        <path id="Trazado_690786" data-name="Trazado 690786" d="M372.433,229.5a1.961,1.961,0,0,1-1.961-1.961v-3.6a1.961,1.961,0,1,1,3.923,0v3.6A1.961,1.961,0,0,1,372.433,229.5Z" transform="translate(-370.472 -221.982)" fill="#fdca00"/>
      </g>
      <g id="Grupo_947467" data-name="Grupo 947467" transform="translate(78.717 3.768)">
        <path id="Trazado_690787" data-name="Trazado 690787" d="M313.246,21.942l-1.8-3.115a1.961,1.961,0,0,1,3.4-1.961l1.8,3.115a1.961,1.961,0,1,1-3.4,1.961Z" transform="translate(-311.185 -15.885)" fill="#fdca00"/>
      </g>
      <g id="Grupo_947468" data-name="Grupo 947468" transform="translate(105.046 49.372)">
        <path id="Trazado_690788" data-name="Trazado 690788" d="M424.236,214.184l-1.8-3.115a1.961,1.961,0,1,1,3.4-1.961l1.8,3.115a1.961,1.961,0,0,1-3.4,1.961Z" transform="translate(-422.175 -208.127)" fill="#fdca00"/>
      </g>
      <g id="Grupo_947469" data-name="Grupo 947469" transform="translate(68.421 14.063)">
        <path id="Trazado_690789" data-name="Trazado 690789" d="M271.88,64.743l-3.115-1.8a1.961,1.961,0,1,1,1.961-3.4l3.115,1.8a1.961,1.961,0,1,1-1.961,3.4Z" transform="translate(-267.784 -59.284)" fill="#fdca00"/>
      </g>
      <g id="Grupo_947470" data-name="Grupo 947470" transform="translate(114.025 40.393)">
        <path id="Trazado_690790" data-name="Trazado 690790" d="M464.121,175.734l-3.115-1.8a1.961,1.961,0,0,1,1.961-3.4l3.115,1.8a1.961,1.961,0,0,1-1.961,3.4Z" transform="translate(-460.025 -170.275)" fill="#ffe400"/>
      </g>
      <g id="Grupo_947471" data-name="Grupo 947471" transform="translate(117.311 28.128)">
        <path id="Trazado_690791" data-name="Trazado 690791" d="M479.439,122.495h-3.6a1.961,1.961,0,1,1,0-3.923h3.6a1.961,1.961,0,1,1,0,3.923Z" transform="translate(-473.881 -118.572)" fill="#ffe400"/>
      </g>
      <g id="Grupo_947472" data-name="Grupo 947472" transform="translate(68.421 40.392)">
        <path id="Trazado_690792" data-name="Trazado 690792" d="M268.048,175.015a1.961,1.961,0,0,1,.718-2.679l3.115-1.8a1.961,1.961,0,1,1,1.961,3.4l-3.115,1.8A1.961,1.961,0,0,1,268.048,175.015Z" transform="translate(-267.785 -170.275)" fill="#fdca00"/>
      </g>
      <g id="Grupo_947473" data-name="Grupo 947473" transform="translate(114.025 14.063)">
        <path id="Trazado_690793" data-name="Trazado 690793" d="M460.289,64.025a1.961,1.961,0,0,1,.718-2.679l3.115-1.8a1.961,1.961,0,0,1,1.961,3.4l-3.115,1.8A1.961,1.961,0,0,1,460.289,64.025Z" transform="translate(-460.026 -59.284)" fill="#ffe400"/>
      </g>
      <g id="Grupo_947474" data-name="Grupo 947474" transform="translate(78.717 49.371)">
        <path id="Trazado_690794" data-name="Trazado 690794" d="M312.165,214.9a1.961,1.961,0,0,1-.718-2.679l1.8-3.115a1.961,1.961,0,0,1,3.4,1.961l-1.8,3.115A1.961,1.961,0,0,1,312.165,214.9Z" transform="translate(-311.184 -208.126)" fill="#fdca00"/>
      </g>
      <g id="Grupo_947475" data-name="Grupo 947475" transform="translate(105.046 3.768)">
        <path id="Trazado_690795" data-name="Trazado 690795" d="M423.155,22.658a1.961,1.961,0,0,1-.718-2.679l1.8-3.115a1.961,1.961,0,0,1,3.4,1.961l-1.8,3.115A1.961,1.961,0,0,1,423.155,22.658Z" transform="translate(-422.174 -15.883)" fill="#ffe400"/>
      </g>
      <path id="Trazado_690796" data-name="Trazado 690796" d="M330.229,348.661c-3.537,0-3.537,1.754-7.073,1.754s-3.537-1.754-7.074-1.754-3.537,1.754-7.073,1.754-3.537-1.754-7.073-1.754-3.536,1.754-7.072,1.754-3.537-1.754-7.073-1.754a6.665,6.665,0,0,0-2.867.558c17.678,11.993,30.816,14.29,40.371,12.375a57.911,57.911,0,0,0,6.443-12.8A7.988,7.988,0,0,0,330.229,348.661Z" transform="translate(-212.436 -265.952)" fill="#8adaf9"/>
      <path id="Trazado_690797" data-name="Trazado 690797" d="M308.591,360.74c-2.909-3.223-2.246-6.232-1.209-8.161a4.023,4.023,0,0,0,.472-2.236c-2.435-.331-2.816-1.681-5.919-1.681-3.536,0-3.536,1.754-7.072,1.754s-3.537-1.754-7.073-1.754a6.664,6.664,0,0,0-2.867.558c9.032,6.128,16.879,9.723,23.668,11.52Z" transform="translate(-212.436 -265.953)" fill="#5ccbf7"/>
      <path id="Trazado_690798" data-name="Trazado 690798" d="M64.595,280.542c-23.377-18.761-45.4-10.844-56.173-4.7a57.79,57.79,0,0,0,9.868,25.642v0l12.546,13.126h0a58.127,58.127,0,0,0,84.149-14.83c-11.2,2.49-27.459-.831-50.39-19.234Z" transform="translate(-1.526 -205.047)" fill="#fff2b9"/>
      <path id="Trazado_690799" data-name="Trazado 690799" d="M51.422,324.648c-6.949-9.67,18.174-16.454,4.386-26.941-12.521-9.523-4.882-20.055-1.428-23.8-19.408-9.819-36.77-3.3-45.958,1.943a57.79,57.79,0,0,0,9.868,25.642v0l12.546,13.126h0A57.914,57.914,0,0,0,51.422,324.648Z" transform="translate(-1.526 -205.055)" fill="#fcde63"/>
      <path id="Trazado_690800" data-name="Trazado 690800" d="M27.5,173.3a35.1,35.1,0,0,0-14.411,2.241,57.691,57.691,0,0,0-2.537,9.291,4.282,4.282,0,0,1,4.114.7.7.7,0,0,0,.953-.14c1.053-1.365,4.075-4.567,8.02-2.548a.7.7,0,0,0,.885-.19,7.472,7.472,0,0,1,1.505-1.476,7.227,7.227,0,0,1,1.47-7.88Z" transform="translate(-3.149 -132.157)" fill="#389f4d"/>
      <g id="Grupo_947476" data-name="Grupo 947476" transform="translate(13.46 41.099)">
        <path id="Trazado_690801" data-name="Trazado 690801" d="M37.717,183.023a5.337,5.337,0,0,1,5.405-.178.7.7,0,0,0,.885-.19,7.478,7.478,0,0,1,1.505-1.476,7.229,7.229,0,0,1,1.47-7.88,36.143,36.143,0,0,0-10.888,1.1C41.028,178.557,37.717,183.023,37.717,183.023Z" transform="translate(-36.095 -173.255)" fill="#2b8e3b"/>
      </g>
      <path id="Trazado_690802" data-name="Trazado 690802" d="M54.062,122.815a9.039,9.039,0,0,0,.747-3.365,39.049,39.049,0,0,0-11.193-7.967,58.246,58.246,0,0,0-5.75,8.394c2.156-.026,4.983.62,6.267,3.83a.76.76,0,0,0,.853.473,6.494,6.494,0,0,1,4.893.788,7.272,7.272,0,0,1,5.645-.739,10.981,10.981,0,0,0-1.3-.908.406.406,0,0,1-.158-.505Z" transform="translate(-23.985 -85.036)" fill="#60b550"/>
      <g id="Grupo_947477" data-name="Grupo 947477" transform="translate(16.169 27.163)">
        <path id="Trazado_690803" data-name="Trazado 690803" d="M61.58,125.628a.406.406,0,0,1-.157-.505,9.035,9.035,0,0,0,.747-3.365,39.567,39.567,0,0,0-9.739-7.25c1.513,7.134-4.914,7.942-4.914,7.942h0a5.687,5.687,0,0,1,3.977,3.562.76.76,0,0,0,.854.473,6.494,6.494,0,0,1,4.893.788,7.272,7.272,0,0,1,5.645-.739,11.019,11.019,0,0,0-1.3-.908Z" transform="translate(-47.515 -114.508)" fill="#389f4d"/>
      </g>
      <path id="Trazado_690804" data-name="Trazado 690804" d="M77.871,72.982A6.185,6.185,0,0,1,79.747,78.7a.822.822,0,0,0,.525.916c1.777.643,6.289,2.922,3.816,8.919a.816.816,0,0,0,.329,1.018l.07.042a7.229,7.229,0,0,1,2.444.562l.509.217.216-.509a7.277,7.277,0,0,1,5.276-4.285,43.706,43.706,0,0,0-7.269-19.164,58.383,58.383,0,0,0-7.792,6.56Z" transform="translate(-54.501 -50.665)" fill="#85d249"/>
      <g id="Grupo_947478" data-name="Grupo 947478" transform="translate(25.023 20.754)">
        <path id="Trazado_690805" data-name="Trazado 690805" d="M92.756,106.448l.216-.509a7.276,7.276,0,0,1,5.276-4.285,45.654,45.654,0,0,0-4.291-14.166c-2.223,6.456-9.117,4.1-9.117,4.1a6.422,6.422,0,0,1,.223,3.183.823.823,0,0,0,.525.916c1.777.643,6.289,2.922,3.816,8.919a.816.816,0,0,0,.329,1.018l.07.042a7.228,7.228,0,0,1,2.444.562Z" transform="translate(-84.84 -87.488)" fill="#60b550"/>
      </g>
      <path id="Trazado_690806" data-name="Trazado 690806" d="M70.67,207.086l-.625-.266-.625-.266a7.109,7.109,0,0,1-3.909,3.835,7.19,7.19,0,0,1-1.9.473,173.23,173.23,0,0,0-13.592,43.127,58.438,58.438,0,0,0,12.546,13.126c.256-17.077,2.66-35.329,8.835-53.128A7.149,7.149,0,0,1,70.67,207.086Z" transform="translate(-33.258 -157.555)" fill="#ea7768"/>
      <path id="Trazado_690807" data-name="Trazado 690807" d="M92.288,207.086l-.625-.266-.625-.266a7.109,7.109,0,0,1-3.909,3.835,7.19,7.19,0,0,1-1.9.473A164.181,164.181,0,0,0,78.363,227.9c.039-.026,5.833-3.944,9.715,3.816l0,0a151.256,151.256,0,0,1,4.941-17.728A7.148,7.148,0,0,1,92.288,207.086Z" transform="translate(-54.876 -157.555)" fill="#d85e41"/>
      <g id="Grupo_947479" data-name="Grupo 947479" transform="translate(46.455 52.167)">
        <path id="Trazado_690808" data-name="Trazado 690808" d="M194.39,259.673c3.229-19.871-6.045-32.6-14.338-39.762a7.311,7.311,0,0,1-4.865,7.064,7.691,7.691,0,0,1,.816,5.013.862.862,0,0,0,.583.942c5.127,1.765,4.867,7.145,4.557,9.232a.851.851,0,0,0,.685.96c5.422,1.035,4.876,6.46,4.443,8.581a.849.849,0,0,0,.634.994c3.362.805,5.013,4.2,5.819,7.08A.855.855,0,0,0,194.39,259.673Z" transform="translate(-175.186 -219.911)" fill="#389f4d"/>
      </g>
      <g id="Grupo_947480" data-name="Grupo 947480" transform="translate(46.455 52.167)">
        <path id="Trazado_690809" data-name="Trazado 690809" d="M190.838,233.555a44.44,44.44,0,0,0-10.787-13.644,7.311,7.311,0,0,1-4.865,7.064,7.691,7.691,0,0,1,.816,5.013.862.862,0,0,0,.583.942,6.683,6.683,0,0,1,4.585,5.738c2.177-7.67,9.59-5.139,9.669-5.112Z" transform="translate(-175.186 -219.911)" fill="#2b8e3b"/>
      </g>
      <g id="Grupo_947481" data-name="Grupo 947481" transform="translate(46.005 42.265)">
        <path id="Trazado_690810" data-name="Trazado 690810" d="M218.553,200.3c-11.1-17.855-26.991-21.944-38.71-22.126a11.059,11.059,0,0,0-2.334,3.513.5.5,0,0,1-.579.29,12.909,12.909,0,0,0-3.645-.474,7.328,7.328,0,0,1,4.354,5.6c3.4-.231,5.535,2.441,6.368,3.745a.929.929,0,0,0,1.141.352c5.414-2.2,9.015,2.354,10.241,4.268a.917.917,0,0,0,1.236.294c5.136-3,8.536,1.791,9.688,3.821a.914.914,0,0,0,1.219.357c3.3-1.728,7.043-.145,9.741,1.627a.921.921,0,0,0,1.28-1.264Z" transform="translate(-173.286 -178.17)" fill="#60b550"/>
      </g>
      <g id="Grupo_947482" data-name="Grupo 947482" transform="translate(46.005 42.265)">
        <path id="Trazado_690811" data-name="Trazado 690811" d="M179.843,178.17a11.059,11.059,0,0,0-2.334,3.513.5.5,0,0,1-.579.29,12.909,12.909,0,0,0-3.645-.474,7.328,7.328,0,0,1,4.354,5.6c3.4-.231,5.535,2.441,6.368,3.745a.929.929,0,0,0,1.141.352,6.964,6.964,0,0,1,5.026-.217c-4.5-6.971,1.921-10.574,1.921-10.574l.434-.4A49.107,49.107,0,0,0,179.843,178.17Z" transform="translate(-173.286 -178.17)" fill="#389f4d"/>
      </g>
      <g id="Grupo_947483" data-name="Grupo 947483" transform="translate(45.17 25.595)">
        <path id="Trazado_690812" data-name="Trazado 690812" d="M224.426,113.767c-24.828-12.607-44.734-2.126-54.658,5.546a7.338,7.338,0,0,1,1.429,7.914l-.2.465.465.2a7.324,7.324,0,0,1,1.564.908,13.2,13.2,0,0,1,1.825.369,1,1,0,0,0,1.177-.574c3.189-7.268,9.026-5.223,11.1-4.2a1.006,1.006,0,0,0,1.253-.314c3.78-5.073,9.669-2.877,11.878-1.792a.993.993,0,0,0,1.309-.421c3.073-5.66,8.91-3.13,11.114-1.9a.99.99,0,0,0,1.33-.353c2.087-3.451,6.441-4.085,9.934-3.958a1,1,0,0,0,.477-1.889Z" transform="translate(-169.768 -107.896)" fill="#85d249"/>
      </g>
      <g id="Grupo_947484" data-name="Grupo 947484" transform="translate(45.17 29.443)">
        <path id="Trazado_690813" data-name="Trazado 690813" d="M169.768,131.686A7.338,7.338,0,0,1,171.2,139.6l-.2.465.465.2a7.325,7.325,0,0,1,1.564.908,13.2,13.2,0,0,1,1.825.369,1,1,0,0,0,1.177-.574c3.189-7.268,9.026-5.223,11.1-4.2a1.006,1.006,0,0,0,1.253-.314,8.67,8.67,0,0,1,1.336-1.433c-9.184-1.515-7.079-10.9-7.079-10.9A58.062,58.062,0,0,0,169.768,131.686Z" transform="translate(-169.768 -124.117)" fill="#60b550"/>
      </g>
      <g id="Grupo_947485" data-name="Grupo 947485" transform="translate(39.106 0.286)">
        <path id="Trazado_690814" data-name="Trazado 690814" d="M174.633,1.219c-19.5,4.288-27.326,22.26-30.426,34.517a7.255,7.255,0,0,1,7.192,3.856c-.055-5.673,3.62-7.139,5.148-7.5a.981.981,0,0,0,.627-1c.026-6.368,4.633-8.1,6.479-8.543a1,1,0,0,0,.613-1.123c-.673-6.421,4.053-7.855,5.964-8.171a.969.969,0,0,0,.657-1.08c-.279-4.043,2.106-7.156,4.307-9.137.672-.605.241-1.991-.562-1.815Z" transform="translate(-144.207 -1.204)" fill="#a3ea6e"/>
      </g>
      <g id="Grupo_947486" data-name="Grupo 947486" transform="translate(39.106 20.32)">
        <path id="Trazado_690815" data-name="Trazado 690815" d="M159.027,89.766c-8.17,3.29-9.322-4.025-9.335-4.105a65.014,65.014,0,0,0-5.485,14.5,7.255,7.255,0,0,1,7.192,3.856c-.055-5.673,3.62-7.139,5.148-7.5a.981.981,0,0,0,.627-1,8.8,8.8,0,0,1,1.853-5.744Z" transform="translate(-144.207 -85.661)" fill="#85d249"/>
      </g>
      <g id="Grupo_947487" data-name="Grupo 947487" transform="translate(32.559 34.22)">
        <path id="Trazado_690816" data-name="Trazado 690816" d="M131.014,155.373c.033-.071.067-.142.1-.215a7.834,7.834,0,0,0-14.417-6.135c-.031.073-.058.147-.087.22a7.606,7.606,0,0,1,4.013,9.958c.072.033.142.067.215.1s.147.058.22.087A7.607,7.607,0,0,1,131.014,155.373Z" transform="translate(-116.608 -144.254)" fill="#725057"/>
      </g>
      <g id="Grupo_947488" data-name="Grupo 947488" transform="translate(32.559 34.22)">
        <path id="Trazado_690817" data-name="Trazado 690817" d="M124.17,151.464a7.819,7.819,0,0,1,5.571-4.588,7.82,7.82,0,0,0-13.046,2.146c-.031.073-.058.147-.087.22a7.606,7.606,0,0,1,4.013,9.958c.072.033.142.067.215.1s.147.058.22.087a7.543,7.543,0,0,1,2.658-3.25A7.794,7.794,0,0,1,124.17,151.464Z" transform="translate(-116.608 -144.253)" fill="#603f42"/>
      </g>
      <g id="Grupo_947489" data-name="Grupo 947489" transform="translate(32.931 41.267)">
        <ellipse id="Elipse_5504" data-name="Elipse 5504" cx="7.834" cy="7.834" rx="7.834" ry="7.834" transform="translate(0 10.592) rotate(-42.528)" fill="#8e6877"/>
      </g>
      <g id="Grupo_947490" data-name="Grupo 947490" transform="translate(36.16 44.498)">
        <path id="Trazado_690818" data-name="Trazado 690818" d="M143.807,201.271a7.835,7.835,0,0,1-1.827-13.326,7.833,7.833,0,1,0,2.537,13.587C144.279,201.457,144.042,201.371,143.807,201.271Z" transform="translate(-131.787 -187.581)" fill="#7e5966"/>
      </g>
      <g id="Grupo_947491" data-name="Grupo 947491" transform="translate(19.22 35.821)">
        <ellipse id="Elipse_5505" data-name="Elipse 5505" cx="7.834" cy="7.834" rx="7.834" ry="7.834" transform="matrix(0.91, -0.416, 0.416, 0.91, 0, 6.518)" fill="#7e5966"/>
      </g>
      <g id="Grupo_947492" data-name="Grupo 947492" transform="translate(21.743 38.363)">
        <path id="Trazado_690819" data-name="Trazado 690819" d="M83.031,175.409A7.835,7.835,0,0,1,81.2,162.083a7.833,7.833,0,1,0,2.538,13.587C83.5,175.595,83.266,175.509,83.031,175.409Z" transform="translate(-71.011 -161.719)" fill="#725057"/>
      </g>
      <g id="Grupo_947493" data-name="Grupo 947493" transform="translate(93.951 18.657)">
        <circle id="Elipse_5506" data-name="Elipse 5506" cx="3.833" cy="3.833" r="3.833" transform="matrix(0.921, -0.389, 0.389, 0.921, 0, 4.333)" fill="#fff442"/>
        <circle id="Elipse_5507" data-name="Elipse 5507" cx="1.481" cy="1.481" r="1.481" transform="translate(8.683)" fill="#fff442"/>
      </g>
    </g>
  </g>
</svg>
