<svg xmlns="http://www.w3.org/2000/svg" width="165" height="165" viewBox="0 0 165 165">
  <g id="_2" data-name="2" transform="translate(-714 -494)">
    <circle id="Elipse_5498" data-name="Elipse 5498" cx="82.5" cy="82.5" r="82.5" transform="translate(714 494)" fill="#ccd3ca"/>
    <g id="carnival-mask" transform="translate(736 516)">
      <path id="Trazado_690820" data-name="Trazado 690820" d="M121.456,60.728a60.737,60.737,0,0,1-54.695,60.433q-2.979.293-6.033.295c-.339,0-.682,0-1.018-.01a60.873,60.873,0,0,1-11.14-1.206A60.775,60.775,0,0,1,.644,69.6,60.773,60.773,0,0,1,60.728,0a60.69,60.69,0,0,1,60.728,60.728Zm0,0" fill="#3d4e61"/>
      <path id="Trazado_690821" data-name="Trazado 690821" d="M73.007,126.449a14.3,14.3,0,0,1-3.871-.5l.721-2.372.705-2.375a9.411,9.411,0,0,0,8.848-2.284l3.506,3.505A13.709,13.709,0,0,1,73.007,126.449Zm0,0" transform="translate(-52.736 -90.711)" fill="#ed32a2"/>
      <path id="Trazado_690822" data-name="Trazado 690822" d="M458.862,239.072a14.367,14.367,0,0,1,1.383,3.649l-2.432.479-2.429.495a9.411,9.411,0,0,0-6.176-6.734l1.445-4.742A13.71,13.71,0,0,1,458.862,239.072Zm0,0" transform="translate(-342.647 -177.132)" fill="#fc70bd"/>
      <path id="Trazado_690823" data-name="Trazado 690823" d="M340.893,238.112a14.325,14.325,0,0,1-3.67-1.323l1.219-2.159,1.2-2.166a9.409,9.409,0,0,0,9.132-.31l2.662,4.182A13.7,13.7,0,0,1,340.893,238.112Zm0,0" transform="translate(-257.227 -177.081)" fill="#ff9124"/>
      <path id="Trazado_690824" data-name="Trazado 690824" d="M383.34,32.3a14.35,14.35,0,0,1,3.794-.915l.171,2.474.186,2.47a9.409,9.409,0,0,0-7.455,5.284l-4.524-2.028A13.7,13.7,0,0,1,383.34,32.3Zm0,0" transform="translate(-286.433 -23.938)" fill="#ff9124"/>
      <path id="Trazado_690825" data-name="Trazado 690825" d="M384.158,349.639a14.393,14.393,0,0,1-.686-3.841l2.48-.022,2.478-.038a9.41,9.41,0,0,0,4.828,7.758l-2.3,4.394A13.709,13.709,0,0,1,384.158,349.639Zm0,0" transform="translate(-292.506 -263.723)" fill="#fc70bd"/>
      <g id="Grupo_947494" data-name="Grupo 947494" transform="translate(4.737 1.884)">
        <path id="Trazado_690826" data-name="Trazado 690826" d="M446.8,149.471a14.306,14.306,0,0,1-.686-3.841l2.479-.022,2.478-.038a9.41,9.41,0,0,0,4.828,7.758l-2.3,4.394A13.7,13.7,0,0,1,446.8,149.471Zm0,0" transform="translate(-345.024 -112.922)" fill="#22b9dd"/>
        <path id="Trazado_690827" data-name="Trazado 690827" d="M321.566,16.091,317,18.02a13.606,13.606,0,0,1-.233-10.078q2.417.617,4.749,1.422A8.849,8.849,0,0,0,321.566,16.091Zm0,0" transform="translate(-245.708 -7.941)" fill="#22b9dd"/>
        <path id="Trazado_690828" data-name="Trazado 690828" d="M28.446,141.078l-2.3,4.392a13.493,13.493,0,0,1-6.182-6.606,60.254,60.254,0,0,1,2.67-5.529l.981-.015A9.41,9.41,0,0,0,28.446,141.078Zm0,0" transform="translate(-19.969 -103.578)" fill="#22b9dd"/>
        <path id="Trazado_690829" data-name="Trazado 690829" d="M177.274,474.285l-.947,1.813a60.132,60.132,0,0,1-6.159-1.6,14.706,14.706,0,0,1-1.992-4.073,14.334,14.334,0,0,1-.687-3.842l2.481-.022,2.476-.037A9.418,9.418,0,0,0,177.274,474.285Zm0,0" transform="translate(-132.494 -357.742)" fill="#22b9dd"/>
        <path id="Trazado_690830" data-name="Trazado 690830" d="M424.191,316.863a14.366,14.366,0,0,1-3.636-1.413l1.271-2.129,1.257-2.136a9.412,9.412,0,0,0,9.138-.084l2.557,4.248A13.712,13.712,0,0,1,424.191,316.863Zm0,0" transform="translate(-325.528 -239.186)" fill="#22b9dd"/>
        <path id="Trazado_690831" data-name="Trazado 690831" d="M63.774,344.731a14.306,14.306,0,0,1-3.637-1.414l1.271-2.129,1.257-2.135a9.41,9.41,0,0,0,9.137-.084l2.558,4.247A13.707,13.707,0,0,1,63.774,344.731Zm0,0" transform="translate(-50.608 -260.443)" fill="#22b9dd"/>
      </g>
      <path id="Trazado_690832" data-name="Trazado 690832" d="M248.236,485.655l-.183.474q-2.979.293-6.033.295c-.339,0-.682,0-1.018-.01a14.662,14.662,0,0,1-2.229-3.6,14.352,14.352,0,0,1-1.1-3.744l2.461-.292,2.459-.308A9.415,9.415,0,0,0,248.236,485.655Zm0,0" transform="translate(-181.292 -364.967)" fill="#ed32a2"/>
      <path id="Trazado_690833" data-name="Trazado 690833" d="M59.273,41.338a14.38,14.38,0,0,1-2.793-2.724l2-1.46,1.993-1.473a9.41,9.41,0,0,0,8.441,3.5l.69,4.909A13.712,13.712,0,0,1,59.273,41.338Zm0,0" transform="translate(-43.082 -27.216)" fill="#ff9124"/>
      <path id="Trazado_690834" data-name="Trazado 690834" d="M147.845,340.826a14.354,14.354,0,0,1,3.106-2.361l1.15,2.2,1.163,2.188a9.413,9.413,0,0,0-4.7,7.833l-4.958-.04A13.71,13.71,0,0,1,147.845,340.826Zm0,0" transform="translate(-109.537 -258.175)" fill="#fc70bd"/>
      <path id="Trazado_690835" data-name="Trazado 690835" d="M54.662,391.016a13.5,13.5,0,0,1-8.3,3.939,59.829,59.829,0,0,1-3.781-5.092,9.351,9.351,0,0,0,8.579-2.352Zm0,0" transform="translate(-32.478 -295.587)" fill="#ff9124"/>
      <path id="Trazado_690836" data-name="Trazado 690836" d="M249.683,402.19a14.372,14.372,0,0,1-3.871-.495l.722-2.372.705-2.376a9.412,9.412,0,0,0,8.848-2.283l3.505,3.5A13.708,13.708,0,0,1,249.683,402.19Zm0,0" transform="translate(-187.501 -301.042)" fill="#ff9124"/>
      <path id="Trazado_690837" data-name="Trazado 690837" d="M29.523,251.648a14.345,14.345,0,0,1-3.871-.5l.721-2.372.705-2.375a9.411,9.411,0,0,0,8.848-2.284l3.505,3.505A13.707,13.707,0,0,1,29.523,251.648Zm0,0" transform="translate(-19.567 -186.211)" fill="#fc70bd"/>
      <path id="Trazado_690838" data-name="Trazado 690838" d="M217,51.9a14.354,14.354,0,0,1-3.871-.5l.722-2.372.705-2.375a9.411,9.411,0,0,0,8.848-2.284l3.505,3.505A13.708,13.708,0,0,1,217,51.9Zm0,0" transform="translate(-162.574 -33.845)" fill="#ed32a2"/>
      <path id="Trazado_690839" data-name="Trazado 690839" d="M43.882,226.112a14.385,14.385,0,0,1-2.85-2.665l1.973-1.5,1.961-1.514a9.414,9.414,0,0,0,8.513,3.321l.793,4.894A13.71,13.71,0,0,1,43.882,226.112Zm0,0" transform="translate(-31.298 -168.14)" fill="#fff"/>
      <path id="Trazado_690840" data-name="Trazado 690840" d="M121.072,419.088a14.332,14.332,0,0,1-2.849-2.665l1.972-1.5,1.962-1.514a9.409,9.409,0,0,0,8.512,3.321l.794,4.894A13.708,13.708,0,0,1,121.072,419.088Zm0,0" transform="translate(-90.178 -315.339)" fill="#fff"/>
      <path id="Trazado_690841" data-name="Trazado 690841" d="M349.4,424.955a14.345,14.345,0,0,1-3.341,2.015l-.908-2.307-.923-2.3a9.414,9.414,0,0,0,5.514-7.286l4.925.57A13.712,13.712,0,0,1,349.4,424.955Zm0,0" transform="translate(-262.573 -316.614)" fill="#fff"/>
      <path id="Trazado_690842" data-name="Trazado 690842" d="M443.711,392.828a59.779,59.779,0,0,1-4.28,5.934c-.278,0-.546-.01-.8-.027a14.3,14.3,0,0,1-3.834-.729l.865-2.325.848-2.328A9.714,9.714,0,0,0,443.711,392.828Zm0,0" transform="translate(-331.652 -299.642)" fill="#fff"/>
      <path id="Trazado_690843" data-name="Trazado 690843" d="M366.077,150.038a14.377,14.377,0,0,1-2.85-2.666l1.973-1.5,1.961-1.514a9.414,9.414,0,0,0,8.513,3.321l.793,4.894A13.707,13.707,0,0,1,366.077,150.038Zm0,0" transform="translate(-277.062 -110.112)" fill="#fff"/>
      <path id="Trazado_690844" data-name="Trazado 690844" d="M120.25,87.7l-7.2-15.172L107.636,75.1,80.985,87.751a33.774,33.774,0,0,0-18.92,25.434,6.183,6.183,0,0,1-9.215,4.377,33.768,33.768,0,0,0-31.668-1.41L2.715,124.919A60.7,60.7,0,0,0,28.02,165.838a33.8,33.8,0,0,0,13.34-3.254l11.186-5.312a16.17,16.17,0,0,0,8.884-11.719,11.553,11.553,0,0,1,16.9-8.026,16.162,16.162,0,0,0,14.7.52l11.186-5.311A33.8,33.8,0,0,0,120.25,87.7ZM26.65,136.69l12.083-5.738c6.041-2.868,13.422-.015,16.489,6.36l-12.086,5.738C37.1,145.919,29.716,143.066,26.65,136.69Zm49.222-9.183c-3-6.4-.55-13.928,5.49-16.8l12.083-5.738c3,6.4.55,13.927-5.49,16.8Zm0,0" transform="translate(-2.071 -55.322)" fill="#c680ff"/>
      <path id="Trazado_690845" data-name="Trazado 690845" d="M117.872,306.22a17.214,17.214,0,0,0-15.324-9.865,15.662,15.662,0,0,0-6.769,1.522l-15.908,7.555,1.835,3.815a17.21,17.21,0,0,0,15.323,9.865,15.659,15.659,0,0,0,6.769-1.521l15.908-7.555Zm-15.883,7.562c-6.038,2.868-13.42.015-16.486-6.36l12.083-5.738c6.041-2.868,13.422-.015,16.489,6.36Zm0,0" transform="translate(-60.924 -226.054)" fill="#844aba"/>
      <path id="Trazado_690846" data-name="Trazado 690846" d="M27.168,149.788A45.779,45.779,0,0,0,60.1,154.9a45.932,45.932,0,0,0-53.738-31.14A45.776,45.776,0,0,0,27.168,149.788Zm0,0" transform="translate(-4.851 -93.572)" fill="#ff9124"/>
      <path id="Trazado_690847" data-name="Trazado 690847" d="M225.286,32.576a45.785,45.785,0,0,1-16.852,28.75A45.931,45.931,0,0,1,218.265,0,45.78,45.78,0,0,1,225.286,32.576Zm0,0" transform="translate(-153.187)" fill="#ff9124"/>
      <path id="Trazado_690848" data-name="Trazado 690848" d="M116.4,55.249a45.774,45.774,0,0,0,24.241,22.866A45.93,45.93,0,0,0,114,22.012,45.774,45.774,0,0,0,116.4,55.249Zm0,0" transform="translate(-85.391 -16.79)" fill="#ffd833"/>
      <path id="Trazado_690849" data-name="Trazado 690849" d="M314.841,189.428l-1.8-3.834-15.908,7.555c-8.118,3.855-11.479,13.9-7.5,22.393l1.8,3.832,15.909-7.552C315.46,207.965,318.824,197.921,314.841,189.428Zm-9.305,18.586-12.083,5.739c-3-6.4-.55-13.928,5.49-16.8l12.083-5.738C314.03,197.623,311.577,205.146,305.536,208.014Zm0,0" transform="translate(-219.651 -141.567)" fill="#844aba"/>
      <path id="Trazado_690850" data-name="Trazado 690850" d="M210.951,223.94a9.48,9.48,0,1,1-9.84-5.335A9.492,9.492,0,0,1,210.951,223.94Zm0,0" transform="translate(-147.134 -166.683)" fill="#ed32a2"/>
      <path id="Trazado_690851" data-name="Trazado 690851" d="M227.728,223.94a9.492,9.492,0,0,1-2.086,11,9.49,9.49,0,0,1-7.754-16.33A9.492,9.492,0,0,1,227.728,223.94Zm0,0" transform="translate(-163.911 -166.683)" fill="#fc70bd"/>
      <path id="Trazado_690852" data-name="Trazado 690852" d="M34.49,305.26a33.754,33.754,0,0,1-6.47.855A60.7,60.7,0,0,1,2.715,265.2l18.467-8.767C8,262.688.742,293.246,34.49,305.26Zm0,0" transform="translate(-2.071 -195.6)" fill="#844aba"/>
    </g>
  </g>
</svg>
