<svg xmlns="http://www.w3.org/2000/svg" width="165" height="165" viewBox="0 0 165 165">
  <g id="_3" data-name="3" transform="translate(-1069 -494)">
    <circle id="Elipse_5499" data-name="Elipse 5499" cx="82.5" cy="82.5" r="82.5" transform="translate(1069 494)" fill="#ccd3ca"/>
    <g id="amor" transform="translate(1091 516)">
      <path id="Trazado_690853" data-name="Trazado 690853" d="M121.456,60.728A60.728,60.728,0,1,1,60.728,0,60.729,60.729,0,0,1,121.456,60.728Zm0,0" fill="#fa6e62"/>
      <path id="Trazado_690854" data-name="Trazado 690854" d="M100.234,98.429A13.592,13.592,0,0,1,104.247,85,48.977,48.977,0,0,0,71.065,0C45.547,0,22.715,17.639,20.248,42.385c-.434,4.348.843,7.193,1.154,8.68a7.624,7.624,0,0,1-1.484,6.856c-4.97,6-10.543,13.117-10.543,14.819,0,2.63,6.448,5.055,8.3,5.7a.732.732,0,0,1,.493.692V83.5a1.16,1.16,0,0,0,.425.9l3.042,2.494c.663.543.133,1.312.052,1.939a3.17,3.17,0,0,0,.87,3.054c1.1,1.335,4.312,3.051,4.312,7.127.148,1.415-.722,5.711,2.4,10.294a8.7,8.7,0,0,0,6.755,3.838,19.07,19.07,0,0,0,7.106-1.055l5.9-2.058a2.134,2.134,0,0,1,2.541.934l3.387,5.771a5.922,5.922,0,0,1,.752,2.829,1.968,1.968,0,0,0,.158.705,60.841,60.841,0,0,0,47.4-10.192Zm0,0" transform="translate(-7.151)" fill="#eaf3f9"/>
      <path id="Trazado_690855" data-name="Trazado 690855" d="M194.808,463.869l-3.387-7.723a2.133,2.133,0,0,0-2.541-.935l-5.771,2.011a2.127,2.127,0,0,1,.992.876l3.388,5.771a5.921,5.921,0,0,1,.751,2.829,1.963,1.963,0,0,0,.158.7,60.646,60.646,0,0,0,7.063.987A17.5,17.5,0,0,0,194.808,463.869Zm0,0" transform="translate(-139.672 -347.136)" fill="#c6e0f4"/>
      <path id="Trazado_690856" data-name="Trazado 690856" d="M42.129,110.945a8.7,8.7,0,0,1-6.755-3.838c-1.566-2.3-1.183-2.815-1.183-5.594v-2.5c0-3.952-3.01-5.646-3.8-6.631-4.831-4.257-4.9-8.882-4.9-8.882V79.129A.732.732,0,0,0,25,78.437c-1.853-.642-8.3-3.067-8.3-5.7,0-1.7,5.574-8.815,10.542-14.819a7.621,7.621,0,0,0,1.484-6.856c-.317-1.516-1.585-4.343-1.154-8.68C29.913,18.862,50.661,1.762,74.624.13,73.449.045,72.262,0,71.065,0,45.547,0,22.715,17.639,20.248,42.385c-.434,4.348.843,7.193,1.154,8.68a7.624,7.624,0,0,1-1.484,6.856c-4.97,6-10.543,13.117-10.543,14.819,0,2.63,6.448,5.055,8.3,5.7a.732.732,0,0,1,.493.692V83.5a1.16,1.16,0,0,0,.425.9l3.042,2.494c.663.543.133,1.312.052,1.939a3.17,3.17,0,0,0,.87,3.054c1.1,1.335,4.312,3.051,4.312,7.127.148,1.415-.722,5.711,2.4,10.294a8.7,8.7,0,0,0,6.755,3.838,19.07,19.07,0,0,0,7.106-1.055l4.213-1.469A28.075,28.075,0,0,1,42.129,110.945Zm0,0" transform="translate(-7.151)" fill="#c6e0f4"/>
      <path id="Trazado_690857" data-name="Trazado 690857" d="M203.911,144.246a12.1,12.1,0,0,0-17.112,0,1.764,1.764,0,0,1-2.509,0,12.1,12.1,0,0,0-17.112,17.112l17.112,17.112a1.766,1.766,0,0,0,2.509,0l17.112-17.112A12.1,12.1,0,0,0,203.911,144.246Zm0,0" transform="translate(-124.816 -107.325)" fill="#fa6e62"/>
      <path id="Trazado_690858" data-name="Trazado 690858" d="M192.208,173.584,175.1,156.472a12.1,12.1,0,0,1-1.925-14.6,12.1,12.1,0,0,0-5.994,20.38l17.112,17.112a1.766,1.766,0,0,0,2.509,0l5.607-5.606A1.882,1.882,0,0,1,192.208,173.584Zm0,0" transform="translate(-124.816 -108.214)" fill="#fb5c4b"/>
      <g id="Grupo_947495" data-name="Grupo 947495" transform="translate(27.758 22.001)">
        <path id="Trazado_690859" data-name="Trazado 690859" d="M145.9,132.182l-2.685-2.224a1.83,1.83,0,0,1,2.335-2.819l2.685,2.224a1.83,1.83,0,0,1-2.335,2.819Zm0,0" transform="translate(-136.493 -118.659)" fill="#4c98e0"/>
        <path id="Trazado_690860" data-name="Trazado 690860" d="M186.013,98.482,184.8,95.212a1.83,1.83,0,0,1,3.431-1.273l1.214,3.269a1.83,1.83,0,1,1-3.431,1.273Zm0,0" transform="translate(-168.632 -92.746)" fill="#4c98e0"/>
        <path id="Trazado_690861" data-name="Trazado 690861" d="M121.976,178.655l-3.438-.584a1.83,1.83,0,0,1,.613-3.609l3.438.584a1.83,1.83,0,0,1-.613,3.609Zm0,0" transform="translate(-117.014 -155.057)" fill="#4c98e0"/>
        <path id="Trazado_690862" data-name="Trazado 690862" d="M343.119,131.94a1.83,1.83,0,0,1,.242-2.577l2.685-2.224a1.83,1.83,0,1,1,2.334,2.819l-2.684,2.224A1.83,1.83,0,0,1,343.119,131.94Zm0,0" transform="translate(-289.162 -118.659)" fill="#4c98e0"/>
        <path id="Trazado_690863" data-name="Trazado 690863" d="M307.96,99.561a1.831,1.831,0,0,1-1.079-2.353l1.214-3.269a1.83,1.83,0,0,1,3.431,1.273l-1.214,3.269A1.83,1.83,0,0,1,307.96,99.561Zm0,0" transform="translate(-261.754 -92.745)" fill="#4c98e0"/>
        <path id="Trazado_690864" data-name="Trazado 690864" d="M365.088,177.161a1.83,1.83,0,0,1,1.5-2.11l3.438-.584a1.83,1.83,0,0,1,.613,3.608l-3.438.584A1.831,1.831,0,0,1,365.088,177.161Zm0,0" transform="translate(-306.221 -155.061)" fill="#4c98e0"/>
      </g>
    </g>
  </g>
</svg>
