<svg xmlns="http://www.w3.org/2000/svg" width="165" height="165" viewBox="0 0 165 165">
  <g id="_4" data-name="4" transform="translate(-8746 11206)">
    <circle id="Elipse_5502" data-name="Elipse 5502" cx="82.5" cy="82.5" r="82.5" transform="translate(8746 -11206)" fill="#ccd3ca"/>
    <g id="conferencia" transform="translate(8766 -11187)">
      <path id="Trazado_690883" data-name="Trazado 690883" d="M62.551,125.1A62.551,62.551,0,1,0,0,62.551,62.672,62.672,0,0,0,62.551,125.1Z" fill="#ff757c"/>
      <path id="Trazado_690884" data-name="Trazado 690884" d="M233.007,104.408h6.248l.507,5.266.9.721,1.9,1.207-6.425,15.176L229.707,111.6l1.9-1.207.9-.721.506-5.266Z" transform="translate(-173.581 -78.897)" fill="#f0b97d"/>
      <path id="Trazado_690885" data-name="Trazado 690885" d="M218.76,130.5l-5.178,1.653,10.363,14.34,8.817-14.822-3.658-1.159-3.222,2.274H222.02Z" transform="translate(-161.396 -98.617)" fill="#ecf0f1"/>
      <path id="Trazado_690886" data-name="Trazado 690886" d="M249.592,138.863l.443,1.092-.984,12.445,1.7,1.3,1.7-1.3-.984-12.445.443-1.092-1.157-.046Z" transform="translate(-188.198 -104.899)" fill="#ff5b61"/>
      <path id="Trazado_690887" data-name="Trazado 690887" d="M199.59,130.387l-9.16,2.923a3.511,3.511,0,0,0-1.544,2.491c-.343,1.8-.52,3.63-.791,6.107a24.543,24.543,0,0,0,33.181,0c-.271-2.476-.448-4.311-.791-6.107a3.511,3.511,0,0,0-1.544-2.491l-9.1-2.883-5.159,15.128-5.1-15.168Z" transform="translate(-142.137 -98.528)" fill="#15bdb1"/>
      <path id="Trazado_690888" data-name="Trazado 690888" d="M227.855,130.387l-1.975.631-.38,5.013s.1.411.418.375l1.783.67a.2.2,0,0,1,.012.265l-1.526,1.046,5.272,9.937q.74.042,1.492.043t1.492-.043l5.273-9.937-1.526-1.046a.2.2,0,0,1,.013-.265l1.783-.67c.313.037.419-.375.419-.375l-.378-5-1.915-.607-5.159,15.128-5.1-15.168Z" transform="translate(-170.402 -98.528)" fill="#20d0c2"/>
      <path id="Trazado_690889" data-name="Trazado 690889" d="M222.708,42.626c0,.489-.179.968-.165,1.438-1.674-.311-.866,4.661.081,5.346.076.054.26-.066.416-.166.328,1.829,3.133,6.717,4.915,8.774.5.571,3.524.562,4.014.022,1.827-2.01,4.627-6.956,4.957-8.8.156.1.342.221.416.166.948-.684,1.756-5.657.082-5.346.013-.47-.165-.949-.165-1.438-.093-3.862-3.592-5.789-7.276-5.806-3.684.016-7.183,1.944-7.276,5.806Z" transform="translate(-167.434 -27.824)" fill="#fed198"/>
      <path id="Trazado_690890" data-name="Trazado 690890" d="M226.713,31.979a2.835,2.835,0,0,0-2.664,2.541,25.561,25.561,0,0,0-.119,3.877,1.75,1.75,0,0,1,1.258,1.428c.14,1.145.04,1.145.04,1.145l.4-.09.288-1.964c1.672-1.047-.012-2.6,1.659-2.962,4.515,3.218,8.5,2.667,10.3,1.154,0,0-.42,1.583-.1,2.148a2.442,2.442,0,0,1,.13,1.455l.42-.02s-.076-2.332.856-2.321c3.543-5.849-7.672-13.114-12.474-6.388Z" transform="translate(-169.195 -22.127)" fill="#666"/>
      <g id="Grupo_947505" data-name="Grupo 947505" transform="translate(57.348 30.024)">
        <path id="Trazado_690891" data-name="Trazado 690891" d="M236.236,122.88a18.129,18.129,0,0,1-1.529,1.882l1.414,4.839,3.788-2.827C237.825,125.752,236.581,124.427,236.236,122.88Z" transform="translate(-234.707 -122.88)" fill="#fff"/>
        <path id="Trazado_690892" data-name="Trazado 690892" d="M259.67,122.88a18.188,18.188,0,0,0,1.529,1.882l-1.413,4.839L256,126.775C258.081,125.752,259.325,124.427,259.67,122.88Z" transform="translate(-250.794 -122.88)" fill="#fff"/>
      </g>
      <path id="Trazado_690893" data-name="Trazado 690893" d="M243.312,102.889l1.036-.705a2.634,2.634,0,0,0,2.118,0l.956.708c.463.343.942.461,1.061.994l.38,1.7c.119.534-.937,2.328-1.519,2.328h-4.109c-.582,0-1.381-1.712-1.288-2.252l.305-1.778C242.344,103.344,242.834,103.215,243.312,102.889Zm1.794.4h0l-2.01,1.056a4.67,4.67,0,0,0,.354,1.534c.26.366,1.285-.07,1.285-.07s0-.915.3-.9h.67c.3-.015.3.9.3.9s1.024.436,1.285.07a4.66,4.66,0,0,0,.354-1.534l-2.01-1.056-.261.073-.26-.073Z" transform="translate(-182.823 -77.214)" fill="#666"/>
      <path id="Trazado_690894" data-name="Trazado 690894" d="M192.581,114.632l6.157-1.4v1.058l-5.923,1.4a4.357,4.357,0,0,0-1.413.708,1.667,1.667,0,0,0-.491,1.18q0,4.522,0,9.037h-1.064v-9.037a2.723,2.723,0,0,1,.8-1.929A4.541,4.541,0,0,1,192.581,114.632Z" transform="translate(-143.463 -85.565)" fill="#ccc"/>
      <path id="Trazado_690895" data-name="Trazado 690895" d="M209.858,110.82l4.752-1a.738.738,0,0,1,.872.568l.145.692a.737.737,0,0,1-.568.872l-4.752,1a.737.737,0,0,1-.871-.568l-.146-.692a.738.738,0,0,1,.568-.872h0Z" transform="translate(-158.14 -82.973)" fill="#fbb429"/>
      <path id="Trazado_690896" data-name="Trazado 690896" d="M184.121,158.927a2.551,2.551,0,0,1,2.551,2.551v.017h-5.1v-.017A2.551,2.551,0,0,1,184.121,158.927Z" transform="translate(-137.205 -120.095)" fill="#666"/>
      <g id="Grupo_947506" data-name="Grupo 947506" transform="translate(38.991 41.035)">
        <path id="Trazado_690897" data-name="Trazado 690897" d="M159.579,167.944H206.7V171.4H159.579Z" transform="translate(-159.579 -167.944)" fill="#fbb429"/>
        <path id="Trazado_690898" data-name="Trazado 690898" d="M184.655,182.073h34.864v22.043a35.907,35.907,0,0,1-34.863,0V182.073Z" transform="translate(-178.528 -178.621)" fill="#fbb429"/>
      </g>
      <g id="Grupo_947507" data-name="Grupo 947507" transform="translate(38.991 44.488)">
        <path id="Trazado_690899" data-name="Trazado 690899" d="M159.579,182.073l6.127,3.883v-3.883Zm47.118,0h0l-6.128,3.883v-3.883Z" transform="translate(-159.579 -182.073)" fill="#f5a209"/>
        <path id="Trazado_690900" data-name="Trazado 690900" d="M184.655,182.073h34.864v1.467H184.655Z" transform="translate(-178.528 -182.073)" fill="#f5a209"/>
      </g>
      <path id="Trazado_690901" data-name="Trazado 690901" d="M153.885,263.622c0,.4-.145.789-.135,1.171-2.208-1.207-.219,3.875.551,4.431.213.152.635-.453.71-.194a10.988,10.988,0,0,0,2.016,4.09l-.173,1.8-.733.587-1.544.983h10.462l-1.543-.983-.732-.587-.173-1.8a11.011,11.011,0,0,0,2.015-4.09c.075-.258.5.347.71.194.77-.555,2.759-5.638.55-4.431.011-.382-.134-.772-.134-1.171-.076-3.144-.173-6.421-5.924-6.435-5.751.013-5.849,3.291-5.924,6.435Z" transform="translate(-115.42 -194.346)" fill="#fed198"/>
      <path id="Trazado_690902" data-name="Trazado 690902" d="M165.17,254.966c2.421-.282,3.289,5.092,1.833,6.856l-2.122,6.365-1.44,1.447-5.04.022-1.459-1.2-2.155-6.584c-2.884-4.762,4.034-11.761,10.382-6.909Z" transform="translate(-116.457 -191.428)" fill="#666"/>
      <path id="Trazado_690903" data-name="Trazado 690903" d="M135.746,333.364l-7.456,2.381a2.858,2.858,0,0,0-1.257,2.028c-.279,1.462-.423,2.956-.644,4.973H153.4c-.221-2.015-.365-3.51-.644-4.971a2.86,2.86,0,0,0-1.256-2.028L144.1,333.4l-8.349-.032Z" transform="translate(-95.506 -251.91)" fill="#15bdb1"/>
      <path id="Trazado_690904" data-name="Trazado 690904" d="M165.968,324.212h5.748c.332,0,.492.263.6.537l.711,1.733-8.35-.032.68-1.7c.11-.276.273-.537.6-.537Z" transform="translate(-124.444 -244.994)" fill="#fff"/>
      <path id="Trazado_690905" data-name="Trazado 690905" d="M302.546,263.622c0,.4-.145.789-.135,1.171-2.208-1.207-.219,3.875.551,4.431.213.152.634-.453.71-.194a11,11,0,0,0,2.016,4.09l-.173,1.8-.733.587-1.543.983H313.7l-1.543-.983-.732-.587-.173-1.8a11.01,11.01,0,0,0,2.015-4.09c.075-.258.5.347.71.194.77-.555,2.759-5.638.551-4.431.011-.382-.134-.772-.134-1.171-.076-3.144-.172-6.421-5.924-6.435C302.718,257.2,302.621,260.478,302.546,263.622Z" transform="translate(-227.757 -194.346)" fill="#fed198"/>
      <path id="Trazado_690906" data-name="Trazado 690906" d="M313.828,254.966c2.421-.282,3.289,5.092,1.833,6.856l-2.122,6.365-1.441,1.447-5.04.022-1.459-1.2-2.155-6.584c-2.884-4.762,4.034-11.761,10.382-6.909Z" transform="translate(-228.792 -191.428)" fill="#666"/>
      <path id="Trazado_690907" data-name="Trazado 690907" d="M284.405,333.364l-7.457,2.381a2.858,2.858,0,0,0-1.257,2.028c-.279,1.462-.423,2.956-.644,4.973h27.015c-.221-2.015-.365-3.51-.644-4.971a2.859,2.859,0,0,0-1.256-2.028l-7.407-2.348-8.349-.032Z" transform="translate(-207.842 -251.91)" fill="#15bdb1"/>
      <path id="Trazado_690908" data-name="Trazado 690908" d="M314.629,324.212h5.748c.333,0,.492.263.6.537l.711,1.733-8.349-.032.68-1.7c.111-.276.273-.537.605-.537Z" transform="translate(-236.781 -244.994)" fill="#fff"/>
      <path id="Trazado_690909" data-name="Trazado 690909" d="M70.022,310.441c0,.5-.183.992-.17,1.472-2.776-1.519-.276,4.872.693,5.571.268.193.8-.569.892-.244a13.81,13.81,0,0,0,2.535,5.143l-.217,2.264-.921.739-1.942,1.236H84.048l-1.941-1.236-.92-.739-.218-2.264A13.838,13.838,0,0,0,83.5,317.24c.094-.325.626.436.892.244.969-.7,3.469-7.089.693-5.571.014-.481-.169-.971-.169-1.472-.1-3.955-.218-8.075-7.45-8.092-7.233.017-7.355,4.137-7.449,8.092Z" transform="translate(-51.825 -228.473)" fill="#fed198"/>
      <path id="Trazado_690910" data-name="Trazado 690910" d="M84.218,299.554c3.044-.355,4.136,6.4,2.306,8.622l-2.668,8L82.044,318l-6.338.027-1.835-1.505-2.71-8.28C67.535,302.253,76.235,293.452,84.218,299.554Z" transform="translate(-53.134 -224.802)" fill="#666"/>
      <path id="Trazado_690911" data-name="Trazado 690911" d="M47.212,398.142l-9.377,2.993a3.6,3.6,0,0,0-1.581,2.551c-.351,1.838-.533,3.717-.81,6.252H69.417c-.277-2.535-.46-4.414-.811-6.252a3.6,3.6,0,0,0-1.579-2.551l-9.315-2.952-10.5-.041Z" transform="translate(-26.784 -300.86)" fill="#15bdb1"/>
      <path id="Trazado_690912" data-name="Trazado 690912" d="M85.22,386.631h7.228c.419,0,.619.332.761.676l.894,2.179-10.5-.041.855-2.137c.139-.347.343-.676.761-.676Z" transform="translate(-63.176 -292.162)" fill="#fff"/>
      <path id="Trazado_690913" data-name="Trazado 690913" d="M221.058,310.441c0,.5-.183.992-.17,1.472-2.776-1.519-.276,4.872.693,5.571.267.193.8-.569.892-.244a13.825,13.825,0,0,0,2.535,5.143l-.217,2.264-.921.739-1.942,1.236h13.156l-1.941-1.236-.92-.739-.218-2.264a13.823,13.823,0,0,0,2.534-5.143c.094-.325.626.436.892.244.969-.7,3.469-7.089.693-5.571.013-.481-.169-.971-.169-1.472-.095-3.955-.217-8.075-7.449-8.092-7.232.017-7.355,4.137-7.449,8.092Z" transform="translate(-165.957 -228.473)" fill="#fed198"/>
      <path id="Trazado_690914" data-name="Trazado 690914" d="M235.252,299.554c3.044-.355,4.136,6.4,2.306,8.622l-2.668,8L233.079,318l-6.338.027-1.835-1.505-2.71-8.28C218.57,302.253,227.269,293.452,235.252,299.554Z" transform="translate(-167.264 -224.802)" fill="#666"/>
      <path id="Trazado_690915" data-name="Trazado 690915" d="M198.247,398.142l-9.377,2.993a3.6,3.6,0,0,0-1.581,2.551c-.35,1.838-.533,3.717-.81,6.252h33.972c-.277-2.535-.46-4.414-.811-6.252a3.6,3.6,0,0,0-1.579-2.551l-9.315-2.952-10.5-.041h0Z" transform="translate(-140.915 -300.86)" fill="#15bdb1"/>
      <path id="Trazado_690916" data-name="Trazado 690916" d="M236.257,386.631h7.228c.419,0,.62.332.761.676l.894,2.179-10.5-.041.855-2.137c.139-.347.343-.676.761-.676Z" transform="translate(-177.308 -292.162)" fill="#fff"/>
      <path id="Trazado_690917" data-name="Trazado 690917" d="M372.093,310.441c0,.5-.183.992-.17,1.472-2.776-1.519-.276,4.872.693,5.571.268.193.8-.569.892-.244a13.81,13.81,0,0,0,2.535,5.143l-.217,2.264-.921.739-1.941,1.236h13.156l-1.94-1.236-.921-.739-.218-2.264a13.83,13.83,0,0,0,2.535-5.143c.094-.325.626.436.892.244.97-.7,3.469-7.089.693-5.571.014-.481-.169-.971-.169-1.472-.095-3.955-.217-8.075-7.449-8.092-7.232.017-7.355,4.137-7.449,8.092Z" transform="translate(-280.088 -228.473)" fill="#fed198"/>
      <path id="Trazado_690918" data-name="Trazado 690918" d="M386.286,299.554c3.045-.355,4.136,6.4,2.306,8.622l-2.668,8L384.113,318l-6.338.027-1.835-1.505-2.709-8.28C369.6,302.253,378.3,293.452,386.286,299.554Z" transform="translate(-281.395 -224.802)" fill="#666"/>
      <path id="Trazado_690919" data-name="Trazado 690919" d="M349.283,398.142l-9.377,2.993a3.6,3.6,0,0,0-1.58,2.551c-.351,1.838-.533,3.717-.81,6.252h33.972c-.277-2.535-.459-4.414-.81-6.252a3.6,3.6,0,0,0-1.58-2.551l-9.315-2.952-10.5-.041Z" transform="translate(-255.048 -300.86)" fill="#15bdb1"/>
      <path id="Trazado_690920" data-name="Trazado 690920" d="M387.291,386.631h7.228c.419,0,.619.332.761.676l.894,2.179-10.5-.041.855-2.137c.139-.347.343-.676.761-.676Z" transform="translate(-291.439 -292.162)" fill="#fff"/>
    </g>
  </g>
</svg>
