<svg xmlns="http://www.w3.org/2000/svg" width="165" height="165" viewBox="0 0 165 165">
  <g id="_5" data-name="5" transform="translate(-9093 11206)">
    <circle id="Elipse_5501" data-name="Elipse 5501" cx="82.5" cy="82.5" r="82.5" transform="translate(9093 -11206)" fill="#ccd3ca"/>
    <g id="pin-de-ubicacion" transform="translate(9112 -11187)">
      <g id="Grupo_947499" data-name="Grupo 947499">
        <g id="Grupo_947496" data-name="Grupo 947496">
          <path id="Trazado_690865" data-name="Trazado 690865" d="M.01,64.665Q0,64.109,0,63.551a63.551,63.551,0,0,1,127.1,0q0,.558-.01,1.114l-5.947,11.8L57.091,79.621,2.819,70.644Z" fill="#c38778"/>
        </g>
        <path id="Trazado_690866" data-name="Trazado 690866" d="M256.844,135.372,214.374,92.9H179.133l-4,31.025,48.685,35.966Z" transform="translate(-131.659 -69.84)" fill="#a65d4e"/>
        <g id="Grupo_947497" data-name="Grupo 947497" transform="translate(0.01 63.127)">
          <path id="Trazado_690867" data-name="Trazado 690867" d="M19.146,289.226H98.567l25.747-15.733a63.478,63.478,0,0,0,2.809-17.661,14.452,14.452,0,0,1-7.327,1.823c-7.028,0-7.028-3.361-14.055-3.361s-7.027,3.361-14.053,3.361-7.027-3.361-14.054-3.361-7.027,3.361-14.053,3.361-7.027-3.361-14.053-3.361-7.027,3.361-14.054,3.361-7.027-3.361-14.053-3.361-7.027,3.361-14.054,3.361a14.448,14.448,0,0,1-7.325-1.823A63.473,63.473,0,0,0,2.85,273.493Z" transform="translate(-0.041 -254.294)" fill="#19cffc"/>
        </g>
        <g id="Grupo_947498" data-name="Grupo 947498" transform="translate(63.54 63.127)">
          <path id="Trazado_690868" data-name="Trazado 690868" d="M312.182,257.654c-7.028,0-7.028-3.361-14.055-3.361s-7.027,3.361-14.053,3.361-7.027-3.361-14.054-3.361-7.027,3.361-14.053,3.361h-.008v31.571h35L316.7,273.493a63.479,63.479,0,0,0,2.809-17.661A14.456,14.456,0,0,1,312.182,257.654Z" transform="translate(-255.958 -254.294)" fill="#1ea1e3"/>
        </g>
      </g>
      <g id="Grupo_947500" data-name="Grupo 947500" transform="translate(36.983 14.895)">
        <path id="Trazado_690869" data-name="Trazado 690869" d="M175.545,60a26.568,26.568,0,0,0-26.568,26.568c0,25.025,26.557,48.591,26.557,48.591s26.578-23.566,26.578-48.591A26.568,26.568,0,0,0,175.545,60Zm0,44.1a17.469,17.469,0,1,1,17.469-17.469A17.469,17.469,0,0,1,175.545,104.1Z" transform="translate(-148.977 -60)" fill="#ffce00"/>
      </g>
      <g id="Grupo_947501" data-name="Grupo 947501" transform="translate(63.54 14.895)">
        <path id="Trazado_690870" data-name="Trazado 690870" d="M255.958,135.159s26.578-23.566,26.578-48.591A26.568,26.568,0,0,0,255.968,60h-.01v9.164h.01a17.469,17.469,0,1,1,0,34.939h-.01Z" transform="translate(-255.958 -60)" fill="#fdba12"/>
      </g>
      <g id="Grupo_947502" data-name="Grupo 947502" transform="translate(2.819 82.256)">
        <path id="Trazado_690871" data-name="Trazado 690871" d="M72.087,376.2a63.579,63.579,0,0,0,60.732-44.776c-4.724.449-5.24,2.909-10.9,2.909-6.229,0-6.229-2.979-12.459-2.979s-6.229,2.979-12.457,2.979-6.229-2.979-12.458-2.979-6.229,2.979-12.457,2.979-6.228-2.979-12.457-2.979-6.229,2.979-12.458,2.979-6.229-2.979-12.457-2.979-6.229,2.979-12.458,2.979c-5.661,0-6.177-2.461-10.9-2.909A63.579,63.579,0,0,0,72.087,376.2Z" transform="translate(-11.355 -331.35)" fill="#80dbff"/>
      </g>
      <g id="Grupo_947503" data-name="Grupo 947503" transform="translate(63.54 82.256)">
        <path id="Trazado_690872" data-name="Trazado 690872" d="M305.8,334.329c-6.229,0-6.229-2.979-12.459-2.979s-6.229,2.979-12.457,2.979-6.229-2.979-12.458-2.979-6.229,2.979-12.457,2.979h-.009V376.2h.01A63.579,63.579,0,0,0,316.7,331.42C311.976,331.868,311.46,334.329,305.8,334.329Z" transform="translate(-255.958 -331.35)" fill="#4ab8f7"/>
      </g>
      <g id="Grupo_947504" data-name="Grupo 947504" transform="translate(51.086 27.238)">
        <path id="Trazado_690873" data-name="Trazado 690873" d="M225.753,123.583c0,2.546-2.225,5.069-4.091,6.737-.31.277-.621.54-.927.788v-9.216a6.339,6.339,0,1,0-4.965,0v9.216c-.306-.248-.617-.511-.927-.788-1.866-1.668-4.091-4.191-4.091-6.737h-4.965c0,3.543,1.96,7.079,5.826,10.509a33.2,33.2,0,0,0,5.445,3.9l1.194.656,1.195-.656a33.209,33.209,0,0,0,5.445-3.9c3.866-3.43,5.826-6.966,5.826-10.509Zm-7.5-8.9a1.374,1.374,0,1,1-1.374,1.374A1.376,1.376,0,0,1,218.253,114.686Z" transform="translate(-205.788 -109.721)" fill="#fff"/>
        <path id="Trazado_690874" data-name="Trazado 690874" d="M255.969,138.651l1.195-.656a33.207,33.207,0,0,0,5.445-3.9c3.866-3.43,5.826-6.966,5.826-10.509h-4.965c0,2.546-2.225,5.069-4.091,6.737-.31.277-.621.54-.927.788v-9.216a6.339,6.339,0,0,0-2.482-12.171h-.01v4.965h.01a1.374,1.374,0,1,1,0,2.748h-.01Z" transform="translate(-243.504 -109.721)" fill="#e9edf5"/>
      </g>
    </g>
  </g>
</svg>
