<svg xmlns="http://www.w3.org/2000/svg" width="165" height="165" viewBox="0 0 165 165">
  <g id="_6" data-name="6" transform="translate(-9448 11206)">
    <circle id="Elipse_5500" data-name="Elipse 5500" cx="82.5" cy="82.5" r="82.5" transform="translate(9448 -11206)" fill="#ccd3ca"/>
    <g id="montana" transform="translate(9465.924 -11188.458)">
      <g id="BULINE" transform="translate(0.076 0.458)">
        <ellipse id="Elipse_5508" data-name="Elipse 5508" cx="63.726" cy="63.385" rx="63.726" ry="63.385" fill="#6fc2e5"/>
      </g>
      <g id="Icons" transform="translate(1.077 12.243)">
        <path id="Trazado_690875" data-name="Trazado 690875" d="M423.9,234.238a4.7,4.7,0,0,1,4.148-2.488h4.564a4.706,4.706,0,0,1,3.648,1.742l9.869,12.156-11.113,4.439Z" transform="translate(-319.469 -186.178)" fill="#d6d6d6"/>
        <path id="Trazado_690876" data-name="Trazado 690876" d="M130.238,106.885A63.711,63.711,0,0,1,4.23,111.807V106.1a1.493,1.493,0,0,1,1.331-1.493l9.635-1.058a1.493,1.493,0,0,0,1.112-.707l1.727-2.834A1.493,1.493,0,0,1,19.6,99.33l1.543.311a1.493,1.493,0,0,0,1.493-.555l9.921-12.977a1.493,1.493,0,0,1,2.157-.226,1.493,1.493,0,0,0,2.1-.152l7.963-9.123a1.493,1.493,0,0,0,.368-.98V71.9A1.493,1.493,0,0,1,46.471,70.4l1.652-.182a1.493,1.493,0,0,0,1.331-1.493v-1.3a1.493,1.493,0,0,1,.5-1.1l3.173-2.887a1.493,1.493,0,0,0,.5-1.1v-2.24a1.493,1.493,0,0,1,.642-1.229l2.177-1.493,5.288-3.927A1.418,1.418,0,0,0,62,53.19l3.12-3.782a1.493,1.493,0,0,1,1.466-.5l1.418.3a1.493,1.493,0,0,0,1.229-.281h.015a1.493,1.493,0,0,1,2.023.182L77.4,55.92a1.244,1.244,0,0,1,.134.169l2.926,4.39,7.216,11.377a1.493,1.493,0,0,0,.7.582l2.13.871a1.493,1.493,0,0,1,.911,1.6l-.406,2.829a1.493,1.493,0,0,0,.289,1.12L97.971,87.6a1.493,1.493,0,0,0,1.09.585l4.479.294a1.493,1.493,0,0,1,1.366,1.2l.187.936a1.511,1.511,0,0,0,.393.747l12.34,12.691a11.424,11.424,0,0,0,11.681,2.889,1.493,1.493,0,0,1,.458-.072h.147a1.056,1.056,0,0,1,.127.017Z" transform="translate(-4.23 -48.615)" fill="#fff"/>
        <path id="Trazado_690877" data-name="Trazado 690877" d="M75.312,53.588a1.493,1.493,0,0,0-.428.231h-.012a1.493,1.493,0,0,1-1.229.281l-1.418-.306a1.493,1.493,0,0,0-1.466.5l-3.13,3.8a1.515,1.515,0,0,1-.266.249l-5.325,3.912-2.177,1.493a1.493,1.493,0,0,0-.644,1.227v2.24a1.493,1.493,0,0,1-.5,1.1L55.546,71.2a1.493,1.493,0,0,0-.5,1.1v1.3a1.493,1.493,0,0,1-1.331,1.493l-1.652.182a1.493,1.493,0,0,0-1.331,1.493v3.733a1.493,1.493,0,0,1-.366.98l-7.95,9.123a1.493,1.493,0,0,1-2.1.152,1.493,1.493,0,0,0-2.157.226l-9.919,12.977a1.493,1.493,0,0,1-1.493.555l-1.543-.311a1.493,1.493,0,0,0-1.57.687l-1.727,2.834a1.493,1.493,0,0,1-1.065.724l-9.638,1.058a1.493,1.493,0,0,0-1.329,1.493v17.668A63.251,63.251,0,0,1,4.23,111.807V106.1a1.493,1.493,0,0,1,1.331-1.493l9.635-1.058a1.493,1.493,0,0,0,1.112-.707l1.727-2.834A1.493,1.493,0,0,1,19.6,99.33l1.543.311a1.493,1.493,0,0,0,1.493-.555L32.558,86.11a1.493,1.493,0,0,1,2.157-.226,1.493,1.493,0,0,0,2.1-.152l7.963-9.123a1.493,1.493,0,0,0,.368-.98V71.9A1.493,1.493,0,0,1,46.473,70.4l1.65-.182a1.493,1.493,0,0,0,1.331-1.493v-1.3a1.493,1.493,0,0,1,.5-1.1l3.173-2.887a1.493,1.493,0,0,0,.5-1.1v-2.24a1.493,1.493,0,0,1,.642-1.227l2.177-1.493,5.288-3.932A1.515,1.515,0,0,0,62,53.19l3.12-3.78a1.493,1.493,0,0,1,1.466-.5l1.418.3a1.493,1.493,0,0,0,1.229-.281h.015a1.493,1.493,0,0,1,2.023.182Z" transform="translate(-4.23 -48.615)" fill="#bababa"/>
        <path id="Trazado_690878" data-name="Trazado 690878" d="M98.547,212.932v4.713a2.5,2.5,0,0,1-1.583,2.329l-52.787,20.8a2.523,2.523,0,0,1-.776.169l-18.355,1.038A63.579,63.579,0,0,1,7.55,211.63l4.758-4.75a2.508,2.508,0,0,1,2.309-.672l2,.445a2.488,2.488,0,0,0,2.058-.45l10.086-7.672a2.534,2.534,0,0,0,.48-.485l5.848-7.751a2.453,2.453,0,0,1,.164-.2l11.972-12.875a2.5,2.5,0,0,1,3.944.366l9.175,14.5a2.488,2.488,0,0,0,1,.9l2.882,1.441a2.5,2.5,0,0,1,.816,3.822,2.488,2.488,0,0,0-.321,2.66l1.719,3.606a2.5,2.5,0,0,0,1.941,1.411l9.167,1.212a2.528,2.528,0,0,1,1.346.62l2.551,2.3a2.5,2.5,0,0,0,3.524-.177l1.7-1.871a2.5,2.5,0,0,1,3.441-.249l2.1,1.742a2.518,2.518,0,0,0,1.244.545l2.964.423a2.488,2.488,0,0,1,2.133,2.459Z" transform="translate(-6.724 -144.621)" fill="#d6d6d6"/>
        <path id="Trazado_690879" data-name="Trazado 690879" d="M206.5,97.569l1.782,1.361a1.533,1.533,0,0,1,.6,1.219v8.734a1.523,1.523,0,0,0,.3.906l9.779,13.4a1.533,1.533,0,0,0,1.244.63h4.778a1.531,1.531,0,0,1,.9.291l8.592,6.2a1.535,1.535,0,0,0,2.426-1.4l-.117-1.09A1.535,1.535,0,0,1,239.2,126.4l5.1,3.613a1.535,1.535,0,0,0,2.386-1.585l-1.861-8.371a1.535,1.535,0,0,0-2.563-.774l-.411.4a1.535,1.535,0,0,1-2.4-.358l-6.268-11.235a1.511,1.511,0,0,1-.189-.868l.542-6.793a1.535,1.535,0,0,0-.851-1.493l-5.35-2.635a1.54,1.54,0,0,1-.8-.966l-2.21-7.963a.309.309,0,0,0-.027-.09l-2.314-6.739a1.533,1.533,0,0,0-2.909.02l-.388,1.184a1.533,1.533,0,0,1-1.458,1.058h-3.277a1.535,1.535,0,0,0-1.346.8l-3.145,5.753a1.369,1.369,0,0,1-.157.234l-3.048,3.733a1.533,1.533,0,0,0-.346.97v2.053a1.54,1.54,0,0,0,.6,1.217Z" transform="translate(-155.716 -71.818)" fill="#d6d6d6"/>
        <path id="Trazado_690880" data-name="Trazado 690880" d="M147.435,357.529l-1.279,15.5A63.7,63.7,0,0,1,59.31,362.608a5.116,5.116,0,0,1,5.8-.575l3.018,1.675a9.421,9.421,0,0,0,6.883.891l8.461-2.15a9.425,9.425,0,0,0,2.18-.854l14.433-7.856,31.167-9.794a6.778,6.778,0,0,1,6.545,1.4l7.371,6.555A6.791,6.791,0,0,1,147.435,357.529Z" transform="translate(-45.604 -270.219)" fill="#33314b"/>
        <path id="Trazado_690881" data-name="Trazado 690881" d="M225.344,138.458l-1.891,1.9A1.493,1.493,0,0,0,223.14,142l1.244,2.906a1.493,1.493,0,0,0,.868.829l6.428,2.289a1.493,1.493,0,0,0,1.15-.06l.811-.391a1.493,1.493,0,0,0-.649-2.844,1.493,1.493,0,0,1-1.189-.59l-4.23-5.527a1.493,1.493,0,0,0-2.227-.159Z" transform="translate(-168.574 -115.783)" fill="#505075"/>
        <path id="Trazado_690882" data-name="Trazado 690882" d="M78.617,221.764l7.44,16.22a1.707,1.707,0,0,0,2.384.781l.5-.279a1.712,1.712,0,0,1,2.157.413l5.144,6.3a1.71,1.71,0,0,1-1.324,2.79H46.663a1.71,1.71,0,0,1-1.053-3.058l4.372-3.407a1.7,1.7,0,0,1,1.642-.249l4.382,1.617a1.712,1.712,0,0,0,2.145-.883l3.524-7.465a1.707,1.707,0,0,1,2.294-.806L68.4,235.9a1.71,1.71,0,0,0,2.357-.956l4.7-13.037a1.71,1.71,0,0,1,3.155-.139Z" transform="translate(-34.818 -177.937)" fill="#bababa"/>
      </g>
    </g>
  </g>
</svg>
