<svg xmlns="http://www.w3.org/2000/svg" width="70" height="60.229" viewBox="0 0 70 60.229">
  <g id="_2" data-name="2" transform="translate(-590.92 -131.091)">
    <path id="Trazado_684677" data-name="Trazado 684677" d="M684.416,155.414a13.182,13.182,0,0,0-10.532,15.813,12.6,12.6,0,0,0,9.267,10.067c5.038,1.481,9.524.225,13.323-3.429.378-.364.463-.611-.061-.91a7.677,7.677,0,0,1-1.182-.845c-.33-.283-.531-.255-.851.052a10.678,10.678,0,1,1-14.218-15.909,10.514,10.514,0,0,1,12.291-.912c.219.128.41.42.736.215.718-.45,1.436-.9,2.212-1.384A13.04,13.04,0,0,0,684.416,155.414Z" transform="translate(-60.95 -17.73)" fill="#0081ca"/>
    <path id="Trazado_684678" data-name="Trazado 684678" d="M756.18,166.641a10.951,10.951,0,0,1,1.57,10.19c-.188.555-.787,1.122-.568,1.611s.934.708,1.384,1.1c.472.412.713.358.991-.219a13.294,13.294,0,0,0,.2-11.761c-.207-.459-.254-.7.254-.966a18.339,18.339,0,0,0,2.058-1.274c.432-.3.6-.249.84.234a17.035,17.035,0,0,1-3.409,19.889c-.253.243-.31.4-.067.67a8.229,8.229,0,0,1,.9,1.141c.348.568.61.548,1.072.082a19.568,19.568,0,0,0,5.954-13.834,20.868,20.868,0,0,0-3.5-11.617c-.293-.448-.515-.488-.964-.2q-3.245,2.057-6.531,4.047C755.908,166.007,755.862,166.177,756.18,166.641Z" transform="translate(-121.693 -22.423)" fill="#0081ca"/>
    <path id="Trazado_684679" data-name="Trazado 684679" d="M704.422,179.154a7.065,7.065,0,1,0,7.011,7.108A7.09,7.09,0,0,0,704.422,179.154Zm-.076,11.494a4.428,4.428,0,1,1,4.432-4.462A4.467,4.467,0,0,1,704.345,190.647Z" transform="translate(-78.426 -35.436)" fill="#0081ca"/>
    <path id="Trazado_684680" data-name="Trazado 684680" d="M778.018,318.216a5.383,5.383,0,0,0-2.674,5.4,4.916,4.916,0,0,0,3.287,4.695,5.423,5.423,0,0,0,6.037-1.12c.857-.818.814-.809-.1-1.56-.558-.457-.884-.594-1.516.032a3.2,3.2,0,0,1-5.207-1.26c-.1-.388-.093-.582.412-.565,1.131.038,2.265.012,3.4.012h2.635c1.438,0,1.438,0,1.322-1.474A5.027,5.027,0,0,0,778.018,318.216Zm5.028,3.266c.128.4.051.545-.381.533-.736-.021-1.473-.006-2.21-.006-.714,0-1.427-.009-2.141,0-.34.006-.514-.023-.374-.455a2.767,2.767,0,0,1,2.577-1.846A2.566,2.566,0,0,1,783.047,321.482Z" transform="translate(-135.964 -137.444)" fill="#0081ca"/>
    <path id="Trazado_684681" data-name="Trazado 684681" d="M684.91,135.778c.307.6.636.621,1.234.268a16.952,16.952,0,0,1,18.761,1.106c.533.4.936,1.228,1.609,1.13a5.555,5.555,0,0,0,1.776-1.031,1.59,1.59,0,0,0,.227-.157.825.825,0,0,0,.114-.173c-.088-.094-.164-.179-.244-.259a19.692,19.692,0,0,0-23.354-3.068c-1.241.694-1.241.694-.372,1.851A2.536,2.536,0,0,1,684.91,135.778Z" transform="translate(-68.664)" fill="#0081ca"/>
    <path id="Trazado_684682" data-name="Trazado 684682" d="M699.067,258.345a6.042,6.042,0,0,1-.861-1.083c-.272-.442-.494-.423-.919-.16a16.878,16.878,0,0,1-19.662-1.235c-.316-.258-.5-.3-.778.029a8.158,8.158,0,0,1-1.079,1.077c-.429.346-.359.55.04.871a19.545,19.545,0,0,0,12.279,4.487,19.934,19.934,0,0,0,10.8-3.075C699.326,258.984,699.495,258.774,699.067,258.345Z" transform="translate(-62.343 -91.846)" fill="#0081ca"/>
    <path id="Trazado_684683" data-name="Trazado 684683" d="M649.866,323.612a5.536,5.536,0,1,0,5.538-5.558A5.54,5.54,0,0,0,649.866,323.612Zm8.774.029a3.23,3.23,0,1,1-3.23-3.272A3.213,3.213,0,0,1,658.64,323.641Z" transform="translate(-43.46 -137.846)" fill="#0081ca"/>
    <path id="Trazado_684684" data-name="Trazado 684684" d="M655.153,188.279a4.826,4.826,0,0,1,.493-.485c.435-.325.435-.568.085-1.038-4.233-5.669-4.849-11.735-1.915-18.171.252-.554.939-1.088.735-1.613-.194-.5-.943-.761-1.4-1.178-.428-.39-.64-.29-.919.176a20.107,20.107,0,0,0-2.868,10.315,19.6,19.6,0,0,0,4.1,11.9C654.233,189.2,654.242,189.191,655.153,188.279Z" transform="translate(-43.089 -25.408)" fill="#0081ca"/>
    <path id="Trazado_684685" data-name="Trazado 684685" d="M707.539,328.642c.354.411,1.173.07,1.782.147.513.064.613-.157.593-.621-.036-.831-.01-1.664-.01-2.5,0-.717,0-1.434,0-2.15a5.529,5.529,0,0,0-5.045-5.543,5.458,5.458,0,0,0-5.922,4.575,48.355,48.355,0,0,0-.107,5.886c-.008.286.128.352.379.347.508-.01,1.019-.03,1.525.006.441.031.593-.094.584-.563-.03-1.595-.015-3.191-.01-4.786a3.062,3.062,0,1,1,6.12-.007c.012,1.156,0,2.312,0,3.468C707.436,327.5,707.237,328.291,707.539,328.642Z" transform="translate(-79.53 -137.774)" fill="#0081ca"/>
    <path id="Trazado_684686" data-name="Trazado 684686" d="M614.28,329.06a5.623,5.623,0,0,0,3.354-1.114c.8-.6.8-.6.161-1.389-.145-.18-.308-.347-.435-.539-.3-.453-.509-.579-1.01-.113a3.091,3.091,0,0,1-4.218-.037,3.158,3.158,0,0,1-.456-4.208,3.24,3.24,0,0,1,4.071-1.007c.437.218.765.9,1.2.719s.657-.806,1.032-1.177c.432-.427.247-.675-.131-.984a5.634,5.634,0,0,0-6.651-.318,5.552,5.552,0,0,0,3.085,10.168Z" transform="translate(-13.118 -137.774)" fill="#0081ca"/>
    <path id="Trazado_684687" data-name="Trazado 684687" d="M830.32,327.747c.4-.343.446-.593.06-.981a16.817,16.817,0,0,1-1.07-1.3c-.3.254-.537.48-.8.665a3.192,3.192,0,1,1-.17-5.371c.356.2.594.8,1.017.613.359-.157.576-.639.854-.978a1.473,1.473,0,0,1,.171-.218c.469-.384.263-.649-.115-.957a5.639,5.639,0,0,0-6.879-.18,5.546,5.546,0,0,0-1.823,6.622A5.607,5.607,0,0,0,830.32,327.747Z" transform="translate(-169.734 -137.774)" fill="#0081ca"/>
    <path id="Trazado_684688" data-name="Trazado 684688" d="M752.5,314.484a1.888,1.888,0,0,1,.208,0c.2.007.258-.1.291-.291.226-1.29.052-1.539-1.231-1.5-.605.019-.842-.11-.814-.778.055-1.336.014-1.338-1.309-1.338-1.186,0-1.225,0-1.172,1.2.03.689-.12,1.047-.881.907-.377-.07-.565.088-.524.492a2.2,2.2,0,0,1,0,.554c-.091.595.11.876.743.758.518-.1.662.124.661.644,0,1.825-.089,3.651.06,5.474a2.933,2.933,0,0,0,2.768,3c1.531.139,1.614.043,1.625-1.484,0-.484-.131-.625-.617-.621-.933.007-1.256-.27-1.326-1.219s-.015-1.891-.015-2.838h-.05c0-.439-.016-.879,0-1.317.024-.524-.226-1.184.114-1.535C751.343,314.267,751.994,314.52,752.5,314.484Z" transform="translate(-115.107 -132.333)" fill="#0081ca"/>
    <path id="Trazado_684689" data-name="Trazado 684689" d="M592.664,322.768a2.584,2.584,0,0,1-.346,0c-.42-.058-.56.106-.552.538.025,1.409.009,2.82.009,4.23v2.982c0,1.71,0,1.69,1.743,1.7.5,0,.607-.146.6-.622-.017-2.45-.008-4.9.014-7.35C594.149,322.768,594.167,322.768,592.664,322.768Z" transform="translate(-0.623 -141.312)" fill="#0081ca"/>
    <path id="Trazado_684690" data-name="Trazado 684690" d="M669.917,153.082c.309.386.564.521.928.014a5.867,5.867,0,0,1,1.074-1.073c.3-.246.365-.4.048-.687-.43-.383-.819-.811-1.229-1.217-.095-.094-.2-.175-.306-.265a3.519,3.519,0,0,0-.911.772c-1,.961-1,.967-.075,1.949C669.6,152.743,669.773,152.9,669.917,153.082Z" transform="translate(-57.393 -13.835)" fill="#0081ca"/>
    <path id="Trazado_684691" data-name="Trazado 684691" d="M592.284,310.5a1.444,1.444,0,0,0,1.477-1.425,1.429,1.429,0,0,0-1.411-1.417,1.422,1.422,0,0,0-.066,2.843Z" transform="translate(0 -130.18)" fill="#0081ca"/>
  </g>
</svg>
