<svg xmlns="http://www.w3.org/2000/svg" width="70" height="70.001" viewBox="0 0 70 70.001">
  <g id="_2" data-name="2" transform="translate(-6.5 -6.5)">
    <circle id="Elipse_5447" data-name="Elipse 5447" cx="35" cy="35" r="35" transform="translate(6.5 6.5)" fill="#3ea7fb"/>
    <path id="Trazado_690326" data-name="Trazado 690326" d="M91.3,61.421A35.013,35.013,0,0,1,44.33,94.315c.085-3.476.98-6.644,9.794-9.581,3.436-1.145,3.579-6.081,3.616-9.709q.046-4.237.091-8.485c.018-1.783.1-3.737,1.272-5.083,1.534-1.759,4.3-1.729,6.525-1.047s4.346,1.887,6.677,2.021c3.457.195,6.543-1.96,9.763-3.232a29.882,29.882,0,0,1,9-1.79,34.886,34.886,0,0,1,.231,4.011Z" transform="translate(-14.803 -19.921)" fill="#95d70b"/>
    <path id="Trazado_690327" data-name="Trazado 690327" d="M111.83,47.349a1.066,1.066,0,0,1-1.02-.758,30.061,30.061,0,0,0-1.217-3.317,1.065,1.065,0,1,1,1.955-.849,32.45,32.45,0,0,1,1.3,3.55,1.066,1.066,0,0,1-1.021,1.373Z" transform="translate(-40.306 -13.807)" fill="#0f89cc"/>
    <path id="Trazado_690328" data-name="Trazado 690328" d="M30.96,15.225c.116,1.424.414,2.964-.323,4.182-.688,1.132-2.045,1.613-3.269,2.118a10.193,10.193,0,0,0-5.259,4.121c-.907,1.656-1.041,3.61-1.57,5.423s-1.71,3.683-3.573,4c-2.788.475-4.827-2.672-7.457-3.64A35.066,35.066,0,0,1,31.685,9.4a14.665,14.665,0,0,0-.724,5.825Z" transform="translate(-1.178 -1.135)" fill="#95d70b"/>
    <g id="Grupo_946399" data-name="Grupo 946399" transform="translate(17.654 36.715)">
      <path id="Trazado_690329" data-name="Trazado 690329" d="M39.822,59.762a1.065,1.065,0,0,1-.783-1.787,22.122,22.122,0,0,1,1.6-1.57A1.065,1.065,0,0,1,42.045,58,19.851,19.851,0,0,0,40.6,59.42a1.062,1.062,0,0,1-.783.343Z" transform="translate(-30.276 -56.138)" fill="#ededf9"/>
      <path id="Trazado_690330" data-name="Trazado 690330" d="M26.221,87.653a1.066,1.066,0,0,1-1.047-.875,22.419,22.419,0,0,1-.35-3.991c0-.229,0-.456.01-.682a1.066,1.066,0,1,1,2.13.061c-.005.209-.009.418-.009.627a20.247,20.247,0,0,0,.316,3.607,1.065,1.065,0,0,1-.858,1.238,1.03,1.03,0,0,1-.193.015Zm.194-8.892a1.036,1.036,0,0,1-.21-.021,1.065,1.065,0,0,1-.835-1.253A32.678,32.678,0,0,1,26.6,73.033a1.065,1.065,0,1,1,2.009.709A30.608,30.608,0,0,0,27.455,77.9a1.065,1.065,0,0,1-1.04.856Zm2.946-8.421A1.065,1.065,0,0,1,28.41,68.8a36.394,36.394,0,0,1,2.32-3.979,1.065,1.065,0,1,1,1.765,1.189,34.382,34.382,0,0,0-2.185,3.746,1.065,1.065,0,0,1-.95.587Z" transform="translate(-24.824 -59.335)" fill="#ededf9"/>
      <path id="Trazado_690331" data-name="Trazado 690331" d="M29.587,110.192a1.065,1.065,0,0,1-.913-.515,18.686,18.686,0,0,1-1.049-2,1.065,1.065,0,1,1,1.944-.872,16.647,16.647,0,0,0,.929,1.774,1.066,1.066,0,0,1-.913,1.616Z" transform="translate(-25.883 -75.717)" fill="#ededf9"/>
    </g>
    <g id="Grupo_946400" data-name="Grupo 946400" transform="translate(28.717 13.768)">
      <path id="Trazado_690332" data-name="Trazado 690332" d="M82.949,23.819,70.607,19.132,67.53,21.847l7.475,6.54Z" transform="translate(-52.599 -18.711)" fill="#dddde3"/>
      <path id="Trazado_690333" data-name="Trazado 690333" d="M52.577,40.948,87.65,23.255a2.123,2.123,0,0,0-1.061-4.016l-2.49.122a6.8,6.8,0,0,0-6.931.058L50.021,35.8l-2.49-1.194A3.652,3.652,0,0,0,43.724,35L43,35.552l5.513,4.873A3.652,3.652,0,0,0,52.577,40.948Z" transform="translate(-43 -18.44)" fill="#ededf9"/>
      <path id="Trazado_690334" data-name="Trazado 690334" d="M90.592,30.053,89.279,45.4,85.5,47,82.124,34.829Z" transform="translate(-58.309 -22.984)" fill="#dddde3"/>
    </g>
  </g>
</svg>
