<svg xmlns="http://www.w3.org/2000/svg" width="165" height="165" viewBox="0 0 165 165">
  <g id="_5" data-name="5" transform="translate(-1069 -955)">
    <circle id="Elipse_5499" data-name="Elipse 5499" cx="82.5" cy="82.5" r="82.5" transform="translate(1069 955)" fill="#ccd3ca"/>
    <g id="guia-turistico" transform="translate(1090.828 976.828)">
      <g id="Grupo_947547" data-name="Grupo 947547" transform="translate(0.172 0.172)">
        <g id="Grupo_947546" data-name="Grupo 947546">
          <g id="Grupo_947545" data-name="Grupo 947545">
            <circle id="Elipse_5517" data-name="Elipse 5517" cx="60.728" cy="60.728" r="60.728" fill="#ffe26f"/>
          </g>
        </g>
      </g>
      <path id="Trazado_690960" data-name="Trazado 690960" d="M154.093,177.342l28.581,28.581a60.871,60.871,0,0,0,56.518-60.713c0-.155,0-.309-.006-.464l-34.1-34.1Z" transform="translate(-117.424 -84.311)" fill="#ffd428"/>
      <g id="Grupo_947556" data-name="Grupo 947556" transform="translate(34.132 26.34)">
        <path id="Trazado_690961" data-name="Trazado 690961" d="M143.421,171.295a8.475,8.475,0,0,0,8.476,8.476h18.292l12.562-29.33-12.562-39.789H151.9a8.475,8.475,0,0,0-8.476,8.476Z" transform="translate(-143.421 -110.651)" fill="#00409f"/>
        <path id="Trazado_690962" data-name="Trazado 690962" d="M256,179.77h26.768V125.4l-3.931-6.107,3.931-6v-2.64H256Z" transform="translate(-229.232 -110.651)" fill="#00215a"/>
        <g id="Grupo_947548" data-name="Grupo 947548" transform="translate(2.999 2.538)">
          <path id="Trazado_690963" data-name="Trazado 690963" d="M162.142,133.537a6.107,6.107,0,1,1,0-12.213H179.8l4.938,5.41-4.938,6.8Z" transform="translate(-156.035 -121.324)" fill="#f6f6f8"/>
          <path id="Trazado_690964" data-name="Trazado 690964" d="M256,121.324v12.213h26.768V121.426Z" transform="translate(-232.231 -121.324)" fill="#d7d7e2"/>
        </g>
        <g id="Grupo_947555" data-name="Grupo 947555" transform="translate(12.107 25.174)">
          <g id="Grupo_947549" data-name="Grupo 947549">
            <path id="Trazado_690965" data-name="Trazado 690965" d="M220.308,231.186,209,245.847a14.66,14.66,0,0,1,0-29.321Z" transform="translate(-194.342 -216.526)" fill="#fff"/>
            <path id="Trazado_690966" data-name="Trazado 690966" d="M270.66,231.187A14.66,14.66,0,0,1,256,245.848V216.527A14.66,14.66,0,0,1,270.66,231.187Z" transform="translate(-241.34 -216.527)" fill="#f6f6f8"/>
          </g>
          <path id="Trazado_690967" data-name="Trazado 690967" d="M234.572,254.392l-2.013-3.744-7.312-3.217,3.217,7.312-3.217,7.312,7.312-3.217Z" transform="translate(-217.898 -240.083)" fill="#79b6fc"/>
          <path id="Trazado_690968" data-name="Trazado 690968" d="M260.1,254.742l3.217-7.312L256,250.648v8.19l7.312,3.217Z" transform="translate(-241.34 -240.082)" fill="#55a4fc"/>
          <g id="Grupo_947550" data-name="Grupo 947550" transform="translate(2.558 2.558)">
            <path id="Trazado_690969" data-name="Trazado 690969" d="M219.184,242.775V236l-1.982-8.714L213.813,236l-8.714,3.389,8.714,3.389,3.389,8.714Z" transform="translate(-205.099 -227.283)" fill="#ff4536"/>
            <path id="Trazado_690970" data-name="Trazado 690970" d="M259.389,242.775l8.714-3.389L259.389,236,256,227.283v24.205Z" transform="translate(-243.897 -227.283)" fill="#d72226"/>
          </g>
          <g id="Grupo_947554" data-name="Grupo 947554" transform="translate(12.061 12.061)">
            <g id="Grupo_947553" data-name="Grupo 947553">
              <g id="Grupo_947551" data-name="Grupo 947551">
                <path id="Trazado_690971" data-name="Trazado 690971" d="M249.672,269.852l-2,2.6a2.6,2.6,0,0,1,0-5.2Z" transform="translate(-245.069 -267.253)" fill="#ffd428"/>
              </g>
              <g id="Grupo_947552" data-name="Grupo 947552" transform="translate(2.599 0)">
                <path id="Trazado_690972" data-name="Trazado 690972" d="M258.6,269.853a2.6,2.6,0,0,1-2.6,2.6v-5.2A2.6,2.6,0,0,1,258.6,269.853Z" transform="translate(-256 -267.254)" fill="#ffae38"/>
              </g>
            </g>
          </g>
        </g>
      </g>
    </g>
  </g>
</svg>
