<svg xmlns="http://www.w3.org/2000/svg" width="165" height="165" viewBox="0 0 165 165">
  <g id="_6" data-name="6" transform="translate(-5687 10746)">
    <circle id="Elipse_5511" data-name="Elipse 5511" cx="82.5" cy="82.5" r="82.5" transform="translate(5687 -10746)" fill="#ccd3ca"/>
    <g id="policia" transform="translate(5709 -10724)">
      <g id="Grupo_947516" data-name="Grupo 947516">
        <g id="Grupo_947515" data-name="Grupo 947515">
          <g id="Grupo_947514" data-name="Grupo 947514">
            <g id="Grupo_947513" data-name="Grupo 947513">
              <g id="Grupo_947512" data-name="Grupo 947512">
                <g id="Grupo_947511" data-name="Grupo 947511">
                  <g id="Grupo_947510" data-name="Grupo 947510">
                    <g id="Grupo_947509" data-name="Grupo 947509">
                      <path id="Trazado_690938" data-name="Trazado 690938" d="M21.674,107.234a60.728,60.728,0,1,1,78.115,0Z" fill="#a3d4ff"/>
                    </g>
                  </g>
                </g>
              </g>
            </g>
          </g>
        </g>
      </g>
      <path id="Trazado_690939" data-name="Trazado 690939" d="M189.586,179.405A60.6,60.6,0,0,0,211.26,132.9q0-1.645-.087-3.269L176.159,94.616l-58.427,14.346,18.03,18.03-8.9,4.813,11.08,11.08-1.126,3.245,37.722,37.722Z" transform="translate(-89.804 -72.171)" fill="#65b1fc"/>
      <g id="Grupo_947519" data-name="Grupo 947519" transform="translate(34.168 49.56)">
        <g id="Grupo_947517" data-name="Grupo 947517">
          <circle id="Elipse_5515" data-name="Elipse 5515" cx="5.334" cy="5.334" r="5.334" fill="#e09380"/>
        </g>
        <g id="Grupo_947518" data-name="Grupo 947518" transform="translate(42.451)">
          <circle id="Elipse_5516" data-name="Elipse 5516" cx="5.334" cy="5.334" r="5.334" fill="#cc6d58"/>
        </g>
      </g>
      <g id="Grupo_947520" data-name="Grupo 947520" transform="translate(21.673 87.308)">
        <path id="Trazado_690940" data-name="Trazado 690940" d="M165.689,372.812l-.011,0a14.853,14.853,0,0,0-7.782-3.459l-12.471-1.311-15.006,5.342-15.006-5.342-12.471,1.311a14.853,14.853,0,0,0-7.782,3.459l-.011,0a10.541,10.541,0,0,0-3.785,7.9v7.259a60.734,60.734,0,0,0,78.109,0v-7.259a10.541,10.541,0,0,0-3.785-7.9Z" transform="translate(-91.365 -368.047)" fill="#7584f2"/>
      </g>
      <g id="Grupo_947521" data-name="Grupo 947521" transform="translate(60.728 87.308)">
        <path id="Trazado_690941" data-name="Trazado 690941" d="M291.27,372.812l-.011,0a14.853,14.853,0,0,0-7.782-3.459l-12.471-1.311L256,373.389V402.2a60.485,60.485,0,0,0,39.055-14.222v-7.259A10.541,10.541,0,0,0,291.27,372.812Z" transform="translate(-256 -368.047)" fill="#606aea"/>
      </g>
      <g id="Grupo_947523" data-name="Grupo 947523" transform="translate(45.722 68.397)">
        <g id="Grupo_947522" data-name="Grupo 947522">
          <path id="Trazado_690942" data-name="Trazado 690942" d="M192.741,307.239a19.486,19.486,0,0,0,30.012,0l-.784-.132a5.852,5.852,0,0,1-4.88-5.771V288.328H198.4v13.008a5.852,5.852,0,0,1-4.88,5.771Z" transform="translate(-192.741 -288.328)" fill="#e09380"/>
        </g>
      </g>
      <g id="Grupo_947525" data-name="Grupo 947525" transform="translate(60.728 68.397)">
        <g id="Grupo_947524" data-name="Grupo 947524">
          <path id="Trazado_690943" data-name="Trazado 690943" d="M270.222,307.107a5.852,5.852,0,0,1-4.88-5.771V288.328H256v25.966a19.444,19.444,0,0,0,15.006-7.056Z" transform="translate(-256 -288.328)" fill="#cc6d58"/>
        </g>
      </g>
      <g id="Grupo_947527" data-name="Grupo 947527" transform="translate(39.135 26.005)">
        <g id="Grupo_947526" data-name="Grupo 947526">
          <path id="Trazado_690944" data-name="Trazado 690944" d="M186.569,162.453c-11.415,0-21.593-9.254-21.593-20.669V130.292c0-11.415,10.178-20.669,21.593-20.669s21.593,9.254,21.593,20.669v11.492C208.161,153.2,197.984,162.453,186.569,162.453Z" transform="translate(-164.976 -109.623)" fill="#faa68e"/>
        </g>
      </g>
      <g id="Grupo_947529" data-name="Grupo 947529" transform="translate(60.728 26.005)">
        <g id="Grupo_947528" data-name="Grupo 947528">
          <path id="Trazado_690945" data-name="Trazado 690945" d="M256,109.623v52.83c11.415,0,21.593-9.254,21.593-20.669V130.292C277.593,118.877,267.415,109.623,256,109.623Z" transform="translate(-256 -109.623)" fill="#d47f6c"/>
        </g>
      </g>
      <g id="Grupo_947530" data-name="Grupo 947530" transform="translate(55.38 101.906)">
        <path id="Trazado_690946" data-name="Trazado 690946" d="M233.457,448.9q2.643.231,5.348.232t5.348-.232l-1.306-18.313-4.042-1-4.042,1Z" transform="translate(-233.457 -429.586)" fill="#555a66"/>
      </g>
      <g id="Grupo_947531" data-name="Grupo 947531" transform="translate(60.728 101.906)">
        <path id="Trazado_690947" data-name="Trazado 690947" d="M260.042,430.591l-4.042-1v19.55q2.7,0,5.348-.232Z" transform="translate(-256 -429.586)" fill="#333940"/>
      </g>
      <g id="Grupo_947540" data-name="Grupo 947540" transform="translate(27.928 14.201)">
        <g id="Grupo_947532" data-name="Grupo 947532">
          <path id="Trazado_690948" data-name="Trazado 690948" d="M183.332,82.453l-32.8,13.164-32.8-13.164,7.173-14.346,25.627-8.244,25.627,8.244Z" transform="translate(-117.732 -59.864)" fill="#555a66"/>
        </g>
        <g id="Grupo_947533" data-name="Grupo 947533" transform="translate(32.8)">
          <path id="Trazado_690949" data-name="Trazado 690949" d="M281.627,68.108,256,59.864V95.618l32.8-13.164Z" transform="translate(-256 -59.864)" fill="#333940"/>
        </g>
        <g id="Grupo_947534" data-name="Grupo 947534" transform="translate(9.128 28.165)">
          <path id="Trazado_690950" data-name="Trazado 690950" d="M194.872,191.234H164.892a8.682,8.682,0,0,1-8.682-8.682v-1.5l23.672-2.455,23.672,2.455v1.5A8.682,8.682,0,0,1,194.872,191.234Z" transform="translate(-156.21 -178.593)" fill="#414952"/>
        </g>
        <g id="Grupo_947535" data-name="Grupo 947535" transform="translate(32.8 28.165)">
          <path id="Trazado_690951" data-name="Trazado 690951" d="M256,178.593v12.641h14.99a8.683,8.683,0,0,0,8.682-8.682v-1.5Z" transform="translate(-256 -178.593)" fill="#23272b"/>
        </g>
        <g id="Grupo_947536" data-name="Grupo 947536" transform="translate(9.128 21.756)">
          <path id="Trazado_690952" data-name="Trazado 690952" d="M156.21,151.578h47.344v8.864H156.21Z" transform="translate(-156.21 -151.578)" fill="#ffce00"/>
        </g>
        <g id="Grupo_947537" data-name="Grupo 947537" transform="translate(32.8 21.756)">
          <path id="Trazado_690953" data-name="Trazado 690953" d="M256,151.578h23.672v8.864H256Z" transform="translate(-256 -151.578)" fill="#fdba12"/>
        </g>
        <g id="Grupo_947538" data-name="Grupo 947538" transform="translate(27.945 5.771)">
          <path id="Trazado_690954" data-name="Trazado 690954" d="M242.455,95.764l-2.067,1.381-2.067-1.381a6.275,6.275,0,0,1-2.788-5.217V86.128l4.855-1.938,4.855,1.937v4.419a6.274,6.274,0,0,1-2.789,5.217Z" transform="translate(-235.533 -84.19)" fill="#ffce00"/>
        </g>
        <g id="Grupo_947539" data-name="Grupo 947539" transform="translate(32.8 5.771)">
          <path id="Trazado_690955" data-name="Trazado 690955" d="M256,84.19V97.145l2.067-1.381a6.275,6.275,0,0,0,2.789-5.217V86.128Z" transform="translate(-256 -84.19)" fill="#fdba12"/>
        </g>
      </g>
      <g id="Grupo_947541" data-name="Grupo 947541" transform="translate(52.994 92.65)">
        <path id="Trazado_690956" data-name="Trazado 690956" d="M236.954,390.567H225.31l-1.912,7.7,3.692,2.565h8.084l3.42-2.376Z" transform="translate(-223.398 -390.567)" fill="#414952"/>
      </g>
      <g id="Grupo_947542" data-name="Grupo 947542" transform="translate(60.728 92.65)">
        <path id="Trazado_690957" data-name="Trazado 690957" d="M263.462,398.452l-1.64-7.885H256v10.261h4.042Z" transform="translate(-256 -390.567)" fill="#23272b"/>
      </g>
      <g id="Grupo_947543" data-name="Grupo 947543" transform="translate(42.457 83.358)">
        <path id="Trazado_690958" data-name="Trazado 690958" d="M189.1,371.228l-10.124-15.539,7.032-4.293,11.239,9.292Z" transform="translate(-178.978 -351.396)" fill="#4855b7"/>
      </g>
      <g id="Grupo_947544" data-name="Grupo 947544" transform="translate(60.728 83.358)">
        <path id="Trazado_690959" data-name="Trazado 690959" d="M264.147,371.228l10.124-15.539-7.032-4.293L256,360.688Z" transform="translate(-256 -351.396)" fill="#27488f"/>
      </g>
    </g>
  </g>
</svg>
