<svg xmlns="http://www.w3.org/2000/svg" width="165" height="165" viewBox="0 0 165 165">
  <g id="_7" data-name="7" transform="translate(-6034 10745)">
    <circle id="Elipse_5510" data-name="Elipse 5510" cx="82.5" cy="82.5" r="82.5" transform="translate(6034 -10745)" fill="#ccd3ca"/>
    <g id="trabajo-en-equipo" transform="translate(6056 -10723)">
      <path id="Trazado_690983" data-name="Trazado 690983" d="M121.456,60.728A60.687,60.687,0,0,1,79.142,118.61a59.512,59.512,0,0,1-8.755,2.079.188.188,0,0,1-.04.006q-2.207.353-4.461.543-.481.04-.965.074c-.454.03-.91.057-1.369.077q-1.405.067-2.825.067-1.458,0-2.895-.069-.65-.029-1.3-.077c-.324-.022-.647-.044-.969-.071q-2.309-.193-4.567-.561c-.719-.117-1.435-.243-2.144-.385a59.982,59.982,0,0,1-8.953-2.506q-2.51-.915-4.913-2.042-.817-.384-1.626-.8-2.074-1.048-4.052-2.251a60.729,60.729,0,1,1,92.15-51.97Zm0,0" fill="#ffe152"/>
      <path id="Trazado_690984" data-name="Trazado 690984" d="M65.6,279.291v41.486a59.984,59.984,0,0,1-8.953-2.506q-2.51-.915-4.913-2.042-.817-.384-1.626-.8-2.074-1.048-4.052-2.251a60.905,60.905,0,0,1-24.1-27.327v-6.563a16.461,16.461,0,0,1,12.193-15.9c.258-.069.515-.134.778-.188a15.9,15.9,0,0,1,2.141-.318c.444-.034.892-.055,1.345-.055h10.72a16.364,16.364,0,0,1,3.491.372c.064.012.129.027.193.042.189.043.38.089.565.139a.127.127,0,0,0,.015,0,16.477,16.477,0,0,1,12.2,15.9Zm0,0" transform="translate(-16.754 -200.483)" fill="#2ba1cf"/>
      <path id="Trazado_690985" data-name="Trazado 690985" d="M88.318,279.291v41.486a59.984,59.984,0,0,1-8.953-2.506q-2.51-.915-4.913-2.042-.817-.384-1.626-.8-2.074-1.048-4.052-2.251a61.046,61.046,0,0,1-17.032-15.36V279.291a16.461,16.461,0,0,1,12.193-15.9c.259-.069.516-.134.778-.188a15.941,15.941,0,0,1,2.141-.318c.444-.034.892-.055,1.346-.055h3.656a16.364,16.364,0,0,1,3.491.372c.064.012.129.027.193.042.189.043.38.089.565.139a.127.127,0,0,0,.015,0,16.477,16.477,0,0,1,12.2,15.9Zm0,0" transform="translate(-39.468 -200.483)" fill="#66baed"/>
      <path id="Trazado_690986" data-name="Trazado 690986" d="M92.531,264.4l-.039.186-4.924,22.9a4.79,4.79,0,0,1-4.659,3.8h-.083a4.79,4.79,0,0,1-4.659-3.8l-4.924-22.9L73.2,264.4Zm0,0" transform="translate(-55.838 -201.678)" fill="#f2f0ec"/>
      <path id="Trazado_690987" data-name="Trazado 690987" d="M82.867,262.047l-7.41,4.118L73.2,255.68l4.6-2.711" transform="translate(-55.838 -192.96)" fill="#d8d5d0"/>
      <path id="Trazado_690988" data-name="Trazado 690988" d="M113.941,262.047l7.41,4.118,2.254-10.485-4.6-2.711" transform="translate(-86.912 -192.96)" fill="#d8d5d0"/>
      <path id="Trazado_690989" data-name="Trazado 690989" d="M20.676,95.141V70.319a22.126,22.126,0,1,1,44.252,0V95.141" transform="translate(-15.771 -36.759)" fill="#cc7a3b"/>
      <path id="Trazado_690990" data-name="Trazado 690990" d="M29.774,71.294c0,8.78,5.142,18.938,7.965,23.853H20.672V70.325A22.112,22.112,0,0,1,42.637,48.2C35.834,48.369,29.774,59.283,29.774,71.294Zm0,0" transform="translate(-15.768 -36.765)" fill="#a35418"/>
      <path id="Trazado_690991" data-name="Trazado 690991" d="M100.939,236.105v7.207a5.872,5.872,0,0,1-11.744,0v-7.207Zm0,0" transform="translate(-68.036 -180.097)" fill="#eab599"/>
      <path id="Trazado_690992" data-name="Trazado 690992" d="M112.262,264.563v.457a5.871,5.871,0,0,1-4.136,5.609,5.87,5.87,0,0,1-4.087-4.844q.588.036,1.182.036a20.286,20.286,0,0,0,7.041-1.257Zm0,0" transform="translate(-79.359 -201.803)" fill="#f6caae"/>
      <path id="Trazado_690993" data-name="Trazado 690993" d="M10.922,168.758a5.461,5.461,0,1,1-4.587-5.39A5.461,5.461,0,0,1,10.922,168.758Zm0,0" transform="translate(0 -124.56)" fill="#f6caae"/>
      <path id="Trazado_690994" data-name="Trazado 690994" d="M28.964,168.984a5.461,5.461,0,0,1-4.587,5.391,20.414,20.414,0,0,1,0-10.781A5.46,5.46,0,0,1,28.964,168.984Zm0,0" transform="translate(-18.042 -124.786)" fill="#eab599"/>
      <path id="Trazado_690995" data-name="Trazado 690995" d="M18.7,180.041a1.952,1.952,0,1,1-1.952-1.952A1.952,1.952,0,0,1,18.7,180.041Zm0,0" transform="translate(-11.284 -135.844)" fill="#eab599"/>
      <path id="Trazado_690996" data-name="Trazado 690996" d="M62.637,117.064v18.772a20.241,20.241,0,0,1-10.761,5.355l-.1.017a20.065,20.065,0,0,1-3.162.246A20.318,20.318,0,0,1,28.3,121.135V113.4a20.475,20.475,0,0,1,.208-2.918,12.876,12.876,0,0,0,16.182-1.041,11.507,11.507,0,0,0,3.053-4.771,13.408,13.408,0,0,0,4.194,8.37A15,15,0,0,0,62.637,117.064Zm0,0" transform="translate(-21.584 -79.839)" fill="#eab599"/>
      <path id="Trazado_690997" data-name="Trazado 690997" d="M82.982,117.064v18.772a20.241,20.241,0,0,1-10.761,5.355l-.1.017a20.321,20.321,0,0,1-17.152-20.072V113.4q0-.309.011-.614a12.732,12.732,0,0,0,10.051-3.345,11.5,11.5,0,0,0,3.053-4.77,13.408,13.408,0,0,0,4.194,8.37A15,15,0,0,0,82.982,117.064Zm0,0" transform="translate(-41.929 -79.839)" fill="#f6caae"/>
      <path id="Trazado_690998" data-name="Trazado 690998" d="M138.246,156a3.375,3.375,0,1,0-6.75,0" transform="translate(-100.303 -116.419)" fill="#eab599"/>
      <path id="Trazado_690999" data-name="Trazado 690999" d="M74.71,156a3.374,3.374,0,1,0-6.749,0" transform="translate(-51.839 -116.419)" fill="#eab599"/>
      <path id="Trazado_691000" data-name="Trazado 691000" d="M77.079,165.5a2.305,2.305,0,1,1-2.305-2.3A2.306,2.306,0,0,1,77.079,165.5Zm0,0" transform="translate(-55.278 -124.479)" fill="#3d4159"/>
      <path id="Trazado_691001" data-name="Trazado 691001" d="M140.617,165.5a2.3,2.3,0,1,1-2.3-2.3A2.3,2.3,0,0,1,140.617,165.5Zm0,0" transform="translate(-103.744 -124.479)" fill="#3d4159"/>
      <path id="Trazado_691002" data-name="Trazado 691002" d="M105.651,190.977h-4.61a.994.994,0,1,1,0-1.989h4.61a.994.994,0,0,1,0,1.989Zm0,0" transform="translate(-76.314 -144.157)" fill="#eab599"/>
      <path id="Trazado_691003" data-name="Trazado 691003" d="M96.518,214.323a10.262,10.262,0,0,1-4.954-1.28.9.9,0,1,1,.871-1.584,8.432,8.432,0,0,0,8.166,0,.9.9,0,1,1,.871,1.584A10.262,10.262,0,0,1,96.518,214.323Zm0,0" transform="translate(-69.486 -161.212)" fill="#eab599"/>
      <path id="Trazado_691004" data-name="Trazado 691004" d="M83.569,168.015a.988.988,0,1,1-.988-.988A.988.988,0,0,1,83.569,168.015Zm0,0" transform="translate(-62.238 -127.405)" fill="#fff"/>
      <path id="Trazado_691005" data-name="Trazado 691005" d="M147.584,168.015a.987.987,0,1,1-.987-.988A.987.987,0,0,1,147.584,168.015Zm0,0" transform="translate(-111.068 -127.405)" fill="#fff"/>
      <path id="Trazado_691006" data-name="Trazado 691006" d="M155.972,188.434a2.531,2.531,0,1,1-2.532-2.532A2.531,2.531,0,0,1,155.972,188.434Zm0,0" transform="translate(-115.111 -141.803)" fill="#eab599"/>
      <path id="Trazado_691007" data-name="Trazado 691007" d="M60.714,188.434a2.531,2.531,0,1,1-2.531-2.532A2.53,2.53,0,0,1,60.714,188.434Zm0,0" transform="translate(-42.451 -141.803)" fill="#eab599"/>
      <path id="Trazado_691008" data-name="Trazado 691008" d="M342.209,274.744v7.6a60.969,60.969,0,0,1-29.537,29.839,60.6,60.6,0,0,1-16.082,4.942.186.186,0,0,1-.04.006V274.744a17.216,17.216,0,0,1,15.812-17.16c.466-.04.934-.057,1.408-.057h11.214a17.193,17.193,0,0,1,17.224,17.217Zm0,0" transform="translate(-226.203 -196.437)" fill="#bfd5de"/>
      <path id="Trazado_691009" data-name="Trazado 691009" d="M370.488,274.744v7.6a60.969,60.969,0,0,1-29.537,29.839,60.1,60.1,0,0,1-7.327,2.862v-40.3a17.22,17.22,0,0,1,17.222-17.217h2.419A17.219,17.219,0,0,1,370.488,274.744Zm0,0" transform="translate(-254.483 -196.437)" fill="#dde8ed"/>
      <path id="Trazado_691010" data-name="Trazado 691010" d="M284.99,159.093a5.71,5.71,0,1,1-4.8-5.64A5.713,5.713,0,0,1,284.99,159.093Zm0,0" transform="translate(-208.668 -116.995)" fill="#d3a489"/>
      <path id="Trazado_691011" data-name="Trazado 691011" d="M382.543,283.711l-4.623,7.415-4.623-7.415" transform="translate(-284.744 -216.409)" fill="#f74f4f"/>
      <path id="Trazado_691012" data-name="Trazado 691012" d="M379,329.711l-6.22,7.849-6.221-7.849,6.221-22.875Zm0,0" transform="translate(-279.607 -234.049)" fill="#f74f4f"/>
      <path id="Trazado_691013" data-name="Trazado 691013" d="M303.869,159.328a5.713,5.713,0,0,1-4.8,5.64,21.365,21.365,0,0,1,0-11.281A5.715,5.715,0,0,1,303.869,159.328Zm0,0" transform="translate(-227.547 -117.23)" fill="#bf8e75"/>
      <path id="Trazado_691014" data-name="Trazado 691014" d="M293.127,170.9a2.042,2.042,0,1,1-2.042-2.041A2.043,2.043,0,0,1,293.127,170.9Zm0,0" transform="translate(-220.477 -128.803)" fill="#bf8e75"/>
      <path id="Trazado_691015" data-name="Trazado 691015" d="M360.267,256.694,352.515,261l-2.358-10.97,4.817-2.837" transform="translate(-267.093 -188.556)" fill="#bfd5de"/>
      <path id="Trazado_691016" data-name="Trazado 691016" d="M392.777,256.694,400.531,261l2.358-10.97-4.818-2.837" transform="translate(-299.603 -188.556)" fill="#bfd5de"/>
      <path id="Trazado_691017" data-name="Trazado 691017" d="M463.828,159.093a5.71,5.71,0,1,0,4.8-5.64A5.713,5.713,0,0,0,463.828,159.093Zm0,0" transform="translate(-353.799 -116.995)" fill="#d3a489"/>
      <g id="Grupo_947562" data-name="Grupo 947562" transform="translate(71.917 17.768)">
        <path id="Trazado_691018" data-name="Trazado 691018" d="M463.828,159.328a5.713,5.713,0,0,0,4.8,5.64,21.366,21.366,0,0,0,0-11.281A5.715,5.715,0,0,0,463.828,159.328Zm0,0" transform="translate(-425.716 -134.998)" fill="#bf8e75"/>
        <path id="Trazado_691019" data-name="Trazado 691019" d="M483.389,170.9a2.042,2.042,0,1,1-2.042-2.041A2.043,2.043,0,0,1,483.389,170.9Zm0,0" transform="translate(-437.522 -146.571)" fill="#bf8e75"/>
        <path id="Trazado_691020" data-name="Trazado 691020" d="M345.685,96.194a21.26,21.26,0,0,1-17.847,20.984,21,21,0,0,1-3.412.274,21.257,21.257,0,0,1-21.258-21.258c0-5.555,1.929-13.895,5.418-17.682,3.884-4.217,9.654-3.577,15.84-3.577a21.008,21.008,0,0,1,3.412.275A21.259,21.259,0,0,1,345.685,96.194Zm0,0" transform="translate(-303.168 -74.9)" fill="#bf8e75"/>
        <path id="Trazado_691021" data-name="Trazado 691021" d="M379.171,229.559v7.54a6.144,6.144,0,0,1-12.288,0v-7.54Zm0,0" transform="translate(-351.768 -192.871)" fill="#bf8e75"/>
      </g>
      <path id="Trazado_691022" data-name="Trazado 691022" d="M391.018,259.328v.478a4.442,4.442,0,1,1-8.6.8q.616.038,1.238.038a21.119,21.119,0,0,0,3.412-.274A20.9,20.9,0,0,0,391.018,259.328Zm0,0" transform="translate(-291.698 -197.811)" fill="#d3a489"/>
      <path id="Trazado_691023" data-name="Trazado 691023" d="M367.627,97.188a21.26,21.26,0,0,1-17.847,20.984,21.26,21.26,0,0,1,0-41.968,21.266,21.266,0,0,1,17.742,18.864C367.591,95.765,367.627,96.473,367.627,97.188Zm0,0" transform="translate(-253.193 -58.126)" fill="#d3a489"/>
      <path id="Trazado_691024" data-name="Trazado 691024" d="M374.542,198.793a10.737,10.737,0,0,1-5.183-1.338.945.945,0,1,1,.911-1.657,8.829,8.829,0,0,0,8.544,0,.945.945,0,0,1,.911,1.657A10.742,10.742,0,0,1,374.542,198.793Zm0,0" transform="translate(-281.366 -149.261)" fill="#bf8e75"/>
      <path id="Trazado_691025" data-name="Trazado 691025" d="M358.19,151.693a2.412,2.412,0,1,1-2.412-2.412A2.411,2.411,0,0,1,358.19,151.693Zm0,0" transform="translate(-269.542 -113.869)" fill="#3d4159"/>
      <path id="Trazado_691026" data-name="Trazado 691026" d="M416.69,151.693a2.412,2.412,0,1,1-2.411-2.412A2.411,2.411,0,0,1,416.69,151.693Zm0,0" transform="translate(-314.165 -113.869)" fill="#3d4159"/>
      <path id="Trazado_691027" data-name="Trazado 691027" d="M364.98,154.33a1.033,1.033,0,1,1-1.033-1.033A1.034,1.034,0,0,1,364.98,154.33Zm0,0" transform="translate(-276.824 -116.932)" fill="#fff"/>
      <path id="Trazado_691028" data-name="Trazado 691028" d="M423.98,154.33a1.033,1.033,0,1,1-1.033-1.033A1.034,1.034,0,0,1,423.98,154.33Zm0,0" transform="translate(-321.828 -116.932)" fill="#fff"/>
      <path id="Trazado_691029" data-name="Trazado 691029" d="M384.094,178.354h-4.823a1.04,1.04,0,1,1,0-2.08h4.823a1.04,1.04,0,1,1,0,2.08Zm0,0" transform="translate(-288.507 -134.458)" fill="#bf8e75"/>
      <path id="Trazado_691030" data-name="Trazado 691030" d="M422.289,327.727h9.267v2.836h-9.267Zm0,0" transform="translate(-322.114 -249.984)" fill="#bfd5de"/>
      <path id="Trazado_691031" data-name="Trazado 691031" d="M387.539,49.342a12.884,12.884,0,0,1,11.938,12.21l.061,1.23h3.7l2,13.268,4.832-1.5-.649-13A12.885,12.885,0,0,0,396.5,49.308Zm0,0" transform="translate(-295.607 -37.611)" fill="#2a2f4f"/>
      <path id="Trazado_691032" data-name="Trazado 691032" d="M418.344,27.816a13.131,13.131,0,0,1-18.571,18.571Zm0,0" transform="translate(-304.94 -21.218)" fill="#3d4159"/>
      <path id="Trazado_691033" data-name="Trazado 691033" d="M326,62.778H309.879l-2,13.269-4.832-1.5.648-13A12.886,12.886,0,0,1,316.617,49.3l23.276.088,3.077,5.539" transform="translate(-231.161 -37.608)" fill="#3d4159"/>
      <path id="Trazado_691034" data-name="Trazado 691034" d="M325.578,49.342a12.884,12.884,0,0,0-11.938,12.21l-.061,1.23h-3.7l-2,13.268-4.832-1.5.649-13a12.885,12.885,0,0,1,12.917-12.245Zm0,0" transform="translate(-231.158 -37.611)" fill="#2a2f4f"/>
      <path id="Trazado_691035" data-name="Trazado 691035" d="M198.961,406.3v4.553a60.888,60.888,0,0,1-51.485,0V406.3a19.422,19.422,0,0,1,14.386-18.759c.3-.082.608-.157.917-.223a19.2,19.2,0,0,1,2.526-.372c.525-.043,1.054-.065,1.589-.065h12.646a19.464,19.464,0,0,1,4.12.436c.077.015.154.032.228.05.223.052.446.107.666.166l.018,0A19.438,19.438,0,0,1,198.961,406.3Zm0,0" transform="translate(-112.492 -295.107)" fill="#3d4159"/>
      <path id="Trazado_691036" data-name="Trazado 691036" d="M230.729,388.723l-.047.221-6.194,28.805q-.481.04-.965.074c-.454.03-.91.057-1.369.077q-1.405.067-2.825.067-1.458,0-2.895-.069-.651-.029-1.3-.077c-.324-.022-.647-.044-.969-.071l-6.192-28.8-.046-.223Zm0,0" transform="translate(-158.602 -296.51)" fill="#66baed"/>
      <path id="Trazado_691037" data-name="Trazado 691037" d="M244.445,416.422l-5.213,8.36-5.212-8.36" transform="translate(-178.506 -317.639)" fill="#3d4159"/>
      <path id="Trazado_691038" data-name="Trazado 691038" d="M246.7,458.837c-.454.03-.91.057-1.369.077q-1.405.067-2.825.067-1.458,0-2.895-.069-.651-.029-1.3-.077l4.2-16.342Zm0,0" transform="translate(-181.777 -337.525)" fill="#3d4159"/>
      <path id="Trazado_691039" data-name="Trazado 691039" d="M219.324,385.953l-8.743,4.858-2.659-12.37,5.432-3.2" transform="translate(-158.599 -286.228)" fill="#2ba1cf"/>
      <path id="Trazado_691040" data-name="Trazado 691040" d="M255.988,385.953l8.742,4.858,2.659-12.37-5.432-3.2" transform="translate(-195.263 -286.228)" fill="#2ba1cf"/>
      <path id="Trazado_691041" data-name="Trazado 691041" d="M276.814,405.417h2.773L274.744,417.2a60.351,60.351,0,0,1-6.834.7l8.509-28.961.065-.216,5.981,1.953Zm0,0" transform="translate(-204.357 -296.51)" fill="#2a2f4f"/>
      <path id="Trazado_691042" data-name="Trazado 691042" d="M196.987,417.9a60.159,60.159,0,0,1-6.839-.709l-4.839-11.771h2.773l-5.653-14.741,5.983-1.953.065.216Zm0,0" transform="translate(-139.154 -296.51)" fill="#2a2f4f"/>
      <path id="Trazado_691043" data-name="Trazado 691043" d="M240.642,355.352v8.5a6.928,6.928,0,0,1-13.857,0v-8.5Zm0,0" transform="translate(-172.987 -271.055)" fill="#eab599"/>
      <path id="Trazado_691044" data-name="Trazado 691044" d="M254,388.922v.539a6.929,6.929,0,0,1-4.88,6.618,6.927,6.927,0,0,1-4.823-5.716q.695.043,1.4.043A23.887,23.887,0,0,0,254,388.922Zm0,0" transform="translate(-186.345 -296.662)" fill="#f6caae"/>
      <path id="Trazado_691045" data-name="Trazado 691045" d="M134.438,275.889a6.445,6.445,0,0,1-5.412,6.36,6.518,6.518,0,0,1-1.031.082,6.443,6.443,0,1,1,6.443-6.443Zm0,0" transform="translate(-92.717 -205.528)" fill="#f6caae"/>
      <path id="Trazado_691046" data-name="Trazado 691046" d="M155.727,276.157a6.445,6.445,0,0,1-5.412,6.36,24.1,24.1,0,0,1,0-12.721A6.445,6.445,0,0,1,155.727,276.157Zm0,0" transform="translate(-114.006 -205.796)" fill="#eab599"/>
      <path id="Trazado_691047" data-name="Trazado 691047" d="M143.613,289.205a2.3,2.3,0,1,1-2.3-2.3A2.3,2.3,0,0,1,143.613,289.205Zm0,0" transform="translate(-106.033 -218.844)" fill="#eab599"/>
      <path id="Trazado_691048" data-name="Trazado 691048" d="M336.105,275.889a6.445,6.445,0,1,0,5.412-6.36A6.445,6.445,0,0,0,336.105,275.889Zm0,0" transform="translate(-256.375 -205.528)" fill="#f6caae"/>
      <path id="Trazado_691049" data-name="Trazado 691049" d="M336.105,276.157a6.445,6.445,0,0,0,5.412,6.36,24.1,24.1,0,0,0,0-12.721A6.445,6.445,0,0,0,336.105,276.157Zm0,0" transform="translate(-256.375 -205.796)" fill="#eab599"/>
      <path id="Trazado_691050" data-name="Trazado 691050" d="M202.885,166.61v9.128A23.972,23.972,0,0,1,182.759,199.4l-.117.019a23.553,23.553,0,0,1-3.731.29,23.97,23.97,0,0,1-23.97-23.97V166.61a23.957,23.957,0,0,1,23.97-23.973h0a23.955,23.955,0,0,1,23.971,23.973Zm0,0" transform="translate(-118.186 -108.801)" fill="#eab599"/>
      <path id="Trazado_691051" data-name="Trazado 691051" d="M358.164,289.205a2.3,2.3,0,1,1-2.3-2.3A2.3,2.3,0,0,1,358.164,289.205Zm0,0" transform="translate(-269.688 -218.844)" fill="#eab599"/>
      <path id="Trazado_691052" data-name="Trazado 691052" d="M226.885,167.542v9.128a23.972,23.972,0,0,1-20.125,23.662l-.118.019a23.975,23.975,0,0,1-20.236-23.681v-9.128a23.977,23.977,0,0,1,20.241-23.683A23.976,23.976,0,0,1,226.885,167.542Zm0,0" transform="translate(-142.187 -109.733)" fill="#f6caae"/>
      <path id="Trazado_691053" data-name="Trazado 691053" d="M216.981,267.547a2.719,2.719,0,1,1-2.719-2.719A2.719,2.719,0,0,1,216.981,267.547Zm0,0" transform="translate(-161.361 -202.006)" fill="#3d4159"/>
      <path id="Trazado_691054" data-name="Trazado 691054" d="M282.951,267.547a2.72,2.72,0,1,1-2.72-2.719A2.72,2.72,0,0,1,282.951,267.547Zm0,0" transform="translate(-211.681 -202.006)" fill="#3d4159"/>
      <path id="Trazado_691055" data-name="Trazado 691055" d="M224.639,270.521a1.165,1.165,0,1,1-1.166-1.166A1.165,1.165,0,0,1,224.639,270.521Zm0,0" transform="translate(-169.573 -205.459)" fill="#fff"/>
      <path id="Trazado_691056" data-name="Trazado 691056" d="M291.17,270.521a1.165,1.165,0,1,1-1.165-1.166A1.165,1.165,0,0,1,291.17,270.521Zm0,0" transform="translate(-220.322 -205.459)" fill="#fff"/>
      <path id="Trazado_691057" data-name="Trazado 691057" d="M246.195,293.116h-5.439a1.173,1.173,0,0,1,0-2.346h5.439a1.173,1.173,0,0,1,0,2.346Zm0,0" transform="translate(-182.749 -221.794)" fill="#eab599"/>
      <path id="Trazado_691058" data-name="Trazado 691058" d="M235.421,320.657a12.11,12.11,0,0,1-5.844-1.509,1.066,1.066,0,0,1,1.028-1.869,9.947,9.947,0,0,0,9.633,0,1.066,1.066,0,0,1,1.028,1.869A12.112,12.112,0,0,1,235.421,320.657Zm0,0" transform="translate(-174.695 -241.913)" fill="#eab599"/>
      <path id="Trazado_691059" data-name="Trazado 691059" d="M202.882,146.711v9.351H198.42v-7.323l-32.206-5.984-6.814-1.267v14.574h-4.462V146.71a19.3,19.3,0,0,1,19.3-19.3h9.348c.254,0,.508,0,.762.018A19.3,19.3,0,0,1,202.882,146.711Zm0,0" transform="translate(-118.183 -97.186)" fill="#2a2f4f"/>
      <path id="Trazado_691060" data-name="Trazado 691060" d="M239.141,146.768v9.351h-4.462V148.8l-32.206-5.984a18.478,18.478,0,0,1,36.668,3.957Zm0,0" transform="translate(-154.442 -97.243)" fill="#3d4159"/>
    </g>
  </g>
</svg>
