<svg xmlns="http://www.w3.org/2000/svg" width="165" height="165" viewBox="0 0 165 165">
  <g id="_8" data-name="8" transform="translate(-6389 10745)">
    <circle id="Elipse_5509" data-name="Elipse 5509" cx="82.5" cy="82.5" r="82.5" transform="translate(6389 -10745)" fill="#ccd3ca"/>
    <g id="la-carretera" transform="translate(6410 -10724)">
      <path id="Trazado_691061" data-name="Trazado 691061" d="M121.159,18.5l-4.262,8.45C98.124,64.179,47.1,69.439,21.13,36.83A61.24,61.24,0,0,1,121.159,18.5Z" transform="translate(-16.076)" fill="#92eaff"/>
      <g id="Grupo_947563" data-name="Grupo 947563" transform="translate(5.054 30.853)">
        <path id="Trazado_691062" data-name="Trazado 691062" d="M54.32,155.39a56.5,56.5,0,0,1-33.19-20.413,61.453,61.453,0,0,1,3-5.977A61.447,61.447,0,0,0,54.32,155.39Z" transform="translate(-21.13 -129)" fill="#63dbfa"/>
      </g>
      <g id="Grupo_947663" data-name="Grupo 947663" transform="translate(0 15.017)">
        <path id="Trazado_691063" data-name="Trazado 691063" d="M122.456,109a61.547,61.547,0,0,1-.892,10.461q-.438,2.554-1.088,5.032a61.266,61.266,0,0,1-59.059,45.734h-.189a61.251,61.251,0,0,1-59.25-45.734q-.646-2.475-1.086-5.032a60.232,60.232,0,0,1-.741-6.142Q0,111.178,0,109A61.1,61.1,0,0,1,3.167,89.514q.839-2.508,1.887-4.915a6.434,6.434,0,0,1,4.673,2.15,3.7,3.7,0,0,1,3.913-3.623,8.044,8.044,0,0,1,3.75-8.766,7.328,7.328,0,0,1,8.828,2.009,6.586,6.586,0,0,1,6.412-2.107,5.967,5.967,0,0,1,4.2,4.829c2.664-1.672,7.063-.839,9.208,1.459A5.989,5.989,0,0,1,50.8,75.494a6.1,6.1,0,0,1,6.152,3.4,8.423,8.423,0,0,1,4.272-.718,10.8,10.8,0,0,1,3.913,1.062,6.641,6.641,0,0,1,4.174-5.893,6.4,6.4,0,0,1,6.9,1.607,8.031,8.031,0,0,1,3.729-5.58,6.263,6.263,0,0,1,5.881.332,8.455,8.455,0,0,1,4.08-6.039,7.387,7.387,0,0,1,10.846,5.444,8.983,8.983,0,0,1,4.336-2.839q1.625,1.665,3.116,3.451a61.01,61.01,0,0,1,14.255,38.669c0,.2,0,.4,0,.6Z" transform="translate(0 -62.786)" fill="#fff"/>
        <path id="Trazado_691064" data-name="Trazado 691064" d="M317.228,109a61.547,61.547,0,0,1-.892,10.461q-.438,2.554-1.088,5.032a61.266,61.266,0,0,1-59.059,45.734H256V78.18a10.8,10.8,0,0,1,3.913,1.062,6.641,6.641,0,0,1,4.174-5.893,6.4,6.4,0,0,1,6.9,1.607,8.031,8.031,0,0,1,3.729-5.58,6.263,6.263,0,0,1,5.881.332,8.455,8.455,0,0,1,4.08-6.039,7.387,7.387,0,0,1,10.846,5.444,8.983,8.983,0,0,1,4.336-2.839q.915.936,1.784,1.913.685.757,1.332,1.538A61,61,0,0,1,314.628,91.3q.743,2.454,1.277,4.987a60.784,60.784,0,0,1,1.122,7.723q.176,2.17.2,4.384c0,.2,0,.4,0,.6Z" transform="translate(-194.772 -62.786)" fill="#dff7fd"/>
        <path id="Trazado_691065" data-name="Trazado 691065" d="M122.456,131.072a61.547,61.547,0,0,1-.892,10.461q-.438,2.554-1.088,5.032A61.266,61.266,0,0,1,61.417,192.3h-.189a61.251,61.251,0,0,1-59.25-45.734q-.646-2.475-1.086-5.032a60.232,60.232,0,0,1-.741-6.142Q0,133.253,0,131.072a61.1,61.1,0,0,1,3.167-19.483,7.917,7.917,0,0,1,5.123,3.38,4.578,4.578,0,0,1,4.307-.787,4.071,4.071,0,0,1,.777-3.92,3.789,3.789,0,0,1,3.693-1.071,7.841,7.841,0,0,1-.105-4.941,5.19,5.19,0,0,1,9.139-1.205,4.468,4.468,0,0,1,4.745-1.8,4.271,4.271,0,0,1,2.951,3.973c.952.311,1.782.509,2.734.82a5.388,5.388,0,0,1,4.75-1.165,4.984,4.984,0,0,1,3.535,3.092c1.313-.316,2.418-.347,3.731-.665a3.707,3.707,0,0,1,6.943-1.131,7.448,7.448,0,0,1,5.738-.189,9.644,9.644,0,0,1,3.112,1.787,6.364,6.364,0,0,1,5.534-2.083c-.062-1.54.619-3.25,2.078-3.745a3.712,3.712,0,0,1,4.1,1.33,3.934,3.934,0,0,1,3.992-1.134,3.488,3.488,0,0,1-.115-2.918,4.444,4.444,0,0,1,7.433-1.586c.347-2.59,2.88-4.434,5.472-4.762a6.159,6.159,0,0,1,6.288,3.69,4.327,4.327,0,0,1,3.879.5A9.058,9.058,0,0,1,108.2,91.8a61.01,61.01,0,0,1,14.255,38.669C122.456,130.67,122.456,130.871,122.456,131.072Z" transform="translate(0 -84.861)" fill="#dff7fd"/>
        <path id="Trazado_691066" data-name="Trazado 691066" d="M317.228,131.072a61.548,61.548,0,0,1-.892,10.461q-.438,2.554-1.088,5.032A61.266,61.266,0,0,1,256.189,192.3H256V105.98a9.644,9.644,0,0,1,3.112,1.787,6.364,6.364,0,0,1,5.534-2.083c-.062-1.54.619-3.25,2.078-3.745a3.712,3.712,0,0,1,4.1,1.33,3.934,3.934,0,0,1,3.992-1.134,3.488,3.488,0,0,1-.115-2.918,4.444,4.444,0,0,1,7.433-1.586c.347-2.59,2.88-4.434,5.472-4.762a6.159,6.159,0,0,1,6.288,3.69,4.327,4.327,0,0,1,3.879.5,9.059,9.059,0,0,1,5.192-5.264,61.01,61.01,0,0,1,14.255,38.669c0,.2,0,.4,0,.6Z" transform="translate(-194.772 -84.861)" fill="#c5f2f9"/>
        <path id="Trazado_691067" data-name="Trazado 691067" d="M305.143,121.193l-50.793-.01-10.234,0H240.38l3.736-3.9,21.836-22.774,3.411,3.413c.014.017,1.268,1.277,2.65,2.66a2.1,2.1,0,0,0,2.994-.033l14.747-15.18q.685.757,1.332,1.538a60.942,60.942,0,0,1,14.056,34.285Z" transform="translate(-182.888 -79.968)" fill="#7e7f92"/>
        <path id="Trazado_691068" data-name="Trazado 691068" d="M349.583,160.528l-50.793-.01,11.557-11.994,3.456,3.456c.014.019,1.268,1.275,2.65,2.655a2.093,2.093,0,0,0,2.994-.031l17.019-17.534,10.717,10.748q.743,2.454,1.277,4.987A60.779,60.779,0,0,1,349.583,160.528Z" transform="translate(-227.328 -119.303)" fill="#6e6f83"/>
        <path id="Trazado_691069" data-name="Trazado 691069" d="M122.456,240.144a61.547,61.547,0,0,1-.892,10.461q-.438,2.554-1.088,5.032a61.275,61.275,0,0,1-44.39,43.917q-1.715.431-3.468.758-2.156.409-4.365.658a60.851,60.851,0,0,1-6.836.4h-.189a61.161,61.161,0,0,1-18.5-2.846A60.425,60.425,0,0,1,35,295.484l-.031-.014q-2.5-1.195-4.879-2.6-1.04-.613-2.05-1.268c-.665-.431-1.32-.871-1.966-1.327q-2.174-1.525-4.2-3.231-2.264-1.9-4.329-4.006-.786-.8-1.54-1.624-1.091-1.195-2.114-2.447A60.661,60.661,0,0,1,8.751,271.7q-.574-.951-1.112-1.923-.262-.47-.514-.945-.771-1.453-1.466-2.951a60.55,60.55,0,0,1-3.4-9.2c-.1-.347-.194-.7-.285-1.045q-.646-2.475-1.086-5.032a60.231,60.231,0,0,1-.741-6.142Q0,242.326,0,240.144q0-2.519.2-4.984H122.255q.176,2.17.2,4.382C122.456,239.743,122.456,239.943,122.456,240.144Z" transform="translate(0 -193.933)" fill="#b6e337"/>
        <path id="Trazado_691070" data-name="Trazado 691070" d="M271.984,240.144a61.547,61.547,0,0,1-.892,10.461q-.438,2.554-1.088,5.032-.556,2.138-1.263,4.217a61.287,61.287,0,0,1-12.755,21.559,61.666,61.666,0,0,1-4.463,4.413c-.366.325-.734.648-1.107.964a60.956,60.956,0,0,1-28.27,13.523l-.2-.081c-4.623-2.157-14.106-5.1-23.106-13.262a6.582,6.582,0,0,1-2.145-6.29c.663-2.851,7.644-7.613,10.911-9.988s7.8-4.929,10.2-7.828c1.287-1.555,1.5-3.095.055-5.271-1.344-2.026-12.444-7.61-16.388-10.048s-4.594-3.667-4.841-4.776a2.845,2.845,0,0,1,1.4-3.064c2.112-1.545,8.1-3.533,11.356-4.544h62.393c.117,1.449.184,2.906.2,4.382C271.984,239.743,271.984,239.943,271.984,240.144Z" transform="translate(-149.527 -193.933)" fill="#6cdc2d"/>
        <g id="Grupo_947568" data-name="Grupo 947568" transform="translate(95.07 34.262)">
          <g id="Grupo_947564" data-name="Grupo 947564" transform="translate(6.894 9.615)">
            <path id="Trazado_691071" data-name="Trazado 691071" d="M426.321,246.242h2.12v12.807h-2.12Z" transform="translate(-426.321 -246.242)" fill="#ec771b"/>
          </g>
          <path id="Trazado_691072" data-name="Trazado 691072" d="M430.754,246.242h1.06v12.807h-1.06Z" transform="translate(-422.8 -236.627)" fill="#c55732"/>
          <path id="Trazado_691073" data-name="Trazado 691073" d="M426.321,246.242h1.06v8.811h-1.06Z" transform="translate(-419.427 -236.627)" fill="#c55732"/>
          <path id="Trazado_691074" data-name="Trazado 691074" d="M430.754,246.242h1.06v8.811h-1.06Z" transform="translate(-422.8 -236.627)" fill="#a44e3e"/>
          <g id="Grupo_947565" data-name="Grupo 947565">
            <path id="Trazado_691075" data-name="Trazado 691075" d="M413.405,218.884a3.977,3.977,0,0,1-3.983,3.956h-7.941a3.978,3.978,0,0,1-3.984-3.956,3.9,3.9,0,0,1,1.171-2.752,1.648,1.648,0,0,0,.482-1.277c-.005-.082-.008-.165-.008-.249a3.91,3.91,0,0,1,1.662-3.2,1.7,1.7,0,0,0,.729-1.382v-.064a3.916,3.916,0,0,1,3.916-3.917h.067a3.865,3.865,0,0,1,2.73,1.2,4.015,4.015,0,0,1,1.119,2.783,1.7,1.7,0,0,0,.729,1.382,3.912,3.912,0,0,1,1.662,3.2c0,.083,0,.167-.008.249a1.642,1.642,0,0,0,.482,1.277,3.9,3.9,0,0,1,1.171,2.752Z" transform="translate(-397.497 -206.039)" fill="#43af3e"/>
          </g>
          <g id="Grupo_947567" data-name="Grupo 947567" transform="translate(4.189)">
            <g id="Grupo_947566" data-name="Grupo 947566">
              <path id="Trazado_691076" data-name="Trazado 691076" d="M426.731,218.884a3.977,3.977,0,0,1-3.983,3.956H416.9c-1.03,0-1.9-1.78-1.885-3.956a6.587,6.587,0,0,1,.554-2.752,2.878,2.878,0,0,0,.228-1.277c0-.082,0-.165,0-.249a6,6,0,0,1,.787-3.2,2.594,2.594,0,0,0,.345-1.382v-.064c0-2.163.83-3.917,1.854-3.917h.067a3.865,3.865,0,0,1,2.73,1.2,4.015,4.015,0,0,1,1.119,2.783,1.7,1.7,0,0,0,.729,1.382,3.912,3.912,0,0,1,1.662,3.2c0,.083,0,.167-.008.249a1.642,1.642,0,0,0,.482,1.277,3.9,3.9,0,0,1,1.171,2.752Z" transform="translate(-415.013 -206.039)" fill="#00a23e"/>
            </g>
          </g>
          <path id="Trazado_691077" data-name="Trazado 691077" d="M438.708,218.884a3.977,3.977,0,0,1-3.983,3.956h-3.971v-16.8h.067a3.865,3.865,0,0,1,2.73,1.2,4.015,4.015,0,0,1,1.119,2.783,1.7,1.7,0,0,0,.729,1.382,3.912,3.912,0,0,1,1.662,3.2c0,.083,0,.167-.008.249a1.642,1.642,0,0,0,.482,1.277,3.9,3.9,0,0,1,1.171,2.752Z" transform="translate(-422.8 -206.039)" fill="#008839"/>
        </g>
        <path id="Trazado_691078" data-name="Trazado 691078" d="M56.919,154.449l-9.285,0-40.59.007H.84q.161-2.027.457-4.018L22.59,129.09l11.315,11.648a1.393,1.393,0,0,0,1.99.022c.918-.918,1.751-1.756,1.76-1.767l2.267-2.267Z" transform="translate(-0.639 -113.232)" fill="#7e7f92"/>
        <path id="Trazado_691079" data-name="Trazado 691079" d="M67.37,185.554l-40.59.007L42.329,169.97l11.313,11.652a1.391,1.391,0,0,0,1.99.022c.918-.918,1.751-1.753,1.76-1.765l.732-.732,3.2.041Z" transform="translate(-20.375 -144.334)" fill="#6e6f83"/>
        <g id="Grupo_947570" data-name="Grupo 947570" transform="translate(28.377 41.227)">
          <path id="Trazado_691080" data-name="Trazado 691080" d="M181.95,293.272a60.711,60.711,0,0,1-15.655,6.3c-2.189.543-4.425-.417-6.7-.117-.37.049-.742,1.48-1.115,1.523a61.158,61.158,0,0,1-6.792.4H151.5a61.162,61.162,0,0,1-18.5-2.846,60.425,60.425,0,0,1-7.732-3.042l-.031-.014c-6.1-5-7.044-9.323-6.424-13.948,1.794-13.394,29.3-15.027,29.3-21.884,0-3.786-6.549-5.082-13.274-9.866-2.9-2.064-4.571-4.889-3.246-8.182,1.107-2.755,6.685-4.953,14.714-6.429h10.15c-3.748.938-13.678,3.712-13.652,6.625.05,5.3,27.785,9.282,27.428,20-.239,7.175-12.774,12.255-11.767,17.864.906,5.061,13.769,10.327,23.487,13.618Z" transform="translate(-118.648 -235.16)" fill="#9596a5"/>
          <path id="Trazado_691081" data-name="Trazado 691081" d="M256,324.608V308.87c3.389,1.93,6.439,3.8,7.1,4.8,1.447,2.176,1.232,3.717-.055,5.271C261.36,320.982,258.617,322.852,256,324.608Z" transform="translate(-223.149 -291.241)" fill="#7e7f92"/>
          <path id="Trazado_691082" data-name="Trazado 691082" d="M264.1,486.435a61.145,61.145,0,0,1-7.907.533H256V479.1c3.389,1.93,6.439,3.8,7.1,4.8A5.246,5.246,0,0,1,264.1,486.435Z" transform="translate(-223.149 -420.756)" fill="#7e7f92"/>
          <path id="Trazado_691083" data-name="Trazado 691083" d="M286.451,332.766a60.7,60.7,0,0,1-15.594,6.283c-1.143.287-2.3.113-3.468.331l-.2.346c-2.55-1.189-6.577-2.617-11.188-5.03V308.021c2.617-1.756,5.36-3.626,7.048-5.664,1.287-1.555,1.5-3.095.055-5.271-.665-1-3.714-2.872-7.1-4.8V287.07c8.117,3.411,18.957,7.486,18.732,14.214-.239,7.175-12.774,12.255-11.767,17.864C263.871,324.209,276.734,329.475,286.451,332.766Z" transform="translate(-223.149 -274.655)" fill="#6e6f83"/>
          <g id="Grupo_947569" data-name="Grupo 947569" transform="translate(18.628)">
            <path id="Trazado_691084" data-name="Trazado 691084" d="M202.141,241.785c.017,1.973,3.879,3.765,8.7,5.79v5.214c-3.468-1.976-7.29-4.013-9.285-5.245-3.946-2.435-4.594-3.666-4.841-4.776a2.845,2.845,0,0,1,1.4-3.064c2.112-1.545,8.1-3.533,11.356-4.544h6.321c-1.2.3-3.023.784-4.956,1.406-4.119,1.318-8.713,3.236-8.7,5.219Z" transform="translate(-196.615 -235.16)" fill="#7e7f92"/>
            <path id="Trazado_691085" data-name="Trazado 691085" d="M207.6,376.835c.969-.7,2.05-1.423,3.152-2.165v26.675a56.445,56.445,0,0,1-11.918-8.232,6.582,6.582,0,0,1-2.145-6.29C197.355,383.971,204.336,379.21,207.6,376.835Z" transform="translate(-196.533 -341.303)" fill="#7e7f92"/>
          </g>
        </g>
        <path id="Trazado_691086" data-name="Trazado 691086" d="M219.871,299.555a59.937,59.937,0,0,1-7.833,1.416c-2.363-1.107-4.74-2.282-7.024-3.5-8.237-4.4-15.252-9.366-15.929-13.8-.684-4.475,2.145-6.761,9.242-11.736,2.48-1.739,4.748-3.231,6.687-4.561,4.2-2.887,6.871-5.023,6.883-7.3.014-2.251-3.049-4.374-6.883-6.527-4.874-2.739-11-5.525-13.623-8.675-1.246-1.492-1.354-3.116-.851-3.97,1.406-2.4,9-4.736,12.674-5.747h.887c-4.056,1.182-12.351,3.9-12.717,6.46a2.808,2.808,0,0,0,.6,2.081c2.184,2.9,7.931,5.563,13.035,8.287,4.771,2.545,8.986,5.147,9.213,8.053s-4.41,6.553-9.213,9.923c-2.117,1.488-4.267,2.92-6.046,4.209-5.286,3.834-6.419,5.869-6.2,8.22s5.405,6.876,11.306,10.026q.423.226.938.488c3.226,1.629,8.931,4.162,14.857,6.647Z" transform="translate(-143.785 -193.933)" fill="#fdd500"/>
        <path id="Trazado_691087" data-name="Trazado 691087" d="M270.857,483.257a59.941,59.941,0,0,1-7.833,1.416c-2.363-1.107-4.74-2.282-7.024-3.5V476.61C259.226,478.239,264.931,480.772,270.857,483.257Z" transform="translate(-194.772 -377.635)" fill="#ffc300"/>
        <g id="Grupo_947575" data-name="Grupo 947575" transform="translate(40.252 25.962)">
          <g id="Grupo_947571" data-name="Grupo 947571" transform="translate(5.241 7.311)">
            <path id="Trazado_691088" data-name="Trazado 691088" d="M190.21,201.9h1.612v9.737H190.21Z" transform="translate(-190.21 -201.9)" fill="#ec771b"/>
          </g>
          <path id="Trazado_691089" data-name="Trazado 691089" d="M193.58,201.9h.806v9.737h-.806Z" transform="translate(-187.533 -194.589)" fill="#c55732"/>
          <path id="Trazado_691090" data-name="Trazado 691090" d="M190.21,201.9h.806v6.7h-.806Z" transform="translate(-184.969 -194.589)" fill="#c55732"/>
          <path id="Trazado_691091" data-name="Trazado 691091" d="M193.58,201.9h.806v6.7h-.806Z" transform="translate(-187.533 -194.589)" fill="#a44e3e"/>
          <g id="Grupo_947572" data-name="Grupo 947572">
            <path id="Trazado_691092" data-name="Trazado 691092" d="M180.39,181.1a3.024,3.024,0,0,1-3.028,3.008h-6.037A3.024,3.024,0,0,1,168.3,181.1a2.968,2.968,0,0,1,.891-2.093,1.253,1.253,0,0,0,.367-.971c0-.062-.006-.126-.006-.189a2.972,2.972,0,0,1,1.264-2.435,1.289,1.289,0,0,0,.555-1.051v-.049a2.977,2.977,0,0,1,2.977-2.978h.051a2.938,2.938,0,0,1,2.076.911,3.052,3.052,0,0,1,.851,2.116,1.289,1.289,0,0,0,.555,1.051,2.974,2.974,0,0,1,1.264,2.435c0,.064,0,.127-.006.189a1.248,1.248,0,0,0,.367.971A2.967,2.967,0,0,1,180.39,181.1Z" transform="translate(-168.295 -171.334)" fill="#43af3e"/>
          </g>
          <g id="Grupo_947574" data-name="Grupo 947574" transform="translate(3.185)">
            <g id="Grupo_947573" data-name="Grupo 947573">
              <path id="Trazado_691093" data-name="Trazado 691093" d="M190.522,181.1a3.024,3.024,0,0,1-3.028,3.008h-4.448c-.783,0-1.441-1.353-1.433-3.008a5.009,5.009,0,0,1,.421-2.093,2.193,2.193,0,0,0,.173-.971c0-.062,0-.126,0-.189a4.561,4.561,0,0,1,.6-2.435,1.973,1.973,0,0,0,.262-1.051v-.049c0-1.645.631-2.978,1.409-2.978h.051a2.938,2.938,0,0,1,2.076.911,3.052,3.052,0,0,1,.851,2.116,1.289,1.289,0,0,0,.555,1.051,2.974,2.974,0,0,1,1.264,2.435c0,.064,0,.127-.006.189a1.248,1.248,0,0,0,.367.971,2.966,2.966,0,0,1,.89,2.093Z" transform="translate(-181.613 -171.334)" fill="#00a23e"/>
            </g>
          </g>
          <path id="Trazado_691094" data-name="Trazado 691094" d="M199.627,181.1a3.024,3.024,0,0,1-3.028,3.008H193.58V171.334h.051a2.938,2.938,0,0,1,2.076.911,3.052,3.052,0,0,1,.851,2.116,1.289,1.289,0,0,0,.555,1.051,2.974,2.974,0,0,1,1.264,2.435c0,.064,0,.127-.006.189a1.248,1.248,0,0,0,.367.971A2.967,2.967,0,0,1,199.627,181.1Z" transform="translate(-187.533 -171.334)" fill="#008839"/>
        </g>
        <g id="Grupo_947580" data-name="Grupo 947580" transform="translate(58.268 25.962)">
          <g id="Grupo_947576" data-name="Grupo 947576" transform="translate(5.241 7.311)">
            <path id="Trazado_691095" data-name="Trazado 691095" d="M265.54,201.9h1.612v9.737H265.54Z" transform="translate(-265.54 -201.9)" fill="#ec771b"/>
          </g>
          <path id="Trazado_691096" data-name="Trazado 691096" d="M268.91,201.9h.806v9.737h-.806Z" transform="translate(-262.863 -194.589)" fill="#c55732"/>
          <path id="Trazado_691097" data-name="Trazado 691097" d="M265.54,201.9h.806v6.7h-.806Z" transform="translate(-260.299 -194.589)" fill="#c55732"/>
          <path id="Trazado_691098" data-name="Trazado 691098" d="M268.91,201.9h.806v6.7h-.806Z" transform="translate(-262.863 -194.589)" fill="#a44e3e"/>
          <g id="Grupo_947577" data-name="Grupo 947577">
            <path id="Trazado_691099" data-name="Trazado 691099" d="M255.72,181.1a3.024,3.024,0,0,1-3.028,3.008h-6.037a3.024,3.024,0,0,1-3.029-3.008,2.968,2.968,0,0,1,.891-2.093,1.253,1.253,0,0,0,.367-.971c0-.062-.006-.126-.006-.189a2.972,2.972,0,0,1,1.264-2.435,1.289,1.289,0,0,0,.555-1.051v-.049a2.977,2.977,0,0,1,2.977-2.978h.051a2.938,2.938,0,0,1,2.076.911,3.052,3.052,0,0,1,.851,2.116,1.289,1.289,0,0,0,.555,1.051,2.974,2.974,0,0,1,1.264,2.435c0,.064,0,.127-.006.189a1.248,1.248,0,0,0,.367.971A2.967,2.967,0,0,1,255.72,181.1Z" transform="translate(-243.625 -171.334)" fill="#43af3e"/>
          </g>
          <g id="Grupo_947579" data-name="Grupo 947579" transform="translate(3.185)">
            <g id="Grupo_947578" data-name="Grupo 947578">
              <path id="Trazado_691100" data-name="Trazado 691100" d="M265.852,181.1a3.024,3.024,0,0,1-3.028,3.008h-4.448c-.783,0-1.441-1.353-1.433-3.008a5.005,5.005,0,0,1,.422-2.093,2.193,2.193,0,0,0,.173-.971c0-.062,0-.126,0-.189a4.561,4.561,0,0,1,.6-2.435,1.973,1.973,0,0,0,.262-1.051v-.049c0-1.645.631-2.978,1.409-2.978h.051a2.938,2.938,0,0,1,2.076.911,3.052,3.052,0,0,1,.851,2.116,1.289,1.289,0,0,0,.555,1.051,2.974,2.974,0,0,1,1.264,2.435c0,.064,0,.127-.006.189a1.248,1.248,0,0,0,.367.971A2.967,2.967,0,0,1,265.852,181.1Z" transform="translate(-256.943 -171.334)" fill="#00a23e"/>
            </g>
          </g>
          <path id="Trazado_691101" data-name="Trazado 691101" d="M274.957,181.1a3.024,3.024,0,0,1-3.028,3.008H268.91V171.334h.051a2.938,2.938,0,0,1,2.076.911,3.052,3.052,0,0,1,.851,2.116,1.289,1.289,0,0,0,.555,1.051,2.974,2.974,0,0,1,1.264,2.435c0,.064,0,.127-.006.189a1.248,1.248,0,0,0,.367.971A2.967,2.967,0,0,1,274.957,181.1Z" transform="translate(-262.863 -171.334)" fill="#008839"/>
        </g>
        <g id="Grupo_947585" data-name="Grupo 947585" transform="translate(52.876 33.974)">
          <g id="Grupo_947581" data-name="Grupo 947581" transform="translate(4.948 6.901)">
            <path id="Trazado_691102" data-name="Trazado 691102" d="M241.764,233.687h1.522v9.191h-1.522Z" transform="translate(-241.764 -233.687)" fill="#ec771b"/>
          </g>
          <path id="Trazado_691103" data-name="Trazado 691103" d="M244.945,233.687h.761v9.191h-.761Z" transform="translate(-239.237 -226.786)" fill="#c55732"/>
          <path id="Trazado_691104" data-name="Trazado 691104" d="M241.764,233.687h.761v6.323h-.761Z" transform="translate(-236.816 -226.786)" fill="#c55732"/>
          <path id="Trazado_691105" data-name="Trazado 691105" d="M244.945,233.687h.761v6.323h-.761Z" transform="translate(-239.237 -226.786)" fill="#a44e3e"/>
          <g id="Grupo_947582" data-name="Grupo 947582" transform="translate(0 0)">
            <path id="Trazado_691106" data-name="Trazado 691106" d="M232.494,214.054a2.854,2.854,0,0,1-2.858,2.839h-5.7a2.855,2.855,0,0,1-2.859-2.839,2.8,2.8,0,0,1,.841-1.975,1.182,1.182,0,0,0,.346-.916c0-.059-.005-.119-.005-.179a2.806,2.806,0,0,1,1.193-2.3,1.217,1.217,0,0,0,.524-.992v-.046a2.811,2.811,0,0,1,2.81-2.811h.048a2.774,2.774,0,0,1,1.96.86,2.882,2.882,0,0,1,.8,2,1.217,1.217,0,0,0,.524.992,2.807,2.807,0,0,1,1.193,2.3c0,.06,0,.12-.006.179a1.178,1.178,0,0,0,.346.916A2.8,2.8,0,0,1,232.494,214.054Z" transform="translate(-221.077 -204.836)" fill="#43af3e"/>
          </g>
          <g id="Grupo_947584" data-name="Grupo 947584" transform="translate(3.007 0)">
            <g id="Grupo_947583" data-name="Grupo 947583">
              <path id="Trazado_691107" data-name="Trazado 691107" d="M242.058,214.054a2.854,2.854,0,0,1-2.858,2.839H235c-.739,0-1.36-1.277-1.353-2.839a4.726,4.726,0,0,1,.4-1.975,2.066,2.066,0,0,0,.164-.916c0-.059,0-.119,0-.179a4.3,4.3,0,0,1,.565-2.3,1.862,1.862,0,0,0,.247-.992v-.046c0-1.552.6-2.811,1.331-2.811h.048a2.774,2.774,0,0,1,1.96.86,2.882,2.882,0,0,1,.8,2,1.217,1.217,0,0,0,.524.992,2.807,2.807,0,0,1,1.193,2.3c0,.06,0,.12-.006.179a1.178,1.178,0,0,0,.346.916A2.8,2.8,0,0,1,242.058,214.054Z" transform="translate(-233.649 -204.836)" fill="#00a23e"/>
            </g>
          </g>
          <path id="Trazado_691108" data-name="Trazado 691108" d="M250.652,214.053a2.854,2.854,0,0,1-2.858,2.839h-2.85V204.835h.048a2.774,2.774,0,0,1,1.96.86,2.882,2.882,0,0,1,.8,2,1.217,1.217,0,0,0,.524.992,2.807,2.807,0,0,1,1.193,2.3c0,.06,0,.12-.006.179a1.178,1.178,0,0,0,.346.916,2.8,2.8,0,0,1,.84,1.975Z" transform="translate(-239.236 -204.835)" fill="#008839"/>
        </g>
        <g id="Grupo_947590" data-name="Grupo 947590" transform="translate(62.606 34.297)">
          <g id="Grupo_947586" data-name="Grupo 947586" transform="translate(6.488 9.049)">
            <path id="Trazado_691109" data-name="Trazado 691109" d="M288.891,244.02h2v12.053h-2Z" transform="translate(-288.891 -244.02)" fill="#ec771b"/>
          </g>
          <path id="Trazado_691110" data-name="Trazado 691110" d="M293.063,244.02h1v12.053h-1Z" transform="translate(-285.577 -234.971)" fill="#c55732"/>
          <path id="Trazado_691111" data-name="Trazado 691111" d="M288.891,244.02h1v8.293h-1Z" transform="translate(-282.403 -234.971)" fill="#c55732"/>
          <path id="Trazado_691112" data-name="Trazado 691112" d="M293.063,244.02h1v8.293h-1Z" transform="translate(-285.577 -234.971)" fill="#a44e3e"/>
          <g id="Grupo_947587" data-name="Grupo 947587" transform="translate(0 0)">
            <path id="Trazado_691113" data-name="Trazado 691113" d="M276.734,218.273A3.743,3.743,0,0,1,272.985,222h-7.473a3.744,3.744,0,0,1-3.749-3.723,3.673,3.673,0,0,1,1.1-2.59,1.552,1.552,0,0,0,.454-1.2c-.005-.077-.007-.156-.007-.234a3.679,3.679,0,0,1,1.565-3.015,1.6,1.6,0,0,0,.686-1.3v-.061a3.686,3.686,0,0,1,3.685-3.686h.063a3.638,3.638,0,0,1,2.57,1.127,3.778,3.778,0,0,1,1.053,2.619,1.6,1.6,0,0,0,.686,1.3,3.682,3.682,0,0,1,1.565,3.015c0,.079,0,.157-.007.234a1.546,1.546,0,0,0,.454,1.2A3.67,3.67,0,0,1,276.734,218.273Z" transform="translate(-261.762 -206.185)" fill="#43af3e"/>
          </g>
          <g id="Grupo_947589" data-name="Grupo 947589" transform="translate(3.943 0)">
            <g id="Grupo_947588" data-name="Grupo 947588">
              <path id="Trazado_691114" data-name="Trazado 691114" d="M289.276,218.273A3.743,3.743,0,0,1,285.528,222h-5.506c-.969,0-1.784-1.675-1.774-3.723a6.192,6.192,0,0,1,.522-2.59,2.714,2.714,0,0,0,.215-1.2c0-.077,0-.156,0-.234a5.645,5.645,0,0,1,.74-3.015,2.443,2.443,0,0,0,.324-1.3v-.061c0-2.036.782-3.686,1.745-3.686h.063a3.637,3.637,0,0,1,2.57,1.127,3.778,3.778,0,0,1,1.054,2.619,1.6,1.6,0,0,0,.686,1.3,3.682,3.682,0,0,1,1.565,3.015c0,.079,0,.157-.007.234a1.546,1.546,0,0,0,.454,1.2A3.669,3.669,0,0,1,289.276,218.273Z" transform="translate(-278.248 -206.185)" fill="#00a23e"/>
            </g>
          </g>
          <path id="Trazado_691115" data-name="Trazado 691115" d="M300.548,218.273A3.743,3.743,0,0,1,296.8,222h-3.737V206.184h.063a3.638,3.638,0,0,1,2.57,1.127,3.778,3.778,0,0,1,1.053,2.619,1.6,1.6,0,0,0,.686,1.3A3.682,3.682,0,0,1,299,214.246c0,.079,0,.157-.007.234a1.546,1.546,0,0,0,.454,1.2,3.672,3.672,0,0,1,1.1,2.59Z" transform="translate(-285.576 -206.184)" fill="#008839"/>
        </g>
        <g id="Grupo_947595" data-name="Grupo 947595" transform="translate(31.455 30.299)">
          <g id="Grupo_947591" data-name="Grupo 947591" transform="translate(6.403 8.931)">
            <path id="Trazado_691116" data-name="Trazado 691116" d="M158.289,226.808h1.969V238.7h-1.969Z" transform="translate(-158.289 -226.808)" fill="#ec771b"/>
          </g>
          <path id="Trazado_691117" data-name="Trazado 691117" d="M162.406,226.808h.985V238.7h-.985Z" transform="translate(-155.018 -217.877)" fill="#c55732"/>
          <path id="Trazado_691118" data-name="Trazado 691118" d="M158.289,226.808h.985v8.184h-.985Z" transform="translate(-151.886 -217.877)" fill="#c55732"/>
          <path id="Trazado_691119" data-name="Trazado 691119" d="M162.406,226.808h.985v8.184h-.985Z" transform="translate(-155.018 -217.877)" fill="#a44e3e"/>
          <g id="Grupo_947592" data-name="Grupo 947592">
            <path id="Trazado_691120" data-name="Trazado 691120" d="M146.292,201.4a3.694,3.694,0,0,1-3.7,3.674h-7.375a3.7,3.7,0,0,1-3.7-3.674,3.625,3.625,0,0,1,1.088-2.556,1.531,1.531,0,0,0,.448-1.186c0-.076-.007-.154-.007-.231a3.632,3.632,0,0,1,1.544-2.975,1.575,1.575,0,0,0,.678-1.284v-.06a3.637,3.637,0,0,1,3.637-3.638h.062a3.59,3.59,0,0,1,2.536,1.112,3.728,3.728,0,0,1,1.04,2.585,1.575,1.575,0,0,0,.677,1.284,3.633,3.633,0,0,1,1.544,2.975c0,.077,0,.155-.007.231a1.525,1.525,0,0,0,.448,1.186,3.624,3.624,0,0,1,1.087,2.556Z" transform="translate(-131.517 -189.467)" fill="#43af3e"/>
          </g>
          <g id="Grupo_947594" data-name="Grupo 947594" transform="translate(3.891)">
            <g id="Grupo_947593" data-name="Grupo 947593">
              <path id="Trazado_691121" data-name="Trazado 691121" d="M158.67,201.4a3.694,3.694,0,0,1-3.7,3.674h-5.433c-.956,0-1.761-1.653-1.751-3.674a6.114,6.114,0,0,1,.515-2.556,2.678,2.678,0,0,0,.212-1.186c0-.076,0-.154,0-.231a5.571,5.571,0,0,1,.731-2.975,2.41,2.41,0,0,0,.32-1.284v-.06c0-2.009.771-3.638,1.722-3.638h.062a3.59,3.59,0,0,1,2.536,1.112,3.728,3.728,0,0,1,1.04,2.585,1.575,1.575,0,0,0,.678,1.284,3.633,3.633,0,0,1,1.544,2.975c0,.077,0,.155-.007.231a1.525,1.525,0,0,0,.448,1.186A3.626,3.626,0,0,1,158.67,201.4Z" transform="translate(-147.787 -189.467)" fill="#00a23e"/>
            </g>
          </g>
          <path id="Trazado_691122" data-name="Trazado 691122" d="M169.792,201.4a3.694,3.694,0,0,1-3.7,3.674h-3.688v-15.6h.062A3.59,3.59,0,0,1,165,190.581a3.728,3.728,0,0,1,1.04,2.585,1.575,1.575,0,0,0,.677,1.284,3.633,3.633,0,0,1,1.544,2.975c0,.077,0,.155-.007.231a1.525,1.525,0,0,0,.448,1.186,3.622,3.622,0,0,1,1.088,2.556Z" transform="translate(-155.018 -189.468)" fill="#008839"/>
        </g>
        <g id="Grupo_947600" data-name="Grupo 947600" transform="translate(13.081 39.995)">
          <g id="Grupo_947596" data-name="Grupo 947596" transform="translate(6.403 8.931)">
            <path id="Trazado_691123" data-name="Trazado 691123" d="M81.466,267.35h1.969v11.895H81.466Z" transform="translate(-81.466 -267.35)" fill="#ec771b"/>
          </g>
          <path id="Trazado_691124" data-name="Trazado 691124" d="M85.583,267.35h.985v11.895h-.985Z" transform="translate(-78.195 -258.419)" fill="#c55732"/>
          <path id="Trazado_691125" data-name="Trazado 691125" d="M81.466,267.35h.985v8.184h-.985Z" transform="translate(-75.063 -258.419)" fill="#c55732"/>
          <path id="Trazado_691126" data-name="Trazado 691126" d="M85.583,267.35h.985v8.184h-.985Z" transform="translate(-78.195 -258.419)" fill="#a44e3e"/>
          <g id="Grupo_947597" data-name="Grupo 947597">
            <path id="Trazado_691127" data-name="Trazado 691127" d="M69.469,241.939a3.694,3.694,0,0,1-3.7,3.674H58.395a3.7,3.7,0,0,1-3.7-3.674,3.625,3.625,0,0,1,1.088-2.556,1.53,1.53,0,0,0,.448-1.186c0-.076-.007-.154-.007-.231a3.632,3.632,0,0,1,1.544-2.975,1.575,1.575,0,0,0,.677-1.284v-.06a3.637,3.637,0,0,1,3.637-3.638h.062a3.59,3.59,0,0,1,2.536,1.112,3.728,3.728,0,0,1,1.04,2.584,1.575,1.575,0,0,0,.677,1.284,3.633,3.633,0,0,1,1.544,2.975c0,.077,0,.155-.007.231a1.525,1.525,0,0,0,.448,1.186A3.624,3.624,0,0,1,69.469,241.939Z" transform="translate(-54.694 -230.009)" fill="#43af3e"/>
          </g>
          <g id="Grupo_947599" data-name="Grupo 947599" transform="translate(3.891)">
            <g id="Grupo_947598" data-name="Grupo 947598">
              <path id="Trazado_691128" data-name="Trazado 691128" d="M81.847,241.939a3.694,3.694,0,0,1-3.7,3.674H72.715c-.956,0-1.761-1.653-1.751-3.674a6.115,6.115,0,0,1,.515-2.556,2.678,2.678,0,0,0,.212-1.186c0-.076,0-.154,0-.231a5.571,5.571,0,0,1,.731-2.975,2.41,2.41,0,0,0,.32-1.284v-.06c0-2.009.771-3.638,1.722-3.638h.062a3.59,3.59,0,0,1,2.536,1.112,3.728,3.728,0,0,1,1.04,2.584,1.575,1.575,0,0,0,.678,1.284,3.633,3.633,0,0,1,1.544,2.975c0,.077,0,.155-.007.231a1.525,1.525,0,0,0,.448,1.186A3.627,3.627,0,0,1,81.847,241.939Z" transform="translate(-70.964 -230.009)" fill="#00a23e"/>
            </g>
          </g>
          <path id="Trazado_691129" data-name="Trazado 691129" d="M92.969,241.94a3.694,3.694,0,0,1-3.7,3.674H85.582v-15.6h.062a3.59,3.59,0,0,1,2.536,1.112,3.728,3.728,0,0,1,1.04,2.584,1.575,1.575,0,0,0,.677,1.284,3.633,3.633,0,0,1,1.544,2.975c0,.077,0,.155-.007.231a1.525,1.525,0,0,0,.448,1.186A3.623,3.623,0,0,1,92.969,241.94Z" transform="translate(-78.195 -230.01)" fill="#008839"/>
        </g>
        <g id="Grupo_947605" data-name="Grupo 947605" transform="translate(2.263 54.549)">
          <g id="Grupo_947601" data-name="Grupo 947601" transform="translate(5.377 9.957)">
            <path id="Trazado_691130" data-name="Trazado 691130" d="M34.136,332.49v13.26H33.052q-.574-.951-1.112-1.923V332.49Z" transform="translate(-31.94 -332.49)" fill="#ec771b"/>
          </g>
          <path id="Trazado_691131" data-name="Trazado 691131" d="M36.531,332.49h1.1v13.26h-1.1Z" transform="translate(-30.056 -322.533)" fill="#c55732"/>
          <path id="Trazado_691132" data-name="Trazado 691132" d="M31.941,332.49h1.1v9.123h-1.1Z" transform="translate(-26.564 -322.533)" fill="#c55732"/>
          <path id="Trazado_691133" data-name="Trazado 691133" d="M36.531,332.49h1.1v9.123h-1.1Z" transform="translate(-30.056 -322.533)" fill="#a44e3e"/>
          <g id="Grupo_947602" data-name="Grupo 947602">
            <path id="Trazado_691134" data-name="Trazado 691134" d="M24.169,304.16a4.117,4.117,0,0,1-4.123,4.1h-7.19a60.55,60.55,0,0,1-3.4-9.2,4.04,4.04,0,0,1,1.665-2.648,1.753,1.753,0,0,0,.756-1.43v-.067a4.056,4.056,0,0,1,4.054-4.056l.069,0a4,4,0,0,1,2.827,1.239,4.164,4.164,0,0,1,1.16,2.882,1.757,1.757,0,0,0,.753,1.43,4.049,4.049,0,0,1,1.722,3.317q0,.129-.007.258a1.7,1.7,0,0,0,.5,1.32A4.037,4.037,0,0,1,24.169,304.16Z" transform="translate(-9.46 -290.86)" fill="#43af3e"/>
          </g>
          <g id="Grupo_947604" data-name="Grupo 947604" transform="translate(2.577 0.001)">
            <g id="Grupo_947603" data-name="Grupo 947603">
              <path id="Trazado_691135" data-name="Trazado 691135" d="M32.366,304.162a4.118,4.118,0,0,1-4.124,4.1H22.185c-1.066,0-1.963-1.843-1.952-4.1a6.819,6.819,0,0,1,.574-2.85,2.983,2.983,0,0,0,.236-1.322c0-.085,0-.171,0-.258a6.21,6.21,0,0,1,.815-3.316,2.687,2.687,0,0,0,.357-1.431v-.067c0-2.239.86-4.055,1.92-4.055h.07a4,4,0,0,1,2.827,1.24,4.157,4.157,0,0,1,1.159,2.881,1.755,1.755,0,0,0,.755,1.431,4.05,4.05,0,0,1,1.721,3.316c0,.087,0,.173-.008.258a1.7,1.7,0,0,0,.5,1.322A4.042,4.042,0,0,1,32.366,304.162Z" transform="translate(-20.233 -290.863)" fill="#00a23e"/>
            </g>
          </g>
          <path id="Trazado_691136" data-name="Trazado 691136" d="M44.765,304.163a4.118,4.118,0,0,1-4.124,4.1H36.53v-17.4H36.6a4,4,0,0,1,2.827,1.24,4.157,4.157,0,0,1,1.159,2.881,1.755,1.755,0,0,0,.755,1.431,4.05,4.05,0,0,1,1.721,3.316c0,.087,0,.173-.008.258a1.7,1.7,0,0,0,.5,1.322A4.041,4.041,0,0,1,44.765,304.163Z" transform="translate(-30.056 -290.863)" fill="#008839"/>
        </g>
        <g id="Grupo_947610" data-name="Grupo 947610" transform="translate(38.193 41.67)">
          <g id="Grupo_947606" data-name="Grupo 947606" transform="translate(6.028 8.407)">
            <path id="Trazado_691137" data-name="Trazado 691137" d="M184.891,272.163h1.854v11.2h-1.854Z" transform="translate(-184.891 -272.163)" fill="#ec771b"/>
          </g>
          <path id="Trazado_691138" data-name="Trazado 691138" d="M188.767,272.163h.927v11.2h-.927Z" transform="translate(-181.812 -263.756)" fill="#c55732"/>
          <path id="Trazado_691139" data-name="Trazado 691139" d="M184.891,272.163h.927v7.7h-.927Z" transform="translate(-178.863 -263.756)" fill="#c55732"/>
          <path id="Trazado_691140" data-name="Trazado 691140" d="M188.767,272.163h.927v7.7h-.927Z" transform="translate(-181.812 -263.756)" fill="#a44e3e"/>
          <g id="Grupo_947607" data-name="Grupo 947607" transform="translate(0 0)">
            <path id="Trazado_691141" data-name="Trazado 691141" d="M173.6,248.243a3.478,3.478,0,0,1-3.483,3.459h-6.943a3.478,3.478,0,0,1-3.483-3.459,3.413,3.413,0,0,1,1.024-2.407,1.441,1.441,0,0,0,.422-1.116c0-.072-.007-.144-.007-.218a3.418,3.418,0,0,1,1.454-2.8,1.483,1.483,0,0,0,.638-1.209v-.056a3.424,3.424,0,0,1,3.424-3.425h.059a3.38,3.38,0,0,1,2.387,1.047,3.51,3.51,0,0,1,.979,2.433,1.482,1.482,0,0,0,.638,1.209,3.42,3.42,0,0,1,1.454,2.8c0,.073,0,.146-.007.218a1.436,1.436,0,0,0,.422,1.116A3.412,3.412,0,0,1,173.6,248.243Z" transform="translate(-159.688 -237.012)" fill="#43af3e"/>
          </g>
          <g id="Grupo_947609" data-name="Grupo 947609" transform="translate(3.663 0)">
            <g id="Grupo_947608" data-name="Grupo 947608">
              <path id="Trazado_691142" data-name="Trazado 691142" d="M185.25,248.243a3.477,3.477,0,0,1-3.483,3.459h-5.115c-.9,0-1.658-1.556-1.648-3.459a5.757,5.757,0,0,1,.485-2.407,2.522,2.522,0,0,0,.2-1.116c0-.072,0-.144,0-.218a5.243,5.243,0,0,1,.688-2.8,2.268,2.268,0,0,0,.3-1.209v-.056c0-1.891.726-3.425,1.621-3.425h.059a3.38,3.38,0,0,1,2.387,1.047,3.51,3.51,0,0,1,.979,2.433,1.482,1.482,0,0,0,.638,1.209,3.42,3.42,0,0,1,1.454,2.8c0,.073,0,.146-.007.218a1.436,1.436,0,0,0,.422,1.116A3.412,3.412,0,0,1,185.25,248.243Z" transform="translate(-175.004 -237.012)" fill="#00a23e"/>
            </g>
          </g>
          <path id="Trazado_691143" data-name="Trazado 691143" d="M195.721,248.242a3.478,3.478,0,0,1-3.483,3.459h-3.472v-14.69h.059a3.381,3.381,0,0,1,2.387,1.047,3.51,3.51,0,0,1,.979,2.433,1.482,1.482,0,0,0,.638,1.209,3.42,3.42,0,0,1,1.454,2.8c0,.073,0,.146-.007.218a1.436,1.436,0,0,0,.422,1.116,3.413,3.413,0,0,1,1.024,2.407Z" transform="translate(-181.811 -237.011)" fill="#008839"/>
        </g>
        <g id="Grupo_947615" data-name="Grupo 947615" transform="translate(44.071 46.709)">
          <g id="Grupo_947611" data-name="Grupo 947611" transform="translate(6.58 9.177)">
            <path id="Trazado_691144" data-name="Trazado 691144" d="M211.777,296.45H213.8v12.223h-2.024Z" transform="translate(-211.777 -296.45)" fill="#ec771b"/>
          </g>
          <path id="Trazado_691145" data-name="Trazado 691145" d="M216.007,296.45h1.012v12.223h-1.012Z" transform="translate(-208.416 -287.273)" fill="#c55732"/>
          <path id="Trazado_691146" data-name="Trazado 691146" d="M211.777,296.45h1.012v8.41h-1.012Z" transform="translate(-205.197 -287.273)" fill="#c55732"/>
          <path id="Trazado_691147" data-name="Trazado 691147" d="M216.007,296.45h1.012v8.41h-1.012Z" transform="translate(-208.416 -287.273)" fill="#a44e3e"/>
          <g id="Grupo_947612" data-name="Grupo 947612">
            <path id="Trazado_691148" data-name="Trazado 691148" d="M199.449,270.338a3.8,3.8,0,0,1-3.8,3.776h-7.579a3.8,3.8,0,0,1-3.8-3.776,3.724,3.724,0,0,1,1.118-2.627,1.573,1.573,0,0,0,.46-1.219c-.005-.078-.007-.158-.007-.237a3.731,3.731,0,0,1,1.587-3.057,1.618,1.618,0,0,0,.7-1.319v-.061a3.738,3.738,0,0,1,3.738-3.738h.064a3.689,3.689,0,0,1,2.606,1.143,3.832,3.832,0,0,1,1.068,2.656,1.618,1.618,0,0,0,.7,1.319,3.733,3.733,0,0,1,1.587,3.057c0,.08,0,.16-.007.237a1.567,1.567,0,0,0,.46,1.219A3.725,3.725,0,0,1,199.449,270.338Z" transform="translate(-184.266 -258.079)" fill="#43af3e"/>
          </g>
          <g id="Grupo_947614" data-name="Grupo 947614" transform="translate(3.999)">
            <g id="Grupo_947613" data-name="Grupo 947613">
              <path id="Trazado_691149" data-name="Trazado 691149" d="M212.169,270.338a3.8,3.8,0,0,1-3.8,3.776h-5.583c-.983,0-1.809-1.7-1.8-3.776a6.282,6.282,0,0,1,.529-2.627,2.75,2.75,0,0,0,.218-1.219c0-.078,0-.158,0-.237a5.724,5.724,0,0,1,.751-3.057,2.476,2.476,0,0,0,.329-1.319v-.061c0-2.064.793-3.738,1.769-3.738h.064a3.689,3.689,0,0,1,2.606,1.143,3.832,3.832,0,0,1,1.068,2.656,1.618,1.618,0,0,0,.7,1.319,3.733,3.733,0,0,1,1.587,3.057c0,.08,0,.16-.007.237a1.567,1.567,0,0,0,.46,1.219A3.725,3.725,0,0,1,212.169,270.338Z" transform="translate(-200.985 -258.079)" fill="#00a23e"/>
            </g>
          </g>
          <path id="Trazado_691150" data-name="Trazado 691150" d="M223.6,270.339a3.8,3.8,0,0,1-3.8,3.776h-3.79V258.08h.064a3.689,3.689,0,0,1,2.606,1.143,3.832,3.832,0,0,1,1.068,2.656,1.618,1.618,0,0,0,.7,1.319,3.733,3.733,0,0,1,1.587,3.057c0,.08,0,.16-.007.237a1.567,1.567,0,0,0,.46,1.219A3.724,3.724,0,0,1,223.6,270.339Z" transform="translate(-208.416 -258.08)" fill="#008839"/>
        </g>
        <g id="Grupo_947620" data-name="Grupo 947620" transform="translate(28.884 50.046)">
          <g id="Grupo_947616" data-name="Grupo 947616" transform="translate(7.781 10.853)">
            <path id="Trazado_691151" data-name="Trazado 691151" d="M153.3,317.409h2.393v14.455H153.3Z" transform="translate(-153.299 -317.409)" fill="#ec771b"/>
          </g>
          <path id="Trazado_691152" data-name="Trazado 691152" d="M158.3,317.409h1.2v14.455h-1.2Z" transform="translate(-149.324 -306.556)" fill="#c55732"/>
          <path id="Trazado_691153" data-name="Trazado 691153" d="M153.3,317.409h1.2v9.945h-1.2Z" transform="translate(-145.518 -306.556)" fill="#c55732"/>
          <path id="Trazado_691154" data-name="Trazado 691154" d="M158.3,317.409h1.2v9.945h-1.2Z" transform="translate(-149.324 -306.556)" fill="#a44e3e"/>
          <g id="Grupo_947617" data-name="Grupo 947617">
            <path id="Trazado_691155" data-name="Trazado 691155" d="M138.72,286.53a4.489,4.489,0,0,1-4.5,4.465h-8.962a4.49,4.49,0,0,1-4.5-4.465,4.4,4.4,0,0,1,1.322-3.106,1.86,1.86,0,0,0,.544-1.441c-.006-.092-.009-.187-.009-.281a4.412,4.412,0,0,1,1.876-3.615,1.913,1.913,0,0,0,.823-1.56v-.073a4.42,4.42,0,0,1,4.42-4.421h.076a4.362,4.362,0,0,1,3.082,1.352,4.532,4.532,0,0,1,1.263,3.141,1.914,1.914,0,0,0,.823,1.56,4.415,4.415,0,0,1,1.876,3.615c0,.094,0,.189-.009.281a1.853,1.853,0,0,0,.544,1.441,4.4,4.4,0,0,1,1.322,3.106Z" transform="translate(-120.765 -272.033)" fill="#43af3e"/>
          </g>
          <g id="Grupo_947619" data-name="Grupo 947619" transform="translate(4.729)">
            <g id="Grupo_947618" data-name="Grupo 947618">
              <path id="Trazado_691156" data-name="Trazado 691156" d="M153.762,286.53a4.489,4.489,0,0,1-4.5,4.465h-6.6c-1.162,0-2.14-2.009-2.128-4.465a7.432,7.432,0,0,1,.626-3.106,3.252,3.252,0,0,0,.257-1.441c0-.092,0-.187,0-.281a6.768,6.768,0,0,1,.888-3.615,2.929,2.929,0,0,0,.389-1.56v-.073c0-2.441.937-4.421,2.093-4.421h.076a4.362,4.362,0,0,1,3.082,1.352,4.532,4.532,0,0,1,1.263,3.141,1.914,1.914,0,0,0,.823,1.56A4.415,4.415,0,0,1,151.9,281.7c0,.094,0,.189-.009.281a1.853,1.853,0,0,0,.544,1.441A4.4,4.4,0,0,1,153.762,286.53Z" transform="translate(-140.536 -272.033)" fill="#00a23e"/>
            </g>
          </g>
          <path id="Trazado_691157" data-name="Trazado 691157" d="M167.278,286.531a4.489,4.489,0,0,1-4.5,4.465H158.3V272.034h.076a4.363,4.363,0,0,1,3.082,1.352,4.532,4.532,0,0,1,1.263,3.141,1.914,1.914,0,0,0,.823,1.56,4.415,4.415,0,0,1,1.876,3.615c0,.094,0,.189-.009.281a1.853,1.853,0,0,0,.544,1.441A4.4,4.4,0,0,1,167.278,286.531Z" transform="translate(-149.323 -272.034)" fill="#008839"/>
        </g>
        <g id="Grupo_947625" data-name="Grupo 947625" transform="translate(17.255 60.626)">
          <g id="Grupo_947621" data-name="Grupo 947621" transform="translate(7.781 10.853)">
            <path id="Trazado_691158" data-name="Trazado 691158" d="M104.678,361.647h2.393V376.1h-2.393Z" transform="translate(-104.678 -361.647)" fill="#ec771b"/>
          </g>
          <path id="Trazado_691159" data-name="Trazado 691159" d="M109.681,361.647h1.2V376.1h-1.2Z" transform="translate(-100.703 -350.794)" fill="#c55732"/>
          <path id="Trazado_691160" data-name="Trazado 691160" d="M104.678,361.647h1.2v9.945h-1.2Z" transform="translate(-96.897 -350.794)" fill="#c55732"/>
          <path id="Trazado_691161" data-name="Trazado 691161" d="M109.681,361.647h1.2v9.945h-1.2Z" transform="translate(-100.703 -350.794)" fill="#a44e3e"/>
          <g id="Grupo_947622" data-name="Grupo 947622">
            <path id="Trazado_691162" data-name="Trazado 691162" d="M90.1,330.768a4.489,4.489,0,0,1-4.5,4.465H76.642a4.49,4.49,0,0,1-4.5-4.465,4.4,4.4,0,0,1,1.322-3.106,1.859,1.859,0,0,0,.544-1.441c-.006-.092-.009-.187-.009-.281a4.413,4.413,0,0,1,1.876-3.615,1.913,1.913,0,0,0,.823-1.56v-.073a4.42,4.42,0,0,1,4.42-4.421H81.2a4.363,4.363,0,0,1,3.082,1.352,4.532,4.532,0,0,1,1.263,3.141,1.914,1.914,0,0,0,.823,1.56,4.415,4.415,0,0,1,1.876,3.615c0,.094,0,.189-.009.281a1.853,1.853,0,0,0,.544,1.441A4.4,4.4,0,0,1,90.1,330.768Z" transform="translate(-72.145 -316.27)" fill="#43af3e"/>
          </g>
          <g id="Grupo_947624" data-name="Grupo 947624" transform="translate(4.728)">
            <g id="Grupo_947623" data-name="Grupo 947623">
              <path id="Trazado_691163" data-name="Trazado 691163" d="M105.141,330.768a4.489,4.489,0,0,1-4.5,4.465h-6.6c-1.162,0-2.14-2.009-2.128-4.465a7.433,7.433,0,0,1,.626-3.106,3.252,3.252,0,0,0,.257-1.441c0-.092,0-.187,0-.281a6.769,6.769,0,0,1,.888-3.615,2.929,2.929,0,0,0,.389-1.56v-.073c0-2.441.937-4.421,2.093-4.421h.076a4.363,4.363,0,0,1,3.082,1.352,4.532,4.532,0,0,1,1.263,3.141,1.914,1.914,0,0,0,.823,1.56,4.415,4.415,0,0,1,1.876,3.615c0,.094,0,.189-.009.281a1.853,1.853,0,0,0,.544,1.441,4.4,4.4,0,0,1,1.321,3.106Z" transform="translate(-91.915 -316.27)" fill="#00a23e"/>
            </g>
          </g>
          <path id="Trazado_691164" data-name="Trazado 691164" d="M118.657,330.769a4.489,4.489,0,0,1-4.5,4.465H109.68V316.272h.076a4.362,4.362,0,0,1,3.082,1.352,4.532,4.532,0,0,1,1.263,3.141,1.914,1.914,0,0,0,.823,1.56,4.415,4.415,0,0,1,1.876,3.615c0,.094,0,.189-.009.281a1.853,1.853,0,0,0,.544,1.441A4.4,4.4,0,0,1,118.657,330.769Z" transform="translate(-100.703 -316.271)" fill="#008839"/>
        </g>
        <g id="Grupo_947629" data-name="Grupo 947629" transform="translate(13.884 75.579)">
          <g id="Grupo_947626" data-name="Grupo 947626">
            <path id="Trazado_691165" data-name="Trazado 691165" d="M76.531,395.743A5.232,5.232,0,0,1,72.2,400.88a61.551,61.551,0,0,1-12.038-10.189q-1.091-1.195-2.114-2.447A5.185,5.185,0,0,1,59.9,385.87a2.24,2.24,0,0,0,.961-1.825v-.084a5.171,5.171,0,0,1,5.169-5.171l.088,0a5.087,5.087,0,0,1,3.6,1.581,5.29,5.29,0,0,1,1.478,3.671,2.24,2.24,0,0,0,.961,1.825,5.16,5.16,0,0,1,2.193,4.226c0,.112,0,.222-.01.33a2.165,2.165,0,0,0,.636,1.684,5.154,5.154,0,0,1,1.545,3.633Z" transform="translate(-58.05 -378.79)" fill="#43af3e"/>
          </g>
          <g id="Grupo_947628" data-name="Grupo 947628" transform="translate(3.655)">
            <g id="Grupo_947627" data-name="Grupo 947627">
              <path id="Trazado_691166" data-name="Trazado 691166" d="M88.156,395.743a5.232,5.232,0,0,1-4.329,5.137,61.314,61.314,0,0,1-10.5-8.565c.029-.069.06-.139.093-.206a3.835,3.835,0,0,0,.3-1.684c0-.108,0-.218,0-.33a7.909,7.909,0,0,1,1.038-4.226,3.421,3.421,0,0,0,.454-1.825v-.084c0-2.856,1.1-5.171,2.447-5.171l.041,0h.048a5.087,5.087,0,0,1,3.6,1.581,5.29,5.29,0,0,1,1.478,3.671,2.24,2.24,0,0,0,.961,1.825,5.16,5.16,0,0,1,2.193,4.226c0,.112,0,.222-.01.33a2.165,2.165,0,0,0,.636,1.684,5.154,5.154,0,0,1,1.545,3.633Z" transform="translate(-73.33 -378.79)" fill="#00a23e"/>
            </g>
          </g>
          <path id="Trazado_691167" data-name="Trazado 691167" d="M101.927,395.743A5.232,5.232,0,0,1,97.6,400.88a60.981,60.981,0,0,1-6.168-4.559V378.79l.089,0a5.087,5.087,0,0,1,3.6,1.581,5.29,5.29,0,0,1,1.478,3.671,2.24,2.24,0,0,0,.961,1.825,5.16,5.16,0,0,1,2.193,4.226c0,.112,0,.222-.01.33a2.165,2.165,0,0,0,.636,1.684,5.154,5.154,0,0,1,1.545,3.633Z" transform="translate(-83.446 -378.79)" fill="#008839"/>
        </g>
        <g id="Grupo_947633" data-name="Grupo 947633" transform="translate(26.07 83.049)">
          <g id="Grupo_947630" data-name="Grupo 947630">
            <path id="Trazado_691168" data-name="Trazado 691168" d="M128.423,426.972a5.187,5.187,0,0,1-2.765,4.592,60.762,60.762,0,0,1-14.692-6.924c-.665-.431-1.32-.871-1.966-1.327a2.171,2.171,0,0,0,.612-1.657c-.007-.108-.012-.22-.012-.33a5.156,5.156,0,0,1,2.2-4.226,2.24,2.24,0,0,0,.961-1.825v-.084a5.169,5.169,0,0,1,5.169-5.171l.088,0a5.091,5.091,0,0,1,3.6,1.581,5.3,5.3,0,0,1,1.476,3.671,2.243,2.243,0,0,0,.964,1.825,5.16,5.16,0,0,1,2.193,4.226c0,.11,0,.222-.01.33a2.165,2.165,0,0,0,.636,1.684,5.149,5.149,0,0,1,1.545,3.633Z" transform="translate(-109 -410.02)" fill="#43af3e"/>
          </g>
          <g id="Grupo_947632" data-name="Grupo 947632" transform="translate(4.016)">
            <g id="Grupo_947631" data-name="Grupo 947631">
              <path id="Trazado_691169" data-name="Trazado 691169" d="M141.2,426.972a5.187,5.187,0,0,1-2.765,4.592,60.551,60.551,0,0,1-12.643-5.656,7.863,7.863,0,0,1,.674-2.569,3.8,3.8,0,0,0,.3-1.684c0-.108,0-.22,0-.33A7.909,7.909,0,0,1,127.8,417.1a3.443,3.443,0,0,0,.454-1.825v-.084c0-2.856,1.1-5.171,2.447-5.171l.041,0h.048a5.091,5.091,0,0,1,3.6,1.581,5.3,5.3,0,0,1,1.476,3.671,2.243,2.243,0,0,0,.964,1.825,5.16,5.16,0,0,1,2.193,4.226c0,.11,0,.222-.01.33a2.165,2.165,0,0,0,.636,1.684,5.149,5.149,0,0,1,1.545,3.633Z" transform="translate(-125.79 -410.02)" fill="#00a23e"/>
            </g>
          </g>
          <path id="Trazado_691170" data-name="Trazado 691170" d="M156.817,426.973a5.187,5.187,0,0,1-2.765,4.592,60.425,60.425,0,0,1-7.732-3.042v-18.5l.089,0a5.091,5.091,0,0,1,3.6,1.581,5.3,5.3,0,0,1,1.476,3.671,2.243,2.243,0,0,0,.964,1.825,5.16,5.16,0,0,1,2.193,4.226c0,.11,0,.222-.01.33a2.165,2.165,0,0,0,.636,1.684,5.149,5.149,0,0,1,1.545,3.633Z" transform="translate(-137.394 -410.02)" fill="#008839"/>
        </g>
        <g id="Grupo_947638" data-name="Grupo 947638" transform="translate(73.448 38.334)">
          <g id="Grupo_947634" data-name="Grupo 947634" transform="translate(7.595 10.592)">
            <path id="Trazado_691171" data-name="Trazado 691171" d="M338.846,267.35h2.336v14.108h-2.336Z" transform="translate(-338.846 -267.35)" fill="#ec771b"/>
          </g>
          <path id="Trazado_691172" data-name="Trazado 691172" d="M343.729,267.35H344.9v14.108h-1.168Z" transform="translate(-334.966 -256.758)" fill="#c55732"/>
          <path id="Trazado_691173" data-name="Trazado 691173" d="M338.846,267.35h1.168v9.706h-1.168Z" transform="translate(-331.251 -256.758)" fill="#c55732"/>
          <path id="Trazado_691174" data-name="Trazado 691174" d="M343.729,267.35H344.9v9.706h-1.168Z" transform="translate(-334.966 -256.758)" fill="#a44e3e"/>
          <g id="Grupo_947635" data-name="Grupo 947635">
            <path id="Trazado_691175" data-name="Trazado 691175" d="M324.616,237.212a4.381,4.381,0,0,1-4.388,4.358h-8.747a4.382,4.382,0,0,1-4.389-4.358,4.3,4.3,0,0,1,1.291-3.032,1.816,1.816,0,0,0,.531-1.407c-.006-.09-.009-.182-.009-.274a4.307,4.307,0,0,1,1.831-3.529,1.868,1.868,0,0,0,.8-1.523v-.071a4.314,4.314,0,0,1,4.314-4.315h.074a4.258,4.258,0,0,1,3.008,1.319,4.422,4.422,0,0,1,1.233,3.065,1.868,1.868,0,0,0,.8,1.523A4.309,4.309,0,0,1,322.8,232.5c0,.092,0,.184-.009.274a1.808,1.808,0,0,0,.531,1.407A4.3,4.3,0,0,1,324.616,237.212Z" transform="translate(-307.092 -223.063)" fill="#43af3e"/>
          </g>
          <g id="Grupo_947637" data-name="Grupo 947637" transform="translate(4.615)">
            <g id="Grupo_947636" data-name="Grupo 947636">
              <path id="Trazado_691176" data-name="Trazado 691176" d="M339.3,237.212a4.381,4.381,0,0,1-4.388,4.358h-6.444c-1.134,0-2.088-1.961-2.077-4.358a7.251,7.251,0,0,1,.611-3.032,3.17,3.17,0,0,0,.251-1.407c0-.09,0-.182,0-.274a6.606,6.606,0,0,1,.867-3.529,2.859,2.859,0,0,0,.38-1.523v-.071c0-2.383.915-4.315,2.042-4.315h.074a4.258,4.258,0,0,1,3.008,1.319,4.422,4.422,0,0,1,1.233,3.065,1.868,1.868,0,0,0,.8,1.523,4.309,4.309,0,0,1,1.831,3.529c0,.092,0,.184-.009.274a1.809,1.809,0,0,0,.531,1.407A4.3,4.3,0,0,1,339.3,237.212Z" transform="translate(-326.389 -223.063)" fill="#00a23e"/>
            </g>
          </g>
          <path id="Trazado_691177" data-name="Trazado 691177" d="M352.489,237.213a4.381,4.381,0,0,1-4.388,4.358h-4.374V223.064h.074a4.258,4.258,0,0,1,3.008,1.319,4.422,4.422,0,0,1,1.233,3.065,1.868,1.868,0,0,0,.8,1.523,4.309,4.309,0,0,1,1.831,3.529c0,.092,0,.184-.009.274a1.808,1.808,0,0,0,.531,1.407A4.3,4.3,0,0,1,352.489,237.213Z" transform="translate(-334.965 -223.064)" fill="#008839"/>
        </g>
        <g id="Grupo_947643" data-name="Grupo 947643" transform="translate(103.167 55.027)">
          <g id="Grupo_947639" data-name="Grupo 947639" transform="translate(7.595 10.593)">
            <path id="Trazado_691178" data-name="Trazado 691178" d="M463.106,337.151h2.336v12.514h-2.336Z" transform="translate(-463.106 -337.151)" fill="#ec771b"/>
          </g>
          <path id="Trazado_691179" data-name="Trazado 691179" d="M467.989,337.151h1.168v12.514h-1.168Z" transform="translate(-459.226 -326.558)" fill="#c55732"/>
          <path id="Trazado_691180" data-name="Trazado 691180" d="M463.106,337.151h1.168v9.706h-1.168Z" transform="translate(-455.511 -326.558)" fill="#c55732"/>
          <path id="Trazado_691181" data-name="Trazado 691181" d="M467.989,337.151h1.168v9.706h-1.168Z" transform="translate(-459.226 -326.558)" fill="#a44e3e"/>
          <g id="Grupo_947640" data-name="Grupo 947640">
            <path id="Trazado_691182" data-name="Trazado 691182" d="M447.4,303.754a60.766,60.766,0,0,1-3.181,7.615h-8.476a4.384,4.384,0,0,1-4.389-4.36,4.306,4.306,0,0,1,1.292-3.03,1.812,1.812,0,0,0,.531-1.406c0-.091-.007-.182-.007-.275a4.3,4.3,0,0,1,1.83-3.528,1.869,1.869,0,0,0,.8-1.524v-.072a4.316,4.316,0,0,1,4.315-4.315l.074,0a4.252,4.252,0,0,1,3.006,1.32,4.41,4.41,0,0,1,1.234,3.064,1.87,1.87,0,0,0,.8,1.524,4.3,4.3,0,0,1,1.83,3.528c0,.093,0,.184-.007.275a1.808,1.808,0,0,0,.342,1.182Z" transform="translate(-431.349 -292.86)" fill="#43af3e"/>
          </g>
          <g id="Grupo_947642" data-name="Grupo 947642" transform="translate(4.616)">
            <g id="Grupo_947641" data-name="Grupo 947641">
              <path id="Trazado_691183" data-name="Trazado 691183" d="M462.08,303.754a60.762,60.762,0,0,1-3.181,7.615h-6.173c-1.134,0-2.088-1.961-2.076-4.36a7.231,7.231,0,0,1,.61-3.03,3.149,3.149,0,0,0,.251-1.406c0-.091,0-.182,0-.275a6.608,6.608,0,0,1,.866-3.528,2.865,2.865,0,0,0,.38-1.524v-.072c0-2.382.914-4.315,2.043-4.315l.033,0h.041a4.252,4.252,0,0,1,3.006,1.32,4.41,4.41,0,0,1,1.234,3.064,1.87,1.87,0,0,0,.8,1.524,4.3,4.3,0,0,1,1.83,3.528c0,.093,0,.184-.007.275A1.808,1.808,0,0,0,462.08,303.754Z" transform="translate(-450.65 -292.86)" fill="#00a23e"/>
            </g>
          </g>
          <path id="Trazado_691184" data-name="Trazado 691184" d="M475.273,303.754a60.766,60.766,0,0,1-3.181,7.615h-4.1V292.86l.074,0a4.252,4.252,0,0,1,3.006,1.32,4.41,4.41,0,0,1,1.234,3.064,1.869,1.869,0,0,0,.8,1.524,4.3,4.3,0,0,1,1.83,3.528c0,.093,0,.184-.007.275A1.808,1.808,0,0,0,475.273,303.754Z" transform="translate(-459.227 -292.86)" fill="#008839"/>
        </g>
        <g id="Grupo_947648" data-name="Grupo 947648" transform="translate(78.665 46.688)">
          <g id="Grupo_947644" data-name="Grupo 947644" transform="translate(7.595 10.592)">
            <path id="Trazado_691185" data-name="Trazado 691185" d="M360.659,302.28h2.336v14.108h-2.336Z" transform="translate(-360.659 -302.28)" fill="#ec771b"/>
          </g>
          <path id="Trazado_691186" data-name="Trazado 691186" d="M365.541,302.28h1.168v14.108h-1.168Z" transform="translate(-356.779 -291.688)" fill="#c55732"/>
          <path id="Trazado_691187" data-name="Trazado 691187" d="M360.659,302.28h1.168v9.706h-1.168Z" transform="translate(-353.064 -291.688)" fill="#c55732"/>
          <path id="Trazado_691188" data-name="Trazado 691188" d="M365.541,302.28h1.168v9.706h-1.168Z" transform="translate(-356.779 -291.688)" fill="#a44e3e"/>
          <g id="Grupo_947645" data-name="Grupo 947645">
            <path id="Trazado_691189" data-name="Trazado 691189" d="M346.429,272.142a4.381,4.381,0,0,1-4.388,4.358h-8.747a4.382,4.382,0,0,1-4.389-4.358,4.3,4.3,0,0,1,1.291-3.032,1.816,1.816,0,0,0,.531-1.407c-.006-.09-.009-.182-.009-.274a4.307,4.307,0,0,1,1.831-3.529,1.868,1.868,0,0,0,.8-1.523v-.071a4.314,4.314,0,0,1,4.314-4.315h.074a4.258,4.258,0,0,1,3.008,1.319,4.423,4.423,0,0,1,1.233,3.065,1.868,1.868,0,0,0,.8,1.523,4.309,4.309,0,0,1,1.831,3.529c0,.092,0,.184-.009.274a1.809,1.809,0,0,0,.531,1.407A4.3,4.3,0,0,1,346.429,272.142Z" transform="translate(-328.905 -257.993)" fill="#43af3e"/>
          </g>
          <g id="Grupo_947647" data-name="Grupo 947647" transform="translate(4.615)">
            <g id="Grupo_947646" data-name="Grupo 947646">
              <path id="Trazado_691190" data-name="Trazado 691190" d="M361.11,272.142a4.381,4.381,0,0,1-4.388,4.358h-6.444c-1.134,0-2.088-1.961-2.077-4.358a7.251,7.251,0,0,1,.611-3.032,3.17,3.17,0,0,0,.251-1.407c0-.09,0-.182,0-.274a6.606,6.606,0,0,1,.867-3.529,2.859,2.859,0,0,0,.38-1.523v-.071c0-2.383.915-4.315,2.042-4.315h.074a4.258,4.258,0,0,1,3.008,1.319,4.422,4.422,0,0,1,1.233,3.065,1.868,1.868,0,0,0,.8,1.523,4.309,4.309,0,0,1,1.831,3.529c0,.092,0,.184-.009.274a1.808,1.808,0,0,0,.531,1.407A4.3,4.3,0,0,1,361.11,272.142Z" transform="translate(-348.202 -257.993)" fill="#00a23e"/>
            </g>
          </g>
          <path id="Trazado_691191" data-name="Trazado 691191" d="M374.3,272.143a4.381,4.381,0,0,1-4.388,4.358H365.54V257.994h.074a4.258,4.258,0,0,1,3.008,1.319,4.422,4.422,0,0,1,1.233,3.065,1.868,1.868,0,0,0,.8,1.523,4.309,4.309,0,0,1,1.831,3.529c0,.092,0,.184-.009.274a1.809,1.809,0,0,0,.531,1.407A4.3,4.3,0,0,1,374.3,272.143Z" transform="translate(-356.778 -257.994)" fill="#008839"/>
        </g>
        <g id="Grupo_947653" data-name="Grupo 947653" transform="translate(68.891 60.488)">
          <g id="Grupo_947649" data-name="Grupo 947649" transform="translate(7.594 10.592)">
            <path id="Trazado_691192" data-name="Trazado 691192" d="M319.792,359.978h2.336v14.108h-2.336Z" transform="translate(-319.792 -359.978)" fill="#ec771b"/>
          </g>
          <path id="Trazado_691193" data-name="Trazado 691193" d="M324.675,359.978h1.168v14.108h-1.168Z" transform="translate(-315.913 -349.386)" fill="#c55732"/>
          <path id="Trazado_691194" data-name="Trazado 691194" d="M319.792,359.978h1.168v9.706h-1.168Z" transform="translate(-312.198 -349.386)" fill="#c55732"/>
          <path id="Trazado_691195" data-name="Trazado 691195" d="M324.675,359.978h1.168v9.706h-1.168Z" transform="translate(-315.913 -349.386)" fill="#a44e3e"/>
          <g id="Grupo_947650" data-name="Grupo 947650">
            <path id="Trazado_691196" data-name="Trazado 691196" d="M305.563,329.842a4.381,4.381,0,0,1-4.388,4.358h-8.747a4.382,4.382,0,0,1-4.389-4.358,4.3,4.3,0,0,1,1.291-3.032,1.816,1.816,0,0,0,.531-1.407c-.006-.09-.009-.182-.009-.274a4.307,4.307,0,0,1,1.831-3.529,1.867,1.867,0,0,0,.8-1.523v-.071a4.314,4.314,0,0,1,4.314-4.315h.074a4.258,4.258,0,0,1,3.008,1.319,4.422,4.422,0,0,1,1.233,3.065,1.868,1.868,0,0,0,.8,1.523,4.309,4.309,0,0,1,1.831,3.529c0,.092,0,.184-.009.274a1.809,1.809,0,0,0,.531,1.407A4.3,4.3,0,0,1,305.563,329.842Z" transform="translate(-288.039 -315.693)" fill="#43af3e"/>
          </g>
          <g id="Grupo_947652" data-name="Grupo 947652" transform="translate(4.615)">
            <g id="Grupo_947651" data-name="Grupo 947651">
              <path id="Trazado_691197" data-name="Trazado 691197" d="M320.243,329.842a4.381,4.381,0,0,1-4.388,4.358h-6.444c-1.134,0-2.088-1.961-2.077-4.358a7.251,7.251,0,0,1,.611-3.032,3.171,3.171,0,0,0,.251-1.407c0-.09,0-.182,0-.274a6.606,6.606,0,0,1,.867-3.529,2.858,2.858,0,0,0,.38-1.523v-.071c0-2.383.915-4.315,2.042-4.315h.074a4.258,4.258,0,0,1,3.008,1.319,4.422,4.422,0,0,1,1.233,3.065,1.868,1.868,0,0,0,.8,1.523,4.309,4.309,0,0,1,1.831,3.529c0,.092,0,.184-.009.274a1.808,1.808,0,0,0,.531,1.407A4.294,4.294,0,0,1,320.243,329.842Z" transform="translate(-307.335 -315.693)" fill="#00a23e"/>
            </g>
          </g>
          <path id="Trazado_691198" data-name="Trazado 691198" d="M333.435,329.842a4.381,4.381,0,0,1-4.388,4.358h-4.374V315.693h.074a4.258,4.258,0,0,1,3.008,1.319,4.422,4.422,0,0,1,1.233,3.065,1.868,1.868,0,0,0,.8,1.523,4.309,4.309,0,0,1,1.831,3.529c0,.092,0,.184-.009.274a1.809,1.809,0,0,0,.531,1.407A4.3,4.3,0,0,1,333.435,329.842Z" transform="translate(-315.911 -315.693)" fill="#008839"/>
        </g>
        <g id="Grupo_947658" data-name="Grupo 947658" transform="translate(77.193 68.333)">
          <g id="Grupo_947654" data-name="Grupo 947654" transform="translate(8.549 11.924)">
            <path id="Trazado_691199" data-name="Trazado 691199" d="M358.494,398.351h2.629v15.882h-2.629Z" transform="translate(-358.494 -398.351)" fill="#ec771b"/>
          </g>
          <path id="Trazado_691200" data-name="Trazado 691200" d="M363.991,398.351h1.315v15.882h-1.315Z" transform="translate(-354.127 -386.427)" fill="#c55732"/>
          <path id="Trazado_691201" data-name="Trazado 691201" d="M358.494,398.351h1.315v10.927h-1.315Z" transform="translate(-349.945 -386.427)" fill="#c55732"/>
          <path id="Trazado_691202" data-name="Trazado 691202" d="M363.991,398.351h1.315v10.927h-1.315Z" transform="translate(-354.127 -386.427)" fill="#a44e3e"/>
          <g id="Grupo_947655" data-name="Grupo 947655">
            <path id="Trazado_691203" data-name="Trazado 691203" d="M342.477,364.423a4.932,4.932,0,0,1-4.939,4.906h-9.847a4.933,4.933,0,0,1-4.94-4.906,4.839,4.839,0,0,1,1.453-3.413,2.042,2.042,0,0,0,.6-1.584c-.006-.1-.01-.2-.01-.309a4.848,4.848,0,0,1,2.062-3.972,2.1,2.1,0,0,0,.9-1.714v-.08a4.857,4.857,0,0,1,4.856-4.857h.083a4.793,4.793,0,0,1,3.386,1.485,4.978,4.978,0,0,1,1.388,3.451,2.1,2.1,0,0,0,.9,1.714,4.851,4.851,0,0,1,2.062,3.972c0,.1,0,.207-.01.309a2.036,2.036,0,0,0,.6,1.584A4.838,4.838,0,0,1,342.477,364.423Z" transform="translate(-322.75 -348.494)" fill="#43af3e"/>
          </g>
          <g id="Grupo_947657" data-name="Grupo 947657" transform="translate(5.195)">
            <g id="Grupo_947656" data-name="Grupo 947656">
              <path id="Trazado_691204" data-name="Trazado 691204" d="M359,364.423a4.932,4.932,0,0,1-4.939,4.906H346.81c-1.277,0-2.351-2.207-2.338-4.906a8.162,8.162,0,0,1,.688-3.413,3.573,3.573,0,0,0,.283-1.584c0-.1,0-.2,0-.309a7.437,7.437,0,0,1,.976-3.972,3.217,3.217,0,0,0,.427-1.714v-.08c0-2.682,1.03-4.857,2.3-4.857h.083a4.793,4.793,0,0,1,3.386,1.485A4.978,4.978,0,0,1,354,353.431a2.1,2.1,0,0,0,.9,1.714,4.851,4.851,0,0,1,2.062,3.972c0,.1,0,.207-.01.309a2.036,2.036,0,0,0,.6,1.584A4.84,4.84,0,0,1,359,364.423Z" transform="translate(-344.472 -348.494)" fill="#00a23e"/>
            </g>
          </g>
          <path id="Trazado_691205" data-name="Trazado 691205" d="M373.853,364.424a4.932,4.932,0,0,1-4.939,4.906H363.99V348.5h.083a4.793,4.793,0,0,1,3.386,1.485,4.978,4.978,0,0,1,1.388,3.451,2.1,2.1,0,0,0,.9,1.714,4.851,4.851,0,0,1,2.062,3.972c0,.1,0,.207-.01.309a2.036,2.036,0,0,0,.6,1.584,4.836,4.836,0,0,1,1.452,3.413Z" transform="translate(-354.127 -348.496)" fill="#008839"/>
        </g>
        <g id="Grupo_947662" data-name="Grupo 947662" transform="translate(90.89 69.404)">
          <g id="Grupo_947659" data-name="Grupo 947659">
            <path id="Trazado_691206" data-name="Trazado 691206" d="M399.933,365.716a61.416,61.416,0,0,1-8.809,9.744c-.366.325-.734.648-1.107.964h-4.434a5.553,5.553,0,0,1-5.563-5.522,5.448,5.448,0,0,1,1.636-3.841,2.293,2.293,0,0,0,.672-1.784c-.007-.112-.01-.23-.01-.347a5.453,5.453,0,0,1,2.32-4.47,2.369,2.369,0,0,0,1.019-1.93v-.091a5.468,5.468,0,0,1,5.467-5.467l.093,0a5.38,5.38,0,0,1,3.81,1.672,5.6,5.6,0,0,1,1.564,3.884,2.369,2.369,0,0,0,1.019,1.93,5.46,5.46,0,0,1,2.32,4.47c0,.117,0,.234-.012.347A2.247,2.247,0,0,0,399.933,365.716Z" transform="translate(-380.019 -352.97)" fill="#43af3e"/>
          </g>
          <g id="Grupo_947661" data-name="Grupo 947661" transform="translate(5.848)">
            <g id="Grupo_947660" data-name="Grupo 947660">
              <path id="Trazado_691207" data-name="Trazado 691207" d="M418.535,365.716a61.418,61.418,0,0,1-8.809,9.744c-.366.325-.734.648-1.107.964H407.1c-1.437,0-2.648-2.485-2.633-5.522a9.166,9.166,0,0,1,.775-3.841,4.051,4.051,0,0,0,.318-1.784c0-.112,0-.23,0-.347a8.361,8.361,0,0,1,1.1-4.47,3.617,3.617,0,0,0,.483-1.93v-.091c0-3.018,1.158-5.467,2.588-5.467l.043,0h.05a5.38,5.38,0,0,1,3.81,1.672,5.6,5.6,0,0,1,1.564,3.884,2.369,2.369,0,0,0,1.019,1.93,5.46,5.46,0,0,1,2.32,4.47c0,.117,0,.234-.012.347A2.245,2.245,0,0,0,418.535,365.716Z" transform="translate(-404.469 -352.97)" fill="#00a23e"/>
            </g>
          </g>
          <path id="Trazado_691208" data-name="Trazado 691208" d="M435.259,365.716a61.416,61.416,0,0,1-8.809,9.744V352.97l.093,0a5.38,5.38,0,0,1,3.81,1.672,5.6,5.6,0,0,1,1.564,3.884,2.369,2.369,0,0,0,1.019,1.93,5.46,5.46,0,0,1,2.32,4.47c0,.117,0,.234-.012.347a2.245,2.245,0,0,0,.014.44Z" transform="translate(-415.345 -352.97)" fill="#008839"/>
        </g>
      </g>
      <path id="Trazado_691209" data-name="Trazado 691209" d="M256,323.5v-2.588c4.2-2.887,6.871-5.023,6.883-7.3.014-2.251-3.049-4.374-6.883-6.527V305.52c4.771,2.545,8.986,5.147,9.213,8.053S260.8,320.126,256,323.5Z" transform="translate(-194.772 -232.448)" fill="#ffc300"/>
    </g>
  </g>
</svg>
