<svg xmlns="http://www.w3.org/2000/svg" width="165" height="165" viewBox="0 0 165 165">
  <g id="_9" data-name="9" transform="translate(-6034 10402)">
    <circle id="Elipse_5513" data-name="Elipse 5513" cx="82.5" cy="82.5" r="82.5" transform="translate(6034 -10402)" fill="#ccd3ca"/>
    <g id="guia-turistico" transform="translate(6058 -10380)">
      <path id="Trazado_691210" data-name="Trazado 691210" d="M109.837,106.657A58.121,58.121,0,1,0,7.508,108.7Zm0,0" transform="translate(0 -16.781)" fill="#3c2b8e"/>
      <path id="Trazado_691211" data-name="Trazado 691211" d="M424.248,270.16a85.684,85.684,0,0,1-12.217,4.68v37.083a58.305,58.305,0,0,0,12.217-16.214Zm0,0" transform="translate(-314.29 -206.073)" fill="#f9b50b"/>
      <path id="Trazado_691212" data-name="Trazado 691212" d="M439.474,387.949a4.058,4.058,0,0,1-4.059-1.441l-.892,8.476A58.256,58.256,0,0,0,439.474,387.949Zm0,0" transform="translate(-331.446 -294.821)" fill="#f79d0d"/>
      <path id="Trazado_691213" data-name="Trazado 691213" d="M408.6,81.347V26.867A4.881,4.881,0,0,0,403.732,22H391.516a4.881,4.881,0,0,1,4.867,4.867V86.028A85.682,85.682,0,0,0,408.6,81.347Zm0,0" transform="translate(-298.641 -16.781)" fill="#2299f2"/>
      <path id="Trazado_691214" data-name="Trazado 691214" d="M416.636,47.645h-4.6v94.548a58.416,58.416,0,0,0,6.228-6.8V49.269A1.624,1.624,0,0,0,416.636,47.645Zm0,0" transform="translate(-314.29 -36.343)" fill="#abe4fe"/>
      <path id="Trazado_691215" data-name="Trazado 691215" d="M412.031,386.579v14.092a58.418,58.418,0,0,0,6.228-6.8v-7.365a3.114,3.114,0,0,1-6.228.071Zm0,0" transform="translate(-314.29 -294.821)" fill="#82c6f9"/>
      <path id="Trazado_691216" data-name="Trazado 691216" d="M121.462,175.583c-22.411,6.53-39.465-.814-58.373-19.844-10.389-10.457-21.7-14.653-31.991-15.7v58.468a58.121,58.121,0,0,0,90.6,13.939V175.514c-.08.023-.16.05-.239.072Zm0,0" transform="translate(-23.721 -106.819)" fill="#fbc840"/>
      <path id="Trazado_691217" data-name="Trazado 691217" d="M127.083,397.261H52.767a8.3,8.3,0,0,1-3.935-.989,58.111,58.111,0,0,0,86.4,7.474V390.832A8.41,8.41,0,0,1,127.083,397.261Zm0,0" transform="translate(-37.248 -298.12)" fill="#f9b50b"/>
      <path id="Trazado_691218" data-name="Trazado 691218" d="M121.7,26.867A4.881,4.881,0,0,0,116.835,22H33.972A2.883,2.883,0,0,0,31.1,24.874V50.48c10.292,1.047,21.6,5.243,31.991,15.7,18.976,19.1,36.084,26.428,58.612,19.775Zm0,0" transform="translate(-23.721 -16.781)" fill="#52b0f5"/>
      <path id="Trazado_691219" data-name="Trazado 691219" d="M31.1,198.5a58.374,58.374,0,0,0,12.273,15.211V142.842A50.56,50.56,0,0,0,31.1,140.035Zm0,0" transform="translate(-23.721 -106.816)" fill="#f9b50b"/>
      <path id="Trazado_691220" data-name="Trazado 691220" d="M52.779,414.76a8.3,8.3,0,0,1-3.932-.987,58.484,58.484,0,0,0,8.063,8.744V414.76Zm0,0" transform="translate(-37.26 -315.619)" fill="#f79d0d"/>
      <path id="Trazado_691221" data-name="Trazado 691221" d="M40.5,22H33.972A2.883,2.883,0,0,0,31.1,24.874V50.48a50.509,50.509,0,0,1,12.273,2.8V24.874A2.883,2.883,0,0,0,40.5,22Zm0,0" transform="translate(-23.721 -16.781)" fill="#2299f2"/>
      <g id="Grupo_947664" data-name="Grupo 947664" transform="translate(26.628 80.548)">
        <path id="Trazado_691222" data-name="Trazado 691222" d="M182.966,339.555a1.8,1.8,0,0,0-1.8,1.8v10.57a2.661,2.661,0,1,1-5.322,0v-10.57a1.8,1.8,0,0,0-3.593,0v10.57a6.254,6.254,0,1,0,12.509,0v-10.57A1.8,1.8,0,0,0,182.966,339.555Zm0,0" transform="translate(-158.02 -339.555)" fill="#554cbf"/>
        <path id="Trazado_691223" data-name="Trazado 691223" d="M268.376,339.555h-3.3a1.8,1.8,0,0,0-1.8,1.8V356.38a1.8,1.8,0,0,0,1.8,1.8h3.3a7.419,7.419,0,0,0,7.41-7.41v-3.8A7.419,7.419,0,0,0,268.376,339.555Zm3.817,11.211a3.821,3.821,0,0,1-3.817,3.817h-1.5V343.148h1.5a3.821,3.821,0,0,1,3.817,3.817Zm0,0" transform="translate(-227.451 -339.555)" fill="#554cbf"/>
        <path id="Trazado_691224" data-name="Trazado 691224" d="M237.816,339.555a1.8,1.8,0,0,0-1.8,1.8V356.38a1.8,1.8,0,0,0,3.593,0V341.351A1.8,1.8,0,0,0,237.816,339.555Zm0,0" transform="translate(-206.659 -339.555)" fill="#554cbf"/>
        <path id="Trazado_691225" data-name="Trazado 691225" d="M335.07,350.887a1.8,1.8,0,0,0,0-3.593h-7.117v-4.145h7.117a1.8,1.8,0,0,0,0-3.594h-8.914a1.8,1.8,0,0,0-1.8,1.8V356.38a1.8,1.8,0,0,0,1.8,1.8h8.914a1.8,1.8,0,0,0,0-3.593h-7.117v-3.7Zm0,0" transform="translate(-274.043 -339.555)" fill="#554cbf"/>
        <path id="Trazado_691226" data-name="Trazado 691226" d="M122.961,347.548h-3.022a1.8,1.8,0,1,0,0,3.593h1.226v.78a2.661,2.661,0,1,1-5.322,0v-6.113a2.661,2.661,0,0,1,5.155-.929,1.8,1.8,0,0,0,3.366-1.257,6.255,6.255,0,0,0-12.115,2.186v6.113a6.254,6.254,0,1,0,12.509,0v-2.577A1.8,1.8,0,0,0,122.961,347.548Zm0,0" transform="translate(-112.25 -339.555)" fill="#554cbf"/>
      </g>
      <path id="Trazado_691227" data-name="Trazado 691227" d="M260.63,227.189h-.059a1.8,1.8,0,0,1-1.737-1.853l.265-8.2a1.8,1.8,0,1,1,3.592.116l-.265,8.2A1.8,1.8,0,0,1,260.63,227.189Zm0,0" transform="translate(-197.432 -164.296)" fill="#d9f5ff"/>
      <path id="Trazado_691228" data-name="Trazado 691228" d="M222.982,227.191a1.8,1.8,0,0,1-1.795-1.738l-.264-8.2a1.8,1.8,0,0,1,3.591-.116l.265,8.2a1.8,1.8,0,0,1-1.737,1.854Zm0,0" transform="translate(-168.515 -164.299)" fill="#d9f5ff"/>
      <path id="Trazado_691229" data-name="Trazado 691229" d="M232,253.484H222.29a1.635,1.635,0,0,0-1.63,1.63v6.726a1.635,1.635,0,0,0,1.63,1.63H232a1.635,1.635,0,0,0,1.631-1.63v-6.726A1.635,1.635,0,0,0,232,253.484Zm0,0" transform="translate(-168.315 -193.353)" fill="#f7577a"/>
      <path id="Trazado_691230" data-name="Trazado 691230" d="M227.085,261.84v-6.726a1.635,1.635,0,0,1,1.63-1.63H222.29a1.635,1.635,0,0,0-1.63,1.63v6.726a1.635,1.635,0,0,0,1.63,1.63h6.426A1.635,1.635,0,0,1,227.085,261.84Zm0,0" transform="translate(-168.315 -193.353)" fill="#d93a59"/>
      <path id="Trazado_691231" data-name="Trazado 691231" d="M150.72,229.975a4.707,4.707,0,0,0-1.193.066,1.56,1.56,0,0,1-1.6-.617,6.373,6.373,0,0,0-11.228,1.231,1.584,1.584,0,0,1-1.827.983,3.906,3.906,0,1,0-.848,7.718h16.351a4.7,4.7,0,0,0,.342-9.38Zm0,0" transform="translate(-99.254 -172.848)" fill="#abe4fe"/>
      <path id="Trazado_691232" data-name="Trazado 691232" d="M140.108,238.2a3.941,3.941,0,0,1,.815-.484,1.584,1.584,0,0,0,.891-1.874,6.37,6.37,0,0,1,4.777-7.864,6.37,6.37,0,0,0-9.884,2.68,1.585,1.585,0,0,1-1.828.983,3.906,3.906,0,1,0-.847,7.719h5.081A3.821,3.821,0,0,1,140.108,238.2Zm0,0" transform="translate(-99.257 -172.848)" fill="#82c6f9"/>
      <path id="Trazado_691233" data-name="Trazado 691233" d="M195,70.376a16.372,16.372,0,0,0-8.594,30.138,5.357,5.357,0,0,1,2.432,4.51v.745a1.583,1.583,0,0,0,1.583,1.583h9.685a1.583,1.583,0,0,0,1.583-1.583v-.745a5.364,5.364,0,0,1,2.437-4.514A16.371,16.371,0,0,0,195,70.376Zm0,0" transform="translate(-136.456 -53.68)" fill="#fbc840"/>
      <path id="Trazado_691234" data-name="Trazado 691234" d="M208.7,157.3a5.121,5.121,0,0,1-2.886-.887,1.31,1.31,0,0,0-1.686.139,10.32,10.32,0,0,1-14.855.007,1.311,1.311,0,0,0-1.682-.139,5.154,5.154,0,0,1-6.818-.951,16.4,16.4,0,0,0,7.067,9.953,5.356,5.356,0,0,1,2.431,4.51v.745a1.583,1.583,0,0,0,1.583,1.583h9.685a1.582,1.582,0,0,0,1.583-1.583v-.745a5.364,5.364,0,0,1,2.437-4.513,16.39,16.39,0,0,0,7.051-9.913A5.15,5.15,0,0,1,208.7,157.3Zm0,0" transform="translate(-137.894 -118.592)" fill="#f9b50b"/>
      <path id="Trazado_691235" data-name="Trazado 691235" d="M220.54,70.376c-4.483.136-8.173,7.131-8.326,15.795-.107,6.015,1.466,11.334,3.882,14.343a7.545,7.545,0,0,1,1.257,4.51v.745c0,.874.366,1.583.818,1.583h5.009c.452,0,.818-.709.818-1.583v-.745a7.551,7.551,0,0,1,1.261-4.514c2.336-2.913,3.884-7.989,3.884-13.765C229.144,77.616,225.279,70.232,220.54,70.376Zm0,0" transform="translate(-161.869 -53.68)" fill="#f9b50b"/>
      <path id="Trazado_691236" data-name="Trazado 691236" d="M229.182,158.879a10.32,10.32,0,0,1-14.855.007,1.234,1.234,0,0,0-.71-.36,19.647,19.647,0,0,0,3.553,9.223,7.546,7.546,0,0,1,1.257,4.51V173c0,.874.366,1.583.818,1.583h5.009c.452,0,.818-.709.818-1.583v-.745a7.551,7.551,0,0,1,1.261-4.514,19.662,19.662,0,0,0,3.55-9.227A1.226,1.226,0,0,0,229.182,158.879Zm0,0" transform="translate(-162.943 -120.916)" fill="#f79d0d"/>
      <path id="Trazado_691237" data-name="Trazado 691237" d="M305.235,15.368,279.826.7a5.254,5.254,0,0,0-7.155,1.917l-16.163,28a5.253,5.253,0,0,0,1.917,7.155l25.409,14.67a5.254,5.254,0,0,0,7.155-1.917l16.163-28A5.252,5.252,0,0,0,305.235,15.368Zm0,0" transform="translate(-195.127)" fill="#abe4fe"/>
      <path id="Trazado_691238" data-name="Trazado 691238" d="M289.827,6.471,279.826.7a5.254,5.254,0,0,0-7.155,1.917l-16.163,28a5.253,5.253,0,0,0,1.917,7.155l9.7,5.6L286.87,10.923a1.37,1.37,0,0,0,.152-1C286.233,6.627,289.826,6.471,289.827,6.471Zm0,0" transform="translate(-195.127)" fill="#82c6f9"/>
      <path id="Trazado_691239" data-name="Trazado 691239" d="M323.757,34.644l-25.6-14.78a.384.384,0,0,0-.524.14l-14.5,25.123a.384.384,0,0,0,.141.524l25.6,14.78a.383.383,0,0,0,.524-.14l14.5-25.123A.383.383,0,0,0,323.757,34.644Zm0,0" transform="translate(-215.925 -15.113)" fill="#52b0f5"/>
      <path id="Trazado_691240" data-name="Trazado 691240" d="M298.157,19.864a.384.384,0,0,0-.524.14l-14.5,25.123a.384.384,0,0,0,.141.524l9.8,5.657,14.6-25.273a1.393,1.393,0,0,0,.178-.578Zm0,0" transform="translate(-215.926 -15.113)" fill="#2299f2"/>
      <path id="Trazado_691241" data-name="Trazado 691241" d="M304.265,99.58a4.15,4.15,0,0,1-5.084-2.935l-.549-2.047a4.151,4.151,0,0,0-5.084-2.935l-6.753,1.81-3.668,6.352a.384.384,0,0,0,.141.524l25.6,14.78a.382.382,0,0,0,.524-.14l11.463-19.856Zm0,0" transform="translate(-215.926 -69.811)" fill="#2299f2"/>
      <path id="Trazado_691242" data-name="Trazado 691242" d="M298.633,94.6a4.151,4.151,0,0,0-5.084-2.935l-6.753,1.81-3.668,6.352a.384.384,0,0,0,.141.524l9.8,5.657,5.891-10.2Zm0,0" transform="translate(-215.926 -69.811)" fill="#1588e8"/>
      <path id="Trazado_691243" data-name="Trazado 691243" d="M320.048,71.764l-25.409-14.67a5.255,5.255,0,0,0-7.155,1.917l-16.163,28a5.254,5.254,0,0,0,1.917,7.155l25.41,14.67a5.252,5.252,0,0,0,7.155-1.917l16.163-28A5.253,5.253,0,0,0,320.048,71.764Zm0,0" transform="translate(-206.426 -43.018)" fill="#d9f5ff"/>
      <path id="Trazado_691244" data-name="Trazado 691244" d="M338.57,91.04l-25.6-14.78a.383.383,0,0,0-.524.141l-14.506,25.123a.383.383,0,0,0,.141.524l25.6,14.781a.383.383,0,0,0,.524-.141l14.506-25.123A.385.385,0,0,0,338.57,91.04Zm0,0" transform="translate(-227.225 -58.131)" fill="#52b0f5"/>
      <path id="Trazado_691245" data-name="Trazado 691245" d="M117.271,356.3a1.878,1.878,0,0,1,1.124-1.72,2.662,2.662,0,0,1-2.552-2.656v-6.113a2.661,2.661,0,0,1,2.552-2.655,1.878,1.878,0,0,1,.521-3.583c-.137-.009-.274-.016-.412-.016a6.261,6.261,0,0,0-6.254,6.254v6.113a6.261,6.261,0,0,0,6.254,6.255c.14,0,.279-.006.417-.016A1.878,1.878,0,0,1,117.271,356.3Zm0,0" transform="translate(-85.622 -259.006)" fill="#483ba8"/>
      <path id="Trazado_691246" data-name="Trazado 691246" d="M177.633,356.3a1.879,1.879,0,0,1,1.141-1.728,2.465,2.465,0,0,1-.262.014,2.664,2.664,0,0,1-2.661-2.661v-10.57a1.8,1.8,0,1,0-3.593,0v10.57a6.251,6.251,0,0,0,6.9,6.221A1.878,1.878,0,0,1,177.633,356.3Zm0,0" transform="translate(-131.395 -259.006)" fill="#483ba8"/>
      <path id="Trazado_691247" data-name="Trazado 691247" d="M237.816,373.114a1.88,1.88,0,0,1-1.8-1.329v9.179a1.8,1.8,0,0,0,3.593,0v-9.179A1.88,1.88,0,0,1,237.816,373.114Zm0,0" transform="translate(-180.031 -283.591)" fill="#483ba8"/>
      <path id="Trazado_691248" data-name="Trazado 691248" d="M329.294,356.353a1.877,1.877,0,0,1,1.254-1.77h-2.6v-3.7h2.659a1.879,1.879,0,0,1,.023-3.593h-2.682v-4.145h2.584a1.877,1.877,0,0,1,.2-3.594h-4.584a1.8,1.8,0,0,0-1.8,1.8V356.38a1.8,1.8,0,0,0,1.8,1.8h4.57A1.878,1.878,0,0,1,329.294,356.353Zm0,0" transform="translate(-247.415 -259.006)" fill="#483ba8"/>
      <path id="Trazado_691249" data-name="Trazado 691249" d="M267.653,356.3a1.879,1.879,0,0,1,1.187-1.746,3.844,3.844,0,0,1-.464.031h-1.5V343.148h1.5a3.844,3.844,0,0,1,.464.031,1.878,1.878,0,0,1,.306-3.584,7.3,7.3,0,0,0-.77-.04h-3.3a1.8,1.8,0,0,0-1.8,1.8v15.027a1.8,1.8,0,0,0,1.8,1.8h3.3a7.549,7.549,0,0,0,.77-.04A1.879,1.879,0,0,1,267.653,356.3Zm0,0" transform="translate(-200.823 -259.006)" fill="#483ba8"/>
      <path id="Trazado_691250" data-name="Trazado 691250" d="M304.64,62.868l-10-5.775a5.255,5.255,0,0,0-7.155,1.917l-16.163,28a5.254,5.254,0,0,0,1.917,7.155l9.7,5.6L301.682,67.32a1.373,1.373,0,0,0,.152-1C301.045,63.024,304.639,62.868,304.64,62.868Zm0,0" transform="translate(-206.426 -43.018)" fill="#abe4fe"/>
      <path id="Trazado_691251" data-name="Trazado 691251" d="M312.97,76.26a.383.383,0,0,0-.524.141l-14.506,25.123a.383.383,0,0,0,.141.524l9.8,5.657,14.6-25.273a1.393,1.393,0,0,0,.177-.578Zm0,0" transform="translate(-227.225 -58.131)" fill="#2299f2"/>
      <path id="Trazado_691252" data-name="Trazado 691252" d="M319.077,155.975a4.151,4.151,0,0,1-5.084-2.936l-.549-2.046a4.151,4.151,0,0,0-5.083-2.936l-6.753,1.81-3.668,6.353a.383.383,0,0,0,.141.524l25.6,14.781a.383.383,0,0,0,.524-.141l11.463-19.855Zm0,0" transform="translate(-227.225 -112.827)" fill="#83d912"/>
      <path id="Trazado_691253" data-name="Trazado 691253" d="M378.876,118.328a3.352,3.352,0,1,0,1.227,4.579A3.353,3.353,0,0,0,378.876,118.328Zm0,0" transform="translate(-285.163 -89.915)" fill="#fbc840"/>
      <path id="Trazado_691254" data-name="Trazado 691254" d="M377.841,122.2a2.314,2.314,0,0,1,.348-4.172,3.349,3.349,0,1,0,2.281,3.95A2.313,2.313,0,0,1,377.841,122.2Zm0,0" transform="translate(-285.166 -89.913)" fill="#f9b50b"/>
      <path id="Trazado_691255" data-name="Trazado 691255" d="M313.77,152.208,313.445,151a4.149,4.149,0,0,0-5.083-2.935l-6.753,1.809-3.668,6.353a.385.385,0,0,0,.141.524l9.8,5.657C307.012,153.978,313.77,152.208,313.77,152.208Zm0,0" transform="translate(-227.225 -112.829)" fill="#5bbf02"/>
    </g>
  </g>
</svg>
