<svg xmlns="http://www.w3.org/2000/svg" xmlns:xlink="http://www.w3.org/1999/xlink" width="91.125" height="90.974" viewBox="0 0 91.125 90.974">
  <defs>
    <clipPath id="clip-path">
      <rect id="Rectángulo_40212" data-name="Rectángulo 40212" width="91.125" height="90.974" fill="none"/>
    </clipPath>
  </defs>
  <g id="_12" data-name="12" transform="translate(-333.15 -1576.01)">
    <g id="Grupo_926809" data-name="Grupo 926809" transform="translate(333.15 1576.01)">
      <circle id="Elipse_4803" data-name="Elipse 4803" cx="43.963" cy="43.963" r="43.963" transform="translate(1.599 1.494)" fill="#fff"/>
      <g id="Grupo_211670" data-name="Grupo 211670" transform="translate(0 0)">
        <g id="Grupo_211669" data-name="Grupo 211669" clip-path="url(#clip-path)">
          <path id="Trazado_146009" data-name="Trazado 146009" d="M45.3,0A45.487,45.487,0,1,0,91.125,45.37,45.564,45.564,0,0,0,45.3,0M45.27,89.185A43.7,43.7,0,1,1,89.325,45.554,43.713,43.713,0,0,1,45.27,89.185" transform="translate(0 0)" fill="#406834"/>
        </g>
      </g>
    </g>
    <g id="turista" transform="translate(348.949 1591.308)">
      <path id="Trazado_622354" data-name="Trazado 622354" d="M47.437,38.06V33.845a4.219,4.219,0,0,0-4.215-4.215.818.818,0,0,0,0,1.637A2.578,2.578,0,0,1,45.8,33.845V36.7c-2.741-1.857-6.837-2.646-10.042-3.069V32.421a10.929,10.929,0,0,0,1.449-1.154h3.2a.818.818,0,1,0,0-1.637H38.6a10.214,10.214,0,0,0,1.743-5.369,3.629,3.629,0,0,0,2.644-3.487,3.592,3.592,0,0,0-.794-2.234,4.257,4.257,0,0,0,2.873-4.018.821.821,0,0,0-.818-.818H41.659v-.2a11.463,11.463,0,0,0-1.727-6.056.818.818,0,0,0-1.391.859,9.874,9.874,0,0,1,1.481,5.2v.2H20.3v-.2A9.862,9.862,0,0,1,37.182,6.575a.816.816,0,1,0,1.162-1.146A11.494,11.494,0,0,0,18.661,13.5v.2H16.075a.821.821,0,0,0-.818.818,4.268,4.268,0,0,0,2.873,4.018,3.592,3.592,0,0,0-.794,2.234,3.636,3.636,0,0,0,2.644,3.487,10.214,10.214,0,0,0,1.743,5.369H16.3a4.219,4.219,0,0,0-4.215,4.215v4.231a4.982,4.982,0,0,0-1.424,3.4v2.341a.818.818,0,1,0,1.637,0V41.481a3.88,3.88,0,0,1,1.817-3.053v5.434a1.439,1.439,0,0,0-1.072,1.383v2.431a1.441,1.441,0,0,0,1.072,1.391v3.658A1.991,1.991,0,0,1,12.3,50.754V48.135a.818.818,0,1,0-1.637,0v2.619A3.634,3.634,0,0,0,14.3,54.38H45.235a3.633,3.633,0,0,0,3.626-3.626V41.481a5.03,5.03,0,0,0-1.424-3.421Zm-7.783-2.079a19.379,19.379,0,0,1,4.109,1.432v6.392H39.654Zm.7-13.488V19.056a1.987,1.987,0,0,1,0,3.437Zm-20.4,0a1.987,1.987,0,0,1,0-3.437Zm-.434-5.336a2.64,2.64,0,0,1-2.5-1.817H43.3a2.632,2.632,0,0,1-2.5,1.817ZM21.6,23.909V18.794H38.721v5.115a8.561,8.561,0,1,1-17.122,0Zm-7.873,12.8V33.845A2.583,2.583,0,0,1,16.3,31.267h6.818A9.577,9.577,0,0,0,24.5,32.38v1.162c-3.6.424-7.736,1.2-10.779,3.167Zm6.138,16.033H15.756V49.117h4.109Zm.614-5.263H14.683V45.442h5.794Zm17.539-3.536a1.441,1.441,0,0,0-.843,1.3v2.431a1.453,1.453,0,0,0,.843,1.309v3.757H21.5v-3.9a1.438,1.438,0,0,0,.614-1.17V45.246a1.438,1.438,0,0,0-.614-1.17V41.3a.818.818,0,0,0-1.637,0v2.5H15.756V37.43a20.409,20.409,0,0,1,4.109-1.449v2.586a.818.818,0,0,0,1.637,0V35.719l7.57,11.654a.822.822,0,0,0,.679.376h.008a.83.83,0,0,0,.679-.352l3.642-5.3a.818.818,0,0,0-1.35-.925l-2.946,4.289-6.556-10.1c.753-.115,1.465-.2,2.161-.254a.826.826,0,0,0,.753-.818V33.272a10.136,10.136,0,0,0,7.98.033v1.056a.818.818,0,0,0,.737.818c.36.031,1.446.185,1.825.246l-2.062,3a.818.818,0,1,0,1.35.925l2.046-2.971v7.57Zm5.745,8.8H39.654V49.117h4.109Zm.843-5.263H38.811V45.442h5.794Zm2.619,3.274A1.986,1.986,0,0,1,45.4,52.726v-3.74a1.439,1.439,0,0,0,.843-1.309V45.246a1.427,1.427,0,0,0-.843-1.3V38.428a3.88,3.88,0,0,1,1.825,3.053Z" fill="#406834"/>
      <path id="Trazado_622355" data-name="Trazado 622355" d="M29.043,26.555a1.31,1.31,0,1,0,1.31,1.31A1.31,1.31,0,0,0,29.043,26.555Z" transform="translate(-3.099 -4.458)" fill="#406834"/>
      <path id="Trazado_622356" data-name="Trazado 622356" d="M39.348,26.555a1.31,1.31,0,1,0,1.31,1.31A1.31,1.31,0,0,0,39.348,26.555Z" transform="translate(-4.97 -4.458)" fill="#406834"/>
      <path id="Trazado_622357" data-name="Trazado 622357" d="M34.305,31.2a.818.818,0,0,0,.818-.818V29.1a.818.818,0,0,0-1.637,0v1.284A.818.818,0,0,0,34.305,31.2Z" transform="translate(-4.144 -4.772)" fill="#406834"/>
      <path id="Trazado_622358" data-name="Trazado 622358" d="M30.93,33.914a.817.817,0,0,0,.157,1.146,4.161,4.161,0,0,0,5.447,0,.818.818,0,0,0-.989-1.3,2.545,2.545,0,0,1-3.468,0,.816.816,0,0,0-1.146.157Z" transform="translate(-3.649 -5.736)" fill="#406834"/>
      <path id="Trazado_622359" data-name="Trazado 622359" d="M30.33,25.2a.818.818,0,0,0,0-1.637H27.3a.818.818,0,1,0,0,1.637Z" transform="translate(-2.873 -3.915)" fill="#406834"/>
      <path id="Trazado_622360" data-name="Trazado 622360" d="M37.609,25.2h3.026a.818.818,0,0,0,0-1.637H37.609a.818.818,0,1,0,0,1.637Z" transform="translate(-4.744 -3.915)" fill="#406834"/>
    </g>
  </g>
</svg>
