<svg xmlns="http://www.w3.org/2000/svg" width="165" height="165" viewBox="0 0 165 165">
  <g id="_13" data-name="13" transform="translate(-367 -3292.502)">
    <circle id="Elipse_5407" data-name="Elipse 5407" cx="82.5" cy="82.5" r="82.5" transform="translate(367 3292.502)" fill="#ccd3ca"/>
    <g id="clima-extremo" transform="translate(386.148 3303.632)">
      <g id="Grupo_946244" data-name="Grupo 946244" transform="translate(0 11)">
        <g id="Grupo_946238" data-name="Grupo 946238" transform="translate(5.453 0)">
          <path id="Trazado_690018" data-name="Trazado 690018" d="M82.728,11a60.738,60.738,0,0,0-52.089,91.96l.284.248h103.61l.284-.248A60.738,60.738,0,0,0,82.728,11Z" transform="translate(-22 -11)" fill="#596c76"/>
        </g>
        <path id="Trazado_690019" data-name="Trazado 690019" d="M53.8,261.372l.406-.42h-.853A6.063,6.063,0,0,1,47.3,254.9a6,6,0,0,1,1.891-4.394l.451-.428H46.951a6.055,6.055,0,0,1-5.1-2.795l-6.889,12.116a.5.5,0,0,0,.431.741H46.306a.5.5,0,0,1,.433.738L35.8,280.425a.5.5,0,0,0,.788.588l15.533-15.952a6.021,6.021,0,0,1,1.68-3.69Z" transform="translate(-26.248 -188.712)" fill="#fee903"/>
        <g id="Grupo_946239" data-name="Grupo 946239" transform="translate(8.65 58.567)">
          <path id="Trazado_690020" data-name="Trazado 690020" d="M39.177,259.4l5.543-9.749a6.089,6.089,0,0,1-2.868-2.367L34.963,259.4a.5.5,0,0,0,.431.741h4.214A.5.5,0,0,1,39.177,259.4Z" transform="translate(-34.898 -247.281)" fill="#f4d902"/>
          <path id="Trazado_690021" data-name="Trazado 690021" d="M52.844,299.148H48.83a.5.5,0,0,1,.433.738L38.321,319.438a.5.5,0,0,0,.788.588l7.282-7.478,7.086-12.662a.486.486,0,0,0,.034-.4,6.013,6.013,0,0,1-.665-.335Z" transform="translate(-37.421 -286.292)" fill="#f4d902"/>
        </g>
        <g id="Grupo_946242" data-name="Grupo 946242" transform="translate(0 5.499)">
          <path id="Trazado_690022" data-name="Trazado 690022" d="M16.56,44.331c.163-.013.327-.022.494-.022H82.526c.166,0,.331.009.494.022a6.3,6.3,0,0,0-4.037-11.145H20.6A6.3,6.3,0,0,0,16.56,44.331Z" transform="translate(-10.75 -33.186)" fill="#a8d3d8"/>
          <g id="Grupo_946240" data-name="Grupo 946240" transform="translate(3.543)">
            <path id="Trazado_690023" data-name="Trazado 690023" d="M22.648,39.49a6.3,6.3,0,0,1,6.3-6.3H20.6A6.3,6.3,0,0,0,16.56,44.331c.163-.013.327-.022.494-.022H24.89A6.29,6.29,0,0,1,22.648,39.49Z" transform="translate(-14.293 -33.186)" fill="#8ebac5"/>
            <path id="Trazado_690024" data-name="Trazado 690024" d="M289.568,78.06c.166,0,.331.009.494.022l.025-.022Z" transform="translate(-221.335 -66.937)" fill="#8ebac5"/>
          </g>
          <g id="Grupo_946241" data-name="Grupo 946241" transform="translate(14.4 44.988)">
            <path id="Trazado_690025" data-name="Trazado 690025" d="M139.844,354.826l4.526-9.285H131.461l4.526,9.285Z" transform="translate(-113.276 -313.105)" fill="#8ebac5"/>
            <path id="Trazado_690026" data-name="Trazado 690026" d="M135.561,345.541h-4.1l4.526,9.285h3.857l.121-.249Z" transform="translate(-113.276 -313.105)" fill="#7ca1b1"/>
            <path id="Trazado_690027" data-name="Trazado 690027" d="M128.134,302.44H105.3a6.3,6.3,0,0,0,4.279,10.931h14.272a6.3,6.3,0,0,0,4.279-10.931Z" transform="translate(-92.079 -280.687)" fill="#7ca1b1"/>
            <path id="Trazado_690028" data-name="Trazado 690028" d="M111.637,307.068a6.286,6.286,0,0,1,2.025-4.628H105.3a6.3,6.3,0,0,0,4.279,10.931h8.358A6.3,6.3,0,0,1,111.637,307.068Z" transform="translate(-92.079 -280.687)" fill="#678d98"/>
            <path id="Trazado_690029" data-name="Trazado 690029" d="M118.149,258.555H86.159a6.3,6.3,0,0,0,4.059,11.126H114.09a6.3,6.3,0,0,0,4.059-11.126Z" transform="translate(-77.514 -247.68)" fill="#678d98"/>
            <path id="Trazado_690030" data-name="Trazado 690030" d="M92.32,263.377a6.289,6.289,0,0,1,2.245-4.822H86.159a6.3,6.3,0,0,0,4.059,11.126h8.406A6.3,6.3,0,0,1,92.32,263.377Z" transform="translate(-77.514 -247.68)" fill="#537983"/>
            <path id="Trazado_690031" data-name="Trazado 690031" d="M105.132,214.682h-44.8A6.3,6.3,0,0,0,64.4,225.8h36.672a6.3,6.3,0,0,0,4.062-11.123Z" transform="translate(-58.095 -214.682)" fill="#7ca1b1"/>
            <path id="Trazado_690032" data-name="Trazado 690032" d="M66.5,219.5a6.289,6.289,0,0,1,2.242-4.819h-8.4A6.3,6.3,0,0,0,64.4,225.8h8.4A6.3,6.3,0,0,1,66.5,219.5Z" transform="translate(-58.095 -214.682)" fill="#678d98"/>
          </g>
          <path id="Trazado_690033" data-name="Trazado 690033" d="M95.476,171.188H40.862a6.3,6.3,0,0,0,4.171,11.028H91.3a6.3,6.3,0,0,0,4.171-11.029Z" transform="translate(-29.129 -136.981)" fill="#678d98"/>
          <path id="Trazado_690034" data-name="Trazado 690034" d="M47.09,175.914a6.286,6.286,0,0,1,2.133-4.725H40.862a6.3,6.3,0,0,0,4.171,11.029h8.36A6.3,6.3,0,0,1,47.09,175.914Z" transform="translate(-29.129 -136.982)" fill="#537983"/>
          <path id="Trazado_690035" data-name="Trazado 690035" d="M85.484,126.923H21.725a6.3,6.3,0,0,0,3.944,11.22H81.541a6.3,6.3,0,0,0,3.943-11.22Z" transform="translate(-14.565 -103.688)" fill="#7ca1b1"/>
          <path id="Trazado_690036" data-name="Trazado 690036" d="M27.7,131.839a6.291,6.291,0,0,1,2.36-4.916H21.725a6.3,6.3,0,0,0,3.944,11.22h8.337A6.3,6.3,0,0,1,27.7,131.839Z" transform="translate(-14.565 -103.688)" fill="#678d98"/>
          <path id="Trazado_690037" data-name="Trazado 690037" d="M71.775,89.667H6.3a6.3,6.3,0,1,1,0-12.607H71.776a6.3,6.3,0,1,1,0,12.607Z" transform="translate(0 -66.185)" fill="#8ebac5"/>
          <path id="Trazado_690038" data-name="Trazado 690038" d="M8.18,83.364a6.3,6.3,0,0,1,6.3-6.3H6.3a6.3,6.3,0,1,0,0,12.607h8.18A6.3,6.3,0,0,1,8.18,83.364Z" transform="translate(0 -66.185)" fill="#7ca1b1"/>
        </g>
        <g id="Grupo_946243" data-name="Grupo 946243" transform="translate(14.092 91.96)">
          <path id="Trazado_690039" data-name="Trazado 690039" d="M108.943,411.5A60.693,60.693,0,0,0,161.032,382H56.854A60.693,60.693,0,0,0,108.943,411.5Z" transform="translate(-56.854 -382)" fill="#0bb494"/>
        </g>
        <path id="Trazado_690040" data-name="Trazado 690040" d="M253.117,414.718H195.859a1.859,1.859,0,1,1,0-3.718h57.258a1.859,1.859,0,1,1,0,3.718Z" transform="translate(-145.913 -311.852)" fill="#00a887"/>
      </g>
      <g id="Grupo_946250" data-name="Grupo 946250" transform="translate(53.044 61.092)">
        <g id="Grupo_946246" data-name="Grupo 946246" transform="translate(28.133)">
          <path id="Trazado_690041" data-name="Trazado 690041" d="M367.16,232.44a6.489,6.489,0,0,0-5.959-6.466,6.489,6.489,0,0,0-8.131-9.422,6.49,6.49,0,0,0-11.479,0,6.488,6.488,0,0,0-8.131,9.422,6.481,6.481,0,0,0-4.971,9.9h6.849a2.246,2.246,0,0,1,1.583.659l10.271,10.344a.248.248,0,0,1-.176.423h-1.227v2.023a6.5,6.5,0,0,0,6.766-2.456,6.489,6.489,0,0,0,9.225-8.032A6.49,6.49,0,0,0,367.16,232.44Z" transform="translate(-327.501 -213.091)" fill="#0bb494"/>
          <g id="Grupo_946245" data-name="Grupo 946245" transform="translate(0 0)">
            <path id="Trazado_690042" data-name="Trazado 690042" d="M347.33,213.091a6.488,6.488,0,0,0-5.739,3.461,6.488,6.488,0,0,0-8.131,9.422,6.481,6.481,0,0,0-4.971,9.9h3.426a6.445,6.445,0,0,1,4.428-7.132,1.242,1.242,0,0,0,.8-1.6,6.489,6.489,0,0,1,8.781-8.107,6.46,6.46,0,0,1,6.538-3.409A6.476,6.476,0,0,0,347.33,213.091Z" transform="translate(-327.501 -213.091)" fill="#00a887"/>
          </g>
          <path id="Trazado_690043" data-name="Trazado 690043" d="M393,264.807a2.063,2.063,0,0,0-2.917,0l-2.138,2.138v-4.423a2.063,2.063,0,0,0-4.125,0v8.1l-1.568-1.6a2.063,2.063,0,0,0-2.917,0,2.1,2.1,0,0,0,0,2.951l4.485,4.485v4.13l1.9,1.916a.248.248,0,0,1-.176.423h-1.227v12.618h3.625V272.778L393,267.724A2.062,2.062,0,0,0,393,264.807Z" transform="translate(-366.036 -248.718)" fill="#bb5d4c"/>
          <path id="Trazado_690044" data-name="Trazado 690044" d="M383.824,276.457v4.13l1.9,1.916a.248.248,0,0,1-.176.423h-1.227v12.618h1.549V262.521a2.06,2.06,0,0,1,1.038-1.788,2.06,2.06,0,0,0-3.087,1.788v8.1l-1.568-1.6a2.063,2.063,0,0,0-2.917,0,2.1,2.1,0,0,0,0,2.951Z" transform="translate(-366.036 -248.718)" fill="#a44f3e"/>
          <path id="Trazado_690045" data-name="Trazado 690045" d="M405.672,401H401.28v3.966h5.88a.992.992,0,0,0,.991-.991v-.5A2.479,2.479,0,0,0,405.672,401Z" transform="translate(-382.992 -354.423)" fill="#f99675"/>
        </g>
        <g id="Grupo_946247" data-name="Grupo 946247" transform="translate(0 22.534)">
          <path id="Trazado_690046" data-name="Trazado 690046" d="M310.855,351.094V367.43h22.662V351.342l-.284-.248Z" transform="translate(-286.848 -339.421)" fill="#fff3de"/>
          <path id="Trazado_690047" data-name="Trazado 690047" d="M249.971,304H226.983a1.239,1.239,0,0,0-.827.316l-11.99,10.74a.5.5,0,0,0,.331.865h47.151a.5.5,0,0,0,.352-.845l-10.271-10.344A2.478,2.478,0,0,0,249.971,304Z" transform="translate(-214 -304)" fill="#fea613"/>
          <path id="Trazado_690048" data-name="Trazado 690048" d="M233.932,314.167a.743.743,0,0,0-.978,0l-10.6,9.263v16.088h7.095l.248-.248V326.876a.248.248,0,0,1,.248-.248h7.005a.248.248,0,0,1,.248.248v12.4l.248.243h7.095V323.43Z" transform="translate(-220.28 -311.508)" fill="#fff"/>
          <path id="Trazado_690049" data-name="Trazado 690049" d="M225.919,324.115l9.7-8.474-1.687-1.474a.743.743,0,0,0-.978,0l-10.6,9.263v16.088h3.569v-15.4Z" transform="translate(-220.28 -311.509)" fill="#fff3de"/>
          <path id="Trazado_690050" data-name="Trazado 690050" d="M258.968,377.137V364.5a.5.5,0,0,0-.5-.5h-7.006a.5.5,0,0,0-.5.5v12.641Z" transform="translate(-241.807 -349.128)" fill="#f68157"/>
          <path id="Trazado_690051" data-name="Trazado 690051" d="M254.448,364h-2.982a.5.5,0,0,0-.5.5v12.641h2.982V364.5A.5.5,0,0,1,254.448,364Z" transform="translate(-241.807 -349.128)" fill="#f26b38"/>
        </g>
        <g id="Grupo_946249" data-name="Grupo 946249" transform="translate(29.318 37.406)">
          <g id="Grupo_946248" data-name="Grupo 946248">
            <path id="Trazado_690052" data-name="Trazado 690052" d="M332.28,364.5v8.947a.5.5,0,0,0,.5.5h5.205a.5.5,0,0,0,.5-.5V364.5a.5.5,0,0,0-.5-.5h-5.205A.5.5,0,0,0,332.28,364.5Z" transform="translate(-332.28 -364)" fill="#c8effe"/>
            <path id="Trazado_690053" data-name="Trazado 690053" d="M334.441,373.442V364.5a.5.5,0,0,1,.5-.5h-2.161a.5.5,0,0,0-.5.5v8.947a.5.5,0,0,0,.5.5h2.161A.5.5,0,0,1,334.441,373.442Z" transform="translate(-332.28 -364)" fill="#99e6fc"/>
            <path id="Trazado_690054" data-name="Trazado 690054" d="M365.28,364.5v8.947a.5.5,0,0,0,.5.5h5.205a.5.5,0,0,0,.5-.5V364.5a.5.5,0,0,0-.5-.5h-5.205A.5.5,0,0,0,365.28,364.5Z" transform="translate(-357.1 -364)" fill="#c8effe"/>
            <path id="Trazado_690055" data-name="Trazado 690055" d="M367.441,373.442V364.5a.5.5,0,0,1,.5-.5h-2.161a.5.5,0,0,0-.5.5v8.947a.5.5,0,0,0,.5.5h2.161A.5.5,0,0,1,367.441,373.442Z" transform="translate(-357.1 -364)" fill="#99e6fc"/>
          </g>
        </g>
      </g>
      <path id="Trazado_690056" data-name="Trazado 690056" d="M127.31,94.653l1.949-1.949a1.859,1.859,0,0,0-2.629-2.629l-1.949,1.949a1.859,1.859,0,1,0,2.629,2.629Z" transform="translate(-93.367 -59.065)" fill="#fff"/>
      <path id="Trazado_690057" data-name="Trazado 690057" d="M77.008,144.956l1.949-1.949a1.859,1.859,0,0,0-2.629-2.629l-1.949,1.949a1.859,1.859,0,1,0,2.629,2.629Z" transform="translate(-55.533 -96.899)" fill="#fff"/>
      <g id="Grupo_946251" data-name="Grupo 946251" transform="translate(38.702 51.983)">
        <path id="Trazado_690058" data-name="Trazado 690058" d="M331.919,179.515a1.859,1.859,0,0,0-2.629-2.629l-1.949,1.949a1.859,1.859,0,1,0,2.629,2.629Z" transform="translate(-284.495 -176.341)" fill="#fff"/>
        <path id="Trazado_690059" data-name="Trazado 690059" d="M293.6,215.3l-1.052,1.052a1.859,1.859,0,1,0,2.629,2.629l1.052-1.052A1.859,1.859,0,0,0,293.6,215.3Z" transform="translate(-258.324 -205.235)" fill="#fff"/>
        <path id="Trazado_690060" data-name="Trazado 690060" d="M200.13,271.045l-1.949,1.949a1.859,1.859,0,1,0,2.629,2.629l1.949-1.949a1.859,1.859,0,0,0-2.629-2.629Z" transform="translate(-187.35 -247.161)" fill="#fff"/>
        <path id="Trazado_690061" data-name="Trazado 690061" d="M158.63,312.545l-1.949,1.949a1.859,1.859,0,1,0,2.629,2.629l1.949-1.949a1.859,1.859,0,1,0-2.629-2.629Z" transform="translate(-156.136 -278.374)" fill="#fff"/>
        <path id="Trazado_690062" data-name="Trazado 690062" d="M443.123,178.681a1.859,1.859,0,0,0-2.629,0l-1.949,1.949a1.859,1.859,0,1,0,2.629,2.629l1.949-1.949A1.859,1.859,0,0,0,443.123,178.681Z" transform="translate(-368.134 -177.691)" fill="#fff"/>
        <path id="Trazado_690063" data-name="Trazado 690063" d="M391.13,228.045l-1.949,1.949a1.859,1.859,0,1,0,2.629,2.629l1.949-1.949a1.859,1.859,0,0,0-2.629-2.629Z" transform="translate(-331.006 -214.819)" fill="#fff"/>
      </g>
      <g id="Grupo_946252" data-name="Grupo 946252" transform="translate(28.257 106.926)">
        <path id="Trazado_690064" data-name="Trazado 690064" d="M264.587,462.718h-6.728a1.859,1.859,0,0,1,0-3.718h6.728a1.859,1.859,0,1,1,0,3.718Z" transform="translate(-220.802 -443.88)" fill="#00a887"/>
        <path id="Trazado_690065" data-name="Trazado 690065" d="M341.436,443.859A1.859,1.859,0,0,0,339.577,442h-3.718a1.859,1.859,0,1,0,0,3.718h3.718A1.859,1.859,0,0,0,341.436,443.859Z" transform="translate(-279.469 -431.094)" fill="#00a887"/>
        <path id="Trazado_690066" data-name="Trazado 690066" d="M121.436,399.859A1.859,1.859,0,0,0,119.577,398h-3.718a1.859,1.859,0,0,0,0,3.718h3.718A1.859,1.859,0,0,0,121.436,399.859Z" transform="translate(-114 -398)" fill="#00a887"/>
        <path id="Trazado_690067" data-name="Trazado 690067" d="M173.436,441.859A1.859,1.859,0,0,0,171.577,440h-3.718a1.859,1.859,0,0,0,0,3.718h3.718A1.859,1.859,0,0,0,173.436,441.859Z" transform="translate(-153.111 -429.589)" fill="#00a887"/>
      </g>
      <g id="Grupo_946253" data-name="Grupo 946253" transform="translate(32.659 21.543)">
        <path id="Trazado_690068" data-name="Trazado 690068" d="M133.353,185.545,132.3,186.6a1.859,1.859,0,1,0,2.629,2.629l1.052-1.052a1.859,1.859,0,1,0-2.629-2.629Z" transform="translate(-131.757 -152.414)" fill="#fff"/>
        <path id="Trazado_690069" data-name="Trazado 690069" d="M280,89.478,277.978,91.5a1.859,1.859,0,1,0,2.629,2.629l2.025-2.025A1.859,1.859,0,0,0,280,89.478Z" transform="translate(-241.324 -80.159)" fill="#fff"/>
        <path id="Trazado_690070" data-name="Trazado 690070" d="M161.4,156.545l-2.025,2.025A1.859,1.859,0,1,0,162,161.2l2.025-2.025a1.859,1.859,0,0,0-2.629-2.629Z" transform="translate(-152.12 -130.602)" fill="#fff"/>
        <path id="Trazado_690071" data-name="Trazado 690071" d="M315.4,54.08,313.376,56.1A1.859,1.859,0,1,0,316,58.734l2.025-2.025A1.859,1.859,0,1,0,315.4,54.08Z" transform="translate(-267.948 -53.535)" fill="#fff"/>
      </g>
      <path id="Trazado_690072" data-name="Trazado 690072" d="M379.235,25.97H369.085a.5.5,0,0,1-.444-.717l6.7-13.442a.5.5,0,0,0-.444-.717H367.72a.5.5,0,0,0-.44.267L356.964,31.2a.5.5,0,0,0,.44.725h8.5a.5.5,0,0,1,.432.738l-8.379,14.974a.5.5,0,0,0,.788.588L379.59,26.811a.5.5,0,0,0-.355-.842Z" transform="translate(-268.44 -0.071)" fill="#fee903"/>
      <g id="Grupo_946254" data-name="Grupo 946254" transform="translate(88.466 11.023)">
        <path id="Trazado_690073" data-name="Trazado 690073" d="M360.951,31.2l10.316-19.835a.5.5,0,0,1,.44-.267h-3.989a.5.5,0,0,0-.44.267L356.962,31.2a.5.5,0,0,0,.44.725h3.989A.5.5,0,0,1,360.951,31.2Z" transform="translate(-356.905 -11.094)" fill="#f4d902"/>
        <path id="Trazado_690074" data-name="Trazado 690074" d="M373.3,95.853a.5.5,0,0,0-.433-.738h-3.989a.5.5,0,0,1,.433.738l-8.38,14.974a.5.5,0,0,0,.788.588l6.754-6.936Z" transform="translate(-359.88 -74.289)" fill="#f4d902"/>
      </g>
    </g>
  </g>
</svg>
