<svg xmlns="http://www.w3.org/2000/svg" width="165" height="165" viewBox="0 0 165 165">
  <g id="_14" data-name="14" transform="translate(-714 -3292.502)">
    <circle id="Elipse_5412" data-name="Elipse 5412" cx="82.5" cy="82.5" r="82.5" transform="translate(714 3292.502)" fill="#ccd3ca"/>
    <g id="volcanico" transform="translate(722 3308.502)">
      <path id="Trazado_690075" data-name="Trazado 690075" d="M74.529,22a63.539,63.539,0,0,0-54.491,96.2l.3.259H80.018l.332-.259a11.259,11.259,0,0,1,10.774-8.3H102.3l.067-.158a11.149,11.149,0,0,1,10.279-6.843H129.5a11.09,11.09,0,0,1,5.4,1.408l.362-.093A63.567,63.567,0,0,0,74.529,22Z" transform="translate(0 -16.295)" fill="#a8d3d8"/>
      <g id="Grupo_946255" data-name="Grupo 946255" transform="translate(46.333 43.563)">
        <path id="Trazado_690076" data-name="Trazado 690076" d="M175.2,168a10.869,10.869,0,0,0-8.557,4.158,10.888,10.888,0,0,0-19.38,5.528,10.642,10.642,0,0,1,11.916,3.448l.2.259.2-.259a10.618,10.618,0,0,1,13-2.989l.083.375,4.431-7.675a1.04,1.04,0,0,1,.9-.519H179.8v-.764a4.873,4.873,0,0,1,.032-.528A10.847,10.847,0,0,0,175.2,168Z" transform="translate(-147.261 -168)" fill="#ffe5de"/>
      </g>
      <path id="Trazado_690077" data-name="Trazado 690077" d="M135.5,210.3a1.041,1.041,0,0,1,.9.519l6.062,10.5L152.9,203.221a10.877,10.877,0,0,0-13.561,2.937,10.888,10.888,0,0,0-19.134,4.139Z" transform="translate(-80.89 -149.621)" fill="#fff3de"/>
      <g id="Grupo_946261" data-name="Grupo 946261" transform="translate(16.368)">
        <path id="Trazado_690078" data-name="Trazado 690078" d="M71.064,233.648A1.3,1.3,0,0,0,69.941,233H52.314a1.3,1.3,0,0,0-1.123.648L31.7,267.4a63.357,63.357,0,0,0,3.669,7.085l.3.259H94.792Z" transform="translate(-31.703 -172.583)" fill="#537983"/>
        <path id="Trazado_690079" data-name="Trazado 690079" d="M56.414,240.718v-6.162A1.556,1.556,0,0,0,54.858,233H52.314a1.3,1.3,0,0,0-1.123.648L31.7,267.4a63.354,63.354,0,0,0,3.669,7.085l.3.259h2.593l18.826-32.607A1.84,1.84,0,0,1,56.414,240.718Z" transform="translate(-31.703 -172.583)" fill="#596c76"/>
        <path id="Trazado_690080" data-name="Trazado 690080" d="M294.131,109.607l-.2-.259-.2.259a10.625,10.625,0,0,1-16.707,0l-.2-.259-.2.259a10.793,10.793,0,0,1-1.352,1.424v12.679a4.472,4.472,0,0,1,5.48-1.971l.218.082.1-.208a4.532,4.532,0,0,1,8.271.379l.1.256.25-.116a4.516,4.516,0,0,1,5.8,1.786V111.03a10.77,10.77,0,0,1-1.352-1.424Z" transform="translate(-212.104 -80.994)" fill="#fff"/>
        <path id="Trazado_690081" data-name="Trazado 690081" d="M280.377,112.421a10.641,10.641,0,0,1-3.36-2.814l-.2-.259-.2.259a10.793,10.793,0,0,1-1.352,1.424v12.679a4.46,4.46,0,0,1,5.119-2.089Z" transform="translate(-212.104 -80.994)" fill="#f2fbff"/>
        <g id="Grupo_946256" data-name="Grupo 946256" transform="translate(27.307 45.631)">
          <path id="Trazado_690082" data-name="Trazado 690082" d="M173.686,232.251a11.259,11.259,0,0,1,10.774-8.3h11.176l.067-.158a11.149,11.149,0,0,1,10.279-6.843h13.967l-23.283-40.328a1.3,1.3,0,0,0-1.123-.648H170.4a1.3,1.3,0,0,0-1.123.648L137.011,232.51h36.675Z" transform="translate(-137.011 -175.976)" fill="#596c76"/>
        </g>
        <path id="Trazado_690083" data-name="Trazado 690083" d="M326.651,333H309.8a11.45,11.45,0,0,0-10.518,7h-11a11.452,11.452,0,0,0-11.106,8.816h48.705l.3-.259a63.227,63.227,0,0,0,6.24-13.984,11.312,11.312,0,0,0-5.76-1.574Z" transform="translate(-213.519 -246.653)" fill="#678d98"/>
        <g id="Grupo_946257" data-name="Grupo 946257" transform="translate(63.649 86.347)">
          <path id="Trazado_690084" data-name="Trazado 690084" d="M378.605,333h-5.65a11.45,11.45,0,0,0-10.518,7h4.823a1.31,1.31,0,0,0,1.164-.727A11.443,11.443,0,0,1,378.605,333Z" transform="translate(-340.327 -333)" fill="#537983"/>
          <path id="Trazado_690085" data-name="Trazado 690085" d="M293.924,360h-5.65a11.452,11.452,0,0,0-11.106,8.816h5.65A11.452,11.452,0,0,1,293.924,360Z" transform="translate(-277.168 -352.999)" fill="#537983"/>
        </g>
        <path id="Trazado_690086" data-name="Trazado 690086" d="M145.754,232.51l26.2-45.374v-11.16H170.4a1.3,1.3,0,0,0-1.123.648L137.011,232.51Z" transform="translate(-109.705 -130.345)" fill="#465a61"/>
        <g id="Grupo_946259" data-name="Grupo 946259" transform="translate(45.262)">
          <path id="Trazado_690087" data-name="Trazado 690087" d="M241.591,11.409a10.577,10.577,0,0,1,8.353,4.059l.2.259.2-.259a10.625,10.625,0,0,1,16.707,0l.2.259.2-.259a10.614,10.614,0,0,1,10.657-3.805c.018-.256.03-.513.03-.773a10.888,10.888,0,0,0-19.448-6.732,10.888,10.888,0,0,0-19.448,6.732c0,.26.012.517.03.773a10.62,10.62,0,0,1,2.3-.254Z" transform="translate(-230.701)" fill="#ffe5de"/>
          <path id="Trazado_690088" data-name="Trazado 690088" d="M241.591,11.409a10.618,10.618,0,0,1,4.167.847A10.9,10.9,0,0,1,253.353.482a10.891,10.891,0,0,0-14.095,10.409c0,.26.012.517.03.773A10.62,10.62,0,0,1,241.591,11.409Z" transform="translate(-230.701 0)" fill="#feccbc"/>
          <path id="Trazado_690089" data-name="Trazado 690089" d="M251.376,43a10.869,10.869,0,0,0-8.557,4.158,10.884,10.884,0,0,0-17.114,0,10.891,10.891,0,1,0,0,13.465,10.884,10.884,0,0,0,17.114,0A10.89,10.89,0,1,0,251.376,43Z" transform="translate(-206.258 -31.85)" fill="#fff3de"/>
          <g id="Grupo_946258" data-name="Grupo 946258" transform="translate(0 11.15)">
            <path id="Trazado_690090" data-name="Trazado 690090" d="M212.674,53.891a10.9,10.9,0,0,1,7.679-10.409,10.891,10.891,0,1,0,0,20.817A10.9,10.9,0,0,1,212.674,53.891Z" transform="translate(-206.258 -43)" fill="#ffe5de"/>
          </g>
        </g>
        <path id="Trazado_690091" data-name="Trazado 690091" d="M293.8,153.39a4.789,4.789,0,0,0-6.818-4.346,4.791,4.791,0,0,0-8.744-.4,4.733,4.733,0,0,0-2.54-.231,4.9,4.9,0,0,0-3.939,4.856v17.464a2.21,2.21,0,0,0,2.017,2.23,2.161,2.161,0,0,0,2.3-2.156V160.35a2.21,2.21,0,0,1,2.017-2.23,2.161,2.161,0,0,1,2.3,2.156v4.752a2.21,2.21,0,0,0,2.017,2.23,2.161,2.161,0,0,0,2.3-2.156v-8.736a2.593,2.593,0,0,1,2.593-2.593h6.463C293.789,153.646,293.8,153.519,293.8,153.39Z" transform="translate(-209.511 -108.142)" fill="#fe646f"/>
        <g id="Grupo_946260" data-name="Grupo 946260" transform="translate(62.247 37.857)">
          <path id="Trazado_690092" data-name="Trazado 690092" d="M273.9,172.027V154.563a4.9,4.9,0,0,1,3.939-4.856,4.706,4.706,0,0,1,2,.063.761.761,0,0,0,.819-.315,4.777,4.777,0,0,1,5.328-1.971,4.786,4.786,0,0,0-7.745,1.157,4.736,4.736,0,0,0-2.54-.231,4.9,4.9,0,0,0-3.939,4.856v16.875a3.183,3.183,0,0,0,.931,2.283,1.622,1.622,0,0,0,1.406.531A2.275,2.275,0,0,1,273.9,172.027Z" transform="translate(-271.758 -145.998)" fill="#fd4755"/>
        </g>
        <path id="Trazado_690093" data-name="Trazado 690093" d="M273.919,265.705a2.161,2.161,0,0,0,2.161-2.161v-1.383a2.161,2.161,0,1,0-4.322,0v1.383A2.161,2.161,0,0,0,273.919,265.705Z" transform="translate(-209.511 -192.582)" fill="#fe646f"/>
        <path id="Trazado_690094" data-name="Trazado 690094" d="M273.9,263.545v-1.383a2.158,2.158,0,0,1,1.092-1.877,2.159,2.159,0,0,0-3.229,1.877v1.383a2.159,2.159,0,0,0,3.229,1.877A2.159,2.159,0,0,1,273.9,263.545Z" transform="translate(-209.511 -192.582)" fill="#fd4755"/>
        <path id="Trazado_690095" data-name="Trazado 690095" d="M133.495,284.705a2.161,2.161,0,0,0,2.161-2.161v-1.383a2.161,2.161,0,1,0-4.322,0v1.383A2.16,2.16,0,0,0,133.495,284.705Z" transform="translate(-105.5 -206.656)" fill="#fe9901"/>
        <path id="Trazado_690096" data-name="Trazado 690096" d="M133.581,282.545v-1.383a2.157,2.157,0,0,1,1.037-1.843,2.158,2.158,0,0,0-3.284,1.843v1.383a2.157,2.157,0,0,0,3.284,1.843A2.157,2.157,0,0,1,133.581,282.545Z" transform="translate(-105.5 -206.656)" fill="#fb8801"/>
        <path id="Trazado_690097" data-name="Trazado 690097" d="M338.752,203.705a2.161,2.161,0,0,0,2.161-2.161v-1.383a2.161,2.161,0,0,0-4.322,0v1.383A2.161,2.161,0,0,0,338.752,203.705Z" transform="translate(-257.533 -146.659)" fill="#fe646f"/>
        <path id="Trazado_690098" data-name="Trazado 690098" d="M338.771,201.545v-1.383a2.158,2.158,0,0,1,1.071-1.863,2.158,2.158,0,0,0-3.251,1.863v1.383a2.158,2.158,0,0,0,3.251,1.863A2.158,2.158,0,0,1,338.771,201.545Z" transform="translate(-257.533 -146.659)" fill="#fd4755"/>
        <path id="Trazado_690099" data-name="Trazado 690099" d="M324.419,243.705a2.161,2.161,0,0,0,2.161-2.161v-1.383a2.161,2.161,0,0,0-4.322,0v1.383A2.161,2.161,0,0,0,324.419,243.705Z" transform="translate(-246.917 -176.287)" fill="#fe646f"/>
        <path id="Trazado_690100" data-name="Trazado 690100" d="M324.352,241.544v-1.383a2.16,2.16,0,0,1,1.114-1.89,2.16,2.16,0,0,0-3.208,1.89v1.383a2.16,2.16,0,0,0,3.208,1.89A2.159,2.159,0,0,1,324.352,241.544Z" transform="translate(-246.917 -176.286)" fill="#fd4755"/>
        <path id="Trazado_690101" data-name="Trazado 690101" d="M392.788,148h-3.743a.887.887,0,0,0-.768.444l-1.872,3.242a.887.887,0,0,0,0,.887l1.872,3.242a.887.887,0,0,0,.768.444h3.743a.887.887,0,0,0,.768-.444l1.872-3.242a.887.887,0,0,0,0-.887l-1.872-3.242A.887.887,0,0,0,392.788,148Z" transform="translate(-294.342 -109.623)" fill="#fe646f"/>
        <path id="Trazado_690102" data-name="Trazado 690102" d="M391.054,155.814l-1.872-3.242a.887.887,0,0,1,0-.887l1.872-3.242a.887.887,0,0,1,.768-.444h-2.778a.887.887,0,0,0-.768.444l-1.872,3.242a.887.887,0,0,0,0,.887l1.872,3.242a.887.887,0,0,0,.768.444h2.778A.887.887,0,0,1,391.054,155.814Z" transform="translate(-294.341 -109.623)" fill="#fd4755"/>
        <path id="Trazado_690103" data-name="Trazado 690103" d="M336.1,44.033h-2.935a.7.7,0,0,0-.6.348l-1.467,2.541a.7.7,0,0,0,0,.7l1.467,2.541a.7.7,0,0,0,.6.348H336.1a.7.7,0,0,0,.6-.348l1.467-2.541a.7.7,0,0,0,0-.7L336.7,44.381A.7.7,0,0,0,336.1,44.033Z" transform="translate(-253.392 -32.615)" fill="#fe9901"/>
        <path id="Trazado_690104" data-name="Trazado 690104" d="M60.1,214.033H57.163a.7.7,0,0,0-.6.348l-1.467,2.541a.7.7,0,0,0,0,.7l1.467,2.541a.7.7,0,0,0,.6.348H60.1a.7.7,0,0,0,.6-.348l1.467-2.541a.7.7,0,0,0,0-.7L60.7,214.381A.7.7,0,0,0,60.1,214.033Z" transform="translate(-48.959 -158.534)" fill="#fe646f"/>
        <path id="Trazado_690105" data-name="Trazado 690105" d="M58.894,220.16l-1.467-2.541a.7.7,0,0,1,0-.7l1.467-2.541a.7.7,0,0,1,.6-.348H57.163a.7.7,0,0,0-.6.348l-1.467,2.541a.7.7,0,0,0,0,.7l1.467,2.541a.7.7,0,0,0,.6.348H59.5A.7.7,0,0,1,58.894,220.16Z" transform="translate(-48.959 -158.535)" fill="#fd4755"/>
      </g>
      <g id="Grupo_946262" data-name="Grupo 946262" transform="translate(20.038 101.905)">
        <path id="Trazado_690106" data-name="Trazado 690106" d="M66.257,399.223H58.727a2.982,2.982,0,1,1,0-5.964V393H45.854A63.784,63.784,0,0,0,56.16,405.965l1.181.259h8.915a3.5,3.5,0,1,0,0-7Z" transform="translate(-45.854 -393)" fill="#fb8801"/>
        <path id="Trazado_690107" data-name="Trazado 690107" d="M141.209,393v.259a2.982,2.982,0,1,1,0,5.964h-4.641a3.5,3.5,0,0,0,0,7H148.21a2.982,2.982,0,0,1,0,5.964H116.239l-.337.259a63.6,63.6,0,0,0,61.5,6.223v-.259H166.621a2.982,2.982,0,1,1,0-5.964h16.346a3.5,3.5,0,1,0,0-7h-7.529a2.982,2.982,0,1,1,0-5.964h26.488l.532-.259A63.684,63.684,0,0,0,206.721,393Z" transform="translate(-97.738 -393)" fill="#fb8801"/>
      </g>
      <path id="Trazado_690108" data-name="Trazado 690108" d="M132.71,217.445a4.655,4.655,0,0,0-6.3-3.563,4.656,4.656,0,0,0-8.336,3.563h.708A1.556,1.556,0,0,1,120.334,219v6.162a1.777,1.777,0,0,0,1.676,1.8,1.729,1.729,0,0,0,1.782-1.728v-2a1.777,1.777,0,0,1,1.676-1.8,1.729,1.729,0,0,1,1.782,1.728v4.825a1.777,1.777,0,0,0,1.676,1.8,1.729,1.729,0,0,0,1.782-1.728V219a1.556,1.556,0,0,1,1.556-1.556Z" transform="translate(-79.255 -157.028)" fill="#fe9901"/>
      <g id="Grupo_946263" data-name="Grupo 946263" transform="translate(38.745 54.972)">
        <path id="Trazado_690109" data-name="Trazado 690109" d="M122.478,225.163V219a1.556,1.556,0,0,0-1.556-1.556.771.771,0,0,1-.778-.752v-.026a4.666,4.666,0,0,1,3.6-4.541,4.647,4.647,0,0,0-5.677,5.319h.708A1.556,1.556,0,0,1,120.334,219v6.162a1.777,1.777,0,0,0,1.669,1.8,1.721,1.721,0,0,0,1.145-.382A1.839,1.839,0,0,1,122.478,225.163Z" transform="translate(-118 -212)" fill="#fb8801"/>
        <path id="Trazado_690110" data-name="Trazado 690110" d="M153.972,254.932v-4.825a1.729,1.729,0,0,0-1.782-1.728,1.658,1.658,0,0,0-1.006.382,1.725,1.725,0,0,1,.644,1.346v4.825a1.777,1.777,0,0,0,1.676,1.8,1.722,1.722,0,0,0,1.138-.382,1.839,1.839,0,0,1-.669-1.418Z" transform="translate(-142.579 -238.945)" fill="#fb8801"/>
      </g>
      <ellipse id="Elipse_5420" data-name="Elipse 5420" cx="3" cy="2.5" rx="3" ry="2.5" transform="translate(115 53)" fill="#fe646f"/>
      <path id="Trazado_690111" data-name="Trazado 690111" d="M416.074,205.723a2.723,2.723,0,0,1,1.685-2.517,2.723,2.723,0,1,0,0,5.034A2.723,2.723,0,0,1,416.074,205.723Z" transform="translate(-298.502 -150.362)" fill="#fd4755"/>
      <circle id="Elipse_5421" data-name="Elipse 5421" cx="3" cy="3" r="3" transform="translate(82 23)" fill="#fe9901"/>
      <circle id="Elipse_5422" data-name="Elipse 5422" cx="3" cy="3" r="3" transform="translate(33 47)" fill="#fe646f"/>
      <g id="Grupo_946264" data-name="Grupo 946264" transform="translate(29.67 47.711)">
        <path id="Trazado_690112" data-name="Trazado 690112" d="M98.074,186.723a2.723,2.723,0,0,1,1.685-2.517,2.723,2.723,0,1,0,0,5.034A2.723,2.723,0,0,1,98.074,186.723Z" transform="translate(-92.629 -184)" fill="#fd4755"/>
        <path id="Trazado_690113" data-name="Trazado 690113" d="M83,396.241a3.241,3.241,0,0,0,3.241,3.241h7.529a3.241,3.241,0,1,1,0,6.483h-10.1a63.853,63.853,0,0,0,7.861,6.483H123.84a3.241,3.241,0,1,0,0-6.483H112.2a3.241,3.241,0,1,1,0-6.483h4.641a3.241,3.241,0,1,0,0-6.483h-30.6A3.241,3.241,0,0,0,83,396.241Z" transform="translate(-83 -338.806)" fill="#fd4755"/>
        <path id="Trazado_690114" data-name="Trazado 690114" d="M338.078,417h-27.02a3.241,3.241,0,1,0,0,6.483h7.529a3.241,3.241,0,0,1,0,6.483H302.241a3.241,3.241,0,1,0,0,6.483h10.784A63.743,63.743,0,0,0,338.078,417Z" transform="translate(-242.991 -356.583)" fill="#fd4755"/>
        <path id="Trazado_690115" data-name="Trazado 690115" d="M261.337,410.241A3.241,3.241,0,0,0,258.1,407H248.35A3.312,3.312,0,0,0,245,410.181a3.241,3.241,0,0,0,3.24,3.3H258.1A3.241,3.241,0,0,0,261.337,410.241Z" transform="translate(-202.994 -349.176)" fill="#fd4755"/>
      </g>
    </g>
  </g>
</svg>
