<svg xmlns="http://www.w3.org/2000/svg" width="165" height="165" viewBox="0 0 165 165">
  <g id="_15" data-name="15" transform="translate(-1069 -3292.502)">
    <circle id="Elipse_5413" data-name="Elipse 5413" cx="82.5" cy="82.5" r="82.5" transform="translate(1069 3292.502)" fill="#ccd3ca"/>
    <g id="flotador" transform="translate(1087.911 3311.502)">
      <path id="Trazado_690116" data-name="Trazado 690116" d="M123.379,41.976a63.552,63.552,0,1,0,.021,43.089A63.528,63.528,0,0,0,123.379,41.976ZM96.916,74.462a35.033,35.033,0,0,1-66.6,0,35.039,35.039,0,1,1,66.6,0Zm0,0" transform="translate(0)" fill="#e64c3c"/>
      <g id="Grupo_946265" data-name="Grupo 946265" transform="translate(0.089 0.024)">
        <path id="Trazado_690117" data-name="Trazado 690117" d="M22,190.726a40.917,40.917,0,0,0,2.213,13.364L3.835,212.238a63.655,63.655,0,0,1,.022-43.089L24.231,177.3A41.238,41.238,0,0,0,22,190.726Zm0,0" transform="translate(-0.089 -127.197)" fill="#e6e7e8"/>
        <path id="Trazado_690118" data-name="Trazado 690118" d="M212.381,3.845l-8.149,20.372a41.6,41.6,0,0,0-26.77,0L169.313,3.845a63.762,63.762,0,0,1,43.068,0Zm0,0" transform="translate(-127.318 -0.099)" fill="#e6e7e8"/>
        <path id="Trazado_690119" data-name="Trazado 690119" d="M438.95,190.726a62.965,62.965,0,0,1-3.747,21.512l-20.372-8.149v-.022a40.779,40.779,0,0,0,2.212-13.341,41.211,41.211,0,0,0-2.234-13.429l20.373-8.149A62.844,62.844,0,0,1,438.95,190.726Zm0,0" transform="translate(-311.892 -127.197)" fill="#e6e7e8"/>
        <path id="Trazado_690120" data-name="Trazado 690120" d="M212.338,435.279a63.9,63.9,0,0,1-43.112,0l8.149-20.373a41.716,41.716,0,0,0,26.814,0Zm0,0" transform="translate(-127.254 -311.968)" fill="#e6e7e8"/>
      </g>
      <path id="Trazado_690121" data-name="Trazado 690121" d="M72.9,97.077a2.19,2.19,0,0,1-2.125-2.721,24.1,24.1,0,0,1,12.1-14.572,2.191,2.191,0,1,1,1.958,3.921,20,20,0,0,0-9.81,11.722A2.19,2.19,0,0,1,72.9,97.077Zm0,0" transform="translate(-53.097 -59.811)" fill="#fb7b76"/>
      <path id="Trazado_690122" data-name="Trazado 690122" d="M145.713,64.081a2.19,2.19,0,1,1-2.191-2.191A2.19,2.19,0,0,1,145.713,64.081Zm0,0" transform="translate(-106.192 -46.532)" fill="#fb7b76"/>
      <path id="Trazado_690123" data-name="Trazado 690123" d="M64.074,247.207a2.191,2.191,0,0,1-2.191-2.191v-4.382a2.191,2.191,0,0,1,4.382,0v4.382A2.191,2.191,0,0,1,64.074,247.207Zm0,0" transform="translate(-46.459 -179.273)" fill="#fff"/>
      <path id="Trazado_690124" data-name="Trazado 690124" d="M434.831,247.207a2.191,2.191,0,0,1-2.191-2.191v-4.382a2.191,2.191,0,0,1,4.382,0v4.382A2.191,2.191,0,0,1,434.831,247.207Zm0,0" transform="translate(-325.21 -179.273)" fill="#fff"/>
      <path id="Trazado_690125" data-name="Trazado 690125" d="M245.006,66.272h-4.382a2.191,2.191,0,1,1,0-4.382h4.382a2.191,2.191,0,1,1,0,4.382Zm0,0" transform="translate(-179.197 -46.532)" fill="#fff"/>
      <path id="Trazado_690126" data-name="Trazado 690126" d="M245.006,437.033h-4.382a2.19,2.19,0,1,1,0-4.381h4.382a2.19,2.19,0,1,1,0,4.381Zm0,0" transform="translate(-179.197 -325.286)" fill="#fff"/>
      <path id="Trazado_690127" data-name="Trazado 690127" d="M94.937,215.413a34.471,34.471,0,0,0,1.753,10.909h-.022l-6.09,2.454a41.465,41.465,0,0,1,.022-26.792l6.067,2.432.045.021A34.29,34.29,0,0,0,94.937,215.413Zm0,0" transform="translate(-66.37 -151.86)" fill="#bdc3c7"/>
      <path id="Trazado_690128" data-name="Trazado 690128" d="M125.827,103.4a35.107,35.107,0,0,0-22.344,22.323l-.045-.021-6.067-2.432a41.643,41.643,0,0,1,26-25.981l2.432,6.047Zm0,0" transform="translate(-73.14 -73.146)" fill="#c03a2b"/>
      <path id="Trazado_690129" data-name="Trazado 690129" d="M228.922,90.586l-2.432,6.047-.021.065a34.977,34.977,0,0,0-21.863,0l-.021-.065-2.432-6.047A41.6,41.6,0,0,1,228.922,90.586Zm0,0" transform="translate(-151.919 -66.443)" fill="#bdc3c7"/>
      <path id="Trazado_690130" data-name="Trazado 690130" d="M328.6,123.27l-6.068,2.432-.044.021A35.11,35.11,0,0,0,300.141,103.4l.021-.065,2.432-6.047A41.643,41.643,0,0,1,328.6,123.27Zm0,0" transform="translate(-225.591 -73.146)" fill="#c03a2b"/>
      <path id="Trazado_690131" data-name="Trazado 690131" d="M398.526,215.413a40.779,40.779,0,0,1-2.212,13.341l-6.091-2.432H390.2a34.831,34.831,0,0,0-.022-21.885l.044-.021,6.068-2.432A41.21,41.21,0,0,1,398.526,215.413Zm0,0" transform="translate(-293.286 -151.86)" fill="#bdc3c7"/>
      <path id="Trazado_690132" data-name="Trazado 690132" d="M328.683,302.491v.022a41.642,41.642,0,0,1-26,26.046l-2.453-6.112a35.2,35.2,0,0,0,22.345-22.389h.021Zm0,0" transform="translate(-225.656 -225.596)" fill="#c03a2b"/>
      <path id="Trazado_690133" data-name="Trazado 690133" d="M228.876,396.389a41.716,41.716,0,0,1-26.814,0l2.454-6.112a35.1,35.1,0,0,0,21.906,0Zm0,0" transform="translate(-151.852 -293.427)" fill="#bdc3c7"/>
      <path id="Trazado_690134" data-name="Trazado 690134" d="M125.738,322.447l-2.454,6.112a41.639,41.639,0,0,1-26-26.046l6.09-2.454h.022A35.2,35.2,0,0,0,125.738,322.447Zm0,0" transform="translate(-73.073 -225.596)" fill="#c03a2b"/>
      <path id="Trazado_690135" data-name="Trazado 690135" d="M4.471,190.726A58.55,58.55,0,0,0,7.91,210.617l-4.075,1.621a63.655,63.655,0,0,1,.022-43.089l4.074,1.621A58.937,58.937,0,0,0,4.471,190.726Zm0,0" transform="translate(0 -127.173)" fill="#bdc3c7"/>
      <path id="Trazado_690136" data-name="Trazado 690136" d="M55.143,19.27A59.266,59.266,0,0,0,19.348,55.021L15.273,53.4A63.677,63.677,0,0,1,53.5,15.2Zm0,0" transform="translate(-11.416 -11.424)" fill="#c03a2b"/>
      <path id="Trazado_690137" data-name="Trazado 690137" d="M212.381,3.845l-.7,1.73-.942,2.344a59.235,59.235,0,0,0-39.782,0l-1.643-4.074a63.762,63.762,0,0,1,43.068,0Zm0,0" transform="translate(-127.229 -0.074)" fill="#bdc3c7"/>
      <path id="Trazado_690138" data-name="Trazado 690138" d="M376.18,53.4l-4.074,1.621A59.288,59.288,0,0,0,336.332,19.27l.92-2.344.7-1.73A63.678,63.678,0,0,1,376.18,53.4Zm0,0" transform="translate(-252.801 -11.424)" fill="#c03a2b"/>
      <path id="Trazado_690139" data-name="Trazado 690139" d="M488.33,190.726a62.965,62.965,0,0,1-3.747,21.512l-4.074-1.621a59.26,59.26,0,0,0-.021-39.848l4.074-1.621A62.845,62.845,0,0,1,488.33,190.726Zm0,0" transform="translate(-361.184 -127.173)" fill="#bdc3c7"/>
      <path id="Trazado_690140" data-name="Trazado 690140" d="M376.2,337.875a63.67,63.67,0,0,1-38.226,38.271l-1.643-4.1a59.223,59.223,0,0,0,35.795-35.795Zm0,0" transform="translate(-252.801 -252.81)" fill="#c03a2b"/>
      <path id="Trazado_690141" data-name="Trazado 690141" d="M212.338,484.593a63.9,63.9,0,0,1-43.112,0l1.643-4.1a59.008,59.008,0,0,0,39.826,0Zm0,0" transform="translate(-127.164 -361.257)" fill="#bdc3c7"/>
      <path id="Trazado_690142" data-name="Trazado 690142" d="M55.054,372.049l-1.643,4.1a63.674,63.674,0,0,1-38.227-38.271l4.075-1.621A59.223,59.223,0,0,0,55.054,372.049Zm0,0" transform="translate(-11.348 -252.81)" fill="#c03a2b"/>
    </g>
  </g>
</svg>
