<svg xmlns="http://www.w3.org/2000/svg" width="165" height="165" viewBox="0 0 165 165">
  <g id="_16" data-name="16" transform="translate(-2029 8407.498)">
    <circle id="Elipse_5414" data-name="Elipse 5414" cx="82.5" cy="82.5" r="82.5" transform="translate(2029 -8407.498)" fill="#ccd3ca"/>
    <g id="guia-turistico" transform="translate(2048 -8388.498)">
      <path id="Trazado_690143" data-name="Trazado 690143" d="M127.057,63.529a63.4,63.4,0,0,1-23.776,49.551H23.776A63.528,63.528,0,1,1,127.057,63.529Z" fill="#a9d4fb"/>
      <path id="Trazado_690144" data-name="Trazado 690144" d="M165.329,59.693,141.712,83.311l6.338,6.338L124.9,112.794l2.11,2.11-2.11,2.11L126.892,119l-1.987,1.987,36.972,36.972H197.19a63.424,63.424,0,0,0,23.433-42.973Z" transform="translate(-93.909 -44.88)" fill="#72b1f5"/>
      <path id="Trazado_690145" data-name="Trazado 690145" d="M211,254.65v24.816h11.167l3.912-12.408-3.912-12.408Z" transform="translate(-158.638 -191.456)" fill="#a65d4e"/>
      <path id="Trazado_690146" data-name="Trazado 690146" d="M256,254.65h11.167v24.816H256Z" transform="translate(-192.471 -191.456)" fill="#8f5043"/>
      <path id="Trazado_690147" data-name="Trazado 690147" d="M124.395,309.821l-7.445,2.074-7.445-2.074h-.961a12.722,12.722,0,0,0-12.735,12.734v8.054l13.7,23.806,14.89,4.623a64.679,64.679,0,0,0,11.167.955l4.365-21.21L135.562,319.6Z" transform="translate(-72.033 -232.936)" fill="#fff"/>
      <path id="Trazado_690148" data-name="Trazado 690148" d="M286.79,310.389a12.734,12.734,0,0,0-3.772-.568h-.961l-6.18,2.249-8.709-2.249L256,319.6v40.395a63.824,63.824,0,0,0,11.167-.979l14.89-4.6,13.7-23.806v-8.054A12.739,12.739,0,0,0,286.79,310.389Z" transform="translate(-192.471 -232.936)" fill="#e9edf5"/>
      <path id="Trazado_690149" data-name="Trazado 690149" d="M358.744,417.4a63.569,63.569,0,0,0,13.7-8.4V393.589h-13.7l-.744,11.9Z" transform="translate(-269.159 -295.916)" fill="#a65d4e"/>
      <path id="Trazado_690150" data-name="Trazado 690150" d="M109.505,393.588h-13.7V409a63.666,63.666,0,0,0,5.792,4.141l1.861-.061,1.861,2.24c1.368.742,2.756,1.436,4.182,2.079l.744-11.9Z" transform="translate(-72.033 -295.916)" fill="#b46e5a"/>
      <path id="Trazado_690151" data-name="Trazado 690151" d="M187.8,105.364h-8.969c-4.681,0-8.475,4.767-8.475,10.647v5.4a2.912,2.912,0,0,0-2.641-1.321c-1.831.323-2.844,3.256-2.262,6.551s2.536,5.7,4.367,5.382a1.927,1.927,0,0,0,.543-.184,15.142,15.142,0,0,0,2.814,8.519l3.64,5.058a13.558,13.558,0,0,0,10.984,5.758l2.995-22.905Z" transform="translate(-124.269 -79.217)" fill="#b46e5a"/>
      <path id="Trazado_690152" data-name="Trazado 690152" d="M276.085,120.091a2.913,2.913,0,0,0-2.641,1.321v-5.4c0-5.88-3.794-10.647-8.475-10.647H256v45.811a13.559,13.559,0,0,0,10.984-5.758l3.64-5.058a15.142,15.142,0,0,0,2.814-8.519,1.934,1.934,0,0,0,.543.184c1.831.323,3.786-2.087,4.367-5.382s-.432-6.228-2.262-6.551Z" transform="translate(-192.471 -79.217)" fill="#a65d4e"/>
      <path id="Trazado_690153" data-name="Trazado 690153" d="M211,57.7a11.167,11.167,0,0,0,11.167,11.167l3.2-11.012-3.2-11.323A11.167,11.167,0,0,0,211,57.7Z" transform="translate(-158.638 -34.982)" fill="#333940"/>
      <path id="Trazado_690154" data-name="Trazado 690154" d="M267.167,57.7A11.167,11.167,0,0,0,256,46.529V68.863A11.167,11.167,0,0,0,267.167,57.7Z" transform="translate(-192.471 -34.982)" fill="#101214"/>
      <path id="Trazado_690155" data-name="Trazado 690155" d="M191.172,79.335c-7.944-.224-15.319,6.073-16.537,13.355-1.294,3.964-.673,38.91-.673,38.91h5.751V98.867h14.5l3.912-9.985-3.912-9.547Z" transform="translate(-130.68 -59.643)" fill="#555a65"/>
      <path id="Trazado_690156" data-name="Trazado 690156" d="M259.036,79.335c7.944-.224,15.319,6.073,16.537,13.355,1.294,3.964.673,38.91.673,38.91H270.5V98.867H256V79.335Z" transform="translate(-192.471 -59.643)" fill="#333940"/>
      <path id="Trazado_690157" data-name="Trazado 690157" d="M165.89,359.038V309.821H151v44.594A60.921,60.921,0,0,0,165.89,359.038Z" transform="translate(-113.528 -232.936)" fill="#f77b83"/>
      <path id="Trazado_690158" data-name="Trazado 690158" d="M301,309.821v49.188a63.058,63.058,0,0,0,14.89-4.593V309.821Z" transform="translate(-226.304 -232.936)" fill="#f5435e"/>
      <path id="Trazado_690159" data-name="Trazado 690159" d="M119.147,263.25v49.344q1.819,1.153,3.722,2.179V259.859Z" transform="translate(-89.58 -195.373)" fill="#555a65"/>
      <path id="Trazado_690160" data-name="Trazado 690160" d="M119.147,197.886V172.92L147.4,185.4Z" transform="translate(-89.58 -130.008)" fill="#f77b83"/>
    </g>
  </g>
</svg>
