<svg xmlns="http://www.w3.org/2000/svg" width="165" height="165" viewBox="0 0 165 165">
  <g id="_17" data-name="17" transform="translate(-2374 8407.498)">
    <circle id="Elipse_5415" data-name="Elipse 5415" cx="82.5" cy="82.5" r="82.5" transform="translate(2374 -8407.498)" fill="#ccd3ca"/>
    <g id="desastre" transform="translate(2392 -8389.498)">
      <path id="Trazado_690161" data-name="Trazado 690161" d="M64.5,0A64.5,64.5,0,1,0,129,64.5,64.5,64.5,0,0,0,64.5,0Z" fill="#ffe8c4"/>
      <path id="Trazado_690162" data-name="Trazado 690162" d="M49.129,136.367a85.023,85.023,0,0,0-47.176,14.2A64.513,64.513,0,0,0,126.26,185.013,85.446,85.446,0,0,0,49.129,136.367Z" transform="translate(0 -101.874)" fill="#fcd996"/>
      <path id="Trazado_690163" data-name="Trazado 690163" d="M53.1,263.816a63.237,63.237,0,0,0-42.434,16.272,64.506,64.506,0,0,0,103.692,30.538A63.494,63.494,0,0,0,53.1,263.816Z" transform="translate(-7.969 -197.086)" fill="#d6ffff"/>
      <path id="Trazado_690164" data-name="Trazado 690164" d="M123.92,379.267c-14.455-.125-18.487-4.046-21-4.24-18.96-1.449-12.22,8.464-22.731,6.28-6.24-1.3-7.861-6.261-13.7-6.261-7.912,0-20.273,8.206-23.944,2.442-4.006-6.287-8.2-6.124-12.824-4.915a64.507,64.507,0,0,0,98.879,18.805A63.3,63.3,0,0,0,123.92,379.267Z" transform="translate(-22.197 -277.84)" fill="#0f5eff"/>
      <path id="Trazado_690165" data-name="Trazado 690165" d="M131.812,476.06c-1.412.072-4.789-2.852-8.492-2.666a64.039,64.039,0,0,0,13.315,6.09C136.176,477.349,135.107,475.889,131.812,476.06Z" transform="translate(-92.127 -353.647)" fill="#9c3"/>
      <path id="Trazado_690166" data-name="Trazado 690166" d="M169.423,486.657c-.046.705-.081,1.43-.11,2.169.557.2,1.117.391,1.68.573A4.165,4.165,0,0,0,169.423,486.657Z" transform="translate(-126.487 -363.561)" fill="#693"/>
      <path id="Trazado_690167" data-name="Trazado 690167" d="M280.978,497.355c-5.493-2.021-5.329.11-5.235,2.381a64.99,64.99,0,0,0,8.833-1.335A21.272,21.272,0,0,1,280.978,497.355Z" transform="translate(-205.975 -370.949)" fill="#9c3"/>
      <path id="Trazado_690168" data-name="Trazado 690168" d="M117.6,305.8c-.155.133-.472.356-.6.034.908,2.2-6.837.55-2.362,2.954,1.576.849,7.777,2.969,7.639-.273-.1-2.439-.518-1.369.626-3.455C123.477,303.991,118.439,305.087,117.6,305.8Z" transform="translate(-84.586 -227.564)" fill="#db0000"/>
      <path id="Trazado_690169" data-name="Trazado 690169" d="M90.664,353.151c-.07-.428-.578-.527-.7-.235-.559,1.384.339,1.9-.806,3.2a3.622,3.622,0,0,0,2.524,5.15c3.564.887,6.134,2.476,7.339-2.882C100.444,352.074,91.548,358.38,90.664,353.151Z" transform="translate(-66.333 -263.524)" fill="#db0000"/>
      <path id="Trazado_690170" data-name="Trazado 690170" d="M64.785,340.86c.18,2.3,3.339,3.261,4.131,2.6C68.917,339.423,68.181,341.486,64.785,340.86Z" transform="translate(-48.398 -254.642)" fill="#db0000"/>
      <path id="Trazado_690171" data-name="Trazado 690171" d="M86.81,263.816a63.237,63.237,0,0,0-28.246,6.617c-1.572,1.809-3.449,3.136-2.533,3.868a7.41,7.41,0,0,0,7.043.565c5.127-2.5,9.9-2.431,12.208-5.169,2.452-2.912,10.36-3.553,13.287-1.923,2.366,1.32.283,4.285-1.572,4.77-.751.2-3.7,2.658-4.092,4.221-.944,3.792-1.306,5.483,1.919,9.249,3.055,3.557,3.506-1.889,9.186-1.889,4.092,0-.186,3.329,7.978,3.929,2.347.174,2.965.9,8.124.9,4.152,0,8.97.884,11.2-3.079,1.213-2.162,2.694-2.647,4.217-2.211.19.053,5.106-1.327,5.663,5.461.347,4.224,5.728,5.446,9.948,5.324A63.43,63.43,0,0,0,86.81,263.816Z" transform="translate(-41.678 -197.086)" fill="#db0000"/>
      <path id="Trazado_690172" data-name="Trazado 690172" d="M207.527,309.957c-1.344-.011-3.132,0-5.559,0-7.322,0-12.358,5.889-17.932,3.1-11.133-5.559-8.8-1.426-15.4-3.239-5.322-1.464-3.965-5-5.4-6.2a7.349,7.349,0,0,0-2.192,2.882c-.944,3.792-1.306,5.483,1.919,9.249,3.055,3.557,3.506-1.889,9.186-1.889,4.092,0-.186,3.329,7.978,3.929,2.347.174,2.965.9,8.124.9,4.152,0,8.97.884,11.2-3.079,1.215-2.162,2.694-2.647,4.217-2.211.19.053,5.106-1.327,5.663,5.46.347,4.224,5.728,5.446,9.948,5.324A63.978,63.978,0,0,0,207.527,309.957Z" transform="translate(-119.812 -226.822)" fill="#ba0000"/>
      <path id="Trazado_690173" data-name="Trazado 690173" d="M249.3,275.6c-1.126,1.278-1.811,1.877-1.811,4.793s3.614,7.125,7.531,4.425,6.5.008,6.907-3.606A63.317,63.317,0,0,0,249.3,275.6Z" transform="translate(-184.892 -205.89)" fill="#900"/>
      <path id="Trazado_690174" data-name="Trazado 690174" d="M251.871,199.022h5.807v-1.449h-5.807v1.449Zm0-10.064v1.452h5.807v-1.452Z" transform="translate(-188.162 -141.163)" fill="#ccc"/>
      <path id="Trazado_690175" data-name="Trazado 690175" d="M200.012,174.042H188.5a3.205,3.205,0,0,0-3.2,3.195v11.515a3.2,3.2,0,0,0,3.2,3.193h11.514a3.2,3.2,0,0,0,3.193-3.193V177.237A3.2,3.2,0,0,0,200.012,174.042Z" transform="translate(-138.431 -130.02)" fill="#db0000"/>
      <path id="Trazado_690176" data-name="Trazado 690176" d="M203.872,176.62l-15.985,15.987a3.2,3.2,0,0,0,2.543,1.263h11.514a3.2,3.2,0,0,0,3.193-3.193V179.161A3.193,3.193,0,0,0,203.872,176.62Z" transform="translate(-140.363 -131.946)" fill="#ba0000"/>
      <path id="Trazado_690177" data-name="Trazado 690177" d="M267.184,169.064V206.1a4.524,4.524,0,0,0,2.55-.869,8.094,8.094,0,0,1,1.416-.789V169.064Z" transform="translate(-199.602 -126.301)" fill="#fff"/>
      <path id="Trazado_690178" data-name="Trazado 690178" d="M267.184,169.064V206.1a4.081,4.081,0,0,0,.787-.087V169.064Z" transform="translate(-199.602 -126.301)" fill="#b3b3b3"/>
      <path id="Trazado_690179" data-name="Trazado 690179" d="M206.13,191.521V187.7h-3.346v3.822h-3.826v3.348h3.826V198.7h3.346V194.87h3.826v-3.348Z" transform="translate(-148.633 -140.222)" fill="#fff"/>
      <path id="Trazado_690180" data-name="Trazado 690180" d="M364.875,143.986c-.318-2.916,2.776-3.436,4.272-5.98a7.149,7.149,0,0,0,.461-5.9c-1.1,3.265-7.59-.792-10.688,3.993-.736-.4-.84-1.126-.21-1.938-6.416.94-10.951,5.643-10.1,13.246.724,6.45,4.676,8.8,11.493,7.171,4.573-1.09,7.935-4.77,10.238-10.739C368.068,146.136,365.114,146.178,364.875,143.986Z" transform="translate(-260.354 -98.693)" fill="#ff1f1f"/>
      <path id="Trazado_690181" data-name="Trazado 690181" d="M362.28,127.609c-.546,1.024-1.342,1.251-2.093.675,3.5-5.4-3.676-10.227-.819-12.868a8.087,8.087,0,0,0-5.868,3.2c-1.934,2.715-1.041,6.147-4.2,7.167-2.368.762-3.691-2.306-2.374-5.707-5.092,5.134-7.337,10.3-6.352,15.521,1.468,7.785,5.716,10.773,12.7,8.54C361.516,141.51,364.269,134.658,362.28,127.609Z" transform="translate(-254.263 -86.222)" fill="#db0000"/>
      <path id="Trazado_690182" data-name="Trazado 690182" d="M364.875,148.194a3.424,3.424,0,0,1,1.494-3.163.716.716,0,0,1-.091-.067c1.682-2.6.9-5.061-.053-7.211-2.4-.008-5.457-.3-7.305,2.556-.736-.4-.84-1.126-.21-1.938-.152.023-.3.046-.453.072-.493,1.778-.874,3.375-2.861,4.02-1.312.421-2.3-.334-2.7-1.665-2.961,2.26-4.63,5.942-4.086,10.819.724,6.452,4.676,8.8,11.493,7.171,3.542-.846,6.353-3.242,8.513-7.049a12.854,12.854,0,0,0,.366-2.616C367.035,150.276,365.068,149.965,364.875,148.194Z" transform="translate(-260.354 -102.902)" fill="#ba0000"/>
      <path id="Trazado_690183" data-name="Trazado 690183" d="M359.1,189.741a5.018,5.018,0,1,0,1.483,6.94A5.02,5.02,0,0,0,359.1,189.741Z" transform="translate(-262.482 -141.145)" fill="#900"/>
      <path id="Trazado_690184" data-name="Trazado 690184" d="M183.624,60.115c-.375-1.687,1.4-2.188,2.108-3.773a4.216,4.216,0,0,0-.108-3.481c-.434,1.983-4.491.027-5.995,3.03-.457-.19-.563-.607-.247-1.121-3.691.965-6.04,4.01-5.051,8.4.84,3.728,3.3,4.846,7.186,3.455,2.605-.937,4.329-3.307,5.292-6.947C185.63,61.166,183.9,61.378,183.624,60.115Z" transform="translate(-130.067 -39.49)" fill="#ff1f1f"/>
      <path id="Trazado_690185" data-name="Trazado 690185" d="M181.871,51.094c-.252.637-.7.819-1.181.537,1.7-3.392-2.81-5.745-1.31-7.48a4.775,4.775,0,0,0-3.225,2.256c-.956,1.714-.21,3.663-1.989,4.459-1.337.6-2.309-1.1-1.759-3.181-2.645,3.333-3.623,6.5-2.709,9.488,1.361,4.459,4.04,5.931,7.982,4.175C182.326,59.278,183.491,55.091,181.871,51.094Z" transform="translate(-126.524 -32.983)" fill="#db0000"/>
      <path id="Trazado_690186" data-name="Trazado 690186" d="M186.081,63.528c-1.062.8-2.231.743-2.459-.277a2.029,2.029,0,0,1,.667-1.949l-.061-.03c.819-1.627.2-3.019-.493-4.213-1.405.148-3.212.174-4.111,1.966-.455-.188-.561-.6-.246-1.121-.087.023-.173.049-.26.076-.173,1.066-.292,2.029-1.412,2.529a1.217,1.217,0,0,1-1.689-.8,6.671,6.671,0,0,0-1.687,6.591c.838,3.726,3.3,4.846,7.186,3.455a7.918,7.918,0,0,0,4.524-4.676A7.57,7.57,0,0,0,186.081,63.528Z" transform="translate(-130.064 -42.626)" fill="#ba0000"/>
      <path id="Trazado_690187" data-name="Trazado 690187" d="M181.677,90.268a2.953,2.953,0,1,0,1.316,3.963A2.955,2.955,0,0,0,181.677,90.268Z" transform="translate(-132.528 -67.201)" fill="#900"/>
      <path id="Trazado_690188" data-name="Trazado 690188" d="M90.168,183.108c-.508-.971.493-1.572.664-2.66a2.66,2.66,0,0,0-.648-2.1c.066,1.282-2.74.766-3.159,2.848-.311-.038-.446-.273-.339-.641A4.192,4.192,0,0,0,85,186.526c1.134,2.135,2.825,2.412,4.968.91,1.437-1,2.1-2.742,2.078-5.127C91.573,183.417,90.553,183.834,90.168,183.108Z" transform="translate(-63.033 -133.233)" fill="#ff1f1f"/>
      <path id="Trazado_690189" data-name="Trazado 690189" d="M88.735,178.632c-.049.432-.294.618-.633.523.472-2.355-2.679-3.041-2.048-4.35a3,3,0,0,0-1.6,1.915c-.3,1.206.48,2.271-.472,3.056-.717.591-1.595-.292-1.6-1.649-1.062,2.476-1.134,4.577-.076,6.253,1.576,2.5,3.46,2.95,5.576,1.217A4.74,4.74,0,0,0,88.735,178.632Z" transform="translate(-60.921 -130.59)" fill="#db0000"/>
      <path id="Trazado_690190" data-name="Trazado 690190" d="M91.725,185.7c-.518.668-1.24.83-1.549.243a1.277,1.277,0,0,1,.083-1.3l-.04-.011a2.637,2.637,0,0,0-1.007-2.5c-.836.33-1.934.645-2.182,1.888-.311-.038-.446-.273-.339-.641a1.681,1.681,0,0,0-.146.089c.072.681.159,1.29-.442,1.78a.769.769,0,0,1-1.164-.2,4.225,4.225,0,0,0,.068,4.312c1.134,2.135,2.825,2.412,4.965.91a5.005,5.005,0,0,0,1.987-3.61A4.674,4.674,0,0,0,91.725,185.7Z" transform="translate(-63.039 -136.066)" fill="#ba0000"/>
      <path id="Trazado_690191" data-name="Trazado 690191" d="M91.63,205.882a1.872,1.872,0,1,0,1.466,2.2A1.876,1.876,0,0,0,91.63,205.882Z" transform="translate(-66.78 -153.779)" fill="#900"/>
      <path id="Trazado_690192" data-name="Trazado 690192" d="M260.818,282.091c-.51-.967.489-1.57.662-2.658a2.672,2.672,0,0,0-.649-2.109c.067,1.282-2.74.77-3.159,2.852-.311-.042-.444-.277-.337-.645a4.2,4.2,0,0,0-1.689,5.976c1.139,2.139,2.829,2.412,4.971.91,1.435-1,2.1-2.742,2.076-5.127C262.221,282.4,261.2,282.819,260.818,282.091Z" transform="translate(-190.518 -207.177)" fill="#ff1f1f"/>
      <path id="Trazado_690193" data-name="Trazado 690193" d="M259.381,277.617c-.049.428-.294.614-.633.52.474-2.355-2.679-3.041-2.05-4.35A3.027,3.027,0,0,0,255.1,275.7c-.3,1.206.48,2.275-.472,3.06-.715.588-1.6-.292-1.6-1.653-1.064,2.476-1.134,4.577-.074,6.253,1.576,2.5,3.458,2.95,5.574,1.217A4.739,4.739,0,0,0,259.381,277.617Z" transform="translate(-188.404 -204.535)" fill="#db0000"/>
      <path id="Trazado_690194" data-name="Trazado 690194" d="M262.373,284.7c-.518.668-1.24.827-1.549.239a1.27,1.27,0,0,1,.083-1.3l-.042-.011a2.633,2.633,0,0,0-1-2.491c-.834.326-1.934.645-2.184,1.888-.311-.042-.444-.277-.337-.645-.051.03-.1.061-.148.087.072.683.161,1.293-.442,1.786a.772.772,0,0,1-1.164-.2,4.218,4.218,0,0,0,.068,4.308c1.136,2.139,2.827,2.412,4.968.91a5,5,0,0,0,1.985-3.61A4.853,4.853,0,0,0,262.373,284.7Z" transform="translate(-190.521 -210.022)" fill="#ba0000"/>
      <path id="Trazado_690195" data-name="Trazado 690195" d="M262.283,304.873a1.87,1.87,0,1,0,1.466,2.2A1.867,1.867,0,0,0,262.283,304.873Z" transform="translate(-194.269 -227.73)" fill="#900"/>
      <path id="Trazado_690196" data-name="Trazado 690196" d="M423.528,328.258c-.142-1.289,1.227-1.517,1.888-2.643a3.168,3.168,0,0,0,.2-2.609c-.487,1.445-3.358-.349-4.727,1.764-.326-.174-.372-.5-.093-.853a4.975,4.975,0,0,0-4.467,5.859c.32,2.848,2.067,3.891,5.081,3.17,2.023-.485,3.511-2.112,4.528-4.751C424.94,329.21,423.634,329.225,423.528,328.258Z" transform="translate(-310.992 -241.304)" fill="#ff1f1f"/>
      <path id="Trazado_690197" data-name="Trazado 690197" d="M422.379,321.007c-.243.455-.593.553-.927.3,1.549-2.389-1.625-4.52-.362-5.692a3.585,3.585,0,0,0-2.594,1.418c-.855,1.2-.463,2.719-1.856,3.167-1.048.341-1.634-1.016-1.05-2.522-2.252,2.271-3.246,4.554-2.808,6.864.648,3.443,2.527,4.763,5.616,3.781A5.63,5.63,0,0,0,422.379,321.007Z" transform="translate(-308.296 -235.783)" fill="#db0000"/>
      <path id="Trazado_690198" data-name="Trazado 690198" d="M423.53,330.123a1.518,1.518,0,0,1,.664-1.4.221.221,0,0,1-.042-.03,3.117,3.117,0,0,0-.023-3.186c-1.062,0-2.414-.133-3.231,1.126-.326-.174-.372-.5-.093-.853a1.729,1.729,0,0,0-.2.034c-.22.781-.387,1.49-1.266,1.771a.911.911,0,0,1-1.195-.732,5.011,5.011,0,0,0-1.8,4.786c.318,2.848,2.065,3.891,5.079,3.17a4.3,4.3,0,0,0,3.928-4.277C424.488,331.044,423.617,330.9,423.53,330.123Z" transform="translate(-310.997 -243.17)" fill="#ba0000"/>
      <path id="Trazado_690199" data-name="Trazado 690199" d="M420.972,348.486a2.218,2.218,0,1,0,.656,3.068A2.217,2.217,0,0,0,420.972,348.486Z" transform="translate(-311.933 -260.073)" fill="#900"/>
    </g>
  </g>
</svg>
