<svg xmlns="http://www.w3.org/2000/svg" width="165" height="165" viewBox="0 0 165 165">
  <g id="_18" data-name="18" transform="translate(-2719 8407.498)">
    <circle id="Elipse_5416" data-name="Elipse 5416" cx="82.5" cy="82.5" r="82.5" transform="translate(2719 -8407.498)" fill="#ccd3ca"/>
    <g id="desertificacion" transform="translate(2737 -8389.498)">
      <path id="Trazado_690200" data-name="Trazado 690200" d="M64.5,0A64.5,64.5,0,1,0,129,64.5,64.5,64.5,0,0,0,64.5,0Z" fill="#fcd996"/>
      <path id="Trazado_690201" data-name="Trazado 690201" d="M65.3,222.688c-24.294,0-46.618,5.276-64.225,14.1a64.5,64.5,0,0,0,128.452,0C111.925,227.965,89.6,222.688,65.3,222.688Z" transform="translate(-0.806 -166.361)" fill="#ffb82b"/>
      <path id="Trazado_690202" data-name="Trazado 690202" d="M76.162,294.261c-22.634,0-43.555,4.581-60.549,12.339a64.523,64.523,0,0,0,121.1,0C119.721,298.841,98.8,294.261,76.162,294.261Z" transform="translate(-11.664 -219.83)" fill="#f7a12e"/>
      <path id="Trazado_690203" data-name="Trazado 690203" d="M231.3,153.435,207.026,90.079a1.306,1.306,0,0,0-1.685-.755,1.361,1.361,0,0,0-.271.138l-5.451,3.405-7.4-5.458a1.3,1.3,0,0,0-1.822.281,1.04,1.04,0,0,0-.091.144l-7.229,13.118-11.395-7.6a1.3,1.3,0,0,0-1.993.776l12.369,75.147L230.1,155.27a1.308,1.308,0,0,0,1.306-1.308A1.274,1.274,0,0,0,231.3,153.435Z" transform="translate(-126.765 -65.111)" fill="#2e0d00"/>
      <path id="Trazado_690204" data-name="Trazado 690204" d="M116.272,110.8a1.308,1.308,0,0,0-1.244.573,1.24,1.24,0,0,0-.178.413L96.342,171.231a1.3,1.3,0,0,0,.857,1.634,1.245,1.245,0,0,0,.386.061v0l29.634,14,.552-.159Z" transform="translate(-71.928 -82.77)" fill="#fc7d24"/>
      <path id="Trazado_690205" data-name="Trazado 690205" d="M305.962,224l-10.388,8.572-.74-8.606a.925.925,0,1,0-1.845.152l.891,10.372-2.628,6.594-4.916,2.268a.92.92,0,0,0-.535.774h0l-.271,3.766a.925.925,0,0,0,1.845.129l.231-3.22,4.179-1.926,4.383,6.317a.92.92,0,1,0,1.517-1.043l-4.609-6.651,2.575-6.462a.992.992,0,0,0,.07-.189l10.849-8.957a.94.94,0,0,0,.182.176Z" transform="translate(-213.305 -166.683)" fill="#f7a12e"/>
      <path id="Trazado_690206" data-name="Trazado 690206" d="M186.923,121.964l-3.189-4.641.292-.738a.9.9,0,0,0,.1-.489l-.789-9.163-.32.044-1.064.665-.442-.326.753,8.723-2.691,6.75-7.269,6-2.886-4.518a.928.928,0,0,0-.834-.427v0l-3.767.245a.924.924,0,0,0,.116,1.845l3.227-.209,2.715,4.249-14.788,12.206-.742-8.606a.925.925,0,0,0-1.845.152l.895,10.371-2.628,6.6-4.92,2.268a.909.909,0,0,0-.533.774l-.275,3.762a.926.926,0,1,0,1.847.129l.229-3.216,4.182-1.926,4.379,6.317a.923.923,0,0,0,1.521-1.046l-4.611-6.651,2.573-6.459a.87.87,0,0,0,.072-.191l10.849-8.956a.917.917,0,0,0,.3.248l3.445,1.8,1.189,5.637a.923.923,0,1,0,1.807-.375l-1.2-5.669,3.671-1.723a.922.922,0,1,0-.781-1.67l-4.2,1.974-2.753-1.441,11.725-9.681,4.266,6.147a.923.923,0,1,0,1.519-1.048l-4.611-6.644,1.458-3.663L185.4,123a.924.924,0,1,0,1.527-1.041Z" transform="translate(-109.097 -79.884)" fill="#f7a12e"/>
    </g>
  </g>
</svg>
