<svg xmlns="http://www.w3.org/2000/svg" width="165" height="165" viewBox="0 0 165 165">
  <g id="_19" data-name="19" transform="translate(-3055 8407.498)">
    <circle id="Elipse_5417" data-name="Elipse 5417" cx="82.5" cy="82.5" r="82.5" transform="translate(3055 -8407.498)" fill="#ccd3ca"/>
    <g id="mochilero" transform="translate(3060.061 -8402.302)">
      <g id="Grupo_946276" data-name="Grupo 946276" transform="translate(12.939 12.803)">
        <g id="Grupo_946275" data-name="Grupo 946275">
          <g id="Grupo_946271" data-name="Grupo 946271">
            <g id="Grupo_946267" data-name="Grupo 946267">
              <g id="Grupo_946266" data-name="Grupo 946266">
                <path id="Trazado_690207" data-name="Trazado 690207" d="M31.809,122.933a64.53,64.53,0,1,1,91.26,0,64.6,64.6,0,0,1-91.26,0Zm78.576-78.576a46.593,46.593,0,1,0,0,65.892,46.645,46.645,0,0,0,0-65.892Z" transform="translate(-12.939 -12.803)" fill="#58595b"/>
              </g>
            </g>
            <g id="Grupo_946268" data-name="Grupo 946268" transform="translate(0 0)">
              <path id="Trazado_690208" data-name="Trazado 690208" d="M44.494,44.357a46.57,46.57,0,0,1,79.516,33h17.93a64.5,64.5,0,1,0-129,0H30.87a46.449,46.449,0,0,1,13.624-33Z" transform="translate(-12.94 -12.803)" fill="#648940"/>
            </g>
            <g id="Grupo_946270" data-name="Grupo 946270" transform="translate(7.549 69.583)">
              <g id="Grupo_946269" data-name="Grupo 946269">
                <path id="Trazado_690209" data-name="Trazado 690209" d="M41.568,171.571l-.031-.032c-1.327-1.4-2.6-2.876-3.772-4.392a1.682,1.682,0,1,1,2.658-2.061c1.107,1.428,2.3,2.82,3.553,4.136a1.682,1.682,0,0,1-2.408,2.348Zm6.239,5.66a1.682,1.682,0,0,1,2.224-2.515,54.276,54.276,0,0,0,4.465,3.128,1.682,1.682,0,0,1-1.788,2.849,57.5,57.5,0,0,1-4.743-3.323,1.87,1.87,0,0,1-.158-.139ZM33.261,160.275a1.68,1.68,0,0,1-.281-.373,57.462,57.462,0,0,1-2.556-5.2,1.682,1.682,0,0,1,3.09-1.329,53.875,53.875,0,0,0,2.405,4.892,1.682,1.682,0,0,1-2.658,2.008Zm26.617,24.111a1.682,1.682,0,0,1,1.857-2.733,54.3,54.3,0,0,0,5.107,1.91,1.681,1.681,0,1,1-1.018,3.205A57.617,57.617,0,0,1,60.4,184.74,1.671,1.671,0,0,1,59.877,184.386ZM28.043,147.261a1.67,1.67,0,0,1-.437-.764c-.485-1.86-.882-3.767-1.179-5.668a1.682,1.682,0,0,1,3.323-.519c.28,1.791.654,3.587,1.11,5.339a1.682,1.682,0,0,1-2.818,1.612ZM73.349,188.3a1.681,1.681,0,0,1,1.451-2.851c1.789.283,3.613.479,5.424.584a1.682,1.682,0,1,1-.193,3.358c-1.922-.11-3.859-.318-5.757-.619A1.679,1.679,0,0,1,73.349,188.3Zm14.016.452a1.681,1.681,0,0,1,1.035-2.863c1.807-.167,3.623-.427,5.4-.772a1.682,1.682,0,0,1,.642,3.3c-1.886.367-3.813.643-5.731.82A1.678,1.678,0,0,1,87.365,188.748Zm13.69-3.021a1.681,1.681,0,0,1,.624-2.772,54.447,54.447,0,0,0,5.037-2.089,1.681,1.681,0,1,1,1.443,3.038,57.6,57.6,0,0,1-5.349,2.219,1.682,1.682,0,0,1-1.755-.4Zm12.51-6.338a1.717,1.717,0,0,1-.2-.247,1.682,1.682,0,0,1,.448-2.336,54.26,54.26,0,0,0,4.352-3.284,1.682,1.682,0,0,1,2.158,2.58,57.544,57.544,0,0,1-4.623,3.488,1.682,1.682,0,0,1-2.132-.2Zm10.528-9.263a1.681,1.681,0,0,1-.068-2.3,54.363,54.363,0,0,0,3.405-4.257,1.681,1.681,0,0,1,2.729,1.965,57.879,57.879,0,0,1-3.617,4.522,1.681,1.681,0,0,1-2.373.144l-.076-.071Zm7.9-11.581a1.682,1.682,0,0,1-.308-1.954,54.128,54.128,0,0,0,2.232-4.974,1.682,1.682,0,0,1,3.135,1.22,57.489,57.489,0,0,1-2.371,5.285,1.682,1.682,0,0,1-2.687.423Zm4.759-13.194a1.681,1.681,0,0,1-.453-1.558c.4-1.769.706-3.578.923-5.376a1.682,1.682,0,0,1,3.339.4c-.23,1.909-.56,3.829-.98,5.708a1.681,1.681,0,0,1-2.829.823Z" transform="translate(-26.407 -136.937)" fill="#fff"/>
              </g>
            </g>
          </g>
          <g id="Grupo_946272" data-name="Grupo 946272" transform="translate(10.623 0)">
            <path id="Trazado_690210" data-name="Trazado 690210" d="M131.4,31.673a64.562,64.562,0,0,0-99.507,10.1H55.645a46.65,46.65,0,0,1,60.246,0h23.754a64.549,64.549,0,0,0-8.246-10.1Z" transform="translate(-31.891 -12.803)" fill="#76a34f"/>
          </g>
          <g id="Grupo_946274" data-name="Grupo 946274" transform="translate(2.331 2.232)">
            <g id="Grupo_946273" data-name="Grupo 946273">
              <path id="Trazado_690211" data-name="Trazado 690211" d="M18.22,76.862h-.061a1.131,1.131,0,0,1-.774-.37,1.111,1.111,0,0,1-.286-.813,62.187,62.187,0,0,1,62.02-58.886,1.219,1.219,0,0,1,.286,0,62.329,62.329,0,0,1,53.874,31.195,1.152,1.152,0,0,1,.112.852,1.12,1.12,0,0,1-.526.678,1.152,1.152,0,0,1-1.53-.409,60.033,60.033,0,0,0-112,26.688,1.116,1.116,0,0,1-1.115,1.065ZM134.4,53.633A1.1,1.1,0,0,1,133.39,53a1.088,1.088,0,0,1-.05-.858,1.108,1.108,0,0,1,.572-.639,1.145,1.145,0,0,1,1.5.521,1.114,1.114,0,0,1,.045.858,1.074,1.074,0,0,1-.572.639A1.1,1.1,0,0,1,134.4,53.633Z" transform="translate(-17.097 -16.785)" fill="#91b56b"/>
            </g>
          </g>
        </g>
      </g>
      <g id="Grupo_946315" data-name="Grupo 946315" transform="translate(49.473 37.116)">
        <g id="Grupo_946314" data-name="Grupo 946314">
          <g id="Grupo_946300" data-name="Grupo 946300" transform="translate(0 0.204)">
            <g id="Grupo_946278" data-name="Grupo 946278" transform="translate(16.811 15.433)">
              <g id="Grupo_946277" data-name="Grupo 946277">
                <path id="Trazado_690212" data-name="Trazado 690212" d="M120.089,117.125l-8-1.972a5.243,5.243,0,0,1-3.835-6.347l5.592-22.673a2.71,2.71,0,0,1,3.28-1.982l10.455,2.579a2.71,2.71,0,0,1,1.982,3.28l-6.2,25.133a2.71,2.71,0,0,1-3.28,1.982Z" transform="translate(-108.105 -84.072)" fill="#e6e7e8"/>
              </g>
            </g>
            <g id="Grupo_946279" data-name="Grupo 946279" transform="translate(17.553 18.086)">
              <path id="Trazado_690213" data-name="Trazado 690213" d="M130.148,92.088l-6.2,25.133a2.7,2.7,0,0,1-3.279,1.984l-8-1.977a5.223,5.223,0,0,1-3.239-2.4,4.751,4.751,0,0,0,.839.29l8.386,2.069a2.705,2.705,0,0,0,3.279-1.984l6.2-25.133a2.638,2.638,0,0,0,.008-1.266l.028,0A2.709,2.709,0,0,1,130.148,92.088Z" transform="translate(-109.428 -88.805)" fill="#d1d3d4"/>
            </g>
            <g id="Grupo_946280" data-name="Grupo 946280" transform="translate(24.663)">
              <circle id="Elipse_5423" data-name="Elipse 5423" cx="6.844" cy="6.844" r="6.844" fill="#fcc4ae"/>
            </g>
            <g id="Grupo_946281" data-name="Grupo 946281" transform="translate(25.473 0.81)">
              <path id="Trazado_690214" data-name="Trazado 690214" d="M132.823,57.986a6.846,6.846,0,0,1-9.266,9.266,6.845,6.845,0,1,0,9.266-9.266Z" transform="translate(-123.557 -57.986)" fill="#f2ad97"/>
            </g>
            <g id="Grupo_946283" data-name="Grupo 946283" transform="translate(31.674 18.189)">
              <g id="Grupo_946282" data-name="Grupo 946282">
                <path id="Trazado_690215" data-name="Trazado 690215" d="M153.137,101.577h-10.1a3.63,3.63,0,0,1-2.7-1.2l-4.789-5.327a3.63,3.63,0,1,1,5.4-4.854l3.707,4.124h8.479a3.63,3.63,0,0,1,0,7.26Z" transform="translate(-134.62 -88.99)" fill="#fcc4ae"/>
              </g>
            </g>
            <g id="Grupo_946284" data-name="Grupo 946284" transform="translate(33.235 23.516)">
              <path id="Trazado_690216" data-name="Trazado 690216" d="M154.361,98.493H151.8a3.627,3.627,0,0,1-3.046,1.655h-10.1a3.627,3.627,0,0,1-1.253-.224l4.159,4.626a3.63,3.63,0,0,0,2.7,1.2h10.1a3.63,3.63,0,1,0,0-7.26Z" transform="translate(-137.405 -98.493)" fill="#f2ad97"/>
            </g>
            <g id="Grupo_946286" data-name="Grupo 946286" transform="translate(35.563 23.594)">
              <g id="Grupo_946285" data-name="Grupo 946285">
                <path id="Trazado_690217" data-name="Trazado 690217" d="M156.936,98.632a3.631,3.631,0,0,1-3.552,4.38h-10.1a3.63,3.63,0,0,1-1.729-.438l1.832,2.038a3.63,3.63,0,0,0,2.7,1.2h10.1a3.63,3.63,0,0,0,.749-7.182Z" transform="translate(-141.557 -98.632)" fill="#e59076"/>
              </g>
            </g>
            <g id="Grupo_946287" data-name="Grupo 946287" transform="translate(15.887 37.557)">
              <path id="Trazado_690218" data-name="Trazado 690218" d="M145.934,148.5l-8.361-13.23a3.634,3.634,0,0,0-1.591-1.377l-12.33-5.495.243-.985-15.717-3.876-.644,2.61a5.218,5.218,0,0,0-.019,2.439c.017.155,4.422,18.509,4.422,18.509l-5.243,14.2a3.713,3.713,0,0,0,1.927,4.71,3.628,3.628,0,0,0,4.84-2.077l5.669-15.348a3.631,3.631,0,0,0,.124-2.107l-3.077-12.789,15.779,7.005,7.84,11.693a3.63,3.63,0,1,0,6.137-3.88Z" transform="translate(-106.457 -123.541)" fill="#ffa91a"/>
            </g>
            <g id="Grupo_946298" data-name="Grupo 946298" transform="translate(0 5.538)">
              <g id="Grupo_946288" data-name="Grupo 946288" transform="translate(21.567)">
                <path id="Trazado_690219" data-name="Trazado 690219" d="M0,0H.93V5.538H0Z" transform="translate(0 0.246) rotate(-15.3)" fill="#ef7816"/>
              </g>
              <g id="Grupo_946289" data-name="Grupo 946289" transform="translate(0 1.733)">
                <path id="Trazado_690220" data-name="Trazado 690220" d="M89.315,108.851l-8.117-2a4.053,4.053,0,0,1-2.965-4.906L85.472,72.6a4.053,4.053,0,0,1,4.906-2.965l11.1,2.738a.979.979,0,0,1,.716,1.184l-7.974,32.333A4.055,4.055,0,0,1,89.315,108.851Z" transform="translate(-78.115 -69.512)" fill="#939598"/>
              </g>
              <g id="Grupo_946290" data-name="Grupo 946290" transform="translate(0.152 4.013)">
                <path id="Trazado_690221" data-name="Trazado 690221" d="M101.6,74.156l-2.344-.578-7.718,31.293a4.053,4.053,0,0,1-4.906,2.965l-8.117-2-.129-.034a4.051,4.051,0,0,0,2.932,2.837l8.117,2a4.054,4.054,0,0,0,4.906-2.965l7.974-32.333A.979.979,0,0,0,101.6,74.156Z" transform="translate(-78.386 -73.578)" fill="#808285"/>
              </g>
              <g id="Grupo_946291" data-name="Grupo 946291" transform="translate(1.977 1.733)">
                <path id="Trazado_690222" data-name="Trazado 690222" d="M96.452,98.065,81.641,94.411,87.022,72.6a4.053,4.053,0,0,1,4.906-2.965L102.8,72.313a1.212,1.212,0,0,1,.886,1.467l-5.771,23.4a1.212,1.212,0,0,1-1.467.886Z" transform="translate(-81.641 -69.512)" fill="#ffa91a"/>
              </g>
              <g id="Grupo_946292" data-name="Grupo 946292" transform="translate(1.976 4.012)">
                <path id="Trazado_690223" data-name="Trazado 690223" d="M102.8,74.1l-2.117-.522-5.57,22.585a1.212,1.212,0,0,1-1.467.886L82.131,94.207,81.64,96.2l14.811,3.653a1.212,1.212,0,0,0,1.467-.886l5.771-23.4A1.211,1.211,0,0,0,102.8,74.1Z" transform="translate(-81.64 -73.577)" fill="#f79219"/>
              </g>
              <g id="Grupo_946293" data-name="Grupo 946293" transform="translate(12.987 13.796)">
                <path id="Trazado_690224" data-name="Trazado 690224" d="M105.035,102.254l-3.324-.82a.564.564,0,0,1-.413-.683l2.292-9.292a.564.564,0,0,1,.683-.413l3.324.82a.564.564,0,0,1,.413.683l-2.292,9.292a.564.564,0,0,1-.683.413Z" transform="translate(-101.282 -91.031)" fill="#478cf7"/>
              </g>
              <g id="Grupo_946294" data-name="Grupo 946294" transform="translate(14.05 18.605)">
                <path id="Trazado_690225" data-name="Trazado 690225" d="M0,0H4.551V.621H0Z" transform="matrix(0.971, 0.24, -0.24, 0.971, 0.149, 0)" fill="#377de2"/>
              </g>
              <g id="Grupo_946295" data-name="Grupo 946295" transform="translate(12.987 14.181)">
                <path id="Trazado_690226" data-name="Trazado 690226" d="M107.6,92.169l-1.822-.45-2.073,8.407a.564.564,0,0,1-.683.413l-1.5-.37-.218.885a.564.564,0,0,0,.413.683l3.323.82a.564.564,0,0,0,.683-.413l2.292-9.292A.564.564,0,0,0,107.6,92.169Z" transform="translate(-101.283 -91.719)" fill="#377de2"/>
              </g>
              <g id="Grupo_946296" data-name="Grupo 946296" transform="translate(16.124 19.074)">
                <path id="Trazado_690227" data-name="Trazado 690227" d="M106.879,101.05l2.37.585.075-.3.074-.3-2.37-.585Z" transform="translate(-106.879 -100.447)" fill="#2266d3"/>
              </g>
              <g id="Grupo_946297" data-name="Grupo 946297" transform="translate(8.945 19.47)">
                <path id="Trazado_690228" data-name="Trazado 690228" d="M102.325,112.071l-7.653-1.887a.789.789,0,0,1-.577-.955l1.992-8.075,9.185,2.265-1.992,8.075A.789.789,0,0,1,102.325,112.071Z" transform="translate(-94.072 -101.153)" fill="#f79219"/>
              </g>
            </g>
            <g id="Grupo_946299" data-name="Grupo 946299" transform="translate(25.022 44.435)">
              <path id="Trazado_690229" data-name="Trazado 690229" d="M152.086,157.592a3.627,3.627,0,0,1-3.072-1.691l-7.774-12.3-17.351-7.718a.807.807,0,0,0-1.111.932l.562,2.261,15.779,7.005,7.84,11.693a3.63,3.63,0,0,0,6.355-.4,3.611,3.611,0,0,1-1.228.215Z" transform="translate(-122.754 -135.812)" fill="#f79219"/>
            </g>
          </g>
          <g id="Grupo_946302" data-name="Grupo 946302" transform="translate(19.392 24.389)">
            <g id="Grupo_946301" data-name="Grupo 946301">
              <path id="Trazado_690230" data-name="Trazado 690230" d="M119.052,107.165a7.464,7.464,0,0,1-1.792-.219l-4.551-1.123.677-2.741,4.551,1.123a4.6,4.6,0,0,0,4.258-1.113l3.632-3.406,1.931,2.059-3.633,3.406A7.407,7.407,0,0,1,119.052,107.165Z" transform="translate(-112.71 -99.687)" fill="#478cf7"/>
            </g>
          </g>
          <g id="Grupo_946304" data-name="Grupo 946304" transform="translate(22.313 28.502)">
            <g id="Grupo_946303" data-name="Grupo 946303">
              <path id="Trazado_690231" data-name="Trazado 690231" d="M130.742,112.857l-12.821-3.088.661-2.745,12.829,3.09Z" transform="translate(-117.921 -107.024)" fill="#478cf7"/>
            </g>
          </g>
          <g id="Grupo_946305" data-name="Grupo 946305" transform="translate(11.152)">
            <circle id="Elipse_5424" data-name="Elipse 5424" cx="5.725" cy="5.725" r="5.725" fill="#478cf7"/>
          </g>
          <g id="Grupo_946306" data-name="Grupo 946306" transform="translate(13.745 2.594)">
            <circle id="Elipse_5425" data-name="Elipse 5425" cx="3.131" cy="3.131" r="3.131" fill="#2266d3"/>
          </g>
          <g id="Grupo_946310" data-name="Grupo 946310" transform="translate(8.212 12.399)">
            <g id="Grupo_946307" data-name="Grupo 946307" transform="translate(0 5.418)">
              <path id="Trazado_690232" data-name="Trazado 690232" d="M94.931,91.256H93.209a.444.444,0,0,1-.445-.445v-2.4a.444.444,0,0,1,.445-.445h1.722a.444.444,0,0,1,.445.445v2.4A.444.444,0,0,1,94.931,91.256Z" transform="translate(-92.764 -87.962)" fill="#58595b"/>
            </g>
            <g id="Grupo_946308" data-name="Grupo 946308" transform="translate(0.733 6.039)">
              <path id="Trazado_690233" data-name="Trazado 690233" d="M94.072,89.57v-.388a.111.111,0,0,1,.111-.111h.923a.111.111,0,0,1,.111.111v.388a.111.111,0,0,1-.111.111h-.923A.111.111,0,0,1,94.072,89.57Z" transform="translate(-94.072 -89.071)" fill="#ffa91a"/>
            </g>
            <g id="Grupo_946309" data-name="Grupo 946309" transform="translate(0.733)">
              <path id="Trazado_690234" data-name="Trazado 690234" d="M0,0H5.418V1.145H0Z" transform="translate(1.145 0) rotate(90)" fill="#ef7816"/>
            </g>
          </g>
          <g id="Grupo_946311" data-name="Grupo 946311" transform="translate(5.773 10.251)">
            <path id="Trazado_690235" data-name="Trazado 690235" d="M105.421,80.463l-16.25-4.008a1,1,0,0,1-.728-1.2l.008-.031a1,1,0,0,1,1.2-.728L105.9,78.5a1,1,0,0,1,.728,1.2l-.008.031A.994.994,0,0,1,105.421,80.463Z" transform="translate(-88.414 -74.464)" fill="#478cf7"/>
          </g>
          <g id="Grupo_946312" data-name="Grupo 946312" transform="translate(2.241 22.989)">
            <path id="Trazado_690236" data-name="Trazado 690236" d="M99.12,103.187,82.87,99.179a1,1,0,0,1-.728-1.2l.008-.031a1,1,0,0,1,1.2-.728l16.25,4.008a1,1,0,0,1,.728,1.2l-.008.031A.994.994,0,0,1,99.12,103.187Z" transform="translate(-82.113 -97.188)" fill="#478cf7"/>
          </g>
          <g id="Grupo_946313" data-name="Grupo 946313" transform="translate(0.619 31.151)">
            <path id="Trazado_690237" data-name="Trazado 690237" d="M96.226,117.748l-16.25-4.008a1,1,0,0,1-.728-1.2l.008-.031a1,1,0,0,1,1.2-.728l16.25,4.008a1,1,0,0,1,.728,1.2l-.008.031A1,1,0,0,1,96.226,117.748Z" transform="translate(-79.219 -111.749)" fill="#478cf7"/>
          </g>
        </g>
      </g>
    </g>
  </g>
</svg>
