<svg xmlns="http://www.w3.org/2000/svg" width="165" height="165" viewBox="0 0 165 165">
  <g id="_23" data-name="23" transform="translate(-367 -4264)">
    <circle id="Elipse_5525" data-name="Elipse 5525" cx="82.5" cy="82.5" r="82.5" transform="translate(367 4264)" fill="#ccd3ca"/>
    <g id="exit" transform="translate(385 4283)">
      <g id="Grupo_947677" data-name="Grupo 947677" transform="translate(0 0)">
        <path id="Trazado_691277" data-name="Trazado 691277" d="M64.021,0A64.025,64.025,0,1,0,128.05,64.021,64.024,64.024,0,0,0,64.021,0Z" transform="translate(0 0)" fill="#fd8087" fill-rule="evenodd"/>
        <path id="Trazado_691278" data-name="Trazado 691278" d="M95.183,41.555a53.632,53.632,0,1,0,53.636,53.629A53.623,53.623,0,0,0,95.183,41.555Z" transform="translate(-31.161 -31.162)" fill="#f0eef0" fill-rule="evenodd"/>
        <path id="Trazado_691279" data-name="Trazado 691279" d="M186.073,305.357H159.5a2.894,2.894,0,0,0-2.885,2.878v10.254a2.89,2.89,0,0,0,2.885,2.878h26.577v2.951c0,1.913,1.4,3.5,4.1,2.213l9.034-4.981,3.834-2.213c5.4-3.118,5.4-8.83,0-11.941l-3.834-2.213L190.17,300.2c-2.7-1.286-4.1.292-4.1,2.213Z" transform="translate(-117.443 -224.772)" fill="#00c0fa" fill-rule="evenodd"/>
        <path id="Trazado_691280" data-name="Trazado 691280" d="M267.238,64.021a64.09,64.09,0,0,0-81.63-61.575,63.467,63.467,0,0,1,23.955,8.319,53.643,53.643,0,0,1,7.493,105.088,63.828,63.828,0,0,1-22.451,11.62,64.054,64.054,0,0,0,72.632-63.452Z" transform="translate(-139.188 0)" fill="#fd4755" fill-rule="evenodd"/>
        <path id="Trazado_691281" data-name="Trazado 691281" d="M281.391,43.044a64.038,64.038,0,0,1,7.493,105.088,53.643,53.643,0,0,0-7.493-105.088Z" transform="translate(-211.016 -32.279)" fill="#d7d0d6" fill-rule="evenodd"/>
        <path id="Trazado_691282" data-name="Trazado 691282" d="M289.065,309.009a63.815,63.815,0,0,1-5.017,24.875,4.317,4.317,0,0,0,1.687-.46l9.034-4.981,3.834-2.213c5.4-3.118,5.4-8.83,0-11.941l-3.834-2.213-5.7-3.148Z" transform="translate(-213.008 -231.667)" fill="#08a9f1" fill-rule="evenodd"/>
      </g>
      <path id="Trazado_691568" data-name="Trazado 691568" d="M9.334,8.687H5.4v2.666h4.621V13H3.346V3.047H10V4.708H5.4V7.08H9.334ZM14.9,10.532l2.256-7.485h2.283L15.972,13h-2.14L10.38,3.047h2.276Zm10.582.417h-3.6L21.2,13H19.021l3.705-9.953h1.9L28.352,13H26.171ZM22.439,9.288h2.488L23.676,5.563Zm14.513.4a3.522,3.522,0,0,1-1.186,2.529,4.165,4.165,0,0,1-2.82.923,3.745,3.745,0,0,1-3.011-1.289,5.284,5.284,0,0,1-1.1-3.538V7.7a5.966,5.966,0,0,1,.506-2.529,3.791,3.791,0,0,1,1.446-1.678,4.518,4.518,0,0,1,4.959.338,3.785,3.785,0,0,1,1.217,2.591H34.915a2.079,2.079,0,0,0-.537-1.4,1.987,1.987,0,0,0-1.4-.434,1.742,1.742,0,0,0-1.535.735,4.118,4.118,0,0,0-.523,2.28v.752a4.408,4.408,0,0,0,.489,2.358,1.71,1.71,0,0,0,1.542.745,2.025,2.025,0,0,0,1.418-.434A1.961,1.961,0,0,0,34.9,9.685Zm8.88-6.638V9.6a3.356,3.356,0,0,1-1.022,2.584,3.94,3.94,0,0,1-2.792.95,3.984,3.984,0,0,1-2.769-.923A3.3,3.3,0,0,1,38.2,9.678V3.047h2.051V9.616a1.9,1.9,0,0,0,.468,1.425,1.8,1.8,0,0,0,1.3.448q1.729,0,1.757-1.818V3.047Zm7.15,7.9h-3.6L48.7,13H46.522l3.705-9.953h1.9L55.853,13H53.672ZM49.94,9.288h2.488L51.177,5.563Zm14.513.4a3.522,3.522,0,0,1-1.186,2.529,4.165,4.165,0,0,1-2.82.923,3.745,3.745,0,0,1-3.011-1.289,5.284,5.284,0,0,1-1.1-3.538V7.7a5.966,5.966,0,0,1,.506-2.529A3.791,3.791,0,0,1,58.29,3.495a4.518,4.518,0,0,1,4.959.338,3.785,3.785,0,0,1,1.217,2.591H62.416a2.079,2.079,0,0,0-.537-1.4,1.987,1.987,0,0,0-1.4-.434,1.742,1.742,0,0,0-1.535.735,4.118,4.118,0,0,0-.523,2.28v.752a4.408,4.408,0,0,0,.489,2.358,1.71,1.71,0,0,0,1.542.745,2.025,2.025,0,0,0,1.418-.434A1.961,1.961,0,0,0,62.4,9.685ZM67.98,13H65.929V3.047H67.98ZM78.056,8.249a6.008,6.008,0,0,1-.52,2.577,3.913,3.913,0,0,1-1.487,1.709,4.393,4.393,0,0,1-4.426.007,3.951,3.951,0,0,1-1.5-1.7,5.836,5.836,0,0,1-.54-2.54V7.812a5.977,5.977,0,0,1,.53-2.587,3.945,3.945,0,0,1,1.5-1.716,4.387,4.387,0,0,1,4.423,0,3.945,3.945,0,0,1,1.5,1.716,5.96,5.96,0,0,1,.53,2.581ZM75.978,7.8a4.188,4.188,0,0,0-.561-2.379,1.98,1.98,0,0,0-3.192-.01,4.141,4.141,0,0,0-.567,2.355v.485a4.241,4.241,0,0,0,.561,2.365,1.963,1.963,0,0,0,3.2.031,4.216,4.216,0,0,0,.561-2.362ZM74.214.381h2.153L74.474,2.5H72.868ZM87.64,13H85.589L81.6,6.451V13H79.546V3.047H81.6l4,6.563V3.047H87.64Z" transform="translate(19.525 45.025)" fill="#7b6f78"/>
    </g>
  </g>
</svg>
