<svg xmlns="http://www.w3.org/2000/svg" width="165" height="165" viewBox="0 0 165 165">
  <g id="_24" data-name="24" transform="translate(-714 -4264)">
    <circle id="Elipse_5526" data-name="Elipse 5526" cx="82.5" cy="82.5" r="82.5" transform="translate(714 4264)" fill="#ccd3ca"/>
    <g id="plano-2" transform="translate(735.891 4286.891)">
      <path id="Trazado_691283" data-name="Trazado 691283" d="M135.237,60.134A60.155,60.155,0,0,1,97.23,116.067a6.827,6.827,0,0,1-9.359-6.332V106.51A62.624,62.624,0,0,0,25.248,43.886a5.689,5.689,0,0,1-5.19-8A60.15,60.15,0,0,1,74.381,0C107.58-.386,135.237,26.933,135.237,60.134Z" transform="translate(-14.969 0)" fill="#9bcf1b"/>
      <path id="Trazado_691284" data-name="Trazado 691284" d="M118.252,110.269v57.81a60.214,60.214,0,0,1-21.115,14.106,6.816,6.816,0,0,1-9.3-6.357V172.6A62.624,62.624,0,0,0,25.216,109.98a5.682,5.682,0,0,1-5.208-7.96A60.2,60.2,0,0,1,30.028,86.386h52.4V107.92H115.9A2.349,2.349,0,0,1,118.252,110.269Z" transform="translate(-14.937 -66.094)" fill="#94be36"/>
      <path id="Trazado_691285" data-name="Trazado 691285" d="M376.443,311.762a1.762,1.762,0,0,1-1.762,1.762H361.762a1.762,1.762,0,1,1,0-3.523h12.919A1.762,1.762,0,0,1,376.443,311.762ZM384.077,310H382.9a1.762,1.762,0,1,0,0,3.523h1.174a1.762,1.762,0,0,0,0-3.523Z" transform="translate(-275.437 -237.181)" fill="#e6f7be"/>
      <path id="Trazado_691286" data-name="Trazado 691286" d="M82.214,180.06V232.38A60.182,60.182,0,0,1,1.478,163.116,14.278,14.278,0,0,1,15.411,152h50.1A16.035,16.035,0,0,1,81.45,166.264,124.914,124.914,0,0,1,82.214,180.06Z" transform="translate(0 -116.295)" fill="#c8e2fd"/>
      <path id="Trazado_691287" data-name="Trazado 691287" d="M66.291,236.252a60.859,60.859,0,0,1-6.157.311A60.187,60.187,0,0,1,1.478,163.116,14.278,14.278,0,0,1,15.411,152H27.743a14.278,14.278,0,0,0-13.933,11.116,60.2,60.2,0,0,0,52.48,73.136Z" transform="translate(0 -116.295)" fill="#a7d0fc"/>
      <path id="Trazado_691288" data-name="Trazado 691288" d="M66.972,284.5H1.569q.2,1.778.5,3.523h6.77v10.57H4.891q.659,1.789,1.427,3.524H8.835v5.034a60.254,60.254,0,0,0,6.226,9.06h7.868v7.868a60.251,60.251,0,0,0,9.06,6.226h5.034v2.517q1.734.767,3.523,1.427v-3.944h10.57v6.77q1.745.3,3.523.5v-7.266H65.21v7.511q1.776-.113,3.523-.328V286.262A1.762,1.762,0,0,0,66.972,284.5ZM22.929,312.688H12.358v-10.57h10.57Zm0-14.094H12.358v-10.57h10.57Zm14.094,28.188H26.452v-10.57h10.57Zm0-14.094H26.452v-10.57h10.57Zm0-14.094H26.452v-10.57h10.57Zm14.094,28.188H40.546v-10.57h10.57Zm0-14.094H40.546v-10.57h10.57Zm0-14.094H40.546v-10.57h10.57ZM65.21,326.782H54.64v-10.57H65.21Zm0-14.094H54.64v-10.57H65.21Zm0-14.094H54.64v-10.57H65.21Z" transform="translate(-1.201 -217.671)" fill="#86befb"/>
      <path id="Trazado_691289" data-name="Trazado 691289" d="M437.5,222.769l-2.769,4.8h-5.538l-2.769-4.8,2.769-4.8h5.538Z" transform="translate(-326.256 -166.771)" fill="#c8e2fd"/>
      <path id="Trazado_691290" data-name="Trazado 691290" d="M442.784,233.39A2.215,2.215,0,1,1,445,231.174,2.215,2.215,0,0,1,442.784,233.39Z" transform="translate(-337.08 -175.177)" fill="#71892e"/>
      <path id="Trazado_691291" data-name="Trazado 691291" d="M286.31,40.523v8.827l-6.241,6.242h-8.827L265,49.349V40.523l6.242-6.242h8.827Z" transform="translate(-202.752 -26.228)" fill="#86befb"/>
      <path id="Trazado_691292" data-name="Trazado 691292" d="M300.358,65.21a4.431,4.431,0,1,1-4.431-4.431A4.431,4.431,0,0,1,300.358,65.21Z" transform="translate(-223.025 -46.502)" fill="#71892e"/>
      <path id="Trazado_691293" data-name="Trazado 691293" d="M283.314,35.866l-6.241-6.242a1.174,1.174,0,0,0-.831-.344h-8.827a1.175,1.175,0,0,0-.831.344l-6.242,6.242A1.174,1.174,0,0,0,260,36.7v8.827a1.176,1.176,0,0,0,.344.831l6.242,6.242a1.174,1.174,0,0,0,.831.344h8.827a1.176,1.176,0,0,0,.831-.344l6.242-6.242a1.174,1.174,0,0,0,.344-.831V36.7A1.174,1.174,0,0,0,283.314,35.866Zm-2,9.171-5.553,5.553H267.9l-5.554-5.553V37.183L267.9,31.63h7.854l5.553,5.553Zm-15.085-3.927a5.605,5.605,0,1,0,5.605-5.605A5.612,5.612,0,0,0,266.224,41.111Zm8.861,0a3.256,3.256,0,1,1-3.256-3.256A3.26,3.26,0,0,1,275.085,41.111Z" transform="translate(-198.926 -22.403)" fill="#a7d0fc"/>
      <path id="Trazado_691294" data-name="Trazado 691294" d="M145.642,373.523v4.7a3.524,3.524,0,0,1-3.523,3.523H62.252a3.524,3.524,0,0,1-3.523-3.523v-4.7A3.524,3.524,0,0,1,62.252,370h79.866A3.524,3.524,0,0,1,145.642,373.523Z" transform="translate(-44.934 -283.087)" fill="#e9cc5a"/>
      <path id="Trazado_691295" data-name="Trazado 691295" d="M145.642,343.523v10.57H58.729v-10.57A3.524,3.524,0,0,1,62.252,340H64.9l.656.364a2.369,2.369,0,0,0,2.444-.087l.424-.277h4.4l.933.423a2.368,2.368,0,0,0,2.55-.386l.041-.037h4.4l.51.313a2.368,2.368,0,0,0,2.437.024l.576-.338h4.4l.783.4a2.369,2.369,0,0,0,2.472-.2l.268-.2h4.4l.955.424A2.368,2.368,0,0,0,100.13,340h4.4l.783.4a2.368,2.368,0,0,0,2.472-.2l.268-.2h4.4l.28.168a2.879,2.879,0,0,0,2.963,0l.28-.168h4.4a2.879,2.879,0,0,0,3.01.258l.513-.258h4.4l.28.168a2.879,2.879,0,0,0,2.963,0l.28-.168h4.4a2.713,2.713,0,0,0,3.523,0h2.349A3.523,3.523,0,0,1,145.642,343.523Z" transform="translate(-44.934 -260.134)" fill="#fff04a"/>
      <path id="Trazado_691296" data-name="Trazado 691296" d="M92.907,340H96.43v5.285a1.762,1.762,0,0,1-3.523,0Zm7.928,5.285a1.762,1.762,0,0,0,3.523,0V340h-3.523Zm7.928,4.7a1.762,1.762,0,1,0,3.523,0V340h-3.523Zm7.928-4.7a1.762,1.762,0,0,0,3.523,0V340H116.69Zm-31.711,4.7a1.762,1.762,0,1,0,3.523,0V340H84.979Zm39.639-4.7a1.762,1.762,0,0,0,3.523,0V340h-3.523Zm7.928,4.7a1.762,1.762,0,1,0,3.523,0V340h-3.523Zm7.928-4.7a1.762,1.762,0,0,0,3.523,0V340h-3.523Zm7.928,0a1.762,1.762,0,0,0,3.523,0V340H148.4ZM156.33,340v9.983a1.762,1.762,0,1,0,3.523,0V340Z" transform="translate(-65.018 -260.134)" fill="#e1b91e"/>
      <path id="Trazado_691297" data-name="Trazado 691297" d="M333.867,247.974l-5.249,3.852a4.692,4.692,0,0,1-7.468-3.832l.068-6.51a5.687,5.687,0,0,1,7.656-2.463l2.53,1.3A5.687,5.687,0,0,1,333.867,247.974Z" transform="translate(-245.712 -182.394)" fill="#f5e8b4"/>
      <path id="Trazado_691298" data-name="Trazado 691298" d="M349.5,250.764l-5.249,3.852a4.637,4.637,0,0,1-2.518.911,6.466,6.466,0,0,1-.149-1.463l.091-8.734a7.6,7.6,0,0,1,3.277-3.291l2.085,1.07A5.687,5.687,0,0,1,349.5,250.764Z" transform="translate(-261.347 -185.183)" fill="#fff5f5"/>
      <path id="Trazado_691299" data-name="Trazado 691299" d="M361.35,31.879,334.089,85.005,321.44,78.515,348.7,25.389Z" transform="translate(-245.934 -19.425)" fill="#5f55af"/>
      <path id="Trazado_691300" data-name="Trazado 691300" d="M353.507,27.855,326.246,80.981l-4.806-2.466L348.7,25.389Z" transform="translate(-245.934 -19.425)" fill="#51489a"/>
      <path id="Trazado_691301" data-name="Trazado 691301" d="M451.892,9.045l-1.75,3.41-12.649-6.49,1.749-3.41A4.7,4.7,0,0,1,445.567.519l4.289,2.2a4.7,4.7,0,0,1,2.035,6.325Z" transform="translate(-334.727 0)" fill="#ea552d"/>
      <path id="Trazado_691302" data-name="Trazado 691302" d="M467.681,16.493,465.8,20.161l-7.842-4.024,1.882-3.668a4.407,4.407,0,0,1,7.842,4.024Z" transform="translate(-350.383 -7.706)" fill="#f76937"/>
      <path id="Trazado_691303" data-name="Trazado 691303" d="M446.27,25.89l-.338.66a1.762,1.762,0,0,1-2.372.763l-12.044-6.18a1.762,1.762,0,0,1-.763-2.372l.338-.66a1.762,1.762,0,0,1,2.372-.763l12.044,6.18A1.762,1.762,0,0,1,446.27,25.89Z" transform="translate(-329.421 -13.116)" fill="#86befb"/>
      <path id="Trazado_691304" data-name="Trazado 691304" d="M458.719,32.482l-.339.66a1.762,1.762,0,0,1-2.372.763l-8.021-4.116a2.132,2.132,0,1,1,1.947-3.795l8.021,4.116A1.761,1.761,0,0,1,458.719,32.482Z" transform="translate(-341.869 -19.708)" fill="#a7d0fc"/>
      <path id="Trazado_691305" data-name="Trazado 691305" d="M328.5,282.513l-5.855,4.3a1.137,1.137,0,0,1-1.81-.929l.076-7.262Z" transform="translate(-245.47 -213.171)" fill="#453d83"/>
      <path id="Trazado_691306" data-name="Trazado 691306" d="M72.758,175.49l-66.7-12.127A59.672,59.672,0,0,1,9.807,152H70.151a15.986,15.986,0,0,1,6.414,1.336S63.558,151.256,72.758,175.49Z" transform="translate(-4.638 -116.295)" fill="#e9f3fe"/>
      <path id="Trazado_691307" data-name="Trazado 691307" d="M134.111,175.49l-41.242-7.5A8.061,8.061,0,0,1,94.311,152H131.5a15.986,15.986,0,0,1,6.414,1.336S124.91,151.256,134.111,175.49Z" transform="translate(-65.99 -116.295)" fill="#fff5f5"/>
    </g>
  </g>
</svg>
