<svg xmlns="http://www.w3.org/2000/svg" width="165" height="165" viewBox="0 0 165 165">
  <g id="_25" data-name="25" transform="translate(-1069 -4264)">
    <circle id="Elipse_5527" data-name="Elipse 5527" cx="82.5" cy="82.5" r="82.5" transform="translate(1069 4264)" fill="#ccd3ca"/>
    <g id="extintor" transform="translate(1088 4283)">
      <path id="Trazado_691308" data-name="Trazado 691308" d="M127.565,63.783A63.783,63.783,0,1,1,63.783,0,63.782,63.782,0,0,1,127.565,63.783Zm0,0" fill="#00e8f2"/>
      <path id="Trazado_691309" data-name="Trazado 691309" d="M205.029,109.637a63.95,63.95,0,0,0-1.7-14.693L169.452,61.07l-21.708,5.8c-.094-.08-.189-.159-.286-.235a8.632,8.632,0,0,0-15.111,2.851h-5.416a19.583,19.583,0,0,0-19.561,19.56v22.507l-4.2,27.094,16.473,16.616v2.195l15.685,15.685c1.949.18,3.923.276,5.92.276A63.782,63.782,0,0,0,205.029,109.637Zm0,0" transform="translate(-77.464 -45.855)" fill="#00b7be"/>
      <path id="Trazado_691310" data-name="Trazado 691310" d="M124.9,138.754h-4.872V114.408a19.583,19.583,0,0,1,19.56-19.56h6.462V99.72h-6.462A14.7,14.7,0,0,0,124.9,114.408Zm0,0" transform="translate(-90.125 -71.216)" fill="#57555c"/>
      <path id="Trazado_691311" data-name="Trazado 691311" d="M278.984,104.625h23.589v4.3H278.984Zm0,0" transform="translate(-209.475 -78.558)" fill="#2a2a2c"/>
      <path id="Trazado_691312" data-name="Trazado 691312" d="M277.734,67.154l22.789-6.088,1.109,4.152-22.789,6.089Zm0,0" transform="translate(-208.537 -45.852)" fill="#2a2a2c"/>
      <path id="Trazado_691313" data-name="Trazado 691313" d="M230.43,127.32h11.516v7.512H230.43Zm0,0" transform="translate(-173.018 -95.598)" fill="#57555c"/>
      <path id="Trazado_691314" data-name="Trazado 691314" d="M253.539,127.32H259.3v7.512h-5.758Zm0,0" transform="translate(-190.369 -95.598)" fill="#2a2a2c"/>
      <path id="Trazado_691315" data-name="Trazado 691315" d="M211.269,226.286H169.285V173.726a20.992,20.992,0,1,1,41.984,0Zm0,0" transform="translate(-127.108 -114.68)" fill="#ff633e"/>
      <path id="Trazado_691316" data-name="Trazado 691316" d="M274.53,173.723v52.559H253.539V152.73a20.994,20.994,0,0,1,20.991,20.993Zm0,0" transform="translate(-190.369 -114.677)" fill="#ee2600"/>
      <path id="Trazado_691317" data-name="Trazado 691317" d="M219.867,271.074h29.381v32.131H219.867Zm0,0" transform="translate(-165.087 -203.536)" fill="#fff"/>
      <path id="Trazado_691318" data-name="Trazado 691318" d="M253.539,271.07H274.53V303.2H253.539Zm0,0" transform="translate(-190.369 -203.533)" fill="#fff5cb"/>
      <path id="Trazado_691319" data-name="Trazado 691319" d="M236.146,78.595a8.638,8.638,0,1,1-8.638-8.638A8.637,8.637,0,0,1,236.146,78.595Zm0,0" transform="translate(-164.339 -52.527)" fill="#78777f"/>
      <path id="Trazado_691320" data-name="Trazado 691320" d="M262.178,78.6a8.637,8.637,0,0,1-8.639,8.638V69.961A8.637,8.637,0,0,1,262.178,78.6Zm0,0" transform="translate(-190.369 -52.53)" fill="#57555c"/>
      <path id="Trazado_691321" data-name="Trazado 691321" d="M245.053,91.925a4.214,4.214,0,1,1-4.214-4.214A4.214,4.214,0,0,1,245.053,91.925Zm0,0" transform="translate(-177.67 -65.858)" fill="#fff"/>
      <path id="Trazado_691322" data-name="Trazado 691322" d="M257.752,91.924a4.213,4.213,0,0,1-4.213,4.215V87.711A4.213,4.213,0,0,1,257.752,91.924Zm0,0" transform="translate(-190.369 -65.858)" fill="#fff5cb"/>
      <path id="Trazado_691323" data-name="Trazado 691323" d="M112.242,263.691h-4.872l-4.2,27.094h13.275Zm0,0" transform="translate(-77.464 -197.992)" fill="#78777f"/>
    </g>
  </g>
</svg>
