<svg xmlns="http://www.w3.org/2000/svg" width="165" height="165" viewBox="0 0 165 165">
  <g id="_28" data-name="28" transform="translate(-2709 7436)">
    <circle id="Elipse_5528" data-name="Elipse 5528" cx="82.5" cy="82.5" r="82.5" transform="translate(2709 -7436)" fill="#ccd3ca"/>
    <g id="no-grupo" transform="translate(2728 -7417)">
      <path id="Trazado_691368" data-name="Trazado 691368" d="M127.565,63.783a63.574,63.574,0,0,1-17.2,43.567c-4.876,5.212-10.616,2.331-16.992,5.674q-.676.355-1.365.7a63.31,63.31,0,0,1-18.051,5.763q-1.555.25-3.134.424a64.323,64.323,0,0,1-6.862.386c-7.828-.015-12.839-1.281-19.763-3.877q-1.424-.534-2.813-1.134-2.22-.953-4.353-2.07-1.648-.86-3.241-1.816A64,64,0,0,1,17.787,97.755c-2.87-3.4-8.172.017-10.287-3.935A63.789,63.789,0,1,1,127.565,63.783Z" transform="translate(0)" fill="#e4f6ff"/>
      <path id="Trazado_691369" data-name="Trazado 691369" d="M167.4,374.17v29.556a72.5,72.5,0,0,1-10.178.714,70.035,70.035,0,0,1-32.776-7.983V374.17Z" transform="translate(-93.443 -280.945)" fill="#26457d"/>
      <g id="Grupo_947688" data-name="Grupo 947688" transform="translate(81.35 50.021)">
        <path id="Trazado_691370" data-name="Trazado 691370" d="M348.851,200.767h-5.487a16.855,16.855,0,0,0-16.855,16.855v16.355a16.855,16.855,0,0,0,16.855,16.855h5.487a16.855,16.855,0,0,0,16.855-16.855V217.622a16.855,16.855,0,0,0-16.855-16.855Z" transform="translate(-326.509 -200.767)" fill="#ffe07d"/>
        <path id="Trazado_691371" data-name="Trazado 691371" d="M351.48,250.626a16.679,16.679,0,0,1-2.629.205h-5.487a16.855,16.855,0,0,1-16.855-16.855V217.621a16.855,16.855,0,0,1,16.855-16.855h5.487a16.677,16.677,0,0,1,2.629.205,16.841,16.841,0,0,0-14.227,16.65v16.354A16.854,16.854,0,0,0,351.48,250.626Z" transform="translate(-326.509 -200.766)" fill="#ffc250"/>
        <path id="Trazado_691372" data-name="Trazado 691372" d="M365.057,425.6a64.035,64.035,0,0,1-16.992,12.949c-2.836,1.488-5.8-.618-8.865.435v-3.859a11.272,11.272,0,0,1,11.272-11.272h8.558A11.21,11.21,0,0,1,365.057,425.6Z" transform="translate(-336.038 -368.268)" fill="#ffe07d"/>
        <path id="Trazado_691373" data-name="Trazado 691373" d="M357.974,423.85A11.272,11.272,0,0,0,346.7,435.122v4.118a63.824,63.824,0,0,1-7.5,3.127v-7.245a11.27,11.27,0,0,1,11.272-11.272Z" transform="translate(-336.038 -368.268)" fill="#ffc250"/>
        <path id="Trazado_691374" data-name="Trazado 691374" d="M391.142,373.336v13.355a5.1,5.1,0,0,1-10.2,0V373.336Z" transform="translate(-367.379 -330.34)" fill="#ffddce"/>
        <g id="Grupo_947687" data-name="Grupo 947687" transform="translate(0.068 26.166)">
          <path id="Trazado_691375" data-name="Trazado 691375" d="M391.142,373.336v12.728a15.34,15.34,0,0,1-10.2-2.153V373.336Z" transform="translate(-367.448 -356.506)" fill="#ffcbbe"/>
          <path id="Trazado_691376" data-name="Trazado 691376" d="M383.341,394.145v12.5a5.1,5.1,0,0,1-2.4-4.326v-8.171Z" transform="translate(-367.447 -372.131)" fill="#ffcbbe"/>
          <path id="Trazado_691377" data-name="Trazado 691377" d="M364.647,313.734H330.756a3.973,3.973,0,0,1,0-7.946h33.891a3.973,3.973,0,0,1,0,7.946Z" transform="translate(-326.783 -305.788)" fill="#ffcbbe"/>
        </g>
        <path id="Trazado_691378" data-name="Trazado 691378" d="M337.615,318.317a1.7,1.7,0,0,1,0-3.394h33.891a1.7,1.7,0,1,1,0,3.394Z" transform="translate(-333.574 -286.481)" fill="#eaac9d"/>
        <path id="Trazado_691379" data-name="Trazado 691379" d="M382.5,264.486V275.35A15.333,15.333,0,0,1,370.954,290.2l-.016.005a15.34,15.34,0,0,1-19.089-14.859V264.486a15.325,15.325,0,0,1,15.325-15.325c.027,0,.058,0,.085,0a15.242,15.242,0,0,1,3.7.468c.066.016.131.033.194.052a15.326,15.326,0,0,1,11.349,14.8Z" transform="translate(-345.535 -237.103)" fill="#ffddce"/>
        <path id="Trazado_691380" data-name="Trazado 691380" d="M370.955,290.2l-.016.005a15.34,15.34,0,0,1-19.089-14.859V264.485a15.335,15.335,0,0,1,19.106-14.854,15.33,15.33,0,0,0-11.543,14.854v10.864A15.327,15.327,0,0,0,370.955,290.2Z" transform="translate(-345.535 -237.103)" fill="#ffcbbe"/>
        <path id="Trazado_691381" data-name="Trazado 691381" d="M391.562,298.115a1.946,1.946,0,0,1-1.946-1.946v-4.054a1.946,1.946,0,0,1,3.892,0v4.054A1.946,1.946,0,0,1,391.562,298.115Z" transform="translate(-373.893 -267.894)" fill="#21386b"/>
        <path id="Trazado_691382" data-name="Trazado 691382" d="M439.724,298.115a1.946,1.946,0,0,1-1.946-1.946v-4.054a1.946,1.946,0,0,1,3.892,0v4.054A1.946,1.946,0,0,1,439.724,298.115Z" transform="translate(-410.055 -267.894)" fill="#21386b"/>
        <path id="Trazado_691383" data-name="Trazado 691383" d="M417.588,249.692v21.614H413.7V249.172a15.242,15.242,0,0,1,3.7.468C417.459,249.657,417.525,249.673,417.588,249.692Z" transform="translate(-391.974 -237.112)" fill="#ffcbbe"/>
        <path id="Trazado_691384" data-name="Trazado 691384" d="M404.092,370.308h-4.054a1.5,1.5,0,1,1,0-3.007h4.054a1.5,1.5,0,0,1,0,3.007Z" transform="translate(-380.589 -325.809)" fill="#ffcbbe"/>
        <path id="Trazado_691385" data-name="Trazado 691385" d="M414.843,326.544h-3.135a2.18,2.18,0,1,0,0,4.36h3.135a2.18,2.18,0,1,0,0-4.36Z" transform="translate(-388.844 -295.206)" fill="#ffcbbe"/>
        <path id="Trazado_691386" data-name="Trazado 691386" d="M374.932,253.9H358.181v-9.227h24.037v1.94A7.287,7.287,0,0,1,374.932,253.9Z" transform="translate(-350.29 -233.736)" fill="#ffe07d"/>
        <path id="Trazado_691387" data-name="Trazado 691387" d="M354.02,283.571a1.979,1.979,0,0,1-1.979-1.979v-15.35H356v15.35A1.979,1.979,0,0,1,354.02,283.571Z" transform="translate(-345.68 -249.929)" fill="#ffc250"/>
        <path id="Trazado_691388" data-name="Trazado 691388" d="M357.491,236.9a16.813,16.813,0,0,0-1.068,5.914v3.31l-4.383,1.214.285-13.02Z" transform="translate(-345.679 -225.962)" fill="#ffc250"/>
      </g>
      <g id="Grupo_947690" data-name="Grupo 947690" transform="translate(58.071 27.287)">
        <path id="Trazado_691389" data-name="Trazado 691389" d="M272.857,148.107V127.558a18.036,18.036,0,1,0-36.073,0v20.308a4.158,4.158,0,0,0,.449,8.291H271.4a4.158,4.158,0,0,0,1.461-8.051Z" transform="translate(-233.076 -109.521)" fill="#26457d"/>
        <path id="Trazado_691390" data-name="Trazado 691390" d="M247.854,152a4.154,4.154,0,0,0,4.157,4.158H237.233a4.158,4.158,0,0,1-.449-8.291V127.556a18.053,18.053,0,0,1,22.166-17.562,18.052,18.052,0,0,0-13.907,17.562v20.308C242.959,148.089,247.854,149.853,247.854,152Z" transform="translate(-233.075 -109.519)" fill="#21386b"/>
        <path id="Trazado_691391" data-name="Trazado 691391" d="M285.226,333.211V362.4a63.658,63.658,0,0,1-29.594,7.268h-.122V333.211a10.771,10.771,0,0,1,10.771-10.771h8.175a10.771,10.771,0,0,1,10.771,10.771Z" transform="translate(-249.92 -269.39)" fill="#78c2a4"/>
        <path id="Trazado_691392" data-name="Trazado 691392" d="M273.446,322.44a10.771,10.771,0,0,0-10.771,10.771v36.072a63.862,63.862,0,0,1-7.044.386h-.122V333.211a10.769,10.769,0,0,1,10.771-10.771Z" transform="translate(-249.92 -269.39)" fill="#66b394"/>
        <path id="Trazado_691393" data-name="Trazado 691393" d="M305.141,274.178v12.76a4.873,4.873,0,0,1-9.746,0v-12.76Z" transform="translate(-279.868 -233.153)" fill="#ffddce"/>
        <g id="Grupo_947689" data-name="Grupo 947689" transform="translate(2.635 24.946)">
          <path id="Trazado_691394" data-name="Trazado 691394" d="M305.141,274.178v12.161a14.654,14.654,0,0,1-9.746-2.057v-10.1Z" transform="translate(-282.503 -258.099)" fill="#ffcbbe"/>
          <path id="Trazado_691395" data-name="Trazado 691395" d="M297.688,294.059V306a4.869,4.869,0,0,1-2.293-4.133v-7.806Z" transform="translate(-282.503 -273.026)" fill="#ffcbbe"/>
          <path id="Trazado_691396" data-name="Trazado 691396" d="M279.827,217.234h-32.38a3.8,3.8,0,0,1,0-7.592h32.38a3.8,3.8,0,0,1,0,7.592Z" transform="translate(-243.652 -209.642)" fill="#ffcbbe"/>
        </g>
        <path id="Trazado_691397" data-name="Trazado 691397" d="M254,221.613a1.621,1.621,0,0,1,0-3.243h32.38a1.621,1.621,0,1,1,0,3.243Z" transform="translate(-247.569 -191.25)" fill="#eaac9d"/>
        <path id="Trazado_691398" data-name="Trazado 691398" d="M296.882,175.922v14.2a14.641,14.641,0,1,1-29.282,0v-14.2a14.715,14.715,0,0,1,.177-2.281h12.108a8.554,8.554,0,0,0,7.924-5.364,8.54,8.54,0,0,0,7.926,5.365h.968A14.71,14.71,0,0,1,296.882,175.922Z" transform="translate(-258.998 -153.637)" fill="#ffddce"/>
        <path id="Trazado_691399" data-name="Trazado 691399" d="M285.949,220.458a14.65,14.65,0,0,1-18.35-14.166v-14.2a14.715,14.715,0,0,1,.177-2.281h7.416a14.715,14.715,0,0,0-.177,2.281v14.2A14.646,14.646,0,0,0,285.949,220.458Z" transform="translate(-258.997 -169.804)" fill="#ffcbbe"/>
        <path id="Trazado_691400" data-name="Trazado 691400" d="M330.408,179.262V194.5h-3.719V181.535A8.5,8.5,0,0,0,330.408,179.262Z" transform="translate(-303.365 -161.885)" fill="#ffcbbe"/>
        <path id="Trazado_691401" data-name="Trazado 691401" d="M327.785,229.472h-3a2.083,2.083,0,0,0,0,4.166h3a2.083,2.083,0,1,0,0-4.166Z" transform="translate(-300.375 -199.586)" fill="#ffcbbe"/>
        <path id="Trazado_691402" data-name="Trazado 691402" d="M292.335,198.586a3.868,3.868,0,0,1-2.743-1.135,1.183,1.183,0,1,1,1.673-1.673,1.516,1.516,0,0,0,2.141,0,1.183,1.183,0,1,1,1.673,1.673A3.867,3.867,0,0,1,292.335,198.586Z" transform="translate(-275.251 -174.027)" fill="#26457d"/>
        <path id="Trazado_691403" data-name="Trazado 691403" d="M357.12,198.587a3.869,3.869,0,0,1-2.743-1.134,1.183,1.183,0,1,1,1.673-1.673,1.516,1.516,0,0,0,2.141,0,1.183,1.183,0,1,1,1.673,1.673A3.868,3.868,0,0,1,357.12,198.587Z" transform="translate(-323.894 -174.028)" fill="#26457d"/>
        <path id="Trazado_691404" data-name="Trazado 691404" d="M324.618,260.169a6.387,6.387,0,0,1-9.023,0,1.1,1.1,0,0,1,1.553-1.553,4.188,4.188,0,0,0,5.916,0,1.1,1.1,0,0,1,1.553,1.553Z" transform="translate(-294.794 -221.227)" fill="#ffcbbe"/>
        <path id="Trazado_691405" data-name="Trazado 691405" d="M305.541,202.311a1.859,1.859,0,0,1-1.859-1.859v-3.873a1.859,1.859,0,1,1,3.718,0v3.873A1.859,1.859,0,0,1,305.541,202.311Z" transform="translate(-286.09 -173.492)" fill="#21386b"/>
        <path id="Trazado_691406" data-name="Trazado 691406" d="M351.555,202.311a1.859,1.859,0,0,1-1.859-1.859v-3.873a1.859,1.859,0,1,1,3.718,0v3.873A1.859,1.859,0,0,1,351.555,202.311Z" transform="translate(-320.64 -173.492)" fill="#21386b"/>
      </g>
      <g id="Grupo_947691" data-name="Grupo 947691" transform="translate(29.833 0)">
        <path id="Trazado_691407" data-name="Trazado 691407" d="M196.32,170.327v13.355a5.1,5.1,0,0,1-10.2,0V170.327Z" transform="translate(-169.58 -127.89)" fill="#ffddce"/>
        <path id="Trazado_691408" data-name="Trazado 691408" d="M196.32,170.327v12.728a15.34,15.34,0,0,1-10.2-2.153V170.327Z" transform="translate(-169.58 -127.89)" fill="#ffcbbe"/>
        <path id="Trazado_691409" data-name="Trazado 691409" d="M188.519,191.136v12.5a5.1,5.1,0,0,1-2.4-4.326v-8.171Z" transform="translate(-169.58 -143.514)" fill="#ffcbbe"/>
        <path id="Trazado_691410" data-name="Trazado 691410" d="M138.17,27.039A11.575,11.575,0,0,0,126.9,35.98l-2.717-2.717a6.209,6.209,0,0,0-1.168,7.156h-3.278a6.209,6.209,0,0,0,6.859,6.174v1.1h18.951V27.039Z" transform="translate(-119.739 -20.302)" fill="#21386b"/>
        <path id="Trazado_691411" data-name="Trazado 691411" d="M144.359,112.978a6.208,6.208,0,0,0,8.779,8.779" transform="translate(-136.86 -84.829)" fill="#26457d"/>
        <path id="Trazado_691412" data-name="Trazado 691412" d="M169.825,110.725H135.934a3.973,3.973,0,0,1,0-7.946h33.891a3.973,3.973,0,0,1,0,7.946Z" transform="translate(-128.916 -77.171)" fill="#ffcbbe"/>
        <path id="Trazado_691413" data-name="Trazado 691413" d="M142.792,115.308a1.7,1.7,0,0,1,0-3.394h33.891a1.7,1.7,0,1,1,0,3.394Z" transform="translate(-135.774 -84.03)" fill="#eaac9d"/>
        <path id="Trazado_691414" data-name="Trazado 691414" d="M172.353,87.67a15.324,15.324,0,0,1-15.324-15.324V61.482a15.324,15.324,0,0,1,15.324-15.324h8.54a6.784,6.784,0,0,1,6.784,6.784v19.4A15.324,15.324,0,0,1,172.353,87.67Z" transform="translate(-147.738 -34.658)" fill="#ffddce"/>
        <path id="Trazado_691415" data-name="Trazado 691415" d="M176.134,87.2a15.339,15.339,0,0,1-19.105-14.853V61.479a15.324,15.324,0,0,1,15.325-15.325h7.56A15.324,15.324,0,0,0,164.59,61.479V72.343A15.327,15.327,0,0,0,176.134,87.2Z" transform="translate(-147.738 -34.655)" fill="#ffcbbe"/>
        <path id="Trazado_691416" data-name="Trazado 691416" d="M196.739,95.106a1.946,1.946,0,0,1-1.946-1.946V89.106a1.946,1.946,0,0,1,3.892,0V93.16A1.946,1.946,0,0,1,196.739,95.106Z" transform="translate(-176.093 -65.444)" fill="#21386b"/>
        <path id="Trazado_691417" data-name="Trazado 691417" d="M244.9,95.106a1.946,1.946,0,0,1-1.946-1.946V89.106a1.946,1.946,0,0,1,3.892,0V93.16A1.946,1.946,0,0,1,244.9,95.106Z" transform="translate(-212.256 -65.444)" fill="#21386b"/>
        <path id="Trazado_691418" data-name="Trazado 691418" d="M222.766,68.292h-3.892V48.1a1.946,1.946,0,0,1,3.892,0Z" transform="translate(-194.174 -34.657)" fill="#ffcbbe"/>
        <path id="Trazado_691419" data-name="Trazado 691419" d="M209.27,167.3h-4.054a1.5,1.5,0,1,1,0-3.007h4.054a1.5,1.5,0,1,1,0,3.007Z" transform="translate(-182.79 -123.358)" fill="#ffcbbe"/>
        <path id="Trazado_691420" data-name="Trazado 691420" d="M158.235,34.86v2.31a7.788,7.788,0,0,0-5.108,7.313v7.3H154.2a6.954,6.954,0,0,0,6.954-6.954V40.157h3.266a5.167,5.167,0,0,0,5.167-5.167V34.86H158.235Z" transform="translate(-144.808 -26.175)" fill="#21386b"/>
        <path id="Trazado_691421" data-name="Trazado 691421" d="M224.639,8.362,228.1,4.9a8.362,8.362,0,0,0-11.826,0V0a8.362,8.362,0,0,0,0,16.724H233A8.362,8.362,0,0,0,224.639,8.362Z" transform="translate(-185.946)" fill="#26457d"/>
        <path id="Trazado_691422" data-name="Trazado 691422" d="M220.021,123.535h-3.135a2.18,2.18,0,0,0,0,4.36h3.135a2.18,2.18,0,0,0,0-4.36Z" transform="translate(-191.045 -92.756)" fill="#ffcbbe"/>
      </g>
      <g id="Grupo_947693" data-name="Grupo 947693" transform="translate(4.338 13.756)">
        <path id="Trazado_691423" data-name="Trazado 691423" d="M39.752,55.213H34.265A16.855,16.855,0,0,0,17.41,72.068V88.424a16.855,16.855,0,0,0,16.855,16.855h5.487A16.855,16.855,0,0,0,56.607,88.424V72.068A16.855,16.855,0,0,0,39.752,55.213Z" transform="translate(-17.41 -55.213)" fill="#98695e"/>
        <path id="Trazado_691424" data-name="Trazado 691424" d="M42.381,105.072a16.678,16.678,0,0,1-2.629.205H34.265A16.855,16.855,0,0,1,17.41,88.422V72.067A16.855,16.855,0,0,1,34.265,55.212h5.487a16.678,16.678,0,0,1,2.629.205,16.841,16.841,0,0,0-14.227,16.65V88.421a16.854,16.854,0,0,0,14.227,16.65Z" transform="translate(-17.41 -55.212)" fill="#664545"/>
        <path id="Trazado_691425" data-name="Trazado 691425" d="M61.2,289.572v37.913c-1.48-.635-2.933,2.544-4.353,1.8q-1.648-.86-3.241-1.816A64.09,64.09,0,0,1,30.1,302.782v-13.21A11.272,11.272,0,0,1,41.372,278.3H49.93A11.272,11.272,0,0,1,61.2,289.572Z" transform="translate(-26.938 -222.717)" fill="#ffe07d"/>
        <path id="Trazado_691426" data-name="Trazado 691426" d="M48.874,278.29A11.274,11.274,0,0,0,37.6,289.564v24.26a63.736,63.736,0,0,1-7.5-11.05v-13.21A11.272,11.272,0,0,1,41.372,278.29Z" transform="translate(-26.938 -222.71)" fill="#ffc250"/>
        <path id="Trazado_691427" data-name="Trazado 691427" d="M82.043,227.782v13.355a5.1,5.1,0,0,1-10.2,0V227.782Z" transform="translate(-58.28 -184.786)" fill="#ffddce"/>
        <g id="Grupo_947692" data-name="Grupo 947692" transform="translate(0.068 26.166)">
          <path id="Trazado_691428" data-name="Trazado 691428" d="M82.043,227.782V240.51a15.341,15.341,0,0,1-10.2-2.153V227.782Z" transform="translate(-58.348 -210.952)" fill="#ffcbbe"/>
          <path id="Trazado_691429" data-name="Trazado 691429" d="M74.242,248.591v12.5a5.1,5.1,0,0,1-2.4-4.326v-8.171Z" transform="translate(-58.348 -226.577)" fill="#ffcbbe"/>
          <path id="Trazado_691430" data-name="Trazado 691430" d="M55.548,168.18H21.657a3.973,3.973,0,1,1,0-7.946H55.548a3.973,3.973,0,0,1,0,7.946Z" transform="translate(-17.684 -160.234)" fill="#ffcbbe"/>
        </g>
        <path id="Trazado_691431" data-name="Trazado 691431" d="M28.515,172.763a1.7,1.7,0,1,1,0-3.394H62.406a1.7,1.7,0,0,1,0,3.394Z" transform="translate(-24.474 -140.927)" fill="#eaac9d"/>
        <path id="Trazado_691432" data-name="Trazado 691432" d="M73.4,118.932V129.8A15.333,15.333,0,0,1,61.855,144.65l-.016.005A15.34,15.34,0,0,1,42.749,129.8V118.932a15.325,15.325,0,0,1,15.325-15.325c.027,0,.058,0,.085,0a15.241,15.241,0,0,1,3.7.468c.066.016.131.033.194.052a15.326,15.326,0,0,1,11.349,14.8Z" transform="translate(-36.436 -91.549)" fill="#ffddce"/>
        <path id="Trazado_691433" data-name="Trazado 691433" d="M61.855,144.649l-.016.005A15.34,15.34,0,0,1,42.749,129.8V118.931a15.335,15.335,0,0,1,19.106-14.854,15.33,15.33,0,0,0-11.543,14.854V129.8a15.327,15.327,0,0,0,11.543,14.854Z" transform="translate(-36.436 -91.549)" fill="#ffcbbe"/>
        <path id="Trazado_691434" data-name="Trazado 691434" d="M82.462,152.561a1.946,1.946,0,0,1-1.946-1.946v-4.054a1.946,1.946,0,0,1,3.892,0v4.054A1.946,1.946,0,0,1,82.462,152.561Z" transform="translate(-64.793 -122.34)" fill="#21386b"/>
        <path id="Trazado_691435" data-name="Trazado 691435" d="M130.624,152.561a1.946,1.946,0,0,1-1.946-1.946v-4.054a1.946,1.946,0,0,1,3.892,0v4.054A1.946,1.946,0,0,1,130.624,152.561Z" transform="translate(-100.955 -122.34)" fill="#21386b"/>
        <path id="Trazado_691436" data-name="Trazado 691436" d="M108.489,104.138v21.614H104.6V103.618a15.241,15.241,0,0,1,3.7.468C108.36,104.1,108.426,104.119,108.489,104.138Z" transform="translate(-82.875 -91.558)" fill="#ffcbbe"/>
        <path id="Trazado_691437" data-name="Trazado 691437" d="M105.744,180.99h-3.135a2.18,2.18,0,0,0,0,4.36h3.135a2.18,2.18,0,0,0,0-4.36Z" transform="translate(-79.745 -149.652)" fill="#ffcbbe"/>
        <path id="Trazado_691438" data-name="Trazado 691438" d="M65.832,108.349H49.081V99.122H73.118v1.94A7.287,7.287,0,0,1,65.832,108.349Z" transform="translate(-41.19 -88.182)" fill="#98695e"/>
        <path id="Trazado_691439" data-name="Trazado 691439" d="M44.921,138.017a1.979,1.979,0,0,1-1.979-1.979v-15.35H46.9v15.35A1.979,1.979,0,0,1,44.921,138.017Z" transform="translate(-36.581 -104.375)" fill="#664545"/>
        <path id="Trazado_691440" data-name="Trazado 691440" d="M48.392,91.35a16.813,16.813,0,0,0-1.068,5.914v3.31l-4.383,1.214.285-13.02Z" transform="translate(-36.58 -80.407)" fill="#664545"/>
        <path id="Trazado_691441" data-name="Trazado 691441" d="M100.138,214.474a6.387,6.387,0,0,1-9.023,0,1.1,1.1,0,1,1,1.553-1.553,4.188,4.188,0,0,0,5.916,0,1.1,1.1,0,1,1,1.553,1.553Z" transform="translate(-72.51 -173.386)" fill="#ffcbbe"/>
      </g>
      <g id="Grupo_947695" data-name="Grupo 947695" transform="translate(28.557 50.792)">
        <path id="Trazado_691442" data-name="Trazado 691442" d="M135.833,203.859a21.215,21.215,0,0,0-21.215,21.215v18.157a13.443,13.443,0,0,0,13.443,13.443H143.6a13.443,13.443,0,0,0,13.443-13.443V225.074a21.215,21.215,0,0,0-21.215-21.215Z" transform="translate(-114.618 -203.859)" fill="#9d66d5"/>
        <path id="Trazado_691443" data-name="Trazado 691443" d="M140.35,256.675H128.062a13.443,13.443,0,0,1-13.444-13.444V225.075a21.233,21.233,0,0,1,27.361-20.311,21.222,21.222,0,0,0-15.07,20.311v18.156A13.442,13.442,0,0,0,140.35,256.675Z" transform="translate(-114.618 -203.86)" fill="#734a9b"/>
        <path id="Trazado_691444" data-name="Trazado 691444" d="M167.176,432.768v11.655h-.3a63.468,63.468,0,0,1-29.412-7.24v-4.415A10.77,10.77,0,0,1,148.231,422h8.175A10.77,10.77,0,0,1,167.176,432.768Z" transform="translate(-131.769 -367.65)" fill="#dd5790"/>
        <path id="Trazado_691445" data-name="Trazado 691445" d="M155.4,421.99a10.771,10.771,0,0,0-10.771,10.771v7.619a63.773,63.773,0,0,1-7.166-3.2v-4.415a10.769,10.769,0,0,1,10.771-10.771Z" transform="translate(-131.769 -367.642)" fill="#9d549b"/>
        <path id="Trazado_691446" data-name="Trazado 691446" d="M187.09,373.734v12.76a4.873,4.873,0,0,1-9.746,0v-12.76Z" transform="translate(-161.716 -331.409)" fill="#ffddce"/>
        <g id="Grupo_947694" data-name="Grupo 947694" transform="translate(2.736 26.246)">
          <path id="Trazado_691447" data-name="Trazado 691447" d="M187.09,373.734v12.161a14.654,14.654,0,0,1-9.746-2.057v-10.1Z" transform="translate(-164.452 -357.655)" fill="#ffcbbe"/>
          <path id="Trazado_691448" data-name="Trazado 691448" d="M179.638,393.615v11.94a4.869,4.869,0,0,1-2.293-4.133v-7.806Z" transform="translate(-164.453 -372.583)" fill="#ffcbbe"/>
          <path id="Trazado_691449" data-name="Trazado 691449" d="M161.777,316.791H129.4a3.8,3.8,0,1,1,0-7.592h32.38a3.8,3.8,0,1,1,0,7.592Z" transform="translate(-125.601 -309.199)" fill="#ffcbbe"/>
        </g>
        <path id="Trazado_691450" data-name="Trazado 691450" d="M135.949,321.169a1.621,1.621,0,1,1,0-3.243h32.38a1.621,1.621,0,0,1,0,3.243Z" transform="translate(-129.417 -289.506)" fill="#eaac9d"/>
        <path id="Trazado_691451" data-name="Trazado 691451" d="M178.831,275.478v14.2a14.641,14.641,0,1,1-29.282,0v-14.2a14.714,14.714,0,0,1,.177-2.281h12.108a8.554,8.554,0,0,0,7.924-5.365,8.54,8.54,0,0,0,7.926,5.365h.968A14.681,14.681,0,0,1,178.831,275.478Z" transform="translate(-140.846 -251.894)" fill="#ffddce"/>
        <path id="Trazado_691452" data-name="Trazado 691452" d="M167.9,320.014a14.65,14.65,0,0,1-18.35-14.166v-14.2a14.715,14.715,0,0,1,.177-2.281h7.416a14.716,14.716,0,0,0-.177,2.281v14.2A14.646,14.646,0,0,0,167.9,320.014Z" transform="translate(-140.846 -268.06)" fill="#ffcbbe"/>
        <path id="Trazado_691453" data-name="Trazado 691453" d="M212.357,278.818v15.239h-3.719V281.09A8.5,8.5,0,0,0,212.357,278.818Z" transform="translate(-185.213 -260.142)" fill="#ffcbbe"/>
        <path id="Trazado_691454" data-name="Trazado 691454" d="M209.734,329.029h-3a2.083,2.083,0,1,0,0,4.166h3a2.083,2.083,0,1,0,0-4.166Z" transform="translate(-182.223 -297.843)" fill="#ffcbbe"/>
        <path id="Trazado_691455" data-name="Trazado 691455" d="M174.284,298.143a3.867,3.867,0,0,1-2.743-1.135,1.183,1.183,0,1,1,1.673-1.673,1.516,1.516,0,0,0,2.141,0,1.183,1.183,0,0,1,1.673,1.673A3.868,3.868,0,0,1,174.284,298.143Z" transform="translate(-157.098 -272.284)" fill="#734a9b"/>
        <path id="Trazado_691456" data-name="Trazado 691456" d="M239.07,298.144a3.868,3.868,0,0,1-2.743-1.134A1.183,1.183,0,0,1,238,295.337a1.516,1.516,0,0,0,2.141,0,1.183,1.183,0,0,1,1.673,1.673A3.868,3.868,0,0,1,239.07,298.144Z" transform="translate(-205.743 -272.285)" fill="#734a9b"/>
        <path id="Trazado_691457" data-name="Trazado 691457" d="M187.359,356.028a6.387,6.387,0,0,1-6.38-6.38,1.1,1.1,0,0,1,2.2,0,4.188,4.188,0,0,0,4.183,4.183,1.1,1.1,0,0,1,0,2.2Z" transform="translate(-164.445 -312.5)" fill="#ffcbbe"/>
        <path id="Trazado_691458" data-name="Trazado 691458" d="M187.49,301.867a1.859,1.859,0,0,1-1.859-1.859v-3.873a1.859,1.859,0,0,1,3.718,0v3.873A1.859,1.859,0,0,1,187.49,301.867Z" transform="translate(-167.938 -271.748)" fill="#21386b"/>
        <path id="Trazado_691459" data-name="Trazado 691459" d="M233.505,301.867a1.859,1.859,0,0,1-1.859-1.859v-3.873a1.859,1.859,0,0,1,3.718,0v3.873A1.859,1.859,0,0,1,233.505,301.867Z" transform="translate(-202.488 -271.748)" fill="#21386b"/>
      </g>
    </g>
  </g>
</svg>
