<svg xmlns="http://www.w3.org/2000/svg" width="295" height="228.035" viewBox="0 0 295 228.035">
  <g id="_3" data-name="3" transform="translate(0)">
    <g id="Grupo_946225" data-name="Grupo 946225" transform="translate(0)">
      <path id="Trazado_689830" data-name="Trazado 689830" d="M-2245.251-351.88c2.494-6.748,15.883-3.986,28.09-8.871,24.6-9.845,42.242-49.887,33.264-77.617-7.189-22.207-25.983-19.632-42.874-52.484-9.542-18.56-5.562-23.3-14.784-33.265-19.186-20.72-58.366-23.891-70.225-9.61-5.585,6.725-2.632,14.336-8.131,17-7.976,3.867-16.46-11.04-36.221-17.741-17.952-6.088-42.228-4.392-51.745,8.131-6.255,8.231-.893,14.243-7.392,22.176-9.962,12.16-27.043,3.5-39.917,13.306-14.782,11.255-12.119,37.786-11.088,48.049,3.929,39.141,30.552,65.586,39.178,73.921,69.143,66.81,188.786,53.305,192.565,37.7C-2233.1-337.09-2248.009-344.419-2245.251-351.88Z" transform="translate(2472.946 542.484)" fill="#6cd2f5"/>
      <path id="Trazado_689831" data-name="Trazado 689831" d="M-2495.747,381.152c.687,3.975,7.347,8.449,33.26,10.835,20.093,5.517,32.887,4.1,39.246,2.793,4.142-.852,12.313-2.536,13.446-7.27a6.259,6.259,0,0,0-2-6,5.794,5.794,0,0,0-2.276-1.158,10.037,10.037,0,0,0,.822-7.929c-.942-2.979-3.633-6.379-7.813-6.722a8.647,8.647,0,0,0-4.675.955c-.6-3.151-2.265-8.449-6.956-11.677-8.354-5.749-20.942-1.238-26.894,6.178a20.075,20.075,0,0,0-3.138,5.553,9.78,9.78,0,0,0-3.04-2.827c-5.249-3.071-11.955.008-15.446,3.089a15.734,15.734,0,0,0-3.233,3.983,7.237,7.237,0,0,0-3.491-.35C-2492.773,371.382-2496.359,377.612-2495.747,381.152Z" transform="translate(2704.653 -240.776)" fill="#fff"/>
      <path id="Trazado_689832" data-name="Trazado 689832" d="M-1789.407,548.525a.827.827,0,0,0,.825-.786.827.827,0,0,0-.785-.867c-24.8-1.233-87.984-5.624-138.886-19.73-15.948-4.42-34.746-10.831-53.246-24.874a128.989,128.989,0,0,1-23.36-22.862,123.781,123.781,0,0,1-18.386-32.8.827.827,0,0,0-1.065-.484.826.826,0,0,0-.483,1.065,125.43,125.43,0,0,0,18.631,33.234,130.667,130.667,0,0,0,23.663,23.16c18.723,14.212,37.705,20.689,53.8,25.15,51.062,14.151,114.389,18.553,139.245,19.788Z" transform="translate(2024.845 -322.79)" fill="#535e7c"/>
      <path id="Trazado_689833" data-name="Trazado 689833" d="M-1843.006,461.809a.827.827,0,0,0,.826-.812.827.827,0,0,0-.812-.842c-43.554-.8-84.78-8.44-122.531-22.707-47.373-17.9-65.889-37.594-71.974-44.064a153.7,153.7,0,0,1-17.912-23.136.827.827,0,0,0-1.141-.257.827.827,0,0,0-.257,1.141,155.333,155.333,0,0,0,18.105,23.386,134.545,134.545,0,0,0,23.179,19.615c13.566,9.233,30.192,17.6,49.415,24.863a349.335,349.335,0,0,0,66.029,17.641,392.788,392.788,0,0,0,57.056,5.174Z" transform="translate(2082.447 -256.083)" fill="#535e7c"/>
      <path id="Trazado_689834" data-name="Trazado 689834" d="M-495.93,498.624c1.567,2.788,3.4,5.819,5.521,9.01l34.623-16.348q-3.655-2.705-7.17-5.42C-470.179,488.7-486.487,494.99-495.93,498.624Z" transform="translate(501.379 -357.619)" fill="#4887c8"/>
      <path id="Trazado_689835" data-name="Trazado 689835" d="M-678.49,621.624q2.2,2.525,4.649,5.068,3,3.109,6.079,5.9l35.941-25.655q-5.311-3.407-10.39-6.894C-649.4,604.313-667.158,614.854-678.49,621.624Z" transform="translate(700.18 -457.56)" fill="#4887c8"/>
      <path id="Trazado_689836" data-name="Trazado 689836" d="M-850.954,740.428a131.094,131.094,0,0,0,14.351,9.046l32.313-30.648q-4.987-2.753-9.807-5.614Z" transform="translate(894.158 -556.614)" fill="#4887c8"/>
      <path id="Trazado_689837" data-name="Trazado 689837" d="M-1062.266,843.333c4.616,2.059,9.3,3.894,14.052,5.575h0l33.861-28.348q-6.64-2.973-13.032-6.17Z" transform="translate(1130.573 -645.173)" fill="#4887c8"/>
      <path id="Trazado_689838" data-name="Trazado 689838" d="M-1434.194,992.1c4.452.989,9.281,1.975,14.424,2.922l19.517-27.69q-7.292-1.982-14.36-4.286Z" transform="translate(1562.857 -775.287)" fill="#4887c8"/>
      <path id="Trazado_689839" data-name="Trazado 689839" d="M-1635.581,1050.066c5.343.755,10.9,1.44,16.609,2.023l10.041-26.973q-6.305-1.132-12.464-2.521Z" transform="translate(1796.651 -827.413)" fill="#4887c8"/>
      <path id="Trazado_689840" data-name="Trazado 689840" d="M-1835.235,1081.8c4.552.322,9.177.572,13.85.734l8.208-25.472q-7.76-.7-15.32-1.8Z" transform="translate(2025.796 -856.004)" fill="#4887c8"/>
      <path id="Trazado_689841" data-name="Trazado 689841" d="M-1998.749,1099.922q5.345.039,10.734-.093c2.555-7.594,5.8-17.668,7.978-24.5q-4.748-.081-9.578-.327-1-.051-2-.11C-1993.582,1081.407-1996.555,1092.006-1998.749,1099.922Z" transform="translate(2213.047 -873.188)" fill="#4887c8"/>
      <path id="Trazado_689842" data-name="Trazado 689842" d="M-495.93,536.665v4.1l5.133,7.265,33.64-16.5,1.37-2.208-34.623,16.348C-492.534,542.485-494.363,539.453-495.93,536.665Z" transform="translate(501.379 -395.66)" fill="#43334c"/>
      <path id="Trazado_689843" data-name="Trazado 689843" d="M-678.49,670.011l1.147,4.293,9.255,9.154,35.683-26.512.585-1.618-35.941,25.655q-3.076-2.8-6.079-5.9Q-676.291,672.54-678.49,670.011Z" transform="translate(700.18 -505.947)" fill="#43334c"/>
      <path id="Trazado_689844" data-name="Trazado 689844" d="M-850.954,779.829l.533,1.993,14.061,8.726,32.07-29.458v-2.862L-836.6,788.876A131.094,131.094,0,0,1-850.954,779.829Z" transform="translate(894.158 -596.015)" fill="#43334c"/>
      <path id="Trazado_689845" data-name="Trazado 689845" d="M-1062.266,886.638l1.428,2.821,13.132,5.044,32.515-28.515.84-2.124-33.861,28.348h0C-1052.963,890.532-1057.65,888.7-1062.266,886.638Z" transform="translate(1130.573 -688.478)" fill="#43334c"/>
      <path id="Trazado_689846" data-name="Trazado 689846" d="M-1226.281,956.183l1.014,1.831,17.131,5.254,19.42-30.643v-1.771Z" transform="translate(1325.392 -747.113)" fill="#43334c"/>
      <path id="Trazado_689847" data-name="Trazado 689847" d="M-1434.194,1022.181l.5,1.179,14.284,3.334,19.154-27.4v-1.879l-19.517,27.69C-1424.913,1024.156-1429.742,1023.17-1434.194,1022.181Z" transform="translate(1562.857 -805.371)" fill="#43334c"/>
      <path id="Trazado_689848" data-name="Trazado 689848" d="M-1635.581,1067.757l.333,1.172,16.675,2.335,9.641-26.831v-1.625l-10.041,26.973C-1624.684,1069.2-1630.238,1068.511-1635.581,1067.757Z" transform="translate(1796.651 -845.104)" fill="#43334c"/>
      <path id="Trazado_689849" data-name="Trazado 689849" d="M-1837.044,1094.4l.481.952,14.151,1.292,7.651-25.429-.226-1.553-8.207,25.472C-1827.867,1094.976-1832.492,1094.727-1837.044,1094.4Z" transform="translate(2027.605 -868.613)" fill="#43334c"/>
      <path id="Trazado_689850" data-name="Trazado 689850" d="M-2001.164,1102.99l.214.759h10.838l7.962-24.386-.3-.965c-2.18,6.83-5.424,16.905-7.978,24.5Q-1995.814,1103.033-2001.164,1102.99Z" transform="translate(2215.462 -876.256)" fill="#43334c"/>
      <path id="Trazado_689851" data-name="Trazado 689851" d="M-1527.473,30.37c.188,1.282.5,3.391,2.292,4.377a4.08,4.08,0,0,0,2.459.436,6.121,6.121,0,0,0,1.717-.468,3.61,3.61,0,0,1-2.12-1.469,3.234,3.234,0,0,1-.346-.728.994.994,0,0,0,.582-.092c.726-.38.559-1.656.515-1.987a1.619,1.619,0,0,0-.473-1.126,1.253,1.253,0,0,0-1.2-.251,1.129,1.129,0,0,0-.567.51,4.232,4.232,0,0,1-.656-.621,3.663,3.663,0,0,1-.771-1.333c-.159-.521,0-.475-.167-1.376-.06-.32-.119-.532-.171-.754a5.713,5.713,0,0,0-.517.795A6.429,6.429,0,0,0-1527.473,30.37Z" transform="translate(1695.254 45.343)" fill="#ff9156"/>
      <path id="Trazado_689852" data-name="Trazado 689852" d="M-1566.27-4.977a5.692,5.692,0,0,0,.122.705c.052.222.111.433.171.754.168.9.007.855.167,1.376a3.663,3.663,0,0,0,.771,1.333,4.233,4.233,0,0,0,.656.621,1.129,1.129,0,0,1,.567-.51,1.253,1.253,0,0,1,1.2.251,1.619,1.619,0,0,1,.473,1.126c.044.331.212,1.606-.515,1.987a.994.994,0,0,1-.582.092,3.24,3.24,0,0,0,.346.728,3.61,3.61,0,0,0,2.12,1.469,4.815,4.815,0,0,0,2.16.087,4.153,4.153,0,0,0,.88-.276,4.742,4.742,0,0,0,1.531-1.085,6.826,6.826,0,0,1-1.982-2.014A2.531,2.531,0,0,1-1559.7.733c-.992-1.364-.24-3.729,1.14-4.168a2.027,2.027,0,0,1,1.361.105,8.6,8.6,0,0,1,1.254-1.54,4.089,4.089,0,0,0-.544-.9,3.579,3.579,0,0,0-2.751-1.5,2.893,2.893,0,0,0-.84.142,3.11,3.11,0,0,0-.411-.476,3.524,3.524,0,0,0-3.418-.75,3.353,3.353,0,0,0-2.4,2.647A6.6,6.6,0,0,0-1566.27-4.977Z" transform="translate(1735.03 75.105)" fill="#d84444"/>
      <path id="Trazado_689853" data-name="Trazado 689853" d="M-1555.8,35.842a2.531,2.531,0,0,0,1.513.932,1.705,1.705,0,0,1-.262-.793,8.625,8.625,0,0,1,.111-1.224,9.387,9.387,0,0,1,.445-1.611,7.822,7.822,0,0,1,.693-1.368,2.026,2.026,0,0,0-1.36-.105C-1556.04,32.113-1556.793,34.478-1555.8,35.842Z" transform="translate(1731.127 39.996)" fill="#fff"/>
      <path id="Trazado_689854" data-name="Trazado 689854" d="M-1662.9,8.738a1.707,1.707,0,0,0,.262.793,6.825,6.825,0,0,0,1.982,2.014,8.614,8.614,0,0,0,6.705,1.528c.668-.149,4.168-1.031,5.28-4.39a6.456,6.456,0,0,0-1.89-6.893c-2.977-2.484-6.923-.733-7.448-.5A9.058,9.058,0,0,0-1660.4,3a8.611,8.611,0,0,0-1.255,1.54,7.83,7.83,0,0,0-.693,1.368,9.393,9.393,0,0,0-.445,1.611A8.637,8.637,0,0,0-1662.9,8.738Z" transform="translate(1839.479 67.24)" fill="#d84444"/>
      <path id="Trazado_689855" data-name="Trazado 689855" d="M-1552.864,98.608c.031.281.059.566.084.856q.046.54.076,1.065a8.075,8.075,0,0,1,4.712.06c-.013-.165-.024-.332-.034-.5-.046-.738-.071-1.452-.079-2.139a4.151,4.151,0,0,1-.88.276,4.815,4.815,0,0,1-2.16-.087A6.122,6.122,0,0,1-1552.864,98.608Z" transform="translate(1725.397 -18.082)" fill="#ff9156"/>
      <path id="Trazado_689856" data-name="Trazado 689856" d="M-1690.181,135.658q.43.046.872.1a60.929,60.929,0,0,1,6.014,1.036c1.2.269,3.088.841,4.611,1.317l.489.152q-.088-.546-.184-1.071h0c1.542-4.337,4.5-8.308,8.2-9.541.2-.067.37-.113.6-.178a20.9,20.9,0,0,1,11.736.262,17.6,17.6,0,0,1,7.28,4.769,14.145,14.145,0,0,0-2.778-4.186,14.3,14.3,0,0,0-4.752-3.252l-.918-.277c-1.488-.477-3.408-1.049-5.688-1.611q-1.325-.326-2.81-.641-1.154-.244-2.4-.471c-.879-.16-1.695-.308-2.456-.442-.706-.124-1.366-.237-1.984-.334-3.391-.535-5.541-.627-7.455.109C-1687.749,123.687-1689.631,132.136-1690.181,135.658Z" transform="translate(1845.087 -38.138)" fill="#fff"/>
      <path id="Trazado_689857" data-name="Trazado 689857" d="M-1733.724,168.974c.2-.067.37-.113.6-.178a20.894,20.894,0,0,1,11.735.262,17.6,17.6,0,0,1,7.28,4.769s0,0,0,0a24.69,24.69,0,0,1,4.808,7.567c2.938,7.677,2.321,19.542-5,23.678a10.669,10.669,0,0,1-1.985.867c-5.512,1.769-11.536-1.121-13.437-2.034a25.7,25.7,0,0,1-5.469-3.585,24.633,24.633,0,0,1-5.411-6.431,77.021,77.021,0,0,0-.751-11.577q-.176-1.417-.39-2.727-.089-.546-.184-1.071h0C-1740.383,174.178-1737.427,170.207-1733.724,168.974Zm3.418,15.175c2.464,7.319,11.622,9.724,13.09,10.088l1.834-1.168a12.868,12.868,0,0,0,.644-1.375c.955-2.341,2.349-7.253-.311-11.714a11.9,11.9,0,0,0-5.168-4.585l-1.251-.417a12.922,12.922,0,0,0-2.752-.25,13.894,13.894,0,0,0-3.516.413h0a4.91,4.91,0,0,0-2.068,1.088C-1732.2,178.509-1730.481,183.626-1730.306,184.149Z" transform="translate(1908.633 -79.463)" fill="#ff639a"/>
      <path id="Trazado_689858" data-name="Trazado 689858" d="M-1684.343,233.716c2.464,7.319,11.622,9.724,13.09,10.088l1.834-1.168a12.9,12.9,0,0,0,.644-1.375,17.542,17.542,0,0,1-8.981-4.044c-1.571-1.371-5.849-5.1-5.086-9.755a7.4,7.4,0,0,1,1.068-2.754,4.911,4.911,0,0,0-2.068,1.088C-1686.239,228.077-1684.517,233.193-1684.343,233.716Z" transform="translate(1862.67 -129.031)" fill="#fff"/>
      <path id="Trazado_689859" data-name="Trazado 689859" d="M-1689.785,234.3a17.542,17.542,0,0,0,8.981,4.044c.955-2.341,2.349-7.253-.311-11.714a11.9,11.9,0,0,0-5.169-4.585l-1.251-.417a12.923,12.923,0,0,0-2.752-.25,13.892,13.892,0,0,0-3.516.413h0a7.408,7.408,0,0,0-1.068,2.754C-1695.633,229.2-1691.355,232.933-1689.785,234.3Z" transform="translate(1874.699 -126.118)" fill="#43334c"/>
      <path id="Trazado_689860" data-name="Trazado 689860" d="M-1521.108,381.865a10.18,10.18,0,0,1,3.255-.7,10.247,10.247,0,0,1,3.119.334,24.627,24.627,0,0,1-5.411-6.431A26.894,26.894,0,0,1-1521.108,381.865Z" transform="translate(1688.177 -260.638)" fill="#fff"/>
      <path id="Trazado_689861" data-name="Trazado 689861" d="M-1615.7,1146.231c0,.378,1.656.9,6,1.278a74.515,74.515,0,0,0,9.227.222l.028-3.168q.041-.409.076-.812a7.846,7.846,0,0,1-2.1.591,8.777,8.777,0,0,1-5.77-1.4h0c-.209-.13-.4-.26-.581-.386a6.368,6.368,0,0,1-.707.9C-1611.95,1146.007-1615.7,1145.662-1615.7,1146.231Z" transform="translate(1785.609 -932.41)" fill="#fff"/>
      <path id="Trazado_689862" data-name="Trazado 689862" d="M-1601.453,677.328q-8.732-2.261-17.387-4.745.152.778.323,1.592c1.658,7.92,2.573,8.5,4.336,17.008,1.164,5.621,1.539,9.1,2,12.256a135.5,135.5,0,0,0,7.147,27.3h0c-.081.148-.17.3-.269.45.177.126.372.256.581.386h0a8.778,8.778,0,0,0,5.77,1.4,7.839,7.839,0,0,0,2.1-.591,93.843,93.843,0,0,0-.075-17.947c-.709-6.948-1.684-8.584-3-18.508a154.929,154.929,0,0,1-1.5-17.259Q-1601.443,678.022-1601.453,677.328Z" transform="translate(1782.088 -521.051)" fill="#ff9156"/>
      <path id="Trazado_689863" data-name="Trazado 689863" d="M-1583.744,545.894q8.915,2.578,17.92,4.918c.012-1.659.058-3.449.151-5.36.1-2.072.26-4.284.493-6.625q.064-.627.132-1.267a21.047,21.047,0,0,0-2.2-1.978,20.489,20.489,0,0,0-6.373-3.371,20.82,20.82,0,0,0-11.251-.347c0,.032,0,.065,0,.1A66.82,66.82,0,0,0-1583.744,545.894Z" transform="translate(1746.448 -397.345)" fill="#ff9156"/>
      <path id="Trazado_689864" data-name="Trazado 689864" d="M-1540.883,468.071l2.842,2.557,3.119-2.224-.278-3.112-5.336-1Z" transform="translate(1710.831 -338.735)" fill="#d84444"/>
      <path id="Trazado_689865" data-name="Trazado 689865" d="M-1699.251,432.217a19.551,19.551,0,0,0,2.689-3.014,16.134,16.134,0,0,0,1.422-2.392,15.192,15.192,0,0,0,.707-1.727c.057-.166.111-.337.163-.508a10.181,10.181,0,0,1,3.255-.7,10.247,10.247,0,0,1,3.119.334,25.7,25.7,0,0,0,5.469,3.585c1.9.913,7.925,3.8,13.438,2.034.641,1.539,1.344,3.406,2,5.554q.163.53.32,1.083c.2.707.371,1.353.52,1.972.212.878.38,1.7.535,2.568a13.006,13.006,0,0,0-3.807-.705,14.521,14.521,0,0,0-9.95,3.876c-.271.24-.5.462-.7.656q.064-.627.132-1.267a21.064,21.064,0,0,0-2.2-1.978,20.489,20.489,0,0,0-6.373-3.371,20.82,20.82,0,0,0-11.251-.347C-1699.674,435.745-1699.477,433.842-1699.251,432.217Zm25.717,4.136,0-.017.639-2.642.136-.565-.612-2-5.335.445.18.457,1.154,2.934,3.585,1.3Zm-15.014-1.112,3.119-2.224-.024-.262-.254-2.85-5.336-1-.187,2.028-.16,1.752Z" transform="translate(1861.339 -303.349)" fill="#d84444"/>
      <path id="Trazado_689866" data-name="Trazado 689866" d="M-1642.5,482.561l1.333,3.391,3.835,1.389.778-3.223-.612-2Z" transform="translate(1825.14 -354.337)" fill="#d84444"/>
      <path id="Trazado_689867" data-name="Trazado 689867" d="M-1839.288,719.916q-8.383-1.917-16.718-4.042c2.79,8.452,6.274,14.455,9.737,20.955,3.58,6.719,8.353,16.256,13.425,28.367a8.592,8.592,0,0,1-1.149,1.984c3.435.806,5.073.24,5.928-.531a8.331,8.331,0,0,1,2.918-2.14,6.53,6.53,0,0,1,1.169-.336c-2.5-15.7-6.434-25.439-9.784-31.6a59.329,59.329,0,0,1-5.252-11.756C-1839.108,720.521-1839.2,720.218-1839.288,719.916Z" transform="translate(2039.186 -558.943)" fill="#ff9156"/>
      <path id="Trazado_689868" data-name="Trazado 689868" d="M-1727.1,566.766c.379,1.742.836,3.588,1.388,5.518.025.087.05.174.076.26q8.417,2.169,16.894,4.125c-.717-3.148-1.307-6.891-2.212-12.638-.559-3.545-.842-5.738-1.2-7.716a13.007,13.007,0,0,0-3.807-.705,14.521,14.521,0,0,0-9.95,3.876c-.27.24-.5.462-.7.656C-1726.838,562.482-1727,564.694-1727.1,566.766Z" transform="translate(1907.874 -418.659)" fill="#ff9156"/>
      <path id="Trazado_689869" data-name="Trazado 689869" d="M-1864.9,1109.711c-.071.795,3.21,2.211,6.628,2.126,1.95-.048,3.463-.574,6.128-1.5,2.091-.728,4.65-1.8,5.766-2.335l-.889-3.418q-.108-.717-.219-1.42a6.519,6.519,0,0,0-1.169.335,8.331,8.331,0,0,0-2.918,2.14c-.855.771-2.493,1.337-5.928.531a7.134,7.134,0,0,1-1.145,1.163C-1861.383,1109.541-1864.826,1108.905-1864.9,1109.711Z" transform="translate(2062.692 -897.934)" fill="#fff"/>
      <path id="Trazado_689870" data-name="Trazado 689870" d="M-1576.834,117.085c.618.1,1.278.21,1.984.334.761.133,1.577.282,2.455.442q1.242.225,2.4.471,1.483.314,2.81.641a5.612,5.612,0,0,0-1.481-1.724,5.543,5.543,0,0,0-1.508-.806,8.075,8.075,0,0,0-4.712-.06A11.613,11.613,0,0,0-1576.834,117.085Z" transform="translate(1747.582 -33.936)" fill="#43334c"/>
      <path id="Trazado_689871" data-name="Trazado 689871" d="M-1200.663,126.06c.207.145.416.286.625.42a21.584,21.584,0,0,0,2.6,1.427c2.889,1.311,5.391,1.244,8.171,1.167,3.315-.091,7-.191,7.67-2a1.752,1.752,0,0,0,.1-.517c.093-1.847-2.432-4.171-2.772-4.485a10.409,10.409,0,0,0-3.668-2.167c-.187-.065-.378-.126-.572-.182a16.551,16.551,0,0,0-2.165-.484,22.78,22.78,0,0,0-9.185.443,10.975,10.975,0,0,0-1.352.475c-.076.032-.15.065-.222.1-1.123.526-1.867,1.2-2.01,1.983C-1203.676,123.525-1202.267,124.933-1200.663,126.06Z" transform="translate(1315.322 -36.478)" fill="#ffd867"/>
      <path id="Trazado_689872" data-name="Trazado 689872" d="M-1232.533,193.129a15.089,15.089,0,0,0,7.5,7.559c6.2,2.64,12.3-.435,14.714-1.94.922-4.031-1.982-10.136-2.291-10.773a16.557,16.557,0,0,1-1.419-3.244,6.45,6.45,0,0,1-.791.951,7.335,7.335,0,0,1-3.7,1.9,2.785,2.785,0,0,0-.006.809c.219,1.6,1.572,2.033,1.334,2.835s-1.887,1.353-2.959.791c-.194-.1-.6-.358-1.084-1.459a9.988,9.988,0,0,1-.894-2.713,11.267,11.267,0,0,1-3.816-1.081,11.645,11.645,0,0,1-5.295-5.169,11.474,11.474,0,0,1-1.222-5.346c-.209-.135-.418-.275-.625-.42-.17,1.232-.338,2.741-.445,4.46C-1233.9,186.182-1234.117,189.612-1232.533,193.129Z" transform="translate(1347.747 -86.248)" fill="#ffd867"/>
      <path id="Trazado_689873" data-name="Trazado 689873" d="M-1205.786,184.547a11.643,11.643,0,0,0,5.295,5.169,11.27,11.27,0,0,0,3.816,1.081,2.032,2.032,0,0,1,.436-1.706c.847-.891,2.776-.814,3.293-.042.282.422-.015.815-.119,1.485a7.335,7.335,0,0,0,3.7-1.9,6.459,6.459,0,0,0,.791-.951,6.749,6.749,0,0,1-.208-1.633,6.684,6.684,0,0,1,.147-1.457,11.1,11.1,0,0,0,.6-3.294,6.316,6.316,0,0,0-.438-2.018,1.759,1.759,0,0,1-.1.517c-.67,1.809-4.355,1.91-7.67,2-2.78.077-5.282.144-8.171-1.167a21.572,21.572,0,0,1-2.6-1.427A11.473,11.473,0,0,0-1205.786,184.547Z" transform="translate(1322.293 -89.199)" fill="#f7ac4e"/>
      <path id="Trazado_689874" data-name="Trazado 689874" d="M-1177.4,255.682a9.993,9.993,0,0,0,.894,2.713c.489,1.1.891,1.357,1.084,1.459,1.071.562,2.72.011,2.958-.791s-1.115-1.236-1.333-2.835a2.78,2.78,0,0,1,.006-.809c.1-.67.4-1.063.119-1.485-.517-.771-2.446-.848-3.293.042A2.032,2.032,0,0,0-1177.4,255.682Z" transform="translate(1303.022 -154.085)" fill="#43334c"/>
      <path id="Trazado_689875" data-name="Trazado 689875" d="M-996.044,603.677c2.186,2.447,3.81,2.889,4.955,2.758,1.406-.164,2.7-1.281,4.627-.834a4.581,4.581,0,0,1,1.194.463c7.62-10.116,10.225-17.447,11.021-22.6a55.829,55.829,0,0,1,3-13.01c1.423-3.815,2.665-5.718,4.5-10.667.382-1.025.719-2.011,1.025-2.943.414-1.27.768-2.447,1.063-3.5-.3-.016-.61-.033-.916-.06a27.378,27.378,0,0,1-15.665-6.742.949.949,0,0,0-.076-.071c-.2.927-.436,2.017-.7,3.243-.131.6-.262,1.237-.4,1.9-4.224,20.041-4.693,25.912-7.505,35.853a141.479,141.479,0,0,1-5.412,15.556C-995.548,603.23-995.782,603.454-996.044,603.677Z" transform="translate(1072.622 -410.665)" fill="#ff793b"/>
      <path id="Trazado_689876" data-name="Trazado 689876" d="M-830.781,1009.386c-.019.656,3.706,1.469,8.225,1.89a66.353,66.353,0,0,0,9.417.2q1.658-2.013,3.073-3.893a4.485,4.485,0,0,0-1.193-.467c-1.93-.445-3.221.67-4.626.834-1.142.133-2.767-.311-4.955-2.757-.282.243-.6.492-.938.742C-826.147,1009.111-830.76,1008.659-830.781,1009.386Z" transform="translate(897.417 -812.185)" fill="#43334c"/>
      <path id="Trazado_689877" data-name="Trazado 689877" d="M-1264.217,567.49q2.145.714,4.294,1.411c-.346-1.423-.6-2.737-.788-3.9-1.506.279-2.6.425-3.059.482a2.826,2.826,0,0,0-.338.743l-.014.05c0,.02-.012.045-.019.072s-.007.029-.01.044c-.007.031-.015.064-.023.1A2.987,2.987,0,0,0-1264.217,567.49Z" transform="translate(1401.332 -426.888)" fill="#ff793b"/>
      <path id="Trazado_689878" data-name="Trazado 689878" d="M-1450.313,566.923c.376,1.324.965,3.107,1.673,5.063a97.181,97.181,0,0,0,3.832,9.206c6.59,13.425,14.847,17.033,23.012,31.182a76.488,76.488,0,0,1,6.023,13.25,6.078,6.078,0,0,1-.4.987,12.5,12.5,0,0,0,2.469.016c2.12-.185,4.159-.371,5.472-1.831.649-.719,1.09-1.722,2.115-1.864a1.847,1.847,0,0,1,.708.049c-2.2-14.918-6.933-23.868-11.217-29.449-2.257-2.949-7.909-9.549-11.119-19.813-.322-.1-.643-.207-.959-.316h-.005q-1.292-.417-2.578-.839c-.006.005-.006.011-.011.011a.65.65,0,0,1-.54.131c-.022-.005-.043-.005-.065-.011a1.572,1.572,0,0,1-.256-.044l-.049-.016a3.325,3.325,0,0,1-.354-.115c-.049-.022-.1-.044-.158-.065-.033-.016-.065-.027-.1-.044-.076-.038-.153-.071-.229-.114-.131-.071-.267-.147-.4-.234a.677.677,0,0,0-.076-.054c-.027-.016-.055-.038-.082-.055a.9.9,0,0,0-.076-.055l-.261-.213h-.005a1.062,1.062,0,0,0-.082-.076c-.033-.027-.06-.055-.087-.082a.739.739,0,0,1,.011.1.122.122,0,0,1,.005.044c.005.049.011.093.016.142.006.065.016.125.016.191.005.038.005.076.011.115a.741.741,0,0,1,.005.109c.049.932-.125,1.292-.354,1.4-.458.224-1.423-.414-2.218-1.472-.174,1-.507,1.194-.67,1.248-.643.207-1.668-.812-2.371-2.088a5.2,5.2,0,0,1-.049.643c-.1.856-.284.932-.333.948-.213.065-.534-.2-.867-.638l-.005-.005a.947.947,0,0,1-.065-.076.952.952,0,0,1-.066-.076,10.451,10.451,0,0,1-.725-.927,1.89,1.89,0,0,1-.147-.218c-.027-.033-.049-.071-.076-.109s-.049-.076-.071-.114-.049-.082-.071-.12a7.13,7.13,0,0,1-.343-.638c-.016-.033-.038-.071-.055-.109-.06-.131-.12-.267-.175-.409-.016-.049-.038-.093-.054-.142a1.25,1.25,0,0,0-.049-.131c-.033-.1-.066-.207-.093-.311a1.208,1.208,0,0,1-.038-.131,1.463,1.463,0,0,1-.038-.147c-1.21-.425-2.415-.845-3.619-1.275A16.667,16.667,0,0,1-1450.313,566.923Z" transform="translate(1570.026 -428.568)" fill="#ff793b"/>
      <path id="Trazado_689879" data-name="Trazado 689879" d="M-1456.091,1024.163c.037.947,3.413,1.944,6.67,1.667a17.39,17.39,0,0,0,4.612-1.222c1.661-.587,3.836-1.41,6.378-2.521q-.289-3.209-.721-6.105a1.834,1.834,0,0,0-.71-.045c-1.022.141-1.466,1.142-2.113,1.861-1.313,1.462-3.354,1.645-5.475,1.834a12.579,12.579,0,0,1-2.467-.021c-.036.072-.076.144-.117.216C-1451.9,1023.087-1456.133,1023.1-1456.091,1024.163Z" transform="translate(1603.765 -821.57)" fill="#43334c"/>
      <path id="Trazado_689880" data-name="Trazado 689880" d="M-1477.885,281.6c0,.068.006.136.012.2s.012.133.019.2q.007.073.018.142c.018.137.043.272.071.4.011.053.022.105.035.157s.025.1.038.149.024.09.037.134c.031.1.063.207.1.308.016.045.032.09.048.133s.034.093.053.139c.054.139.113.278.175.411l.053.11c.106.222.222.433.344.637l.071.117c.024.039.048.077.072.115s.048.076.073.112c.048.074.1.147.147.217a10.971,10.971,0,0,0,.725.927l.067.077.066.074s0,0,0,0c.335.442.654.7.869.638.05-.015.227-.089.334-.945.024-.183.043-.4.049-.644.7,1.277,1.727,2.3,2.368,2.089.167-.054.5-.253.67-1.251.8,1.057,1.762,1.694,2.221,1.473.229-.11.4-.471.354-1.4,0-.035,0-.072-.007-.11s0-.074-.008-.113c0-.063-.01-.125-.018-.191,0-.046-.009-.092-.015-.141,0-.014,0-.028,0-.043,0-.034-.008-.068-.013-.1l.085.079.086.077a0,0,0,0,0,0,0h0c.085.073.172.144.262.21l.078.056.079.055c.026.018.052.035.079.052a4.58,4.58,0,0,0,.4.239c.075.04.151.077.225.112l.1.044c.053.024.106.045.158.065a3.3,3.3,0,0,0,.353.116l.052.014a2.2,2.2,0,0,0,.254.047c.023,0,.044.006.065.007a.67.67,0,0,0,.541-.126.044.044,0,0,0,.009-.012.4.4,0,0,0,.027-.034.413.413,0,0,0,.024-.039c.006-.013.013-.027.019-.041s.011-.03.016-.045.008-.032.012-.048a2.217,2.217,0,0,0-.384-1.337c-.382-.6-.719-.51-1.056-1.056-.02-.033-.039-.066-.057-.1s-.033-.064-.048-.1-.027-.061-.04-.092-.028-.076-.041-.113c-.019-.058-.035-.117-.05-.175,0-.014-.007-.028-.009-.042s-.012-.052-.016-.077-.012-.066-.016-.1a2.984,2.984,0,0,1,.044-1c.007-.037.015-.07.022-.1,0-.015.007-.031.011-.044.007-.028.013-.052.019-.072l.014-.05a2.826,2.826,0,0,1,.338-.743c.463-.057,1.553-.2,3.059-.482,5.152-.952,15.161-3.46,21.467-9.248.125-.115.249-.231.371-.35.06-.058.122-.117.182-.177q.181-.177.357-.36c.059-.06.117-.122.175-.183.092-.1.183-.195.271-.294l.01-.011c.053-.059.108-.118.159-.178s.1-.11.144-.165l.021-.024c.064-.073.126-.148.189-.223l.17-.208c.064-.078.126-.157.188-.236s.1-.132.154-.2c.1-.134.2-.268.3-.405.057-.079.113-.159.169-.241.038-.054.074-.109.111-.164.021-.031.042-.06.062-.091l.016-.026c.038-.057.074-.112.11-.169.073-.113.145-.228.215-.344s.139-.232.207-.348l.076-.132.018-.031.015-.028c.1-.172.189-.347.279-.524.049-.1.1-.195.145-.293q.106-.22.205-.445c.038-.083.073-.166.109-.25.027-.065.054-.129.08-.194s.047-.117.07-.176.057-.145.084-.219c.056-.146.107-.294.158-.443.057-.166.111-.337.163-.508a26.889,26.889,0,0,0,.964-6.8,76.972,76.972,0,0,0-.751-11.577q-.175-1.417-.39-2.727l-.489-.152c-1.524-.476-3.407-1.048-4.611-1.317a60.935,60.935,0,0,0-6.014-1.036c.044.892.089,2,.123,3.259.194,7.14.29,10.71-.75,13.312a10.8,10.8,0,0,1-3.553,4.3c-.729.6-1.573,1.245-2.55,1.976q-.622.466-1.317.981c-3.862,2.871-6.621,4.253-9.988,6.362h0a70.27,70.27,0,0,0-5.979,4.183,19.077,19.077,0,0,0-3.815,3.576c-.047.065-.092.131-.136.2s-.087.132-.128.2-.07.112-.1.169c-.011.018-.021.035-.031.053-.034.059-.066.119-.1.18s-.067.132-.1.2c0,0,0,0,0,0-.03.064-.058.128-.085.193l0,.011a.011.011,0,0,0,0,.008c-.027.067-.054.133-.079.2a0,0,0,0,0,0,0l-.011.029c-.019.05-.037.1-.052.15,0,.008-.006.017-.008.025a.009.009,0,0,0,0,.006,0,0,0,0,0,0,0c-.014.046-.028.091-.041.138s-.027.094-.039.142-.023.1-.034.145c0,.02-.01.041-.013.063-.009.039-.016.078-.023.117-.011.054-.019.11-.027.164,0,0,0,0,0,.007s0,.022,0,.034c-.006.041-.01.083-.015.124,0,.026-.006.051-.008.077-.006.053-.011.108-.014.162,0,.008,0,.015,0,.024,0,.059-.007.118-.008.176C-1477.891,281.352-1477.891,281.476-1477.885,281.6Z" transform="translate(1604.764 -142.66)" fill="#ff9156"/>
      <path id="Trazado_689881" data-name="Trazado 689881" d="M-1030.056,326.783a14.958,14.958,0,0,0,8.467,3.044,14.146,14.146,0,0,0,4.1-.492,15.925,15.925,0,0,1-.8-1.507,10.155,10.155,0,0,1-2.148.485,11.976,11.976,0,0,1-8.556-2.721Q-1029.5,326.194-1030.056,326.783Z" transform="translate(1129.689 -217.332)" fill="#fff"/>
      <path id="Trazado_689882" data-name="Trazado 689882" d="M-1074.526-30.622a4.519,4.519,0,0,0,1.749.707q.11.39.21.794a28.978,28.978,0,0,1,.62,3.317q2.509-.172,5.188-.5l.628-.08c-.314-.829-.614-1.7-.892-2.613q-.149-.491-.281-.97a4.7,4.7,0,0,1-2.47-.17,3.765,3.765,0,0,1-2.613-1.5,2.692,2.692,0,0,1-.33-.9,3.4,3.4,0,0,1-.948-.937c-.579-.863-.9-2.238-.39-2.613.275-.2.725-.067,1.062.083a1.727,1.727,0,0,0-.45-.777c-.666-.647-1.561-.352-2.14-1a1.412,1.412,0,0,1-.26-.433,6.318,6.318,0,0,0-.768,2.753C-1076.632-34.887-1076.661-32.08-1074.526-30.622Z" transform="translate(1184.14 101.099)" fill="#ff793b"/>
      <path id="Trazado_689883" data-name="Trazado 689883" d="M-1022.622-54.956a.6.6,0,0,0,.268.21,2.01,2.01,0,0,0,.125.635,1.407,1.407,0,0,0,.26.433c.579.648,1.474.353,2.14,1a1.727,1.727,0,0,1,.45.777c.048.021.1.044.139.065-1-1.641-1.318-2.109-1.4-2.636a9.67,9.67,0,0,1-1.406-1.905,1.176,1.176,0,0,0-.176.128C-1022.568-55.943-1022.877-55.332-1022.622-54.956Z" transform="translate(1130.528 116.999)" fill="#43334c"/>
      <path id="Trazado_689884" data-name="Trazado 689884" d="M-1024.248-19.242a3.4,3.4,0,0,0,.948.937,3.627,3.627,0,0,1,.135-1.688l-.306-1.223a2.8,2.8,0,0,0-.1-.556c-.337-.15-.787-.282-1.062-.083C-1025.152-21.48-1024.826-20.105-1024.248-19.242Z" transform="translate(1134.724 86.871)" fill="#f56028"/>
      <path id="Trazado_689885" data-name="Trazado 689885" d="M-1094.853-68.8a2.213,2.213,0,0,0,.025.3c.08.527.394,1,1.4,2.636.183.3.387.635.619,1.019,1.193,1.98,1.266,2.2,1.752,2.543a4.239,4.239,0,0,0,3.794.542,3.93,3.93,0,0,0,1.136-.641,4.461,4.461,0,0,0,.781-.817,5.5,5.5,0,0,0,.667-4.669,6.237,6.237,0,0,0-3.543-3.627,9.929,9.929,0,0,0-2.019-.737,3.845,3.845,0,0,0-3.276.487A3.748,3.748,0,0,0-1094.853-68.8Z" transform="translate(1204.718 131.023)" fill="#fff"/>
      <path id="Trazado_689886" data-name="Trazado 689886" d="M-1081.266-19.925l.306,1.223a3.628,3.628,0,0,0-.135,1.688,2.7,2.7,0,0,0,.33.9,3.764,3.764,0,0,0,2.613,1.5,4.7,4.7,0,0,0,2.47.17,1.9,1.9,0,0,0,.671-.365,2.045,2.045,0,0,0,.528-.707,1.7,1.7,0,0,0,.562-1.106,1.494,1.494,0,0,0-.01-.328,3.929,3.929,0,0,1-1.136.641,4.238,4.238,0,0,1-3.794-.542c-.485-.341-.559-.563-1.752-2.543-.231-.384-.436-.72-.619-1.019-.044-.021-.091-.044-.139-.065A2.8,2.8,0,0,1-1081.266-19.925Z" transform="translate(1192.52 85.581)" fill="#43334c"/>
      <path id="Trazado_689887" data-name="Trazado 689887" d="M-1047.629-84.148c.116.258.24.5.37.733a9.666,9.666,0,0,0,1.406,1.905,2.251,2.251,0,0,1-.025-.3,3.749,3.749,0,0,1,1.333-2.96,3.846,3.846,0,0,1,3.277-.487,9.417,9.417,0,0,0-2.65-1.43c-.417-.144-3.392-1.168-4.169-.084C-1048.533-86.154-1048.064-85.112-1047.629-84.148Z" transform="translate(1155.744 144.038)" fill="#d84444"/>
      <path id="Trazado_689888" data-name="Trazado 689888" d="M-1231.629,151.982a36.459,36.459,0,0,0,1.522,4.017,15.9,15.9,0,0,0,.8,1.507,10.862,10.862,0,0,0,3.8,3.855c3.418,2.019,7.065,1.56,12.506.876,1.835-.23,3.315-.418,4.506-.659.442-.091.844-.189,1.21-.3a4.29,4.29,0,0,0,2.538-1.668,4.8,4.8,0,0,0,.666-1.608c-2.414,1.506-8.513,4.58-14.714,1.941a15.088,15.088,0,0,1-7.5-7.559c-1.584-3.516-1.369-6.946-1-12.839.107-1.719.275-3.228.445-4.46-1.6-1.127-3.013-2.535-2.779-3.822.143-.788.887-1.458,2.01-1.983a3.441,3.441,0,0,0-1.573.774,3.918,3.918,0,0,0-1.146,2.314C-1232.172,142.525-1233.091,147.6-1231.629,151.982Z" transform="translate(1341.508 -45.504)" fill="#fff"/>
      <path id="Trazado_689889" data-name="Trazado 689889" d="M-1321.185,184.708c.309.637,3.214,6.742,2.291,10.773a5.321,5.321,0,0,1-.217.723,4.4,4.4,0,0,1-.449.885,3.626,3.626,0,0,1-1.512,1.276,6.829,6.829,0,0,1-1.026.392q.112.285.221.574a36.673,36.673,0,0,0,4.777.532h0a16.416,16.416,0,0,0,5.978-.687h0a5.644,5.644,0,0,0,3.024-2.252c.426-.686,1.086-2.159-.667-8.338a55.011,55.011,0,0,0-7.789-16.486,6.539,6.539,0,0,1-.964,3.063,6.978,6.978,0,0,1-3.853,2.917,7.873,7.873,0,0,1-1.3.294,6.677,6.677,0,0,0-.146,1.457,6.749,6.749,0,0,0,.208,1.633A16.557,16.557,0,0,0-1321.185,184.708Z" transform="translate(1456.325 -82.982)" fill="#ff793b"/>
      <path id="Trazado_689890" data-name="Trazado 689890" d="M-1056.205,62.188a13.261,13.261,0,0,1,2.746,2.385,13.484,13.484,0,0,1,2.955,5.81,10.971,10.971,0,0,1,1.352-.475,13.711,13.711,0,0,0-2.14-4.836,13.64,13.64,0,0,0-2.843-2.968Q-1055.187,62.157-1056.205,62.188Z" transform="translate(1164.616 13.295)" fill="#fff"/>
      <path id="Trazado_689891" data-name="Trazado 689891" d="M-1249.374,57.573a13.815,13.815,0,0,1,2.429,6.656c.194.055.385.117.572.182a10.409,10.409,0,0,1,3.669,2.167c.34.314,2.865,2.637,2.772,4.485a6.313,6.313,0,0,1,.438,2.018,11.1,11.1,0,0,1-.6,3.294,7.872,7.872,0,0,0,1.3-.294,6.979,6.979,0,0,0,3.853-2.917,6.537,6.537,0,0,0,.964-3.063c-1.9-2.792-3.951-5.387-6.05-8.026a16.751,16.751,0,0,0-5.17-4.669,15.656,15.656,0,0,0-5.917-1.838A13.171,13.171,0,0,1-1249.374,57.573Z" transform="translate(1373.759 19.015)" fill="#43334c"/>
      <path id="Trazado_689892" data-name="Trazado 689892" d="M-1129.859,55.646a13.634,13.634,0,0,1,2.843,2.968,13.709,13.709,0,0,1,2.14,4.836,22.78,22.78,0,0,1,9.185-.443,13.723,13.723,0,0,0-2.374-6.171,13.234,13.234,0,0,0-1.864-2.109c-.32,0-.624.014-.909.031h-.007c-.489.073-.985.141-1.486.206l-.628.08q-2.675.329-5.187.5Q-1129.013,55.6-1129.859,55.646Z" transform="translate(1240.34 19.753)" fill="#43334c"/>
      <path id="Trazado_689893" data-name="Trazado 689893" d="M-1033.46,83.226a32.881,32.881,0,0,1-6.18,12.327,11.976,11.976,0,0,0,8.556,2.721,10.156,10.156,0,0,0,2.148-.485,36.486,36.486,0,0,1-1.522-4.017c-1.462-4.378-.543-9.457,1.292-19.614a3.916,3.916,0,0,1,1.146-2.314,3.44,3.44,0,0,1,1.573-.774c.072-.034.146-.067.222-.1a13.484,13.484,0,0,0-2.955-5.81,13.257,13.257,0,0,0-2.746-2.385q-.436.014-.867.022h-1.084a7.963,7.963,0,0,0-3.667.666c-2.755,1.243-3.7,4.078-5.086,7.588-1.1,2.78-1.967,4.984-2.73,6.785a17.17,17.17,0,0,0,8.149,3.635,16.518,16.518,0,0,0,4.184.092Q-1033.218,82.383-1033.46,83.226Z" transform="translate(1140.337 12.706)" fill="#43334c"/>
      <path id="Trazado_689894" data-name="Trazado 689894" d="M-1234.843,350.145q11.8,4.831,23.76,9.216,4.915,1.8,9.855,3.528a.008.008,0,0,1,0-.006.184.184,0,0,1,.008-.025c.015-.051.033-.1.052-.15l.011-.029a0,0,0,0,1,0,0c.024-.069.051-.136.079-.2a.01.01,0,0,1,0-.008s0-.007,0-.011c.027-.065.054-.129.085-.193,0,0,0,0,0,0,.032-.067.065-.134.1-.2s.063-.12.1-.18c.009-.018.02-.035.031-.053.032-.057.066-.112.1-.169s.083-.132.128-.2.089-.131.136-.2a19.076,19.076,0,0,1,3.815-3.576,70.256,70.256,0,0,1,5.979-4.183h0a72.4,72.4,0,0,0-2.352-8.822q-.457-1.357-.943-2.635c-.073-.193-.146-.384-.221-.574-.365.111-.768.209-1.21.3-1.191.241-2.67.429-4.506.659-5.44.684-9.088,1.142-12.506-.876a10.862,10.862,0,0,1-3.8-3.855,14.144,14.144,0,0,1-4.1.492,14.957,14.957,0,0,1-8.468-3.044,24.468,24.468,0,0,1-2.981,2.661q-1.063,3.612-2.03,7.5Q-1234.324,347.759-1234.843,350.145Z" transform="translate(1328.338 -225.698)" fill="#0d96c3"/>
      <path id="Trazado_689895" data-name="Trazado 689895" d="M-1119.934,485.784a27.37,27.37,0,0,0,15.66,6.745q.464.037.918.055a26.5,26.5,0,0,0,9.692-1.4q-.064-1.759-.156-3.563a17.735,17.735,0,0,0,2.212.648,16.818,16.818,0,0,0,3.7.415q-1.988-.7-3.973-1.421-1-.361-2-.726-12.338-4.5-24.515-9.475-.748,3.7-1.3,7.208s0,0,0,.007Q-1119.82,485.033-1119.934,485.784Z" transform="translate(1211.318 -349.91)" fill="#0d96c3"/>
      <path id="Trazado_689896" data-name="Trazado 689896" d="M-990.675,211.167c.185.146.549-.019.834-.167a11.193,11.193,0,0,0,2.63-1.974,2.116,2.116,0,0,0,.038.5c.149.763,1.046,1.147,1.875,1.331a2.418,2.418,0,0,0,.834,1.3A2.43,2.43,0,0,0-982,212.08c1.113.77,3.083.5,3.207.116.082-.256-.559-.816-.959-1.084-.37-.248-.559-.262-.625-.458a.813.813,0,0,1,.235-.7,2.285,2.285,0,0,1,.64-.548,3.113,3.113,0,0,1,2.251-.125,4.751,4.751,0,0,0,2.114-.058h0a8.585,8.585,0,0,0,1.608-.554c4.977.561,9.908,2.635,17.7-1.556a24.027,24.027,0,0,0,3.115-2,24.468,24.468,0,0,0,2.981-2.661q.56-.588,1.064-1.192c.089-.105.176-.21.261-.316.109-.134.216-.268.32-.4.077-.1.152-.2.228-.3l.027-.037c.067-.089.135-.178.2-.268l.106-.145c.052-.07.1-.141.151-.211.085-.118.168-.236.249-.354.044-.065.089-.129.131-.193q.167-.245.323-.488.074-.113.145-.227c.1-.151.19-.3.28-.451q.064-.1.124-.206.292-.489.555-.972l.13-.24c.066-.123.13-.244.194-.367.056-.106.11-.214.163-.32l.014-.027c.325-.646.614-1.275.87-1.879.011-.025.021-.048.031-.072s.019-.047.03-.071l.06-.142a.279.279,0,0,1,.012-.028c.011-.025.02-.05.03-.073s.03-.07.042-.1l.043-.105q.069-.17.135-.337c.043-.109.084-.216.124-.324.12-.313.23-.617.333-.908.051-.145.1-.288.148-.429l.07-.207c.045-.136.089-.269.13-.4v0q.064-.195.12-.379l.11-.358c.018-.058.034-.115.051-.17l.07-.234c.008-.029.018-.059.026-.089.017-.054.032-.107.047-.16.034-.12.067-.234.1-.34q.243-.843.432-1.66a16.517,16.517,0,0,1-4.183-.092,17.172,17.172,0,0,1-8.15-3.635,43.21,43.21,0,0,1-1.968,4.158c-.319.569-.638,1.084-.971,1.563q-.262.378-.535.732a24.444,24.444,0,0,1-8.137,6.6c-7.733,4.245-12.152,1.955-18.342,6.169a19.638,19.638,0,0,0-1.833,1.417,20.463,20.463,0,0,0-2.035,2.048,22.665,22.665,0,0,0-2.3,3.2l-.139.361C-990.694,209.918-990.97,210.933-990.675,211.167Z" transform="translate(1049.362 -93.004)" fill="#ff793b"/>
      <path id="Trazado_689897" data-name="Trazado 689897" d="M-639.62,373.345a.273.273,0,0,0,.273-.262,1.942,1.942,0,0,1,.983-1.606.273.273,0,0,0,.1-.371.272.272,0,0,0-.371-.1,2.494,2.494,0,0,0-1.261,2.06.273.273,0,0,0,.262.283Z" transform="translate(701.771 -257.049)" fill="#b23d1f"/>
      <path id="Trazado_689898" data-name="Trazado 689898" d="M-659.256,373.13a.276.276,0,0,0,.07-.009.273.273,0,0,0,.194-.333,2.186,2.186,0,0,1-.073-.627,3.777,3.777,0,0,1,.752-1.745,11.131,11.131,0,0,1,.937-1.343.272.272,0,0,0-.039-.384.272.272,0,0,0-.383.039,11.7,11.7,0,0,0-.982,1.408,4.206,4.206,0,0,0-.829,2.006,2.75,2.75,0,0,0,.092.785A.273.273,0,0,0-659.256,373.13Z" transform="translate(723.321 -255.002)" fill="#b23d1f"/>
      <path id="Trazado_689899" data-name="Trazado 689899" d="M-677.31,381.075a.273.273,0,0,0,.225-.118.273.273,0,0,0-.07-.379,1.45,1.45,0,0,1-.459-.5,2.249,2.249,0,0,1,.1-1.934,3.1,3.1,0,0,1,1.074-1.341.273.273,0,0,0,.063-.38.272.272,0,0,0-.381-.063,3.648,3.648,0,0,0-1.261,1.578,2.752,2.752,0,0,0-.07,2.4,1.984,1.984,0,0,0,.63.687A.269.269,0,0,0-677.31,381.075Z" transform="translate(744.671 -261.726)" fill="#b23d1f"/>
      <path id="Trazado_689900" data-name="Trazado 689900" d="M-1147.219,54.713a13.234,13.234,0,0,1,1.864,2.109,13.723,13.723,0,0,1,2.374,6.171,16.556,16.556,0,0,1,2.165.484,13.819,13.819,0,0,0-2.43-6.656,13.171,13.171,0,0,0-1.749-2A17.951,17.951,0,0,0-1147.219,54.713Z" transform="translate(1267.632 19.765)" fill="#fff"/>
      <path id="Trazado_689901" data-name="Trazado 689901" d="M-1286.354,314.594a.272.272,0,0,0,.273-.27.273.273,0,0,0-.271-.275,9.053,9.053,0,0,1-5.585-1.858,8.13,8.13,0,0,1-1.291-1.291.273.273,0,0,0-.383-.043.272.272,0,0,0-.043.383,8.663,8.663,0,0,0,1.377,1.377,9.593,9.593,0,0,0,5.92,1.977Z" transform="translate(1431.166 -204.384)" fill="#b23d1f"/>
      <path id="Trazado_689902" data-name="Trazado 689902" d="M-636.374,108.348q27.734,16.243,56.828,29.855a20.446,20.446,0,0,1,2.035-2.048Q-606.908,122.451-635,106a1.358,1.358,0,0,0-1.858.487A1.358,1.358,0,0,0-636.374,108.348Z" transform="translate(640.702 -24.967)" fill="#535e7c"/>
      <path id="Trazado_689903" data-name="Trazado 689903" d="M-1149.587,389.433q11.764,5.326,23.706,10.2,12.173,4.975,24.515,9.475,1,.365,2,.726,1.984.718,3.973,1.421,1.809.643,3.621,1.272c-.013-.052-.025-.1-.035-.157-.028-.132-.053-.267-.071-.4-.007-.046-.013-.093-.018-.142-.007-.065-.014-.132-.019-.2s-.01-.135-.012-.2c-.006-.122-.006-.246,0-.371,0-.058,0-.117.008-.176,0-.008,0-.015,0-.024,0-.054.008-.109.014-.162,0-.026,0-.051.008-.077,0-.041.009-.083.015-.124,0-.012,0-.022,0-.034s0,0,0-.007c.008-.054.017-.11.027-.164.007-.039.014-.078.024-.117,0-.021.008-.043.013-.063.011-.048.021-.1.034-.145s.025-.094.039-.142.026-.093.042-.138a0,0,0,0,1,0,0q-4.94-1.724-9.855-3.528-11.957-4.385-23.76-9.216-9.691-3.967-19.269-8.231h0a4.751,4.751,0,0,1-2.114.058,3.114,3.114,0,0,0-2.251.125A2.287,2.287,0,0,0-1149.587,389.433Z" transform="translate(1218.806 -272.486)" fill="#535e7c"/>
      <path id="Trazado_689904" data-name="Trazado 689904" d="M-2040.619,584.94c0,.033.009.066.016.1s.01.051.015.077.006.028.009.043c.014.058.031.117.05.175.013.038.027.076.041.113s.026.062.04.092.031.065.049.1.037.066.057.1c.337.546.675.456,1.056,1.056a2.218,2.218,0,0,1,.384,1.337c0,.016-.007.033-.012.048s-.01.031-.015.045a.252.252,0,0,1-.019.041.159.159,0,0,1-.024.039.188.188,0,0,1-.027.034q1.77.581,3.544,1.153,2.571.827,5.146,1.635,7.868,2.464,15.822,4.747,8.651,2.484,17.387,4.745,1.272.329,2.545.654,8.331,2.124,16.718,4.042,18.293,4.185,36.746,7.364a1.288,1.288,0,0,0,.231.02,1.358,1.358,0,0,0,1.337-1.128A1.357,1.357,0,0,0-1940.63,610q-19.042-3.279-37.972-7.651-8.474-1.956-16.894-4.124-.808-.207-1.615-.418-9-2.34-17.92-4.918-7.267-2.1-14.466-4.356-3.419-1.072-6.829-2.179Q-2038.474,585.653-2040.619,584.94Z" transform="translate(2177.734 -444.338)" fill="#535e7c"/>
      <path id="Trazado_689905" data-name="Trazado 689905" d="M-2254.962,516.22q.163.53.32,1.083c.2.708.371,1.354.52,1.973a693.909,693.909,0,0,0,68.185,15.332,1.413,1.413,0,0,0,.233.02,1.359,1.359,0,0,0,1.337-1.128,1.359,1.359,0,0,0-1.108-1.57A690.617,690.617,0,0,1-2254.962,516.22Z" transform="translate(2449.311 -384.188)" fill="#535e7c"/>
      <path id="Trazado_689906" data-name="Trazado 689906" d="M-1345.936,389.894q4.9,1.83,9.82,3.582c.977-.731,1.821-1.376,2.55-1.976q-3.2-1.13-6.391-2.294h0A16.417,16.417,0,0,1-1345.936,389.894Z" transform="translate(1485.164 -273.015)" fill="#535e7c"/>
      <path id="Trazado_689907" data-name="Trazado 689907" d="M-875.464-35.328q29.456,17.251,60.444,31.533.273-.354.535-.732c.333-.478.652-.993.971-1.563q-31-14.271-60.577-31.583a1.359,1.359,0,0,0-1.859.486A1.36,1.36,0,0,0-875.464-35.328Z" transform="translate(906.523 100.791)" fill="#535e7c"/>
      <path id="Trazado_689908" data-name="Trazado 689908" d="M-2373.921-251.262c2.047,3.195,6.292,4.752,10.784,4l51.394.453c2.4.167,8.616,1.609,13.721-1.29a12.91,12.91,0,0,0,6.178-9.613,9.182,9.182,0,0,0-8.179-9.54,8.772,8.772,0,0,0-5.831,1.576,22.849,22.849,0,0,0-8.706-8.48c-5.947-3.2-15.217-4.523-18.9-.363-2.855,3.226-1.674,8.982-2.907,9.085-.8.067-1.037-2.384-2.909-4a8.416,8.416,0,0,0-8.843-.968c-3.653,1.771-5.458,6.111-4.6,8.964.5,1.686,1.954,2.906,1.818,3.03-.165.144-1.656-2.029-4.361-2.909-.775-.252-2.538-.824-3.877,0-1.424.875-1.02,2.495-2.06,2.909-1.475.584-2.976-2.386-5.694-3.151-2.466-.693-6.009.046-7.633,2.543C-2376.678-255.705-2374.053-251.468-2373.921-251.262Z" transform="translate(2571.801 310.226)" fill="#fff"/>
      <path id="Trazado_689909" data-name="Trazado 689909" d="M-1341.8-305.915a5.772,5.772,0,0,0,3.179,2.85,3.051,3.051,0,0,0-1,.937,3.321,3.321,0,0,0,.247,3.846h39.609a6.726,6.726,0,0,0,4.482-.363c1.061-.5,3.411-2,3.03-3.635a2.246,2.246,0,0,0-1.009-1.31,5.635,5.635,0,0,0,1.251-4.018c-.365-3.509-4.351-4.878-4.969-5.09a8.906,8.906,0,0,0-6.822.649c.847-3.637-.242-7.105-2.626-8.766-.17-.118-3.308-2.227-6.42-.6a5.812,5.812,0,0,0-2.358,2.322,16,16,0,0,0-1.7-1.382c-4.188-2.95-12.128-5.476-17.171-1.091a11.523,11.523,0,0,0-3.612,7.72,3.192,3.192,0,0,0-1.2.064C-1341.641-313.09-1343.176-308.883-1341.8-305.915Z" transform="translate(1443.128 351.189)" fill="#fff"/>
      <path id="Trazado_689910" data-name="Trazado 689910" d="M-838.954-122.757c.363,1.369,3.872,1.534,6.542,1.637,4.974.191,12.014.415,20.9.543l6.783.062c.34.082,3.946.9,6.057-1.333a3.3,3.3,0,0,0,1.089-2.423c-.18-1.833-2.824-3.293-5.087-3.39-1.8-.08-2.42.741-3.272.242-1.388-.816-.131-3.223-1.576-5.21-1.393-1.918-4.683-2.6-7.146-1.575a5.884,5.884,0,0,0-1.4.831,9.518,9.518,0,0,0-3.813-.466c-1.2.1-3.614.3-4.9,2-1.6,2.1-.309,4.956-1.454,5.452-.7.3-1.228-.749-2.909-1.272-2.672-.834-5.293.6-6.178,1.089C-836.441-125.957-839.312-124.1-838.954-122.757Z" transform="translate(885.949 185.537)" fill="#fff"/>
      <path id="Trazado_689911" data-name="Trazado 689911" d="M-1226.281,924.458c5.257,1.527,10.573,2.97,15.936,4.414q.887.239,1.813.481l19.814-30.228q-5.861-2.162-11.551-4.518Z" transform="translate(1325.393 -715.386)" fill="#4887c8"/>
      <path id="Trazado_689912" data-name="Trazado 689912" d="M-1921.268,1252.495h4.713a.272.272,0,0,0,.272-.272.272.272,0,0,0-.272-.273h-4.713a.272.272,0,0,0-.273.273A.272.272,0,0,0-1921.268,1252.495Z" transform="translate(2139.663 -1028.164)" fill="#535e7c"/>
      <path id="Trazado_689913" data-name="Trazado 689913" d="M-1966,1094.117h4.329a.273.273,0,0,0,.272-.273.272.272,0,0,0-.272-.272H-1966a.272.272,0,0,0-.272.272A.273.273,0,0,0-1966,1094.117Z" transform="translate(2190.361 -889.538)" fill="#535e7c"/>
      <path id="Trazado_689914" data-name="Trazado 689914" d="M-1740.8,1236.769a.272.272,0,0,0,.271-.244.272.272,0,0,0-.243-.3l-4.617-.481a.272.272,0,0,0-.3.243.272.272,0,0,0,.243.3l4.617.481Z" transform="translate(1941.981 -1013.978)" fill="#535e7c"/>
      <path id="Trazado_689915" data-name="Trazado 689915" d="M-1530.527,1213.538a.273.273,0,0,0,.266-.212.272.272,0,0,0-.206-.326l-5.109-1.154a.272.272,0,0,0-.326.206.272.272,0,0,0,.205.326l5.109,1.154A.268.268,0,0,0-1530.527,1213.538Z" transform="translate(1705.543 -993.055)" fill="#535e7c"/>
      <path id="Trazado_689916" data-name="Trazado 689916" d="M-1273.609,1174.789a.273.273,0,0,0,.267-.221.273.273,0,0,0-.216-.319l-5.969-1.151a.274.274,0,0,0-.319.216.273.273,0,0,0,.216.319l5.969,1.151A.278.278,0,0,0-1273.609,1174.789Z" transform="translate(1416.693 -959.142)" fill="#535e7c"/>
      <path id="Trazado_689917" data-name="Trazado 689917" d="M-1034.225,1125.776a.272.272,0,0,0,.267-.219.273.273,0,0,0-.213-.321l-5.167-1.047a.272.272,0,0,0-.322.213.273.273,0,0,0,.213.321l5.167,1.046A.273.273,0,0,0-1034.225,1125.776Z" transform="translate(1147.355 -916.332)" fill="#535e7c"/>
      <path id="Trazado_689918" data-name="Trazado 689918" d="M-1181.821,940.389a.273.273,0,0,0,.259-.186.273.273,0,0,0-.172-.345l-4.59-1.532a.272.272,0,0,0-.345.172.273.273,0,0,0,.172.345l4.59,1.532A.271.271,0,0,0-1181.821,940.389Z" transform="translate(1313.285 -753.64)" fill="#535e7c"/>
      <path id="Trazado_689919" data-name="Trazado 689919" d="M-986.256,861.881a.272.272,0,0,0,.25-.165.273.273,0,0,0-.143-.358l-5.757-2.476a.273.273,0,0,0-.358.143.272.272,0,0,0,.142.358l5.757,2.476A.274.274,0,0,0-986.256,861.881Z" transform="translate(1093.476 -684.098)" fill="#535e7c"/>
      <path id="Trazado_689920" data-name="Trazado 689920" d="M-588.731,941.667a.272.272,0,0,0,.246-.156.272.272,0,0,0-.13-.363l-5.964-2.812a.272.272,0,0,0-.363.13.272.272,0,0,0,.13.363l5.964,2.812A.269.269,0,0,0-588.731,941.667Z" transform="translate(646.402 -753.638)" fill="#535e7c"/>
      <path id="Trazado_689921" data-name="Trazado 689921" d="M-793.459,750.377a.273.273,0,0,0,.223-.116.272.272,0,0,0-.067-.38l-3.265-2.293a.273.273,0,0,0-.379.066.272.272,0,0,0,.066.38l3.265,2.293A.27.27,0,0,0-793.459,750.377Z" transform="translate(876.325 -586.659)" fill="#535e7c"/>
      <path id="Trazado_689922" data-name="Trazado 689922" d="M-629.311,642.481a.273.273,0,0,0,.224-.117.272.272,0,0,0-.068-.38l-5.811-4.056a.274.274,0,0,0-.379.068.272.272,0,0,0,.068.38l5.811,4.056A.271.271,0,0,0-629.311,642.481Z" transform="translate(692.024 -490.676)" fill="#535e7c"/>
      <path id="Trazado_689923" data-name="Trazado 689923" d="M-390.824,789.535a.271.271,0,0,0,.206-.095.272.272,0,0,0-.029-.384l-4.886-4.2a.273.273,0,0,0-.384.029.272.272,0,0,0,.029.384l4.886,4.2A.271.271,0,0,0-390.824,789.535Z" transform="translate(423.679 -619.261)" fill="#535e7c"/>
      <path id="Trazado_689924" data-name="Trazado 689924" d="M-226.7,598.459a.272.272,0,0,0,.139-.038.272.272,0,0,0,.1-.373l-1.773-2.989a.272.272,0,0,0-.373-.1.272.272,0,0,0-.1.374l1.773,2.989A.272.272,0,0,0-226.7,598.459Z" transform="translate(238.695 -453.077)" fill="#535e7c"/>
      <path id="Trazado_689925" data-name="Trazado 689925" d="M-461.7,504.431a.273.273,0,0,0,.177-.065.272.272,0,0,0,.03-.384l-2.567-3a.273.273,0,0,0-.384-.03.272.272,0,0,0-.03.384l2.567,3A.272.272,0,0,0-461.7,504.431Z" transform="translate(503.106 -370.762)" fill="#535e7c"/>
      <path id="Trazado_689926" data-name="Trazado 689926" d="M-1539.955,468.989a.272.272,0,0,0,.158-.05l3.12-2.224a.273.273,0,0,0,.113-.246l-.278-3.112a.272.272,0,0,0-.221-.243l-5.336-1a.274.274,0,0,0-.214.05.271.271,0,0,0-.107.192l-.348,3.78a.271.271,0,0,0,.089.228l2.842,2.557A.272.272,0,0,0-1539.955,468.989Zm2.834-2.628-2.815,2.006-2.578-2.319.308-3.345,4.839.907Z" transform="translate(1712.745 -336.824)" fill="#43334c"/>
      <path id="Trazado_689927" data-name="Trazado 689927" d="M-1639.247,485.7a.271.271,0,0,0,.129-.033.271.271,0,0,0,.136-.176l.778-3.223a.28.28,0,0,0,0-.143l-.612-2a.266.266,0,0,0-.284-.192l-5.335.445a.272.272,0,0,0-.209.127.272.272,0,0,0-.022.244l1.333,3.391a.271.271,0,0,0,.161.156l3.835,1.389A.27.27,0,0,0-1639.247,485.7Zm.5-3.487-.689,2.855-3.433-1.243-1.154-2.935,4.751-.4Z" transform="translate(1827.051 -352.42)" fill="#43334c"/>
      <path id="Trazado_689928" data-name="Trazado 689928" d="M-1592.107,514.63a.272.272,0,0,0,.266-.219,27,27,0,0,0,.51-6.389,26.906,26.906,0,0,0-.389-3.6.273.273,0,0,0-.316-.221.272.272,0,0,0-.221.316,26.37,26.37,0,0,1,.38,3.522,26.437,26.437,0,0,1-.5,6.26.272.272,0,0,0,.214.321A.275.275,0,0,0-1592.107,514.63Z" transform="translate(1773.641 -373.668)" fill="#43334c"/>
      <path id="Trazado_689929" data-name="Trazado 689929" d="M-1573.837,535.516a.271.271,0,0,0,.2-.085.273.273,0,0,0-.011-.385c-.458-.432-.941-.85-1.436-1.242a23.551,23.551,0,0,0-9.852-4.526.274.274,0,0,0-.323.21.273.273,0,0,0,.21.323,23.009,23.009,0,0,1,9.626,4.42c.483.382.954.789,1.4,1.211A.272.272,0,0,0-1573.837,535.516Z" transform="translate(1755.009 -395.612)" fill="#43334c"/>
      <path id="Trazado_689930" data-name="Trazado 689930" d="M-1584.272,599.553h.013a.272.272,0,0,0,.259-.285,45.259,45.259,0,0,1,.383-8.413c.109-.782.242-1.575.394-2.354a.273.273,0,0,0-.216-.32.274.274,0,0,0-.32.215c-.153.789-.288,1.591-.4,2.383a45.763,45.763,0,0,0-.387,8.515A.272.272,0,0,0-1584.272,599.553Z" transform="translate(1764.579 -447.169)" fill="#b23d1f"/>
      <path id="Trazado_689931" data-name="Trazado 689931" d="M-1608.472,791.058a.272.272,0,0,0,.271-.248,83.248,83.248,0,0,0-1.062-23.836c-.1-.486-.214-1.031-.342-1.634a126.137,126.137,0,0,1-2.443-15.362c-.238-2.523-.4-5.074-.48-7.582a.273.273,0,0,0-.281-.263.273.273,0,0,0-.264.281c.081,2.519.243,5.081.482,7.615a126.742,126.742,0,0,0,2.452,15.424c.128.6.243,1.144.341,1.629a82.7,82.7,0,0,1,1.054,23.68.273.273,0,0,0,.247.3Z" transform="translate(1792.723 -581.925)" fill="#b23d1f"/>
      <path id="Trazado_689932" data-name="Trazado 689932" d="M-1718.625,588.97a.258.258,0,0,0,.062-.007.272.272,0,0,0,.2-.327c-.712-3.066-1.326-6.2-1.823-9.311-.432-2.693-.787-5.439-1.056-8.159a.276.276,0,0,0-.3-.244.273.273,0,0,0-.245.3c.271,2.732.628,5.488,1.06,8.192.5,3.124,1.116,6.27,1.831,9.349A.273.273,0,0,0-1718.625,588.97Z" transform="translate(1916.822 -432.066)" fill="#b23d1f"/>
      <path id="Trazado_689933" data-name="Trazado 689933" d="M-1475.975,301.5h.017a38.787,38.787,0,0,0,16.724-4.779c2.954-1.649,6.631-3.7,9.269-7.982a23.542,23.542,0,0,0,2.986-8.882,35.6,35.6,0,0,0,.066-10.788,43.1,43.1,0,0,0-.839-4.646.27.27,0,0,0-.328-.2.272.272,0,0,0-.2.328,42.6,42.6,0,0,1,.828,4.587,35.087,35.087,0,0,1-.063,10.629,22.752,22.752,0,0,1-2.913,8.688c-2.563,4.16-6.172,6.174-9.071,7.792a38.247,38.247,0,0,1-16.492,4.711.273.273,0,0,0-.255.288A.273.273,0,0,0-1475.975,301.5Z" transform="translate(1614.377 -163.605)" fill="#b23d1f"/>
      <path id="Trazado_689934" data-name="Trazado 689934" d="M-1382.925,376.45a.272.272,0,0,0,.263-.2,16.334,16.334,0,0,1,1.009-2.775,16.288,16.288,0,0,1,1.388-2.4.272.272,0,0,0-.068-.379.272.272,0,0,0-.38.067,16.861,16.861,0,0,0-1.433,2.477,16.859,16.859,0,0,0-1.043,2.868.273.273,0,0,0,.194.333A.277.277,0,0,0-1382.925,376.45Z" transform="translate(1536.46 -256.769)" fill="#b23d1f"/>
      <path id="Trazado_689935" data-name="Trazado 689935" d="M-1237.464,571.187a.51.51,0,0,0,.345-.12c.294-.257.217-.781-.249-1.7a.273.273,0,0,0-.367-.119.273.273,0,0,0-.12.366,2.512,2.512,0,0,1,.363,1.025,1.076,1.076,0,0,1-.258-.079,4.442,4.442,0,0,1-3.053-3.445,3.489,3.489,0,0,1,.291-1.607.273.273,0,0,0-.144-.358.272.272,0,0,0-.358.144,4.032,4.032,0,0,0-.334,1.856c.007.107.208,2.618,3.392,3.914A1.346,1.346,0,0,0-1237.464,571.187Z" transform="translate(1375.5 -426.999)" fill="#b23d1f"/>
      <path id="Trazado_689936" data-name="Trazado 689936" d="M-1215.328,572.835a.636.636,0,0,0,.3-.071c.344-.182.448-.653.335-1.526A.273.273,0,0,0-1215,571a.273.273,0,0,0-.235.305c.11.85-.048.974-.05.975-.026.014-.157.022-.419-.113a5.418,5.418,0,0,1-2.454-3.723,4.513,4.513,0,0,1,.213-2.057.272.272,0,0,0-.171-.345.271.271,0,0,0-.345.171,5.044,5.044,0,0,0-.236,2.3,5.932,5.932,0,0,0,2.744,4.135A1.394,1.394,0,0,0-1215.328,572.835Z" transform="translate(1350.381 -427.786)" fill="#b23d1f"/>
      <path id="Trazado_689937" data-name="Trazado 689937" d="M-1193.188,571.956a.557.557,0,0,0,.146-.019c.287-.077.488-.372.581-.853a.272.272,0,0,0-.216-.319.274.274,0,0,0-.319.216c-.063.329-.166.424-.187.43s-.146,0-.535-.485a7.873,7.873,0,0,1-2.014-3.588,7.149,7.149,0,0,1-.139-1.791.272.272,0,0,0-.259-.285.276.276,0,0,0-.285.259,7.664,7.664,0,0,0,.15,1.928,8.385,8.385,0,0,0,2.123,3.819C-1193.928,571.532-1193.586,571.956-1193.188,571.956Z" transform="translate(1325.406 -427.112)" fill="#b23d1f"/>
      <path id="Trazado_689938" data-name="Trazado 689938" d="M-996.044,549.712a48.257,48.257,0,0,0,4.382,3.254c2.594,1.7,7.914,4.3,11.909,3.881.414-1.27.768-2.447,1.063-3.5-.3-.016-.61-.033-.916-.06a27.378,27.378,0,0,1-15.665-6.742.93.93,0,0,0-.076-.071C-995.548,547.4-995.782,548.486-996.044,549.712Z" transform="translate(1086.652 -410.665)" fill="#f56028"/>
      <path id="Trazado_689939" data-name="Trazado 689939" d="M-1263.474,566.923c.376,1.324.965,3.107,1.673,5.063.9.245,1.913.49,3.036.709,2.4.474,10.7,2.109,16.891.708q-1.292-.417-2.578-.839c-.005.005-.005.011-.011.011a.65.65,0,0,1-.54.131c-.022-.005-.043-.005-.065-.011a1.577,1.577,0,0,1-.256-.044l-.049-.016a3.352,3.352,0,0,1-.354-.115c-.049-.022-.1-.044-.158-.065-.033-.016-.065-.027-.1-.044-.076-.038-.152-.071-.229-.114-.131-.071-.267-.147-.4-.234a.667.667,0,0,0-.076-.054c-.027-.016-.054-.038-.082-.055a.917.917,0,0,0-.076-.055l-.261-.213h-.005a1.063,1.063,0,0,0-.082-.076c-.033-.027-.06-.055-.087-.082a.756.756,0,0,1,.011.1.119.119,0,0,1,.005.044c.006.049.011.093.016.142.005.065.016.125.016.191.005.038.005.076.011.115a.741.741,0,0,1,.005.109c.049.932-.125,1.292-.354,1.4-.458.224-1.423-.414-2.218-1.472-.175,1-.507,1.194-.671,1.248-.643.207-1.668-.812-2.371-2.088a5.205,5.205,0,0,1-.049.643c-.1.856-.284.932-.333.948-.213.065-.534-.2-.866-.638l-.005-.005a.924.924,0,0,1-.065-.076.977.977,0,0,1-.065-.076,10.406,10.406,0,0,1-.725-.927,1.923,1.923,0,0,1-.147-.218c-.027-.033-.049-.071-.076-.109s-.049-.076-.071-.114-.049-.082-.071-.12a7.161,7.161,0,0,1-.343-.638c-.016-.033-.038-.071-.054-.109-.06-.131-.12-.267-.174-.409-.016-.049-.038-.093-.055-.142a1.223,1.223,0,0,0-.049-.131c-.033-.1-.065-.207-.093-.311a1.21,1.21,0,0,1-.038-.131,1.461,1.461,0,0,1-.038-.147c-1.21-.425-2.415-.845-3.619-1.275A16.667,16.667,0,0,1-1263.474,566.923Z" transform="translate(1383.188 -428.568)" fill="#f56028"/>
      <path id="Trazado_689940" data-name="Trazado 689940" d="M-853.839,263.87a.274.274,0,0,0,.136-.036c.687-.4,1.372-.82,2.034-1.26.759-.5,1.509-1.042,2.228-1.6a.272.272,0,0,0,.049-.382.273.273,0,0,0-.382-.049c-.709.549-1.448,1.079-2.2,1.576-.653.433-1.328.851-2.006,1.241a.273.273,0,0,0-.1.372A.273.273,0,0,0-853.839,263.87Z" transform="translate(939.595 -160.348)" fill="#b23d1f"/>
      <path id="Trazado_689941" data-name="Trazado 689941" d="M-1075.141,457.489h.014a.272.272,0,0,0,.258-.286,40.928,40.928,0,0,1,.192-6.5c.077-.7.173-1.407.287-2.1a.273.273,0,0,0-.225-.313.274.274,0,0,0-.313.225c-.115.7-.213,1.421-.291,2.13a41.5,41.5,0,0,0-.194,6.584A.272.272,0,0,0-1075.141,457.489Z" transform="translate(1192.254 -324.728)" fill="#43334c"/>
      <path id="Trazado_689942" data-name="Trazado 689942" d="M-1171.734,433.219a66.015,66.015,0,0,0,9.5-.685,66.02,66.02,0,0,0,7.147-1.449.273.273,0,0,0,.195-.333.272.272,0,0,0-.332-.195,65.522,65.522,0,0,1-7.088,1.437,65.654,65.654,0,0,1-13.123.575.262.262,0,0,0-.287.257.272.272,0,0,0,.257.287Q-1173.6,433.219-1171.734,433.219Z" transform="translate(1285.257 -309.201)" fill="#43334c"/>
      <path id="Trazado_689943" data-name="Trazado 689943" d="M-1474.023,178.293a.273.273,0,0,0,.262-.2,25.525,25.525,0,0,0,.972-6.223c.014-.492.014-.993,0-1.491a.282.282,0,0,0-.281-.265.272.272,0,0,0-.264.28c.014.487.014.978,0,1.459a24.988,24.988,0,0,1-.951,6.089.273.273,0,0,0,.188.337A.266.266,0,0,0-1474.023,178.293Z" transform="translate(1640.383 -81.248)" fill="#43334c"/>
      <path id="Trazado_689944" data-name="Trazado 689944" d="M-1010.02,128.061a.272.272,0,0,0,.261-.193,47.094,47.094,0,0,0,1.693-7.982c.1-.849.185-1.712.242-2.564a.273.273,0,0,0-.254-.29.277.277,0,0,0-.29.254c-.056.842-.136,1.694-.239,2.534a46.576,46.576,0,0,1-1.673,7.889.273.273,0,0,0,.181.34A.276.276,0,0,0-1010.02,128.061Z" transform="translate(1117.563 -34.784)" fill="#fff"/>
    </g>
    <path id="Trazado_689945" data-name="Trazado 689945" d="M-1964.461,842.549a.272.272,0,0,0,.27-.236c.778-5.787,1.7-11.774,2.676-18.114,1.614-10.486,3.282-21.33,4.3-31.455q.4-3.953.77-7.889a.273.273,0,0,0-.246-.3.277.277,0,0,0-.3.245q-.373,3.934-.769,7.886c-1.015,10.111-2.683,20.947-4.3,31.426-.976,6.342-1.9,12.332-2.677,18.124a.273.273,0,0,0,.234.306Z" transform="translate(2185.214 -619.06)" fill="#535e7c"/>
    <path id="Trazado_689946" data-name="Trazado 689946" d="M-1720.068,792.352h.006a.273.273,0,0,0,.266-.279l-1.442-63.447a.28.28,0,0,0-.279-.266.273.273,0,0,0-.266.279l1.442,63.447A.273.273,0,0,0-1720.068,792.352Z" transform="translate(1918.265 -569.872)" fill="#535e7c"/>
    <path id="Trazado_689947" data-name="Trazado 689947" d="M-1523.019,752.623a.272.272,0,0,0,.272-.268l.981-66.166a.272.272,0,0,0-.268-.276h0a.273.273,0,0,0-.272.269l-.981,66.166a.273.273,0,0,0,.268.276Z" transform="translate(1695.48 -532.717)" fill="#535e7c"/>
    <path id="Trazado_689948" data-name="Trazado 689948" d="M-1291.226,673.576a.273.273,0,0,0,.271-.252l5.308-70.886a.273.273,0,0,0-.252-.292.27.27,0,0,0-.292.252l-5.308,70.886a.273.273,0,0,0,.252.292Z" transform="translate(1430.454 -459.396)" fill="#535e7c"/>
    <path id="Trazado_689949" data-name="Trazado 689949" d="M-1079.507,616.747a.272.272,0,0,0,.27-.244l7.587-72.377a.272.272,0,0,0-.243-.3.27.27,0,0,0-.3.242l-7.586,72.377a.272.272,0,0,0,.243.3Z" transform="translate(1190.054 -408.349)" fill="#535e7c"/>
    <path id="Trazado_689950" data-name="Trazado 689950" d="M-887.775,536.427a.273.273,0,0,0,.266-.216l15.675-73.773a.273.273,0,0,0-.21-.323.277.277,0,0,0-.323.21L-888.042,536.1a.273.273,0,0,0,.21.323A.274.274,0,0,0-887.775,536.427Z" transform="translate(966.322 -336.825)" fill="#535e7c"/>
    <path id="Trazado_689951" data-name="Trazado 689951" d="M-711.906,472.909a.273.273,0,0,0,.264-.206l17.175-68.223a.273.273,0,0,0-.2-.331.273.273,0,0,0-.331.2l-17.175,68.223a.273.273,0,0,0,.2.331A.274.274,0,0,0-711.906,472.909Z" transform="translate(767.02 -286.087)" fill="#535e7c"/>
    <path id="Trazado_689952" data-name="Trazado 689952" d="M-563.034,371.824a.273.273,0,0,0,.253-.171l24.158-60.484a.272.272,0,0,0-.152-.354.272.272,0,0,0-.354.152l-24.158,60.484a.272.272,0,0,0,.152.354A.273.273,0,0,0-563.034,371.824Z" transform="translate(592.598 -204.381)" fill="#535e7c"/>
    <path id="Trazado_689953" data-name="Trazado 689953" d="M-356.535,267.5a.273.273,0,0,0,.257-.18l17.21-47.758a.272.272,0,0,0-.164-.349.272.272,0,0,0-.349.164l-17.21,47.758a.272.272,0,0,0,.164.349A.269.269,0,0,0-356.535,267.5Z" transform="translate(367.294 -124.204)" fill="#535e7c"/>
  </g>
</svg>
