<svg xmlns="http://www.w3.org/2000/svg" width="55" height="55" viewBox="0 0 55 55">
  <g id="_30" data-name="30" transform="translate(-285 -1924)">
    <circle id="Elipse_4813" data-name="Elipse 4813" cx="27.5" cy="27.5" r="27.5" transform="translate(285 1924)" fill="#4d793f"/>
    <g id="informacion" transform="translate(294.038 1933.038)">
      <g id="Grupo_947431" data-name="Grupo 947431">
        <path id="Trazado_690633" data-name="Trazado 690633" d="M35.684,16.611V0H1.23V16.611H0V20.3H1.23V36.914H35.684V20.3h1.23V16.611ZM2.461,1.23H34.453V16.611h-1.23V14.766a3.076,3.076,0,0,0-2.522-3.02,3.046,3.046,0,0,0,.677-1.9V7.383A3.08,3.08,0,0,0,28.3,4.307H25.225a.615.615,0,0,0-.615.615,3.066,3.066,0,0,0,1.6,2.681,3.048,3.048,0,0,0,.273,4.708c-.062.038-.123.072-.177.112l-.017.01a4.007,4.007,0,0,0-.375.3l-.006.009-.464.5-.3.449c-.011.019-.018.039-.029.058-.029.052-.052.106-.079.159a3.948,3.948,0,0,0-.169.388c-.024.062-.046.129-.066.2a3.921,3.921,0,0,0-.1.4c-.012.062-.026.123-.036.185a4.014,4.014,0,0,0-.05.6v.923H20.918v-1.23a3.691,3.691,0,0,0-1.776-3.149A3.059,3.059,0,0,0,20.3,9.844V7.518a1.835,1.835,0,0,0,.615-1.366V3.691a.615.615,0,1,0-1.23,0,.615.615,0,0,1-.615.615H15.381a1.839,1.839,0,0,0-1.23,3.212V9.844a3.059,3.059,0,0,0,1.161,2.388,3.691,3.691,0,0,0-1.776,3.149v1.23H9.844v-1.23h1.846a.615.615,0,0,0,.615-.615V9.844a.615.615,0,0,0-.615-.615H4.307a.615.615,0,0,0-.615.615v4.922a.615.615,0,0,0,.615.615H6.152v1.23H2.461ZM26.784,13.609a2.738,2.738,0,0,1,1.2-.615c-.009.015-.014.032-.022.047-.017.033-.031.066-.046.1-.033.071-.062.142-.087.216-.013.038-.025.075-.037.114-.022.076-.04.153-.055.232-.007.035-.015.07-.02.105a2.412,2.412,0,0,0-.027.343v.361Zm.9,2.642v2.821H25.84V15.689a2.756,2.756,0,0,1,.05-.5c0-.022.007-.045.012-.068a2.717,2.717,0,0,1,.14-.453l.017-.041Zm-1.23-6.407A1.846,1.846,0,0,1,28.3,8h1.846V9.844a1.846,1.846,0,0,1-3.691,0Zm-.51-4.307H28.3a1.849,1.849,0,0,1,1.74,1.23H27.686A1.849,1.849,0,0,1,25.945,5.537Zm2.971,11.944V14.15a1.234,1.234,0,0,1,.8-1.147,1.211,1.211,0,0,1,.431-.084,1.846,1.846,0,0,1,1.846,1.846v4.307H28.916ZM15.381,8h3.691V9.844a1.846,1.846,0,0,1-3.691,0Zm-.615-1.846a.615.615,0,0,1,.615-.615h3.691a1.838,1.838,0,0,0,.615-.105v.72a.615.615,0,0,1-.615.615H15.381A.615.615,0,0,1,14.766,6.152Zm2.461,6.768a2.461,2.461,0,0,1,2.461,2.461v1.23H14.766v-1.23A2.461,2.461,0,0,1,17.227,12.92ZM6.768,14.15H4.922V10.459h6.152V14.15Zm1.846,1.23v1.23H7.383v-1.23ZM1.23,17.842H24.609v1.23H1.23ZM22.262,35.684H2.461V20.3H24.609v12.92h-.615a1.846,1.846,0,0,0-1.846,1.846A1.823,1.823,0,0,0,22.262,35.684Zm5.424,0H23.994a.615.615,0,1,1,0-1.23h3.691Zm0-2.461H25.84V22.764h1.846ZM25.84,21.533V20.3h5.537v1.23H25.84Zm4.307,14.15h-1.23v-1.23h1.23Zm0-2.461h-1.23V22.764h1.23Zm4.307,2.461H31.377V22.764h1.23V20.3h1.846Zm1.23-16.611H33.223v-1.23h2.461Z" fill="#fff"/>
      </g>
    </g>
  </g>
</svg>
