<svg xmlns="http://www.w3.org/2000/svg" width="55" height="55" viewBox="0 0 55 55">
  <g id="_31" data-name="31" transform="translate(-285 -1990)">
    <circle id="Elipse_4814" data-name="Elipse 4814" cx="27.5" cy="27.5" r="27.5" transform="translate(285 1990)" fill="#4d793f"/>
    <g id="agencia-de-viajes" transform="translate(294 1998.007)">
      <path id="Trazado_690634" data-name="Trazado 690634" d="M19,51.194H.594a.594.594,0,1,1,0-1.187H19a.594.594,0,1,1,0,1.187Z" transform="translate(0 -20.322)" fill="#fff"/>
      <path id="Trazado_690635" data-name="Trazado 690635" d="M58.937,52.194H53.594a.594.594,0,1,1,0-1.187h5.343a.594.594,0,1,1,0,1.187Z" transform="translate(-21.535 -20.728)" fill="#fff"/>
      <path id="Trazado_690636" data-name="Trazado 690636" d="M62.594,50.975A.593.593,0,0,1,62,50.382V48.6a.594.594,0,1,1,1.187,0v1.781a.593.593,0,0,1-.594.594Z" transform="translate(-25.192 -19.509)" fill="#fff"/>
      <path id="Trazado_690637" data-name="Trazado 690637" d="M58.937,49.194H53.594a.594.594,0,1,1,0-1.187h5.343a.594.594,0,1,1,0,1.187Z" transform="translate(-21.535 -19.509)" fill="#fff"/>
      <path id="Trazado_690638" data-name="Trazado 690638" d="M19,48.194H.594a.594.594,0,1,1,0-1.187H19a.594.594,0,1,1,0,1.187Z" transform="translate(0 -19.103)" fill="#fff"/>
      <path id="Trazado_690639" data-name="Trazado 690639" d="M.594,49.975A.593.593,0,0,1,0,49.382V47.6a.594.594,0,1,1,1.187,0v1.781a.593.593,0,0,1-.594.594Z" transform="translate(0 -19.103)" fill="#fff"/>
      <path id="Trazado_690640" data-name="Trazado 690640" d="M3.594,58.318A.593.593,0,0,1,3,57.725V50.6a.594.594,0,1,1,1.187,0v7.124a.593.593,0,0,1-.594.594Z" transform="translate(-1.219 -20.322)" fill="#fff"/>
      <path id="Trazado_690641" data-name="Trazado 690641" d="M6.594,58.318A.593.593,0,0,1,6,57.725V50.6a.594.594,0,1,1,1.187,0v7.124a.593.593,0,0,1-.594.594Z" transform="translate(-2.438 -20.322)" fill="#fff"/>
      <path id="Trazado_690642" data-name="Trazado 690642" d="M10.594,31.029A.593.593,0,0,1,10,30.435v-1.7a.594.594,0,1,1,1.187,0v1.7a.593.593,0,0,1-.594.594Z" transform="translate(-4.063 -11.436)" fill="#fff"/>
      <path id="Trazado_690643" data-name="Trazado 690643" d="M24.594,30.772A.593.593,0,0,1,24,30.178V28.1a.594.594,0,1,1,1.187,0v2.078a.593.593,0,0,1-.594.594Z" transform="translate(-9.752 -11.179)" fill="#fff"/>
      <path id="Trazado_690644" data-name="Trazado 690644" d="M18.5,25.646a.593.593,0,0,1-.594-.594,3.859,3.859,0,0,0-7.718,0,.594.594,0,0,1-1.187,0,5.046,5.046,0,1,1,10.093,0,.593.593,0,0,1-.594.594Z" transform="translate(-3.657 -8.132)" fill="#fff"/>
      <path id="Trazado_690645" data-name="Trazado 690645" d="M18.5,29.067a.593.593,0,0,1-.472-.232c-1.146-1.5-1.458-1.374-2.621-.913A10,10,0,0,1,9.5,28.54a.593.593,0,1,1,.186-1.172,8.847,8.847,0,0,0,5.283-.55c1.432-.567,2.391-.807,4,1.295a.594.594,0,0,1-.471.955Z" transform="translate(-3.657 -10.739)" fill="#fff"/>
      <path id="Trazado_690646" data-name="Trazado 690646" d="M20.593,26.016a.593.593,0,0,1-.532-.855l1.187-2.417a.594.594,0,1,1,1.066.523l-1.187,2.417a.593.593,0,0,1-.533.332Z" transform="translate(-8.126 -9.109)" fill="#fff"/>
      <path id="Trazado_690647" data-name="Trazado 690647" d="M8.594,43.971A.593.593,0,0,1,8,43.377,2.377,2.377,0,0,1,10.375,41a.594.594,0,0,1,0,1.187,1.188,1.188,0,0,0-1.187,1.187.593.593,0,0,1-.594.594Z" transform="translate(-3.251 -16.663)" fill="#fff"/>
      <path id="Trazado_690648" data-name="Trazado 690648" d="M13.375,42.2H11.594a.594.594,0,0,1,0-1.187h1.781a.594.594,0,0,1,0,1.187Z" transform="translate(-4.47 -16.666)" fill="#fff"/>
      <path id="Trazado_690649" data-name="Trazado 690649" d="M8.594,46.973A.593.593,0,0,1,8,46.38V44.6a.594.594,0,0,1,1.187,0V46.38a.593.593,0,0,1-.594.594Z" transform="translate(-3.251 -17.882)" fill="#fff"/>
      <path id="Trazado_690650" data-name="Trazado 690650" d="M25.375,43.971a.593.593,0,0,1-.594-.594,1.188,1.188,0,0,0-1.187-1.187.594.594,0,1,1,0-1.187,2.377,2.377,0,0,1,2.375,2.374.593.593,0,0,1-.594.594Z" transform="translate(-9.345 -16.663)" fill="#fff"/>
      <path id="Trazado_690651" data-name="Trazado 690651" d="M22.375,42.2H20.594a.594.594,0,1,1,0-1.187h1.781a.594.594,0,0,1,0,1.187Z" transform="translate(-8.126 -16.666)" fill="#fff"/>
      <path id="Trazado_690652" data-name="Trazado 690652" d="M26.594,46.973A.593.593,0,0,1,26,46.38V44.6a.594.594,0,0,1,1.187,0V46.38a.593.593,0,0,1-.594.594Z" transform="translate(-10.564 -17.882)" fill="#fff"/>
      <path id="Trazado_690653" data-name="Trazado 690653" d="M14.594,40.7A.593.593,0,0,1,14,40.106V37.919a.594.594,0,1,1,1.187,0v2.187a.593.593,0,0,1-.594.594Z" transform="translate(-5.689 -15.169)" fill="#fff"/>
      <path id="Trazado_690654" data-name="Trazado 690654" d="M20.594,40.7A.593.593,0,0,1,20,40.1V37.919a.594.594,0,1,1,1.187,0V40.1a.593.593,0,0,1-.594.594Z" transform="translate(-8.126 -15.169)" fill="#fff"/>
      <path id="Trazado_690655" data-name="Trazado 690655" d="M14.749,36.343A4.754,4.754,0,0,1,10,31.6a.594.594,0,1,1,1.187,0,3.562,3.562,0,0,0,7.124,0,.594.594,0,1,1,1.187,0A4.754,4.754,0,0,1,14.749,36.343Z" transform="translate(-4.063 -12.6)" fill="#fff"/>
      <path id="Trazado_690656" data-name="Trazado 690656" d="M15.594,42.783a.594.594,0,0,1-.266-1.125l1.187-.594a.594.594,0,1,1,.531,1.062l-1.187.594a.594.594,0,0,1-.265.063Z" transform="translate(-6.095 -16.663)" fill="#fff"/>
      <path id="Trazado_690657" data-name="Trazado 690657" d="M19.594,42.783a.594.594,0,0,1-.42-1.013l.594-.594a.594.594,0,1,1,.839.839l-.594.594a.592.592,0,0,1-.42.174Z" transform="translate(-7.72 -16.663)" fill="#fff"/>
      <path id="Trazado_690658" data-name="Trazado 690658" d="M15.187,42.783a.592.592,0,0,1-.42-.174l-.594-.594a.594.594,0,1,1,.839-.84l.594.594a.594.594,0,0,1-.42,1.013Z" transform="translate(-5.689 -16.663)" fill="#fff"/>
      <path id="Trazado_690659" data-name="Trazado 690659" d="M18.78,42.783a.594.594,0,0,1-.265-.063l-1.187-.594a.594.594,0,1,1,.531-1.062l1.187.594a.594.594,0,0,1-.266,1.125Z" transform="translate(-6.907 -16.663)" fill="#fff"/>
      <path id="Trazado_690660" data-name="Trazado 690660" d="M48.376,26.976a.593.593,0,0,1-.594-.594,1.19,1.19,0,0,0-1.189-1.188.594.594,0,1,1,0-1.187,2.378,2.378,0,0,1,2.376,2.375.593.593,0,0,1-.594.594Z" transform="translate(-18.691 -9.757)" fill="#fff"/>
      <path id="Trazado_690661" data-name="Trazado 690661" d="M46.594,23.975A.593.593,0,0,1,46,23.382V21.6a.594.594,0,1,1,1.187,0v1.781a.593.593,0,0,1-.594.594Z" transform="translate(-18.691 -8.538)" fill="#fff"/>
      <path id="Trazado_690662" data-name="Trazado 690662" d="M35.594,25.756A.593.593,0,0,1,35,25.163a4.161,4.161,0,0,1,4.156-4.156.594.594,0,1,1,0,1.187,2.972,2.972,0,0,0-2.968,2.968.593.593,0,0,1-.594.594Z" transform="translate(-14.221 -8.538)" fill="#fff"/>
      <path id="Trazado_690663" data-name="Trazado 690663" d="M44.562,22.194H41.594a.594.594,0,1,1,0-1.187h2.968a.594.594,0,1,1,0,1.187Z" transform="translate(-16.659 -8.538)" fill="#fff"/>
      <path id="Trazado_690664" data-name="Trazado 690664" d="M39.749,35.568a5.284,5.284,0,0,1-4.687-2.7.594.594,0,0,1,1.061-.533,4.233,4.233,0,0,0,7.252,0,.594.594,0,1,1,1.061.533A5.284,5.284,0,0,1,39.749,35.568Z" transform="translate(-14.221 -13.007)" fill="#fff"/>
      <path id="Trazado_690665" data-name="Trazado 690665" d="M35.594,31.161A.593.593,0,0,1,35,30.567V27.6a.594.594,0,1,1,1.187,0v2.971a.593.593,0,0,1-.594.594Z" transform="translate(-14.221 -10.975)" fill="#fff"/>
      <path id="Trazado_690666" data-name="Trazado 690666" d="M49.594,31.161A.593.593,0,0,1,49,30.567V27.6a.594.594,0,1,1,1.187,0v2.971a.593.593,0,0,1-.594.594Z" transform="translate(-19.91 -10.975)" fill="#fff"/>
      <path id="Trazado_690667" data-name="Trazado 690667" d="M31.594,41.971A.593.593,0,0,1,31,41.377,2.377,2.377,0,0,1,33.375,39a.594.594,0,1,1,0,1.187,1.188,1.188,0,0,0-1.187,1.187.593.593,0,0,1-.594.594Z" transform="translate(-12.596 -15.851)" fill="#fff"/>
      <path id="Trazado_690668" data-name="Trazado 690668" d="M37.562,40.2H34.594a.594.594,0,0,1,0-1.187h2.968a.594.594,0,1,1,0,1.187Z" transform="translate(-13.815 -15.853)" fill="#fff"/>
      <path id="Trazado_690669" data-name="Trazado 690669" d="M31.594,55.066A.593.593,0,0,1,31,54.472V42.6a.594.594,0,1,1,1.187,0V54.472a.593.593,0,0,1-.594.594Z" transform="translate(-12.596 -17.069)" fill="#fff"/>
      <path id="Trazado_690670" data-name="Trazado 690670" d="M52.375,41.971a.593.593,0,0,1-.594-.594,1.188,1.188,0,0,0-1.187-1.187.594.594,0,0,1,0-1.187,2.377,2.377,0,0,1,2.375,2.374.593.593,0,0,1-.594.594Z" transform="translate(-20.316 -15.851)" fill="#fff"/>
      <path id="Trazado_690671" data-name="Trazado 690671" d="M48.562,40.2H45.594a.594.594,0,1,1,0-1.187h2.968a.594.594,0,1,1,0,1.187Z" transform="translate(-18.285 -15.853)" fill="#fff"/>
      <path id="Trazado_690672" data-name="Trazado 690672" d="M53.594,55.066A.593.593,0,0,1,53,54.472V42.6a.594.594,0,1,1,1.187,0V54.472a.593.593,0,0,1-.594.594Z" transform="translate(-21.535 -17.069)" fill="#fff"/>
      <path id="Trazado_690673" data-name="Trazado 690673" d="M39.749,37.343A4.754,4.754,0,0,1,35,32.6a.594.594,0,1,1,1.187,0,3.562,3.562,0,0,0,7.124,0,.594.594,0,1,1,1.187,0A4.754,4.754,0,0,1,39.749,37.343Z" transform="translate(-14.221 -13.006)" fill="#fff"/>
      <path id="Trazado_690674" data-name="Trazado 690674" d="M43.156,40.189H39.594a.594.594,0,1,1,0-1.187h3.562a.594.594,0,0,1,0,1.187Z" transform="translate(-15.847 -15.85)" fill="#fff"/>
      <path id="Trazado_690675" data-name="Trazado 690675" d="M43.718,48.194H36.594a.594.594,0,1,1,0-1.187h7.124a.594.594,0,0,1,0,1.187Z" transform="translate(-14.628 -19.103)" fill="#fff"/>
      <path id="Trazado_690676" data-name="Trazado 690676" d="M43.718,54.194H36.594a.594.594,0,1,1,0-1.187h7.124a.594.594,0,0,1,0,1.187Z" transform="translate(-14.628 -21.541)" fill="#fff"/>
      <path id="Trazado_690677" data-name="Trazado 690677" d="M43.718,60.194H36.594a.594.594,0,1,1,0-1.187h7.124a.594.594,0,0,1,0,1.187Z" transform="translate(-14.628 -23.979)" fill="#fff"/>
      <path id="Trazado_690678" data-name="Trazado 690678" d="M9.594,28.988A.593.593,0,0,1,9,28.394V28.1a.594.594,0,1,1,1.187,0v.295a.593.593,0,0,1-.594.594Z" transform="translate(-3.657 -11.179)" fill="#fff"/>
      <path id="Trazado_690679" data-name="Trazado 690679" d="M27.53,13.054a6.53,6.53,0,1,1,6.53-6.53,6.53,6.53,0,0,1-6.53,6.53Zm0-11.874a5.343,5.343,0,1,0,5.343,5.343A5.343,5.343,0,0,0,27.53,1.181Z" transform="translate(-8.533)" fill="#fff"/>
      <path id="Trazado_690680" data-name="Trazado 690680" d="M33.093,17.181h-9.5a.594.594,0,1,1,0-1.187h9.5a.594.594,0,0,1,0,1.187Z" transform="translate(-9.345 -6.501)" fill="#fff"/>
      <path id="Trazado_690681" data-name="Trazado 690681" d="M26.594,15.368A.593.593,0,0,1,26,14.774a1.783,1.783,0,0,1,1.781-1.781.594.594,0,0,1,0,1.187.594.594,0,0,0-.594.594.593.593,0,0,1-.594.594Z" transform="translate(-10.564 -5.282)" fill="#fff"/>
      <path id="Trazado_690682" data-name="Trazado 690682" d="M35.781,15.368a.593.593,0,0,1-.594-.594.594.594,0,0,0-.594-.594.594.594,0,0,1,0-1.187,1.783,1.783,0,0,1,1.781,1.781.593.593,0,0,1-.594.594Z" transform="translate(-13.815 -5.282)" fill="#fff"/>
      <path id="Trazado_690683" data-name="Trazado 690683" d="M32.156,14.181H28.594a.594.594,0,1,1,0-1.187h3.562a.594.594,0,1,1,0,1.187Z" transform="translate(-11.377 -5.282)" fill="#fff"/>
      <path id="Trazado_690684" data-name="Trazado 690684" d="M36.594,16.774A.593.593,0,0,1,36,16.181v-.594a.594.594,0,0,1,1.187,0v.594a.593.593,0,0,1-.594.594Z" transform="translate(-14.628 -6.095)" fill="#fff"/>
      <path id="Trazado_690685" data-name="Trazado 690685" d="M26.594,16.774A.593.593,0,0,1,26,16.181v-.594a.594.594,0,1,1,1.187,0v.594a.593.593,0,0,1-.594.594Z" transform="translate(-10.564 -6.095)" fill="#fff"/>
      <path id="Trazado_690686" data-name="Trazado 690686" d="M31.594,12.158A.593.593,0,0,1,31,11.564V8.608a.594.594,0,1,1,1.187,0v2.956a.593.593,0,0,1-.594.594Z" transform="translate(-12.596 -3.259)" fill="#fff"/>
      <path id="Trazado_690687" data-name="Trazado 690687" d="M35.156,7.983a.593.593,0,0,1-.594-.594,1.187,1.187,0,1,0-2.375,0,.594.594,0,1,1-1.187,0,2.375,2.375,0,1,1,4.749,0,.593.593,0,0,1-.594.594Z" transform="translate(-12.596 -2.04)" fill="#fff"/>
      <path id="Trazado_690688" data-name="Trazado 690688" d="M33.375,9.593A.593.593,0,0,1,32.781,9a.3.3,0,1,0-.594,0A.594.594,0,1,1,31,9a1.484,1.484,0,0,1,2.968,0,.593.593,0,0,1-.594.594Z" transform="translate(-12.596 -3.056)" fill="#fff"/>
      <path id="Trazado_690689" data-name="Trazado 690689" d="M29.156,7.983a.593.593,0,0,1-.594-.594,1.187,1.187,0,1,0-2.375,0,.594.594,0,0,1-1.187,0,2.375,2.375,0,1,1,4.749,0,.593.593,0,0,1-.594.594Z" transform="translate(-10.158 -2.04)" fill="#fff"/>
      <path id="Trazado_690690" data-name="Trazado 690690" d="M30.375,9.593A.593.593,0,0,1,29.781,9a.3.3,0,1,0-.594,0A.594.594,0,0,1,28,9a1.484,1.484,0,1,1,2.968,0,.593.593,0,0,1-.594.594Z" transform="translate(-11.377 -3.056)" fill="#fff"/>
      <path id="Trazado_690691" data-name="Trazado 690691" d="M59.594,58.725A.593.593,0,0,1,59,58.131V51.6a.594.594,0,0,1,1.187,0v6.53a.593.593,0,0,1-.594.594Z" transform="translate(-23.973 -20.728)" fill="#fff"/>
      <path id="Trazado_690692" data-name="Trazado 690692" d="M56.594,58.725A.593.593,0,0,1,56,58.131V51.6a.594.594,0,0,1,1.187,0v6.53a.593.593,0,0,1-.594.594Z" transform="translate(-22.754 -20.728)" fill="#fff"/>
    </g>
  </g>
</svg>
