<svg xmlns="http://www.w3.org/2000/svg" xmlns:xlink="http://www.w3.org/1999/xlink" width="73" height="73" viewBox="0 0 73 73">
  <defs>
    <filter id="Trazado_640294" x="0" y="0" width="73" height="73" filterUnits="userSpaceOnUse">
      <feOffset dy="3" input="SourceAlpha"/>
      <feGaussianBlur stdDeviation="3" result="blur"/>
      <feFlood flood-opacity="0.161"/>
      <feComposite operator="in" in2="blur"/>
      <feComposite in="SourceGraphic"/>
    </filter>
  </defs>
  <g id="_32" data-name="32" transform="translate(-276 -2048)">
    <g transform="matrix(1, 0, 0, 1, 276, 2048)" filter="url(#Trazado_640294)">
      <path id="Trazado_640294-2" data-name="Trazado 640294" d="M27.5,0A27.5,27.5,0,1,1,0,27.5,27.5,27.5,0,0,1,27.5,0Z" transform="translate(9 6)" fill="#4d793f"/>
    </g>
    <g id="nativo-americano" transform="translate(290 2060.977)">
      <path id="Trazado_690693" data-name="Trazado 690693" d="M31.683,33.355a1.17,1.17,0,0,1-1.616,0,.625.625,0,1,0-.884.884,2.393,2.393,0,0,0,3.384,0,.625.625,0,1,0-.884-.884Z" transform="translate(-8.623 -12.053)" fill="#fff"/>
      <path id="Trazado_690694" data-name="Trazado 690694" d="M38.253,17.762a.626.626,0,0,0,0-1,11.5,11.5,0,0,0-4.284-1.829A11.485,11.485,0,0,0,37.226,11.6a.625.625,0,0,0-.383-.927,11.5,11.5,0,0,0-4.658-.051A11.489,11.489,0,0,0,33.921,6.3a.625.625,0,0,0-.709-.709,11.494,11.494,0,0,0-4.323,1.736,11.5,11.5,0,0,0-.05-4.658.625.625,0,0,0-.927-.384,11.5,11.5,0,0,0-3.329,3.258,11.49,11.49,0,0,0-1.829-4.284.647.647,0,0,0-1,0,11.49,11.49,0,0,0-1.829,4.284,11.5,11.5,0,0,0-3.329-3.258.625.625,0,0,0-.927.384,11.5,11.5,0,0,0-.05,4.658,11.492,11.492,0,0,0-4.323-1.736.625.625,0,0,0-.709.709,11.49,11.49,0,0,0,1.735,4.322,11.486,11.486,0,0,0-4.658.051.625.625,0,0,0-.383.927,11.485,11.485,0,0,0,3.258,3.329,11.5,11.5,0,0,0-4.284,1.829.626.626,0,0,0,0,1,11.076,11.076,0,0,0,6,2,9.391,9.391,0,0,0,2.63-.4,4.51,4.51,0,0,0-.13,1.029,5.91,5.91,0,0,0,1.409,3.542.625.625,0,0,0,.933,0c.016-.018.132-.154.288-.371a4.183,4.183,0,0,0,.371.33l1.375,1.031V26.28A13.192,13.192,0,0,0,8.5,39.139a.625.625,0,0,0,.625.625H35.379A.625.625,0,0,0,36,39.139,13.192,13.192,0,0,0,25.378,26.28V24.918l1.375-1.031a4.136,4.136,0,0,0,.371-.329c.156.217.272.353.288.371a.625.625,0,0,0,.933,0,5.91,5.91,0,0,0,1.409-3.542,4.51,4.51,0,0,0-.13-1.029,9.391,9.391,0,0,0,2.63.4,11.076,11.076,0,0,0,6-2Zm-8.674.277a1.813,1.813,0,0,0-.035-1.623,10.1,10.1,0,0,0,2.024-.367c.226-.022.453-.039.687-.039a7.675,7.675,0,0,1,1.41.137,4.032,4.032,0,0,0-.005,2.229,7.715,7.715,0,0,1-1.4.135,8.34,8.34,0,0,1-2.675-.471ZM12.534,14.588a7.675,7.675,0,0,1-1.246-.663,4.218,4.218,0,0,0,.569-.971,4.315,4.315,0,0,0,.287-1.089,7.709,7.709,0,0,1,1.347.413c.212.088.411.189.607.293a10.21,10.21,0,0,0,2.1,1.285,6.223,6.223,0,0,0-.188,1.345,8.871,8.871,0,0,1-3.477-.613Zm2.444-6.18a7.719,7.719,0,0,1,1.087.9c.168.167.318.342.463.519a9.944,9.944,0,0,0,1,1.478,6.263,6.263,0,0,0-.9,1.377A8.446,8.446,0,0,1,14.3,11.073a7.672,7.672,0,0,1-.9-1.087,4.162,4.162,0,0,0,1.578-1.578ZM16,17.261a.625.625,0,1,1,.625.625A.625.625,0,0,1,16,17.261Zm1.3-2.512a5,5,0,0,1,9.909-.014,6.187,6.187,0,0,0-9.909.014ZM21,7.26a7.677,7.677,0,0,1,.136-1.405,4.232,4.232,0,0,0,1.115.155,4.311,4.311,0,0,0,1.116-.152,7.721,7.721,0,0,1,.134,1.4,8.02,8.02,0,0,1-.258,1.962,5.734,5.734,0,0,0-1.984,0A8.02,8.02,0,0,1,21,7.26Zm6.975,2.564c.145-.177.3-.352.463-.519a7.684,7.684,0,0,1,1.1-.9,4.234,4.234,0,0,0,.667.905,4.251,4.251,0,0,0,.9.678,7.671,7.671,0,0,1-.9,1.089,8.445,8.445,0,0,1-2.331,1.606,6.263,6.263,0,0,0-.9-1.377,9.942,9.942,0,0,0,1-1.479Zm3.037,2.455a7.681,7.681,0,0,1,1.361-.414,3.812,3.812,0,0,0,.853,2.055,7.716,7.716,0,0,1-1.257.669,8.872,8.872,0,0,1-3.477.613,6.223,6.223,0,0,0-.188-1.345,10.21,10.21,0,0,0,2.1-1.285C30.6,12.467,30.8,12.366,31.014,12.279Zm-3.761,4.982a.625.625,0,1,1,.625.625A.625.625,0,0,1,27.253,17.261Zm7.624.8a2.706,2.706,0,0,1,0-1.6,10.971,10.971,0,0,1,1.825.8,10.852,10.852,0,0,1-1.822.8Zm.723-6.328a10.84,10.84,0,0,1-1.38,1.439,3.061,3.061,0,0,1-.417-.7,3.025,3.025,0,0,1-.193-.785,10.925,10.925,0,0,1,1.99.042ZM31.742,8.9A2.766,2.766,0,0,1,30.61,7.772a10.949,10.949,0,0,1,1.856-.724A10.93,10.93,0,0,1,31.742,8.9ZM27.78,3.916A10.935,10.935,0,0,1,27.821,5.9a3.023,3.023,0,0,1-.785-.194,3.067,3.067,0,0,1-.694-.415,10.972,10.972,0,0,1,1.437-1.38ZM25.586,6.3a4.313,4.313,0,0,0,.971.567,4.262,4.262,0,0,0,1.089.287A7.684,7.684,0,0,1,27.235,8.5a8.155,8.155,0,0,1-1.17,1.944,6.241,6.241,0,0,0-1.613-.9,9.7,9.7,0,0,0,.242-1.34c.067-.22.14-.44.231-.66A7.675,7.675,0,0,1,25.586,6.3ZM22.253,2.815a10.836,10.836,0,0,1,.8,1.823,3.077,3.077,0,0,1-1.6,0,10.928,10.928,0,0,1,.8-1.82ZM19.81,8.2a9.7,9.7,0,0,0,.242,1.34,6.241,6.241,0,0,0-1.613.9A8.155,8.155,0,0,1,17.27,8.5a7.673,7.673,0,0,1-.412-1.346,4.314,4.314,0,0,0,1.089-.288,4.264,4.264,0,0,0,.97-.569,7.676,7.676,0,0,1,.663,1.246c.091.219.164.439.231.659ZM16.725,3.916A10.971,10.971,0,0,1,18.162,5.3a3.067,3.067,0,0,1-.694.415,3.085,3.085,0,0,1-.784.206,10.921,10.921,0,0,1,.041-2ZM13.9,7.77A2.769,2.769,0,0,1,12.762,8.9a10.946,10.946,0,0,1-.725-1.858A10.852,10.852,0,0,1,13.9,7.77ZM8.906,11.732a10.848,10.848,0,0,1,2-.041,3.086,3.086,0,0,1-.2.787,2.994,2.994,0,0,1-.418.691,10.924,10.924,0,0,1-1.377-1.436Zm.733,4.724a3.066,3.066,0,0,1,.111.8,3.033,3.033,0,0,1-.119.8,10.967,10.967,0,0,1-1.826-.8,10.839,10.839,0,0,1,1.833-.8Zm1.2,1.919a4.041,4.041,0,0,0,0-2.229,7.72,7.72,0,0,1,1.4-.134c.234,0,.461.017.687.039a10.1,10.1,0,0,0,2.024.367,1.813,1.813,0,0,0-.035,1.623,8.34,8.34,0,0,1-2.675.472,7.679,7.679,0,0,1-1.409-.137ZM16,20.386a3.56,3.56,0,0,1,.262-1.287,1.813,1.813,0,0,0,.726,0,3.56,3.56,0,0,1,.262,1.287,4.141,4.141,0,0,1-.625,2.043A4.142,4.142,0,0,1,16,20.386Zm9.347,7.16a11.675,11.675,0,0,1,1.227.326,4.366,4.366,0,0,1-8.648,0,11.7,11.7,0,0,1,1.228-.326,3.108,3.108,0,0,0,6.193,0Zm2.414.793a11.887,11.887,0,0,1,2.753,1.755,8.729,8.729,0,0,1-16.528,0,11.884,11.884,0,0,1,2.754-1.755,5.613,5.613,0,0,0,11.022,0Zm6.974,10.174H9.767A11.873,11.873,0,0,1,13,31.029a9.976,9.976,0,0,0,18.5-.006,11.873,11.873,0,0,1,3.239,7.491ZM24.127,27.262a1.875,1.875,0,0,1-3.751,0V25.855l.375.281a2.5,2.5,0,0,0,3,0l.375-.281ZM26,22.887l-3,2.25a1.27,1.27,0,0,1-1.5,0l-3-2.25a3.059,3.059,0,0,1-.473-.456,4.993,4.993,0,0,0,.473-2.044,4.9,4.9,0,0,0-.434-1.94,1.85,1.85,0,0,0-.1-2.488,4.967,4.967,0,0,1,8.562,0,1.85,1.85,0,0,0-.1,2.488A4.9,4.9,0,0,0,26,20.386a4.993,4.993,0,0,0,.473,2.044,3.059,3.059,0,0,1-.473.456Zm1.875-.458a4.142,4.142,0,0,1-.625-2.043,3.56,3.56,0,0,1,.262-1.287,1.813,1.813,0,0,0,.726,0,3.56,3.56,0,0,1,.262,1.287A4.141,4.141,0,0,1,27.878,22.429Z" fill="#fff"/>
    </g>
  </g>
</svg>
