<svg xmlns="http://www.w3.org/2000/svg" width="55" height="55" viewBox="0 0 55 55">
  <g id="_33" data-name="33" transform="translate(-285 -1924)">
    <circle id="Elipse_4813" data-name="Elipse 4813" cx="27.5" cy="27.5" r="27.5" transform="translate(285 1924)" fill="#4d793f"/>
    <g id="_31_-_40" data-name="31 - 40" transform="translate(292.305 1930.255)">
      <g id="Language" transform="translate(2 6)">
        <path id="Trazado_690695" data-name="Trazado 690695" d="M34.255,15.511h-9.1V10.135A4.14,4.14,0,0,0,21.022,6H6.135A4.14,4.14,0,0,0,2,10.135V20.06A4.14,4.14,0,0,0,6.135,24.2v1.729a1.654,1.654,0,0,0,2.826,1.164.738.738,0,0,0,.083-.094L11.1,24.2h4.131v5.376a4.14,4.14,0,0,0,4.135,4.135h9.169L31.432,36.6a1.654,1.654,0,0,0,2.824-1.169V33.707a4.14,4.14,0,0,0,4.135-4.135V19.647A4.14,4.14,0,0,0,34.255,15.511Zm-23.571,7.03a.827.827,0,0,0-.662.337L7.789,25.9V23.368a.827.827,0,0,0-.827-.827H6.135A2.481,2.481,0,0,1,3.654,20.06V10.135A2.481,2.481,0,0,1,6.135,7.654H21.022A2.481,2.481,0,0,1,23.5,10.135v5.376H19.368a4.1,4.1,0,0,0-2.441.815l-2.6-5.707a.827.827,0,0,0-1.505,0l-4.135,9.1a.827.827,0,0,0,.414,1.1.812.812,0,0,0,.339.075A.827.827,0,0,0,10.2,20.4l1.284-2.824h4.2l.059.128a4.085,4.085,0,0,0-.505,1.939v2.895Zm4.244-6.616h-2.7l1.347-2.964ZM36.737,29.571a2.481,2.481,0,0,1-2.481,2.481h-.827a.827.827,0,0,0-.827.827v2.552l-3.137-3.137a.827.827,0,0,0-.585-.242H19.368a2.481,2.481,0,0,1-2.481-2.481V19.647a2.481,2.481,0,0,1,2.481-2.481H34.255a2.481,2.481,0,0,1,2.481,2.481Z" transform="translate(-2 -6)" fill="#fff"/>
        <path id="Trazado_690696" data-name="Trazado 690696" d="M35.1,24.481H31.789V22.827a.827.827,0,1,0-1.654,0v1.654H26.827a.827.827,0,1,0,0,1.654h6.137a5.756,5.756,0,0,1-2.006,3.6,5.768,5.768,0,0,1-1.508-1.942.827.827,0,1,0-1.494.71,7.33,7.33,0,0,0,1.551,2.127,5.9,5.9,0,0,1-2.325.471.8.8,0,0,0-.8.827.853.853,0,0,0,.857.827,7.387,7.387,0,0,0,3.738-1.017,7.549,7.549,0,0,0,3.764,1.017.8.8,0,0,0,.8-.827.853.853,0,0,0-.857-.827,5.747,5.747,0,0,1-2.25-.468,7.419,7.419,0,0,0,2.2-4.494H35.1a.827.827,0,1,0,0-1.654Z" transform="translate(-6.151 -8.767)" fill="#fff"/>
      </g>
    </g>
  </g>
</svg>
