<svg xmlns="http://www.w3.org/2000/svg" width="55" height="55" viewBox="0 0 55 55">
  <g id="_34" data-name="34" transform="translate(-285 -1990)">
    <circle id="Elipse_4814" data-name="Elipse 4814" cx="27.5" cy="27.5" r="27.5" transform="translate(285 1990)" fill="#4d793f"/>
    <g id="tarifa" transform="translate(297.096 1999.097)">
      <path id="Trazado_690697" data-name="Trazado 690697" d="M42.452,32.132a1.208,1.208,0,0,0-.69,1.062H35.194A1.194,1.194,0,0,0,34,34.388v1.194a1.194,1.194,0,0,0,1.194,1.194h6.568a1.208,1.208,0,0,0,.688,1.062,1.28,1.28,0,0,0,1.358-.138l2.26-1.771a1.185,1.185,0,0,0,0-1.887l-2.261-1.774a1.282,1.282,0,0,0-1.356-.136Zm2.884,2.853-2.379,1.791v-.6a.6.6,0,0,0-.6-.6H35.194V34.388h7.165a.6.6,0,0,0,.6-.6v-.6Z" transform="translate(-13.699 -12.893)" fill="#fff"/>
      <path id="Trazado_690698" data-name="Trazado 690698" d="M29.73,40.269l-2.264,1.774a1.185,1.185,0,0,0,0,1.887l2.26,1.771a1.28,1.28,0,0,0,1.358.138,1.208,1.208,0,0,0,.691-1.062h6.568a1.194,1.194,0,0,0,1.194-1.194V42.388a1.194,1.194,0,0,0-1.194-1.194H31.776a1.209,1.209,0,0,0-.688-1.062A1.282,1.282,0,0,0,29.73,40.269ZM28.2,42.985l2.379-1.791v.6a.6.6,0,0,0,.6.6h7.165v1.194H31.179a.6.6,0,0,0-.6.6v.6Z" transform="translate(-10.878 -16.117)" fill="#fff"/>
      <path id="Trazado_690699" data-name="Trazado 690699" d="M24.48,13.135c-.2,0-.4.02-.6.03V2.619a1.2,1.2,0,0,0-.558-1.011L21.087.186a1.182,1.182,0,0,0-1.279,0l-2.194,1.4L15.416.191a1.189,1.189,0,0,0-1.288,0l-2.187,1.4-2.2-1.4a1.186,1.186,0,0,0-1.28,0l-2.193,1.4L4.077.191a1.189,1.189,0,0,0-1.287,0L.563,1.6A1.2,1.2,0,0,0,0,2.619V31.411a1.2,1.2,0,0,0,.557,1.015L2.79,33.847a1.186,1.186,0,0,0,1.28,0l2.2-1.4,2.2,1.4a1.182,1.182,0,0,0,1.28,0l2.195-1.4,2.192,1.4a1.183,1.183,0,0,0,1.28,0L16.9,32.9A11.337,11.337,0,1,0,24.48,13.135Zm-9.71,19.7-2.2-1.4a1.217,1.217,0,0,0-1.269.007l-2.2,1.4-2.209-1.4a1.214,1.214,0,0,0-1.269.007l-2.194,1.4L1.194,31.411l0-28.8L3.429,1.193,5.638,2.6a1.219,1.219,0,0,0,1.268-.007L9.1,1.193l2.2,1.4a1.225,1.225,0,0,0,1.275,0l2.189-1.4,2.209,1.4a1.206,1.206,0,0,0,1.268,0l2.2-1.4,2.243,1.426V13.291A11.312,11.312,0,0,0,16.038,32.03Zm9.71,1.791a10.15,10.15,0,1,1,10.15-10.15A10.15,10.15,0,0,1,24.48,34.63Z" transform="translate(0)" fill="#fff"/>
      <path id="Trazado_690700" data-name="Trazado 690700" d="M7.192,17.956a.6.6,0,1,0-1.194,0,2.991,2.991,0,0,0,2.388,2.926v.657a.6.6,0,1,0,1.194,0v-.657a2.985,2.985,0,0,0,0-5.851V11.5a1.791,1.791,0,0,1,1.194,1.681.6.6,0,1,0,1.194,0A2.991,2.991,0,0,0,9.58,10.254V9.6a.6.6,0,1,0-1.194,0v.657a2.985,2.985,0,0,0,0,5.851v3.533A1.791,1.791,0,0,1,7.192,17.956Zm3.583,0A1.791,1.791,0,0,1,9.58,19.638V16.275a1.791,1.791,0,0,1,1.194,1.681ZM7.192,13.18A1.791,1.791,0,0,1,8.386,11.5v3.363A1.791,1.791,0,0,1,7.192,13.18Z" transform="translate(-2.415 -3.627)" fill="#fff"/>
      <path id="Trazado_690701" data-name="Trazado 690701" d="M19.6,10.194h8.359a.6.6,0,0,0,0-1.194H19.6a.6.6,0,0,0,0,1.194Z" transform="translate(-7.655 -3.627)" fill="#fff"/>
      <path id="Trazado_690702" data-name="Trazado 690702" d="M19.6,15.194h8.359a.6.6,0,1,0,0-1.194H19.6a.6.6,0,0,0,0,1.194Z" transform="translate(-7.655 -5.641)" fill="#fff"/>
      <path id="Trazado_690703" data-name="Trazado 690703" d="M19.6,20.194h8.359a.6.6,0,1,0,0-1.194H19.6a.6.6,0,1,0,0,1.194Z" transform="translate(-7.655 -7.656)" fill="#fff"/>
      <path id="Trazado_690704" data-name="Trazado 690704" d="M19.6,25.194H23.18a.6.6,0,1,0,0-1.194H19.6a.6.6,0,0,0,0,1.194Z" transform="translate(-7.655 -9.671)" fill="#fff"/>
      <path id="Trazado_690705" data-name="Trazado 690705" d="M21.388,29.6a.6.6,0,0,0-.6-.6H19.6a.6.6,0,1,0,0,1.194h1.194A.6.6,0,0,0,21.388,29.6Z" transform="translate(-7.655 -11.685)" fill="#fff"/>
      <path id="Trazado_690706" data-name="Trazado 690706" d="M12.762,35H5.6a.6.6,0,1,0,0,1.194h7.165a.6.6,0,0,0,0-1.194Z" transform="translate(-2.015 -14.103)" fill="#fff"/>
      <path id="Trazado_690707" data-name="Trazado 690707" d="M12.762,40H5.6a.6.6,0,1,0,0,1.194h7.165a.6.6,0,0,0,0-1.194Z" transform="translate(-2.015 -16.117)" fill="#fff"/>
      <path id="Trazado_690708" data-name="Trazado 690708" d="M12.762,45H5.6a.6.6,0,1,0,0,1.194h7.165a.6.6,0,1,0,0-1.194Z" transform="translate(-2.015 -18.132)" fill="#fff"/>
    </g>
  </g>
</svg>
