<svg xmlns="http://www.w3.org/2000/svg" xmlns:xlink="http://www.w3.org/1999/xlink" width="73" height="73" viewBox="0 0 73 73">
  <defs>
    <filter id="Trazado_640294" x="0" y="0" width="73" height="73" filterUnits="userSpaceOnUse">
      <feOffset dy="3" input="SourceAlpha"/>
      <feGaussianBlur stdDeviation="3" result="blur"/>
      <feFlood flood-opacity="0.161"/>
      <feComposite operator="in" in2="blur"/>
      <feComposite in="SourceGraphic"/>
    </filter>
  </defs>
  <g id="_35" data-name="35" transform="translate(-276 -2048)">
    <g transform="matrix(1, 0, 0, 1, 276, 2048)" filter="url(#Trazado_640294)">
      <path id="Trazado_640294-2" data-name="Trazado 640294" d="M27.5,0A27.5,27.5,0,1,1,0,27.5,27.5,27.5,0,0,1,27.5,0Z" transform="translate(9 6)" fill="#4d793f"/>
    </g>
    <g id="contrato" transform="translate(278.901 2047.9)">
      <path id="Trazado_690709" data-name="Trazado 690709" d="M71.3,61.928,55.832,54.195a.582.582,0,0,0-.843.521v2.33a1.747,1.747,0,0,1-3.495,0V46.561H50.33V57.046a2.916,2.916,0,0,0,2.855,2.912l18.113,3.4v1.264H49.165v-19.8H48V65.2a.582.582,0,0,0,.582.582h23.3a.582.582,0,0,0,.582-.582V32.582A.582.582,0,0,0,71.881,32h-13.4v1.165H71.3ZM55.245,59.158a2.905,2.905,0,0,0,.91-2.113V55.658L67.9,61.531Z" transform="translate(-29.67 -14.835)" fill="#fff"/>
      <path id="Trazado_690710" data-name="Trazado 690710" d="M21.5,30.463a.582.582,0,0,0,.646,0,12.33,12.33,0,0,0,5.5-10.28V18.33a.582.582,0,0,0-.4-.553L22.009,16.03a.582.582,0,0,0-.368,0L16.4,17.777a.582.582,0,0,0-.4.553v1.854A12.33,12.33,0,0,0,21.5,30.463ZM17.165,18.75l4.66-1.553,4.66,1.553v1.434a11.166,11.166,0,0,1-4.66,9.087,11.166,11.166,0,0,1-4.66-9.086Z" fill="#fff"/>
      <path id="Trazado_690711" data-name="Trazado 690711" d="M192.582,69.242h1.165v1.165a.582.582,0,0,0,.582.582h2.33a.582.582,0,0,0,.582-.582V69.242h1.165a.582.582,0,0,0,.582-.582V66.33a.582.582,0,0,0-.582-.582h-1.165V64.582A.582.582,0,0,0,196.66,64h-2.33a.582.582,0,0,0-.582.582v1.165h-1.165a.582.582,0,0,0-.582.582v2.33A.582.582,0,0,0,192.582,69.242Zm.582-2.33h1.165a.582.582,0,0,0,.582-.582V65.165h1.165V66.33a.582.582,0,0,0,.582.582h1.165v1.165H196.66a.582.582,0,0,0-.582.582v1.165h-1.165V68.66a.582.582,0,0,0-.582-.582h-1.165Z" transform="translate(-163.186 -44.505)" fill="#fff"/>
      <path id="Trazado_690712" data-name="Trazado 690712" d="M144,208h1.747v1.165H144Z" transform="translate(-118.681 -178.021)" fill="#fff"/>
      <path id="Trazado_690713" data-name="Trazado 690713" d="M184,208h9.319v1.165H184Z" transform="translate(-155.769 -178.021)" fill="#fff"/>
      <path id="Trazado_690714" data-name="Trazado 690714" d="M144,248h9.319v1.165H144Z" transform="translate(-118.681 -215.109)" fill="#fff"/>
      <path id="Trazado_690715" data-name="Trazado 690715" d="M288,248h1.747v1.165H288Z" transform="translate(-252.197 -215.109)" fill="#fff"/>
      <path id="Trazado_690716" data-name="Trazado 690716" d="M144,288h7.572v1.165H144Z" transform="translate(-118.681 -252.197)" fill="#fff"/>
      <path id="Trazado_690717" data-name="Trazado 690717" d="M264,288h1.747v1.165H264Z" transform="translate(-229.944 -252.197)" fill="#fff"/>
      <path id="Trazado_690718" data-name="Trazado 690718" d="M406.407,66.33H404.66v-.652A1.68,1.68,0,0,0,402.982,64h-1.3A1.68,1.68,0,0,0,400,65.678V83.221a.582.582,0,0,0,.582.582v4.66a.582.582,0,0,0,.994.412l2.33-2.33a.583.583,0,0,0,.171-.412V83.8a.582.582,0,0,0,.582-.582V67.495h1.165v6.989h1.165V66.912A.582.582,0,0,0,406.407,66.33Zm-4.729-1.165h1.3a.514.514,0,0,1,.513.513v.652h-2.33v-.652A.514.514,0,0,1,401.678,65.165Zm-.513,17.474V79.144h2.33v3.495Zm1.747,3.254-1.165,1.165V83.8h1.165Zm.583-7.913h-2.33V67.495h2.33Z" transform="translate(-356.042 -44.505)" fill="#fff"/>
      <path id="Trazado_690719" data-name="Trazado 690719" d="M54.989,51.495a3.495,3.495,0,1,0-3.495,3.495A3.495,3.495,0,0,0,54.989,51.495Zm-5.825,0a2.33,2.33,0,1,1,2.33,2.33A2.33,2.33,0,0,1,49.165,51.495Z" transform="translate(-29.67 -29.67)" fill="#fff"/>
    </g>
  </g>
</svg>
