<svg xmlns="http://www.w3.org/2000/svg" width="55" height="55" viewBox="0 0 55 55">
  <g id="_36" data-name="36" transform="translate(-285 -1924)">
    <circle id="Elipse_4813" data-name="Elipse 4813" cx="27.5" cy="27.5" r="27.5" transform="translate(285 1924)" fill="#4d793f"/>
    <g id="Quality" transform="translate(290 1929.976)">
      <path id="Trazado_690721" data-name="Trazado 690721" d="M33.813,28.348l.015-.044a4.307,4.307,0,0,1,.517-1.186,4.13,4.13,0,0,1,1.005-.769,4.349,4.349,0,0,0,1.8-1.708,4.447,4.447,0,0,0,.187-2.46,4.388,4.388,0,0,1-.035-1.323,4.184,4.184,0,0,1,.57-1.123,4.479,4.479,0,0,0,.895-2.351,4.485,4.485,0,0,0-.894-2.35,4.18,4.18,0,0,1-.571-1.123,4.381,4.381,0,0,1,.035-1.322,4.455,4.455,0,0,0-.186-2.46,4.356,4.356,0,0,0-1.794-1.707,4.134,4.134,0,0,1-1.006-.771,4.319,4.319,0,0,1-.518-1.186A4.416,4.416,0,0,0,32.6,4.308a4.246,4.246,0,0,0-2.337-.746,4.063,4.063,0,0,1-1.241-.252,4.157,4.157,0,0,1-.946-.822,4.328,4.328,0,0,0-2.051-1.421,4.217,4.217,0,0,0-2.4.365,4.151,4.151,0,0,1-1.252.329,4.14,4.14,0,0,1-1.25-.329,4.2,4.2,0,0,0-2.4-.364,4.322,4.322,0,0,0-2.05,1.418,4.113,4.113,0,0,1-.946.822A4.063,4.063,0,0,1,14.5,3.56a4.246,4.246,0,0,0-2.337.746,4.424,4.424,0,0,0-1.225,2.157,4.308,4.308,0,0,1-.517,1.186,4.13,4.13,0,0,1-1.005.769,4.349,4.349,0,0,0-1.8,1.708,4.447,4.447,0,0,0-.187,2.46,4.387,4.387,0,0,1,.035,1.323,4.184,4.184,0,0,1-.57,1.123A4.479,4.479,0,0,0,6,17.384a4.485,4.485,0,0,0,.894,2.35,4.18,4.18,0,0,1,.571,1.123A4.381,4.381,0,0,1,7.43,22.18a4.455,4.455,0,0,0,.186,2.46A4.356,4.356,0,0,0,9.41,26.347a4.134,4.134,0,0,1,1.006.771,4.319,4.319,0,0,1,.518,1.186l.017.048s-.008.007-.011.012L6.246,36.5A1.819,1.819,0,0,0,8.1,39.2l3.168-.482,1.168,2.987a1.806,1.806,0,0,0,1.558,1.151q.071.005.141.005a1.805,1.805,0,0,0,1.572-.91l4.862-8.423c.193-.062.382-.131.563-.2a4.151,4.151,0,0,1,1.252-.329,4.14,4.14,0,0,1,1.25.329c.182.067.372.133.566.2l0,.012,4.857,8.413a1.805,1.805,0,0,0,1.572.91q.071,0,.141-.005a1.808,1.808,0,0,0,1.559-1.152L33.5,38.723l3.167.482A1.82,1.82,0,0,0,38.517,36.5Zm-19.686,12.7L12.7,37.382a.914.914,0,0,0-.985-.568l-3.888.592,4.133-7.158a2.449,2.449,0,0,0,.2.213,4.246,4.246,0,0,0,2.337.746,4.063,4.063,0,0,1,1.241.252,4.157,4.157,0,0,1,.946.822,4.886,4.886,0,0,0,1.751,1.309Zm10.129-9.42a5.544,5.544,0,0,0-1.875-.439,5.523,5.523,0,0,0-1.875.439,2.987,2.987,0,0,1-1.363.3,3.1,3.1,0,0,1-1.152-.909,5.413,5.413,0,0,0-1.451-1.192,5.468,5.468,0,0,0-1.847-.43,2.951,2.951,0,0,1-1.384-.347,3.182,3.182,0,0,1-.65-1.324A5.594,5.594,0,0,0,11.85,26a5.439,5.439,0,0,0-1.468-1.19,3.045,3.045,0,0,1-1.12-.944,3.172,3.172,0,0,1-.023-1.474,5.837,5.837,0,0,0,0-1.927,5.514,5.514,0,0,0-.8-1.693,3.147,3.147,0,0,1-.618-1.386A3.143,3.143,0,0,1,8.438,16a5.494,5.494,0,0,0,.8-1.693,5.837,5.837,0,0,0,0-1.927A3.158,3.158,0,0,1,9.263,10.9a3.039,3.039,0,0,1,1.121-.946,5.437,5.437,0,0,0,1.469-1.189,5.6,5.6,0,0,0,.808-1.728,3.191,3.191,0,0,1,.651-1.325,2.951,2.951,0,0,1,1.384-.347,5.468,5.468,0,0,0,1.847-.43,5.38,5.38,0,0,0,1.451-1.192,3.1,3.1,0,0,1,1.152-.908,3.007,3.007,0,0,1,1.362.3,5.544,5.544,0,0,0,1.874.439,5.523,5.523,0,0,0,1.875-.439,3.012,3.012,0,0,1,1.363-.3,3.1,3.1,0,0,1,1.152.909,5.413,5.413,0,0,0,1.451,1.192,5.468,5.468,0,0,0,1.847.43,2.951,2.951,0,0,1,1.384.347,3.182,3.182,0,0,1,.65,1.324,5.594,5.594,0,0,0,.81,1.729,5.44,5.44,0,0,0,1.468,1.19,3.045,3.045,0,0,1,1.12.944,3.171,3.171,0,0,1,.023,1.474,5.837,5.837,0,0,0,0,1.927,5.514,5.514,0,0,0,.8,1.693,3.147,3.147,0,0,1,.618,1.386,3.143,3.143,0,0,1-.618,1.386,5.494,5.494,0,0,0-.8,1.693,5.837,5.837,0,0,0,0,1.927,3.158,3.158,0,0,1-.024,1.474,3.039,3.039,0,0,1-1.121.946A5.437,5.437,0,0,0,32.911,26a5.6,5.6,0,0,0-.808,1.728,3.191,3.191,0,0,1-.651,1.325,2.951,2.951,0,0,1-1.384.347,5.468,5.468,0,0,0-1.847.43A5.38,5.38,0,0,0,26.77,31.02a3.1,3.1,0,0,1-1.152.908,3.019,3.019,0,0,1-1.362-.3Zm8.8,5.187a.915.915,0,0,0-.985.568l-1.432,3.665-4.3-7.457a4.882,4.882,0,0,0,1.75-1.307,4.113,4.113,0,0,1,.946-.822,4.063,4.063,0,0,1,1.241-.252,4.246,4.246,0,0,0,2.337-.746,2.455,2.455,0,0,0,.2-.214l4.133,7.158Zm.25-19.43A10.921,10.921,0,1,0,22.382,28.3,10.921,10.921,0,0,0,33.3,17.384Zm-10.921,9.1a9.1,9.1,0,1,1,9.1-9.1A9.1,9.1,0,0,1,22.382,26.485ZM26.527,13.9a.909.909,0,0,1,.252,1.262l-3.64,5.461a.91.91,0,0,1-.667.4c-.03,0-.06,0-.09,0a.91.91,0,0,1-.643-.267l-2.73-2.73a.91.91,0,1,1,1.287-1.287l1.945,1.946,3.024-4.537a.911.911,0,0,1,1.262-.252Z" fill="#fff"/>
    </g>
  </g>
</svg>
