<svg xmlns="http://www.w3.org/2000/svg" width="55" height="55" viewBox="0 0 55 55">
  <g id="_37" data-name="37" transform="translate(-285 -1990)">
    <circle id="Elipse_4814" data-name="Elipse 4814" cx="27.5" cy="27.5" r="27.5" transform="translate(285 1990)" fill="#4d793f"/>
    <path id="propina" d="M56.423,9.5H49.407a.209.209,0,0,1-.209-.209V1.351a.209.209,0,0,1,.209-.209h7.016a.571.571,0,0,0,0-1.142H49.407a1.352,1.352,0,0,0-1.345,1.236H44.036L38.881.283a2.016,2.016,0,0,0-1.708.484l-.568.514L30.839,2.658,29.528,1.1A1.334,1.334,0,0,0,27.652.932L21.739,5.893a1.332,1.332,0,0,0-.165,1.877l6.7,7.979H24.486a.952.952,0,0,0-.951.951v2.733a.952.952,0,0,0,.951.951h2.373v1.17l-3,2.647a1.333,1.333,0,0,0-.45,1v3.7a.571.571,0,0,0,1.142,0V25.2a.191.191,0,0,1,.064-.143l3.067-2.7A.951.951,0,0,0,28,21.641V20.385H42.644v1.255a.951.951,0,0,0,.323.714l3.067,2.7a.191.191,0,0,1,.065.143V36.874a.952.952,0,0,1-.951.951H40.4A2.933,2.933,0,0,0,38.846,33.2l4.609-4.609a1.334,1.334,0,0,0,0-1.883L38,21.248a1.331,1.331,0,0,0-1.884,0l-3.232,3.231a2.934,2.934,0,0,0-4.1,4.1l-2.661,2.661a1.336,1.336,0,0,0,0,1.884l4.706,4.706H25.5a.952.952,0,0,1-.951-.951V31.566a.571.571,0,1,0-1.142,0v5.309A2.1,2.1,0,0,0,25.5,38.967H45.148a2.1,2.1,0,0,0,2.093-2.093V25.2a1.334,1.334,0,0,0-.451-1l-3-2.647V20.385h2.373a.952.952,0,0,0,.951-.951V16.7a.952.952,0,0,0-.951-.951H42.832a.571.571,0,1,0,0,1.142h3.136v2.353H24.677V16.891H40.168a.571.571,0,0,0,0-1.142H38.481l.941-.79a1.334,1.334,0,0,0,.164-1.877l-.686-.818h3.062a1.793,1.793,0,0,0,1.329-.592L45.334,9.4h2.728a1.352,1.352,0,0,0,1.345,1.235h7.016a.571.571,0,0,0,0-1.142ZM41.8,26.668l.845.844a.191.191,0,0,1,0,.269l-.994.994a1.685,1.685,0,0,1,.149-2.108Zm-4.882-4.613a.19.19,0,0,1,.269,0l.845.845a1.686,1.686,0,0,1-2.108.149Zm-5.756,3.01a1.794,1.794,0,1,1-1.794,1.794A1.8,1.8,0,0,1,31.166,25.065Zm-3.388,8.092-.844-.844a.192.192,0,0,1,0-.27l.994-.994a1.685,1.685,0,0,1-.149,2.108ZM32.66,37.77a.188.188,0,0,1-.132.056h-.005a.189.189,0,0,1-.132-.056l-.845-.845a1.686,1.686,0,0,1,2.108-.149Zm1.559.056L35.246,36.8a2.927,2.927,0,0,0,.512,1.026Zm1.058-2.673-.808.808a2.83,2.83,0,0,0-3.732.156l-2.151-2.152a2.83,2.83,0,0,0,.156-3.732l.879-.879a2.934,2.934,0,0,0,4.04-4.04l1.45-1.45a2.829,2.829,0,0,0,3.732-.156L41,25.859a2.83,2.83,0,0,0-.156,3.732L37.2,33.23a2.949,2.949,0,0,0-1.923,1.923Zm2.8,2.673a1.794,1.794,0,1,1,1.794-1.794,1.8,1.8,0,0,1-1.794,1.794ZM34.841,2.876,32.67,4.84l-1.01-1.2Zm-6.456-1.07a.191.191,0,0,1,.268.024l.9,1.077a1.678,1.678,0,0,1-2.087-.333ZM23.353,8.113l-.9-1.077a.191.191,0,0,1,.024-.268L23.388,6A1.686,1.686,0,0,1,23.353,8.113ZM36.7,15.749H29.76L24.094,9a2.823,2.823,0,0,0,.169-3.732l2.331-1.956a2.823,2.823,0,0,0,3.7.481l1.524,1.816-4.866,4.4a1.073,1.073,0,0,0-.076,1.515l.249.275a2.845,2.845,0,0,0,4.02.2L33,10.319v.216a1.732,1.732,0,0,0,1.729,1.73h2.01a2.831,2.831,0,0,0,.157,3.323Zm1.984-1.664-.915.768a1.685,1.685,0,0,1,.035-2.113l.9,1.076a.191.191,0,0,1-.023.269Zm9.368-5.823H45.08a.571.571,0,0,0-.424.189l-2.213,2.458a.649.649,0,0,1-.481.215H34.731a.589.589,0,0,1-.588-.588V9.522a.589.589,0,0,1,.588-.588h3.686a1.55,1.55,0,0,0,1.1-.457l2.1-2.1a.571.571,0,0,0-.807-.807l-.309.309-3.582-.2A1.284,1.284,0,0,0,36.063,6l-5.68,5.148a1.7,1.7,0,0,1-2.407-.12l-.2-.223L37.939,1.614a.867.867,0,0,1,.735-.209l5.207.963a.571.571,0,0,0,.1.01h4.072V8.262ZM35.79,7.792l1.038-.941a.146.146,0,0,1,.086-.037l2.51.144-.712.712a.416.416,0,0,1-.3.123Z" transform="translate(273.737 1998)" fill="#fff"/>
  </g>
</svg>
