<svg xmlns="http://www.w3.org/2000/svg" xmlns:xlink="http://www.w3.org/1999/xlink" width="73" height="73" viewBox="0 0 73 73">
  <defs>
    <filter id="Trazado_640294" x="0" y="0" width="73" height="73" filterUnits="userSpaceOnUse">
      <feOffset dy="3" input="SourceAlpha"/>
      <feGaussianBlur stdDeviation="3" result="blur"/>
      <feFlood flood-opacity="0.161"/>
      <feComposite operator="in" in2="blur"/>
      <feComposite in="SourceGraphic"/>
    </filter>
  </defs>
  <g id="_38" data-name="38" transform="translate(-276 -2048)">
    <g transform="matrix(1, 0, 0, 1, 276, 2048)" filter="url(#Trazado_640294)">
      <path id="Trazado_640294-2" data-name="Trazado 640294" d="M27.5,0A27.5,27.5,0,1,1,0,27.5,27.5,27.5,0,0,1,27.5,0Z" transform="translate(9 6)" fill="#4d793f"/>
    </g>
    <g id="sitio-historico" transform="translate(294.122 2063.25)">
      <path id="Trazado_690722" data-name="Trazado 690722" d="M24.258,123.688l-1.773-.591v-6.444a1.607,1.607,0,0,0,1.069-1.512v-2.317h.535a.535.535,0,0,0,.535-.535V109.77a4.806,4.806,0,0,0-1.069-3.023v-4.281a6.96,6.96,0,0,0,6.416-6.931.535.535,0,0,0-1.069,0,5.888,5.888,0,0,1-5.427,5.862,1.964,1.964,0,0,0-1.88-1.407H18.028a1.963,1.963,0,0,0-1.961,1.961v4.8A4.806,4.806,0,0,0,15,109.77v2.519a.535.535,0,0,0,.535.535h.535v2.317a1.607,1.607,0,0,0,1.069,1.512V123.1l-1.773.591A.535.535,0,1,0,15.7,124.7l2.139-.713a.535.535,0,0,0,.366-.507v-6.829a1.607,1.607,0,0,0,1.069-1.512v-2.317h1.069v2.317a1.607,1.607,0,0,0,1.069,1.512v6.829a.535.535,0,0,0,.366.507l2.139.713a.535.535,0,1,0,.338-1.014Zm-8.19-13.918A3.737,3.737,0,0,1,17,107.3a.535.535,0,0,0,.134-.354v-4.99a.892.892,0,0,1,.891-.891h3.565a.892.892,0,0,1,.891.891v4.99a.535.535,0,0,0,.134.354,3.738,3.738,0,0,1,.936,2.474v1.984H16.068Zm2.138,5.371a.535.535,0,0,1-1.069,0v-2.317h1.069Zm4.278-2.317v2.317a.535.535,0,0,1-1.069,0v-2.317Z" transform="translate(-13.928 -88.229)" fill="#fff"/>
      <path id="Trazado_690723" data-name="Trazado 690723" d="M9.626,10.693a2.138,2.138,0,0,0,1.548-3.614L8.592,4.369a3.865,3.865,0,0,0-.784-.627A3.744,3.744,0,0,0,9.625.534.535.535,0,0,0,9.091,0,3.745,3.745,0,0,0,5.883,1.816,3.745,3.745,0,0,0,2.674,0,.535.535,0,0,0,2.14.534,3.744,3.744,0,0,0,3.957,3.742a3.766,3.766,0,0,0-.783.629L.592,7.079A2.138,2.138,0,0,0,2.14,10.693ZM3.209,6.95a2.657,2.657,0,0,1,.334-1.292,4,4,0,0,0,4.68,0A2.673,2.673,0,1,1,3.209,6.95Zm7.486,1.6A1.071,1.071,0,0,1,9.626,9.624H8.5A3.731,3.731,0,0,0,9.624,7l.775.814a1.064,1.064,0,0,1,.3.737ZM8.487,1.137a2.682,2.682,0,0,1-2,2,2.682,2.682,0,0,1,2-2Zm-3.208,2a2.682,2.682,0,0,1-2-2A2.682,2.682,0,0,1,5.279,3.139Zm2.245,1.7a2.926,2.926,0,0,1-3.283,0,2.665,2.665,0,0,1,3.283,0ZM1.07,8.554a1.064,1.064,0,0,1,.3-.737L2.141,7A3.731,3.731,0,0,0,3.267,9.624H2.14A1.071,1.071,0,0,1,1.07,8.554Z" transform="translate(0 0)" fill="#fff"/>
      <path id="Trazado_690724" data-name="Trazado 690724" d="M189.458,218.02v-9.556a1.6,1.6,0,0,0,0-3.024v-2.323a1.6,1.6,0,0,0-.535-3.116H169.674a1.6,1.6,0,0,0-.535,3.116v2.323a1.6,1.6,0,0,0,0,3.024v9.556a2.678,2.678,0,0,0-2.139,2.62.535.535,0,0,0,.535.535h23.527a.535.535,0,0,0,.535-.535A2.678,2.678,0,0,0,189.458,218.02Zm-18.18-9.464v7.272h-1.069v-7.272Zm2.139,7.272h-1.069v-7.272h1.069Zm-3.208,1.069h3.208v1.069h-3.208Zm4.278-8.341h2.139v9.411h-2.139Zm6.416,7.272h-1.069v-7.272H180.9Zm-2.139,0h-1.069v-7.272h1.069Zm-1.069,1.069H180.9v1.069h-3.208Zm4.278-8.341h2.139v9.411h-2.139Zm6.416,7.272h-1.069v-7.272h1.069Zm-2.139,0h-1.069v-7.272h1.069Zm-1.069,1.069h3.208v1.069h-3.208Zm3.208-13.688v2.139h-18.18v-2.139Zm-18.714-2.139h19.249a.535.535,0,1,1,0,1.069H169.674a.535.535,0,1,1,0-1.069Zm0,5.347h19.249a.535.535,0,0,1,0,1.069H169.674a.535.535,0,0,1,0-1.069ZM168.162,220.1a1.607,1.607,0,0,1,1.512-1.069h19.249a1.607,1.607,0,0,1,1.512,1.069Z" transform="translate(-155.094 -185.742)" fill="#fff"/>
    </g>
  </g>
</svg>
