<svg xmlns="http://www.w3.org/2000/svg" width="55" height="55" viewBox="0 0 55 55">
  <g id="_39" data-name="39" transform="translate(-285 -1924)">
    <circle id="Elipse_4813" data-name="Elipse 4813" cx="27.5" cy="27.5" r="27.5" transform="translate(285 1924)" fill="#4d793f"/>
    <g id="subasta" transform="translate(294 1930.999)">
      <g id="Grupo_947433" data-name="Grupo 947433" transform="translate(7.225 12.3)">
        <g id="Grupo_947432" data-name="Grupo 947432">
          <path id="Trazado_690725" data-name="Trazado 690725" d="M101.929,171.63a.717.717,0,1,0,0,1.015A.718.718,0,0,0,101.929,171.63Z" transform="translate(-100.704 -171.42)" fill="#fff"/>
        </g>
      </g>
      <g id="Grupo_947435" data-name="Grupo 947435" transform="translate(0 28.125)">
        <g id="Grupo_947434" data-name="Grupo 947434">
          <path id="Trazado_690726" data-name="Trazado 690726" d="M18.166,395.986a2.512,2.512,0,0,0-2.024-4H3.946a2.509,2.509,0,0,0-2.022,4A3.59,3.59,0,0,0,0,399.161v.717a.717.717,0,0,0,.717.717H19.371a.717.717,0,0,0,.717-.717v-.717A3.59,3.59,0,0,0,18.166,395.986ZM3.185,393.737a1.069,1.069,0,0,1,.761-.315h12.2a1.076,1.076,0,1,1,0,2.152H3.946a1.076,1.076,0,0,1-.761-1.837Zm-1.75,5.425a2.155,2.155,0,0,1,2.152-2.152H16.5a2.155,2.155,0,0,1,2.152,2.152Z" transform="translate(0 -391.987)" fill="#fff"/>
        </g>
      </g>
      <g id="Grupo_947437" data-name="Grupo 947437" transform="translate(0.002 0.001)">
        <g id="Grupo_947436" data-name="Grupo 947436">
          <path id="Trazado_690727" data-name="Trazado 690727" d="M36.086,30.144a4.518,4.518,0,0,0-.864-.992L31.87,26.227a.712.712,0,0,0-.285-.249L29.557,24.21l-9.384-8.186a2.148,2.148,0,0,0-.63-3.427l.868-.868a2.872,2.872,0,0,0,2.77-.742,2.869,2.869,0,0,0,0-4.059L17.094.842a2.869,2.869,0,0,0-4.8,2.771L3.632,12.274a2.888,2.888,0,0,0-.743-.1,2.869,2.869,0,0,0-2.029,4.9l6.088,6.088a2.869,2.869,0,0,0,4.8-2.771l.866-.866a2.153,2.153,0,0,0,3.428.629l9.995,11.483a.721.721,0,0,0,.1.122c.013.013.026.025.04.036l2.978,3.422c.074.087.153.173.235.255a4.267,4.267,0,0,0,3.033,1.261,4.4,4.4,0,0,0,.6-.042,4.342,4.342,0,0,0,3.2-2.218A4.245,4.245,0,0,0,36.086,30.144ZM14.05,1.856a1.434,1.434,0,0,1,2.029,0l6.088,6.088a1.435,1.435,0,0,1-2.029,2.029L14.05,3.886h0A1.436,1.436,0,0,1,14.05,1.856ZM9.992,22.149a1.437,1.437,0,0,1-2.03,0L1.875,16.061A1.435,1.435,0,0,1,3.9,14.031L9.992,20.12A1.436,1.436,0,0,1,9.992,22.149Zm3.021-5.05-2.006,2.006L4.918,13.017,13.035,4.9l6.088,6.088L17.114,13l-.02.019-4.056,4.057Zm2.562,1.5,0,0-.505.505A.718.718,0,0,1,14.041,18.1l4.075-4.075a.718.718,0,0,1,1.217.515.711.711,0,0,1-.21.507l-.5.5-.01.01Zm1.486.543,2.1-2.1,8.878,7.744-3.24,3.24Zm8.68,9.972,3.379-3.379,1.084.945L26.684,30.2Zm9.236,4.664a2.918,2.918,0,0,1-2.148,1.5,2.851,2.851,0,0,1-2.426-.813c-.055-.055-.108-.113-.157-.171l-.007-.008-2.61-3,3.658-3.659,3,2.613.007.006a3.088,3.088,0,0,1,.592.681A2.833,2.833,0,0,1,34.976,33.775Z" transform="translate(-0.021 -0.001)" fill="#fff"/>
        </g>
      </g>
      <g id="Grupo_947439" data-name="Grupo 947439" transform="translate(9.254 7.226)">
        <g id="Grupo_947438" data-name="Grupo 947438">
          <path id="Trazado_690728" data-name="Trazado 690728" d="M133.254,100.917a.717.717,0,0,0-1.015,0l-3.044,3.044a.717.717,0,0,0,1.015,1.015l3.044-3.044A.717.717,0,0,0,133.254,100.917Z" transform="translate(-128.985 -100.707)" fill="#fff"/>
        </g>
      </g>
    </g>
  </g>
</svg>
