<svg xmlns="http://www.w3.org/2000/svg" width="55" height="55" viewBox="0 0 55 55">
  <g id="_40" data-name="40" transform="translate(-285 -1990)">
    <circle id="Elipse_4814" data-name="Elipse 4814" cx="27.5" cy="27.5" r="27.5" transform="translate(285 1990)" fill="#4d793f"/>
    <g id="curriculum" transform="translate(297.993 2000)">
      <g id="Grupo_947441" data-name="Grupo 947441" transform="translate(0.007)">
        <g id="Grupo_947440" data-name="Grupo 947440">
          <path id="Trazado_690729" data-name="Trazado 690729" d="M27.886,10.017a.673.673,0,0,0,.673-.673V2.02A2.022,2.022,0,0,0,26.539,0H2.027A2.022,2.022,0,0,0,.007,2.02V32.458a2.022,2.022,0,0,0,2.02,2.02H26.539a2.022,2.022,0,0,0,2.02-2.02V27.5a.673.673,0,0,0-1.347,0v4.961a.674.674,0,0,1-.673.673H2.027a.674.674,0,0,1-.673-.673V2.02a.674.674,0,0,1,.673-.673H26.539a.674.674,0,0,1,.673.673V9.343A.673.673,0,0,0,27.886,10.017Z" transform="translate(-0.007)" fill="#fff"/>
        </g>
      </g>
      <g id="Grupo_947443" data-name="Grupo 947443" transform="translate(8.088 3.636)">
        <g id="Grupo_947442" data-name="Grupo 947442">
          <path id="Trazado_690730" data-name="Trazado 690730" d="M126.2,54a6.192,6.192,0,0,0-4.25,10.7.665.665,0,0,0,.072.067,6.184,6.184,0,0,0,8.356,0,.672.672,0,0,0,.072-.067A6.192,6.192,0,0,0,126.2,54Zm0,11.044a4.823,4.823,0,0,1-2.929-.988,3.367,3.367,0,0,1,5.857,0A4.823,4.823,0,0,1,126.2,65.044Zm-1.077-5.118v-.438a1.077,1.077,0,0,1,2.155,0v.438a1.077,1.077,0,0,1-2.155,0ZM130.1,63.07a4.672,4.672,0,0,0-1.984-1.663,2.412,2.412,0,0,0,.507-1.481v-.438a2.424,2.424,0,1,0-4.848,0v.438a2.412,2.412,0,0,0,.507,1.481A4.672,4.672,0,0,0,122.3,63.07a4.848,4.848,0,1,1,7.8,0Z" transform="translate(-120.007 -54)" fill="#fff"/>
        </g>
      </g>
      <g id="Grupo_947445" data-name="Grupo 947445" transform="translate(13.61 29.495)">
        <g id="Grupo_947444" data-name="Grupo 947444">
          <path id="Trazado_690731" data-name="Trazado 690731" d="M206.317,438H202.68a.673.673,0,1,0,0,1.347h3.636a.673.673,0,1,0,0-1.347Z" transform="translate(-202.007 -438)" fill="#fff"/>
        </g>
      </g>
      <g id="Grupo_947447" data-name="Grupo 947447" transform="translate(7.684 25.724)">
        <g id="Grupo_947446" data-name="Grupo 947446">
          <path id="Trazado_690732" data-name="Trazado 690732" d="M124.243,382H114.68a.673.673,0,1,0,0,1.347h9.562a.673.673,0,1,0,0-1.347Z" transform="translate(-114.007 -382)" fill="#fff"/>
        </g>
      </g>
      <g id="Grupo_947449" data-name="Grupo 947449" transform="translate(7.684 21.953)">
        <g id="Grupo_947448" data-name="Grupo 947448">
          <path id="Trazado_690733" data-name="Trazado 690733" d="M124.243,326H114.68a.673.673,0,1,0,0,1.347h9.562a.673.673,0,1,0,0-1.347Z" transform="translate(-114.007 -326)" fill="#fff"/>
        </g>
      </g>
      <g id="Grupo_947451" data-name="Grupo 947451" transform="translate(4.807 18.182)">
        <g id="Grupo_947450" data-name="Grupo 947450">
          <path id="Trazado_690734" data-name="Trazado 690734" d="M72.437,270.2a.673.673,0,1,0,.2.476A.679.679,0,0,0,72.437,270.2Z" transform="translate(-71.287 -270)" fill="#fff"/>
        </g>
      </g>
      <g id="Grupo_947453" data-name="Grupo 947453" transform="translate(4.807 21.953)">
        <g id="Grupo_947452" data-name="Grupo 947452">
          <path id="Trazado_690735" data-name="Trazado 690735" d="M72.437,326.2a.673.673,0,1,0,.2.476A.68.68,0,0,0,72.437,326.2Z" transform="translate(-71.287 -326)" fill="#fff"/>
        </g>
      </g>
      <g id="Grupo_947455" data-name="Grupo 947455" transform="translate(4.807 25.724)">
        <g id="Grupo_947454" data-name="Grupo 947454">
          <path id="Trazado_690736" data-name="Trazado 690736" d="M72.437,382.2a.673.673,0,1,0,.2.476A.68.68,0,0,0,72.437,382.2Z" transform="translate(-71.287 -382)" fill="#fff"/>
        </g>
      </g>
      <g id="Grupo_947457" data-name="Grupo 947457" transform="translate(7.684 18.182)">
        <g id="Grupo_947456" data-name="Grupo 947456">
          <path id="Trazado_690737" data-name="Trazado 690737" d="M124.243,270H114.68a.673.673,0,1,0,0,1.347h9.562a.673.673,0,1,0,0-1.347Z" transform="translate(-114.007 -270)" fill="#fff"/>
        </g>
      </g>
      <g id="Grupo_947459" data-name="Grupo 947459" transform="translate(20.046 8.396)">
        <g id="Grupo_947458" data-name="Grupo 947458">
          <path id="Trazado_690738" data-name="Trazado 690738" d="M310.614,125.055a2.828,2.828,0,0,0-3.863,1.035l-8.474,14.678a.674.674,0,0,0-.086.262l-.6,5.343a.673.673,0,0,0,1.069.617l4.329-3.188a.672.672,0,0,0,.184-.206l8.474-14.678A2.831,2.831,0,0,0,310.614,125.055ZM299.1,144.993l.312-2.79,1.949,1.125Zm3.242-2.653-2.566-1.481,6.8-11.778,2.566,1.481Zm8.137-14.094-.664,1.15-2.566-1.481.664-1.15a1.481,1.481,0,0,1,2.566,1.481Z" transform="translate(-297.589 -124.675)" fill="#fff"/>
        </g>
      </g>
    </g>
  </g>
</svg>
