<svg xmlns="http://www.w3.org/2000/svg" xmlns:xlink="http://www.w3.org/1999/xlink" width="73" height="73" viewBox="0 0 73 73">
  <defs>
    <filter id="Trazado_640294" x="0" y="0" width="73" height="73" filterUnits="userSpaceOnUse">
      <feOffset dy="3" input="SourceAlpha"/>
      <feGaussianBlur stdDeviation="3" result="blur"/>
      <feFlood flood-opacity="0.161"/>
      <feComposite operator="in" in2="blur"/>
      <feComposite in="SourceGraphic"/>
    </filter>
  </defs>
  <g id="_41" data-name="41" transform="translate(-276 -2048)">
    <g transform="matrix(1, 0, 0, 1, 276, 2048)" filter="url(#Trazado_640294)">
      <path id="Trazado_640294-2" data-name="Trazado 640294" d="M27.5,0A27.5,27.5,0,1,1,0,27.5,27.5,27.5,0,0,1,27.5,0Z" transform="translate(9 6)" fill="#4d793f"/>
    </g>
    <g id="registro-en-linea" transform="translate(293 2062)">
      <path id="Trazado_690739" data-name="Trazado 690739" d="M27.109,45H22.222A1.223,1.223,0,0,0,21,46.222a2.446,2.446,0,0,0,2.444,2.444h2.444a2.446,2.446,0,0,0,2.444-2.444A1.223,1.223,0,0,0,27.109,45Zm-1.222,2.444H23.444a1.223,1.223,0,0,1-1.222-1.222h4.887A1.223,1.223,0,0,1,25.887,47.444Z" transform="translate(-7.782 -17.12)" fill="#fff"/>
      <circle id="Elipse_5495" data-name="Elipse 5495" cx="1" cy="1" r="1" transform="translate(25 3)" fill="#fff"/>
      <ellipse id="Elipse_5496" data-name="Elipse 5496" cx="0.5" cy="1" rx="0.5" ry="1" transform="translate(23 3)" fill="#fff"/>
      <path id="Trazado_690740" data-name="Trazado 690740" d="M23,5h4.887V6.222H23Z" transform="translate(-8.56 -1.556)" fill="#fff"/>
      <path id="Trazado_690741" data-name="Trazado 690741" d="M36.49,12.192l1.575-1.575A2.771,2.771,0,0,0,34.147,6.7L31.293,9.553H29.4c-.1,0-.2.008-.3.015V4.055A3.058,3.058,0,0,0,26.048,1H7.72A3.058,3.058,0,0,0,4.666,4.055V18.464L2.979,20.15A6.71,6.71,0,0,0,1,24.928a6.845,6.845,0,0,0,.092,1.111l.951,5.7a11.17,11.17,0,0,0,.648,2.317l.753,1.884v2.937H12V35.94l.422-1.054c.118-.3.218-.6.31-.9H26.048A3.058,3.058,0,0,0,29.1,30.935V19.58l.247-.247.561.337a6.168,6.168,0,0,0,5.129.562l2.715-.9h1.123V13.218H37.859Zm-1.48-4.63A1.549,1.549,0,1,1,37.2,9.753l-5.7,5.7L30.04,14.286a4.847,4.847,0,0,0-1.095-.657Zm-4.939,3.212-2.484,2.484a4.877,4.877,0,0,0-.59-.04,2.167,2.167,0,0,0-2.1,2.728l-.764.764a1.11,1.11,0,0,1-.2-1.734l3.308-3.308a3.034,3.034,0,0,1,2.16-.894ZM5.887,4.055A1.835,1.835,0,0,1,7.72,2.222H26.048A1.835,1.835,0,0,1,27.88,4.055V9.833a4.233,4.233,0,0,0-1.222.714V7.109a1.223,1.223,0,0,0-1.222-1.222H8.331A1.223,1.223,0,0,0,7.109,7.109V25.437a1.221,1.221,0,0,0,.707,1.1,17.862,17.862,0,0,1-.94,2.273.522.522,0,0,1-.988-.233Zm4.887,33.6H4.666V36.433h6.109Zm.509-3.222-.312.778h-6.5L3.824,33.6a10,10,0,0,1-.577-2.063l-.951-5.7a5.688,5.688,0,0,1-.075-.91,5.5,5.5,0,0,1,1.621-3.914l.822-.823V28.58a1.744,1.744,0,0,0,3.3.78,19.17,19.17,0,0,0,1.448-3.914l.458-1.832a.821.821,0,0,1,1.615.136l.478,6.214q.028.381.029.765a9.935,9.935,0,0,1-.713,3.7Zm-.613-12.662a2.04,2.04,0,0,0-1.982,1.547l-.358,1.432V7.109H25.437v4.634l-2.369,2.369a2.328,2.328,0,0,0,.194,3.472l-1.4,1.4-1.195,2.987A1.636,1.636,0,0,0,22.792,24.1l2.645-1.058v2.4H12.844l-.137-1.779a2.052,2.052,0,0,0-2.037-1.887Zm11.934-1.357,1.744,1.744-2.011.8a.422.422,0,0,1-.568-.384.4.4,0,0,1,.03-.154ZM27.88,30.935a1.835,1.835,0,0,1-1.833,1.833H13.028a11.168,11.168,0,0,0,.19-2.037q0-.43-.033-.858l-.247-3.213h12.5a1.223,1.223,0,0,0,1.222-1.222V22.024L27.88,20.8Zm-2.444-9.417-2.191-2.191,2.316-2.315a2.116,2.116,0,0,0,.318.239l2.39,1.434Zm12.218-3.413h-.1l-2.9.968a4.99,4.99,0,0,1-4.113-.451L26.51,16.2A.949.949,0,0,1,27,14.44a3.659,3.659,0,0,1,2.279.8l2.055,1.643H34.6V15.662h-1.58l2.6-2.6,1.834,1.375h.2Z" transform="translate(0)" fill="#fff"/>
      <path id="Trazado_690742" data-name="Trazado 690742" d="M29.662,13H15v3.666H29.662ZM28.44,15.444H16.222V14.222H28.44Z" transform="translate(-5.447 -4.669)" fill="#fff"/>
      <path id="Trazado_690743" data-name="Trazado 690743" d="M21,21h7.942v1.222H21Z" transform="translate(-7.782 -7.782)" fill="#fff"/>
      <path id="Trazado_690744" data-name="Trazado 690744" d="M32,25h1.222v1.222H32Z" transform="translate(-12.062 -9.338)" fill="#fff"/>
      <path id="Trazado_690745" data-name="Trazado 690745" d="M21,25h5.5v1.222H21Z" transform="translate(-7.782 -9.338)" fill="#fff"/>
      <path id="Trazado_690746" data-name="Trazado 690746" d="M21,29h7.942v1.222H21Z" transform="translate(-7.782 -10.894)" fill="#fff"/>
      <path id="Trazado_690747" data-name="Trazado 690747" d="M21,33h6.72v1.222H21Z" transform="translate(-7.782 -12.451)" fill="#fff"/>
      <path id="Trazado_690748" data-name="Trazado 690748" d="M21,37h6.72v1.222H21Z" transform="translate(-7.782 -14.007)" fill="#fff"/>
    </g>
  </g>
</svg>
