<svg xmlns="http://www.w3.org/2000/svg" width="55" height="55" viewBox="0 0 55 55">
  <g id="_42" data-name="42" transform="translate(-285 -1924)">
    <circle id="Elipse_4813" data-name="Elipse 4813" cx="27.5" cy="27.5" r="27.5" transform="translate(285 1924)" fill="#4d793f"/>
    <g id="media-monitor-screen-Digital_Marketing" data-name="media-monitor-screen-Digital Marketing" transform="translate(291.268 1930.27)">
      <path id="Trazado_690773" data-name="Trazado 690773" d="M38.294,10.277H37.02V9.64h.637a1.91,1.91,0,1,0,0-3.82H37.02V2.636a.616.616,0,0,0-.261-.509.631.631,0,0,0-.56-.1L28.011,4.547H23.649a.637.637,0,0,0-.637.637V5.82H21.739a.637.637,0,0,0-.637.637V9a.637.637,0,0,0,.637.637h1.273v.637h-3.82V4.547a.637.637,0,0,0-.637-.637H5.82a.637.637,0,0,0-.637.637v5.731H3.91A1.916,1.916,0,0,0,2,12.187V32.563a1.916,1.916,0,0,0,1.91,1.91H18.555v1.91h-3.82a.637.637,0,0,0-.637.637v2.547a.637.637,0,0,0,.637.637H27.469a.637.637,0,0,0,.637-.637V37.02a.637.637,0,0,0-.637-.637h-3.82v-1.91H38.294a1.916,1.916,0,0,0,1.91-1.91V12.187a1.916,1.916,0,0,0-1.91-1.91ZM37.02,7.094h.637a.637.637,0,1,1,0,1.273H37.02ZM28.743,5.655l7-2.159v8.469l-7-2.159Zm-4.457.166h3.184V9.64H24.286ZM26.1,10.914,25.642,14.1h-.72V10.914ZM22.375,8.367V7.094h.637V8.367ZM6.457,5.183H17.918V14.1H6.457ZM26.833,37.657V38.93H15.371V37.657Zm-7-1.273v-1.91h2.547v1.91Zm19.1-3.82a.637.637,0,0,1-.637.637H3.91a.637.637,0,0,1-.637-.637v-.637H38.931Zm0-1.91H3.273V12.187a.637.637,0,0,1,.637-.637H5.184v3.184a.637.637,0,0,0,.637.637H18.555a.637.637,0,0,0,.637-.637V11.551h4.457v3.184a.637.637,0,0,0,.637.637H26.2a.637.637,0,0,0,.63-.547l.56-3.91h.624L36.2,13.435a.589.589,0,0,0,.185.025.646.646,0,0,0,.637-.637V11.551h1.273a.637.637,0,0,1,.637.637Z" transform="translate(0 0)" fill="#fff"/>
      <path id="Trazado_690774" data-name="Trazado 690774" d="M6.637,38.461H23.192a.637.637,0,0,0,.637-.637V27.637A.637.637,0,0,0,23.192,27H6.637A.637.637,0,0,0,6,27.637V37.824A.637.637,0,0,0,6.637,38.461Zm.637-1.273V28.776l7.307,4.5a.637.637,0,0,0,.667,0l7.307-4.5v8.412Zm1.613-8.914H20.942l-6.028,3.71Z" transform="translate(-1.453 -9.082)" fill="#fff"/>
      <path id="Trazado_690775" data-name="Trazado 690775" d="M36.637,33.914H37.91v1.91a.637.637,0,0,0,.637.637H49.371a.637.637,0,0,0,.637-.637V28.184a.637.637,0,0,0-.637-.637h-.637v-1.91A.637.637,0,0,0,48.1,25H36.637a.637.637,0,0,0-.637.637v7.641A.637.637,0,0,0,36.637,33.914Zm12.1,1.273H39.184V28.82h9.551ZM37.273,26.273H47.461v1.273H38.547a.637.637,0,0,0-.637.637v4.457h-.637Z" transform="translate(-12.351 -8.355)" fill="#fff"/>
      <path id="Trazado_690776" data-name="Trazado 690776" d="M43,33h1.273v1.273H43Z" transform="translate(-14.894 -11.262)" fill="#fff"/>
      <path id="Trazado_690777" data-name="Trazado 690777" d="M47,33h4.457v1.273H47Z" transform="translate(-16.347 -11.262)" fill="#fff"/>
      <path id="Trazado_690778" data-name="Trazado 690778" d="M43,37h2.547v1.273H43Z" transform="translate(-14.894 -12.715)" fill="#fff"/>
      <path id="Trazado_690779" data-name="Trazado 690779" d="M49,37h3.184v1.273H49Z" transform="translate(-17.074 -12.715)" fill="#fff"/>
      <path id="Trazado_690780" data-name="Trazado 690780" d="M15.3,15a.637.637,0,0,0,.62.028l3.82-1.91a.637.637,0,0,0,0-1.14l-3.82-1.91a.637.637,0,0,0-.921.57v3.82A.637.637,0,0,0,15.3,15Zm.972-3.332,1.76.88-1.76.88Z" transform="translate(-4.722 -2.906)" fill="#fff"/>
    </g>
  </g>
</svg>
