<svg xmlns="http://www.w3.org/2000/svg" width="55" height="55" viewBox="0 0 55 55">
  <g id="_43" data-name="43" transform="translate(-285 -1990)">
    <circle id="Elipse_4814" data-name="Elipse 4814" cx="27.5" cy="27.5" r="27.5" transform="translate(285 1990)" fill="#4d793f"/>
    <g id="marketing" transform="translate(292.52 1997.975)">
      <g id="Grupo_947461" data-name="Grupo 947461" transform="translate(0 0.548)">
        <path id="Trazado_690765" data-name="Trazado 690765" d="M46.849,86.09a1.745,1.745,0,0,0-.843-1.489l-2.367-1.42A1.61,1.61,0,0,0,41.2,84.562v3.054A1.61,1.61,0,0,0,43.64,89l2.367-1.42A1.745,1.745,0,0,0,46.849,86.09ZM45.36,86.5l-2.367,1.42a.366.366,0,0,1-.538-.3V84.563a.355.355,0,0,1,.538-.305l2.367,1.42a.481.481,0,0,1,0,.825Z" transform="translate(-38.063 -76.676)" fill="#fff"/>
        <path id="Trazado_690766" data-name="Trazado 690766" d="M34.294,28.162A16.823,16.823,0,0,0,35.812,24.4h3.181l-.4-3.235a3.462,3.462,0,0,0-1.532-2.453A3.126,3.126,0,0,0,35.143,13.1c-.072,0-.14.016-.211.021a16.979,16.979,0,0,0-1.39-2.532h4.111a1.256,1.256,0,0,0,1.255-1.255V1.8A1.256,1.256,0,0,0,37.654.548H36.4A1.256,1.256,0,0,0,35.143,1.8V9.334h-.628V4.313a1.256,1.256,0,0,0-1.255-1.255H32.005A1.256,1.256,0,0,0,30.75,4.313v5.02h-.628V6.824a1.256,1.256,0,0,0-1.255-1.255h-.546a16.834,16.834,0,0,0-4.559-1.945,3.887,3.887,0,0,0-3.8-3.075H18.941a3.885,3.885,0,0,0-3.793,3.068,16.751,16.751,0,0,0-5.384,2.49,5.642,5.642,0,1,0-6.512,8.962,16.865,16.865,0,0,0-.706,3.984A5.64,5.64,0,0,0,5.367,29.4a16.963,16.963,0,0,0,3.419,3.752v2.538a1.256,1.256,0,0,0,1.255,1.255h2.648l.356,1.426a1.431,1.431,0,0,0,2.776,0l.356-1.426h2.648c.031,0,.059-.007.089-.009.179.006.358.009.538.009a16.8,16.8,0,0,0,6.562-1.324,5.644,5.644,0,1,0,8.278-7.461ZM36.4,1.8h1.255V9.334H36.4Zm.944,19.513.228,1.824H32.716l.228-1.824a2.216,2.216,0,0,1,4.4,0Zm-.316-5.079a1.883,1.883,0,1,1-1.883-1.883A1.885,1.885,0,0,1,37.026,16.237ZM32.005,4.313h1.255v5.02H32.005Zm-4.393,2.51h1.255v2.51H27.613ZM18.942,1.8h1.026a2.624,2.624,0,0,1,2.049,4.264L20.408,8.079h-.326V6.708a1.883,1.883,0,1,0-1.255,0V8.079H18.5L16.892,6.067A2.624,2.624,0,0,1,18.942,1.8Zm-.115,7.531h1.255v.628a.628.628,0,1,1-1.255,0V9.334Zm0-4.393a.628.628,0,1,1,.628.628A.628.628,0,0,1,18.827,4.941ZM1.255,9.961a4.393,4.393,0,1,1,4.393,4.393A4.4,4.4,0,0,1,1.255,9.961Zm0,13.806a4.365,4.365,0,0,1,.185-1.255H2.63a6.631,6.631,0,0,0,0,2.51H1.44A4.364,4.364,0,0,1,1.255,23.768Zm2.51,0a5.46,5.46,0,0,1,.151-1.255H7.38a5.494,5.494,0,0,1,.151,1.255,5.46,5.46,0,0,1-.151,1.255H3.917a5.456,5.456,0,0,1-.151-1.255Zm1.883-4.133.292.292a5.455,5.455,0,0,1,.976,1.332H4.38a5.454,5.454,0,0,1,.976-1.332Zm1.268,6.643a5.439,5.439,0,0,1-.976,1.331l-.292.292-.292-.292a5.439,5.439,0,0,1-.976-1.331Zm1.382,0h.95a4.413,4.413,0,0,1-1.8,1.493A6.611,6.611,0,0,0,8.3,26.278Zm1.743-2.51a4.365,4.365,0,0,1-.185,1.255H8.666a6.631,6.631,0,0,0,0-2.51h1.19A4.365,4.365,0,0,1,10.041,23.768ZM8.3,21.257a6.629,6.629,0,0,0-.851-1.493,4.417,4.417,0,0,1,1.8,1.493Zm-5.3,0H2.048a4.415,4.415,0,0,1,1.8-1.493A6.626,6.626,0,0,0,3,21.257Zm-.949,5.02H3a6.609,6.609,0,0,0,.852,1.493,4.413,4.413,0,0,1-1.8-1.493Zm16.778,9.413H15.2l-.594,2.377a.183.183,0,0,1-.342,0l-.595-2.377H10.041V31.926h8.786Zm1.255-.019V31.926a1.256,1.256,0,0,0-1.255-1.255H10.041a1.252,1.252,0,0,0-1.194.887,15.689,15.689,0,0,1-2.026-2.267A5.646,5.646,0,1,0,3.849,18.418a15.605,15.605,0,0,1,.591-2.943,5.637,5.637,0,0,0,6.077-8.364A15.509,15.509,0,0,1,15.1,4.925a3.888,3.888,0,0,0,.808,1.926l1.66,2.075V9.961a1.883,1.883,0,0,0,3.765,0V8.927L23,6.852A3.885,3.885,0,0,0,23.8,4.938,15.487,15.487,0,0,1,26.632,6.05a1.238,1.238,0,0,0-.275.773v2.51a1.256,1.256,0,0,0,1.255,1.255H32a15.7,15.7,0,0,1,1.712,2.873,3.107,3.107,0,0,0-.479,5.245A3.46,3.46,0,0,0,31.7,21.16l-.4,3.235h3.215a15.6,15.6,0,0,1-1.277,3.093A5.633,5.633,0,0,0,25.454,34.5a15.673,15.673,0,0,1-5.372,1.175Zm6.276-3.119a4.4,4.4,0,0,1,3.765-4.343v1.2H28.868V31.3a1.885,1.885,0,0,0,1.883,1.883.628.628,0,0,1,.628.628v.628H30.75a.628.628,0,0,1-.628-.628v-.628H28.868v.628a1.88,1.88,0,0,0,1.255,1.767V36.9a4.4,4.4,0,0,1-3.765-4.343Zm5.02,4.343v-1.2h1.255V33.809a1.885,1.885,0,0,0-1.883-1.883.628.628,0,0,1-.628-.628v-.628h.628a.628.628,0,0,1,.628.628v.628h1.255V31.3a1.88,1.88,0,0,0-1.255-1.767v-1.32a4.387,4.387,0,0,1,0,8.685Z" transform="translate(0 -0.548)" fill="#fff"/>
        <path id="Trazado_690767" data-name="Trazado 690767" d="M163.388,176.652V174l.817-.2a2.235,2.235,0,0,0,0-4.336l-.817-.2v-2.648a1.256,1.256,0,0,0-1.255-1.255h-1.255a1.256,1.256,0,0,0-1.255,1.255v.351a3.631,3.631,0,0,1-2.4.9h-5.128a3.765,3.765,0,1,0,0,7.531v3.765a1.256,1.256,0,0,0,1.255,1.255H154.6a1.256,1.256,0,0,0,1.255-1.255V175.4h1.363a3.682,3.682,0,0,1,2.4.9v.35a1.256,1.256,0,0,0,1.255,1.255h1.255A1.256,1.256,0,0,0,163.388,176.652Zm-13.806-5.02a2.513,2.513,0,0,1,2.51-2.51v5.02A2.513,2.513,0,0,1,149.582,171.632Zm5.02,7.531h-1.255V175.4H154.6Zm2.618-5.02h-3.873v-5.02h3.873a4.881,4.881,0,0,0,2.4-.629v6.284A4.942,4.942,0,0,0,157.221,174.142Zm6.68-3.461a.98.98,0,0,1,0,1.9l-.513.129v-2.158Zm-3.023-4.07h1.255v10.041h-1.256Z" transform="translate(-137.031 -152.805)" fill="#fff"/>
        <path id="Trazado_690768" data-name="Trazado 690768" d="M230.731,239.519h1.255v1.255h-1.255Z" transform="translate(-213.159 -221.32)" fill="#fff"/>
        <path id="Trazado_690769" data-name="Trazado 690769" d="M263.692,239.519h1.255v1.255h-1.255Z" transform="translate(-243.61 -221.32)" fill="#fff"/>
        <path id="Trazado_690770" data-name="Trazado 690770" d="M148.327,429.048h1.255V430.3h-1.255Z" transform="translate(-137.031 -396.415)" fill="#fff"/>
        <path id="Trazado_690771" data-name="Trazado 690771" d="M181.289,429.048h1.255V430.3h-1.255Z" transform="translate(-167.483 -396.415)" fill="#fff"/>
        <path id="Trazado_690772" data-name="Trazado 690772" d="M214.25,429.048h1.255V430.3H214.25Z" transform="translate(-197.934 -396.415)" fill="#fff"/>
      </g>
    </g>
  </g>
</svg>
