<svg xmlns="http://www.w3.org/2000/svg" width="165" height="165" viewBox="0 0 165 165">
  <g id="_25" data-name="25" transform="translate(-2007 7436)">
    <circle id="Elipse_5530" data-name="Elipse 5530" cx="82.5" cy="82.5" r="82.5" transform="translate(2007 -7436)" fill="#ccd3ca"/>
    <g id="gatear" transform="translate(2029 -7414)">
      <path id="Trazado_691324" data-name="Trazado 691324" d="M57.816,24.126a1.119,1.119,0,0,1-.865-1.829A60.733,60.733,0,0,1,151,22.3a1.119,1.119,0,0,1-.865,1.829Zm0,73.2a1.119,1.119,0,0,0-.865,1.829,60.733,60.733,0,0,0,94.047,0,1.119,1.119,0,0,0-.865-1.829Z" transform="translate(-43.246)" fill="#4bcd5c"/>
      <path id="Trazado_691325" data-name="Trazado 691325" d="M168.714,95.876a49.8,49.8,0,1,1-49.8-49.8A49.8,49.8,0,0,1,168.714,95.876Z" transform="translate(-52.723 -35.148)" fill="#74d579"/>
      <path id="Trazado_691326" data-name="Trazado 691326" d="M6.458,141h42.65a27.182,27.182,0,0,1,27.218,26.986c0,.1,0,.49,0,.588a27.182,27.182,0,0,1-27.218,26.986H6.458a60.852,60.852,0,0,1,0-54.561Z" transform="translate(0 -107.552)" fill="#a44f3e"/>
      <path id="Trazado_691327" data-name="Trazado 691327" d="M156.6,168.28a60.475,60.475,0,0,1-6.458,27.28H73.3A27.182,27.182,0,0,1,46.08,168.574q0-.147,0-.294t0-.294A27.182,27.182,0,0,1,73.3,141h76.85a60.475,60.475,0,0,1,6.458,27.28Z" transform="translate(-35.148 -107.552)" fill="#bb5d4c"/>
      <path id="Trazado_691328" data-name="Trazado 691328" d="M134.731,158.228a60.784,60.784,0,0,1-7.849,12.262H33.106a60.785,60.785,0,0,1-7.849-12.262ZM126.881,93.3H33.106a60.784,60.784,0,0,0-7.849,12.262H134.731A60.776,60.776,0,0,0,126.881,93.3Z" transform="translate(-19.266 -71.166)" fill="#883f2e"/>
      <path id="Trazado_691329" data-name="Trazado 691329" d="M135.861,182.872a7.145,7.145,0,1,1-7.145-7.145A7.144,7.144,0,0,1,135.861,182.872ZM84.156,122.4a4.482,4.482,0,1,0,4.482,4.482A4.482,4.482,0,0,0,84.156,122.4ZM78.084,135.33a2.372,2.372,0,1,1-2.372-2.372A2.372,2.372,0,0,1,78.084,135.33ZM84.419,151.9a2.372,2.372,0,1,1-2.372-2.372,2.372,2.372,0,0,1,2.372,2.372Zm5.6-11.828a2.372,2.372,0,1,1-2.372-2.372A2.372,2.372,0,0,1,90.016,140.074Z" transform="translate(-55.942 -93.367)" fill="#883f2e"/>
      <path id="Trazado_691330" data-name="Trazado 691330" d="M122.041,313.515H85.152a1.779,1.779,0,0,1,0-3.558h36.89a1.779,1.779,0,0,1,0,3.558Zm-67.7-5.113a1.779,1.779,0,0,0-1.779-1.779H15.674a1.779,1.779,0,0,0,0,3.558h36.89A1.779,1.779,0,0,0,54.343,308.4Z" transform="translate(-10.599 -233.886)" fill="#a44f3e"/>
      <path id="Trazado_691331" data-name="Trazado 691331" d="M193.992,170.416h-28.5a1.779,1.779,0,1,1,0-3.558h28.5a1.779,1.779,0,0,1,0,3.558Zm8.852-8.852a1.779,1.779,0,0,0-1.779-1.779h-16.4a1.779,1.779,0,1,0,0,3.558h16.4A1.779,1.779,0,0,0,202.844,161.564Z" transform="translate(-124.876 -121.881)" fill="#d78878"/>
      <path id="Trazado_691332" data-name="Trazado 691332" d="M335.354,236.265a2.817,2.817,0,0,1-2.786,2.847H316.022c-.067,0-.134,0-.2-.007a2.731,2.731,0,0,1-1.533-.339l-14.456-8.05a2.847,2.847,0,0,1,2.77-4.974l13.786,7.677h16.18a2.816,2.816,0,0,1,2.786,2.846Z" transform="translate(-227.626 -171.927)" fill="#f6a96c"/>
      <path id="Trazado_691333" data-name="Trazado 691333" d="M423.384,259.214h2.382a2.847,2.847,0,0,1,0,5.693h-2.382a2.847,2.847,0,0,1,0-5.693Z" transform="translate(-320.824 -197.723)" fill="#ffbd86"/>
      <path id="Trazado_691334" data-name="Trazado 691334" d="M332.821,235.894l-4.87,6.032L322.72,237.7a3.876,3.876,0,0,1,4.87-6.032Z" transform="translate(-245.065 -176.058)" fill="#ff3980"/>
      <path id="Trazado_691335" data-name="Trazado 691335" d="M95.648,236.116H85.236l-8.323,8.323a3.589,3.589,0,0,1-2.98,1.026,3.62,3.62,0,0,1-.439.027H48.83l3.155-7.192h20.9l10.507-10.507a7,7,0,0,1,4.762-2.4h7.5Z" transform="translate(-37.247 -171.926)" fill="#005f80"/>
      <path id="Trazado_691336" data-name="Trazado 691336" d="M49.588,269.44l-9.181,7.047a2.155,2.155,0,0,1-2.83-3.245l6.348-6.348a2.181,2.181,0,0,1,3.084-.033Z" transform="translate(-28.163 -203.082)" fill="#b6c4cf"/>
      <path id="Trazado_691337" data-name="Trazado 691337" d="M270.125,229.422A12.079,12.079,0,0,1,258.046,241.5h-13.46V225.4H266.1A4.027,4.027,0,0,1,270.125,229.422Z" transform="translate(-186.565 -171.927)" fill="#ff5e95"/>
      <path id="Trazado_691338" data-name="Trazado 691338" d="M343.054,179.72l-1.935,1.935a8.736,8.736,0,0,1-10,1.677l-2.1,2.1A2.847,2.847,0,1,1,325,181.4l2.1-2.1a8.736,8.736,0,0,1,1.677-10l1.935-1.935a8.732,8.732,0,0,1,12.349,12.349Z" transform="translate(-247.264 -125.717)" fill="#ffbd86"/>
      <path id="Trazado_691339" data-name="Trazado 691339" d="M363.037,192.846l-2.2,2.2a8.563,8.563,0,0,1-9.785,1.6,8.563,8.563,0,0,1,1.6-9.785l2.2-2.2a8.563,8.563,0,0,1,9.785-1.6A8.563,8.563,0,0,1,363.037,192.846Z" transform="translate(-267.116 -138.973)" fill="#fed2a4"/>
      <path id="Trazado_691340" data-name="Trazado 691340" d="M319.536,263.269a2.817,2.817,0,0,1-2.786,2.847H300.2a2.718,2.718,0,0,1-.287-.015,2.758,2.758,0,0,1-2.242-.789l-11.7-11.7A2.847,2.847,0,0,1,290,249.587l10.836,10.836H316.75A2.817,2.817,0,0,1,319.536,263.269Z" transform="translate(-217.523 -189.767)" fill="#ffbd86"/>
      <path id="Trazado_691341" data-name="Trazado 691341" d="M399.289,297.85h2.382a2.847,2.847,0,0,1,0,5.693h-2.382a2.847,2.847,0,0,1,0-5.693Z" transform="translate(-302.445 -227.194)" fill="#fed2a4"/>
      <path id="Trazado_691342" data-name="Trazado 691342" d="M194.922,260.392l-.005.005-.065.065-.005.005-.026.025-.015.014-.016.015-.024.022-.007.006-.03.027h0a3.574,3.574,0,0,1-.979.619l-.009,0-.02.009-.023.009-.006,0a3.581,3.581,0,0,1-1.175.257h0l-.039,0H174.429a3.6,3.6,0,1,1,0-7.192h9.232l-5.422-5.422a3.6,3.6,0,1,1,5.085-5.085l11.559,11.56.033.034.005.005.025.026.014.015.015.016.022.024.006.007.027.03h0a3.575,3.575,0,0,1,.619.979l0,.009.009.02.009.023,0,.006a3.581,3.581,0,0,1,.257,1.175.02.02,0,0,0,0,0c0,.013,0,.026,0,.039s0,.006,0,.009,0,.022,0,.033,0,.012,0,.018,0,.018,0,.027,0,.029,0,.044h0c0,.014,0,.029,0,.043s0,.018,0,.027,0,.012,0,.018,0,.022,0,.033,0,.006,0,.009,0,.026,0,.039a.02.02,0,0,1,0,0,3.58,3.58,0,0,1-.257,1.175l0,.006-.009.023-.009.02,0,.009a3.576,3.576,0,0,1-.619.979h0l-.027.03-.006.007-.022.024-.015.016-.014.015-.026.027Z" transform="translate(-130.308 -185.15)" fill="#007298"/>
      <path id="Trazado_691343" data-name="Trazado 691343" d="M169.422,291.465l-1.509,11.475a2.155,2.155,0,0,1-4.3-.293v-8.977a2.181,2.181,0,0,1,2.158-2.2h3.647Z" transform="translate(-124.804 -222.324)" fill="#d9e7ec"/>
      <path id="Trazado_691344" data-name="Trazado 691344" d="M291.277,248.713,285.8,254.2l-4.754-4.754a3.876,3.876,0,1,1,5.482-5.482Z" transform="translate(-213.507 -185.222)" fill="#ff3980"/>
    </g>
  </g>
</svg>
