<svg xmlns="http://www.w3.org/2000/svg" width="295.328" height="300.239" viewBox="0 0 295.328 300.239">
  <g id="_10" data-name="10" transform="translate(785.879 -293.554)">
    <path id="Trazado_683135" data-name="Trazado 683135" d="M-658.323,453.217a1.533,1.533,0,0,0-.474-1,22.932,22.932,0,0,1-4.369-13.79c.04-11.854.013-23.708.013-35.562q0-34.761-.013-69.522a14.614,14.614,0,0,1,2.05-7.94,13.838,13.838,0,0,1,22.822-1.042c.32.425.625.861.98,1.352.367-.381.2-.818.216-1.2.094-2.129-.193-4.271.279-6.385,1.228-5.5,4.546-9.175,9.936-10.639,5.321-1.446,10.018-.005,13.86,4.02.184.193.351.4.527.6l.42.484c.517-.215.282-.643.288-.957.026-1.495,0-2.99.014-4.485a13.739,13.739,0,0,1,13.722-13.606,13.723,13.723,0,0,1,13.877,13.605c.016,1.588,0,3.176,0,4.951.6-.286.789-.744,1.086-1.069,3.785-4.134,8.43-5.774,13.883-4.4s8.794,5,10.159,10.435a15.687,15.687,0,0,1,.339,3.819q.019,21.384.054,42.768a3.774,3.774,0,0,0,.115,1.559c.453-.006.665-.352.934-.569a23.765,23.765,0,0,1,15.253-5.321c.8,0,1.6.035,2.4-.011.724-.043.949.282.9.946-.029.371,0,.747,0,1.121q0,38.205.021,76.41a23.75,23.75,0,0,1-4.7,14.812,2.835,2.835,0,0,0-.213.425c.4.325.838.176,1.232.177,5.5.013,11,0,16.5.013,1.206,0,1.211.021,1.23,1.234.294,18.154-4.647,34.709-15.534,49.288-12.479,16.711-29.031,27.135-49.594,30.857a79.05,79.05,0,0,1-91.072-60.409,81.623,81.623,0,0,1-1.908-19.708c.021-1.167.034-1.2,1.314-1.218,3.1-.036,6.192-.041,9.288-.045C-667.792,453.212-663.095,453.217-658.323,453.217Z" transform="translate(-34.173)" fill="#171d4a"/>
    <path id="Trazado_683136" data-name="Trazado 683136" d="M-552.311,458.411h20.394c1.335,0,2.67-.012,4,0,1.15.014,1.164.029,1.158,1.139a69.355,69.355,0,0,1-.687,9.257,73.653,73.653,0,0,1-13.265,33.436c-11.887,16.433-27.776,26.793-47.746,30.521a75.482,75.482,0,0,1-87.156-55.747,79.823,79.823,0,0,1-2.29-17.1c-.009-.267.007-.534,0-.8-.013-.45.172-.7.647-.7.427,0,.854-.006,1.282-.006h29.438c-.121-.455-.41-.493-.625-.606-7.134-3.756-10.689-9.7-10.825-17.725-.023-1.388,0-2.777,0-4.166V335.777a15.061,15.061,0,0,1,.447-4.283,10.32,10.32,0,0,1,11.484-7.347,10.263,10.263,0,0,1,8.758,10.113q.037,23.233.015,46.464c0,2.384-.292,2,2.035,2.03.908.014,1.816-.007,2.723,0,.464,0,.68-.21.673-.674-.007-.48,0-.961,0-1.442,0-19.333.036-38.666-.028-58a10.523,10.523,0,0,1,7.761-10.141,10.291,10.291,0,0,1,12.854,9.257c.053.852.059,1.707.059,2.561q0,27.959,0,55.917c0,.374,0,.748,0,1.121.019,1.384.021,1.41,1.41,1.393,1.006-.013,2.282.421,2.95-.182.762-.689.265-2.018.266-3.061q.029-35.007,0-70.016a10.211,10.211,0,0,1,3.213-7.9,9.834,9.834,0,0,1,10.986-2.069,9.8,9.8,0,0,1,6.429,9.135c.035.585.009,1.175.009,1.762q0,35.168,0,70.337c0,2.292-.281,2,2.077,1.994.84,0,1.883.373,2.471-.186s.211-1.621.212-2.455q.023-29.16.017-58.321a10.323,10.323,0,0,1,10.659-10.417,10.34,10.34,0,0,1,9.857,8.691,17.991,17.991,0,0,1,.2,2.712q.006,24.193.03,48.386a4.345,4.345,0,0,1-.717,2.52,20.614,20.614,0,0,0-2.444,7.065,24.194,24.194,0,0,0-.448,5.094c0,7.9-.025,15.809.029,23.713a2,2,0,0,1-1.494,2.2,35.276,35.276,0,0,0-11.949,8.16c-.258.265-.494.552-.76.85a26.274,26.274,0,0,0,2.213,2.471c.564-.093.79-.491,1.079-.788a34.319,34.319,0,0,1,12.59-8.312c1.213-.461,1.217-.475,1.217-1.843q0-13.939,0-27.878a20.217,20.217,0,0,1,16.982-19.6c1.032-.149,2.286-.748,3.058-.029.621.577.2,1.826.2,2.775q.03,35.969.049,71.939a21.04,21.04,0,0,1-1.683,8.89,19.166,19.166,0,0,1-8.332,9.012A3.56,3.56,0,0,0-552.311,458.411Z" transform="translate(-35.904 -1.703)" fill="#ffbe00"/>
    <g id="Grupo_944821" data-name="Grupo 944821" transform="translate(-785.879 547.717)">
      <path id="Trazado_683137" data-name="Trazado 683137" d="M-449.369,689.043c.088-.086.278-.067.442-.1a6.729,6.729,0,0,0,.12.667c.238.832.537.928,1.719.832.742-.061.672-.538.673-1.011.005-2.135,0-4.269.005-6.4,0-.563-.144-.9-.8-.89q-2.481.039-4.962,0c-.631-.01-.866.252-.821.856a5.114,5.114,0,0,1,0,.959c-.079.682.3.793.862.8a12.863,12.863,0,0,1,2.633.094c-.511,1.971-1.467,2.894-3.113,3.117a4.01,4.01,0,0,1-4.347-2.012,7.143,7.143,0,0,1,.3-6.763c1.44-2.366,5.12-2.476,6.477-.2a1.606,1.606,0,0,0,1.757.933,6.312,6.312,0,0,0,1.9-.166,5.418,5.418,0,0,0-3.867-4.577c-4.5-1.461-9.589.195-10.507,6.134a10.631,10.631,0,0,0-.061,2.712c.3,2.844,1.555,5.15,4.313,6.235C-454.046,691.279-451.516,691.129-449.369,689.043Z" transform="translate(677.859 -674.445)" fill="#25214d"/>
      <path id="Trazado_683138" data-name="Trazado 683138" d="M-681.693,724.96a3.6,3.6,0,0,0-1.761-3.541,4,4,0,0,0,1.79-1.814,4.269,4.269,0,0,0-3.38-6.09,66.139,66.139,0,0,0-7.348-.137c-1.4-.02-1.415.011-1.418,1.377q-.011,5.838,0,11.676c0,2.436,0,2.412,2.438,2.271.623-.036.832-.238.819-.846-.028-1.386.019-2.773-.018-4.158-.019-.694.242-.955.926-.926.851.036,1.707-.019,2.558.018,1.47.064,1.858.452,1.98,1.93.087,1.061.148,2.124.226,3.186.035.488.245.79.795.781.988-.015,1.976,0,3.19,0C-681.91,727.415-681.69,726.165-681.693,724.96Zm-4.514-4.9a20.971,20.971,0,0,1-3.673.111c-.444,0-.7-.2-.682-.677.009-.32,0-.64,0-.961-.008-2.435-.008-2.435,2.437-2.376a13.7,13.7,0,0,1,1.917.016,1.818,1.818,0,0,1,1.612,2.043A1.68,1.68,0,0,1-686.208,720.06Z" transform="translate(755.267 -687.301)" fill="#25214c"/>
      <path id="Trazado_683139" data-name="Trazado 683139" d="M-522.183,713.471c-2.131-.079-4.265-.075-6.4-.076-1.083,0-1.1.032-1.109,1.2-.014,2.134,0,4.269,0,6.4,0,2.241.029,4.482-.016,6.722-.016.775.238,1.017,1,1,1.972-.043,3.948-.031,5.921-.011a5.611,5.611,0,0,0,5.582-3.757,10.937,10.937,0,0,0,.489-6.753A5.547,5.547,0,0,0-522.183,713.471Zm2.068,9.813a3.41,3.41,0,0,1-3.611,2.751c-2.743.063-2.743.063-2.743-2.6q0-1.2,0-2.395c0-1.384.015-2.769-.006-4.152-.008-.533.173-.786.732-.768,1.011.033,2.026-.019,3.032.061a2.745,2.745,0,0,1,2.6,2.213A9,9,0,0,1-520.115,723.284Z" transform="translate(700.701 -687.319)" fill="#25214c"/>
      <path id="Trazado_683140" data-name="Trazado 683140" d="M-640.7,690.629a1.9,1.9,0,0,1,.32,0c1.954-.033,1.832.3,1.834-1.758.005-3.9.014-7.8,0-11.694-.009-2.134.3-1.816-2.023-1.906-.909-.035-1.056.349-1.047,1.121.031,2.563.011,5.126.011,7.69v1.235c-.6-.216-.667-.625-.847-.929q-2.113-3.584-4.2-7.188c-1.145-1.971-1.143-1.972-3.457-1.908-1.083.03-1.1.03-1.107,1.185-.011,4.058-.024,8.117,0,12.174.015,2.25-.431,1.916,2.073,1.992.806.025,1-.294.991-1.027-.03-2.242-.01-4.485-.01-6.728,0-.776,0-1.551,0-2.388.649.178.73.638.93.976,1.605,2.707,3.219,5.411,4.774,8.147C-642.037,690.358-641.578,690.8-640.7,690.629Z" transform="translate(741.109 -674.64)" fill="#25214c"/>
      <path id="Trazado_683141" data-name="Trazado 683141" d="M-697.721,691.564c-.026-1.812-.01-3.625-.006-5.438a3.663,3.663,0,0,1,.168-1.417,1.724,1.724,0,0,1,2.005-1.2c.9.1,1.3.557,1.372,1.638.037.584.011,1.172.011,1.759,0,1.6.025,3.2-.005,4.8-.019.965.682.9,1.2.764.659-.173,1.866.693,1.93-.613.13-2.659.1-5.332-.011-7.993a3.216,3.216,0,0,0-3.087-2.931,4.215,4.215,0,0,0-3.934,1.612,4.115,4.115,0,0,0-6.386-.22c-.044-.753-.175-1.226-.926-1.139a6.7,6.7,0,0,1-1.278,0c-.711-.054-.919.282-.915.949q.029,4.719,0,9.437c0,.669.218.951.923.937,2.722-.053,2.151.258,2.2-2.016.034-1.652,0-3.305.013-4.959a1.776,1.776,0,0,1,1.126-1.918,1.658,1.658,0,0,1,2.429,1.608c.083,1.755.029,3.518.048,5.276.025,2.269-.291,1.968,2.083,2a1.431,1.431,0,0,1,.16,0C-697.874,692.6-697.711,692.211-697.721,691.564Z" transform="translate(759.845 -676.516)" fill="#26214d"/>
      <path id="Trazado_683142" data-name="Trazado 683142" d="M-617.592,719.248a.98.98,0,0,1-.16,0c-.765-.143-.839.421-.958,1.077a4.57,4.57,0,0,0-7.69,2.283,7.948,7.948,0,0,0,.175,5.18,4.578,4.578,0,0,0,7.045,1.942c.147-.11.265-.36.517-.1.012.14.037.3.036.455,0,1.047-.089,2.133-1.207,2.573s-2.3.56-3.193-.573a.634.634,0,0,0-.532-.292,15.583,15.583,0,0,0-2.837.093,3.007,3.007,0,0,0,1.889,2.7,7.556,7.556,0,0,0,3.583.666c3.879-.133,5.394-1.676,5.417-5.548.017-2.828.027-5.657,0-8.484C-615.535,719.027-615.031,719.273-617.592,719.248Zm-1.238,7.3a2.4,2.4,0,0,1-2.215,1.563,2.2,2.2,0,0,1-2.132-1.408,4.791,4.791,0,0,1-.088-3.435,2.219,2.219,0,0,1,2.115-1.661,2.428,2.428,0,0,1,2.327,1.635,5.3,5.3,0,0,1,.234,1.512A5.243,5.243,0,0,1-618.83,726.553Z" transform="translate(732.966 -689.18)" fill="#25214c"/>
      <path id="Trazado_683143" data-name="Trazado 683143" d="M-775.985,681.9c-1.123-.324-2.277-.541-3.411-.834a13.474,13.474,0,0,1-2.287-.693,1.409,1.409,0,0,1-.2-2.477,3.646,3.646,0,0,1,5.129,1.047.983.983,0,0,0,1.064.684c.533-.017,1.067-.02,1.6,0,.612.02.709-.322.629-.821a4.153,4.153,0,0,0-1.91-3.011,7.848,7.848,0,0,0-7.932-.342A4.2,4.2,0,0,0-785.6,680a3.717,3.717,0,0,0,2.96,3.362c.613.18,1.226.359,1.846.513,1.135.283,2.286.515,3.411.832a1.5,1.5,0,0,1,1.283,1.442,1.7,1.7,0,0,1-1.278,1.655,5.556,5.556,0,0,1-3.764.009c-.517-.182-1.079-.5-1.167-1.013-.236-1.379-1.194-1.248-2.163-1.209-.42.017-.841,0-1.4,0a4.582,4.582,0,0,0,1.755,3.805c2.183,1.737,6.968,1.869,9.247.236a4.441,4.441,0,0,0,1.961-4.435A3.84,3.84,0,0,0-775.985,681.9Z" transform="translate(785.879 -674.399)" fill="#25214c"/>
      <path id="Trazado_683144" data-name="Trazado 683144" d="M-742.219,713.488c-.681-.007-.944.208-.921.908.043,1.295.013,2.593.013,3.931a2.2,2.2,0,0,1-.476-.13,4.575,4.575,0,0,0-7.35,2.471,8.228,8.228,0,0,0-.164,4.567c.958,3.787,4.758,5.061,7.961,2.446.1.656.2,1.171.94,1.061a7.487,7.487,0,0,1,.957-.008c1.221-.021,1.242-.022,1.246-1.221.01-3.994.02-7.987,0-11.979C-740.029,713.323-739.567,713.516-742.219,713.488Zm-1.288,11.768a2.272,2.272,0,0,1-2.37,1.282,2.146,2.146,0,0,1-1.985-1.592,5.068,5.068,0,0,1-.017-3.45,2.315,2.315,0,0,1,2.1-1.708,2.441,2.441,0,0,1,2.374,1.581,3.619,3.619,0,0,1,.319,1.766A3.955,3.955,0,0,1-743.507,725.256Z" transform="translate(774.403 -687.349)" fill="#26224d"/>
      <path id="Trazado_683145" data-name="Trazado 683145" d="M-502.788,690.958a4.484,4.484,0,0,0,2.619-1.4c.447,1.065.447,1.078,1.559,1.073,1.812-.008,1.665.188,1.668-1.591,0-3.944.015-7.889,0-11.833-.01-2.157.332-1.894-1.989-1.905-1.138-.005-1.153.023-1.169,1.126-.017,1.233,0,2.468,0,3.879a4.752,4.752,0,0,0-7.943,2.789,9.249,9.249,0,0,0-.042,3.814A4.852,4.852,0,0,0-502.788,690.958Zm-1.936-7.786a2.1,2.1,0,0,1,2.046-1.5,2.324,2.324,0,0,1,2.218,1.29,3.927,3.927,0,0,1,.408,2.1,3.792,3.792,0,0,1-.485,2.225,2.255,2.255,0,0,1-2.143,1.13,2.068,2.068,0,0,1-1.986-1.35A5.2,5.2,0,0,1-504.724,683.172Z" transform="translate(693.572 -674.652)" fill="#26224d"/>
      <path id="Trazado_683146" data-name="Trazado 683146" d="M-568.826,713.477c-.854-.026-1.107.275-1.069,1.1.057,1.241.015,2.486.015,3.8a3.063,3.063,0,0,1-.507-.186,4.527,4.527,0,0,0-7.23,2.223,8,8,0,0,0-.16,5.187,4.719,4.719,0,0,0,5.411,3.447,4.426,4.426,0,0,0,2.5-1.5c.041.8.1,1.258.8,1.192.37-.035.747,0,1.12,0,1.1-.025,1.12-.027,1.123-1.165.01-4.058.02-8.115,0-12.172C-566.835,713.278-566.446,713.551-568.826,713.477Zm-1.015,9.669a4.039,4.039,0,0,1-.472,2.179,2.229,2.229,0,0,1-2.251,1.214,2.077,2.077,0,0,1-1.979-1.376,4.973,4.973,0,0,1-.065-3.751,2.2,2.2,0,0,1,2.148-1.626,2.391,2.391,0,0,1,2.264,1.507A3.807,3.807,0,0,1-569.841,723.146Z" transform="translate(716.802 -687.345)" fill="#25214c"/>
      <path id="Trazado_683147" data-name="Trazado 683147" d="M-480.033,689.07c-.626.009-.788.656-1.235.931-1.786,1.106-3.847.065-4.216-2.324h1.878q2.8,0,5.591,0c.375,0,.712.023.813-.514a5.526,5.526,0,0,0-3.48-6,7.263,7.263,0,0,0-2.838-.294,5.14,5.14,0,0,0-5.018,4.5,9.543,9.543,0,0,0,.013,3.177,4.613,4.613,0,0,0,2.5,3.5,6.7,6.7,0,0,0,5.861.311,4.13,4.13,0,0,0,2.786-3.3C-478.343,689.067-479.188,689.059-480.033,689.07ZM-485,684.345a2.623,2.623,0,0,1,4.306.159c.467.806.3,1.133-.629,1.167-.582.021-1.165,0-1.748,0-.424,0-.849.019-1.272-.005-.347-.019-.816.156-.972-.3A1.2,1.2,0,0,1-485,684.345Z" transform="translate(687.052 -676.497)" fill="#26214d"/>
      <path id="Trazado_683148" data-name="Trazado 683148" d="M-434.487,691.472a6.772,6.772,0,0,0,7.235.578,3.867,3.867,0,0,0,2.189-2.979c-.455-.021-.821-.045-1.187-.055a3.36,3.36,0,0,0-2.588.8c-1.614,1.408-3.918.252-4.311-2.183h6.038c2.478,0,2.674-.252,2.119-2.729-.035-.155-.091-.305-.142-.457-1.007-3.066-4.452-4.533-7.744-3.275a4.978,4.978,0,0,0-3.329,4.308C-436.494,687.72-436.413,689.883-434.487,691.472Zm1.563-6.688a2.508,2.508,0,0,1,2.221-1.537,2.574,2.574,0,0,1,2.459,1.431c.29.671.127.916-.675.95-.581.025-1.164,0-1.746,0v0c-.582,0-1.164,0-1.746,0C-433.055,685.633-433.086,685.251-432.924,684.784Z" transform="translate(669.651 -676.455)" fill="#26214d"/>
      <path id="Trazado_683149" data-name="Trazado 683149" d="M-715.8,689.865c.122-.272.234-.759-.217-.753-1.11.015-2.231-.4-3.273.634a2.739,2.739,0,0,1-4.357-1.1c-.25-.734-.123-.948.666-.965,1.12-.025,2.241-.007,3.361-.007v0c1.121,0,2.241-.025,3.361.01.625.02.816-.22.845-.832.145-3.137-1.728-5.572-4.615-5.935-3.727-.469-6.288,1.216-6.8,4.63-.336,2.224-.207,4.455,1.78,5.975a6.534,6.534,0,0,0,6.953.689A4.423,4.423,0,0,0-715.8,689.865Zm-7.589-5.329A2.356,2.356,0,0,1-721,683.3a2.376,2.376,0,0,1,2.209,1.541c.186.492.135.832-.5.826s-1.268,0-1.9,0v.005c-.528,0-1.057.015-1.585,0C-723.738,685.638-723.871,685.381-723.392,684.536Z" transform="translate(766.294 -676.494)" fill="#26214d"/>
      <path id="Trazado_683150" data-name="Trazado 683150" d="M-724.5,719.039c-3.045-.667-5.92.724-6.84,3.323a8.315,8.315,0,0,0-.308,4.1,4.937,4.937,0,0,0,3.552,4.124,6.231,6.231,0,0,0,6.968-1.758c.332-.443.762-.886.491-1.584-1.384,0-2.609-.148-3.885.857-1.647,1.3-3.923-.145-3.941-2.386h2.06c1.759,0,3.518,0,5.277,0,.419,0,.858.068.889-.6C-720.127,722.66-721.1,719.784-724.5,719.039Zm-2.448,4.692h-1.435c.24-1.606.832-2.208,2.168-2.283,1.519-.086,2.234.466,2.723,2.283Z" transform="translate(767.888 -689.14)" fill="#25214c"/>
      <path id="Trazado_683151" data-name="Trazado 683151" d="M-654.807,719.4c-3.63-1.426-8.362.093-8.321,5.447,0,.32,0,.64.014.959a4.946,4.946,0,0,0,3.589,4.772,6.8,6.8,0,0,0,4.7-.037,4.58,4.58,0,0,0,3.019-3.291c-1.55.043-2.823-.29-4.063.847-1.152,1.057-3.311.264-3.908-1.143-.388-.915-.2-1.2.831-1.227.479-.013.959,0,1.439,0,1.652,0,3.3.007,4.957-.005.4,0,.89.1.922-.565C-651.535,723.108-652.163,720.442-654.807,719.4Zm-4.923,4.276c.126-1.527.794-2.189,2.232-2.225,1.55-.039,2.255.57,2.52,2.225Z" transform="translate(745.063 -689.148)" fill="#25214c"/>
      <path id="Trazado_683152" data-name="Trazado 683152" d="M-550.141,719.408c-3.5-1.392-8.348-.039-8.338,5.434,0,.373,0,.748.028,1.119a4.994,4.994,0,0,0,3.723,4.678,6.923,6.923,0,0,0,4.251.018,4.608,4.608,0,0,0,3.3-3.317c-2.259-.211-2.259-.211-3.992.811a2.939,2.939,0,0,1-3.63-.648,1.555,1.555,0,0,1-.441-1.47c.23-.575.837-.229,1.273-.3a6.448,6.448,0,0,1,.958-.009c1.706,0,3.412.007,5.118-.008.394,0,.9.13.928-.549C-546.891,722.97-547.6,720.422-550.141,719.408Zm-5,4.3c.3-1.623.874-2.185,2.217-2.247,1.527-.071,2.231.49,2.641,2.189A38.184,38.184,0,0,1-555.143,723.7Z" transform="translate(710.266 -689.149)" fill="#25214c"/>
      <path id="Trazado_683153" data-name="Trazado 683153" d="M-500.718,719.045c-3.1-.687-6.039.758-6.9,3.469a8.417,8.417,0,0,0-.286,3.8,4.952,4.952,0,0,0,4.044,4.411c2.47.582,4.8.255,6.515-1.895a1.6,1.6,0,0,0,.5-1.589c-1.4.026-2.629-.144-3.9.871-1.626,1.295-3.888-.133-3.974-2.388h1.584c1.92,0,3.841,0,5.761-.005.409,0,.872.1.9-.576C-496.35,722.433-497.487,719.761-500.718,719.045Zm.3,4.678c-1.374.007-2.748,0-4.255,0,.454-1.817,1.135-2.365,2.651-2.278,1.35.077,1.98.692,2.207,2.2A4.775,4.775,0,0,1-500.414,723.723Z" transform="translate(693.481 -689.141)" fill="#25214d"/>
      <path id="Trazado_683154" data-name="Trazado 683154" d="M-404,719.364c-3.472-1.286-8.229.025-8.227,5.45,0,.372.027.746.045,1.119a4.85,4.85,0,0,0,3.532,4.643,6.6,6.6,0,0,0,5.144-.206,4.135,4.135,0,0,0,2.552-3.1c-1.46.023-2.714-.256-3.989.8-1.587,1.318-3.8.03-4.1-2.342h4.918c.907,0,1.815,0,2.722-.005.333,0,.6-.061.681-.486A5.636,5.636,0,0,0-404,719.364Zm-.843,4.367c-1.326.026-2.653.007-4.185.007.281-1.343.868-2.06,2-2.257a2.576,2.576,0,0,1,2.763,1.15C-403.86,723.365-404.025,723.716-404.842,723.732Z" transform="translate(661.636 -689.152)" fill="#25214c"/>
      <path id="Trazado_683155" data-name="Trazado 683155" d="M-461.37,728.065c-.008-1.869.021-3.738-.015-5.606a2.859,2.859,0,0,0-2.263-3.087,8.145,8.145,0,0,0-4.885-.108,3.516,3.516,0,0,0-2.569,2.6c-.265.972-.192,1.135.846,1.1.693-.023,1.637.432,2.036-.428.572-1.23,1.549-1.127,2.569-1.053.569.041,1.067.248,1.139.9.083.768-.44,1.017-1.071,1.126-.525.091-1.055.15-1.578.248a14.969,14.969,0,0,0-2.182.471,3.338,3.338,0,0,0-2.26,3.93,3.175,3.175,0,0,0,3.241,2.737,4.6,4.6,0,0,0,2.906-.681c.488-.318,1.089-1.139,1.409.183.021.09.386.133.592.136.848.015,1.7.007,2.547.007l.254-.266C-461.463,729.675-461.367,728.856-461.37,728.065Zm-5.7.634c-.687-.019-1.26-.23-1.422-1.009a1.322,1.322,0,0,1,.89-1.656c.95-.313,1.947-.481,2.926-.713C-464.282,727.527-465.165,728.754-467.066,728.7Z" transform="translate(681.395 -689.162)" fill="#26214d"/>
      <path id="Trazado_683156" data-name="Trazado 683156" d="M-621.978,691.274c.1,1.06.605,1.28,1.339,1.2a9.8,9.8,0,0,0,2.419-.188c-.939-.816-.686-1.85-.7-2.831-.02-1.651.021-3.3-.023-4.952a2.916,2.916,0,0,0-1.412-2.854,7.508,7.508,0,0,0-6.483-.221,2.983,2.983,0,0,0-1.782,3.379c.465,0,.942-.029,1.414.007a1.409,1.409,0,0,0,1.661-.83c.326-.71,1.108-.745,1.818-.716,1.069.044,1.7.456,1.649,1.122-.072.926-.84.965-1.521,1.081-.21.036-.426.036-.634.077a15.226,15.226,0,0,0-2.808.575,3.367,3.367,0,0,0-2.125,4,3.219,3.219,0,0,0,3.125,2.676A5.269,5.269,0,0,0-621.978,691.274Zm-2.987-3.482c.906-.262,1.847-.406,2.776-.6.254,2.157-.434,3.225-2.147,3.382-.946.087-1.583-.262-1.782-.974A1.458,1.458,0,0,1-624.965,687.792Z" transform="translate(733.79 -676.479)" fill="#26214d"/>
      <path id="Trazado_683157" data-name="Trazado 683157" d="M-374.133,680.667c-3.568.005-5.827,2.295-5.862,5.942-.036,3.873,2.069,6.134,5.74,6.162,4.174.2,6.043-2.743,6.082-6.038A5.662,5.662,0,0,0-374.133,680.667Zm2.542,7.489a2.47,2.47,0,0,1-2.636,2.075,2.482,2.482,0,0,1-2.455-2.1,8.351,8.351,0,0,1-.127-1.2,5.411,5.411,0,0,1,.314-2.105,2.479,2.479,0,0,1,2.383-1.571A2.447,2.447,0,0,1-371.695,685,5.589,5.589,0,0,1-371.591,688.156Z" transform="translate(650.919 -676.436)" fill="#26214d"/>
      <path id="Trazado_683158" data-name="Trazado 683158" d="M-572.122,686.8c.011-3.687-2.3-6.089-5.89-6.129s-5.94,2.336-5.956,6.041c-.016,3.766,2.2,6.056,5.869,6.063C-574.408,692.778-572.133,690.5-572.122,686.8Zm-8.249,2.006a4.993,4.993,0,0,1-.027-4.044,2.408,2.408,0,0,1,2.419-1.513,2.427,2.427,0,0,1,2.253,1.529,4.616,4.616,0,0,1,.378,2.029,4.432,4.432,0,0,1-.356,1.874,2.336,2.336,0,0,1-2.213,1.557A2.351,2.351,0,0,1-580.371,688.8Z" transform="translate(718.742 -676.436)" fill="#26214d"/>
      <path id="Trazado_683159" data-name="Trazado 683159" d="M-600.846,718.878c-3.689-.029-6,2.232-6.055,5.91-.051,3.716,2.2,6.107,5.811,6.183,3.63.077,6-2.251,6.043-5.939C-595,721.281-597.242,718.906-600.846,718.878Zm2.287,7.78a2.4,2.4,0,0,1-2.4,1.751,2.436,2.436,0,0,1-2.436-1.715,3.785,3.785,0,0,1-.281-1.727,3.954,3.954,0,0,1,.353-2.021,2.347,2.347,0,0,1,2.247-1.5,2.342,2.342,0,0,1,2.425,1.467A5.007,5.007,0,0,1-598.559,726.657Z" transform="translate(726.368 -689.142)" fill="#26214d"/>
      <path id="Trazado_683160" data-name="Trazado 683160" d="M-534.212,688.93q-.009-2.4,0-4.8a2.589,2.589,0,0,0-1.538-2.584,7.774,7.774,0,0,0-6.068-.219,3.1,3.1,0,0,0-2.054,3.384,8.643,8.643,0,0,0,2.059.1.879.879,0,0,0,.878-.489,2.155,2.155,0,0,1,2.742-.929c.508.156.892.42.932.961.043.579-.391.843-.869.992-.3.094-.631.1-.943.161a23.181,23.181,0,0,0-2.826.521,3.418,3.418,0,0,0-2.541,3.906,3.354,3.354,0,0,0,3.479,2.888,6.043,6.043,0,0,0,3.732-1.4c.168.795.561,1.169,1.354,1.061a14.388,14.388,0,0,0,2.376-.153C-534.358,691.262-534.208,690.083-534.212,688.93Zm-5.577,1.653c-.892.006-1.4-.351-1.535-1.076a1.316,1.316,0,0,1,.958-1.623c.955-.312,1.956-.483,3.037-.74C-537.186,689.486-538.006,690.571-539.789,690.583Z" transform="translate(705.615 -676.485)" fill="#25214d"/>
      <path id="Trazado_683161" data-name="Trazado 683161" d="M-669.584,684.172a2.694,2.694,0,0,0-2.073-2.866,8.382,8.382,0,0,0-4.884-.21c-1.83.443-2.686,1.651-2.729,3.721.578,0,1.159-.027,1.735.007a1.281,1.281,0,0,0,1.38-.741,2.377,2.377,0,0,1,3.012-.539,1,1,0,0,1,.525.921.879.879,0,0,1-.676.8,8.691,8.691,0,0,1-1.088.234,21.176,21.176,0,0,0-2.98.557,3.415,3.415,0,0,0-2.412,3.985,3.347,3.347,0,0,0,3.407,2.777,5.751,5.751,0,0,0,3.756-1.4,1.2,1.2,0,0,0,1.493,1.063,10.068,10.068,0,0,0,2.259-.17,3.969,3.969,0,0,1-.713-2.7C-669.577,687.8-669.551,685.985-669.584,684.172Zm-5.588,6.419c-.881-.005-1.4-.38-1.514-1.1a1.354,1.354,0,0,1,.986-1.613c.957-.3,1.957-.47,3.027-.716C-672.555,689.516-673.4,690.6-675.172,690.59Z" transform="translate(750.617 -676.491)" fill="#26214d"/>
      <path id="Trazado_683162" data-name="Trazado 683162" d="M-636.189,724.239a15.071,15.071,0,0,0-2.915-.831c-.568-.14-1.133-.3-1.685-.491a.723.723,0,0,1-.514-.732.838.838,0,0,1,.537-.727,2.293,2.293,0,0,1,2.889.522,1.426,1.426,0,0,0,1.56.758c.529-.018,1.059,0,1.739,0a3.231,3.231,0,0,0-1.248-2.815,6.95,6.95,0,0,0-6.989-.169,4.268,4.268,0,0,0-1,1.02c-1.061,1.547-.97,3.891,1.373,4.71.953.332,1.946.551,2.917.834a9.966,9.966,0,0,1,1.666.543.792.792,0,0,1,.021,1.49,3.036,3.036,0,0,1-3.675-.862c-.216-.36-.37-.61-.81-.581a9.38,9.38,0,0,0-2.416.138,3.14,3.14,0,0,0,1.677,3.056,7.588,7.588,0,0,0,7.215.035,3.143,3.143,0,0,0,1.65-3.228A3.025,3.025,0,0,0-636.189,724.239Z" transform="translate(738.95 -689.145)" fill="#26214d"/>
      <path id="Trazado_683163" data-name="Trazado 683163" d="M-385.358,724.18a15.942,15.942,0,0,0-2.77-.768c-.567-.142-1.133-.3-1.687-.483a.718.718,0,0,1-.521-.726.864.864,0,0,1,.512-.751c.86-.489,2.47-.334,2.888.518.388.792.9.78,1.539.756a5.082,5.082,0,0,0,1.788-.132,3.246,3.246,0,0,0-2.049-3.125,7.427,7.427,0,0,0-5.162-.241,3.821,3.821,0,0,0-2.028,1.489,3.017,3.017,0,0,0,1.3,4.752,21.462,21.462,0,0,0,3.074.872,7.806,7.806,0,0,1,1.651.575.733.733,0,0,1,.095,1.3c-.88.72-3.253.462-3.737-.55a1.16,1.16,0,0,0-1.338-.768,7,7,0,0,0-1.9.115,3.054,3.054,0,0,0,1.687,3.155,7.757,7.757,0,0,0,6.946.055,3.19,3.19,0,0,0,1.828-3.294A3.108,3.108,0,0,0-385.358,724.18Z" transform="translate(655.474 -689.142)" fill="#26214d"/>
      <path id="Trazado_683164" data-name="Trazado 683164" d="M-416.251,691.973a7.726,7.726,0,0,0,7.216.043,3.176,3.176,0,0,0,1.7-3.21,3.053,3.053,0,0,0-1.982-2.678,11.157,11.157,0,0,0-2.285-.7c-.725-.168-1.444-.366-2.163-.561a.8.8,0,0,1-.7-.764c-.011-.509.348-.749.772-.892a2.424,2.424,0,0,1,2.8.871.941.941,0,0,0,.9.489,7.191,7.191,0,0,0,2.292-.162,3.509,3.509,0,0,0-2.7-3.319,7.912,7.912,0,0,0-4.263-.091,3.99,3.99,0,0,0-2.225,1.475,3.058,3.058,0,0,0,1.249,4.869,26.8,26.8,0,0,0,3.375.96,6,6,0,0,1,1.349.471.771.771,0,0,1-.041,1.406,2.944,2.944,0,0,1-3.765-.894,1.806,1.806,0,0,0-.391-.481,7.385,7.385,0,0,0-2.664.112c-.321.355.021,1.569.69,2.325A3.016,3.016,0,0,0-416.251,691.973Z" transform="translate(663.522 -676.463)" fill="#26214d"/>
      <path id="Trazado_683165" data-name="Trazado 683165" d="M-444.794,724.262a8.216,8.216,0,0,0-1.818-.585c-.832-.174-1.656-.392-2.479-.61-.429-.113-.836-.328-.84-.829,0-.579.456-.8.934-.943a2.194,2.194,0,0,1,2.636.912c.238.365.436.551.85.53a12.54,12.54,0,0,0,2.36-.1,3.615,3.615,0,0,0-2.916-3.462,8.343,8.343,0,0,0-3.641-.137,4.035,4.035,0,0,0-2.762,1.743,3,3,0,0,0,1.4,4.708c.985.386,2.047.569,3.065.872a5.259,5.259,0,0,1,1.649.574.748.748,0,0,1,.024,1.315,2.946,2.946,0,0,1-3.786-.738.933.933,0,0,0-.973-.6,9.54,9.54,0,0,0-2.2.109,3.1,3.1,0,0,0,1.733,3.174,7.781,7.781,0,0,0,6.933.039,3.184,3.184,0,0,0,1.826-3.135A3.037,3.037,0,0,0-444.794,724.262Z" transform="translate(675.292 -689.148)" fill="#26214d"/>
      <path id="Trazado_683166" data-name="Trazado 683166" d="M-480.939,724.274a8.711,8.711,0,0,0-1.818-.594c-.884-.194-1.762-.423-2.635-.661a.884.884,0,0,1-.738-.755c-.029-.49.343-.739.764-.906a2.228,2.228,0,0,1,2.717.676,1.278,1.278,0,0,0,1.41.7,6.774,6.774,0,0,0,1.784-.114,2.832,2.832,0,0,0-1.009-2.55c-1.687-1.548-5.751-1.583-7.483-.07a4.213,4.213,0,0,0-.739.836,3.019,3.019,0,0,0,1.373,4.627,20.549,20.549,0,0,0,3.068.875,8.211,8.211,0,0,1,1.659.561.741.741,0,0,1,.137,1.306c-.774.675-3.2.541-3.659-.366a1.479,1.479,0,0,0-1.75-.933c-.557.077-1.354-.316-1.623.25a2,2,0,0,0,.521,1.922,4.464,4.464,0,0,0,1.02,1c1.723,1.184,5.634,1.186,7.366.032a3.4,3.4,0,0,0,1.579-3.136A2.985,2.985,0,0,0-480.939,724.274Z" transform="translate(687.358 -689.144)" fill="#26214d"/>
      <path id="Trazado_683167" data-name="Trazado 683167" d="M-746.737,692.123a3.229,3.229,0,0,0,1.889-3.106,3.069,3.069,0,0,0-2.08-2.939,12.677,12.677,0,0,0-2.291-.676,14.182,14.182,0,0,1-2.3-.658c-.677-.286-.659-.955-.047-1.368a2.486,2.486,0,0,1,3.026.5,1.329,1.329,0,0,0,1.43.7,5.639,5.639,0,0,0,1.856-.153,3.249,3.249,0,0,0-2.025-3.086,7.41,7.41,0,0,0-5.158-.252,3.832,3.832,0,0,0-2.127,1.608,3.012,3.012,0,0,0,1.359,4.621,20.55,20.55,0,0,0,2.286.692c.766.223,1.543.414,2.3.664a.812.812,0,0,1,.61.841.862.862,0,0,1-.555.716,2.85,2.85,0,0,1-3.631-.9,1,1,0,0,0-1.009-.577c-.479.022-.959.022-1.438,0-.647-.028-.858.264-.74.881a3.254,3.254,0,0,0,1.842,2.47A7.918,7.918,0,0,0-746.737,692.123Z" transform="translate(775.748 -676.458)" fill="#26214d"/>
      <path id="Trazado_683168" data-name="Trazado 683168" d="M-560,686.565a4.636,4.636,0,0,1,.2-1.576,2.1,2.1,0,0,1,2.452-1.557c1.067.12,1.523.659,1.559,2.018.043,1.651,0,3.3.026,4.956.043,2.329-.521,2.06,2.3,2.1.583.007.878-.143.87-.795-.029-2.5.037-5.011-.051-7.513a3.229,3.229,0,0,0-3.117-3.251,4.088,4.088,0,0,0-4.252,1.637c.091-1.224-.358-1.49-1.1-1.4-.262.032-.533,0-.8.006-1.137.032-1.164.033-1.17,1.155q-.025,4.076,0,8.153c.014,2.261-.3,1.945,2.079,2.01.752.021,1.043-.2,1.02-.986C-560.034,689.869-560,688.217-560,686.565Z" transform="translate(711.802 -676.507)" fill="#26224d"/>
      <path id="Trazado_683169" data-name="Trazado 683169" d="M-348.751,683.959a3.111,3.111,0,0,0-2.86-2.982,4.51,4.51,0,0,0-4.454,1.316c.084-.989-.41-1.165-1.109-1.116a5.35,5.35,0,0,1-.959,0c-.83-.091-1.108.235-1.092,1.086.049,2.72.018,5.442.018,8.163,0,2.255,0,2.231,2.327,2.078.625-.041.83-.264.823-.862-.022-1.654-.016-3.308,0-4.962a6.867,6.867,0,0,1,.127-1.587,2.113,2.113,0,0,1,2.536-1.663c1.047.132,1.5.7,1.523,2.062.03,1.6.009,3.2.01,4.8,0,2.349.193,2.505,2.51,2.2.466-.061.657-.242.655-.7C-348.708,689.186-348.635,686.568-348.751,683.959Z" transform="translate(644.013 -676.503)" fill="#26224d"/>
      <path id="Trazado_683170" data-name="Trazado 683170" d="M-604.626,692.8a4.506,4.506,0,0,0,4.131-4.476c-.688,0-1.377.015-2.065,0a.945.945,0,0,0-1.067.673,1.719,1.719,0,0,1-2.095,1.284,2.042,2.042,0,0,1-1.851-1.723,7.15,7.15,0,0,1,.055-3.484,1.985,1.985,0,0,1,1.777-1.6,1.826,1.826,0,0,1,2.109,1.057c.152.352.269.692.755.665a10.443,10.443,0,0,0,2.551-.139c-.133-1.711-.778-3.079-2.4-3.687-3.456-1.293-7.938-.407-8.206,4.955-.016.319-.032.639-.023.959C-610.855,691.22-608.541,693.237-604.626,692.8Z" transform="translate(727.718 -676.493)" fill="#26214d"/>
      <path id="Trazado_683171" data-name="Trazado 683171" d="M-430.723,720.113c1.131-.118,1.212-.285,1.11-1.479-.036-.413-.108-.66-.614-.731-1.251-.176-1.259-.21-1.257-1.508,0-1.845.022-1.646-1.636-1.646-1.389,0-1.39.008-1.407,1.372a8.024,8.024,0,0,0,0,.956c.068.624-.194.9-.81.838-.98-.094-.779.617-.792,1.17-.013.527-.107,1.137.752,1.037.766-.089.869.362.852.978-.025.957-.007,1.916-.007,2.873h0c0,.905.03,1.811-.007,2.714-.065,1.608.459,2.4,2.458,2.656a13.177,13.177,0,0,0,1.435.019c.573.008,1.131-.042,1.009-.827-.089-.571.448-1.517-.79-1.49-.726.016-1.069-.331-1.065-1.064q.015-2.554,0-5.108C-431.49,720.337-431.249,720.168-430.723,720.113Z" transform="translate(669.585 -687.767)" fill="#26214d"/>
      <path id="Trazado_683172" data-name="Trazado 683172" d="M-399.6,682.009c.154.032.306.077.585.148,0,1.9.067,3.815-.016,5.727-.107,2.462.379,3.343,3.408,3.319a6.055,6.055,0,0,1,.638-.034c.73.074.947-.3.856-.949-.076-.551.328-1.407-.8-1.324-.905.067-1.054-.489-1.048-1.217.013-1.5.041-2.992-.013-4.485-.031-.866.2-1.3,1.148-1.213.864.081.708-.591.71-1.1s.135-1.161-.747-1.035c-1,.141-1.174-.415-1.1-1.233.033-.371-.015-.748,0-1.121.033-.6-.2-.81-.835-.841-2.143-.1-2.163-.134-2.193,2.028-.01.721-.048,1.3-1,1.171-.208-.028-.48-.009-.538.225a3.151,3.151,0,0,0-.009,1.578C-400.423,682.142-399.943,681.938-399.6,682.009Z" transform="translate(657.787 -675.089)" fill="#25214c"/>
      <path id="Trazado_683173" data-name="Trazado 683173" d="M-732.4,691.193c.684.044.854-.326.762-.882-.087-.534.4-1.436-.736-1.382-.987.046-1.143-.513-1.129-1.315.025-1.388,0-2.777.008-4.165,0-1.2,0-1.25,1.216-1.416.866-.119.615-.714.642-1.2s.1-.924-.661-.991c-1.183-.1-1.179-.167-1.2-1.262-.007-.374-.019-.748,0-1.121.025-.516-.146-.817-.72-.772-.266.021-.534,0-.8,0-1.549.013-1.489-.186-1.49,1.44,0,.214-.012.428,0,.64.045.659-.033,1.2-.909,1.091-.768-.094-.721.455-.685.934s-.262,1.224.6,1.193c.953-.035,1.007.475,1,1.2q-.04,2.8,0,5.607c.021,1.541.561,2.175,2.023,2.348C-733.787,691.23-733.086,691.148-732.4,691.193Z" transform="translate(769.997 -675.113)" fill="#25214c"/>
      <path id="Trazado_683174" data-name="Trazado 683174" d="M-525.169,682.879q0,2.962,0,5.923c0,2.105-.105,1.807,1.776,1.826,1.392.015,1.348.124,1.348-1.423,0-3.949.023-7.9-.009-11.846-.019-2.354.475-2.013-2.136-2.084-.8-.022-1,.313-.989,1.041C-525.15,678.5-525.169,680.692-525.169,682.879Z" transform="translate(699.194 -674.643)" fill="#27224d"/>
      <path id="Trazado_683175" data-name="Trazado 683175" d="M-417.982,719.007a4.313,4.313,0,0,0-2.613,1.866c-.154-1.625-.154-1.625-1.344-1.639h-.16c-1.668.012-1.5-.105-1.5,1.431-.005,2.617,0,5.232,0,7.849,0,2.159,0,2.121,2.174,2.061.794-.023.991-.315.978-1.051-.032-1.707-.041-3.419.037-5.124a2.142,2.142,0,0,1,2.158-2.3c1.429-.166,1.429-.166,1.433-1.523,0-.214.007-.427,0-.641C-416.862,718.986-417.028,718.863-417.982,719.007Z" transform="translate(665.419 -689.168)" fill="#26224d"/>
      <path id="Trazado_683176" data-name="Trazado 683176" d="M-711.126,713.36c-.864-.025-1.093.29-1.076,1.109.045,2.182.015,4.365.015,6.549,0,2.236.031,4.473-.016,6.708-.016.787.26,1.064,1.011.97a6,6,0,0,1,.8,0c1.253.016,1.223.039,1.221-1.219-.006-4.1.007-8.2-.006-12.3C-709.185,713.208-708.858,713.425-711.126,713.36Z" transform="translate(761.381 -687.307)" fill="#25214c"/>
      <path id="Trazado_683177" data-name="Trazado 683177" d="M-588.8,686.914c0-1.334.007-2.669,0-4-.009-1.848.208-1.689-1.739-1.693-1.415,0-1.427.013-1.431,1.383-.009,2.669-.018,5.339,0,8.008.017,2.217-.368,1.976,2.08,2a1.593,1.593,0,0,1,.16,0c.669.081.958-.169.94-.886C-588.824,690.118-588.8,688.516-588.8,686.914Z" transform="translate(721.405 -676.619)" fill="#27224e"/>
      <path id="Trazado_683178" data-name="Trazado 683178" d="M-386.821,681.217c-1.169.005-1.183.031-1.188,1.289-.01,2.665-.025,5.33,0,7.995.026,2.331-.481,2.047,2.112,2.124.9.027,1.063-.361,1.043-1.133-.04-1.545-.012-3.091-.012-4.636,0-1.226.017-2.452,0-3.677C-384.9,681.118-384.432,681.207-386.821,681.217Z" transform="translate(653.59 -676.618)" fill="#28234e"/>
      <path id="Trazado_683179" data-name="Trazado 683179" d="M-760.252,687.128c0-1.548.011-3.1,0-4.644-.01-1.24-.022-1.242-1.212-1.272-.267-.007-.534-.008-.8,0-1.125.036-1.147.038-1.153,1.17-.013,2.669,0,5.339,0,8.007,0,2.4,0,2.376,2.338,2.23.61-.038.851-.232.841-.847C-760.269,690.224-760.253,688.676-760.252,687.128Z" transform="translate(778.414 -676.615)" fill="#28234e"/>
      <path id="Trazado_683180" data-name="Trazado 683180" d="M-667.605,725.107c0-1.278.018-2.556,0-3.834-.037-2.146.389-1.88-1.985-1.9-1.159-.007-1.172.021-1.177,1.266-.009,2.609,0,5.219,0,7.828,0,2.424.067,2.466,2.469,2.231.571-.055.71-.292.7-.8-.017-1.6-.006-3.2-.006-4.793Z" transform="translate(747.606 -689.307)" fill="#26224d"/>
      <path id="Trazado_683181" data-name="Trazado 683181" d="M-667.607,714.113a2.106,2.106,0,0,0-.007-.318c-.015-.4-.258-.547-.623-.549-.318,0-.637,0-.955,0-1.635,0-1.635,0-1.6,1.651,0,.212,0,.425.01.637s.087.474.308.491a4.67,4.67,0,0,0,2.641-.117C-667.291,715.6-667.679,714.729-667.607,714.113Z" transform="translate(747.615 -687.269)" fill="#2e2853"/>
      <path id="Trazado_683182" data-name="Trazado 683182" d="M-371.507,677.27c.985-.832,1.867-1.786,3.048-2.937-1.217,0-2.048.01-2.878,0a.977.977,0,0,0-.909.516c-.5.8-1.031,1.58-1.731,2.647C-372.93,677.435-372.118,677.785-371.507,677.27Z" transform="translate(648.918 -674.329)" fill="#2a2550"/>
      <path id="Trazado_683183" data-name="Trazado 683183" d="M-386.91,677.886c2.062.082,2.225-.1,2.024-2.054-.047-.451-.178-.7-.655-.683-.267.008-.534,0-.914,0-.4.063-1.1-.256-1.4.182a3.034,3.034,0,0,0-.128,2.17C-387.908,678.063-387.306,677.871-386.91,677.886Z" transform="translate(653.622 -674.584)" fill="#28234e"/>
      <path id="Trazado_683184" data-name="Trazado 683184" d="M-590.976,677.909c.21-.019.422,0,.633,0,1.694-.019,1.533.151,1.539-1.519,0-1.2-.01-1.2-1.2-1.219-.369-.007-.741.024-1.108-.007-.726-.06-.926.313-.866.958a3.726,3.726,0,0,1,0,.79C-592.067,677.68-591.717,677.978-590.976,677.909Z" transform="translate(721.409 -674.604)" fill="#25214d"/>
      <path id="Trazado_683185" data-name="Trazado 683185" d="M-763.453,677.129c-.005.052,0,.105,0,.158a.523.523,0,0,0,.584.579c.317.009.635,0,.952,0,1.8,0,1.609.143,1.627-1.606,0-.212,0-.423-.015-.634s-.093-.437-.341-.448c-.886-.039-1.873-.326-2.62.146C-763.767,675.645-763.387,676.512-763.453,677.129Z" transform="translate(778.447 -674.571)" fill="#28234e"/>
    </g>
    <path id="Trazado_683186" data-name="Trazado 683186" d="M-493.975,547.812a31.266,31.266,0,0,1-.708,5.656,68.951,68.951,0,0,1-7.22,20.581c-.761,1.411-.782,1.093-1.735.543a117.645,117.645,0,0,0-36.494-13.71,116.943,116.943,0,0,0-17.606-2.116c-1.378-.059-1.391-.057-1.4-1.432-.009-2.882.019-5.763-.016-8.644-.011-.832.264-1.19,1.106-1.076a6.021,6.021,0,0,0,.8.005q30.732,0,61.465.007A3.477,3.477,0,0,1-493.975,547.812Z" transform="translate(-75.39 -84.47)" fill="#161d4a"/>
    <path id="Trazado_683187" data-name="Trazado 683187" d="M-667.743,547.63h63.375c1.648.005,1.559-.161,1.56,1.551,0,2.723.006,5.446,0,8.169,0,1.351-.016,1.357-1.418,1.405a116.977,116.977,0,0,0-31.578,5.515,116.756,116.756,0,0,0-22.659,9.961c-.276.158-.563.3-.842.444C-662.794,570.586-667.949,554.165-667.743,547.63Z" transform="translate(-39.279 -84.482)" fill="#161d4a"/>
    <path id="Trazado_683188" data-name="Trazado 683188" d="M-506.488,590.652a69.741,69.741,0,0,1-22.461,20.2c-.547-.433-.617-1.045-.856-1.558-5.549-11.876-14.716-19.089-27.638-21.47a4.771,4.771,0,0,0-.785-.147c-.794-.009-.923-.454-.918-1.146.027-3.418.032-6.836,0-10.253-.008-.8.293-.986,1.035-.965a90.85,90.85,0,0,1,9.408.8,111.108,111.108,0,0,1,29.973,8.272A104.246,104.246,0,0,1-506.488,590.652Z" transform="translate(-75.389 -93.685)" fill="#161d4a"/>
    <path id="Trazado_683189" data-name="Trazado 683189" d="M-627.358,610.257c-5.894-2.318-18.025-13.374-21.88-19.945.228-.467.723-.6,1.124-.822a110.013,110.013,0,0,1,34.9-12.543,100.678,100.678,0,0,1,15.257-1.64c1.283-.031,1.3-.027,1.3,1.278.009,3.2,0,6.406,0,9.609,0,1.148.072,1.225-1.137,1.406q-20.331,3.052-29.026,21.709c-.135.288-.277.573-.423.856C-627.258,610.206-627.316,610.227-627.358,610.257Z" transform="translate(-45.434 -93.683)" fill="#161d4a"/>
    <path id="Trazado_683190" data-name="Trazado 683190" d="M-585.933,478.032v41.35a6.023,6.023,0,0,0,0,.8c.118.883-.328,1.062-1.114,1.055-3.628-.029-7.256-.007-10.884-.016-1.213,0-1.214-.023-1.243-1.228-.007-.32,0-.641,0-.96q0-6.483,0-12.966c0-2.192.246-2.006-1.932-2.009-3.628-.005-7.256-.014-10.884,0a4.572,4.572,0,0,1-3.627-1.348,4.27,4.27,0,0,1-1.073-4.428,4.193,4.193,0,0,1,3.373-3.051,9.555,9.555,0,0,1,1.748-.138c2.4-.015,4.8-.04,7.2.011a1.282,1.282,0,0,0,1.454-1.077,24.709,24.709,0,0,1,6.732-10.718A20.389,20.389,0,0,1-585.933,478.032Z" transform="translate(-56.182 -61.341)" fill="#171d4a"/>
    <path id="Trazado_683191" data-name="Trazado 683191" d="M-559.372,478.064a20.9,20.9,0,0,1,11.466,6.661,26.406,26.406,0,0,1,6.079,11.815,2.471,2.471,0,0,1-.4,2.1c-1.823,2.756-3.568,5.564-5.389,8.322a4.3,4.3,0,0,0-.724,2.545c.039,3.467.022,6.935.011,10.4,0,1.306-.023,1.32-1.318,1.324q-4.24.015-8.481,0c-1.224-.005-1.242-.024-1.245-1.22q-.013-6.162,0-12.323V478.064Z" transform="translate(-75.315 -61.351)" fill="#171d4a"/>
    <path id="Trazado_683192" data-name="Trazado 683192" d="M-558.541,448.081a12.727,12.727,0,0,1-12.774,12.7,12.782,12.782,0,0,1-12.748-13.045,12.767,12.767,0,0,1,12.937-12.512A12.707,12.707,0,0,1-558.541,448.081Z" transform="translate(-67.104 -47.105)" fill="#171d4a"/>
    <path id="Trazado_683193" data-name="Trazado 683193" d="M-581.97,617.9c0,3.574.008,7.149,0,10.723,0,1.193-.031,1.209-1.131,1.119a70.051,70.051,0,0,1-20.645-4.712,4.589,4.589,0,0,0-.589-.245c-.756-.186-.9-.6-.589-1.3a31.455,31.455,0,0,1,2.355-4.534,28.3,28.3,0,0,1,18.965-12.74c.261-.051.529-.064.792-.108.6-.1.873.079.859.751-.036,1.76-.011,3.521-.011,5.281Q-581.969,615.021-581.97,617.9Z" transform="translate(-60.117 -103.919)" fill="#171d4a"/>
    <path id="Trazado_683194" data-name="Trazado 683194" d="M-559.131,617.974c0-3.577-.009-7.154.007-10.731,0-1.168.049-1.208,1.188-.96q14.921,3.253,20.957,17.29c.517,1.2.491,1.236-.726,1.7a67.938,67.938,0,0,1-18.154,4.3c-.69.065-1.378.163-2.07.21-1.149.079-1.187.061-1.194-1.077-.018-2.99-.007-5.979-.007-8.969Q-559.131,618.855-559.131,617.974Z" transform="translate(-75.395 -103.944)" fill="#171d4a"/>
  </g>
</svg>
