<svg xmlns="http://www.w3.org/2000/svg" xmlns:xlink="http://www.w3.org/1999/xlink" width="248" height="245" viewBox="0 0 248 245">
  <defs>
    <filter id="Rectángulo_335073" x="0" y="0" width="248" height="245" filterUnits="userSpaceOnUse">
      <feOffset dy="3" input="SourceAlpha"/>
      <feGaussianBlur stdDeviation="3" result="blur"/>
      <feFlood flood-opacity="0.161"/>
      <feComposite operator="in" in2="blur"/>
      <feComposite in="SourceGraphic"/>
    </filter>
  </defs>
  <g id="_2" data-name="2" transform="translate(-256 -836)">
    <g transform="matrix(1, 0, 0, 1, 256, 836)" filter="url(#Rectángulo_335073)">
      <rect id="Rectángulo_335073-2" data-name="Rectángulo 335073" width="230" height="227" rx="26" transform="translate(9 6)" fill="#fff"/>
    </g>
    <g id="Grupo_736188" data-name="Grupo 736188" transform="translate(1 -698)">
      <rect id="Rectángulo_335070" data-name="Rectángulo 335070" width="192" height="192" transform="translate(283 1561)" fill="none"/>
      <g id="Grupo_736182" data-name="Grupo 736182" transform="translate(337 1588.628)">
        <g id="Grupo_213541" data-name="Grupo 213541" transform="translate(-27 -0.628)">
          <path id="Trazado_150514" data-name="Trazado 150514" d="M76.939,139.386H0V2.059A4.367,4.367,0,0,1,3.724.681q35.615.051,71.23.024c.361,0,.723-.013,1.083,0a2.354,2.354,0,0,1,2.539,2.536c.024.66,0,1.321,0,2.074h56.593c2.873,0,3.532.648,3.532,3.475v122.4c0,2.954-.626,3.585-3.558,3.585H78.56c.072,1.9.316,3.669-1.621,4.613M73.877,5.42H4.683v129.3H73.877Zm60.1,4.617h-55.3V130.1h55.3Z" transform="translate(0 -0.681)"/>
          <path id="Trazado_150516" data-name="Trazado 150516" d="M272.727,146.6h-55.3V26.536h55.3Zm-50.78-89.035q0,11.647,0,23.294c0,2.637.734,3.395,3.378,3.4q19.776.014,39.552,0c2.63,0,3.349-.759,3.349-3.421q0-23.158,0-46.316c0-2.741-.72-3.467-3.443-3.468q-19.708,0-39.416,0c-2.7,0-3.42.742-3.421,3.493q0,11.511,0,23.022m2.7,61.27h41.381v-4.483H224.642Zm41.146-15.98h-41.4v4.44h41.4Zm.011,23.062H224.424v4.44H265.8ZM231.28,95.664H258.9V91.226H231.28Zm6.81,41.855h-4.466v4.423h4.466Zm4.784,4.449H247.3v-4.477h-4.422Zm13.637-4.457h-4.389V142h4.389Z" transform="translate(-138.749 -17.18)" fill="#a7c972"/>
          <path id="Trazado_150517" data-name="Trazado 150517" d="M87.457,232.913a27.717,27.717,0,1,1-27.691-27.775,27.835,27.835,0,0,1,27.691,27.775M71.493,252.683l4.157-2.88c-2.554-.943-2.554-.943-3.569,1.125-.255.519-.5,1.04-.757,1.56l-.144.184.312.012M47.939,213.1l-4.357,3.106.2.413,2.411.79,1.94-4.1.14-.208h-.332m23.556-.007-.31.006.147.181c.545,1.171,1.065,2.355,1.657,3.5.123.238.554.523.766.471a22.766,22.766,0,0,0,2.432-.9c-1.785-1.241-3.238-2.251-4.692-3.259M57.442,242.452c0-2.118.02-4.185-.029-6.25a.922.922,0,0,0-.616-.656c-2.783-.045-5.568-.03-8.642-.03.437,2.738.842,5.277,1.25,7.833l8.036-.9m0-11.622c0-2.177.021-4.236-.029-6.293a.948.948,0,0,0-.637-.655c-2.443-.29-4.894-.519-7.558-.787l-1.044,7.735ZM71.28,235.6H62.16v6.857l7.931.878L71.28,235.6m-1.027-12.511c-2.641.269-5.006.494-7.364.77-.28.033-.752.339-.756.528-.054,2.133-.034,4.269-.034,6.416h9.188l-1.034-7.714m4.551-1.221c.33,2.8.613,5.432.978,8.05.049.351.508.909.795.921,2.011.081,4.027.043,6.121.043a22.029,22.029,0,0,0-3.692-10.631l-4.2,1.617m-38.036,9.012c2.106,0,4.165.021,6.222-.028a.939.939,0,0,0,.664-.614c.363-2.751.669-5.509,1-8.368l-4.2-1.614a22.315,22.315,0,0,0-3.687,10.625m45.859,4.626c-2.1,0-4.031-.046-5.959.045-.329.016-.838.58-.907.956-.274,1.5-.337,3.044-.607,4.548-.634,3.529-.664,3.524,2.694,4.629.043.014.094.05.128.038.4-.143.985-.172,1.174-.458a21.545,21.545,0,0,0,3.477-9.758m-45.609.009c-.118,2.113.963,5.767,2.405,8.337,1.2,2.137,1.2,2.136,3.522,1.325a3.529,3.529,0,0,0,1.129-.411c.33-.282.748-.775.706-1.125-.292-2.449-.674-4.888-1.084-7.321-.05-.3-.428-.762-.665-.77-2.008-.062-4.018-.035-6.013-.035m20.34-16.162v-9.111c-3.5,1.9-5.131,4.957-6.606,8.386l6.606.726m4.8-.024,6.586-.727c-1.594-3.381-3.1-6.466-6.586-8.275Zm-4.816,36.141v-8.333l-6.329.646c1.509,3.215,3.117,6,6.329,7.686m4.834-8.252v8.216c3.191-1.759,4.8-4.47,6.217-7.572-.986-.156-1.817-.327-2.657-.409-1.155-.113-2.317-.157-3.56-.236m-14.153,5.658.227-.264c-.45-.919-.963-1.814-1.331-2.764-.324-.836-.777-.988-1.535-.613-.375.185-.78.308-1.481.579l4.12,3.063" transform="translate(-20.434 -131.155)"/>
          <path id="Trazado_150518" data-name="Trazado 150518" d="M57.926,54.474c-2.7,1.511-5.134,2.963-7.657,4.234a9.184,9.184,0,0,1-3.321.855c-1.7.14-3.428.014-5.142.043a2.894,2.894,0,0,1-2.9-1.785C36.783,53.5,34.613,49.2,32.457,44.887A2.394,2.394,0,0,1,35.6,41.414c3.285,1.24,6.567,2.492,9.883,3.642a3.244,3.244,0,0,0,2.12-.066c1.818-.752,3.564-1.675,5.672-2.692-1.92-1.857-3.7-3.561-5.457-5.283-1.032-1.01-2.057-2.029-3.049-3.078-1.6-1.692-1.081-3.659,1.142-4.217,2.8-.7,5.6-1.405,8.43-1.922a4.536,4.536,0,0,1,2.8.487c3.541,1.973,7.013,4.072,10.482,6.172a1.792,1.792,0,0,0,1.972.069c2.739-1.368,5.527-2.637,8.273-3.992a5.3,5.3,0,0,1,5.4.158c1.083.646,2.2,1.23,3.319,1.817a4.686,4.686,0,0,1-.125,8.632C82.716,43,78.981,44.9,75.22,46.739a2.419,2.419,0,0,0-1.46,1.739c-.729,2.926-1.6,5.816-2.356,8.736a3.48,3.48,0,0,1-1.949,2.423c-2.708,1.33-5.393,2.708-8.1,4.038-2.407,1.181-4.008.105-3.854-2.572.122-2.114.27-4.225.426-6.629M39.537,47.86l-.306-.014.1.26c1.022,2.1,2.036,4.211,3.076,6.306.107.216.376.52.551.509,1.9-.123,3.849.516,5.687-.546,3.354-1.938,6.76-3.788,10.132-5.7.989-.559,1.972-.965,3.034-.256,1.043.7,1.11,1.735,1.006,2.882-.194,2.133-.3,4.274-.457,6.663a38.633,38.633,0,0,0,3.568-1.8,3.316,3.316,0,0,0,1.352-1.622c.885-2.882,1.665-5.8,2.417-8.718a3.571,3.571,0,0,1,2.04-2.507c2.8-1.352,5.564-2.767,8.343-4.157l4.7-2.348c-1.1-.6-2.046-1.036-2.9-1.609a2.52,2.52,0,0,0-2.832-.124c-10.053,4.866-20.145,9.648-30.2,14.5a4.594,4.594,0,0,1-4.125.192c-1.691-.731-3.458-1.286-5.192-1.916M50.5,33.412c2.374,2.3,4.46,4.343,6.577,6.351a1.066,1.066,0,0,0,.9.27c1.828-.819,3.625-1.705,5.584-2.644-2.809-1.661-5.432-3.221-8.069-4.758a1.371,1.371,0,0,0-.874-.192c-1.219.251-2.425.566-4.114.973" transform="translate(-20.436 -17.952)"/>
          <path id="Trazado_150519" data-name="Trazado 150519" d="M57.955,151.788H53.461c-1.016-6.145,3.174-9.427,7.622-9.22,4.01.187,8.035.045,12.054.032a6.33,6.33,0,0,0,1.6-.166,2.073,2.073,0,0,0,1.64-2.327A2.132,2.132,0,0,0,74.4,138.04,11.377,11.377,0,0,0,72.915,138q-19.437,0-38.875,0c-6.094,0-8.842-2.946-8.416-9.141h4.551c0,.572-.021,1.185,0,1.8a2.487,2.487,0,0,0,2.693,2.713c.36.019.722,0,1.083,0q19.776,0,39.553,0c3.716,0,6.388,1.888,7.271,5.068a6.909,6.909,0,0,1-6.785,8.771c-4.153.073-8.308.017-12.461.017-2.99,0-3.54.544-3.576,3.534,0,.307,0,.614,0,1.028" transform="translate(-16.324 -82.474)"/>
          <rect id="Rectángulo_48666" data-name="Rectángulo 48666" width="4.496" height="4.48" transform="translate(9.312 37.084)" fill="#333"/>
          <path id="Trazado_150520" data-name="Trazado 150520" d="M229.92,65.515q0-11.511,0-23.023c0-2.75.725-3.492,3.421-3.493q19.708,0,39.417,0c2.723,0,3.442.727,3.443,3.468q0,23.158,0,46.316c0,2.661-.718,3.419-3.349,3.421q-19.776.015-39.552,0c-2.644,0-3.377-.759-3.378-3.4q0-11.646,0-23.293m41.56,6.913V43.73H234.63V72.907c1.629-2.441,3.066-4.6,4.511-6.757,1.472-2.2,3.278-2.182,4.764.04,2.228,3.331,4.448,6.667,6.763,10.139.335-.5.613-.9.869-1.31,2.8-4.469,5.574-8.949,8.4-13.4a3.944,3.944,0,0,1,1.484-1.469c1.232-.574,2.318-.076,3.16,1.261,2.251,3.576,4.487,7.161,6.9,11.016m.071,10.565H234.627v4.444h36.925Zm-1.907-4.749L262.306,66.5l-7.321,11.74Zm-23.283-.032-4.852-7.276-4.848,7.276Z" transform="translate(-146.723 -25.133)"/>
          <rect id="Rectángulo_48667" data-name="Rectángulo 48667" width="41.381" height="4.483" transform="translate(85.894 97.168)"/>
          <rect id="Rectángulo_48668" data-name="Rectángulo 48668" width="41.396" height="4.44" transform="translate(85.644 85.672)"/>
          <rect id="Rectángulo_48669" data-name="Rectángulo 48669" width="41.375" height="4.44" transform="translate(85.675 108.733)"/>
          <rect id="Rectángulo_48670" data-name="Rectángulo 48670" width="27.619" height="4.438" transform="translate(92.532 74.046)"/>
          <rect id="Rectángulo_48671" data-name="Rectángulo 48671" width="4.466" height="4.423" transform="translate(94.876 120.34)"/>
          <rect id="Rectángulo_48672" data-name="Rectángulo 48672" width="4.422" height="4.477" transform="translate(104.126 120.311)"/>
          <rect id="Rectángulo_48673" data-name="Rectángulo 48673" width="4.389" height="4.486" transform="translate(113.374 120.33)"/>
          <path id="Trazado_150521" data-name="Trazado 150521" d="M85.894,296.022l-8.036.9-1.25-7.833c3.074,0,5.858-.015,8.642.03a.921.921,0,0,1,.616.655c.048,2.065.028,4.132.028,6.251" transform="translate(-48.887 -184.725)" fill="#a4c570"/>
          <path id="Trazado_150522" data-name="Trazado 150522" d="M85.914,262.5H76.647l1.044-7.735c2.664.268,5.114.5,7.557.787a.948.948,0,0,1,.637.655c.05,2.057.029,4.116.029,6.293" transform="translate(-48.912 -162.823)" fill="#a6c771"/>
          <path id="Trazado_150523" data-name="Trazado 150523" d="M124.43,289.332c-.4,2.631-.786,5.11-1.189,7.735l-7.931-.878v-6.857Z" transform="translate(-73.585 -184.883)" fill="#a6c771"/>
          <path id="Trazado_150524" data-name="Trazado 150524" d="M123.29,254.759c.346,2.58.682,5.089,1.033,7.714h-9.188c0-2.147-.02-4.283.034-6.416,0-.189.476-.5.756-.528,2.358-.276,4.723-.5,7.364-.77" transform="translate(-73.471 -162.82)" fill="#a7c972"/>
          <path id="Trazado_150525" data-name="Trazado 150525" d="M150.253,248.533l4.2-1.616a22.024,22.024,0,0,1,3.692,10.63c-2.094,0-4.11.038-6.121-.042-.287-.012-.746-.57-.795-.921-.366-2.618-.649-5.247-.979-8.051" transform="translate(-95.884 -157.816)" fill="#a7c872"/>
          <path id="Trazado_150526" data-name="Trazado 150526" d="M45.139,257.552a22.316,22.316,0,0,1,3.687-10.625l4.2,1.614c-.333,2.859-.64,5.617-1,8.368a.939.939,0,0,1-.664.614c-2.058.049-4.117.028-6.223.028" transform="translate(-28.805 -157.822)" fill="#a7c872"/>
          <path id="Trazado_150527" data-name="Trazado 150527" d="M158.108,289.053a21.546,21.546,0,0,1-3.477,9.758c-.189.287-.772.316-1.174.458-.034.012-.085-.023-.128-.038-3.359-1.105-3.329-1.1-2.694-4.629.27-1.5.333-3.045.607-4.548.069-.376.578-.941.907-.956,1.928-.091,3.863-.044,5.959-.044" transform="translate(-95.915 -184.697)" fill="#a6c771"/>
          <path id="Trazado_150528" data-name="Trazado 150528" d="M45.814,289.089c1.995,0,4.005-.026,6.013.035.237.007.615.472.665.77.41,2.432.792,4.872,1.084,7.32.042.351-.377.843-.706,1.126a3.538,3.538,0,0,1-1.129.411c-2.323.811-2.323.812-3.522-1.325-1.442-2.57-2.523-6.224-2.406-8.337" transform="translate(-29.23 -184.724)" fill="#a6c771"/>
          <path id="Trazado_150529" data-name="Trazado 150529" d="M90.391,228.364l-6.606-.726c1.475-3.429,3.1-6.484,6.606-8.386Z" transform="translate(-53.467 -140.162)" fill="#a3c370"/>
          <path id="Trazado_150530" data-name="Trazado 150530" d="M115.318,228.493v-9c3.481,1.809,4.992,4.894,6.585,8.275l-6.585.727" transform="translate(-73.59 -140.314)" fill="#a6c871"/>
          <path id="Trazado_150531" data-name="Trazado 150531" d="M90.847,329.549c-3.212-1.689-4.821-4.471-6.329-7.686l6.329-.646Z" transform="translate(-53.935 -205.23)" fill="#a2c36f"/>
          <path id="Trazado_150532" data-name="Trazado 150532" d="M115.368,321.438c1.243.079,2.4.123,3.56.236.839.082,1.67.253,2.657.409-1.414,3.1-3.025,5.813-6.217,7.572Z" transform="translate(-73.622 -205.371)" fill="#a6c771"/>
          <path id="Trazado_150533" data-name="Trazado 150533" d="M140.821,227.118l4.691,3.261a22.767,22.767,0,0,1-2.432.9c-.212.052-.643-.233-.766-.471-.591-1.147-1.111-2.332-1.657-3.5a1.237,1.237,0,0,0,.164-.189" transform="translate(-89.76 -145.181)" fill="#a2c36f"/>
          <path id="Trazado_150534" data-name="Trazado 150534" d="M68.517,227.351l-1.94,4.1-2.41-.79-.2-.413,4.357-3.106.192.208" transform="translate(-40.821 -145.197)" fill="#a2c36f"/>
          <path id="Trazado_150535" data-name="Trazado 150535" d="M68.989,330.309l-4.12-3.063c.7-.271,1.106-.394,1.481-.579.758-.374,1.211-.223,1.535.613.368.951.881,1.845,1.331,2.764l-.227.264" transform="translate(-41.396 -208.585)" fill="#a1c06e"/>
          <path id="Trazado_150536" data-name="Trazado 150536" d="M140.64,330.189c.252-.52.5-1.041.757-1.56,1.015-2.068,1.015-2.068,3.569-1.125l-4.157,2.88a1.294,1.294,0,0,0-.168-.2" transform="translate(-89.749 -208.855)" fill="#a1c06e"/>
          <path id="Trazado_150537" data-name="Trazado 150537" d="M76.009,227.143h.332l-.14.208-.192-.208" transform="translate(-48.505 -145.197)" fill="#a2c36f"/>
          <path id="Trazado_150538" data-name="Trazado 150538" d="M140.4,227.309l-.147-.181.31-.008a1.24,1.24,0,0,1-.164.188" transform="translate(-89.501 -145.183)" fill="#a2c36f"/>
          <path id="Trazado_150539" data-name="Trazado 150539" d="M140.556,336.189l-.312-.012.143-.184a1.3,1.3,0,0,1,.168.2" transform="translate(-89.496 -214.66)" fill="#a1c06e"/>
          <path id="Trazado_150540" data-name="Trazado 150540" d="M52.428,60.137c1.734.631,3.5,1.186,5.192,1.917a4.593,4.593,0,0,0,4.124-.192c10.058-4.855,20.15-9.637,30.2-14.5a2.52,2.52,0,0,1,2.831.123c.853.574,1.8,1.008,2.9,1.609l-4.7,2.348c-2.779,1.389-5.546,2.8-8.343,4.156a3.573,3.573,0,0,0-2.04,2.507c-.752,2.921-1.531,5.836-2.417,8.718a3.314,3.314,0,0,1-1.352,1.622,38.493,38.493,0,0,1-3.568,1.8c.158-2.389.262-4.53.457-6.664.1-1.147.038-2.185-1.005-2.882-1.062-.71-2.046-.3-3.034.256-3.372,1.908-6.778,3.757-10.132,5.7-1.838,1.062-3.789.424-5.687.546-.176.012-.444-.293-.552-.509-1.04-2.095-2.054-4.2-3.075-6.306l.2-.247" transform="translate(-33.327 -30.23)" fill="#f0c956"/>
          <path id="Trazado_150541" data-name="Trazado 150541" d="M83.093,41.664c1.689-.407,2.894-.722,4.114-.973a1.371,1.371,0,0,1,.874.192c2.637,1.537,5.26,3.1,8.069,4.758-1.958.938-3.756,1.824-5.584,2.644a1.066,1.066,0,0,1-.9-.27c-2.116-2.009-4.2-4.049-6.577-6.351" transform="translate(-53.026 -26.204)" fill="#edc855"/>
          <path id="Trazado_150542" data-name="Trazado 150542" d="M52.044,83.555l-.1-.26.306.014-.2.246" transform="translate(-33.147 -53.401)" fill="#f0c956"/>
          <path id="Trazado_150543" data-name="Trazado 150543" d="M279.787,80.772c-2.413-3.855-4.649-7.44-6.9-11.016-.842-1.337-1.928-1.835-3.16-1.261a3.946,3.946,0,0,0-1.484,1.469c-2.825,4.451-5.6,8.931-8.4,13.4-.256.409-.533.805-.869,1.31-2.315-3.471-4.535-6.808-6.763-10.139-1.487-2.223-3.292-2.236-4.765-.04-1.445,2.155-2.882,4.315-4.511,6.757V52.073h36.85Zm-20.92-10.328a6.911,6.911,0,1,0-6.728-7.022,6.92,6.92,0,0,0,6.728,7.022" transform="translate(-155.03 -33.477)" fill="#e6e6e6"/>
          <rect id="Rectángulo_48674" data-name="Rectángulo 48674" width="36.925" height="4.444" transform="translate(87.904 57.86)" fill="#e5e5e5"/>
          <path id="Trazado_150544" data-name="Trazado 150544" d="M313.849,126.751H299.19l7.321-11.74,7.339,11.74" transform="translate(-190.927 -73.64)" fill="#a7c972"/>
          <path id="Trazado_150545" data-name="Trazado 150545" d="M258.249,134.534h-9.7l4.848-7.276,4.852,7.276" transform="translate(-158.611 -81.456)" fill="#a6c871"/>
          <path id="Trazado_150546" data-name="Trazado 150546" d="M275.091,78.463a6.911,6.911,0,1,1,7.116-6.772,6.924,6.924,0,0,1-7.116,6.772m.226-9.151a2.252,2.252,0,1,0,2.218,2.355,2.224,2.224,0,0,0-2.218-2.355" transform="translate(-171.254 -41.495)"/>
          <path id="Trazado_150547" data-name="Trazado 150547" d="M283.552,77.554a2.252,2.252,0,1,1-2.285,2.154,2.226,2.226,0,0,1,2.285-2.154" transform="translate(-179.488 -49.737)" fill="#f1ca56"/>
        </g>
      </g>
    </g>
  </g>
</svg>
