<svg xmlns="http://www.w3.org/2000/svg" width="45" height="45" viewBox="0 0 45 45">
  <g id="_21" data-name="21" transform="translate(4886.802 6516.802)">
    <circle id="Elipse_4819" data-name="Elipse 4819" cx="22.5" cy="22.5" r="22.5" transform="translate(-4886.802 -6516.802)" fill="#4d793f"/>
    <g id="obediente" transform="translate(-4874.941 -6510.153)">
      <g id="Grupo_929191" data-name="Grupo 929191" transform="translate(0 0)">
        <path id="Trazado_638729" data-name="Trazado 638729" d="M138.387,185.279l-.959.959-.512-.512a.423.423,0,0,0-.6.6l.812.812a.423.423,0,0,0,.6,0l1.258-1.258a.423.423,0,1,0-.6-.6Z" transform="translate(-132.313 -174.71)" fill="#fff"/>
        <path id="Trazado_638730" data-name="Trazado 638730" d="M138.387,254.723l-.959.959-.512-.512a.423.423,0,1,0-.6.6l.812.812a.423.423,0,0,0,.6,0l1.258-1.258a.423.423,0,0,0-.6-.6Z" transform="translate(-132.313 -240.236)" fill="#fff"/>
        <path id="Trazado_638731" data-name="Trazado 638731" d="M202.673,278.986h6.058a.423.423,0,0,0,0-.846h-6.058a.423.423,0,0,0,0,.846Z" transform="translate(-194.643 -262.449)" fill="#fff"/>
        <path id="Trazado_638732" data-name="Trazado 638732" d="M138.387,324.166l-.959.959-.512-.512a.423.423,0,1,0-.6.6l.812.812a.423.423,0,0,0,.6,0l1.258-1.258a.423.423,0,0,0-.6-.6Z" transform="translate(-132.313 -305.762)" fill="#fff"/>
        <path id="Trazado_638733" data-name="Trazado 638733" d="M208.731,322.8h-6.058a.423.423,0,1,0,0,.846h6.058a.423.423,0,1,0,0-.846Z" transform="translate(-194.643 -304.59)" fill="#fff"/>
        <path id="Trazado_638734" data-name="Trazado 638734" d="M208.731,347.583h-6.058a.423.423,0,1,0,0,.846h6.058a.423.423,0,1,0,0-.846Z" transform="translate(-194.643 -327.975)" fill="#fff"/>
        <path id="Trazado_638735" data-name="Trazado 638735" d="M138.387,393.608l-.959.959-.512-.512a.423.423,0,0,0-.6.6l.812.812a.423.423,0,0,0,.6,0l1.258-1.258a.423.423,0,0,0-.6-.6Z" transform="translate(-132.313 -371.286)" fill="#fff"/>
        <path id="Trazado_638736" data-name="Trazado 638736" d="M208.731,392.243h-6.058a.423.423,0,0,0,0,.846h6.058a.423.423,0,0,0,0-.846Z" transform="translate(-194.643 -370.115)" fill="#fff"/>
        <path id="Trazado_638737" data-name="Trazado 638737" d="M209.155,417.448a.423.423,0,0,0-.423-.423h-6.058a.423.423,0,0,0,0,.846h6.058A.423.423,0,0,0,209.155,417.448Z" transform="translate(-194.643 -393.499)" fill="#fff"/>
        <path id="Trazado_638738" data-name="Trazado 638738" d="M88.354,13.013a.423.423,0,0,0-.5.321,3.243,3.243,0,1,1-.094-1.747.423.423,0,1,0,.8-.272A4.088,4.088,0,0,0,85.8,8.695V5.88a.706.706,0,0,0-.705-.705H81.448a.705.705,0,0,0-.7-.666H77.927V3.666a2.073,2.073,0,1,0-2.648,0v.843H72.461a.705.705,0,0,0-.7.666H68.112a.706.706,0,0,0-.705.705v22.3a.706.706,0,0,0,.705.705H85.094a.706.706,0,0,0,.705-.705V20.956l.079.062a.592.592,0,0,0,.956-.467V16.108a4.059,4.059,0,0,0,.425-.3,4.106,4.106,0,0,0,1.415-2.287A.423.423,0,0,0,88.354,13.013Zm-3.4-4.463c-.089-.006-.179-.01-.269-.01-.118,0-.234.006-.35.016V7.232a.593.593,0,0,0-.592-.592H81.45V6.021h3.5ZM76.6.846a1.226,1.226,0,1,1-1.226,1.226A1.228,1.228,0,0,1,76.6.846Zm-.478,3.243a2.059,2.059,0,0,0,.955,0v.42h-.955v-.42Zm8.827,23.949h-16.7V6.021h3.5V6.64H69.464a.593.593,0,0,0-.592.592V26.826a.593.593,0,0,0,.592.592H79.782a.423.423,0,1,0,0-.846H69.718V7.486h2.038v.176a.706.706,0,0,0,.705.705h1.51a.423.423,0,1,0,0-.846H72.6V5.355h8V7.521H75.946a.423.423,0,1,0,0,.846h4.8a.706.706,0,0,0,.705-.705V7.486h2.038V8.719a4.106,4.106,0,0,0-2.214,1.656H75.437a.423.423,0,1,0,0,.846h5.407a4.054,4.054,0,0,0-.159.552H75.437a.423.423,0,1,0,0,.846h5.157s0,.007,0,.01a4.064,4.064,0,0,0,.355,1.663H75.437a.423.423,0,1,0,0,.846h6.021a4.12,4.12,0,0,0,1.075.967v4.445a.592.592,0,0,0,.955.468v5.554H81.757a.423.423,0,1,0,0,.846h1.985a.593.593,0,0,0,.592-.592V20.36l.35-.272.269.21v7.74Zm1.036-8.006-.941-.733a.592.592,0,0,0-.728,0l-.941.733V16.5a4.067,4.067,0,0,0,2.61,0Z" transform="translate(-67.407 0)" fill="#fff"/>
        <path id="Trazado_638739" data-name="Trazado 638739" d="M344.627,202.042l-1.569,1.569-.906-.906a.423.423,0,1,0-.6.6l1.205,1.205a.423.423,0,0,0,.6,0l1.868-1.868a.423.423,0,1,0-.6-.6Z" transform="translate(-325.971 -190.527)" fill="#fff"/>
        <path id="Trazado_638740" data-name="Trazado 638740" d="M192.059,107.045a.423.423,0,0,0-.423-.423H187.6a.423.423,0,0,0,0,.846h4.032A.423.423,0,0,0,192.059,107.045Z" transform="translate(-180.424 -100.607)" fill="#fff"/>
      </g>
    </g>
  </g>
</svg>
