<svg xmlns="http://www.w3.org/2000/svg" xmlns:xlink="http://www.w3.org/1999/xlink" width="70" height="70" viewBox="0 0 70 70">
  <defs>
    <linearGradient id="linear-gradient" x1="0.109" y1="-0.027" x2="0.83" y2="0.804" gradientUnits="objectBoundingBox">
      <stop offset="0" stop-color="#1d1d1b"/>
      <stop offset="0.369" stop-color="#1d1d1b" stop-opacity="0.855"/>
      <stop offset="0.75" stop-color="#1d1d1b" stop-opacity="0.427"/>
      <stop offset="1" stop-color="#1d1d1b" stop-opacity="0"/>
    </linearGradient>
  </defs>
  <g id="_25" data-name="25" transform="translate(-5.682 -5.788)">
    <circle id="Elipse_5377" data-name="Elipse 5377" cx="35" cy="35" r="35" transform="translate(5.682 5.788)" fill="red"/>
    <path id="Trazado_684182" data-name="Trazado 684182" d="M135.169,147.1l-12.12-12.12a6.206,6.206,0,0,0-3.806-1.85,166.109,166.109,0,0,0-18.836-.714,165.311,165.311,0,0,0-18.836.714,6.344,6.344,0,0,0-5.46,4.821,50.346,50.346,0,0,0-.91,11.7,49.968,49.968,0,0,0,.91,11.7,6.455,6.455,0,0,0,1.655,2.972L97.86,184.407q1.262.091,2.547.093a34.855,34.855,0,0,0,34.855-34.855q0-1.285-.093-2.547Z" transform="translate(-59.643 -108.882)" opacity="0.49" fill="url(#linear-gradient)"/>
    <path id="Trazado_684183" data-name="Trazado 684183" d="M124.713,137.95a6.344,6.344,0,0,0-5.46-4.821,166.11,166.11,0,0,0-18.837-.714,165.289,165.289,0,0,0-18.836.714,6.344,6.344,0,0,0-5.46,4.821,50.346,50.346,0,0,0-.91,11.7,49.967,49.967,0,0,0,.91,11.7,6.344,6.344,0,0,0,5.46,4.821,166.1,166.1,0,0,0,18.836.714,165.321,165.321,0,0,0,18.837-.714,6.344,6.344,0,0,0,5.46-4.821,50.346,50.346,0,0,0,.91-11.7A50.347,50.347,0,0,0,124.713,137.95ZM109.38,149.782l-14.025,7.012a.7.7,0,0,1-1.015-.627V142.142a.7.7,0,0,1,1.015-.627l14.024,7.013a.7.7,0,0,1,0,1.254Z" transform="translate(-59.652 -108.882)" fill="#fff"/>
  </g>
</svg>
