<svg xmlns="http://www.w3.org/2000/svg" xmlns:xlink="http://www.w3.org/1999/xlink" width="248" height="245" viewBox="0 0 248 245">
  <defs>
    <filter id="Rectángulo_335074" x="0" y="0" width="248" height="245" filterUnits="userSpaceOnUse">
      <feOffset dy="3" input="SourceAlpha"/>
      <feGaussianBlur stdDeviation="3" result="blur"/>
      <feFlood flood-opacity="0.161"/>
      <feComposite operator="in" in2="blur"/>
      <feComposite in="SourceGraphic"/>
    </filter>
  </defs>
  <g id="_3" data-name="3" transform="translate(-676 -836)">
    <g transform="matrix(1, 0, 0, 1, 676, 836)" filter="url(#Rectángulo_335074)">
      <rect id="Rectángulo_335074-2" data-name="Rectángulo 335074" width="230" height="227" rx="26" transform="translate(9 6)" fill="#fff"/>
    </g>
    <g id="Grupo_736189" data-name="Grupo 736189" transform="translate(1 -698)">
      <rect id="Rectángulo_335071" data-name="Rectángulo 335071" width="192" height="192" transform="translate(704 1561)" fill="none"/>
      <g id="Grupo_736183" data-name="Grupo 736183" transform="translate(720.267 1573.336)">
        <g id="Grupo_213544" data-name="Grupo 213544" transform="translate(5.975 6.664)">
          <path id="Trazado_150549" data-name="Trazado 150549" d="M15.713,93.338a24.372,24.372,0,0,1,.032-3.676,7.119,7.119,0,0,1,3.836-5.291c.367-.2.834-.669.838-1.019.056-4.71.037-9.421.037-14.282-1.63,0-3.125.019-4.619,0a4.822,4.822,0,0,1-5.027-5.038c-.021-1.508-.028-3.016,0-4.524a4.765,4.765,0,0,1,4.85-4.9q26.541-.035,53.083,0a4.746,4.746,0,0,1,4.794,4.8q.065,2.411,0,4.825a4.814,4.814,0,0,1-4.927,4.83c-1.5.03-3,.005-4.715.005v3.937c0,3.317-.018,6.635.023,9.951a1.6,1.6,0,0,0,.511,1.217c3.269,1.68,4.5,4.412,4.3,7.948a9.031,9.031,0,0,0,.014.9,1.844,1.844,0,0,0,.067.308,28.457,28.457,0,0,1,3.025,1.234c4.135,2.247,6.486,5.763,6.505,10.462q.12,29.176,0,58.353c-.026,5.306-2.957,8.9-7.842,11.123,1.336,3.71.658,6.95-2.731,9.214a6.622,6.622,0,0,1-7.672.039c-3.086-1.979-3.936-4.9-3.115-8.454H27.414c.815,3.88-.236,7.01-3.858,8.847a6.615,6.615,0,0,1-7.505-.81c-2.91-2.324-3.478-5.362-2.154-8.847-3.257-1.38-5.772-3.506-6.962-6.788a15.511,15.511,0,0,1-.916-5.136c-.063-18.647-.039-37.293-.039-55.94,0-7.077,2.8-10.954,9.734-13.293M73.55,160.729v-1.59q0-26.535,0-53.069c0-5.128-2.911-8.041-8.032-8.043q-23.3,0-46.592,0c-5.23,0-8.118,2.884-8.119,8.106q0,26.459,0,52.918v1.6h4.827V158.9c0-8.091-.08-16.183.068-24.272a9.535,9.535,0,0,1,1.495-4.747,6.846,6.846,0,0,1,8.03-2.509A7.226,7.226,0,0,1,30.1,134.3c.027,8.242.01,16.483.01,24.725v1.643h4.827v-1.734c0-8.041-.017-16.082.021-24.122a9.708,9.708,0,0,1,.473-3.1,7.206,7.206,0,0,1,13.974,2.556c.034,8.292.012,16.584.013,24.876v1.532h4.826v-1.715c0-8.192-.013-16.383.008-24.574a7.233,7.233,0,1,1,14.461,0c.038,8.242.011,16.483.011,24.725v1.616Zm-.662,4.946H11.469a6.807,6.807,0,0,0,6.806,4.734q16.209.021,32.42.006c5.177,0,10.354.02,15.531-.008a6.794,6.794,0,0,0,6.663-4.732M68.653,59.521h-52.9v4.648h52.9Zm-19.3,9.657H35.059V83.468H49.352ZM63.776,93.144c.433-3.348.039-4.881-4.1-4.813-8.585.143-17.174.043-25.762.043-3.465,0-6.93-.008-10.395,0-2.24.007-3.048.84-3.062,3.114,0,.533,0,1.066,0,1.653Zm-38.63,67.549a1.894,1.894,0,0,0,.118-.392q.013-12.947.008-25.893a2.411,2.411,0,1,0-4.8.067q-.016,12.947.021,25.893c0,.086.077.172.149.326Zm19.446.01c0-6.263,0-12.378,0-18.494,0-2.66.035-5.32-.022-7.979a2.357,2.357,0,0,0-2.378-2.411,2.416,2.416,0,0,0-2.416,2.383c-.021.249-.01.5-.01.752q0,12.27,0,24.539c0,.386.046.771.073,1.209Zm19.306,0c0-6.161,0-12.176,0-18.191,0-2.76.034-5.521-.022-8.28a2.356,2.356,0,0,0-2.376-2.412,2.415,2.415,0,0,0-2.418,2.382c-.021.249-.01.5-.01.752q0,12.27,0,24.539c0,.386.044.771.071,1.21ZM25.392,83.426h4.64V69.138h-4.64Zm28.911.049h4.684v-14.3H54.3ZM22.859,177.7a2.4,2.4,0,1,0-2.444,2.359,2.427,2.427,0,0,0,2.444-2.359m40.977-2.444a2.4,2.4,0,1,0,2.462,2.34,2.426,2.426,0,0,0-2.462-2.34" transform="translate(-5.975 -35.28)"/>
          <path id="Trazado_150550" data-name="Trazado 150550" d="M212.17,103.324c-1.709-.138-3.226-.137-4.695-.4a11.645,11.645,0,0,1-9.7-10.831c-.162-6.523-.025-13.061.248-19.581.1-2.366.986-4.694,1.465-7.05a20.22,20.22,0,0,0,.585-3.818c.055-7.538.025-15.077.027-22.615,0-7.99,4.985-13.016,12.933-13.049.447,0,.894,0,1.472,0,.294-6.552,2.906-11.865,8.216-15.708a18.571,18.571,0,0,1,12.644-3.543c9.246.712,17.483,8.144,17.888,19.334a28.629,28.629,0,0,1,3.838.025A12.007,12.007,0,0,1,267.667,38.22c.036,7.237.045,14.474-.011,21.711a28.132,28.132,0,0,0,.919,6.8,56.082,56.082,0,0,1,1.454,9.938c.24,4.51.064,9.043.06,13.566-.007,7.865-5.043,12.931-12.876,12.959-.452,0-.9,0-1.6,0v1.769c0,13.067.033,26.133-.016,39.2a12.042,12.042,0,0,1-12.65,12.1c-3.277-.135-5.971-1.539-9.262-4.99a5.2,5.2,0,0,1-.591,1.04,12.021,12.021,0,0,1-20.908-8.1c-.032-13.016-.012-26.033-.012-39.049v-1.838M250.783,81.47c-1.781,0-3.381.035-4.98-.007a7.037,7.037,0,0,1-6.825-5.545,20.751,20.751,0,0,1-.251-4.192c-.029-4.259-.01-8.518-.01-12.966a12.319,12.319,0,0,1-9.653-.009c0,5.122.01,10.041,0,14.961-.012,4.723-3.017,7.738-7.715,7.762-1.434.007-2.868,0-4.348,0v2.041q0,28.123,0,56.247c0,1.608-.053,3.219.022,4.825a7.237,7.237,0,0,0,14.453-.792q.013-25.409,0-50.818V91.241H236.3v1.915q0,23,0,45.993c0,1.759-.042,3.52.015,5.277a7.238,7.238,0,1,0,14.461-.621q.011-30.536,0-61.072ZM219.415,25.93A14.475,14.475,0,1,0,233.934,11.5,14.519,14.519,0,0,0,219.415,25.93M209.757,57.1a28.832,28.832,0,0,0-7.208,18.656c-.115,4.817-.032,9.638-.031,14.457,0,5.752,3.755,8.9,9.582,7.987a4.521,4.521,0,0,0,.064-.554c0-5.723.019-11.446-.018-17.168a2.486,2.486,0,0,0-.555-1.45,7.772,7.772,0,0,1-1.842-5.272c.035-2.66.008-5.321.008-7.982V57.1m48.266-.441v1.938c0,5.12-.008,10.241,0,15.361a7.908,7.908,0,0,1-1.67,4.883,3.642,3.642,0,0,0-.715,1.991c-.057,5.371-.033,10.742-.029,16.114,0,.436.046.872.075,1.389,1.085,0,2.086.079,3.07-.015a7.03,7.03,0,0,0,6.444-6.656c.051-6.419.136-12.86-.32-19.255-.411-5.767-2.925-10.871-6.859-15.75M221.233,47.78c-1.9,1.179-4.03,2.466-6.106,3.841a1.72,1.72,0,0,0-.521,1.266q-.047,10.539-.012,21.078c.006,1.76.942,2.641,2.732,2.677,1.355.027,2.711.022,4.066,0,1.953-.029,2.834-.9,2.839-2.879q.023-8.958-.007-17.917a4.038,4.038,0,0,0-.3-1.425c-.832-2.116-1.7-4.216-2.688-6.643m25.3,0c-.983,2.418-1.863,4.561-2.72,6.713a3.194,3.194,0,0,0-.259,1.137q-.024,9.183,0,18.367a2.4,2.4,0,0,0,2.612,2.641c1.454.039,2.911.037,4.366,0a2.437,2.437,0,0,0,2.655-2.755q.028-10.463-.011-20.926a1.762,1.762,0,0,0-.467-1.294c-2.112-1.4-4.286-2.71-6.176-3.885m-23.343-5.722a19.945,19.945,0,0,1-7.21-8.991c-.9-2.29-.915-2.285-3.46-2.265a7.234,7.234,0,0,0-7.584,7.56c-.02,5.066-.007,10.132,0,15.2,0,.346.07.693.133,1.262a36.972,36.972,0,0,1,18.121-12.765m39.623,12.893c0-6.161.159-11.93-.064-17.684a6.476,6.476,0,0,0-5.04-6.1,22.909,22.909,0,0,0-4.024-.374c-.855-.091-1.124.306-1.488,1.054a65.438,65.438,0,0,1-3.616,6.547,42.271,42.271,0,0,1-3.157,3.931,36.513,36.513,0,0,1,17.388,12.625m-36.1-8.78c-.326,3.28.606,5.9,3.352,7.625a6.757,6.757,0,0,0,7.657-.01c2.744-1.734,3.662-4.356,3.341-7.6a29.221,29.221,0,0,0-14.351-.016" transform="translate(-120.462 -6.664)"/>
          <path id="Trazado_150552" data-name="Trazado 150552" d="M81.032,330.311a6.8,6.8,0,0,1-6.663,4.732c-5.177.028-10.354.008-15.531.008q-16.209,0-32.419-.005a6.807,6.807,0,0,1-6.806-4.735Z" transform="translate(-14.118 -199.917)" fill="#ffb338"/>
          <rect id="Rectángulo_48675" data-name="Rectángulo 48675" width="52.9" height="4.648" transform="translate(9.778 24.241)" fill="#ffb338"/>
          <path id="Trazado_150554" data-name="Trazado 150554" d="M46.622,275.153H42.116c-.073-.153-.149-.239-.149-.325q-.021-12.947-.021-25.893a2.411,2.411,0,1,1,4.8-.067q.026,12.946-.008,25.893a1.853,1.853,0,0,1-.118.392" transform="translate(-27.452 -149.74)" fill="#ffb338"/>
          <path id="Trazado_150555" data-name="Trazado 150555" d="M94.667,275.163h-4.75c-.028-.438-.073-.824-.073-1.209q-.006-12.27,0-24.539c0-.251-.011-.5.01-.752a2.416,2.416,0,0,1,2.417-2.384,2.356,2.356,0,0,1,2.378,2.411c.057,2.659.021,5.319.022,7.979,0,6.116,0,12.232,0,18.494" transform="translate(-56.05 -149.74)" fill="#ffb338"/>
          <path id="Trazado_150556" data-name="Trazado 150556" d="M142.586,275.163h-4.752c-.027-.439-.071-.825-.071-1.21q-.006-12.27,0-24.539c0-.251-.011-.5.01-.753a2.415,2.415,0,0,1,2.418-2.382,2.356,2.356,0,0,1,2.377,2.413c.056,2.759.021,5.52.021,8.279,0,6.016,0,12.031,0,18.191" transform="translate(-84.663 -149.741)" fill="#ffb338"/>
          <rect id="Rectángulo_48677" data-name="Rectángulo 48677" width="4.64" height="14.288" transform="translate(19.417 33.858)" fill="#ffb338"/>
          <rect id="Rectángulo_48678" data-name="Rectángulo 48678" width="4.684" height="14.303" transform="translate(48.328 33.891)" fill="#ffb338"/>
          <path id="Trazado_150563" data-name="Trazado 150563" d="M246.234,108.716c.987,2.427,1.856,4.528,2.688,6.643a4.046,4.046,0,0,1,.3,1.425q.03,8.959.007,17.917c-.005,1.975-.886,2.85-2.839,2.879-1.355.021-2.711.026-4.066,0-1.79-.036-2.726-.917-2.732-2.677q-.034-10.539.012-21.078a1.719,1.719,0,0,1,.521-1.266c2.076-1.375,4.211-2.662,6.106-3.841" transform="translate(-145.463 -67.6)" fill="#ffb338"/>
          <path id="Trazado_150564" data-name="Trazado 150564" d="M314.454,108.717c1.89,1.174,4.064,2.483,6.176,3.885a1.764,1.764,0,0,1,.467,1.294q.042,10.463.012,20.926a2.437,2.437,0,0,1-2.655,2.755c-1.455.035-2.912.037-4.366,0a2.4,2.4,0,0,1-2.612-2.641q-.038-9.183,0-18.367a3.2,3.2,0,0,1,.259-1.138c.857-2.152,1.736-4.294,2.72-6.713" transform="translate(-188.383 -67.601)" fill="#ffb338"/>
          <path id="Trazado_150565" data-name="Trazado 150565" d="M233.882,77.828a36.969,36.969,0,0,0-18.121,12.766c-.062-.569-.132-.916-.133-1.262-.007-5.066-.02-10.133,0-15.2a7.234,7.234,0,0,1,7.584-7.559c2.545-.021,2.558-.026,3.46,2.264a19.942,19.942,0,0,0,7.21,8.991" transform="translate(-131.154 -42.434)" fill="#ffb338"/>
          <path id="Trazado_150566" data-name="Trazado 150566" d="M333.529,90.693a36.513,36.513,0,0,0-17.388-12.625,42.2,42.2,0,0,0,3.156-3.931,65.367,65.367,0,0,0,3.617-6.547c.364-.749.633-1.145,1.487-1.054a22.9,22.9,0,0,1,4.024.374,6.476,6.476,0,0,1,5.04,6.1c.224,5.754.064,11.523.064,17.684" transform="translate(-191.178 -42.406)" fill="#ffb338"/>
          <path id="Trazado_150568" data-name="Trazado 150568" d="M56.325,193.665q-9.195,0-18.39,0c-5.087,0-8-2.943-8-8.07,0-1.357-.025-2.713.008-4.069a7.153,7.153,0,0,1,7.092-7.142q19.445-.069,38.891,0a7.151,7.151,0,0,1,7.091,7.142c.038,1.607.03,3.216,0,4.823a7.21,7.21,0,0,1-7.4,7.308c-6.431.031-12.863.008-19.295.008m.166-14.477c-6.284,0-12.568-.009-18.851.005-1.98,0-2.848.882-2.877,2.845q-.029,1.96,0,3.921c.027,1.976.888,2.857,2.85,2.875,2.463.022,4.926.006,7.389.006q15.081,0,30.162,0c2.172,0,3.01-.846,3.031-3,.012-1.156.007-2.312,0-3.468-.011-2.373-.8-3.176-3.155-3.178q-9.275-.009-18.55,0" transform="translate(-20.274 -106.791)"/>
          <path id="Trazado_150569" data-name="Trazado 150569" d="M63.643,186.356q9.275,0,18.55,0c2.356,0,3.144.8,3.155,3.178.006,1.156.01,2.312,0,3.468-.021,2.153-.859,3-3.031,3q-15.081.011-30.162,0c-2.463,0-4.927.017-7.389-.006-1.962-.018-2.823-.9-2.85-2.875q-.027-1.96,0-3.92c.029-1.963.9-2.84,2.877-2.845,6.283-.014,12.567-.006,18.851-.006" transform="translate(-27.426 -113.958)" fill="#ffb338"/>
        </g>
      </g>
    </g>
  </g>
</svg>
