<svg xmlns="http://www.w3.org/2000/svg" width="505" height="478.293" viewBox="0 0 505 478.293">
  <g id="_34" data-name="34" transform="translate(-14.65 -27.097)">
    <g id="BACKGROUND" transform="translate(14.65 42.076)">
      <g id="Grupo_945253" data-name="Grupo 945253" transform="translate(0 0)">
        <path id="Trazado_684500" data-name="Trazado 684500" d="M269.753,94.021c-13.185,1.3-27.051-.652-39.879-4.026-27.788-7.311-56.106-19.626-83.911-12.411-9.16,2.377-18.193,7.067-24.679,15.35s-10.014,20.586-7.412,31.619c3.494,14.812,16.572,23.88,20.152,38.66,3.7,15.288-4.261,31.671-14.83,40.961S95.759,217.728,83.84,224.1c-27.648,14.785-51.132,42.411-62.26,77.071-11.086,34.531-9.022,75.6,7.269,106.877,3.393,6.516,8.685,13.289,14.937,19.929a154.3,154.3,0,0,0,111.642,48.831l168.029.93c56.795.216,77.891,11.621,121.334-2.358,26.2-8.432,52.982-23.823,66.431-52.669,17.746-38.062,5.728-89.11-19.829-119.767-14.792-17.742-33.36-30.215-48.047-48.086s-25.412-44.48-18.542-68.417c4.983-17.364,18.037-29.427,24.645-45.954,9.413-23.543,3.627-53.646-11.137-72.606s-36.953-27.5-58.321-26.781-42.038,9.87-61,21.981C302.749,73.455,288.9,92.13,269.753,94.021" transform="translate(-14.65 -41.058)" fill="#f5e0bd" opacity="0.45"/>
        <g id="Grupo_945252" data-name="Grupo 945252" transform="translate(15.442 36.341)">
          <g id="Grupo_945246" data-name="Grupo 945246" transform="translate(295.012 172.989)">
            <path id="Trazado_684501" data-name="Trazado 684501" d="M335.569,393.782c-6.43.158-14.648.3-21.05.1-8.343-.261-11.318,3.558-10.316,11.715,1.236,10.07,8.884,21,15.7,28.306,2.411,2.582,3.074,2.795,5.563-.288,1.838-2.276,3.2-4.654,5.22-6.819,3.9-4.181,7.622-7.474,13.149-9.124,8.716-2.6,3.432,4.952-.383,7.386a48.644,48.644,0,0,0-12.01,10.56c-5.737,7.242,26.573,14.857,33.317,13.407-1.108-4.194,2.371-15.23,7.1-16.934,4.16-1.5,2.44,2.357,1.321,4.627-1.291,2.616-2.73,4.911-2.847,7.818-.475,11.892,26.619.608,31.992-1.871,7.069-3.263,10.942-1.531,16.795,2.66.1-8.44.175-20.659-6.718-26.467-3.342-2.815-8.183-2.653-12.28-2.98-2.821-.225-11.363-1.9-4.476-3.988,4.81-1.458,10.03.88,14.911-.738-.046-3.72-3.117-12.857-6.712-14.56-4.305-2.04-11.027,4.282-15.279,4.965.842-6.435,9.255-6.947,13.795-9.217-2.116-7.245-8.572-19.154-16.192-22.368-11.111-4.685-11.82,13.872-11.62,17.2.148,2.45.12,6.657-2.429,2.836-2.235-3.352-.924-13.048.058-16.892.48-1.878,3.486-5.953,2.881-7.83-.691-2.14-33.592-10.3-42.642-4.36C323.011,367.1,329.268,387.161,335.569,393.782Z" transform="translate(-304.017 -227.235)" fill="#f19e99"/>
            <g id="Grupo_945244" data-name="Grupo 945244" transform="translate(30.763)">
              <g id="Grupo_945243" data-name="Grupo 945243">
                <g id="Grupo_945242" data-name="Grupo 945242" transform="translate(3.647 8.946)">
                  <path id="Trazado_684502" data-name="Trazado 684502" d="M438.713,247.825c-11.1,8.844-23.091,15.822-32.767,26.4a301.868,301.868,0,0,0-25.8,32.458c-7.2,10.452-13.849,21.239-21.1,31.667-8.46,12.174-13.04,25.181-19.394,38.383-1.019,2.118-4.4.727-3.382-1.4,5.76-11.968,9.794-24.192,17.213-35.339,7.881-11.84,15.689-23.824,23.749-35.533a298.4,298.4,0,0,1,26.943-33.7c9.534-10.266,21.443-17.184,32.314-25.848,1.842-1.469,4.055,1.445,2.214,2.913Z" transform="translate(-336.09 -244.51)" fill="#f19e99"/>
                </g>
                <path id="Trazado_684503" data-name="Trazado 684503" d="M430.058,247.525c2.339-2.038,7.263-3.1,10.105-1.726,3.328,1.606,1.692,4.671-.939,6.079-2.928,1.566-6.5,1.39-9.706,1.741-3.324.363-6.5,2.111-9.757,2.006,1.364-1.971,4.529-3.892,6.542-5.136,2.144-1.323,3.937-3.134,6.025-4.463" transform="translate(-326.345 -235.514)" fill="#f19e99"/>
                <path id="Trazado_684504" data-name="Trazado 684504" d="M424.961,252.3c4.275-3.186,11.527-4.853,13.429-10.568,1.246-3.74-.386-6.272-4.408-5.387-3.052.673-4.858,3.393-6.119,6.015A62.969,62.969,0,0,0,423.52,253.4" transform="translate(-326.071 -236.171)" fill="#f19e99"/>
                <path id="Trazado_684505" data-name="Trazado 684505" d="M413.367,259.184c.014-6.1-.159-13.794,4.171-18.811,2.7-3.127,4.623.756,4.523,3.34-.226,5.892-4.008,12.009-7.832,16.281Z" transform="translate(-326.811 -235.95)" fill="#f19e99"/>
                <path id="Trazado_684506" data-name="Trazado 684506" d="M403.338,268.083c-1.13-7.364-2.784-16.616,1.5-23.483,2.669-4.281,5.719.045,6.085,3.181.834,7.152-2.581,15.243-6.393,21.117Z" transform="translate(-327.635 -235.687)" fill="#f19e99"/>
                <path id="Trazado_684507" data-name="Trazado 684507" d="M383.542,291.44c-2.4-7.054-5.641-15.874-2.624-23.384,1.881-4.681,5.64-.955,6.548,2.07,2.07,6.9.121,15.459-2.606,21.908Z" transform="translate(-329.265 -234.009)" fill="#f19e99"/>
                <path id="Trazado_684508" data-name="Trazado 684508" d="M368.917,313.526c-4.949-7.284-11.416-16.315-10.337-25.822.673-5.924,6.126-2.86,8.111.3,4.525,7.209,5,17.579,3.914,25.785Z" transform="translate(-330.812 -232.661)" fill="#f19e99"/>
                <path id="Trazado_684509" data-name="Trazado 684509" d="M389.593,282.77c-.145-8.583-.592-19.407,5.331-26.454,3.693-4.392,6.488,1.076,6.418,4.711-.159,8.289-5.286,16.884-10.521,22.884Z" transform="translate(-328.549 -234.822)" fill="#f19e99"/>
                <path id="Trazado_684510" data-name="Trazado 684510" d="M415.245,260.566c5.881,1.619,13.248,3.844,19.241,1.014,3.735-1.764.507-4.656-2.008-5.252-5.738-1.358-12.643.649-17.782,3.19Z" transform="translate(-326.714 -234.734)" fill="#f19e99"/>
                <path id="Trazado_684511" data-name="Trazado 684511" d="M391.518,279.441c6.939-.131,15.7-.079,21.32-5.1,3.507-3.13-.947-5.244-3.885-5.082-6.7.369-13.585,4.786-18.373,9.216Z" transform="translate(-328.472 -233.76)" fill="#f19e99"/>
                <path id="Trazado_684512" data-name="Trazado 684512" d="M382.026,296.783c7.441-.139,16.828-.085,22.86-5.467,3.759-3.356-1.016-5.623-4.165-5.45-7.182.4-14.566,5.133-19.7,9.882Z" transform="translate(-329.168 -232.55)" fill="#f19e99"/>
                <path id="Trazado_684513" data-name="Trazado 684513" d="M371.263,312.3c9.81-.562,22.174-.958,30.391-8.522,5.121-4.714-1.058-7.533-5.215-7.142-9.481.894-19.447,7.652-26.448,14.317Z" transform="translate(-329.972 -231.767)" fill="#f19e99"/>
                <path id="Trazado_684514" data-name="Trazado 684514" d="M376.81,302.493c-2.919-3.875-6.461-6.944-8.1-11.633a16.694,16.694,0,0,1,.9-12.265c.747-1.711,1.417-3.892,3.3-4.729,2.641-1.173,2.4,2.116,2.446,4.064a115.672,115.672,0,0,0,.954,12.454c.3,2.259.5,4.387.592,6.595.059,1.458.9,4.134.6,5.221" transform="translate(-330.123 -233.442)" fill="#f19e99"/>
                <path id="Trazado_684515" data-name="Trazado 684515" d="M391.328,311.4c-5.067,1.647-20.979,8.342-27.262,10.383-1.08,1.6-2.2,3.186-3.328,4.781,11.062-.711,28.53-4.361,32.677-6.825,1.79-1.062,5.283-3.993,5.36-6.188C398.911,309.588,393.54,310.683,391.328,311.4Z" transform="translate(-330.646 -230.74)" fill="#f19e99"/>
                <path id="Trazado_684516" data-name="Trazado 684516" d="M385.673,339c-6.528.546-27.456,4.088-35.551,4.766-1.743,1.614-3.525,3.2-5.328,4.787,13.442,2.258,35.377,2.8,41.034,1.016,2.441-.768,7.446-3.295,8.155-5.9C395.261,338.966,388.524,338.767,385.673,339Z" transform="translate(-331.808 -228.682)" fill="#f19e99"/>
                <path id="Trazado_684517" data-name="Trazado 684517" d="M358.794,330.315c-1.668-2.478-11.184-8.432-12.8-24.306-.23-2.252-.329-5.27,1.674-6.794,2.78-2.116,4.1,1.326,4.883,3.523,1.532,4.335,6.165,21.181,7.861,25.215" transform="translate(-331.73 -231.625)" fill="#f19e99"/>
                <path id="Trazado_684518" data-name="Trazado 684518" d="M352.34,338.545c3.354-.074,7.023.884,10.532.916,3.763.033,23.737-2.652,29.345-5.75,2.434-1.344,7.564-2.73,7.178-6.242-.373-3.391-4.884-4.169-7.65-4.214-6.422-.1-33.345,10.41-39.883,14.062" transform="translate(-331.293 -229.825)" fill="#f19e99"/>
                <path id="Trazado_684519" data-name="Trazado 684519" d="M351.542,341.549c-10.394-7.991-19.856-28.289-18.767-30.984,2.362-5.848,9.437-.086,11.487,3.15,4.6,7.257,8.476,26.5,7.239,27.183" transform="translate(-332.69 -230.933)" fill="#f19e99"/>
              </g>
            </g>
            <g id="Grupo_945245" data-name="Grupo 945245" transform="translate(4.909 93.128)">
              <path id="Trazado_684520" data-name="Trazado 684520" d="M419.135,393.382c1.5-13.934,10.131-3.99,14.467,3.374,3.507,5.956,10.7,21.289,19.966,11.871,9.707-9.865-6.221-12.7-9.254-17.729-6.777-11.237,11.821-2.571,16.686-.614,6.667,2.681,20.353,8.409,19.431-2.853-.746-9.109-15.239-14.945-22.232-16.971-4.985-1.445-26.831-2.484-24.084-10.246,2.081-5.877,23.646-6.016,6.077-14.136-7.143-3.3-16.377-.046-23.669-.468-10.68-.617-15.114-.895-14.876-10.294.122-4.871,5.766-6.507.464-11.088-2.73-2.358-12.048-.827-15.2.026-28.952,7.83-45.341,24.524-46.411,30.652-1.448,8.3,7.058,20.779,12.358,26.159,2.635,2.676,7.13,7.637,11.611,6.029,5.026-1.8,2.2-9.555,5.149-10.642,8.352-3.083,4.3,14.832,6.665,18.878,3.065,5.24,15.624,11.958,19.414,4.624.389-.753-4.288-25.868,7.256-13.826,6.391,6.668-3.469,18.2,7.064,23.486C425.173,417.226,418.573,398.606,419.135,393.382Z" transform="translate(-306.28 -322.974)" fill="#91d3d8"/>
              <path id="Trazado_684521" data-name="Trazado 684521" d="M416.333,391.5c.872-6.047,1.471-12.218.421-18.279,6.3,2.8,12.611,5.821,19.228,7.478,1.866.467,2.294-2.494.441-2.959-.808-.2-1.605-.453-2.405-.69,1.648-.922,4.432-1.065,5.887-1.27a38.211,38.211,0,0,1,11.105.544,1.5,1.5,0,0,0,.441-2.959c-4.823-.722-9.348-1.1-14.172-.189-2.37.45-4.931.972-6.5,2.829-7.829-2.739-15.42-6.717-23.1-9.7a29.27,29.27,0,0,1,9.131-6.82c3.892-1.808,8.176-2.4,12.178-3.9,1.8-.676.693-3.455-1.113-2.777-4.812,1.806-9.821,2.5-14.372,5.022a33.715,33.715,0,0,0-8.83,7.343,184.336,184.336,0,0,0-28.154-8.025c-3.187-.612-6.4-1.092-9.619-1.528a55.7,55.7,0,0,1,11.178-9.865,44.607,44.607,0,0,1,7.44-4.269c1.976-.8,3.964-1.089,5.693-2.4a1.5,1.5,0,0,0-1.781-2.4c-2.118,1.609-5.3,2.089-7.68,3.381a77.188,77.188,0,0,0-6.689,4.108,59.011,59.011,0,0,0-11.593,10.8,1.446,1.446,0,0,0-.1.181c-5.55-.7-11.107-1.358-16.608-2.318a1.386,1.386,0,0,0-.7-.292,13.774,13.774,0,0,0-2.185-.266c-11.194-1.358-22.391-2.748-33.6-3.964-1.909-.207-2.359,2.751-.44,2.959,11.171,1.211,22.329,2.6,33.484,3.95.05.014.085.041.138.051,2.985.591,5.992,1.062,9.008,1.487.041,5.614,3.113,11.062,6.373,15.455a1.5,1.5,0,0,0,2.4-1.78c-2.833-3.819-5.462-8.411-5.762-13.263,6.88.9,13.792,1.638,20.6,2.934,2.71.516,5.4,1.123,8.069,1.794a1.449,1.449,0,0,0-.119.347,43.916,43.916,0,0,0,3.053,23.357c.77,1.76,3.552.658,2.778-1.113a40.843,40.843,0,0,1-2.872-21.8c0-.015,0-.027,0-.042a226.6,226.6,0,0,1,23.361,7.86c1.3.511,2.6,1.057,3.9,1.616a1.242,1.242,0,0,0-.481,1.281c1.048,5.872.461,11.8-.384,17.655A1.5,1.5,0,0,0,416.333,391.5Z" transform="translate(-308.593 -321.998)" fill="#91d3d8"/>
              <path id="Trazado_684522" data-name="Trazado 684522" d="M416.333,391.5c.872-6.047,1.471-12.218.421-18.279,6.3,2.8,12.611,5.821,19.228,7.478,1.866.467,2.294-2.494.441-2.959-.808-.2-1.605-.453-2.405-.69,1.648-.922,4.432-1.065,5.887-1.27a38.211,38.211,0,0,1,11.105.544,1.5,1.5,0,0,0,.441-2.959c-4.823-.722-9.348-1.1-14.172-.189-2.37.45-4.931.972-6.5,2.829-7.829-2.739-15.42-6.717-23.1-9.7a29.27,29.27,0,0,1,9.131-6.82c3.892-1.808,8.176-2.4,12.178-3.9,1.8-.676.693-3.455-1.113-2.777-4.812,1.806-9.821,2.5-14.372,5.022a33.715,33.715,0,0,0-8.83,7.343,184.336,184.336,0,0,0-28.154-8.025c-3.187-.612-6.4-1.092-9.619-1.528a55.7,55.7,0,0,1,11.178-9.865,44.607,44.607,0,0,1,7.44-4.269c1.976-.8,3.964-1.089,5.693-2.4a1.5,1.5,0,0,0-1.781-2.4c-2.118,1.609-5.3,2.089-7.68,3.381a77.188,77.188,0,0,0-6.689,4.108,59.011,59.011,0,0,0-11.593,10.8,1.446,1.446,0,0,0-.1.181c-5.55-.7-11.107-1.358-16.608-2.318a1.386,1.386,0,0,0-.7-.292,13.774,13.774,0,0,0-2.185-.266c-11.194-1.358-22.391-2.748-33.6-3.964-1.909-.207-2.359,2.751-.44,2.959,11.171,1.211,22.329,2.6,33.484,3.95.05.014.085.041.138.051,2.985.591,5.992,1.062,9.008,1.487.041,5.614,3.113,11.062,6.373,15.455a1.5,1.5,0,0,0,2.4-1.78c-2.833-3.819-5.462-8.411-5.762-13.263,6.88.9,13.792,1.638,20.6,2.934,2.71.516,5.4,1.123,8.069,1.794a1.449,1.449,0,0,0-.119.347,43.916,43.916,0,0,0,3.053,23.357c.77,1.76,3.552.658,2.778-1.113a40.843,40.843,0,0,1-2.872-21.8c0-.015,0-.027,0-.042a226.6,226.6,0,0,1,23.361,7.86c1.3.511,2.6,1.057,3.9,1.616a1.242,1.242,0,0,0-.481,1.281c1.048,5.872.461,11.8-.384,17.655A1.5,1.5,0,0,0,416.333,391.5Z" transform="translate(-308.593 -321.998)" fill="#91d3d8" opacity="0.55" style="mix-blend-mode: multiply;isolation: isolate"/>
            </g>
          </g>
          <g id="Grupo_945251" data-name="Grupo 945251">
            <path id="Trazado_684523" data-name="Trazado 684523" d="M129.266,258.056c4.428,4.665,10.129,10.586,14.791,14.977,6.075,5.724,5.471,10.527-1.013,15.577-8,6.234-21.145,8.536-31.131,8.864-3.531.117-4.149-.2-3.724-4.141.314-2.91,1.036-5.552,1.144-8.511.206-5.715-.089-10.674-2.824-15.754-4.311-8.009-5.929,1.066-4.959,5.487a48.629,48.629,0,0,1,1,15.961c-1.078,9.175-29.283-8.329-33.018-14.129,3.753-2.176,9.112-12.432,6.982-16.982-1.875-4-3.392-.063-4.21,2.332-.941,2.76-1.549,5.4-3.527,7.536C60.693,278,49.554,250.852,47.516,245.3c-2.681-7.309-6.642-8.83-13.741-10.015,5.909-6.027,14.506-14.711,23.486-13.929,4.353.379,7.656,3.921,10.78,6.592,2.151,1.839,9.368,6.705,5.984.354-2.364-4.435-7.7-6.482-10-11.081,2.667-2.593,11.3-6.871,15.05-5.526,4.482,1.609,4.752,10.832,7.271,14.325,3.962-5.14-1.615-11.458-3.213-16.277,6.625-3.617,19.616-7.453,27.272-4.327,11.163,4.56-1.478,18.166-3.976,20.374-1.84,1.626-4.8,4.615-.294,3.722,3.951-.783,9.893-8.557,11.922-11.967.991-1.665,1.755-6.672,3.512-7.569,2-1.021,31.01,16.518,33.2,27.12C157.032,248.107,138.4,257.843,129.266,258.056Z" transform="translate(-28.698 -65.507)" fill="#f19e99"/>
            <g id="Grupo_945249" data-name="Grupo 945249" transform="translate(76.45)">
              <g id="Grupo_945248" data-name="Grupo 945248">
                <g id="Grupo_945247" data-name="Grupo 945247" transform="translate(8.87 10.037)">
                  <path id="Trazado_684524" data-name="Trazado 684524" d="M108.859,87.115c7.481,12.059,16.432,22.662,21.991,35.872a302.148,302.148,0,0,1,13.387,39.239c3.265,12.262,5.905,24.657,9.227,36.914,3.876,14.308,3.818,28.1,5.368,42.668.248,2.337,3.9,2.165,3.654-.179-1.4-13.208-1.094-26.076-4.337-39.069-3.444-13.8-6.769-27.711-10.426-41.448a298.408,298.408,0,0,0-14.051-40.794c-5.529-12.872-14.42-23.391-21.748-35.2-1.241-2-4.305,0-3.064,2Z" transform="translate(-108.568 -84.287)" fill="#f19e99"/>
                </g>
                <path id="Trazado_684525" data-name="Trazado 684525" d="M111.955,87.847c-1.518-2.706-5.8-5.357-8.938-5.021-3.674.395-3.164,3.831-1.159,6.04,2.232,2.459,5.657,3.5,8.557,4.9,3.008,1.459,5.413,4.173,8.514,5.168-.621-2.314-2.957-5.187-4.436-7.035-1.574-1.967-2.654-4.275-4.173-6.229" transform="translate(-100.301 -74.358)" fill="#f19e99"/>
                <path id="Trazado_684526" data-name="Trazado 684526" d="M114.724,93.923c-2.955-4.437-9.225-8.445-9.1-14.467.084-3.941,2.471-5.777,5.962-3.591,2.649,1.659,3.435,4.828,3.742,7.72a62.982,62.982,0,0,1,.381,11.853" transform="translate(-99.913 -74.931)" fill="#f19e99"/>
                <path id="Trazado_684527" data-name="Trazado 684527" d="M122.965,104.155C125,98.4,127.75,91.217,125.357,85.036c-1.491-3.853-4.608-.841-5.383,1.625-1.767,5.626-.26,12.658,1.905,17.966Z" transform="translate(-98.924 -74.329)" fill="#f19e99"/>
                <path id="Trazado_684528" data-name="Trazado 684528" d="M129.549,115.887c3.538-6.556,8.2-14.713,6.478-22.62-1.075-4.929-5.4-1.881-6.8.951-3.189,6.457-2.692,15.224-1.076,22.037Z" transform="translate(-98.364 -73.786)" fill="#f19e99"/>
                <path id="Trazado_684529" data-name="Trazado 684529" d="M140.437,144.5c4.629-5.837,10.648-13.055,10.33-21.142-.2-5.04-4.991-2.795-6.862-.252-4.267,5.8-5.309,14.52-4.907,21.511Z" transform="translate(-97.487 -71.622)" fill="#f19e99"/>
                <path id="Trazado_684530" data-name="Trazado 684530" d="M147.3,170.206c7.109-5.2,16.236-11.529,18.414-20.845,1.358-5.806-4.809-4.753-7.74-2.443-6.685,5.268-10.613,14.878-12.352,22.969Z" transform="translate(-96.998 -69.82)" fill="#f19e99"/>
                <path id="Trazado_684531" data-name="Trazado 684531" d="M137.7,134.406c3.02-8.036,7.08-18.079,3.869-26.707-2-5.378-6.472-1.166-7.627,2.28-2.636,7.86-.7,17.678,2.218,25.089Z" transform="translate(-97.94 -72.731)" fill="#f19e99"/>
                <path id="Trazado_684532" data-name="Trazado 684532" d="M121.486,105.06c-6.083-.452-13.769-.831-18.463-5.511-2.925-2.916,1.087-4.555,3.656-4.271,5.861.648,11.69,4.86,15.677,8.98Z" transform="translate(-100.177 -73.451)" fill="#f19e99"/>
                <path id="Trazado_684533" data-name="Trazado 684533" d="M137.6,130.885c-6.492-2.455-14.755-5.348-18.366-11.968-2.251-4.125,2.654-4.621,5.366-3.481,6.185,2.6,11.187,9.073,14.207,14.855Z" transform="translate(-98.963 -72.018)" fill="#f19e99"/>
                <path id="Trazado_684534" data-name="Trazado 684534" d="M140.828,150.442c-6.961-2.632-15.821-5.734-19.693-12.832-2.413-4.423,2.847-4.954,5.755-3.732,6.631,2.785,11.994,9.728,15.233,15.927Z" transform="translate(-98.827 -70.677)" fill="#f19e99"/>
                <path id="Trazado_684535" data-name="Trazado 684535" d="M146.306,168.846c-9.051-3.826-20.563-8.353-25.76-18.238-3.239-6.161,3.528-6.741,7.312-4.975,8.63,4.028,15.744,13.741,20.1,22.371Z" transform="translate(-98.887 -69.843)" fill="#f19e99"/>
                <path id="Trazado_684536" data-name="Trazado 684536" d="M143.394,157.226c4.052-2.668,8.42-4.369,11.542-8.233a16.7,16.7,0,0,0,3.279-11.853c-.129-1.862-.027-4.142-1.518-5.563-2.093-1.992-2.976,1.184-3.669,3.005a115.831,115.831,0,0,1-5.083,11.409c-1.039,2.03-1.949,3.963-2.776,6.013-.545,1.353-2.237,3.59-2.322,4.714" transform="translate(-97.2 -70.85)" fill="#f19e99"/>
                <path id="Trazado_684537" data-name="Trazado 684537" d="M127.969,161.408c4.22,3.254,16.956,14.906,22.187,18.942.479,1.871,1,3.738,1.528,5.621-10.179-4.388-25.4-13.7-28.483-17.409-1.329-1.6-3.634-5.536-2.969-7.629C121.437,157.153,126.127,159.99,127.969,161.408Z" transform="translate(-98.857 -68.802)" fill="#f19e99"/>
                <path id="Trazado_684538" data-name="Trazado 684538" d="M124.767,189.522c5.966,2.708,24.486,13.077,31.882,16.435,1.1,2.106,2.246,4.195,3.409,6.3-13.418-2.39-34.259-9.253-38.988-12.834-2.041-1.543-5.906-5.6-5.7-8.3C115.75,186.264,122.163,188.341,124.767,189.522Z" transform="translate(-99.203 -66.688)" fill="#f19e99"/>
                <path id="Trazado_684539" data-name="Trazado 684539" d="M151.349,189.429c2.4-1.775,13.367-4.184,20.227-18.59.973-2.044,2.081-4.854.708-6.962-1.908-2.927-4.313-.131-5.783,1.678-2.9,3.568-12.925,17.876-15.877,21.105" transform="translate(-96.633 -68.543)" fill="#f19e99"/>
                <path id="Trazado_684540" data-name="Trazado 684540" d="M156.219,200.227c-3.133-1.2-6.911-1.528-10.227-2.677-3.556-1.233-21.466-10.475-25.707-15.277-1.841-2.084-6.205-5.114-4.662-8.291,1.491-3.068,6-2.286,8.619-1.4,6.085,2.06,27.908,21.011,32.838,26.648" transform="translate(-99.208 -67.873)" fill="#f19e99"/>
                <path id="Trazado_684541" data-name="Trazado 684541" d="M154.774,202.456c12.474-4.033,28.207-19.97,28.088-22.876-.26-6.3-8.86-3.252-11.878-.893-6.768,5.29-16.889,22.112-15.954,23.169" transform="translate(-96.331 -67.578)" fill="#f19e99"/>
              </g>
            </g>
            <g id="Grupo_945250" data-name="Grupo 945250" transform="translate(0 79.306)">
              <path id="Trazado_684542" data-name="Trazado 684542" d="M70.872,198.915c8.81-10.9-4.328-9.992-12.6-7.863-6.694,1.722-22.63,7.455-22.5-5.757.132-13.839,13.386-4.563,19.089-5.965,12.742-3.135-6.526-10.185-11.347-12.25-6.606-2.827-20.326-8.476-11.7-15.773,6.977-5.9,21.343.24,27.714,3.76,4.543,2.51,20.7,17.249,24.26,9.822,2.693-5.623-12.435-20.992,5.721-14.284,7.381,2.727,11.6,11.566,17.043,16.431,7.978,7.128,11.3,10.071,17.794,3.267,3.363-3.525.536-8.677,7.524-8.157,3.6.268,9.093,7.948,10.714,10.781,14.9,26.032,14.647,49.424,11.062,54.508-4.853,6.885-19.7,9.673-27.251,9.719-3.754.023-10.441.341-12.467-3.965-2.272-4.833,5.211-8.307,3.9-11.161-3.713-8.092-13.539,7.43-18.075,8.61-5.875,1.529-19.5-2.621-16.981-10.483.259-.807,21.347-15.227,4.668-14.9-9.234.181-10.439,15.307-21.619,11.581C49.724,211.473,67.569,203,70.872,198.915Z" transform="translate(-29.043 -148.851)" fill="#91d3d8"/>
              <path id="Trazado_684543" data-name="Trazado 684543" d="M72.968,200.874c3.667-4.886,7.614-9.668,12.647-13.2-6.437-2.485-13.026-4.82-18.871-8.336-1.649-.992.147-3.386,1.784-2.4.712.429,1.454.818,2.186,1.217-.512-1.819-2.375-3.891-3.257-5.065a38.223,38.223,0,0,0-8.226-7.481,1.5,1.5,0,0,1,1.784-2.4c3.916,2.905,7.381,5.841,10.139,9.9,1.356,2,2.794,4.179,2.589,6.6,7.467,3.61,15.645,6.178,23.179,9.511a29.266,29.266,0,0,0-1.617-11.281c-1.469-4.033-4.076-7.483-5.837-11.379-.794-1.754,1.958-2.93,2.753-1.173,2.118,4.683,5.164,8.721,6.591,13.724a33.721,33.721,0,0,1,1.034,11.437,184.3,184.3,0,0,1,25.561,14.272c2.684,1.825,5.291,3.76,7.874,5.732a55.666,55.666,0,0,0-.906-14.88,44.726,44.726,0,0,0-2.23-8.284c-.83-1.963-2.029-3.576-2.318-5.727a1.5,1.5,0,0,1,2.96-.437c.355,2.636,2.265,5.23,3.029,7.826a77.219,77.219,0,0,1,1.813,7.638,59.015,59.015,0,0,1,.535,15.837,1.354,1.354,0,0,1-.059.2c4.418,3.432,8.805,6.907,13.369,10.124a1.389,1.389,0,0,1,.7.291,13.714,13.714,0,0,1,1.731,1.36c8.867,6.967,17.756,13.915,26.532,21,1.495,1.2-.282,3.612-1.784,2.4-8.746-7.055-17.6-13.979-26.44-20.923-.045-.026-.089-.031-.134-.061-2.526-1.7-4.982-3.493-7.412-5.329-4.005,3.934-10.032,5.606-15.444,6.4a1.5,1.5,0,0,1-.437-2.96c4.706-.689,9.814-2.07,13.46-5.283-5.5-4.236-10.9-8.61-16.623-12.517-2.279-1.556-4.607-3.03-6.968-4.448a1.428,1.428,0,0,1-.161.328,43.92,43.92,0,0,1-18.7,14.33c-1.79.7-2.973-2.051-1.173-2.753a40.844,40.844,0,0,0,17.468-13.36c.01-.013.021-.016.031-.028A226.716,226.716,0,0,0,92.064,190.3c-1.28-.562-2.583-1.1-3.9-1.619a1.242,1.242,0,0,1-.568,1.246c-4.9,3.4-8.678,8-12.232,12.736A1.5,1.5,0,0,1,72.968,200.874Z" transform="translate(-26.886 -147.827)" fill="#91d3d8"/>
              <path id="Trazado_684544" data-name="Trazado 684544" d="M72.968,200.874c3.667-4.886,7.614-9.668,12.647-13.2-6.437-2.485-13.026-4.82-18.871-8.336-1.649-.992.147-3.386,1.784-2.4.712.429,1.454.818,2.186,1.217-.512-1.819-2.375-3.891-3.257-5.065a38.223,38.223,0,0,0-8.226-7.481,1.5,1.5,0,0,1,1.784-2.4c3.916,2.905,7.381,5.841,10.139,9.9,1.356,2,2.794,4.179,2.589,6.6,7.467,3.61,15.645,6.178,23.179,9.511a29.266,29.266,0,0,0-1.617-11.281c-1.469-4.033-4.076-7.483-5.837-11.379-.794-1.754,1.958-2.93,2.753-1.173,2.118,4.683,5.164,8.721,6.591,13.724a33.721,33.721,0,0,1,1.034,11.437,184.3,184.3,0,0,1,25.561,14.272c2.684,1.825,5.291,3.76,7.874,5.732a55.666,55.666,0,0,0-.906-14.88,44.726,44.726,0,0,0-2.23-8.284c-.83-1.963-2.029-3.576-2.318-5.727a1.5,1.5,0,0,1,2.96-.437c.355,2.636,2.265,5.23,3.029,7.826a77.219,77.219,0,0,1,1.813,7.638,59.015,59.015,0,0,1,.535,15.837,1.354,1.354,0,0,1-.059.2c4.418,3.432,8.805,6.907,13.369,10.124a1.389,1.389,0,0,1,.7.291,13.714,13.714,0,0,1,1.731,1.36c8.867,6.967,17.756,13.915,26.532,21,1.495,1.2-.282,3.612-1.784,2.4-8.746-7.055-17.6-13.979-26.44-20.923-.045-.026-.089-.031-.134-.061-2.526-1.7-4.982-3.493-7.412-5.329-4.005,3.934-10.032,5.606-15.444,6.4a1.5,1.5,0,0,1-.437-2.96c4.706-.689,9.814-2.07,13.46-5.283-5.5-4.236-10.9-8.61-16.623-12.517-2.279-1.556-4.607-3.03-6.968-4.448a1.428,1.428,0,0,1-.161.328,43.92,43.92,0,0,1-18.7,14.33c-1.79.7-2.973-2.051-1.173-2.753a40.844,40.844,0,0,0,17.468-13.36c.01-.013.021-.016.031-.028A226.716,226.716,0,0,0,92.064,190.3c-1.28-.562-2.583-1.1-3.9-1.619a1.242,1.242,0,0,1-.568,1.246c-4.9,3.4-8.678,8-12.232,12.736A1.5,1.5,0,0,1,72.968,200.874Z" transform="translate(-26.886 -147.827)" fill="#91d3d8" opacity="0.55" style="mix-blend-mode: multiply;isolation: isolate"/>
            </g>
          </g>
        </g>
      </g>
    </g>
    <g id="OBJECTS" transform="translate(17.765 27.096)">
      <g id="Grupo_945255" data-name="Grupo 945255" transform="translate(357.394 107.857)">
        <path id="Trazado_684545" data-name="Trazado 684545" d="M461.087,127.628v67.9H383.406l-32.733,33.95V127.628Z" transform="translate(-350.673 -127.628)" fill="#f19e99"/>
        <g id="Grupo_945254" data-name="Grupo 945254" transform="translate(4.173 8.517)" opacity="0.47">
          <line id="Línea_2758" data-name="Línea 2758" x2="100.634" transform="translate(0 53.319)" fill="none" stroke="#fff" stroke-miterlimit="10" stroke-width="1"/>
          <line id="Línea_2759" data-name="Línea 2759" x2="100.634" transform="translate(0 37.076)" fill="none" stroke="#fff" stroke-miterlimit="10" stroke-width="1"/>
          <line id="Línea_2760" data-name="Línea 2760" x2="100.634" transform="translate(0 20.796)" fill="none" stroke="#fff" stroke-miterlimit="10" stroke-width="1"/>
          <line id="Línea_2761" data-name="Línea 2761" x2="100.634" fill="none" stroke="#fff" stroke-miterlimit="10" stroke-width="1"/>
        </g>
        <path id="Trazado_684546" data-name="Trazado 684546" d="M443.13,157.5a2.237,2.237,0,0,1-.359.019,2.757,2.757,0,0,1-2.738-2.406l-1.318-10.1-34.3,34.291a3.982,3.982,0,0,1-6.8-2.811V164.843l-46.938,46.948v-7.827L396.339,158.3a3.985,3.985,0,0,1,6.8,2.821v11.633L434.8,141.1h-10.38a2.761,2.761,0,0,1-2.756-2.913,2.869,2.869,0,0,1,2.914-2.618h16.058a2.758,2.758,0,0,1,2.738,2.406l2.148,16.426A2.775,2.775,0,0,1,443.13,157.5Z" transform="translate(-350.673 -127.05)" fill="#fff"/>
      </g>
      <g id="Grupo_945257" data-name="Grupo 945257" transform="translate(0 42.184)">
        <circle id="Elipse_5381" data-name="Elipse 5381" cx="35.332" cy="35.332" r="35.332" transform="translate(0 67.292) rotate(-72.231)" fill="none" stroke="#91d3d8" stroke-miterlimit="10" stroke-width="3"/>
        <g id="Grupo_945256" data-name="Grupo 945256" transform="translate(26.151 12.308)">
          <path id="Trazado_684547" data-name="Trazado 684547" d="M57.957,125.113h-.047a3.589,3.589,0,0,1-2.557-1.118l-12.439-13.1a3.59,3.59,0,1,1,5.207-4.943l9.9,10.432L95.464,78.938a3.59,3.59,0,1,1,5.077,5.077L60.494,124.062A3.592,3.592,0,0,1,57.957,125.113Z" transform="translate(-41.928 -77.887)" fill="#f5e0bd"/>
        </g>
      </g>
      <g id="Grupo_945259" data-name="Grupo 945259" transform="translate(315.121 25.365)">
        <path id="Trazado_684548" data-name="Trazado 684548" d="M373.639,81.92a31.184,31.184,0,1,1-31.188-31.181A31.112,31.112,0,0,1,373.639,81.92Z" transform="translate(-311.271 -50.739)" fill="#f19e99"/>
        <g id="Grupo_945258" data-name="Grupo 945258" transform="translate(10.327 4.834)">
          <path id="Trazado_684549" data-name="Trazado 684549" d="M362.6,102.724a31.194,31.194,0,0,1-41.7,0,20.925,20.925,0,0,1,41.7,0Z" transform="translate(-320.897 -53.183)" fill="#f19e99" style="mix-blend-mode: multiply;isolation: isolate"/>
          <circle id="Elipse_5382" data-name="Elipse 5382" cx="12.865" cy="12.865" r="12.865" transform="matrix(0.223, -0.975, 0.975, 0.223, 5.442, 25.08)" fill="#f19e99" style="mix-blend-mode: multiply;isolation: isolate"/>
        </g>
      </g>
      <g id="Grupo_945273" data-name="Grupo 945273" transform="translate(132.624 51.124)">
        <g id="Grupo_945261" data-name="Grupo 945261">
          <g id="Grupo_945260" data-name="Grupo 945260" transform="translate(0 43.903)">
            <path id="Trazado_684550" data-name="Trazado 684550" d="M374.691,126.623V443.635A10.962,10.962,0,0,1,363.737,454.6H152.124a10.962,10.962,0,0,1-10.954-10.965V126.623a10.959,10.959,0,0,1,10.954-10.954H363.737A10.959,10.959,0,0,1,374.691,126.623Z" transform="translate(-141.17 -115.669)" fill="#bb6c43"/>
            <rect id="Rectángulo_337561" data-name="Rectángulo 337561" width="209.869" height="309.357" transform="translate(11.828 14.787)" fill="#fff"/>
          </g>
          <path id="Trazado_684551" data-name="Trazado 684551" d="M315.457,106.623a30.947,30.947,0,0,0-21.94-9.087h-16.2a22.782,22.782,0,1,0-45.565,0h-16.19a31.033,31.033,0,0,0-31.038,31.027h140.02A30.95,30.95,0,0,0,315.457,106.623ZM254.54,89.477a8.058,8.058,0,1,1-8.057,8.058A8.061,8.061,0,0,1,254.54,89.477Z" transform="translate(-138.011 -74.748)" fill="#92a9c3"/>
          <path id="Trazado_684552" data-name="Trazado 684552" d="M315.453,104.918a31.112,31.112,0,0,0-10.128-6.759c-13.347,11.308-36.521,18.786-62.881,18.786-19.29,0-36.885-4.013-50.167-10.6a30.9,30.9,0,0,0-7.757,20.513H324.54A30.951,30.951,0,0,0,315.453,104.918Z" transform="translate(-138.011 -73.042)" fill="#92a9c3" opacity="0.54" style="mix-blend-mode: multiply;isolation: isolate"/>
        </g>
        <g id="Grupo_945264" data-name="Grupo 945264" transform="translate(44.592 131.395)">
          <g id="Grupo_945262" data-name="Grupo 945262">
            <path id="Trazado_684553" data-name="Trazado 684553" d="M183.669,200.748a6.794,6.794,0,0,1,2.551-2.593,7.041,7.041,0,0,1,3.589-.936,7.272,7.272,0,0,1,4.046,1.119,6.412,6.412,0,0,1,2.521,3.172h-2.217a4.454,4.454,0,0,0-1.7-1.973,4.919,4.919,0,0,0-2.653-.692,5.17,5.17,0,0,0-2.663.692A4.838,4.838,0,0,0,185.3,201.5a6.911,6.911,0,0,0,0,5.939,4.838,4.838,0,0,0,1.851,1.963,5.159,5.159,0,0,0,2.663.691,4.963,4.963,0,0,0,2.653-.681,4.383,4.383,0,0,0,1.7-1.963h2.217a6.363,6.363,0,0,1-2.521,3.143,7.328,7.328,0,0,1-4.046,1.108,7.087,7.087,0,0,1-3.589-.926,6.732,6.732,0,0,1-2.551-2.573,7.894,7.894,0,0,1,0-7.455Z" transform="translate(-182.733 -197.219)" fill="#6b5b86"/>
            <path id="Trazado_684554" data-name="Trazado 684554" d="M199.857,198.9v4.74h5.165v1.526h-5.165v4.883h5.774v1.525h-7.624v-14.2h7.624V198.9Z" transform="translate(-181.62 -197.208)" fill="#6b5b86"/>
            <path id="Trazado_684555" data-name="Trazado 684555" d="M215.19,211.567l-3.375-5.8h-2.236v5.8h-1.851V197.389H212.3a6.077,6.077,0,0,1,2.714.549,3.832,3.832,0,0,1,1.657,1.485,4.111,4.111,0,0,1-2.826,6.2l3.559,5.939Zm-5.611-7.282H212.3a3.094,3.094,0,0,0,2.257-.742,2.663,2.663,0,0,0,.752-1.984,2.54,2.54,0,0,0-.742-1.953,3.228,3.228,0,0,0-2.267-.691h-2.724Z" transform="translate(-180.912 -197.207)" fill="#6b5b86"/>
            <path id="Trazado_684556" data-name="Trazado 684556" d="M228.031,197.389v1.505h-3.862v12.673h-1.851V198.894h-3.883v-1.505Z" transform="translate(-180.131 -197.207)" fill="#6b5b86"/>
            <path id="Trazado_684557" data-name="Trazado 684557" d="M231.352,197.389v14.178H229.5V197.389Z" transform="translate(-179.325 -197.207)" fill="#6b5b86"/>
            <path id="Trazado_684558" data-name="Trazado 684558" d="M242.174,197.389v1.505h-6.16v4.781h5v1.505h-5v6.387h-1.851V197.389Z" transform="translate(-178.985 -197.207)" fill="#6b5b86"/>
            <path id="Trazado_684559" data-name="Trazado 684559" d="M245.564,197.389v14.178h-1.85V197.389Z" transform="translate(-178.289 -197.207)" fill="#6b5b86"/>
            <path id="Trazado_684560" data-name="Trazado 684560" d="M248.667,200.748a6.794,6.794,0,0,1,2.551-2.593,7.041,7.041,0,0,1,3.589-.936,7.272,7.272,0,0,1,4.046,1.119,6.412,6.412,0,0,1,2.521,3.172h-2.217a4.454,4.454,0,0,0-1.7-1.973,4.919,4.919,0,0,0-2.653-.692,5.17,5.17,0,0,0-2.663.692,4.838,4.838,0,0,0-1.851,1.963,6.911,6.911,0,0,0,0,5.939,4.838,4.838,0,0,0,1.851,1.963,5.16,5.16,0,0,0,2.663.691,4.963,4.963,0,0,0,2.653-.681,4.383,4.383,0,0,0,1.7-1.963h2.217a6.362,6.362,0,0,1-2.521,3.143,7.328,7.328,0,0,1-4.046,1.108,7.087,7.087,0,0,1-3.589-.926,6.732,6.732,0,0,1-2.551-2.573,7.894,7.894,0,0,1,0-7.455Z" transform="translate(-177.997 -197.219)" fill="#6b5b86"/>
            <path id="Trazado_684561" data-name="Trazado 684561" d="M271.442,208.409h-6.18l-1.138,3.152h-1.953l5.124-14.1h2.134l5.1,14.1h-1.952Zm-.528-1.505-2.562-7.16-2.562,7.16Z" transform="translate(-176.944 -197.201)" fill="#6b5b86"/>
            <path id="Trazado_684562" data-name="Trazado 684562" d="M284.559,197.389v1.505H280.7v12.673h-1.851V198.894h-3.883v-1.505Z" transform="translate(-176.012 -197.207)" fill="#6b5b86"/>
            <path id="Trazado_684563" data-name="Trazado 684563" d="M287.88,197.389v14.178h-1.851V197.389Z" transform="translate(-175.206 -197.207)" fill="#6b5b86"/>
            <path id="Trazado_684564" data-name="Trazado 684564" d="M293.564,210.8a6.772,6.772,0,0,1-2.571-2.583,7.837,7.837,0,0,1,0-7.466,6.762,6.762,0,0,1,2.571-2.582,7.5,7.5,0,0,1,7.218,0,6.717,6.717,0,0,1,2.56,2.573,7.946,7.946,0,0,1,0,7.485,6.727,6.727,0,0,1-2.56,2.574,7.5,7.5,0,0,1-7.218,0Zm6.273-1.373a4.862,4.862,0,0,0,1.869-1.974,6.834,6.834,0,0,0,0-5.949,4.893,4.893,0,0,0-1.859-1.963,5.55,5.55,0,0,0-5.368,0,4.9,4.9,0,0,0-1.86,1.963,6.844,6.844,0,0,0,0,5.949,4.864,4.864,0,0,0,1.87,1.974,5.52,5.52,0,0,0,5.348,0Z" transform="translate(-174.913 -197.218)" fill="#6b5b86"/>
            <path id="Trazado_684565" data-name="Trazado 684565" d="M316.728,211.568h-1.851l-7.44-11.289v11.289h-1.851v-14.2h1.851l7.44,11.268V197.371h1.851Z" transform="translate(-173.781 -197.208)" fill="#6b5b86"/>
          </g>
          <g id="Grupo_945263" data-name="Grupo 945263" transform="translate(45.36 24.076)">
            <path id="Trazado_684566" data-name="Trazado 684566" d="M230.052,220v25.129h-5.04V220Z" transform="translate(-225.012 -219.636)" fill="#f5e0bd"/>
            <path id="Trazado_684567" data-name="Trazado 684567" d="M238.327,244.5a7.767,7.767,0,0,1-3.33-2.592,6.818,6.818,0,0,1-1.26-4h5.4a3.491,3.491,0,0,0,1.1,2.449,3.889,3.889,0,0,0,2.718.9,4.174,4.174,0,0,0,2.772-.846,2.751,2.751,0,0,0,1.008-2.213,2.562,2.562,0,0,0-.684-1.837,4.8,4.8,0,0,0-1.71-1.134,28.633,28.633,0,0,0-2.826-.917,30.045,30.045,0,0,1-3.978-1.423,6.956,6.956,0,0,1-2.627-2.124,6.039,6.039,0,0,1-1.1-3.8,6.786,6.786,0,0,1,1.116-3.888,7.1,7.1,0,0,1,3.133-2.538,11.41,11.41,0,0,1,4.608-.882,10,10,0,0,1,6.318,1.89,7.008,7.008,0,0,1,2.682,5.274h-5.545a2.884,2.884,0,0,0-1.1-2.143,4.144,4.144,0,0,0-2.719-.845,3.5,3.5,0,0,0-2.358.755,2.735,2.735,0,0,0-.882,2.2,2.271,2.271,0,0,0,.666,1.675,5.068,5.068,0,0,0,1.657,1.08q.99.414,2.789.954a29.331,29.331,0,0,1,4,1.44,7.186,7.186,0,0,1,2.664,2.161,6,6,0,0,1,1.117,3.78,7.112,7.112,0,0,1-1.044,3.743,7.376,7.376,0,0,1-3.061,2.755,10.448,10.448,0,0,1-4.788,1.027A11.926,11.926,0,0,1,238.327,244.5Z" transform="translate(-224.376 -219.66)" fill="#f5e0bd"/>
            <path id="Trazado_684568" data-name="Trazado 684568" d="M260.044,243.746a12.347,12.347,0,0,1-4.68-4.591,13.559,13.559,0,0,1,0-13.249,12.353,12.353,0,0,1,4.68-4.59,13.541,13.541,0,0,1,12.98,0,12.28,12.28,0,0,1,4.643,4.59,13.685,13.685,0,0,1,0,13.249A12.235,12.235,0,0,1,273,243.746a13.5,13.5,0,0,1-12.96,0Zm10.477-3.871a7.024,7.024,0,0,0,2.7-2.933,9.632,9.632,0,0,0,.972-4.429,9.52,9.52,0,0,0-.972-4.411,6.943,6.943,0,0,0-2.7-2.9,7.789,7.789,0,0,0-4-1.008,7.886,7.886,0,0,0-4.014,1.008,6.9,6.9,0,0,0-2.719,2.9,9.52,9.52,0,0,0-.972,4.411,9.631,9.631,0,0,0,.972,4.429,6.983,6.983,0,0,0,2.719,2.933,7.769,7.769,0,0,0,4.014,1.026A7.673,7.673,0,0,0,270.521,239.875Z" transform="translate(-222.926 -219.66)" fill="#f5e0bd"/>
          </g>
        </g>
        <g id="Grupo_945268" data-name="Grupo 945268" transform="translate(42.037 197.646)">
          <g id="Grupo_945265" data-name="Grupo 945265">
            <rect id="Rectángulo_337562" data-name="Rectángulo 337562" width="149.447" height="2.287" rx="0.946" fill="#91d3d8"/>
            <rect id="Rectángulo_337563" data-name="Rectángulo 337563" width="131.691" height="2.287" rx="0.946" transform="translate(0 9.559)" fill="#91d3d8"/>
            <rect id="Rectángulo_337564" data-name="Rectángulo 337564" width="149.447" height="2.287" rx="0.946" transform="translate(0 19.119)" fill="#91d3d8"/>
            <rect id="Rectángulo_337565" data-name="Rectángulo 337565" width="149.447" height="2.287" rx="0.946" transform="translate(0 38.324)" fill="#91d3d8"/>
            <rect id="Rectángulo_337566" data-name="Rectángulo 337566" width="118.199" height="2.287" rx="0.946" transform="translate(0 28.678)" fill="#91d3d8"/>
          </g>
          <g id="Grupo_945266" data-name="Grupo 945266" transform="translate(0 59.627)">
            <rect id="Rectángulo_337567" data-name="Rectángulo 337567" width="149.447" height="2.287" rx="0.946" fill="#91d3d8"/>
            <rect id="Rectángulo_337568" data-name="Rectángulo 337568" width="131.691" height="2.287" rx="0.946" transform="translate(0 9.559)" fill="#91d3d8"/>
            <rect id="Rectángulo_337569" data-name="Rectángulo 337569" width="149.447" height="2.287" rx="0.946" transform="translate(0 19.119)" fill="#91d3d8"/>
            <rect id="Rectángulo_337570" data-name="Rectángulo 337570" width="149.447" height="2.287" rx="0.946" transform="translate(0 38.324)" fill="#91d3d8"/>
            <rect id="Rectángulo_337571" data-name="Rectángulo 337571" width="118.199" height="2.287" rx="0.946" transform="translate(0 28.678)" fill="#91d3d8"/>
          </g>
          <g id="Grupo_945267" data-name="Grupo 945267" transform="translate(0 116.35)">
            <rect id="Rectángulo_337572" data-name="Rectángulo 337572" width="131.691" height="2.287" rx="0.946" fill="#91d3d8"/>
            <rect id="Rectángulo_337573" data-name="Rectángulo 337573" width="149.447" height="2.287" rx="0.946" transform="translate(0 9.559)" fill="#91d3d8"/>
            <rect id="Rectángulo_337574" data-name="Rectángulo 337574" width="149.447" height="2.287" rx="0.946" transform="translate(0 28.764)" fill="#91d3d8"/>
            <rect id="Rectángulo_337575" data-name="Rectángulo 337575" width="118.199" height="2.287" rx="0.946" transform="translate(0 19.119)" fill="#91d3d8"/>
          </g>
        </g>
        <path id="Trazado_684569" data-name="Trazado 684569" d="M374.691,208.479V436.872a10.962,10.962,0,0,1-10.954,10.965H152.124a10.962,10.962,0,0,1-10.954-10.965V290a164.71,164.71,0,0,0,79.768,20.5C289.548,310.5,348.556,268.581,374.691,208.479Z" transform="translate(-141.17 -65.003)" fill="#92a9c3" opacity="0.23" style="mix-blend-mode: multiply;isolation: isolate"/>
        <g id="Grupo_945272" data-name="Grupo 945272" transform="translate(85.933 63.005)">
          <g id="Grupo_945271" data-name="Grupo 945271">
            <g id="Grupo_945269" data-name="Grupo 945269">
              <path id="Trazado_684570" data-name="Trazado 684570" d="M270.714,166.851a21.887,21.887,0,1,0-37.428-.294l-12.019,19.494,11.269,1.655,6.541,9.325,12.212-19.808A21.865,21.865,0,0,0,270.714,166.851Z" transform="translate(-221.266 -133.474)" fill="#f5e0bd"/>
              <path id="Trazado_684571" data-name="Trazado 684571" d="M232.821,164.31s6.3,9.744,18,10.666l-5.378,8.725L227.636,172.72Z" transform="translate(-220.802 -131.227)" fill="#f5e0bd" style="mix-blend-mode: multiply;isolation: isolate"/>
            </g>
            <g id="Grupo_945270" data-name="Grupo 945270" transform="translate(8.949)">
              <path id="Trazado_684572" data-name="Trazado 684572" d="M232.866,166.851a21.887,21.887,0,1,1,37.428-.294l12.018,19.494-11.268,1.655-6.541,9.325-12.212-19.808A21.865,21.865,0,0,1,232.866,166.851Z" transform="translate(-229.607 -133.474)" fill="#f5e0bd"/>
              <path id="Trazado_684573" data-name="Trazado 684573" d="M268.754,164.31s-6.3,9.744-18,10.666l5.378,8.725,17.811-10.981Z" transform="translate(-228.066 -131.227)" fill="#f5e0bd" style="mix-blend-mode: multiply;isolation: isolate"/>
            </g>
          </g>
          <circle id="Elipse_5383" data-name="Elipse 5383" cx="16.244" cy="16.244" r="16.244" transform="translate(11.595 33.659) rotate(-76.629)" fill="#f19e99"/>
        </g>
      </g>
      <g id="Grupo_945274" data-name="Grupo 945274" transform="translate(125.974)">
        <path id="Trazado_684574" data-name="Trazado 684574" d="M177.384,48.3A21.206,21.206,0,1,0,140.258,62.31a42.709,42.709,0,0,1,10.39,20.81l.091.527h11.583l.265-1.523a42.569,42.569,0,0,1,9.785-20.151A21.065,21.065,0,0,0,177.384,48.3Z" transform="translate(-134.971 -27.096)" fill="#f5e0bd"/>
        <path id="Trazado_684575" data-name="Trazado 684575" d="M166.605,46.681c-2.63-.2-4.6,1.948-5.405,4.249a9.374,9.374,0,0,0-.337,1.3,11.883,11.883,0,0,1-3.407-1.6c-.233-.161-.455-.352-.681-.533a10.184,10.184,0,0,0,3.171-4.762c.531-1.993-.085-4.448-2.111-5.341a4.119,4.119,0,0,0-5.025,1.77,6.268,6.268,0,0,0,.325,6.377A11.175,11.175,0,0,0,154.55,50a12.7,12.7,0,0,1-3.506,1.7,7.471,7.471,0,0,0-2.559-4.147,4,4,0,0,0-5.639.469,3.137,3.137,0,0,0,1.006,4.635c1.762,1.117,4.108,1.083,6.091.76l.039-.009a28.223,28.223,0,0,1,.415,4.306c.09,2.456.057,4.918.07,7.375q.039,7.755.078,15.51a.731.731,0,0,0,1.46,0l-.091-18.036a60.1,60.1,0,0,0-.363-8.407c-.05-.351-.113-.708-.181-1.069a13.564,13.564,0,0,0,4.229-2.06,13.081,13.081,0,0,0,5.068,2.654c-.049.561-.082,1.123-.1,1.68-.054,1.678-.082,3.358-.122,5.036q-.243,10.184-.487,20.367a.731.731,0,0,0,1.46,0q.166-6.91.33-13.821.084-3.455.165-6.91c.048-2,0-4.048.188-6.051a11.958,11.958,0,0,0,2.717.133c2.121-.163,4.518-1.072,5.042-3.386A3.456,3.456,0,0,0,166.605,46.681ZM146,51.962c-1.491-.356-3.36-1.821-1.749-3.331,1.734-1.625,4.007.292,4.811,1.912a9.9,9.9,0,0,1,.578,1.485A9.107,9.107,0,0,1,146,51.962Zm7.846-5.71c-.609-1.723-.357-4.132,1.571-4.9,1.987-.8,3.447,1.047,3.254,2.922a8.148,8.148,0,0,1-2.911,4.789c-.018.017-.042.032-.06.049A8.156,8.156,0,0,1,153.845,46.252Zm14.065,5.162c-1.23,1.415-3.635,1.407-5.34,1.191-.1-.012-.19-.04-.285-.055a5.468,5.468,0,0,1,2.709-4.129,2.642,2.642,0,0,1,2.839.256A1.887,1.887,0,0,1,167.91,51.414Z" transform="translate(-134.444 -26.178)" fill="#f5e0bd" style="mix-blend-mode: multiply;isolation: isolate"/>
        <path id="Trazado_684576" data-name="Trazado 684576" d="M163.123,77.483h-14.09a1.6,1.6,0,0,0-1.6,1.6V84.77a1.6,1.6,0,0,0,1.6,1.6h.576v2.845a1.6,1.6,0,0,0,1.6,1.6h9.747a1.6,1.6,0,0,0,1.6-1.6V86.365h.576a1.6,1.6,0,0,0,1.6-1.6V79.078A1.6,1.6,0,0,0,163.123,77.483Z" transform="translate(-134.063 -23.425)" fill="#92a9c3"/>
        <path id="Trazado_684577" data-name="Trazado 684577" d="M164.046,80.192c-2.791,5.109-9.021,6.735-14.584,6.333V89.1a1.6,1.6,0,0,0,1.6,1.6H160.8a1.6,1.6,0,0,0,1.6-1.6V86.252h.576a1.6,1.6,0,0,0,1.6-1.6V79.039A10.412,10.412,0,0,1,164.046,80.192Z" transform="translate(-133.915 -23.311)" fill="#92a9c3" opacity="0.54" style="mix-blend-mode: multiply;isolation: isolate"/>
      </g>
      <g id="Grupo_945282" data-name="Grupo 945282" transform="translate(25.612 271.755)">
        <g id="Grupo_945275" data-name="Grupo 945275">
          <path id="Rectángulo_337576" data-name="Rectángulo 337576" d="M3.141,0H106.709a3.141,3.141,0,0,1,3.141,3.141V84.262a0,0,0,0,1,0,0H0a0,0,0,0,1,0,0V3.141A3.141,3.141,0,0,1,3.141,0Z" fill="#91d3d8"/>
          <rect id="Rectángulo_337577" data-name="Rectángulo 337577" width="109.85" height="79.68" transform="translate(0 4.581)" fill="#f19e99"/>
        </g>
        <g id="Grupo_945276" data-name="Grupo 945276" transform="translate(7.658 14.786)">
          <path id="Trazado_684578" data-name="Trazado 684578" d="M59.55,299.668a5.493,5.493,0,1,1-5.493-5.492A5.493,5.493,0,0,1,59.55,299.668Z" transform="translate(-48.564 -294.176)" fill="#91d3d8"/>
          <path id="Trazado_684579" data-name="Trazado 684579" d="M75.124,299.668a5.493,5.493,0,1,1-5.493-5.492A5.493,5.493,0,0,1,75.124,299.668Z" transform="translate(-47.429 -294.176)" fill="#fff"/>
          <circle id="Elipse_5384" data-name="Elipse 5384" cx="5.493" cy="5.493" r="5.493" transform="translate(33.419)" fill="#91d3d8"/>
          <circle id="Elipse_5385" data-name="Elipse 5385" cx="5.493" cy="5.493" r="5.493" transform="translate(50.129)" fill="#fff"/>
          <path id="Trazado_684580" data-name="Trazado 684580" d="M121.848,299.668a5.493,5.493,0,1,1-5.493-5.492A5.493,5.493,0,0,1,121.848,299.668Z" transform="translate(-44.024 -294.176)" fill="#91d3d8"/>
          <path id="Trazado_684581" data-name="Trazado 684581" d="M137.422,299.668a5.493,5.493,0,1,1-5.492-5.492A5.492,5.492,0,0,1,137.422,299.668Z" transform="translate(-42.889 -294.176)" fill="#fff"/>
        </g>
        <g id="Grupo_945281" data-name="Grupo 945281" transform="translate(7.286 32.402)">
          <rect id="Rectángulo_337578" data-name="Rectángulo 337578" width="95.278" height="42.444" rx="3.67" fill="#fff"/>
          <g id="Grupo_945280" data-name="Grupo 945280" transform="translate(5.865 7.356)">
            <g id="Grupo_945277" data-name="Grupo 945277">
              <rect id="Rectángulo_337579" data-name="Rectángulo 337579" width="80.482" height="1.433" fill="#f5e0bd"/>
              <rect id="Rectángulo_337580" data-name="Rectángulo 337580" width="36.779" height="1.433" transform="translate(0 4.663)" fill="#f5e0bd"/>
              <rect id="Rectángulo_337581" data-name="Rectángulo 337581" width="17.895" height="1.433" transform="translate(38.912 4.663)" fill="#f5e0bd"/>
            </g>
            <g id="Grupo_945278" data-name="Grupo 945278" transform="translate(0 11.402)">
              <rect id="Rectángulo_337582" data-name="Rectángulo 337582" width="80.482" height="1.433" fill="#f5e0bd"/>
              <rect id="Rectángulo_337583" data-name="Rectángulo 337583" width="36.779" height="1.433" transform="translate(0 4.663)" fill="#f5e0bd"/>
              <rect id="Rectángulo_337584" data-name="Rectángulo 337584" width="17.895" height="1.433" transform="translate(38.912 4.663)" fill="#f5e0bd"/>
            </g>
            <g id="Grupo_945279" data-name="Grupo 945279" transform="translate(0 22.805)">
              <rect id="Rectángulo_337585" data-name="Rectángulo 337585" width="80.482" height="1.433" fill="#f5e0bd"/>
              <rect id="Rectángulo_337586" data-name="Rectángulo 337586" width="36.779" height="1.433" transform="translate(0 4.663)" fill="#f5e0bd"/>
              <rect id="Rectángulo_337587" data-name="Rectángulo 337587" width="17.895" height="1.433" transform="translate(38.912 4.663)" fill="#f5e0bd"/>
            </g>
          </g>
        </g>
      </g>
      <g id="Grupo_945295" data-name="Grupo 945295" transform="translate(311.026 157.385)">
        <path id="Trazado_684582" data-name="Trazado 684582" d="M466.209,469.189c0,2.374-26.855,4.3-59.982,4.3s-59.983-1.924-59.983-4.3,26.855-4.3,59.983-4.3S466.209,466.815,466.209,469.189Z" transform="translate(-304.628 -152.579)" fill="#f5e0bd" opacity="0.45"/>
        <g id="Grupo_945294" data-name="Grupo 945294">
          <g id="Grupo_945291" data-name="Grupo 945291" transform="translate(0 6.271)">
            <g id="Grupo_945283" data-name="Grupo 945283" transform="translate(10.392 45.549)">
              <path id="Trazado_684583" data-name="Trazado 684583" d="M345.765,262.926l-2.141,7.1-3.285-1.741s-4.086,1.75-13.236-5.185a3.874,3.874,0,0,0-1.078-.581l-7.014-2.535s-2.066-3.612,8.714.83c-.63-.34-5.837-3-8.993-3.575a1.044,1.044,0,0,1-.141-2.013c1.329-.466,4.1-.077,9.866,3.111a20.872,20.872,0,0,0-10.409-4.535,1.051,1.051,0,0,1-.432-1.915c1.1-.679,5.968-.286,12.539,3.7L319.9,250.407a.733.733,0,0,1,.121-1.368c1.039-.236,3.389.149,8.631,2.732a22.584,22.584,0,0,1,3.107,1.917,9.1,9.1,0,0,0,2.559,1.325l.126.028a81.238,81.238,0,0,1-6.949-4.549c-.632-.494,0-1.528.783-1.318.229.068.545.154.947.3a20.783,20.783,0,0,1,11.161,9.244l1.953,3.345Z" transform="translate(-317.141 -220.132)" fill="#bb6c43"/>
              <path id="Trazado_684584" data-name="Trazado 684584" d="M394.761,229.606a57.518,57.518,0,0,1-1.32,9.688,113.786,113.786,0,0,1-4.152,14.677l-9.066,25.7a8.573,8.573,0,0,1-11.34,5.085l-27.058-12.767.987-3.251,1.159-3.852,26.629,6.169s3.905-36.928,4.3-40.018c1.277-9.935,16.951-12.048,19.5-4.023A7.88,7.88,0,0,1,394.761,229.606Z" transform="translate(-315.342 -222.092)" fill="#91d3d8"/>
              <path id="Trazado_684585" data-name="Trazado 684585" d="M394.761,229.291a57.518,57.518,0,0,1-1.32,9.688,113.786,113.786,0,0,1-4.152,14.677l-9.066,25.7a8.573,8.573,0,0,1-11.34,5.085L341.826,271.67l.987-3.251,32.776,6.823s-.044-34.6.353-37.691c.9-7,12.9-12.444,18.465-10.856A7.88,7.88,0,0,1,394.761,229.291Z" transform="translate(-315.342 -221.776)" fill="#91d3d8" style="mix-blend-mode: multiply;isolation: isolate"/>
            </g>
            <g id="Grupo_945284" data-name="Grupo 945284" transform="translate(79.49)">
              <path id="Trazado_684586" data-name="Trazado 684586" d="M392.554,220.708v.041a16.436,16.436,0,0,0,.288,2.806c.6,3.471,2.1,4.818,4.031,5.291a7.027,7.027,0,0,0,8.528-6.851l.171-15.543a4.592,4.592,0,0,0-4.531-4.647l-3.682-.041a4.6,4.6,0,0,0-4.64,4.544Z" transform="translate(-380.743 -178.024)" fill="#bb6c43"/>
              <path id="Trazado_684587" data-name="Trazado 684587" d="M392.554,220.629c.172,0,.336,0,.5-.008a11.067,11.067,0,0,0,10.273-11.039l.034-2.923c.02-2.06-2.013-3.751-4.545-3.778l-3.682-.041a5.385,5.385,0,0,0-.944.068,4.564,4.564,0,0,0-1.472,3.319Z" transform="translate(-380.743 -177.946)" fill="#bb6c43" opacity="0.64" style="mix-blend-mode: multiply;isolation: isolate"/>
              <path id="Trazado_684588" data-name="Trazado 684588" d="M381.653,199.839c.546,3.215,2.856,4.379,5.046,5.151.029.006.052.018.08.026A23.434,23.434,0,0,0,390.6,211.2a12.717,12.717,0,0,0,6.374,4.633c.075.019.156.045.231.065.149.04.292.1.442.132.1.026.208.03.306.05s.173.024.26.038c.2.03.4.055.607.068s.4.008.6,0l.262-.009c.1-.009.208,0,.313-.013.151-.018.3-.054.455-.083.076-.01.158-.024.234-.039a12.724,12.724,0,0,0,6.867-3.856,23.479,23.479,0,0,0,4.517-5.7c.076-.015.158-.035.234-.056,2.217-.516,4.568-1.428,5.457-4.49.728-2.5.235-5.88-1.866-6.184a3.584,3.584,0,0,0-2.082.474A27.666,27.666,0,0,0,408.6,184.05a9.382,9.382,0,0,0-3.737-3.376,6.724,6.724,0,0,0-2.315-.839,22.448,22.448,0,0,0-3.22-.191,6.863,6.863,0,0,0-2.4.568,9.363,9.363,0,0,0-4.1,2.917,27.765,27.765,0,0,0-6.594,11.495,3.6,3.6,0,0,0-2.013-.712C382.1,193.972,381.219,197.272,381.653,199.839Z" transform="translate(-381.546 -179.637)" fill="#bb6c43"/>
              <path id="Trazado_684589" data-name="Trazado 684589" d="M405.587,196.044l.008,0a.349.349,0,0,1,.118-.019,4.5,4.5,0,0,0-3.28-2.818,1.335,1.335,0,0,0-.706.012.57.57,0,0,0-.4.532c.016.263.262.45.5.568a6.972,6.972,0,0,0,1.568.477,4.794,4.794,0,0,1,1.534.561A2.059,2.059,0,0,1,405.587,196.044Z" transform="translate(-380.104 -178.651)" fill="#2e2a27"/>
              <path id="Trazado_684590" data-name="Trazado 684590" d="M394.61,192.832a1.326,1.326,0,0,0-.7-.036,4.485,4.485,0,0,0-3.447,2.9,2.2,2.2,0,0,1,.484-.55.313.313,0,0,1,.035-.021,2.283,2.283,0,0,1,.358-.269,4.8,4.8,0,0,1,1.554-.505,6.951,6.951,0,0,0,1.584-.421c.24-.109.492-.286.518-.549A.573.573,0,0,0,394.61,192.832Z" transform="translate(-380.896 -178.68)" fill="#2e2a27"/>
              <path id="Trazado_684591" data-name="Trazado 684591" d="M397.983,203.193a2.9,2.9,0,0,1-1.437-.079,2.4,2.4,0,0,1-.646-.311c-.033-.025-.109-.077-.122-.12.012.038.011,0,.013-.02a1.527,1.527,0,0,1,.16-.383,19.455,19.455,0,0,1,1.6-2.916.442.442,0,0,0-.058-.6.432.432,0,0,0-.6.058c-.387.583-.75,1.181-1.078,1.8q-.233.439-.445.888a5.226,5.226,0,0,0-.4.972c-.174.738.571,1.173,1.158,1.389a3.715,3.715,0,0,0,1.949.18.439.439,0,0,0,.385-.467A.432.432,0,0,0,397.983,203.193Z" transform="translate(-380.57 -178.25)" fill="#bb6c43" opacity="0.64" style="mix-blend-mode: multiply;isolation: isolate"/>
              <path id="Trazado_684592" data-name="Trazado 684592" d="M403.43,198.135c-.049.791-.528,1.413-1.071,1.39s-.942-.68-.894-1.471.528-1.413,1.071-1.39S403.478,197.344,403.43,198.135Z" transform="translate(-380.094 -178.396)" fill="#2e2a27"/>
              <path id="Trazado_684593" data-name="Trazado 684593" d="M394.327,198.135c-.048.791-.528,1.413-1.071,1.39s-.942-.68-.894-1.471.528-1.413,1.071-1.39S394.375,197.344,394.327,198.135Z" transform="translate(-380.758 -178.396)" fill="#2e2a27"/>
              <path id="Trazado_684594" data-name="Trazado 684594" d="M395.344,206.3a8.292,8.292,0,0,0,3.989-.069,3.629,3.629,0,0,0,2.311-2.067c.194-.521,1.021-.255.825.27a4.45,4.45,0,0,1-2.654,2.541,8.609,8.609,0,0,1-4.513.193.45.45,0,0,1-.413-.455A.438.438,0,0,1,395.344,206.3Z" transform="translate(-380.573 -177.87)" fill="#bb6c43" opacity="0.64" style="mix-blend-mode: multiply;isolation: isolate"/>
            </g>
            <g id="Grupo_945285" data-name="Grupo 945285" transform="translate(71.977 120.751)">
              <path id="Trazado_684595" data-name="Trazado 684595" d="M423.787,324.426c-.654,17.627-2.918,39.063-5.321,70.348-1.7,21.94-6.9,75.122-6.9,75.122l-8.433.054-.923-75.079-.88-69-.118-2.328L398.478,394.9l-2.811,75.09-7.6.054L382.535,395l-4.656-60.724c-.086-.633-.161-1.266-.225-1.91l-.107.043a113.966,113.966,0,0,1,.815-26.457c.869-6.33,1.878-10.546,1.878-10.546l41.263-3.219c-.011.493.858,6.534,1.545,14.022A149.258,149.258,0,0,1,423.787,324.426Z" transform="translate(-374.356 -292.186)" fill="#f5e0bd"/>
              <path id="Trazado_684596" data-name="Trazado 684596" d="M422.893,306.208c-.687-7.489-1.556-13.529-1.545-14.022L380.085,295.4s-.381,1.592-.874,4.282c.2.308.421.609.65.9,3.256,4.146,8.432,5.518,13.456,6.01,5.126.5,10.336.226,15.418,1.164,1.974.365,4.293.821,5.728,2.343a9.708,9.708,0,0,1,2.181,5.479c.693,5.2-6.359,151.53-6.676,154.322l1.445-.01s5.2-53.182,6.9-75.122c2.4-31.285,4.667-52.721,5.321-70.348A149.258,149.258,0,0,0,422.893,306.208Z" transform="translate(-374.202 -292.186)" fill="#f5e0bd" style="mix-blend-mode: multiply;isolation: isolate"/>
              <path id="Trazado_684597" data-name="Trazado 684597" d="M422.961,306.208a66.275,66.275,0,0,1-22,3.39c-8.84,0-16.844-1.395-22.68-3.648.869-6.33,1.878-10.546,1.878-10.546l41.263-3.219C421.405,292.68,422.274,298.72,422.961,306.208Z" transform="translate(-374.27 -292.186)" fill="#2e2a27"/>
              <path id="Trazado_684598" data-name="Trazado 684598" d="M393.272,465.321l-.53.01a5.421,5.421,0,0,0-4.2,2.312c-2.468,3.3-8.73,3.311-12.176,2.395a5.3,5.3,0,0,1-.542-.165c-1.459-.5-1.753-2.828-.486-3.954l12.617-12a4.434,4.434,0,0,0-.046-.741l8.12-.316C396.242,453.867,399.424,464.9,393.272,465.321Z" transform="translate(-374.542 -280.477)" fill="#92a9c3"/>
              <path id="Trazado_684599" data-name="Trazado 684599" d="M403.79,465.233l.53,0a4.961,4.961,0,0,1,4.052,2.262c2.262,3.267,8.526,3.2,12.031,2.243.188-.043.362-.108.551-.172a2.482,2.482,0,0,0,.735-3.962l-11.87-11.846a4.434,4.434,0,0,1,.093-.741l-8.514.715C401.126,454.741,397.663,464.884,403.79,465.233Z" transform="translate(-372.674 -280.466)" fill="#92a9c3"/>
            </g>
            <path id="Trazado_684600" data-name="Trazado 684600" d="M375.789,244.636c.668,4.255,1.328,9.022,1.893,14.119a225.346,225.346,0,0,1,1.346,37.2c-.174,2.84-2.111,5.679-1.547,8.449l1.2,2.431.286.573c.147.026.3.053.443.087a95.473,95.473,0,0,0,10.628,1.468c12.009.955,23.057,2.42,33.225-2.816.165-.807,1.086-6.069.912-6.859l-1.415-6.3-.9-3.994a239.312,239.312,0,0,1,.76-25.586c.114-1.164.226-2.362.356-3.578q.3-2.734.687-5.575c1.293-9.508,3.4-19.657,6.859-28.1.053-.139.113-.269.174-.409-.53-.347-9.168-6.594-23.713-7.241-.547,5.469-6.947,5.236-6.947,5.236s-5.193-.1-6.052-5.236l-1.337.051a58.243,58.243,0,0,0-8.935,1.007h0c-6.915,1.327-10.923,7.076-10.411,14.1C373.531,236.879,375.222,241,375.789,244.636Z" transform="translate(-302.66 -176.804)" fill="#91d3d8"/>
            <g id="Grupo_945286" data-name="Grupo 945286" transform="translate(87.605 43.564)">
              <path id="Trazado_684601" data-name="Trazado 684601" d="M401.609,227.105c-2.522.47-5.346.658-7.726-.488a6.174,6.174,0,0,1-3.7-4.963c-.04-.687-1.113-.691-1.073,0a7.187,7.187,0,0,0,4.074,5.812c2.689,1.37,5.828,1.21,8.711.674C402.572,228.014,402.285,226.98,401.609,227.105Z" transform="translate(-389.109 -220.176)" fill="#91d3d8" style="mix-blend-mode: multiply;isolation: isolate"/>
              <path id="Trazado_684602" data-name="Trazado 684602" d="M407.575,220.759a5.968,5.968,0,0,1-4.212,5.472.537.537,0,0,0,.285,1.034,7.065,7.065,0,0,0,5-6.506A.537.537,0,0,0,407.575,220.759Z" transform="translate(-388.098 -220.241)" fill="#91d3d8" style="mix-blend-mode: multiply;isolation: isolate"/>
            </g>
            <path id="Trazado_684603" data-name="Trazado 684603" d="M419.636,289.495l-.9-3.994s-.174-9.734.989-22.359c.114-1.164.226-2.361.356-3.578q.3-2.734.687-5.574c1.252-9.205,3.281-19,6.545-27.272a11.973,11.973,0,0,0-5.138,1.94,15.168,15.168,0,0,0-4.585,5.309,35.773,35.773,0,0,0-3.71,12.723,146.378,146.378,0,0,0-.885,20.878,195.427,195.427,0,0,0,1.454,21.263c.658,5.2,1.37,10.41,1.808,15.638q1.96-.829,3.887-1.82c.165-.808,1.086-6.069.912-6.86Z" transform="translate(-299.766 -176.206)" fill="#91d3d8" style="mix-blend-mode: multiply;isolation: isolate"/>
            <g id="Grupo_945289" data-name="Grupo 945289" transform="translate(0 72.035)">
              <g id="Grupo_945288" data-name="Grupo 945288">
                <path id="Trazado_684604" data-name="Trazado 684604" d="M451.4,306.4a12.379,12.379,0,0,1-3.841,5.236,12.945,12.945,0,0,1-3.143,1.867,13.875,13.875,0,0,1-10.321.1l-.472-.182,5.193-13.454,4.131-10.686.461.182C450.4,292.154,453.97,299.729,451.4,306.4Z" transform="translate(-298.261 -243.682)" fill="#f19e99"/>
                <path id="Trazado_684605" data-name="Trazado 684605" d="M452.134,292.376,448,303.062l-5.193,13.454-9.956-4-103.393-41.6-.322-.333-12.156-12.628-1.159-1.212-8.368-8.7,31.317-1.266Z" transform="translate(-307.454 -246.779)" fill="#f5e0bd"/>
                <path id="Trazado_684606" data-name="Trazado 684606" d="M443.621,289.541l-4.13,10.686L434.3,313.681l-10.01-3.862.054-.139,5.193-13.454,4.066-10.546Z" transform="translate(-298.941 -243.944)" fill="#92a9c3"/>
                <g id="Grupo_945287" data-name="Grupo 945287">
                  <path id="Trazado_684607" data-name="Trazado 684607" d="M338.775,246.779l-4.3,10.621-5.332,13.186-12.156-12.628h-.011l-1.148-1.2v-.011l-8.368-8.7,11.919-.472Z" transform="translate(-307.454 -246.779)" fill="#bb6c43"/>
                  <path id="Trazado_684608" data-name="Trazado 684608" d="M307.454,248l11.919-.478-3.542,9.182Z" transform="translate(-307.454 -246.725)" fill="#2e2a27"/>
                </g>
              </g>
              <path id="Trazado_684609" data-name="Trazado 684609" d="M456.1,314.023a12.945,12.945,0,0,1-3.143,1.867,13.875,13.875,0,0,1-10.321.1l-.472-.182-10.01-3.862.054-.139-103.393-41.6-.322-.333-12.156-12.628,17.144-.7.343.139L437.4,298.348l9.441,3.8.461.182c.021.011.032.011.054.021A13.549,13.549,0,0,1,456.1,314.023Z" transform="translate(-306.807 -246.067)" fill="#f5e0bd" style="mix-blend-mode: multiply;isolation: isolate"/>
            </g>
            <g id="Grupo_945290" data-name="Grupo 945290" transform="translate(60.643 47.659)">
              <path id="Trazado_684610" data-name="Trazado 684610" d="M394.546,275.386l-.186,7.47-3.656-.814s-3.5,2.791-14.242-1.5a3.9,3.9,0,0,0-1.2-.278l-7.491-.591s-2.972-2.958,8.688-1.519c-.7-.162-6.473-1.354-9.691-1.072a1.053,1.053,0,0,1-.675-1.919c1.167-.807,3.967-1.169,10.416.391a21.033,21.033,0,0,0-11.324-1.629,1.058,1.058,0,0,1-.93-1.745c.889-.954,5.722-1.872,13.168.247l-11.345-2.3a.738.738,0,0,1-.247-1.36c.946-.506,3.332-.76,9.115.35a22.87,22.87,0,0,1,3.531,1.033,9.132,9.132,0,0,0,2.839.6l.129-.005a82.387,82.387,0,0,1-7.965-2.565c-.746-.311-.4-1.486.409-1.488.241,0,.572,0,1,.035a20.943,20.943,0,0,1,13.311,6l2.791,2.728Z" transform="translate(-363.979 -220.952)" fill="#bb6c43"/>
              <path id="Trazado_684611" data-name="Trazado 684611" d="M432.462,230.663a58.56,58.56,0,0,1,1.3,9.761,113.437,113.437,0,0,1-.112,15.372L431.7,283.173a8.652,8.652,0,0,1-9.665,7.975l-30.325-2.5.818-10.157,27.526-1.122s-4.525-40.192-4.963-43.3C413.534,223.121,429.767,219.951,432.462,230.663Z" transform="translate(-361.958 -224.059)" fill="#91d3d8"/>
            </g>
          </g>
          <g id="Grupo_945293" data-name="Grupo 945293" transform="translate(78.715)">
            <path id="Trazado_684612" data-name="Trazado 684612" d="M380.825,194.582a10.5,10.5,0,0,0,.837,4.4,15.149,15.149,0,0,0,1.243,2.14c.393.613.97,1.843.027,2.287a.48.48,0,0,0,.01.9,4.066,4.066,0,0,0,3.5-.46l1.93,4.543a.52.52,0,0,0,.986-.251,30.8,30.8,0,0,1,.389-7.219,2.009,2.009,0,0,0,1.547.1.477.477,0,0,0,.107-.833,3.3,3.3,0,0,1-.507-3.825,8.261,8.261,0,0,1,3.38-3.328,23.226,23.226,0,0,0,4.131-3.045,10.6,10.6,0,0,0,.469,2.783.532.532,0,0,0,.551.3,8.39,8.39,0,0,0,5.771-4.041,58.5,58.5,0,0,0,5.029,11.6.632.632,0,0,0,.551.28,15.677,15.677,0,0,0-.242,7.145.518.518,0,0,0,1.024-.129c-.111-2.308,3.256-3,4.813-4.062a3.592,3.592,0,0,0,1.714-3.3,6.612,6.612,0,0,0,2.272.188.479.479,0,0,0,.236-.865c-1.228-.741-2.82-1.718-2.683-3.274a16.878,16.878,0,0,1,.745-2.485,6.872,6.872,0,0,0,.148-2.313,10.507,10.507,0,0,0-1.95-4.871,6.688,6.688,0,0,0,3.738-3.381.5.5,0,0,0-.417-.674c-3.63-.839-6.18-3.667-8.928-5.855-2.219-1.767-4.827-3.265-7.8-3.244a6.916,6.916,0,0,0-3.736,1.1A9.235,9.235,0,0,1,397.8,176a6.392,6.392,0,0,1-2.233.215,7.3,7.3,0,0,0-3.928.683,8.2,8.2,0,0,0-2.762,2.8c-1.388,2.152-2.867,5.766-6.187,5.5a.488.488,0,0,0-.469.777,3.663,3.663,0,0,0,1.808,1.226A10.647,10.647,0,0,0,380.825,194.582Z" transform="translate(-380.823 -173.792)" fill="#2e2a27"/>
            <g id="Grupo_945292" data-name="Grupo 945292" transform="translate(3.044 2.224)">
              <path id="Trazado_684613" data-name="Trazado 684613" d="M402.816,182.612a7.934,7.934,0,0,1,7.9,4.859,11.906,11.906,0,0,1,.984,4.989c-.017,1.871-.734,4.18.675,5.733a.522.522,0,0,1-.775.7,5.765,5.765,0,0,1-1.07-4.545,14.26,14.26,0,0,0-.288-5.144c-.886-3.151-3.728-5.947-7.2-5.572C402.381,183.7,402.149,182.684,402.816,182.612Z" transform="translate(-382.293 -175.377)" fill="#2e2a27" style="mix-blend-mode: multiply;isolation: isolate"/>
              <path id="Trazado_684614" data-name="Trazado 684614" d="M405.389,185.569a10.276,10.276,0,0,1,2.823,6.926c.011.673-1.031.617-1.042-.053a9.194,9.194,0,0,0-2.555-6.174C404.15,185.783,404.926,185.083,405.389,185.569Z" transform="translate(-382.143 -175.17)" fill="#2e2a27" style="mix-blend-mode: multiply;isolation: isolate"/>
              <path id="Trazado_684615" data-name="Trazado 684615" d="M398.963,188.619a4.005,4.005,0,0,0,2.093-3.711.523.523,0,0,1,.547-.495.533.533,0,0,1,.495.547,5.04,5.04,0,0,1-2.654,4.585A.522.522,0,0,1,398.963,188.619Z" transform="translate(-382.564 -175.242)" fill="#2e2a27" style="mix-blend-mode: multiply;isolation: isolate"/>
              <path id="Trazado_684616" data-name="Trazado 684616" d="M400.548,181.2a.538.538,0,0,1,.7.223.524.524,0,0,1-.222.7,7.184,7.184,0,0,0-4.609,5.888c-.069.665-1.111.617-1.042-.053A8.2,8.2,0,0,1,400.548,181.2Z" transform="translate(-382.806 -175.48)" fill="#2e2a27" style="mix-blend-mode: multiply;isolation: isolate"/>
              <path id="Trazado_684617" data-name="Trazado 684617" d="M385.867,184.961c1.8.259,3.133-1.187,4.065-2.535a12.26,12.26,0,0,1,3.207-3.683c2.854-1.84,6.5-1.249,9.194.583.555.377-.014,1.252-.571.873-2.767-1.883-6.679-2.272-9.155.326-1.948,2.043-3.27,5.983-6.794,5.478C385.154,185.909,385.2,184.866,385.867,184.961Z" transform="translate(-383.537 -175.737)" fill="#2e2a27" style="mix-blend-mode: multiply;isolation: isolate"/>
              <path id="Trazado_684618" data-name="Trazado 684618" d="M388.768,191.6c.888-.831.833-2.247,1.073-3.356a8.193,8.193,0,0,1,1.458-3.147,8.745,8.745,0,0,1,5.841-3.474c.662-.082.893.937.226,1.019a7.761,7.761,0,0,0-5.528,3.505,8.006,8.006,0,0,0-1.135,3.177,4.932,4.932,0,0,1-1.235,3.05C388.976,192.83,388.278,192.055,388.768,191.6Z" transform="translate(-383.299 -175.446)" fill="#2e2a27" style="mix-blend-mode: multiply;isolation: isolate"/>
              <path id="Trazado_684619" data-name="Trazado 684619" d="M384.115,192.123a7.921,7.921,0,0,1,4.1-5.033c.609-.28,1.091.646.481.926-4.692,2.151-4.261,8.108-3.381,12.294a.522.522,0,0,1-1.018.226C383.723,197.791,383.294,194.868,384.115,192.123Z" transform="translate(-383.66 -175.051)" fill="#2e2a27" style="mix-blend-mode: multiply;isolation: isolate"/>
              <path id="Trazado_684620" data-name="Trazado 684620" d="M387.256,192.488c.242-.623,1.236-.3.991.327a8.159,8.159,0,0,0-.212,3.818,9.96,9.96,0,0,1-.147,3.912c-.193.643-1.184.316-.99-.327C387.663,197.685,386.276,195.008,387.256,192.488Z" transform="translate(-383.425 -174.678)" fill="#2e2a27" style="mix-blend-mode: multiply;isolation: isolate"/>
              <path id="Trazado_684621" data-name="Trazado 684621" d="M400.183,176.256c2.4-1.021,4.859.113,6.73,1.66,1.959,1.62,3.808,3.912,6.525,4.117a.522.522,0,0,1-.053,1.042c-2.414-.182-4.241-1.771-5.956-3.326-1.768-1.6-4.213-3.654-6.767-2.566C400.049,177.444,399.566,176.519,400.183,176.256Z" transform="translate(-382.476 -175.865)" fill="#2e2a27" style="mix-blend-mode: multiply;isolation: isolate"/>
              <path id="Trazado_684622" data-name="Trazado 684622" d="M411.878,185.451a12.36,12.36,0,0,1,2.31,10.746c-.167.65-1.158.321-.991-.328a11.249,11.249,0,0,0-2.092-9.718C410.686,185.628,411.457,184.925,411.878,185.451Z" transform="translate(-381.668 -175.18)" fill="#2e2a27" style="mix-blend-mode: multiply;isolation: isolate"/>
              <path id="Trazado_684623" data-name="Trazado 684623" d="M409.5,202.457l3.093-3.275a.521.521,0,1,1,.7.774l-3.093,3.277a.526.526,0,0,1-.737-.038A.532.532,0,0,1,409.5,202.457Z" transform="translate(-381.789 -174.176)" fill="#2e2a27" style="mix-blend-mode: multiply;isolation: isolate"/>
            </g>
          </g>
        </g>
      </g>
      <g id="Grupo_945305" data-name="Grupo 945305" transform="translate(31.637 162.865)">
        <path id="Trazado_684624" data-name="Trazado 684624" d="M167.006,469.189c0,2.374-26.855,4.3-59.982,4.3s-59.982-1.924-59.982-4.3,26.855-4.3,59.982-4.3S167.006,466.815,167.006,469.189Z" transform="translate(-47.042 -158.059)" fill="#f5e0bd" opacity="0.45"/>
        <g id="Grupo_945304" data-name="Grupo 945304" transform="translate(8.15)">
          <path id="Trazado_684625" data-name="Trazado 684625" d="M146.189,235.727c-1.918-1.808-4.28-3-6.2-4.8a6.233,6.233,0,0,1-2.026-3.228c-.429-2.171.889-4.348,2.46-5.811,1.192-1.109,2.654-2.125,3.068-3.764a5.079,5.079,0,0,0-.886-3.912c-.738-1.128-1.713-2.045-2.519-3.115a13.356,13.356,0,0,1-1.62-12.484l-26.243-.978c-3.009.812-4.676,4.544-4.657,7.9s1.257,6.511,2.048,9.74a10.273,10.273,0,0,1,.3,4.676c-.553,2.445-2.515,4.172-3.908,6.2a14.792,14.792,0,0,0-2.261,10.983c.648,3.345,2.459,6.367,2.7,9.781.277,3.857-1.477,7.542-3.2,10.96-1.326,2.623,2.423,1.547.6,3.773a1.413,1.413,0,0,0,.974,2.262l.045.009c1.95.354,1.516,2.052,3.441,2.532,2.806.7,2.447,2.685,5.064,1.307s5.833-2.489,8.264-.835c.589.4,1.087.944,1.668,1.357a7.3,7.3,0,0,0,2.383,1.032,26.43,26.43,0,0,0,10.056.642,11.3,11.3,0,0,0,4.832-1.513,5.882,5.882,0,0,0,2.728-4.171,6.022,6.022,0,0,1-6.138-5.235,8.67,8.67,0,0,1,1.609-5.983,16.414,16.414,0,0,1,4.478-4.141c2.284-1.534,4.958-3.094,5.669-5.9C149.594,240.321,148.107,237.535,146.189,235.727Z" transform="translate(-51.117 -177.534)" fill="#2e2a27"/>
          <path id="Trazado_684626" data-name="Trazado 684626" d="M158.19,261.2l-6.051,5.708-.794.74-19.934-29.7,2.017-6.008,3.047-9.109S149.725,229.155,158.19,261.2Z" transform="translate(-49.044 -175.698)" fill="#f5e0bd"/>
          <path id="Trazado_684627" data-name="Trazado 684627" d="M157.137,264.552l-5.792,2.673-19.934-29.7,6.5-8.861C142.086,232.133,151,242.376,157.137,264.552Z" transform="translate(-49.044 -175.273)" fill="#f5e0bd" opacity="0.86" style="mix-blend-mode: multiply;isolation: isolate"/>
          <path id="Trazado_684628" data-name="Trazado 684628" d="M84.061,470.08h-3.72v-3.639a.535.535,0,0,0-1.006-.256l-2.035,3.76H54.638c1.213-1.979,3.464-2.794,5.564-3.09a12.408,12.408,0,0,0,8.589-5.683l4.27-6.657h8.726C88.141,456.135,84.061,470.08,84.061,470.08Z" transform="translate(-54.638 -158.815)" fill="#f5e0bd"/>
          <path id="Trazado_684629" data-name="Trazado 684629" d="M148.77,469.945H128.9l-3.72-5.628v5.628H121.8c-.75-12.221,1.444-14.88,2.65-15.43h7.647c3.448,7.5,10.672,11.231,16.994,13.873A.811.811,0,0,1,148.77,469.945Z" transform="translate(-49.755 -158.815)" fill="#f5e0bd"/>
          <path id="Trazado_684630" data-name="Trazado 684630" d="M150.281,355.718l-3.54,43.569-11.5,67.484c.15.386.311.772.483,1.148h-7.639a1.24,1.24,0,0,1,.73-.139c-2.36-28.774-3.97-55.7,0-69l-1.7-83.544h-6.759L103.3,396.079c-2.511,22.047-10.954,48.172-23.528,71.7a4.174,4.174,0,0,1,.762.139H71.811l.515-.815,15.9-73.052L96,319.551c.4-4.646,1-8.991,1.727-13.014,4.227-23.2,12.821-35.941,12.821-35.941h32.122l2.907,13.486a247.811,247.811,0,0,1,4.055,25.041A246.716,246.716,0,0,1,150.281,355.718Z" transform="translate(-53.387 -172.218)" fill="#92a9c3"/>
          <path id="Trazado_684631" data-name="Trazado 684631" d="M142.594,282.108a43.729,43.729,0,0,1-.5-15.68h0l2.21-14.784,2.618-5.332a9.706,9.706,0,0,0,.461-7.446l-2.961-8.562a14.811,14.811,0,0,0-10.214-9.581c-.032-.011-.064-.011-.1-.021-9.473-2.382-17.574-.7-27.562,2.393a5.554,5.554,0,0,0-3.884,6.051l5.268,38.87.848,6.3h.011s-8.594,12.746-12.821,35.941c4.538,2.146,9.677,2.736,14.7,3.079a264.3,264.3,0,0,0,37.207-.494,247.811,247.811,0,0,0-4.055-25.041Z" transform="translate(-51.626 -175.935)" fill="#f5e0bd"/>
          <path id="Trazado_684632" data-name="Trazado 684632" d="M105.122,308.166a66.388,66.388,0,0,1,.617-7.052,73.609,73.609,0,0,1,1.4-8.171c.639-2.714,1.6-5.284,2.476-7.922a42.01,42.01,0,0,1,2.828-7.3c.65-1.165,1.389-2.28,1.991-3.471a6.764,6.764,0,0,0,.786-3.8,29.3,29.3,0,0,0-.778-3.836c-.3-1.321-.52-2.663-.791-3.991-.586-2.873-1.2-5.741-1.883-8.593q-.5-2.07-1.057-4.125a27.471,27.471,0,0,0-1.4-3.674,22.682,22.682,0,0,1-2.023-6.1,25.081,25.081,0,0,1-2.649,2.1l3.29,24.279.848,6.3h.011s-8.594,12.746-12.821,35.941a31.752,31.752,0,0,0,9.353,2.559A18.573,18.573,0,0,1,105.122,308.166Z" transform="translate(-51.626 -174.437)" fill="#f5e0bd" opacity="0.56" style="mix-blend-mode: multiply;isolation: isolate"/>
          <g id="Grupo_945297" data-name="Grupo 945297" transform="translate(54.339 4.268)">
            <path id="Trazado_684633" data-name="Trazado 684633" d="M126.3,227.668a5.418,5.418,0,0,1-1.3,1.35,5.53,5.53,0,0,1-7.871-2.074c-1.222-2.434-1.044-5.214-1.129-7.769l-.01-.279-.075-5.3,12.034-.866c-.014,1.395.059,2.817-.044,4.2-.181,2.429.079,4.9-.324,7.308A8.627,8.627,0,0,1,126.3,227.668Z" transform="translate(-104.512 -180.702)" fill="#f19e99"/>
            <path id="Trazado_684634" data-name="Trazado 684634" d="M127.381,222.348a15.959,15.959,0,0,1-5.5-.492l-.068-.018a7.809,7.809,0,0,1-5.883-7.223l-.014-1.021,12.034-.866L127.9,217.1c-.009.795-.026,1.619-.085,2.421,0,.2.023,1.213.055,2.3C127.7,222.016,127.56,222.157,127.381,222.348Z" transform="translate(-104.512 -180.702)" fill="#f19e99" opacity="0.58" style="mix-blend-mode: multiply;isolation: isolate"/>
            <path id="Trazado_684635" data-name="Trazado 684635" d="M128.15,215.8c-.249,1.867,0,7.983-4.592,13.629-4.593-5.645-4.343-11.762-4.592-13.629-3.352-.338-5.788,5.494-5.788,5.494l1.591,9.312c3.24,2.579,8.04-.456,8.789-.959.749.5,5.549,3.538,8.789.959l1.591-9.312S131.5,215.461,128.15,215.8Z" transform="translate(-104.711 -180.479)" fill="#fff"/>
            <path id="Trazado_684636" data-name="Trazado 684636" d="M139.268,197.686a3.57,3.57,0,0,0-2.033.639,27.718,27.718,0,0,0-6.161-11.706,9.393,9.393,0,0,0-3.989-3.057,6.775,6.775,0,0,0-2.374-.652q-.814-.051-1.608-.023a15.72,15.72,0,0,0-1.606.094,6.765,6.765,0,0,0-2.343.756,9.39,9.39,0,0,0-3.848,3.23,27.69,27.69,0,0,0-5.638,11.967,3.58,3.58,0,0,0-2.06-.549c-2.1.23-2.718,3.586-2.081,6.1.807,3.194,3.253,4.146,5.513,4.736a23.468,23.468,0,0,0,4.3,5.851,12.688,12.688,0,0,0,6.714,4.092c.076.018.152.033.23.048.151.031.3.073.452.1.1.016.208.014.311.025.088.009.175.013.262.019.2.012.4.02.6.015s.4-.02.6-.042c.087-.01.174-.018.261-.031.1-.015.208-.017.31-.038.151-.031.3-.079.447-.117.075-.018.151-.038.227-.059a12.682,12.682,0,0,0,6.527-4.387,23.45,23.45,0,0,0,4.034-6.034c2.233-.689,4.635-1.749,5.3-4.975C142.142,201.147,141.379,197.822,139.268,197.686Z" transform="translate(-105.286 -182.877)" fill="#f19e99"/>
            <g id="Grupo_945296" data-name="Grupo 945296" transform="translate(11.404 12.799)">
              <path id="Trazado_684637" data-name="Trazado 684637" d="M126.949,206.253a5.719,5.719,0,0,0-.739-1.1,8.093,8.093,0,0,1-.756-1.285,8.331,8.331,0,0,1-.765-2.842.522.522,0,0,0-.578-.412.479.479,0,0,0-.382.565,9.278,9.278,0,0,0,1.752,4.6c.38.521.936,1.086.389,1.66s-1.482.419-2.206.328c-.63-.08-.694.9-.067.982a3.7,3.7,0,0,0,2.74-.384A1.754,1.754,0,0,0,126.949,206.253Z" transform="translate(-115.388 -194.384)" fill="#f19e99" opacity="0.58" style="mix-blend-mode: multiply;isolation: isolate"/>
              <path id="Trazado_684638" data-name="Trazado 684638" d="M117.657,201.573c.123.911.724,1.613,1.341,1.569s1.016-.816.892-1.727-.724-1.613-1.341-1.569S117.532,200.663,117.657,201.573Z" transform="translate(-115.791 -194.44)" fill="#2e2a27"/>
              <path id="Trazado_684639" data-name="Trazado 684639" d="M126.724,201.53c.123.911.724,1.613,1.341,1.569s1.016-.816.893-1.726-.725-1.614-1.342-1.57S126.6,200.62,126.724,201.53Z" transform="translate(-115.13 -194.443)" fill="#2e2a27"/>
              <path id="Trazado_684640" data-name="Trazado 684640" d="M127.088,195.395a1.087,1.087,0,0,1,.643-.07,3.127,3.127,0,0,1,2.539,2.916,1.63,1.63,0,0,0-.329-.561.278.278,0,0,0-.028-.021,1.422,1.422,0,0,0-.27-.268,3.088,3.088,0,0,0-1.3-.467,4.557,4.557,0,0,1-1.344-.374.574.574,0,0,1-.359-.56A.819.819,0,0,1,127.088,195.395Z" transform="translate(-115.135 -194.77)" fill="#2e2a27"/>
              <path id="Trazado_684641" data-name="Trazado 684641" d="M119.446,195.041a1.168,1.168,0,0,0-.622-.221,2.772,2.772,0,0,0-2.907,2.267,1.416,1.416,0,0,1,.4-.474c.01-.006.02-.009.03-.014a1.274,1.274,0,0,1,.3-.2,2.9,2.9,0,0,1,1.345-.15,4.377,4.377,0,0,0,1.375-.05.511.511,0,0,0,.432-.465A.927.927,0,0,0,119.446,195.041Z" transform="translate(-115.916 -194.807)" fill="#2e2a27"/>
              <path id="Trazado_684642" data-name="Trazado 684642" d="M119.471,208.736a6.17,6.17,0,0,0,5.666,1.337.452.452,0,0,1,.21.879,7.1,7.1,0,0,1-6.536-1.6C118.379,208.963,119.042,208.349,119.471,208.736Z" transform="translate(-115.715 -193.801)" fill="#f19e99" opacity="0.58" style="mix-blend-mode: multiply;isolation: isolate"/>
            </g>
          </g>
          <path id="Trazado_684643" data-name="Trazado 684643" d="M126.478,243.51a13.649,13.649,0,0,1-14.076,7.3c-.5-.074-.72.7-.212.77a14.457,14.457,0,0,0,14.977-7.667C127.4,243.456,126.712,243.052,126.478,243.51Z" transform="translate(-50.465 -174.206)" fill="#f5e0bd" style="mix-blend-mode: multiply;isolation: isolate"/>
          <g id="Grupo_945298" data-name="Grupo 945298" transform="translate(46.028 117.65)">
            <path id="Trazado_684644" data-name="Trazado 684644" d="M98.526,290.137l5.637-1.578a14.618,14.618,0,0,1,2.988,8.287H97.605A15.093,15.093,0,0,1,98.526,290.137Z" transform="translate(-97.54 -288.559)" fill="#f19e99"/>
          </g>
          <rect id="Rectángulo_337588" data-name="Rectángulo 337588" width="12.636" height="1.891" transform="translate(46.094 125.937)" fill="#f5e0bd" style="mix-blend-mode: multiply;isolation: isolate"/>
          <path id="Trazado_684645" data-name="Trazado 684645" d="M93.413,266.981l12.266,26.413-4.163,1.47-4.12,1.448L80.1,275.446c-2.094-3.545-4.9-7.188-2.435-10.825,20.159-31.811,17.545-39.182,32.736-42.455l.461,15.331-3.73,11.625Z" transform="translate(-53.03 -175.747)" fill="#f5e0bd"/>
          <path id="Trazado_684646" data-name="Trazado 684646" d="M106.308,247.963a19.818,19.818,0,0,0,2.2-8.279c.01-.54-.005-1.076-.038-1.609L89.285,262.51a5.013,5.013,0,0,0-.049,6.667L100.694,293.7l4.163-1.47L92.59,265.822Z" transform="translate(-52.208 -174.588)" fill="#f5e0bd" opacity="0.56" style="mix-blend-mode: multiply;isolation: isolate"/>
          <g id="Grupo_945301" data-name="Grupo 945301" transform="translate(75.585 64.132)">
            <g id="Grupo_945299" data-name="Grupo 945299">
              <path id="Trazado_684647" data-name="Trazado 684647" d="M169.315,242.034l-.064.354-9.506,40.018a2.992,2.992,0,0,1-2.972,2.317l-28.131-.386-.579-.011a3.023,3.023,0,0,1-2.886-3.744l9.806-39.61a3,3,0,0,1,2.918-2.3h28.42A3.016,3.016,0,0,1,169.315,242.034Z" transform="translate(-125.089 -238.676)" fill="#92a9c3"/>
              <path id="Trazado_684648" data-name="Trazado 684648" d="M169.074,241.806l-.064.354L159.5,282.178a2.992,2.992,0,0,1-2.972,2.317l-28.131-.386a2.454,2.454,0,0,1,.075-.386l9.8-39.621a3.017,3.017,0,0,1,2.929-2.3Z" transform="translate(-124.847 -238.448)" fill="#92a9c3" opacity="0.35" style="mix-blend-mode: multiply;isolation: isolate"/>
            </g>
            <g id="Grupo_945300" data-name="Grupo 945300" transform="translate(28.063 21.734)">
              <path id="Trazado_684649" data-name="Trazado 684649" d="M163.737,269.631a1.462,1.462,0,0,0,.639-2.8,1.3,1.3,0,0,0,1.461-.639c.218-.428-.168-1.315-.459-1.693.542-.484,1.161-.892.995-1.6a2.71,2.71,0,0,0-1.432-1.689,8.054,8.054,0,0,0-2.174-.671c-2.783-.576-5.568-1.152-8.383-1.542a3.028,3.028,0,0,0-1.219,0,1.061,1.061,0,0,0-.807.829c-.058.516.372.9.848,1.171a1.222,1.222,0,0,0-1.489.683,1.2,1.2,0,0,0,.472,1.312,1.036,1.036,0,0,0-.849.571,1.422,1.422,0,0,0,.5,1.624,2.426,2.426,0,0,0,1.329.454,1.09,1.09,0,0,0-.717,1.058,2.565,2.565,0,0,0,.882,1.543,13.036,13.036,0,0,0,7.277,4.032,3.667,3.667,0,0,0,2.544-.372A1.677,1.677,0,0,0,163.737,269.631Z" transform="translate(-151.246 -258.934)" fill="#f19e99"/>
              <path id="Trazado_684650" data-name="Trazado 684650" d="M161.717,262.616q-4.422-.922-8.811-2c-.322-.079-.489.412-.164.492q4.387,1.078,8.811,2C161.874,263.175,162.044,262.684,161.717,262.616Z" transform="translate(-151.15 -258.812)" fill="#f19e99" opacity="0.58" style="mix-blend-mode: multiply;isolation: isolate"/>
              <path id="Trazado_684651" data-name="Trazado 684651" d="M161.44,264.955a52.045,52.045,0,0,1-9.279-2.394.259.259,0,0,0-.164.491,52.772,52.772,0,0,0,9.409,2.419C161.735,265.525,161.767,265.007,161.44,264.955Z" transform="translate(-151.204 -258.671)" fill="#f19e99" opacity="0.58" style="mix-blend-mode: multiply;isolation: isolate"/>
              <path id="Trazado_684652" data-name="Trazado 684652" d="M160.338,267.36a21.839,21.839,0,0,1-7.225-2.333c-.292-.154-.581.277-.285.433a22.56,22.56,0,0,0,7.476,2.417C160.634,267.923,160.667,267.4,160.338,267.36Z" transform="translate(-151.14 -258.492)" fill="#f19e99" opacity="0.58" style="mix-blend-mode: multiply;isolation: isolate"/>
            </g>
          </g>
          <g id="Grupo_945302" data-name="Grupo 945302" transform="translate(91.327 12.658)">
            <path id="Trazado_684653" data-name="Trazado 684653" d="M139.971,190.7c-.061.082-.142.147-.209.224A.35.35,0,0,0,139.971,190.7Z" transform="translate(-139.762 -190.698)" fill="#2e2a27"/>
          </g>
          <g id="Grupo_945303" data-name="Grupo 945303" transform="translate(47.178)">
            <path id="Trazado_684654" data-name="Trazado 684654" d="M107.985,271l-.771.046A.9.9,0,0,0,107.985,271Z" transform="translate(-97.985 -172.188)" fill="#2e2a27"/>
            <path id="Trazado_684655" data-name="Trazado 684655" d="M133.842,188.944a2.84,2.84,0,0,0-1.522-.138,5.585,5.585,0,0,0,.62-3.456,6.351,6.351,0,0,0-1.588-3.119c-4.547-5.145-11.793-3.521-17.094-.548-5.829,3.268-10.061,9.781-11.449,16.213a25.532,25.532,0,0,0,.339,11.967c.9,3.363,4.6,7.444,3.936,10.969-.292,1.564-1.548,2.568-2.591,3.61a13.546,13.546,0,0,0-3.916,7.928,10.067,10.067,0,0,0,2.71,8.366,9.721,9.721,0,0,1,2.127,2.078,5.322,5.322,0,0,1-.355,5.09,31.252,31.252,0,0,1-3.191,3.935,14.7,14.7,0,0,0-3.125,11.029c.573,3.957,3.248,7.524,6.635,8.234a19.534,19.534,0,0,1,3.192.577,2.924,2.924,0,0,1,1.938,2.689,4.479,4.479,0,0,1-.606,1.8,3.508,3.508,0,0,1-1.29,1.541,12.451,12.451,0,0,0,5.932-1.5,6.547,6.547,0,0,0,3.036-6.564c-.574-2.7-3.124-4.354-3.693-7.054s1.062-5.377,2.827-7.271,3.852-3.642,4.636-6.285a7.573,7.573,0,0,0-1.25-6.695c-1.123-1.373-2.713-2.136-3.808-3.539a7.258,7.258,0,0,1-.786-7.088c1.5-3.35,5.477-4.966,5.961-8.7.3-2.273-.9-4.455-2.294-6.081s-3.058-2.98-4.133-4.907c-1.626-2.917-1.639-6.666-1.22-10.112.335-2.752,1.044-5.706,2.985-7.318,2.253-1.871,5.3-1.3,8.065-1.188,2.117.086,4.581-.477,5.958-2.137a9.07,9.07,0,0,0,.845,4.418c.829,1.706,2.177,3,3.06,4.667s1.163,4.1-.08,5.416c1.661-1.763,3.324-2.462,4.193-4.986C140.35,196.428,138.571,190.48,133.842,188.944Z" transform="translate(-98.612 -178.9)" fill="#2e2a27"/>
          </g>
        </g>
      </g>
    </g>
  </g>
</svg>
