<svg xmlns="http://www.w3.org/2000/svg" width="190.776" height="190.923" viewBox="0 0 190.776 190.923">
  <g id="_36" data-name="36" transform="translate(-356.492 -439.259)">
    <g id="Grupo_945316" data-name="Grupo 945316" transform="translate(356.492 439.259)">
      <path id="Trazado_684656" data-name="Trazado 684656" d="M536.378,531.178c-9.531,27.252,8.938,63.448-35.812,72.525-16.247,3.3-28.006-4.592-43.724,4.707-27.815,16.456-44.856,15.422-56.452,2.4-7.066-7.937-8.878-22.211-17.96-27.425-19.674-11.294-24.876-28.2-20.508-48.485,2.3-10.668,11.625-17.878,17.368-25.09,6.726-8.447,9.017-16.646,12.248-25.24,14.39-38.275,46.181-47.465,69.933-44.915,20.041,2.151,33.016,17.256,39.294,28.939C513.568,492.419,551.111,489.049,536.378,531.178Zm10.89,15.075a5.457,5.457,0,1,0-5.4,5.512A5.457,5.457,0,0,0,547.268,546.253ZM478.58,613.441a9.765,9.765,0,1,0,.142,13.809A9.765,9.765,0,0,0,478.58,613.441ZM357.652,496.778a3.958,3.958,0,1,0,0-5.6A3.958,3.958,0,0,0,357.652,496.778Zm149.767-32.885a6.284,6.284,0,1,0,7.126-5.309A6.284,6.284,0,0,0,507.419,463.894ZM368.741,495.162a7.587,7.587,0,1,0,6.412-8.6A7.587,7.587,0,0,0,368.741,495.162ZM500.8,454.749a3.292,3.292,0,1,0,3.734-2.782A3.292,3.292,0,0,0,500.8,454.749ZM386.328,613.39a2.869,2.869,0,1,0,2.425-3.253A2.869,2.869,0,0,0,386.328,613.39Zm2.839-13.268a7.27,7.27,0,1,0-7.2,7.345A7.27,7.27,0,0,0,389.167,600.122Z" transform="translate(-356.492 -439.259)" fill="#ff9700"/>
    </g>
    <g id="Grupo_945334" data-name="Grupo 945334" transform="translate(391.562 473.335)">
      <g id="Grupo_945333" data-name="Grupo 945333">
        <path id="Trazado_684676" data-name="Trazado 684676" d="M0,0H116.214V73.837H0Z" transform="translate(4.303 22.318)" fill="#0387d0"/>
        <path id="Trazado_684657" data-name="Trazado 684657" d="M769.753,1031.771H718.179v-75.6h51.574Z" transform="translate(-713.789 -933.854)" fill="#fff" opacity="0.2"/>
        <g id="Grupo_945317" data-name="Grupo 945317" transform="translate(0 16.51)">
          <path id="Trazado_684658" data-name="Trazado 684658" d="M1098.138,1698.4h-40.059l2.016-13.426.738-4.956h10.321a6.471,6.471,0,0,0-.11,1.233v3.051c0,.231.011.452.032.672a7.349,7.349,0,0,0,14.636,0,6.234,6.234,0,0,0,.034-.672v-3.051a6.644,6.644,0,0,0-.11-1.233h9.747l.738,4.956Z" transform="translate(-1016.607 -1595.242)" fill="#d8ddea"/>
          <path id="Trazado_684659" data-name="Trazado 684659" d="M1087.417,1681.254v3.051c0,.231.011.452.032.672h-10.992l.749-4.956h10.321A6.481,6.481,0,0,0,1087.417,1681.254Z" transform="translate(-1032.98 -1595.242)" fill="#3e50b4" opacity="0.05"/>
          <path id="Trazado_684660" data-name="Trazado 684660" d="M1310.789,1684.305v-3.051a6.644,6.644,0,0,0-.11-1.233h9.747l.738,4.956h-10.409A6.234,6.234,0,0,0,1310.789,1684.305Z" transform="translate(-1241.648 -1595.242)" fill="#3e50b4" opacity="0.05"/>
          <path id="Trazado_684661" data-name="Trazado 684661" d="M937.034,1834.553H858.021a3.657,3.657,0,0,0-3.657,3.657v0a3.657,3.657,0,0,0,3.656,3.657h79.013a3.658,3.658,0,0,0,0-7.315Z" transform="translate(-835.117 -1732.914)" fill="#edeff7"/>
          <path id="Trazado_684662" data-name="Trazado 684662" d="M800.852,902.932H679.857a1.915,1.915,0,0,0-1.913,1.914v82.747a1.914,1.914,0,0,0,1.913,1.913H800.852a1.914,1.914,0,0,0,1.913-1.913V904.846A1.915,1.915,0,0,0,800.852,902.932Zm-6.965,75.606H686.823a1.037,1.037,0,0,1-1.037-1.037V911a1.037,1.037,0,0,1,1.037-1.037H793.887A1.037,1.037,0,0,1,794.923,911V977.5A1.037,1.037,0,0,1,793.887,978.538Z" transform="translate(-677.944 -902.932)" fill="#edeff7"/>
        </g>
        <path id="Trazado_684663" data-name="Trazado 684663" d="M900.611,870.213V960.46h83.683V873.783H900.611Z" transform="translate(-876.319 -857.273)" fill="#0b1926" opacity="0.05"/>
        <rect id="Rectángulo_337593" data-name="Rectángulo 337593" width="83.683" height="98.273" transform="translate(20.569)" fill="#fff"/>
        <g id="Grupo_945319" data-name="Grupo 945319" transform="translate(35.85 5.234)">
          <g id="Grupo_945318" data-name="Grupo 945318" transform="translate(0.056)">
            <path id="Trazado_684664" data-name="Trazado 684664" d="M1018.261,805.474c0,3.82-2.316,6.136-5.722,6.136-3.457,0-5.479-2.61-5.479-5.929,0-3.492,2.23-6.1,5.669-6.1C1016.308,799.58,1018.261,802.259,1018.261,805.474Zm-8.418.155c0,2.282,1.071,3.889,2.835,3.889,1.78,0,2.8-1.694,2.8-3.958,0-2.091-1-3.889-2.818-3.889C1010.88,801.671,1009.843,803.365,1009.843,805.63Z" transform="translate(-1007.06 -799.58)" fill="#ff9700"/>
            <path id="Trazado_684665" data-name="Trazado 684665" d="M1128.211,801.322V805.8h4.339v-4.477h2.628v11.65h-2.628V808.1h-4.339v4.875h-2.645v-11.65Z" transform="translate(-1112.637 -801.132)" fill="#ff9700"/>
            <path id="Trazado_684666" data-name="Trazado 684666" d="M1231.146,808.707a6.733,6.733,0,0,0,2.921.725c1.21,0,1.85-.5,1.85-1.261,0-.726-.553-1.141-1.953-1.642-1.936-.674-3.2-1.746-3.2-3.44,0-1.988,1.66-3.509,4.407-3.509a7.14,7.14,0,0,1,2.973.587l-.588,2.126a5.539,5.539,0,0,0-2.437-.553c-1.14,0-1.693.519-1.693,1.124,0,.743.657,1.072,2.16,1.642,2.057.76,3.025,1.832,3.025,3.475,0,1.953-1.5,3.613-4.7,3.613a7.629,7.629,0,0,1-3.3-.709Z" transform="translate(-1206.221 -799.58)" fill="#ff9700"/>
            <path id="Trazado_684667" data-name="Trazado 684667" d="M1316.081,809.982l-.83,2.99h-2.731l3.562-11.65h3.456l3.613,11.65h-2.834l-.9-2.99Zm2.955-1.971-.726-2.472c-.207-.691-.414-1.556-.587-2.247h-.034c-.173.691-.346,1.573-.537,2.247l-.69,2.472Z" transform="translate(-1279.194 -801.132)" fill="#ff9700"/>
            <path id="Trazado_684668" data-name="Trazado 684668" d="M1420.635,808.707a6.726,6.726,0,0,0,2.921.725c1.211,0,1.85-.5,1.85-1.261,0-.726-.553-1.141-1.954-1.642-1.936-.674-3.2-1.746-3.2-3.44,0-1.988,1.659-3.509,4.407-3.509a7.143,7.143,0,0,1,2.973.587l-.587,2.126a5.544,5.544,0,0,0-2.437-.553c-1.141,0-1.694.519-1.694,1.124,0,.743.657,1.072,2.16,1.642,2.058.76,3.025,1.832,3.025,3.475,0,1.953-1.5,3.613-4.7,3.613a7.629,7.629,0,0,1-3.3-.709Z" transform="translate(-1375.036 -799.58)" fill="#ff9700"/>
          </g>
          <path id="Trazado_684669" data-name="Trazado 684669" d="M1009.951,939.637h-.045l-2.8,1.333-.565-2.574,3.883-1.806h2.845v14.673h-3.319Z" transform="translate(-1006.543 -921.642)" fill="#0387d0"/>
          <path id="Trazado_684670" data-name="Trazado 684670" d="M1084.291,945.4a3.9,3.9,0,0,1,2.619-3.679v-.068a3.56,3.56,0,0,1-2.122-3.206c0-2.483,2.235-4.131,5.17-4.131,3.432,0,4.853,1.987,4.853,3.77a3.575,3.575,0,0,1-2.121,3.228v.068a3.882,3.882,0,0,1,2.686,3.657c0,2.664-2.235,4.447-5.644,4.447C1086.006,949.484,1084.291,947.385,1084.291,945.4Zm7.585-.113c0-1.286-.948-2.054-2.3-2.415a2.227,2.227,0,0,0-1.783,2.19,2.01,2.01,0,0,0,2.077,2.054A1.843,1.843,0,0,0,1091.876,945.285Zm-3.86-6.953c0,.994.9,1.626,2.077,1.987a2.01,2.01,0,0,0,1.491-1.874,1.683,1.683,0,0,0-1.784-1.806A1.636,1.636,0,0,0,1088.016,938.332Z" transform="translate(-1075.809 -919.615)" fill="#0387d0"/>
          <path id="Trazado_684671" data-name="Trazado 684671" d="M1217.8,941.832c0,4.537-1.828,7.652-5.575,7.652-3.793,0-5.464-3.408-5.486-7.562,0-4.244,1.806-7.607,5.6-7.607C1216.267,934.314,1217.8,937.813,1217.8,941.832Zm-7.607.09c-.023,3.364.79,4.967,2.122,4.967s2.054-1.671,2.054-5.012c0-3.251-.7-4.966-2.077-4.966C1211.03,936.91,1210.172,938.513,1210.2,941.921Z" transform="translate(-1184.9 -919.615)" fill="#0387d0"/>
          <path id="Trazado_684672" data-name="Trazado 684672" d="M1332.639,941.832c0,4.537-1.828,7.652-5.576,7.652-3.793,0-5.463-3.408-5.485-7.562,0-4.244,1.805-7.607,5.6-7.607C1331.1,934.314,1332.639,937.813,1332.639,941.832Zm-7.607.09c-.023,3.364.789,4.967,2.121,4.967s2.054-1.671,2.054-5.012c0-3.251-.7-4.966-2.076-4.966C1325.867,936.91,1325.009,938.513,1325.032,941.921Z" transform="translate(-1287.208 -919.615)" fill="#0387d0"/>
          <path id="Trazado_684673" data-name="Trazado 684673" d="M1435.2,939.637h-.045l-2.8,1.333-.564-2.574,3.882-1.806h2.845v14.673h-3.32Z" transform="translate(-1385.401 -921.642)" fill="#0387d0"/>
        </g>
        <g id="Grupo_945321" data-name="Grupo 945321" transform="translate(29.555 39.755)">
          <g id="Grupo_945320" data-name="Grupo 945320">
            <rect id="Rectángulo_337594" data-name="Rectángulo 337594" width="34.934" height="3.581" transform="translate(30.776)" fill="#cad7e8"/>
            <rect id="Rectángulo_337595" data-name="Rectángulo 337595" width="21.891" height="3.581" fill="#ff9700"/>
          </g>
        </g>
        <g id="Grupo_945323" data-name="Grupo 945323" transform="translate(29.555 48.474)">
          <g id="Grupo_945322" data-name="Grupo 945322">
            <rect id="Rectángulo_337596" data-name="Rectángulo 337596" width="10.648" height="3.581" fill="#cad7e8"/>
            <rect id="Rectángulo_337597" data-name="Rectángulo 337597" width="32.64" height="3.581" transform="translate(14.456)" fill="#ff9700"/>
            <rect id="Rectángulo_337598" data-name="Rectángulo 337598" width="14.262" height="3.581" transform="translate(51.448)" fill="#cad7e8"/>
          </g>
        </g>
        <g id="Grupo_945325" data-name="Grupo 945325" transform="translate(36.82 57.192)">
          <g id="Grupo_945324" data-name="Grupo 945324">
            <rect id="Rectángulo_337599" data-name="Rectángulo 337599" width="29.314" height="3.582" fill="#cad7e8"/>
            <rect id="Rectángulo_337600" data-name="Rectángulo 337600" width="17.878" height="3.582" transform="translate(33.304)" fill="#cad7e8"/>
          </g>
        </g>
        <g id="Grupo_945327" data-name="Grupo 945327" transform="translate(29.555 65.911)">
          <g id="Grupo_945326" data-name="Grupo 945326">
            <rect id="Rectángulo_337601" data-name="Rectángulo 337601" width="18.133" height="3.581" transform="translate(11.373)" fill="#ff9700"/>
            <rect id="Rectángulo_337602" data-name="Rectángulo 337602" width="18.677" height="3.581" transform="translate(34.221)" fill="#cad7e8"/>
            <rect id="Rectángulo_337603" data-name="Rectángulo 337603" width="8.278" height="3.581" transform="translate(57.432)" fill="#cad7e8"/>
            <rect id="Rectángulo_337604" data-name="Rectángulo 337604" width="5.752" height="3.581" fill="#cad7e8"/>
          </g>
        </g>
        <g id="Grupo_945329" data-name="Grupo 945329" transform="translate(29.555 74.629)">
          <g id="Grupo_945328" data-name="Grupo 945328">
            <rect id="Rectángulo_337605" data-name="Rectángulo 337605" width="44.678" height="3.581" fill="#cad7e8"/>
          </g>
        </g>
        <g id="Grupo_945331" data-name="Grupo 945331" transform="translate(36.998 83.347)">
          <g id="Grupo_945330" data-name="Grupo 945330">
            <rect id="Rectángulo_337606" data-name="Rectángulo 337606" width="29.983" height="3.582" fill="#cad7e8"/>
          </g>
        </g>
        <rect id="Rectángulo_337607" data-name="Rectángulo 337607" width="16.579" height="16.58" transform="translate(79.211 74.629)" fill="#ff9700"/>
        <g id="Grupo_945332" data-name="Grupo 945332" transform="translate(80.461 78.232)">
          <path id="Trazado_684674" data-name="Trazado 684674" d="M1422.486,1499.452l-1.5,2.3-5.532-5.531,1.9-1.9Z" transform="translate(-1415.452 -1491.522)" fill="#fff"/>
          <path id="Trazado_684675" data-name="Trazado 684675" d="M1458.937,1470.594l-8.32,8.311-1.9-1.9,8.311-8.329Z" transform="translate(-1445.085 -1468.674)" fill="#fff"/>
        </g>
      </g>
    </g>
  </g>
</svg>
