<svg xmlns="http://www.w3.org/2000/svg" width="51.042" height="62.535" viewBox="0 0 51.042 62.535">
  <g id="_37" data-name="37" transform="translate(-47.053)">
    <g id="Grupo_54835" data-name="Grupo 54835" transform="translate(47.969 0.916)">
      <path id="Trazado_103159" data-name="Trazado 103159" d="M92.326,7.5H65.991A11.437,11.437,0,0,0,54.554,18.937V46.906A11.437,11.437,0,0,0,65.991,58.343h6.764a1.556,1.556,0,0,1,1.422.924l3.559,8.012a1.556,1.556,0,0,0,2.844,0l3.559-8.012a1.556,1.556,0,0,1,1.422-.924h6.764a11.437,11.437,0,0,0,11.437-11.437V18.937A11.437,11.437,0,0,0,92.326,7.5Z" transform="translate(-54.554 -7.5)" fill="#f5f5f5"/>
    </g>
    <g id="Grupo_54836" data-name="Grupo 54836" transform="translate(68.805 9.323)">
      <path id="Trazado_103160" data-name="Trazado 103160" d="M230.373,97.5h-2.922a1.13,1.13,0,0,1-1.128-1.06l-1.177-18.906a1.13,1.13,0,0,1,1.128-1.2h5.277a1.13,1.13,0,0,1,1.128,1.2L231.5,96.439A1.13,1.13,0,0,1,230.373,97.5Zm-1.461,5.982a3.331,3.331,0,1,0,3.331,3.331A3.331,3.331,0,0,0,228.913,103.481Z" transform="translate(-225.144 -76.333)" fill="#b3009d"/>
    </g>
    <g id="Grupo_54837" data-name="Grupo 54837" transform="translate(82.077 0.916)">
      <path id="Trazado_103161" data-name="Trazado 103161" d="M337.47,7.5h-3.664a11.437,11.437,0,0,1,11.437,11.437V46.906a11.437,11.437,0,0,1-11.437,11.437h3.664a11.437,11.437,0,0,0,11.437-11.437V18.937A11.437,11.437,0,0,0,337.47,7.5Z" transform="translate(-333.806 -7.5)" fill="#ebe5ed"/>
    </g>
    <g id="Grupo_54838" data-name="Grupo 54838" transform="translate(70.742 36.472)">
      <path id="Trazado_103162" data-name="Trazado 103162" d="M242.832,298.607a3.314,3.314,0,0,0-1.832.55,3.33,3.33,0,0,1,0,5.563,3.331,3.331,0,1,0,1.832-6.112Z" transform="translate(-241 -298.607)" fill="#e600c9"/>
    </g>
    <g id="Grupo_54839" data-name="Grupo 54839" transform="translate(70.742 9.323)">
      <path id="Trazado_103163" data-name="Trazado 103163" d="M245.47,76.333h-3.664a1.13,1.13,0,0,1,1.128,1.2l-1.178,18.906a1.13,1.13,0,0,1-.757,1,1.124,1.124,0,0,0,.371.064h2.922a1.13,1.13,0,0,0,1.128-1.06L246.6,77.534A1.131,1.131,0,0,0,245.47,76.333Z" transform="translate(-241 -76.333)" fill="#e600c9"/>
    </g>
    <g id="Grupo_54840" data-name="Grupo 54840" transform="translate(67.889 8.407)">
      <path id="Trazado_103164" data-name="Trazado 103164" d="M223.791,91.832h-2.922a2.05,2.05,0,0,1-2.042-1.919l-1.178-18.906a2.046,2.046,0,0,1,2.042-2.174h5.277a2.046,2.046,0,0,1,2.042,2.173l-1.178,18.906A2.05,2.05,0,0,1,223.791,91.832Zm-4.1-21.166a.214.214,0,0,0-.214.228L220.655,89.8a.215.215,0,0,0,.214.2h2.922a.215.215,0,0,0,.214-.2l1.178-18.906a.214.214,0,0,0-.214-.228Z" transform="translate(-217.645 -68.834)" fill="#3c0061"/>
    </g>
    <g id="Grupo_54841" data-name="Grupo 54841" transform="translate(68.327 35.556)">
      <path id="Trazado_103165" data-name="Trazado 103165" d="M225.477,299.6a4.247,4.247,0,1,1,4.247-4.247A4.252,4.252,0,0,1,225.477,299.6Zm0-6.661a2.415,2.415,0,1,0,2.415,2.415A2.418,2.418,0,0,0,225.477,292.938Z" transform="translate(-221.23 -291.106)" fill="#3c0061"/>
    </g>
    <g id="Grupo_54842" data-name="Grupo 54842" transform="translate(47.053)">
      <path id="Trazado_103166" data-name="Trazado 103166" d="M85.742,0H59.407A12.367,12.367,0,0,0,47.054,12.353v6.174a.916.916,0,1,0,1.832,0V12.353A10.533,10.533,0,0,1,59.407,1.832H85.742A10.533,10.533,0,0,1,96.263,12.353V29.1a.916.916,0,0,0,1.832,0V12.353A12.367,12.367,0,0,0,85.742,0Z" transform="translate(-47.054)" fill="#3c0061"/>
      <path id="Trazado_103167" data-name="Trazado 103167" d="M97.178,184.759a.916.916,0,0,0-.916.916v7.558a10.533,10.533,0,0,1-10.521,10.521H78.977a2.474,2.474,0,0,0-2.259,1.468l-3.559,8.012a.64.64,0,0,1-1.17,0l-3.559-8.012a2.474,2.474,0,0,0-2.259-1.468H59.406a10.533,10.533,0,0,1-10.521-10.521V175.1a.916.916,0,1,0-1.832,0v18.131a12.367,12.367,0,0,0,12.353,12.353H66.17a.641.641,0,0,1,.585.38l3.559,8.012a2.472,2.472,0,0,0,4.519,0l3.559-8.012a.64.64,0,0,1,.585-.38h6.764a12.367,12.367,0,0,0,12.353-12.353v-7.558A.916.916,0,0,0,97.178,184.759Z" transform="translate(-47.053 -152.911)" fill="#3c0061"/>
    </g>
  </g>
</svg>
