<svg xmlns="http://www.w3.org/2000/svg" xmlns:xlink="http://www.w3.org/1999/xlink" width="248" height="245" viewBox="0 0 248 245">
  <defs>
    <filter id="Rectángulo_335075" x="0" y="0" width="248" height="245" filterUnits="userSpaceOnUse">
      <feOffset dy="3" input="SourceAlpha"/>
      <feGaussianBlur stdDeviation="3" result="blur"/>
      <feFlood flood-opacity="0.161"/>
      <feComposite operator="in" in2="blur"/>
      <feComposite in="SourceGraphic"/>
    </filter>
  </defs>
  <g id="_4" data-name="4" transform="translate(-1096 -836)">
    <g transform="matrix(1, 0, 0, 1, 1096, 836)" filter="url(#Rectángulo_335075)">
      <rect id="Rectángulo_335075-2" data-name="Rectángulo 335075" width="230" height="227" rx="26" transform="translate(9 6)" fill="#fff"/>
    </g>
    <g id="Grupo_736190" data-name="Grupo 736190" transform="translate(15 -698)">
      <rect id="Rectángulo_335072" data-name="Rectángulo 335072" width="192" height="192" transform="translate(1110 1561)" fill="none"/>
      <g id="Grupo_736184" data-name="Grupo 736184" transform="translate(954.563 1681.041)">
        <g id="Grupo_213547" data-name="Grupo 213547" transform="translate(180 -98.067)">
          <path id="Trazado_150571" data-name="Trazado 150571" d="M52.471,153.207l1.8-4.343,8.808,2.893c0-2.291.095-4.347-.054-6.386a3.126,3.126,0,0,0-1.156-1.867,9.692,9.692,0,0,1-3.641-9.024c.1-1,0-2.027.022-3.04.1-4,3.182-7.353,7.147-7.145a8.253,8.253,0,0,0,7.1-3.113c2.858-3.151,6-6.044,8.985-9.077a7.88,7.88,0,0,1,6.126-2.509c1.62.052,3.244-.024,4.865.022a7.26,7.26,0,0,1,7.113,7.1c.066,2.533.058,5.071,0,7.605a7.3,7.3,0,0,1-6.731,7.173c-2.345.217-2.85.915-3.022,3.266a5.367,5.367,0,0,0,2.155,5.173c.363.267.633.658.976.957,2.749,2.4,4.851,5.1,4.034,9.535l9.539-4.1c-2.048-2.189-2.091-4.646-2.086-7.168q.044-27.684.017-55.369c0-5.372,2.886-8.254,8.261-8.257,2.875,0,5.749,0,8.769,0V73.9c0-7.4.026-14.806-.04-22.208a3.345,3.345,0,0,0-.909-2.2c-2.627-2.433-5.367-4.743-8.076-7.1l-4.515,3.391-2.984-3.762,2.982-2.413c-2.863-1.313-5.547-2.593-8.286-3.739-.332-.139-1.092.338-1.421.727a1.7,1.7,0,0,0-.279,1.424c1.255,3.313,2.592,6.594,3.906,9.885,1.107,2.773,2.171,5.564,3.337,8.313a7.673,7.673,0,0,1-1.848,9.28c-2.217,2.153-4.371,4.37-6.74,6.745L84.478,50.4c-.459.422-.857.763-1.226,1.132-4.447,4.442-8.869,8.91-13.364,13.3a3.753,3.753,0,0,1-2.209.915c-1.864.13-3.743.042-5.828.042,1.226,3.077,2.362,6.036,3.595,8.955a1.8,1.8,0,0,1-.429,2.368c-3.346,3.244-6.608,6.573-10.044,10.015-.256-.571-.468-1-.647-1.447-1.543-3.853-3.12-7.693-4.592-11.573a3.479,3.479,0,0,0-2.206-2.232c-4.294-1.643-8.548-3.391-13.248-5.272.991-.9,1.816-1.6,2.581-2.353C39.42,61.723,41.992,59.2,44.48,56.6a1.806,1.806,0,0,1,2.364-.473c2.92,1.242,5.881,2.388,8.966,3.627,0-2.024.056-3.847-.022-5.664a3.054,3.054,0,0,1,1.024-2.522c4.408-4.338,8.763-8.729,13.134-13.1.386-.386.754-.791,1.276-1.341-2.316-1.289-4.5-2.52-6.709-3.713a1.328,1.328,0,0,0-.866-.028c-17.8,4.45-30.933,14.912-39.9,30.974,2.614,2.609,5.16,5.138,7.693,7.68a7.613,7.613,0,0,1-5.131,13.212c-2.936.049-5.872.01-9.116.01v9.662c3.169,0,6.5.1,9.814-.068a4.866,4.866,0,0,0,2.576-1.445c4.293-3.889,9.592-3.833,13.714.228.614.6,1.173,1.275,1.836,1.818,4.6,3.761,4.556,12.322.024,16.135a45.429,45.429,0,0,0-4.823,4.847,5.965,5.965,0,0,0-1.477,2.888c-.878,6.408-3.209,8.9-9.992,9.943l9.779,10.3-2.963,3.6c-15.852-13.969-23.991-31.307-23.6-52.384a63.549,63.549,0,0,1,13.212-37.81A65.671,65.671,0,0,1,58.045,29.807l-8.388-4.694c2.6-2.713,5.03-5.514,7.751-7.989,2.227-2.026,4.975-1.971,7.716-.865,5.912,2.385,11.845,4.718,17.737,7.151a2.094,2.094,0,0,0,2.743-.567c3.155-3.383,6.482-6.557,10.843-8.416A27.538,27.538,0,0,1,109.267,12.3,26.275,26.275,0,0,1,103,31.7c2.935,1.562,5.762,3.112,8.645,4.548a1.964,1.964,0,0,0,1.556-.368,173.212,173.212,0,0,1,21.62-12.637c1.31-.645,2.632-1.264,4.158-2l-9.88-4.972,2.165-4.346L147.583,20.1l-8.161,16.334-4.338-2.16,3.716-7.515a159.411,159.411,0,0,0-22.229,12.736l5.865,4.858c.288-.408.54-.762.79-1.117a9.717,9.717,0,0,1,17.723,5.443c.041,8.264.013,16.529.014,24.794v2.058h3.777c1.977,0,3.954-.026,5.93.007a7.212,7.212,0,0,1,7.3,7.212q.055,29.281,0,58.563c-.008,4.181-3.268,7.224-7.594,7.231-12.214.018-24.429-.013-36.643.042a6.443,6.443,0,0,0-2.965.81q-27.241,15.137-56.533,4.57c-.566-.2-1.108-.473-1.767-.757m100.657-41.149q0-14.147,0-28.294c0-2.6-.754-3.365-3.326-3.366q-18.55,0-37.1,0c-2.605,0-3.364.749-3.364,3.325q0,28.294,0,56.587c0,2.6.754,3.369,3.323,3.369q18.55,0,37.1,0c2.6,0,3.366-.758,3.367-3.328q.005-14.147,0-28.293M60.677,60.925c1.823,0,3.445.088,5.05-.04a3.587,3.587,0,0,0,2.078-.867c3.6-3.494,7.123-7.064,10.67-10.609l7.084-7.081L97.8,64.322a17.645,17.645,0,0,1,1.751-1.9c1.709-1.35,1.837-2.837,1.009-4.823-2.8-6.722-5.426-13.52-8.178-20.264a1.836,1.836,0,0,1,.47-2.36c2.511-2.5,5.067-4.976,7.343-7.682a18.091,18.091,0,0,0,4.037-9.907,13.581,13.581,0,0,0-1.5.136,20.438,20.438,0,0,0-10.011,5.116c-2.023,1.915-4,3.878-5.921,5.9a2.078,2.078,0,0,1-2.721.6Q73.777,24.881,63.377,20.86a3.769,3.769,0,0,0-2.835.034,19.71,19.71,0,0,0-3.259,2.9L79.5,36.156a17.324,17.324,0,0,0-1.512,1.183Q69.75,45.55,61.553,53.8a2.658,2.658,0,0,0-.836,1.49c-.1,1.81-.039,3.63-.039,5.639m31.56,90.715c.157-5.322.344-4.124-2.562-7.14a10.785,10.785,0,0,0-.97-.962c-2.885-2.312-3.932-5.281-3.751-8.971.228-4.633,2.648-7.479,7.263-7.926a2.441,2.441,0,0,0,2.508-2.652q.058-3.419,0-6.839a2.428,2.428,0,0,0-2.633-2.668c-1.417-.038-2.839.047-4.253-.026a3.791,3.791,0,0,0-3.094,1.269c-3.586,3.648-7.233,7.235-10.833,10.87a7.744,7.744,0,0,1-5.976,2.485c-.658-.021-1.317-.014-1.975,0-1.968.041-2.819.911-2.85,2.919a22.965,22.965,0,0,1-.02,2.581,5.621,5.621,0,0,0,2.208,5.452,7.575,7.575,0,0,1,2.69,6.487c-.074,2.008-.015,4.021-.015,6.089a60.328,60.328,0,0,0,24.262-.967M17.4,99.869c.066.738.083,1.245.16,1.742a61.328,61.328,0,0,0,6.5,19.654c1.6,3.006,1.6,3.006,5.048,2.943,2.878-.053,4.672-1.73,4.791-4.583a9.627,9.627,0,0,1,2.917-6.646,70.953,70.953,0,0,1,5.083-5.016c2.292-1.868,2.4-7.074-.017-8.868a22.064,22.064,0,0,1-2.055-2.026c-2.21-2.149-4.639-2.226-6.832-.117a9.98,9.98,0,0,1-7.41,2.925c-2.677-.049-5.356-.011-8.188-.011M136.044,75.456c.022-.355.051-.6.051-.845q0-12.848,0-25.695a5.383,5.383,0,0,0-.16-1.35,4.847,4.847,0,0,0-9.551,1.256c-.028,8.514-.011,17.029-.012,25.543v1.091Zm-92.72-10.48c2.141.858,4.149,1.837,6.261,2.463a6,6,0,0,1,4.523,4.469,63.885,63.885,0,0,0,2.547,6.419,3.411,3.411,0,0,0,.438-.251c3.244-2.947,3.248-2.949,1.615-7-.774-1.919-1.12-4.281-2.473-5.62-1.4-1.38-3.772-1.775-5.731-2.575-4.125-1.684-4.128-1.677-7.068,1.77a1.755,1.755,0,0,0-.112.322M17.934,80.387c3.051,0,5.778.08,8.5-.025,2.186-.084,3.507-2.591,2.095-4.166-2.171-2.421-4.645-4.572-7.155-7L17.934,80.387" transform="translate(-12.062 -11.933)"/>
          <path id="Trazado_150572" data-name="Trazado 150572" d="M88.915,232.416l-4.806-.726c3.978-36.216,17.7-68.047,41.83-95.506l3.643,3.22c-23.449,26.646-36.8,57.669-40.668,93.011" transform="translate(-54.84 -85.707)"/>
          <path id="Trazado_150573" data-name="Trazado 150573" d="M178.585,186.432c1.621,0,3.242-.037,4.862.01a4.816,4.816,0,0,1,4.782,4.735c.066,2.532.071,5.068,0,7.6-.077,2.581-2.133,4.856-4.675,4.6a7.5,7.5,0,0,0-7.135,3.174,5.027,5.027,0,0,1-4.327,1.792c-1.67-.053-3.344-.056-5.014,0-2.359.078-4.3-.744-5.142-2.982-.891-2.363-.878-4.8,1.04-6.81,1.645-1.721,3.393-3.343,5.012-5.086a3.107,3.107,0,0,0,.767-1.821c.152-3.23,2.074-5.187,5.274-5.214,1.519-.013,3.039,0,4.558,0m-4.989,4.933c.391,2.578-.719,4.339-2.427,5.894-1.421,1.294-2.775,2.67-4.074,4.087a10.242,10.242,0,0,0-1.107,2.123,16.744,16.744,0,0,1,2.237.013,7.165,7.165,0,0,0,7.467-3.026,4.91,4.91,0,0,1,4.438-1.865c1.044.051,2.093.009,3.147.009v-7.236Z" transform="translate(-100.708 -115.533)"/>
          <rect id="Rectángulo_48679" data-name="Rectángulo 48679" width="7.109" height="4.68" transform="translate(102.261 141.591)"/>
          <rect id="Rectángulo_48680" data-name="Rectángulo 48680" width="7.163" height="4.657" transform="translate(131.39 141.576)"/>
          <path id="Trazado_150575" data-name="Trazado 150575" d="M126.766,68.9c0-2.009-.062-3.829.039-5.639a2.66,2.66,0,0,1,.836-1.49q8.188-8.255,16.43-16.457a17.324,17.324,0,0,1,1.512-1.183L123.372,31.766a19.71,19.71,0,0,1,3.259-2.9,3.769,3.769,0,0,1,2.835-.034q10.4,4.025,20.706,8.277a2.078,2.078,0,0,0,2.721-.6c1.916-2.022,3.9-3.985,5.921-5.9A20.44,20.44,0,0,1,168.824,25.5a13.582,13.582,0,0,1,1.5-.137,18.091,18.091,0,0,1-4.037,9.907c-2.276,2.706-4.832,5.183-7.343,7.682a1.835,1.835,0,0,0-.471,2.36c2.753,6.744,5.375,13.542,8.178,20.264.828,1.986.7,3.473-1.009,4.823a17.689,17.689,0,0,0-1.751,1.9L151.649,50.3l-7.084,7.081c-3.547,3.546-7.072,7.116-10.67,10.609a3.587,3.587,0,0,1-2.078.867c-1.6.128-3.227.04-5.05.04" transform="translate(-78.152 -19.908)" fill="#f0c956"/>
          <path id="Trazado_150576" data-name="Trazado 150576" d="M166.723,301.469a60.327,60.327,0,0,1-24.262.967c0-2.067-.06-4.081.015-6.089a7.574,7.574,0,0,0-2.69-6.487,5.622,5.622,0,0,1-2.209-5.452,23.066,23.066,0,0,0,.021-2.581c.03-2.008.882-2.879,2.85-2.919.658-.014,1.317-.021,1.974,0a7.744,7.744,0,0,0,5.977-2.485c3.6-3.635,7.247-7.222,10.833-10.87a3.792,3.792,0,0,1,3.094-1.269c1.414.074,2.836-.012,4.253.026a2.429,2.429,0,0,1,2.634,2.668q.055,3.419,0,6.839a2.441,2.441,0,0,1-2.508,2.652c-4.615.447-7.035,3.293-7.263,7.926-.182,3.69.866,6.659,3.751,8.971a10.731,10.731,0,0,1,.97.962c2.906,3.016,2.719,1.818,2.562,7.14" transform="translate(-86.549 -161.761)" fill="#ffb338"/>
          <path id="Trazado_150577" data-name="Trazado 150577" d="M25.206,221.878c2.832,0,5.511-.039,8.188.011a9.983,9.983,0,0,0,7.41-2.925c2.194-2.11,4.623-2.033,6.832.117a22.117,22.117,0,0,0,2.055,2.026c2.416,1.793,2.309,7,.018,8.867a71.04,71.04,0,0,0-5.084,5.016,9.628,9.628,0,0,0-2.917,6.646c-.119,2.853-1.913,4.53-4.791,4.582-3.45.063-3.449.063-5.049-2.943a61.338,61.338,0,0,1-6.5-19.654c-.076-.5-.094-1-.16-1.742" transform="translate(-19.866 -133.942)" fill="#ffb338"/>
          <path id="Trazado_150579" data-name="Trazado 150579" d="M89.012,137.839a1.755,1.755,0,0,1,.112-.322c2.94-3.446,2.943-3.453,7.068-1.77,1.959.8,4.336,1.195,5.731,2.575,1.353,1.339,1.7,3.7,2.473,5.62,1.633,4.048,1.629,4.049-1.615,7a3.351,3.351,0,0,1-.438.251,63.978,63.978,0,0,1-2.546-6.419,6,6,0,0,0-4.523-4.469c-2.113-.625-4.12-1.6-6.261-2.463" transform="translate(-57.751 -84.795)" fill="#f0c956"/>
          <path id="Trazado_150580" data-name="Trazado 150580" d="M26.516,164.08l3.437-11.189c2.511,2.426,4.984,4.576,7.155,7,1.412,1.575.091,4.082-2.095,4.166-2.72.1-5.447.025-8.5.025" transform="translate(-20.644 -95.626)" fill="#ffb338"/>
          <path id="Trazado_150581" data-name="Trazado 150581" d="M180.357,198.594h9.681v7.236c-1.054,0-2.1.042-3.147-.009a4.91,4.91,0,0,0-4.438,1.865,7.165,7.165,0,0,1-7.467,3.026,16.745,16.745,0,0,0-2.237-.013,10.243,10.243,0,0,1,1.107-2.123c1.3-1.417,2.652-2.793,4.074-4.087,1.708-1.555,2.818-3.315,2.427-5.894" transform="translate(-107.469 -122.762)" fill="#ffb338"/>
          <rect id="Rectángulo_48681" data-name="Rectángulo 48681" width="4.682" height="53.354" transform="translate(104.677 73.402)"/>
          <rect id="Rectángulo_48682" data-name="Rectángulo 48682" width="4.686" height="53.354" transform="translate(116.813 73.454)"/>
          <rect id="Rectángulo_48683" data-name="Rectángulo 48683" width="4.686" height="53.354" transform="translate(128.978 73.454)"/>
        </g>
      </g>
    </g>
  </g>
</svg>
