<svg xmlns="http://www.w3.org/2000/svg" width="99.525" height="99.604" viewBox="0 0 99.525 99.604">
  <g id="_5" data-name="5" transform="translate(-0.001 0)">
    <path id="Trazado_632741" data-name="Trazado 632741" d="M113.681,164.26a32.21,32.21,0,1,0-32.21,32.3A32.253,32.253,0,0,0,113.681,164.26Zm0,0" transform="translate(-39.678 -106.293)" fill="#97c9e8"/>
    <path id="Trazado_632742" data-name="Trazado 632742" d="M194.691,131.965a32.383,32.383,0,0,0-4.863.366,32.313,32.313,0,0,1,0,63.858,32.29,32.29,0,1,0,4.863-64.224Zm0,0" transform="translate(-152.899 -106.292)" fill="#60b6ff"/>
    <g id="Grupo_736191" data-name="Grupo 736191" transform="translate(9.584 25.737)">
      <path id="Trazado_632743" data-name="Trazado 632743" d="M164.952,144.782c-4.962,3.109-8.683,8.084-5.892,13.681s8.993,3.42,14.73,2.643,1.4,16.945,4.806,21.3,13.024-4.354,12.094-9.95c-1.377-8.286-1.86-11.194,9.3-17.1l.03-.011A32.246,32.246,0,0,0,171.156,132.3l0,.049s-1.24,9.328-6.2,12.438Zm0,0" transform="translate(-136.929 -132.296)" fill="#baeb6c"/>
      <path id="Trazado_632744" data-name="Trazado 632744" d="M318.566,168.6l.006,0Zm0,0" transform="translate(-266.176 -161.536)" fill="#baeb6c"/>
      <path id="Trazado_632745" data-name="Trazado 632745" d="M338.809,187.961l0,0Zm0,0" transform="translate(-282.481 -177.132)" fill="#baeb6c"/>
      <path id="Trazado_632746" data-name="Trazado 632746" d="M60.074,265.992c-1.49-2.272,2.635-7.617,3.566-11.659s-4.652-3.731-6.357-5.13-4.031-7.462-5.737-8.861l-.273-.216A32.386,32.386,0,0,0,62.389,277.4l.01-.677a14.866,14.866,0,0,0-2.325-10.728Zm0,0" transform="translate(-49.262 -219.148)" fill="#baeb6c"/>
      <path id="Trazado_632747" data-name="Trazado 632747" d="M314.454,338.227c-.007-.04-.014-.08-.02-.121a32.141,32.141,0,0,1-2.676,7.089C313.591,343.033,314.815,340.4,314.454,338.227Zm0,0" transform="translate(-260.692 -298.068)" fill="#baeb6c"/>
    </g>
    <path id="Trazado_632748" data-name="Trazado 632748" d="M223.66,132.3l0,.049s-.1.779-.37,1.96a32.307,32.307,0,0,1,20.7,27.255c1.423-1.947,4.027-3.835,8.509-6.206l.03-.011A32.247,32.247,0,0,0,223.661,132.3Zm0,0" transform="translate(-179.85 -106.56)" fill="#96d629"/>
    <path id="Trazado_632749" data-name="Trazado 632749" d="M64.575,43.011C49,40.368,39.336,20.757,39.336,20.757S54.927,5.43,70.5,8.072,95.742,30.326,95.742,30.326,80.15,45.653,64.575,43.011Zm0,0" transform="translate(-31.683 -6.255)" fill="#49cb5c"/>
    <path id="Trazado_632750" data-name="Trazado 632750" d="M163.053,8.078a24.18,24.18,0,0,0-8.814.221c14.924,3.351,24.131,22.032,24.131,22.032s-10.206,10.031-22.353,12.463c.366.083.735.158,1.108.222,15.575,2.642,31.167-12.685,31.167-12.685S178.629,10.72,163.053,8.078Zm0,0" transform="translate(-124.232 -6.26)" fill="#07b128"/>
    <path id="Trazado_632751" data-name="Trazado 632751" d="M378.6,36.365c4.179-9.887,18.656-13.217,18.656-13.217s7.7,12.7,3.525,22.589-18.656,13.216-18.656,13.216-7.7-12.7-3.525-22.589Zm0,0" transform="translate(-303.943 -18.645)" fill="#49cb5c"/>
    <path id="Trazado_632752" data-name="Trazado 632752" d="M411.318,23.148a38.737,38.737,0,0,0-7.19,2.622c2,4.237,5.17,12.834,2.155,19.967-2.186,5.172-7.19,8.549-11.466,10.594.772,1.635,1.37,2.622,1.37,2.622s14.478-3.328,18.656-13.216-3.525-22.589-3.525-22.589Zm0,0" transform="translate(-318.009 -18.645)" fill="#07b128"/>
    <path id="Trazado_632753" data-name="Trazado 632753" d="M98.028,11.609a40.075,40.075,0,0,0-3.472-7.9,1.488,1.488,0,0,0-1.575-.665A40.11,40.11,0,0,0,84.9,6.059c-5.735,2.863-9.741,6.686-11.587,11.053-1.537,3.636-1.757,8.083-.667,12.994a41.388,41.388,0,0,0-7.78-6.771A60.26,60.26,0,0,0,58.1,12.97a1.46,1.46,0,0,0-2.265,1.841,58.374,58.374,0,0,1,5.384,7.919L47.929,20.139,35.3,2.914a20.624,20.624,0,0,1,3.681.376,25.193,25.193,0,0,1,11.4,5.875,1.46,1.46,0,0,0,1.893-2.221A28.07,28.07,0,0,0,39.542.426C32.856-.882,25.059.835,16.991,5.395a58.225,58.225,0,0,0-10.2,7.288,1.544,1.544,0,0,0-.173,2,59.543,59.543,0,0,0,6.544,10.273,45.63,45.63,0,0,0,6.9,7.09q-1.019.854-1.981,1.792A33.733,33.733,0,0,0,28.988,89.208a1.46,1.46,0,0,0,1.1-2.7,30.8,30.8,0,0,1-6.312-3.472A16.44,16.44,0,0,0,21.3,71.524c-.463-.72.92-3.55,1.746-5.24a27.4,27.4,0,0,0,2.143-5.238,3.993,3.993,0,0,0-1.42-4.374A10.768,10.768,0,0,0,20.3,55.134a7.45,7.45,0,0,1-1.906-.746,19.416,19.416,0,0,1-2.47-4.02,24.958,24.958,0,0,0-2.667-4.383,31.029,31.029,0,0,1,9.211-12.136A25.515,25.515,0,0,0,34.76,38.418c-5.157,4-6.825,9.1-4.44,14,2.784,5.723,8.515,4.809,13.571,4,.875-.14,1.78-.284,2.647-.392.325-.041.423.048.489.106,1.107.985,1.075,5.689,1.051,9.124-.033,4.751-.063,9.238,1.707,11.542a4.454,4.454,0,0,0,3.664,1.775,7.359,7.359,0,0,0,2.881-.651c4.4-1.885,8.975-7.557,8.278-12.045-.61-3.923-1.014-6.516-.062-8.605.88-1.934,3.006-3.724,7.194-6.009a30.812,30.812,0,0,1-33.483,37.3,1.46,1.46,0,0,0-.319,2.9,33.916,33.916,0,0,0,27.311-9.414,33.71,33.71,0,0,0-5.19-52.359c1.928-1.375,3.364-2.563,4.161-3.253a38.741,38.741,0,1,1-60.772,25.2A1.46,1.46,0,0,0,.567,51.16,41.647,41.647,0,0,0,34.875,99.038a42.176,42.176,0,0,0,6.876.566A41.675,41.675,0,0,0,79.863,41.323a42,42,0,0,0,6.728-2.65c5.734-2.863,9.741-6.686,11.586-11.053s1.795-9.9-.149-16.012ZM13.339,51.73c1.086,2.059,2.113,4,3.18,4.9a8.361,8.361,0,0,0,2.92,1.3c2.852.877,3.183,1.307,2.91,2.435A25.483,25.483,0,0,1,20.421,65c-1.507,3.083-2.93,5.994-1.581,8.1a13.876,13.876,0,0,1,2.208,7.742,31.1,31.1,0,0,1-8.993-31.466c.429.736.881,1.591,1.284,2.354Zm70.6-28.675L79.789,13.006A27.31,27.31,0,0,1,86.142,8.7a38.985,38.985,0,0,1,4.61-1.941ZM93.442,7.89a39.007,39.007,0,0,1,1.825,4.665,27.893,27.893,0,0,1,1.321,7.035L86.871,23.6ZM76,18.248a13.864,13.864,0,0,1,1.629-2.832l4.721,11.438L78.11,36.983a38.816,38.816,0,0,1-1.891-4.8c-1.193-3.772-2.2-9.252-.223-13.93Zm9.348,17.786a38.807,38.807,0,0,1-4.465,1.89l4.4-10.51L96.465,22.8a14.092,14.092,0,0,1-.976,3.688c-1.977,4.678-6.607,7.776-10.145,9.549ZM32.73,35.2c-.516-.1-1.024-.224-1.526-.365L47.353,23l13.3,2.592C55.807,29.409,44.018,37.415,32.73,35.2Zm-14.759-9.13a56.815,56.815,0,0,1-7.439-10.251l16.922,3.3ZM20.96,6.606l7.08,9.657-17.031-3.32A57.483,57.483,0,0,1,20.96,6.606Zm11.3,10.48L23.678,5.378a32.821,32.821,0,0,1,8.155-2.257l11.874,16.2Zm-.908,2.8,12.1,2.359L27.923,33.626a30.186,30.186,0,0,1-7.871-5.459ZM70.946,48.376c-5.26,2.8-7.836,5-9.058,7.69-1.312,2.883-.831,5.978-.166,10.262.393,2.526-2.609,7.229-6.542,8.914-1.455.623-2.492.549-3.082-.22-1.16-1.508-1.128-6.076-1.1-9.744.034-5.076.065-9.46-2.03-11.324a3.44,3.44,0,0,0-2.787-.821c-.917.114-1.848.262-2.747.406-5.364.855-8.739,1.2-10.488-2.4-2.833-5.823,2.9-10.135,5.5-11.719A9.237,9.237,0,0,0,39.918,38.3c6.277-.75,12.208-3.443,17.493-6.816a30.971,30.971,0,0,1,13.535,16.9Zm0,0" transform="translate(0)"/>
  </g>
</svg>
