<svg xmlns="http://www.w3.org/2000/svg" xmlns:xlink="http://www.w3.org/1999/xlink" width="91.125" height="90.974" viewBox="0 0 91.125 90.974">
  <defs>
    <clipPath id="clip-path">
      <rect id="Rectángulo_40212" data-name="Rectángulo 40212" width="91.125" height="90.974" fill="none"/>
    </clipPath>
  </defs>
  <g id="_6" data-name="6" transform="translate(-333.15 -1576.01)">
    <g id="Grupo_926809" data-name="Grupo 926809" transform="translate(333.15 1576.01)">
      <circle id="Elipse_4803" data-name="Elipse 4803" cx="43.963" cy="43.963" r="43.963" transform="translate(1.599 1.494)" fill="#fff"/>
      <g id="Grupo_211670" data-name="Grupo 211670" transform="translate(0 0)">
        <g id="Grupo_211669" data-name="Grupo 211669" clip-path="url(#clip-path)">
          <path id="Trazado_146009" data-name="Trazado 146009" d="M45.3,0A45.487,45.487,0,1,0,91.125,45.37,45.564,45.564,0,0,0,45.3,0M45.27,89.185A43.7,43.7,0,1,1,89.325,45.554,43.713,43.713,0,0,1,45.27,89.185" transform="translate(0 0)" fill="#406834"/>
        </g>
      </g>
    </g>
    <g id="tierra" transform="translate(354.707 1596.994)">
      <path id="Trazado_632754" data-name="Trazado 632754" d="M48,30.937a3.971,3.971,0,0,0-6.835-2.491l-.657.689A16.894,16.894,0,0,0,29.718,9.626a6.587,6.587,0,0,0,1.45-1.093,7.049,7.049,0,0,0,1.639-7.08.938.938,0,0,0-.623-.623A7.05,7.05,0,0,0,25.1,2.469a6.612,6.612,0,0,0-1.288,1.825,5.538,5.538,0,0,0-.524-.606,5.892,5.892,0,0,0-5.917-1.373.937.937,0,0,0-.623.623,5.892,5.892,0,0,0,1.373,5.917,5.538,5.538,0,0,0,.7.59A16.905,16.905,0,0,0,8.1,31.225a14.017,14.017,0,0,0-5.966,3.264L.3,36.175a.938.938,0,0,0,1.271,1.379L3.4,35.868A12.138,12.138,0,0,1,9.52,32.833l.059-.011a12.181,12.181,0,0,1,8.429,1.612l1.6.979a.938.938,0,0,0,.489.138h7.791a2.11,2.11,0,1,1,0,4.22H20.157a.938.938,0,1,0,0,1.875h8.618a5.587,5.587,0,0,0,4.021-1.72l5.971-6.253.005-.005,3.751-3.928a2.1,2.1,0,0,1,3.086,2.837l-8.991,10.16a11.551,11.551,0,0,1-8.644,3.893H.938a.938.938,0,1,0,0,1.875H27.973a13.426,13.426,0,0,0,10.049-4.526l8.991-10.16A3.943,3.943,0,0,0,48,30.937ZM26.429,3.8A5.12,5.12,0,0,1,31.14,2.5a5.12,5.12,0,0,1-1.3,4.711,4.977,4.977,0,0,1-3.505,1.419l1.54-1.54A.938.938,0,1,0,26.55,5.761L25.01,7.3A4.975,4.975,0,0,1,26.429,3.8Zm-8.007.19a3.959,3.959,0,0,1,3.543,1.028,3.8,3.8,0,0,1,1.071,2.26l-.865-.864a.938.938,0,0,0-1.326,1.326l.864.864a3.8,3.8,0,0,1-2.26-1.071,3.96,3.96,0,0,1-1.028-3.543ZM12.576,15.794a4.156,4.156,0,0,0,4.109,3.568,3.132,3.132,0,1,1,0,6.265h-7.7c0-.034,0-.067,0-.1a14.951,14.951,0,0,1,3.589-9.732Zm6.411,17.041a14.057,14.057,0,0,0-9.021-1.964A14.845,14.845,0,0,1,9.115,27.5h7.57a5.008,5.008,0,1,0,0-10.015,2.278,2.278,0,0,1-2.275-2.275v-1.23a14.987,14.987,0,0,1,18.368-.638H27.516a3.88,3.88,0,0,0,0,7.759h2.957a1.408,1.408,0,1,1,0,2.816,6.194,6.194,0,0,0-6.187,6.187v1.156a7.355,7.355,0,0,0,.41,2.415H20.362Zm12.848,5.384a3.983,3.983,0,0,0-3.946-4.543H26.724a5.479,5.479,0,0,1-.562-2.415V30.106a4.317,4.317,0,0,1,4.312-4.312,3.283,3.283,0,1,0,0-6.567H27.517a2,2,0,1,1,0-4.008h7.4a15.007,15.007,0,0,1,2.405,17.252Zm0,0" transform="translate(0 0)" fill="#406834"/>
      <path id="Trazado_632755" data-name="Trazado 632755" d="M161.561,420.936a.937.937,0,1,0-.663.275A.947.947,0,0,0,161.561,420.936Zm0,0" transform="translate(-144.961 -379.563)" fill="#406834"/>
    </g>
  </g>
</svg>
