<svg xmlns="http://www.w3.org/2000/svg" width="73.93" height="99.604" viewBox="0 0 73.93 99.604">
  <g id="_8" data-name="8" transform="translate(-65.98 -0.001)">
    <g id="Grupo_927256" data-name="Grupo 927256" transform="translate(67.924 1.936)">
      <path id="Trazado_632865" data-name="Trazado 632865" d="M112.751,57.8h57.909a2.846,2.846,0,0,1,.371-2.234c3.852-5.744,1.157-8.4-2.687-8.8-3.058-.319-6.544-.114-7.264-1.236-2.57-4.006-4.72-4.8-7.14-5.048-16.276-1.685-7.506-7.77-12.519-10.352-6.095-3.139,3.095-13.9,9.719-14.183,4.341-.184-.839-11.918-11.53-2.087-1.811,1.665-7.6,3.273-10.765,4.2-3.649,1.071-1.738,2.483-4.764,7.018-2.918,4.373-2.534.451-3.905,3.155-1.722,3.4-3.31,3.8-4.584,3.9-3.572.277-6.875,6.574-4.436,10.039,2.675,3.8.864,13.447,1.228,14.337A6.414,6.414,0,0,1,112.751,57.8Z" transform="translate(-103.633 -9.943)" fill="#ffc144" fill-rule="evenodd"/>
      <path id="Trazado_632866" data-name="Trazado 632866" d="M143,255.943H85.09c.7,3.88-1.477,9.308-4.718,9.5-6.174.367-1.857,3.085-3.891,4.319-1.917,1.162,2.147,4.784,2.844,4.756,4.355-.173,8.62,8.453,11.1,4.194.31-.532,2.756.117,5.4,1.161h34.164c.963-2.215,3.266-1.241,4.129-2.9,1.5-2.889-1.872-5.376.246-6.645,4.2-2.514,6.647,4.316,10.6,1.975,3.4-2.014-2.678-8.165-.782-10.28C145.543,260.5,143.434,258.16,143,255.943Z" transform="translate(-75.972 -208.082)" fill="#60a4ff" fill-rule="evenodd"/>
      <path id="Trazado_632867" data-name="Trazado 632867" d="M212.189,378.943H178.025c3.33,1.313,6.979,3.248,7.1,4.24.465,3.8,2.88,1.56,2.83,3.242-.119,3.994,2.868,2.542,3.026,3.689.746,5.412,7.659,2.694,9.354,2.5,7.995-.934,4.294,11.039,9.091,10.225s2.233-6.635,2.951-11.5c.5-3.364,2.008-3.683.974-7.461-.661-2.416-1.919-3.092-1.191-4.865Z" transform="translate(-158.17 -307.151)" fill="#ff5a58" fill-rule="evenodd"/>
    </g>
    <path id="Trazado_632868" data-name="Trazado 632868" d="M114.246,204.836a1.946,1.946,0,0,0,1.946-1.946h0a1.946,1.946,0,1,0-1.946,1.947Z" transform="translate(-37.308 -161.848)"/>
    <path id="Trazado_632869" data-name="Trazado 632869" d="M139.853,63.447a15.439,15.439,0,0,0-1.253-3.8,11.546,11.546,0,0,1-.9-2.612c1.571-1.914.544-4.214-.141-5.748-.559-1.252-.931-2.174-.619-2.64,2.181-3.252,2.75-6.047,1.69-8.309-.923-1.97-2.979-3.216-5.791-3.51-.873-.091-1.753-.14-2.6-.188a17.879,17.879,0,0,1-3.359-.371c-2.825-4.312-5.423-5.412-8.443-5.725-5.24-.542-7.319-1.526-8.14-2.255-.684-.608-.733-1.238-.77-2.493-.047-1.575-.117-3.956-2.919-5.4-.715-.368-1.135-.87-.86-2.121.732-3.325,5.908-8.224,9.77-8.387a3.4,3.4,0,0,0,3.276-2.6c.551-2.179-.8-4.872-3.134-6.265-1.709-1.019-6.405-2.726-13.072,3.4C101.226,5.67,95.842,7.241,93.254,8l-.669.2c-2.923.858-3.549,2.241-4.115,4.1a12.441,12.441,0,0,1-1.72,3.7,9.682,9.682,0,0,1-.97,1.274c-1.857-.277-2.714,1.415-3.052,2.081-1.378,2.718-2.353,2.793-3,2.843a7.017,7.017,0,0,0-4.853,2.933,9.953,9.953,0,0,0-2.109,7.486A1.946,1.946,0,1,0,76.6,31.96a6.145,6.145,0,0,1,1.342-4.439,3.38,3.38,0,0,1,2.084-1.446c1.751-.135,4.022-.81,6.1-4.833,1.492-.046,2.647-1.275,3.855-3.085a16.271,16.271,0,0,0,2.206-4.732c.355-1.167.355-1.167,1.488-1.5l.662-.194c4.662-1.36,9-2.723,10.872-4.443,3.307-3.041,6.369-4.117,8.4-2.953a2.873,2.873,0,0,1,1.37,1.688,14.842,14.842,0,0,0-8.033,3.882,15.088,15.088,0,0,0-5.011,7.533,5.441,5.441,0,0,0,2.879,6.417c.684.352.767.563.811,2.054a6.644,6.644,0,0,0,2.075,5.287c1.867,1.658,5.147,2.68,10.323,3.216,1.777.184,3.433.624,5.7,4.163,1.062,1.656,3.366,1.784,6.283,1.948.8.045,1.637.092,2.416.173,1.361.142,2.36.625,2.671,1.291.422.9-.088,2.538-1.4,4.492a4.5,4.5,0,0,0-.625,1.373H77.041a1.946,1.946,0,0,0-1.914,2.293,8.635,8.635,0,0,1-1.486,6.231,2.333,2.333,0,0,1-1.432.98c-2.474.147-3.878.661-4.694,1.719a3.622,3.622,0,0,0-.495,3.1l.011.055a3,3,0,0,0-.894,3.29c.547,1.815,3.328,4.877,5.217,4.8h.054c1.147,0,2.8,1.416,4.141,2.557,1.81,1.546,3.525,3.006,5.509,2.8h.066a1.933,1.933,0,0,0,1.01-.285,3.89,3.89,0,0,0,1.326-1,26.922,26.922,0,0,1,4.815,1.653,20.975,20.975,0,0,1,4.734,2.583c.411,2.427,1.636,3.273,2.79,3.592A4.1,4.1,0,0,0,99,86.118a5.292,5.292,0,0,0,2.1,3.039c2.541,1.738,6.121.886,8.261.376.371-.088.792-.189.951-.207,2.391-.28,3,.784,3.858,4.589a13.109,13.109,0,0,0,1.18,3.638,3.776,3.776,0,0,0,3.372,2.051,4.665,4.665,0,0,0,.781-.068,5.054,5.054,0,0,0,4.316-3.758,15.758,15.758,0,0,0,.216-5.1,21.483,21.483,0,0,1,.018-4.271,10.145,10.145,0,0,1,.659-2.346,8.09,8.09,0,0,0,.267-5.913,12.98,12.98,0,0,0-.97-2.439c-.426-.862-.419-.879-.3-1.174.139-.339.215-.4,1.069-.655a4.409,4.409,0,0,0,3.016-2.16,6.481,6.481,0,0,0,.012-5.433c-.063-.184-.139-.407-.194-.594.79-.339,1.464-.018,3.083,1.075,1.674,1.131,4.2,2.839,7.205,1.059a4.105,4.105,0,0,0,1.949-4.38Zm-18.776,19.23a13.929,13.929,0,0,0-.871,3.16,24.709,24.709,0,0,0-.053,5.073c.246,4.079-.046,4.577-1.3,4.789l-.073.01a10.4,10.4,0,0,1-.813-2.648,14.064,14.064,0,0,0-1.871-5.087,6.01,6.01,0,0,0-5.173-2.578,9.127,9.127,0,0,0-1.062.064,13.014,13.014,0,0,0-1.4.287c-1.312.312-4.043.963-5.162.2a1.69,1.69,0,0,1-.638-1.314,2.772,2.772,0,0,0-2.435-2.222,3.387,3.387,0,0,1-.46-.123,2.467,2.467,0,0,1-.114-1.02A2.566,2.566,0,0,0,97.082,78.5l-.108-.012a3.336,3.336,0,0,1-.164-.758,3.144,3.144,0,0,0-1.272-2.058h24.3a7.475,7.475,0,0,0,.68,1.758,9.2,9.2,0,0,1,.706,1.743A4.365,4.365,0,0,1,121.078,82.677Zm14.927-18.26a.357.357,0,0,1-.086.063c-.741.44-1.225.291-3.043-.937-1.738-1.174-4.364-2.948-7.56-1.033-2.417,1.447-1.587,3.871-1.189,5.036.354,1.036.556,1.708.222,2.37a4.242,4.242,0,0,1-.664.23,5.345,5.345,0,0,0-2.814,1.636H88.145a26.04,26.04,0,0,0-3.806-1.187c-.749-.154-2.739-.563-3.644.993a1.9,1.9,0,0,1-.118.181,13.318,13.318,0,0,1-2.5-1.854c-1.854-1.584-3.94-3.366-6.4-3.484a7.718,7.718,0,0,1-1.6-1.632,3.489,3.489,0,0,0,.771-3.35,8.848,8.848,0,0,1,1.6-.209A5.882,5.882,0,0,0,76.7,58.78a12.514,12.514,0,0,0,2.41-7.037h54.411c.158.407.328.787.481,1.13a7.588,7.588,0,0,1,.636,1.75c-1.616,1.865-.554,4.353.383,6.55.354.83,1.183,2.775.983,3.245Z" transform="translate(0 0)"/>
  </g>
</svg>
