<svg id="atencion" xmlns="http://www.w3.org/2000/svg" width="103" height="103" viewBox="0 0 103 103">
  <circle id="Elipse_4802" data-name="Elipse 4802" cx="51.5" cy="51.5" r="51.5" fill="#ffb338" opacity="0.25"/>
  <path id="Trazado_142110" data-name="Trazado 142110" d="M31.5,0A31.5,31.5,0,1,1,0,31.5,31.5,31.5,0,0,1,31.5,0Z" transform="translate(20.47 20)" fill="#eb6f2d"/>
  <path id="Trazado_681411" data-name="Trazado 681411" d="M11,30.546h-5.6L4.524,10.141h7.362ZM4.319,36.9a3.183,3.183,0,0,1,1.1-2.492,3.972,3.972,0,0,1,2.738-.974,3.972,3.972,0,0,1,2.738.974,3.378,3.378,0,0,1,0,4.983,3.972,3.972,0,0,1-2.738.974A3.972,3.972,0,0,1,5.416,39.4,3.183,3.183,0,0,1,4.319,36.9Z" transform="translate(44 27)" fill="#fff"/>
</svg>
