<svg id="reloj" xmlns="http://www.w3.org/2000/svg" xmlns:xlink="http://www.w3.org/1999/xlink" width="25.295" height="25.56" viewBox="0 0 25.295 25.56">
  <defs>
    <clipPath id="clip-path">
      <rect id="Rectángulo_34074" data-name="Rectángulo 34074" width="25.295" height="25.56" fill="none"/>
    </clipPath>
  </defs>
  <g id="Grupo_80814" data-name="Grupo 80814" clip-path="url(#clip-path)">
    <path id="Trazado_115398" data-name="Trazado 115398" d="M14.272,22.635a11.48,11.48,0,1,0,0,22.96h0V22.635Z" transform="translate(-1.625 -21.202)" fill="#28c9d9"/>
    <path id="Trazado_115399" data-name="Trazado 115399" d="M41.746,34.115a11.48,11.48,0,0,0-11.48-11.48v22.96a11.481,11.481,0,0,0,11.48-11.48" transform="translate(-17.618 -21.202)" fill="#21a3b0"/>
    <path id="Trazado_115400" data-name="Trazado 115400" d="M39.521,36.929a9.257,9.257,0,0,0-9.256-9.255v18.51a9.256,9.256,0,0,0,9.256-9.255" transform="translate(-17.618 -24.136)" fill="#e8e8e8"/>
    <path id="Trazado_115401" data-name="Trazado 115401" d="M17.373,27.674a9.255,9.255,0,0,0,0,18.51h0V27.674Z" transform="translate(-4.726 -24.136)" fill="#fff"/>
    <path id="Trazado_115402" data-name="Trazado 115402" d="M21.686,47.511,25.271,44.9v-10.3Z" transform="translate(-12.624 -28.171)" fill="#f2555c"/>
    <path id="Trazado_115403" data-name="Trazado 115403" d="M30.266,34.606V44.9l3.585,2.606Z" transform="translate(-17.618 -28.171)" fill="#f13d3c"/>
    <path id="Trazado_115404" data-name="Trazado 115404" d="M42.913,32.49A12.647,12.647,0,0,0,30.266,19.843V21.01a11.48,11.48,0,1,1,0,22.96v1.167A12.647,12.647,0,0,0,42.913,32.49" transform="translate(-17.618 -19.577)" fill="#16385c"/>
    <path id="Trazado_115405" data-name="Trazado 115405" d="M12.647,43.97a11.48,11.48,0,1,1,0-22.96h0V19.843h0a12.647,12.647,0,1,0,0,25.294h0V43.97Z" transform="translate(0 -19.577)" fill="#1e4c7e"/>
    <path id="Trazado_115406" data-name="Trazado 115406" d="M29.975,24.1a.738.738,0,1,0-.738.738.738.738,0,0,0,.738-.738" transform="translate(-16.59 -21.625)" fill="#fff"/>
    <path id="Trazado_115407" data-name="Trazado 115407" d="M29.975,73.882a.738.738,0,1,0-.738.738.738.738,0,0,0,.738-.738" transform="translate(-16.59 -50.605)" fill="#fff"/>
    <path id="Trazado_115408" data-name="Trazado 115408" d="M54.128,49.729a.738.738,0,1,0-.738-.738.738.738,0,0,0,.738.738" transform="translate(-31.079 -36.115)" fill="#fff"/>
    <path id="Trazado_115409" data-name="Trazado 115409" d="M4.345,49.729a.738.738,0,1,0-.738-.738.738.738,0,0,0,.738.738" transform="translate(-2.1 -36.115)" fill="#fff"/>
    <path id="Trazado_115410" data-name="Trazado 115410" d="M12.339,31.42a.475.475,0,1,0,0,.672.476.476,0,0,0,0-.672" transform="translate(-6.71 -26.236)" fill="#fff"/>
    <path id="Trazado_115411" data-name="Trazado 115411" d="M47.54,66.622a.475.475,0,1,0,0,.672.476.476,0,0,0,0-.672" transform="translate(-27.202 -46.727)" fill="#fff"/>
    <path id="Trazado_115412" data-name="Trazado 115412" d="M47.54,32.092a.475.475,0,1,0-.672,0,.476.476,0,0,0,.672,0" transform="translate(-27.202 -26.235)" fill="#fff"/>
    <path id="Trazado_115413" data-name="Trazado 115413" d="M12.339,67.295a.475.475,0,1,0-.672,0,.476.476,0,0,0,.672,0" transform="translate(-6.71 -46.727)" fill="#fff"/>
    <path id="Trazado_115414" data-name="Trazado 115414" d="M28.812,29.12h.3l.616,1v-1h.3v1.553h-.3l-.618-.992v.992h-.3Z" transform="translate(-16.772 -24.978)" fill="#feba11"/>
    <path id="Trazado_115415" data-name="Trazado 115415" d="M28.8,67.608c0-.308.182-.4.42-.4a2.358,2.358,0,0,1,.6.061V67.5c-.136-.012-.442-.021-.519-.021-.13,0-.2.006-.2.151v.076c0,.123.047.15.167.15H29.5c.3,0,.367.239.367.411v.1c0,.353-.22.418-.43.418a2.069,2.069,0,0,1-.6-.064v-.233c.085.008.344.023.541.023.089,0,.191-.015.191-.134V68.3c0-.088-.026-.145-.14-.145H29.2a.363.363,0,0,1-.4-.412Z" transform="translate(-16.762 -47.148)" fill="#feba11"/>
    <path id="Trazado_115416" data-name="Trazado 115416" d="M8.961,48.881l1.153-.345-1.153-.279v-.318l.4.109.757-.246-1.158-.285V47.2l1.553.427v.344l-.636.209.636.184v.344L8.961,49.2Z" transform="translate(-5.216 -35.503)" fill="#feba11"/>
    <path id="Trazado_115417" data-name="Trazado 115417" d="M48.326,48.107c.287,0,.318.22.312.359,0,0-.02.542-.036.662h-.244v-.592c0-.061,0-.131-.11-.131h-.242l-.02.627h-.245l-.022-.627h-.242c-.057,0-.119,0-.119.11v.613h-.245c-.019-.137-.034-.683-.034-.683a.3.3,0,0,1,.323-.338Z" transform="translate(-27.405 -36.03)" fill="#feba11"/>
  </g>
</svg>
